<?xml version="1.0" standalone="no"?>
<!DOCTYPE svg PUBLIC "-//W3C//DTD SVG 20010904//EN"
 "http://www.w3.org/TR/2001/REC-SVG-20010904/DTD/svg10.dtd">
<svg version="1.0" xmlns="http://www.w3.org/2000/svg"
 width="252.000000pt" height="252.000000pt" viewBox="0 0 252.000000 252.000000"
 preserveAspectRatio="xMidYMid meet">
<metadata>
Created by potrace 1.11, written by Peter Selinger 2001-2013
</metadata>
<g transform="translate(0.000000,252.000000) scale(0.100000,-0.100000)"
fill="#000000" stroke="none">
<path d="M1179 2506 c-60 -21 -921 -518 -962 -555 -21 -19 -48 -53 -60 -75
-22 -40 -22 -48 -25 -590 -3 -629 -5 -615 77 -695 32 -30 181 -122 481 -293
239 -137 451 -256 470 -265 54 -24 156 -21 210 7 25 12 239 133 475 268 470
268 502 292 530 383 23 79 23 1070 -1 1149 -28 95 -56 115 -560 403 -253 145
-476 267 -494 270 -49 10 -101 8 -141 -7z m209 -868 c11 -29 55 -153 98 -275
44 -123 84 -223 90 -223 6 0 46 98 89 218 42 119 86 241 97 270 l19 52 120 0
c65 0 119 -2 119 -5 0 -3 -282 -808 -332 -947 l-10 -28 -102 0 -101 0 -69 193
c-121 340 -128 358 -138 355 -6 -2 -54 -125 -107 -273 l-96 -270 -104 0 -103
0 -165 465 c-90 256 -166 475 -169 488 -6 22 -6 22 114 22 l119 0 93 -259
c101 -282 104 -291 119 -276 5 6 48 120 96 255 48 135 91 255 96 268 8 21 14
22 108 22 l100 0 19 -52z"/>
</g>
</svg>
