<?xml version="1.0" encoding="utf-8"?>
<!-- Generator: Adobe Illustrator 19.1.0, SVG Export Plug-In . SVG Version: 6.00 Build 0)  -->
<svg version="1.1" xmlns="http://www.w3.org/2000/svg" xmlns:xlink="http://www.w3.org/1999/xlink" x="0px" y="0px" width="24px"
	 height="24px" viewBox="0 0 24 24" enable-background="new 0 0 24 24" xml:space="preserve">
<g id="Bounding_Boxes">
	<g id="ui_x5F_spec_x5F_header_copy_3">
	</g>
	<path fill="none" d="M0,0h24v24H0V0z"/>
</g>
<g id="Rounded">
	<g id="ui_x5F_spec_x5F_header_copy_6">
	</g>
	<path fill="currentColor" d="M4,10.5c-0.83,0-1.5,0.67-1.5,1.5s0.67,1.5,1.5,1.5s1.5-0.67,1.5-1.5S4.83,10.5,4,10.5z M4,4.5C3.17,4.5,2.5,5.17,2.5,6
		S3.17,7.5,4,7.5S5.5,6.83,5.5,6S4.83,4.5,4,4.5z M4,16.5c-0.83,0-1.5,0.68-1.5,1.5s0.68,1.5,1.5,1.5s1.5-0.68,1.5-1.5
		S4.83,16.5,4,16.5z M8,19h12c0.55,0,1-0.45,1-1v0c0-0.55-0.45-1-1-1H8c-0.55,0-1,0.45-1,1v0C7,18.55,7.45,19,8,19z M8,13h12
		c0.55,0,1-0.45,1-1v0c0-0.55-0.45-1-1-1H8c-0.55,0-1,0.45-1,1v0C7,12.55,7.45,13,8,13z M7,6L7,6c0,0.55,0.45,1,1,1h12
		c0.55,0,1-0.45,1-1v0c0-0.55-0.45-1-1-1H8C7.45,5,7,5.45,7,6z"/>
</g>
</svg>
