<?xml version="1.0" encoding="utf-8"?>
<!-- Generator: Adobe Illustrator 19.1.0, SVG Export Plug-In . SVG Version: 6.00 Build 0)  -->
<svg version="1.1" xmlns="http://www.w3.org/2000/svg" xmlns:xlink="http://www.w3.org/1999/xlink" x="0px" y="0px" width="24px"
	 height="24px" viewBox="0 0 24 24" enable-background="new 0 0 24 24" xml:space="preserve">
<g id="Bounding_Boxes">
	<g id="ui_x5F_spec_x5F_header_copy_3">
	</g>
	<path fill="none" d="M0,0h24v24H0V0z"/>
</g>
<g id="Rounded">
	<g id="ui_x5F_spec_x5F_header_copy_6">
	</g>
	<path fill="currentColor" d="M12.79,16.95c3.03-0.39,5.21-3.11,5.21-6.16l0-6.54C18,3.56,17.44,3,16.75,3h0c-0.69,0-1.25,0.56-1.25,1.25l0,6.65
		c0,1.67-1.13,3.19-2.77,3.52C10.48,14.89,8.5,13.17,8.5,11V4.25C8.5,3.56,7.94,3,7.25,3h0C6.56,3,6,3.56,6,4.25V11
		C6,14.57,9.13,17.42,12.79,16.95z M5,20L5,20c0,0.55,0.45,1,1,1h12c0.55,0,1-0.45,1-1v0c0-0.55-0.45-1-1-1H6C5.45,19,5,19.45,5,20z
		"/>
</g>
</svg>
