<?xml version="1.0" encoding="utf-8"?>
<!-- Generator: Adobe Illustrator 19.1.0, SVG Export Plug-In . SVG Version: 6.00 Build 0)  -->
<svg version="1.1" xmlns="http://www.w3.org/2000/svg" xmlns:xlink="http://www.w3.org/1999/xlink" x="0px" y="0px" width="24px"
	 height="24px" viewBox="0 0 24 24" enable-background="new 0 0 24 24" xml:space="preserve">
<g id="Header_x2F_BG" display="none">
	<rect x="-358" y="-226" display="inline" fill="#F1F1F2" width="520" height="520"/>
</g>
<g id="Bounding_Boxes">
	<g id="ui_x5F_spec_x5F_header_copy_3">
	</g>
	<path fill="none" d="M0,0h24v24H0V0z"/>
</g>
<g id="Rounded">
	<g id="ui_x5F_spec_x5F_header_copy_5">
	</g>
	<path fill="currentColor" d="M8.7,15.9L4.8,12l3.9-3.9c0.39-0.39,0.39-1.01,0-1.4l0,0c-0.39-0.39-1.01-0.39-1.4,0l-4.59,4.59
		c-0.39,0.39-0.39,1.02,0,1.41L7.3,17.3c0.39,0.39,1.01,0.39,1.4,0l0,0C9.09,16.91,9.09,16.29,8.7,15.9z M15.3,15.9l3.9-3.9
		l-3.9-3.9c-0.39-0.39-0.39-1.01,0-1.4l0,0c0.39-0.39,1.01-0.39,1.4,0l4.59,4.59c0.39,0.39,0.39,1.02,0,1.41L16.7,17.3
		c-0.39,0.39-1.01,0.39-1.4,0l0,0C14.91,16.91,14.91,16.29,15.3,15.9z"/>
</g>
</svg>
