<?xml version="1.0" encoding="utf-8"?>
<!-- Generator: Adobe Illustrator 19.1.0, SVG Export Plug-In . SVG Version: 6.00 Build 0)  -->
<svg version="1.1" xmlns="http://www.w3.org/2000/svg" xmlns:xlink="http://www.w3.org/1999/xlink" x="0px" y="0px" width="24px"
	 height="24px" viewBox="0 0 24 24" enable-background="new 0 0 24 24" xml:space="preserve">
<g id="Bounding_Boxes">
	<path fill="none" d="M0,0h24v24H0V0z"/>
</g>
<g id="Rounded">
	<path d="M6,14L6,14c-0.55,0-1,0.45-1,1v3c0,0.55,0.45,1,1,1h3c0.55,0,1-0.45,1-1v0c0-0.55-0.45-1-1-1H7v-2C7,14.45,6.55,14,6,14z
		 M6,10L6,10c0.55,0,1-0.45,1-1V7h2c0.55,0,1-0.45,1-1v0c0-0.55-0.45-1-1-1H6C5.45,5,5,5.45,5,6v3C5,9.55,5.45,10,6,10z M17,17h-2
		c-0.55,0-1,0.45-1,1v0c0,0.55,0.45,1,1,1h3c0.55,0,1-0.45,1-1v-3c0-0.55-0.45-1-1-1h0c-0.55,0-1,0.45-1,1V17z M14,6L14,6
		c0,0.55,0.45,1,1,1h2v2c0,0.55,0.45,1,1,1h0c0.55,0,1-0.45,1-1V6c0-0.55-0.45-1-1-1h-3C14.45,5,14,5.45,14,6z"/>
</g>
</svg>
