<?xml version="1.0" encoding="utf-8"?>
<!-- Generator: Adobe Illustrator 19.1.0, SVG Export Plug-In . SVG Version: 6.00 Build 0)  -->
<svg version="1.1" xmlns="http://www.w3.org/2000/svg" xmlns:xlink="http://www.w3.org/1999/xlink" x="0px" y="0px" width="24px"
	 height="24px" viewBox="0 0 24 24" enable-background="new 0 0 24 24" xml:space="preserve">
<g id="Bounding_Boxes">
	<path fill="none" d="M0,0h24v24H0V0z"/>
</g>
<g id="Rounded">
	<path d="M6,16h2v2c0,0.55,0.45,1,1,1h0c0.55,0,1-0.45,1-1v-3c0-0.55-0.45-1-1-1H6c-0.55,0-1,0.45-1,1v0C5,15.55,5.45,16,6,16z M8,8
		H6C5.45,8,5,8.45,5,9v0c0,0.55,0.45,1,1,1h3c0.55,0,1-0.45,1-1V6c0-0.55-0.45-1-1-1h0C8.45,5,8,5.45,8,6V8z M15,19L15,19
		c0.55,0,1-0.45,1-1v-2h2c0.55,0,1-0.45,1-1v0c0-0.55-0.45-1-1-1h-3c-0.55,0-1,0.45-1,1v3C14,18.55,14.45,19,15,19z M16,8V6
		c0-0.55-0.45-1-1-1h0c-0.55,0-1,0.45-1,1v3c0,0.55,0.45,1,1,1h3c0.55,0,1-0.45,1-1v0c0-0.55-0.45-1-1-1H16z"/>
</g>
</svg>
