<svg width="20px" height="20px" viewBox="0 0 20 20" version="1.1" xmlns="http://www.w3.org/2000/svg" xmlns:xlink="http://www.w3.org/1999/xlink">
    <!-- Generator: Sketch 50.2 (55047) - http://www.bohemiancoding.com/sketch -->
    <desc>Created with Sketch.</desc>
    <defs></defs>
    <g id="Webiny---PageEditor" stroke="none" stroke-width="1" fill="none" fill-rule="evenodd">
        <g id="Page-editor---Toolbar-opened" transform="translate(-640.000000, -22.000000)">
            <g id="Toolbar" transform="translate(15.000000, 12.000000)">
                <g id="height-icon" transform="translate(635.000000, 20.000000) rotate(90.000000) translate(-635.000000, -20.000000) translate(619.000000, 4.000000)">
                    <g id="round-fullscreen-24px-copy">
                        <g id="Bounding_Boxes">
                            <polygon id="Shape" points="0 0 32 0 32 32 0 32"></polygon>
                        </g>
                        <g id="Rounded" transform="translate(6.666667, 6.666667)" fill="#757575" fill-rule="nonzero">
                            <path d="M1.33333333,12 C0.6,12 0,12.6 0,13.3333333 L0,17.3333333 C0,18.0666667 0.6,18.6666667 1.33333333,18.6666667 L5.33333333,18.6666667 C6.06666667,18.6666667 6.66666667,18.0666667 6.66666667,17.3333333 C6.66666667,16.6 6.06666667,16 5.33333333,16 L2.66666667,16 L2.66666667,13.3333333 C2.66666667,12.6 2.06666667,12 1.33333333,12 Z M1.33333333,6.66666667 C2.06666667,6.66666667 2.66666667,6.06666667 2.66666667,5.33333333 L2.66666667,2.66666667 L5.33333333,2.66666667 C6.06666667,2.66666667 6.66666667,2.06666667 6.66666667,1.33333333 C6.66666667,0.6 6.06666667,0 5.33333333,0 L1.33333333,0 C0.6,0 0,0.6 0,1.33333333 L0,5.33333333 C0,6.06666667 0.6,6.66666667 1.33333333,6.66666667 Z M16,16 L13.3333333,16 C12.6,16 12,16.6 12,17.3333333 C12,18.0666667 12.6,18.6666667 13.3333333,18.6666667 L17.3333333,18.6666667 C18.0666667,18.6666667 18.6666667,18.0666667 18.6666667,17.3333333 L18.6666667,13.3333333 C18.6666667,12.6 18.0666667,12 17.3333333,12 C16.6,12 16,12.6 16,13.3333333 L16,16 Z M12,1.33333333 C12,2.06666667 12.6,2.66666667 13.3333333,2.66666667 L16,2.66666667 L16,5.33333333 C16,6.06666667 16.6,6.66666667 17.3333333,6.66666667 C18.0666667,6.66666667 18.6666667,6.06666667 18.6666667,5.33333333 L18.6666667,1.33333333 C18.6666667,0.6 18.0666667,0 17.3333333,0 L13.3333333,0 C12.6,0 12,0.6 12,1.33333333 Z" id="Shape"></path>
                        </g>
                    </g>
                    <g id="arrows-alt-h-solid" transform="translate(9.000000, 13.000000)" fill="#757575" fill-rule="nonzero">
                        <path d="M11.0585895,0.727850195 L11.0585895,2.07198444 L3.94141051,2.07198444 L3.94141051,0.727850195 C3.94141051,0.103861868 3.18700389,-0.208628405 2.74575875,0.232587549 L0.234309339,2.74403696 C-0.0392217899,3.01756809 -0.0392217899,3.46100195 0.234309339,3.73453307 L2.74575875,6.24598249 C3.18697471,6.68719844 3.94141051,6.37470817 3.94141051,5.75071984 L3.94141051,4.40661479 L11.0585895,4.40661479 L11.0585895,5.75074903 C11.0585895,6.37473735 11.8129961,6.68722763 12.2542412,6.24601167 L14.7656907,3.73456226 C15.0392218,3.46103113 15.0392218,3.01759728 14.7656907,2.74406615 L12.2542412,0.232616732 C11.8130253,-0.208628405 11.0585895,0.103861868 11.0585895,0.727850195 Z" id="Shape"></path>
                    </g>
                </g>
            </g>
        </g>
    </g>
</svg>