<?xml version="1.0" encoding="utf-8"?>
<!-- Generator: Adobe Illustrator 19.1.0, SVG Export Plug-In . SVG Version: 6.00 Build 0)  -->
<svg version="1.1" xmlns="http://www.w3.org/2000/svg" xmlns:xlink="http://www.w3.org/1999/xlink" x="0px" y="0px"
	 height="24px" viewBox="0 0 24 24" enable-background="new 0 0 24 24" xml:space="preserve">
<g id="Header_x2F_BG" display="none">
	<rect x="-182" y="-446" display="inline" fill="#F1F1F2" width="520" height="520"/>
</g>
<g id="Bounding_Boxes">
	<g id="ui_x5F_spec_x5F_header_copy_3">
	</g>
	<path fill="none" d="M0,0h24v24H0V0z"/>
</g>
<g id="Rounded">
	<g id="ui_x5F_spec_x5F_header_copy_5">
	</g>
	<g>
		<path fill="currentColor" d="M12,2C6.48,2,2,6.48,2,12c0,5.52,4.48,10,10,10s10-4.48,10-10C22,6.48,17.52,2,12,2z M12,20c-4.41,0-8-3.59-8-8
			c0-4.41,3.59-8,8-8s8,3.59,8,8C20,16.41,16.41,20,12,20z"/>
		<rect fill="currentColor" x="11" y="16" width="2" height="2"/>
		<path fill="currentColor" d="M12.61,6.04c-2.06-0.3-3.88,0.97-4.43,2.79C8,9.41,8.44,10,9.05,10h0.2c0.41,0,0.74-0.29,0.88-0.67
			c0.32-0.89,1.27-1.5,2.3-1.28c0.95,0.2,1.65,1.13,1.57,2.1c-0.1,1.34-1.62,1.63-2.45,2.88h0c0,0.01-0.01,0.01-0.01,0.02
			c-0.01,0.02-0.02,0.03-0.03,0.05c-0.09,0.15-0.18,0.32-0.25,0.5c-0.01,0.03-0.03,0.05-0.04,0.08c-0.01,0.02-0.01,0.04-0.02,0.07
			C11.08,14.09,11,14.5,11,15h1.13h0H13c0-0.42,0.11-0.77,0.28-1.07c0.02-0.03,0.03-0.06,0.05-0.09c0.08-0.14,0.18-0.27,0.28-0.39
			c0.01-0.01,0.02-0.03,0.03-0.04c0.1-0.12,0.21-0.23,0.33-0.34c0.96-0.91,2.26-1.65,1.99-3.56C15.72,7.77,14.35,6.3,12.61,6.04z"/>
	</g>
</g>
</svg>
