<?xml version="1.0" encoding="UTF-8"?>
<svg width="75px" height="75px" viewBox="0 0 75 75" version="1.1" xmlns="http://www.w3.org/2000/svg" xmlns:xlink="http://www.w3.org/1999/xlink">
    <!-- Generator: Sketch 50.2 (55047) - http://www.bohemiancoding.com/sketch -->
    <title>image-icon</title>
    <desc>Created with Sketch.</desc>
    <defs></defs>
    <g id="Icons" stroke="none" stroke-width="1" fill="none" fill-rule="evenodd">
        <g transform="translate(-616.000000, -86.000000)" id="Image-icon">
            <g transform="translate(577.000000, 50.000000)">
                <g id="image-icon" transform="translate(20.000000, 20.000000)">
                    <g id="Bounding_Boxes">
                        <polygon id="Shape" points="0 0 110 0 110 110 0 110"></polygon>
                    </g>
                    <g id="Rounded" transform="translate(19.000000, 16.000000)" fill="#000000" fill-rule="nonzero">
                        <path fill="currentColor" d="M75,66.6666667 L75,8.33333333 C75,3.75 71.25,0 66.6666667,0 L8.33333333,0 C3.75,0 0,3.75 0,8.33333333 L0,66.6666667 C0,71.25 3.75,75 8.33333333,75 L66.6666667,75 C71.25,75 75,71.25 75,66.6666667 Z M24.5833333,45.75 L33.3333333,56.2916667 L46.25,39.6666667 C47.0833333,38.5833333 48.75,38.5833333 49.5833333,39.7083333 L64.2083333,59.2083333 C65.25,60.5833333 64.25,62.5416667 62.5416667,62.5416667 L12.5833333,62.5416667 C10.8333333,62.5416667 9.875,60.5416667 10.9583333,59.1666667 L21.3333333,45.8333333 C22.125,44.75 23.7083333,44.7083333 24.5833333,45.75 Z" id="Shape"></path>
                    </g>
                </g>
            </g>
        </g>
    </g>
</svg>