<?xml version="1.0" encoding="utf-8"?>
<!-- Generator: Adobe Illustrator 19.1.0, SVG Export Plug-In . SVG Version: 6.00 Build 0)  -->
<svg version="1.1" xmlns="http://www.w3.org/2000/svg" xmlns:xlink="http://www.w3.org/1999/xlink" x="0px" y="0px" width="24px"
	 height="24px" viewBox="0 0 24 24" enable-background="new 0 0 24 24" xml:space="preserve">
<g id="Bounding_Boxes">
	<g id="ui_x5F_spec_x5F_header_copy_3" display="none">
	</g>
	<path fill="none" d="M0,0h24v24H0V0z"/>
</g>
<g id="Rounded_1_">
	<g id="ui_x5F_spec_x5F_header_copy_6" display="none">
	</g>
	<path fill="currentColor" d="M5,18L5,18c0,0.55,0.45,1,1,1h12c0.55,0,1-0.45,1-1v0c0-0.55-0.45-1-1-1H6C5.45,17,5,17.45,5,18z M9.5,12.8h5l0.66,1.6
		c0.15,0.36,0.5,0.6,0.89,0.6h0c0.69,0,1.15-0.71,0.88-1.34l-3.88-8.97C12.87,4.27,12.46,4,12,4h0c-0.46,0-0.87,0.27-1.05,0.69
		l-3.88,8.97C6.8,14.29,7.27,15,7.96,15h0c0.39,0,0.74-0.24,0.89-0.6L9.5,12.8z M12,5.98L13.87,11h-3.74L12,5.98z"/>
</g>
</svg>
