<?xml version="1.0" encoding="utf-8"?>
<!-- Generator: Adobe Illustrator 19.1.0, SVG Export Plug-In . SVG Version: 6.00 Build 0)  -->
<svg version="1.1" xmlns="http://www.w3.org/2000/svg" xmlns:xlink="http://www.w3.org/1999/xlink" x="0px" y="0px" width="24px"
	 height="24px" viewBox="0 0 24 24" enable-background="new 0 0 24 24" xml:space="preserve">
<g id="Bounding_Boxes">
	<g id="ui_x5F_spec_x5F_header_copy_3">
	</g>
	<path fill="none" d="M0,0h24v24H0V0z"/>
</g>
<g id="Rounded">
	<g id="ui_x5F_spec_x5F_header_copy_5">
	</g>
	<path d="M12,4C7,4,2.73,7.11,1,11.5C2.73,15.89,7,19,12,19s9.27-3.11,11-7.5C21.27,7.11,17,4,12,4z M12,16.5c-2.76,0-5-2.24-5-5
		s2.24-5,5-5s5,2.24,5,5S14.76,16.5,12,16.5z M12,8.5c-1.66,0-3,1.34-3,3s1.34,3,3,3s3-1.34,3-3S13.66,8.5,12,8.5z"/>
</g>
</svg>
