<?xml version="1.0" encoding="UTF-8"?>
<svg width="114px" height="126px" viewBox="0 0 114 126" version="1.1" xmlns="http://www.w3.org/2000/svg" xmlns:xlink="http://www.w3.org/1999/xlink">
    <!-- Generator: Sketch 55.2 (78181) - https://sketchapp.com -->
    <title>Webiny Icon White</title>
    <desc>Created with Sketch.</desc>
    <defs>
        <path d="M106.337016,98.7997963 L63.0899545,123.570655 C58.9970198,125.91444 53.9546983,125.91444 49.861857,123.570655 L6.61395537,98.7997963 C2.52111405,96.4552699 -5.07221701e-15,92.1236493 -4.78514071e-15,87.4353375 L-1.75158541e-15,37.8936199 C-1.46450911e-15,33.2053081 2.52111405,28.873039 6.61395537,26.5292537 L49.861857,1.75839485 C53.9546983,-0.586131618 58.9970198,-0.586131618 63.0899545,1.75839485 L106.337016,26.5292537 C110.42995,28.873039 112.951064,33.2053081 112.951064,37.8936199 L112.951064,87.4353375 C112.951064,92.1236493 110.42995,96.4552699 106.337016,98.7997963 Z M82.6150471,41.7683515 C79.3715736,50.8470221 76.1049397,59.9486691 72.8391463,69.0602294 L71.8026281,69.0602294 C68.5476678,59.9265265 65.281781,50.8027368 62.0268207,41.6911765 L51.872043,41.6911765 C48.5723496,50.9027956 45.3065562,60.0257515 42.0407628,69.1602882 L41.0927769,69.1602882 C37.7823438,59.9371809 34.4719107,50.7148147 31.2722364,41.8126368 L19.1446281,41.8126368 C25.0417339,58.5659118 30.7933405,74.8990324 36.5448537,91.2321529 L46.554786,91.2321529 L56.4646992,63.5972029 L57.4680645,63.5972029 C60.7784975,72.8645956 64.0781909,82.1427353 67.3216645,91.2099176 L77.3540099,91.2099176 C83.127843,74.8103691 88.8794496,58.4665941 94.7542355,41.7683515 L82.6150471,41.7683515 Z" id="path-1"></path>
    </defs>
    <g id="Page-2" stroke="none" stroke-width="1" fill="none" fill-rule="evenodd">
        <g id="Webiny-Logo-Icon" transform="translate(-248.000000, -202.000000)">
            <g id="Group-13" transform="translate(297.500000, 305.500000) rotate(-90.000000) translate(-297.500000, -305.500000) translate(194.500000, 183.500000)">
                <g id="Webiny-Icon-White" transform="translate(143.000000, 129.500000) rotate(90.000000) translate(-143.000000, -129.500000) translate(86.500000, 66.500000)">
                    <mask id="mask-2" fill="white">
                        <use xlink:href="#path-1"></use>
                    </mask>
                    <use id="Mask" fill="#FFFFFF" fill-rule="evenodd" xlink:href="#path-1"></use>
                    <g id="White" mask="url(#mask-2)"></g>
                </g>
            </g>
        </g>
    </g>
</svg>