<svg width="12" height="7" viewBox="0 0 12 7" fill="none" xmlns="http://www.w3.org/2000/svg">
<path fill-rule="evenodd" clip-rule="evenodd" d="M8.28043 6.8579C8.46371 7.04737 8.761 7.04737 8.94427 6.85791L11.8625 3.84293C11.9542 3.74833 12 3.62403 12 3.5C12 3.37595 11.9542 3.25167 11.8625 3.15695L8.94427 0.141965C8.76149 -0.0467324 8.46531 -0.0474896 8.2818 0.1407C8.09806 0.3289 8.09635 0.631595 8.27764 0.821806L10.3622 3.00852L0.46945 3.00851C0.210139 3.00851 0 3.23167 0 3.49945C0 3.76734 0.210139 3.99039 0.46945 3.99039L10.3971 3.99041L8.28043 6.17473C8.09707 6.36419 8.09707 6.66844 8.28043 6.8579Z" fill="#7B39D9"/>
</svg>
