<?xml version="1.0" encoding="UTF-8"?>
<svg width="871px" height="348px" viewBox="0 0 871 348" version="1.1" xmlns="http://www.w3.org/2000/svg" xmlns:xlink="http://www.w3.org/1999/xlink">
    <!-- Generator: Sketch 52.5 (67469) - http://www.bohemiancoding.com/sketch -->
    <title>phone-desktop</title>
    <desc>Created with Sketch.</desc>
    <defs>
        <path d="M0,0 L786.814516,0 L786.814516,440.393145 C786.814516,442.592263 785.031779,444.375 782.832661,444.375 L3.98185484,444.375 C1.78273714,444.375 1.6700615e-14,442.592263 1.64313008e-14,440.393145 L0,0 Z" id="path-1"></path>
        <rect id="path-3" x="0" y="0" width="143.346774" height="143.346774" rx="6.37096774"></rect>
        <path d="M46.743295,2.39146816 L46.743295,0 L44.4444439,0 C45.7143437,0 46.743295,1.02805365 46.743295,2.29622209 L46.743295,2.39146816 L46.743295,3.44212249 C46.743295,11.0479215 52.9275889,17.2106124 60.5563021,17.2106124 L154.960939,17.2106124 C162.588902,17.2106124 168.773946,11.0462495 168.773946,3.44212249 L168.773946,2.29622209 L168.773946,2.48671423 L168.773946,0 L171.264368,0 L171.264368,0.00784177944 C171.201201,0.00264806621 171.137309,0 171.072797,0 L194.444747,0 C206.082764,0 215.517241,9.41707516 215.517241,21.0352209 L215.517241,444.798688 C215.517241,456.416121 206.083366,465.83391 194.444747,465.83391 L21.0724937,465.83391 C9.43447678,465.83391 0,456.416835 0,444.798688 L0,21.0352209 C0,9.41778919 9.43387619,0 21.0724937,0 L44.2528736,0 Z" id="path-5"></path>
        <rect id="path-7" x="0" y="0" width="180" height="180" rx="8"></rect>
    </defs>
    <g id="Call-to-Action" stroke="none" stroke-width="1" fill="none" fill-rule="evenodd">
        <g id="Call-to-Action-9" transform="translate(-325.000000, -452.000000)">
            <g id="phone-desktop">
                <g transform="translate(325.000000, 452.000000)">
                    <g id="Devices-/-Safari">
                        <g id="Safari">
                            <g id="Interface">
                                <path d="M4.77822581,0 L785.221774,0 C787.860715,-4.84765642e-16 790,2.13928456 790,4.77822581 L790,30.2620968 L0,30.2620968 L0,4.77822581 C-3.23177095e-16,2.13928456 2.13928456,2.26112248e-15 4.77822581,1.77635684e-15 Z" id="Rectangle-17" fill="#FFFFFF"></path>
                                <path d="M4.77822581,0 L785.221774,0 C787.860715,-4.84765642e-16 790,2.13928456 790,4.77822581 L790,30.2620968 L0,30.2620968 L0,4.77822581 C-3.23177095e-16,2.13928456 2.13928456,2.26112248e-15 4.77822581,1.77635684e-15 Z M5.57459677,1.59274194 C3.37547907,1.59274194 1.59274194,3.37547907 1.59274194,5.57459677 L1.59274194,28.6693548 L788.407258,28.6693548 L788.407258,5.57459677 C788.407258,3.37547907 786.624521,1.59274194 784.425403,1.59274194 L5.57459677,1.59274194 Z" id="BG" fill="#DEDEDE"></path>
                                <path d="M0,30.2620968 L790,30.2620968 L790,472.247984 C790,474.447102 788.217263,476.229839 786.018145,476.229839 L3.98185484,476.229839 C1.78273714,476.229839 1.6700615e-14,474.447102 1.64313008e-14,472.247984 L0,30.2620968 Z" id="Screen" fill="#DEDEDE"></path>
                                <g id="Adress" transform="translate(215.020161, 5.574597)" fill="#DEDEDE">
                                    <path d="M3.18548387,0 L355.977823,0 C357.737117,-3.23177095e-16 359.163306,1.42618971 359.163306,3.18548387 L359.163306,15.9274194 C359.163306,17.6867135 357.737117,19.1129032 355.977823,19.1129032 L3.18548387,19.1129032 C1.42618971,19.1129032 4.77974811e-15,17.6867135 2.22044605e-15,15.9274194 L0,3.18548387 C-2.15451397e-16,1.42618971 1.42618971,-1.00909053e-15 3.18548387,-1.33226763e-15 Z M3.98185484,1.59274194 C2.66238422,1.59274194 1.59274194,2.66238422 1.59274194,3.98185484 L1.59274194,15.1310484 C1.59274194,16.450519 2.66238422,17.5201613 3.98185484,17.5201613 L355.181452,17.5201613 C356.500922,17.5201613 357.570565,16.450519 357.570565,15.1310484 L357.570565,3.98185484 C357.570565,2.66238422 356.500922,1.59274194 355.181452,1.59274194 L3.98185484,1.59274194 Z" id="Combined-Shape"></path>
                                </g>
                                <g id="New-Page" transform="translate(770.090726, 10.352823)" fill="#DEDEDE">
                                    <path d="M19.1129032,1.59274194 L1.59274194,1.59274194 L1.59274194,19.1129032 L0,19.1129032 L0,0 L19.1129032,0 L19.1129032,1.59274194 Z" id="Combined-Shape"></path>
                                </g>
                                <g id="Sites" transform="translate(732.661290, 5.574597)" fill="#DEDEDE">
                                    <path d="M3.18548387,0 L27.8729839,0 C29.632278,-3.23177095e-16 31.0584677,1.42618971 31.0584677,3.18548387 L31.0584677,15.9274194 C31.0584677,17.6867135 29.632278,19.1129032 27.8729839,19.1129032 L3.18548387,19.1129032 C1.42618971,19.1129032 -1.2237111e-15,17.6867135 -2.22044605e-15,15.9274194 L0,3.18548387 C-2.15451397e-16,1.42618971 1.42618971,-5.65001325e-16 3.18548387,-8.8817842e-16 Z M3.98185484,1.59274194 C2.66238422,1.59274194 1.59274194,2.66238422 1.59274194,3.98185484 L1.59274194,15.1310484 C1.59274194,16.450519 2.66238422,17.5201613 3.98185484,17.5201613 L27.0766129,17.5201613 C28.3960835,17.5201613 29.4657258,16.450519 29.4657258,15.1310484 L29.4657258,3.98185484 C29.4657258,2.66238422 28.3960835,1.59274194 27.0766129,1.59274194 L3.98185484,1.59274194 Z" id="Combined-Shape"></path>
                                </g>
                                <g id="Share" transform="translate(696.824597, 5.574597)" fill="#DEDEDE">
                                    <path d="M3.18548387,0 L27.8729839,0 C29.632278,-3.23177095e-16 31.0584677,1.42618971 31.0584677,3.18548387 L31.0584677,15.9274194 C31.0584677,17.6867135 29.632278,19.1129032 27.8729839,19.1129032 L3.18548387,19.1129032 C1.42618971,19.1129032 -1.2237111e-15,17.6867135 -2.22044605e-15,15.9274194 L0,3.18548387 C-2.15451397e-16,1.42618971 1.42618971,-5.65001325e-16 3.18548387,-8.8817842e-16 Z M3.98185484,1.59274194 C2.66238422,1.59274194 1.59274194,2.66238422 1.59274194,3.98185484 L1.59274194,15.1310484 C1.59274194,16.450519 2.66238422,17.5201613 3.98185484,17.5201613 L27.0766129,17.5201613 C28.3960835,17.5201613 29.4657258,16.450519 29.4657258,15.1310484 L29.4657258,3.98185484 C29.4657258,2.66238422 28.3960835,1.59274194 27.0766129,1.59274194 L3.98185484,1.59274194 Z" id="Combined-Shape"></path>
                                </g>
                                <g id="Dots" transform="translate(11.945565, 10.352823)" fill="#DEDEDE">
                                    <circle id="Combined-Shape" cx="4.77822581" cy="4.77822581" r="4.77822581"></circle>
                                    <circle id="Combined-Shape" cx="20.7056452" cy="4.77822581" r="4.77822581"></circle>
                                    <circle id="Combined-Shape" cx="36.6330645" cy="4.77822581" r="4.77822581"></circle>
                                </g>
                                <g id="Arrows" transform="translate(62.913306, 5.574597)" fill="#DEDEDE">
                                    <g id="Left">
                                        <path d="M3.18548387,0 L17.5201613,0 C19.2794555,-3.23177095e-16 20.7056452,1.42618971 20.7056452,3.18548387 L20.7056452,15.9274194 C20.7056452,17.6867135 19.2794555,19.1129032 17.5201613,19.1129032 L3.18548387,19.1129032 C1.42618971,19.1129032 9.96734951e-16,17.6867135 0,15.9274194 L-8.8817842e-16,3.18548387 C-1.10362982e-15,1.42618971 1.42618971,-1.00909053e-15 3.18548387,-1.33226763e-15 Z M3.98185484,1.59274194 C2.66238422,1.59274194 1.59274194,2.66238422 1.59274194,3.98185484 L1.59274194,15.1310484 C1.59274194,16.450519 2.66238422,17.5201613 3.98185484,17.5201613 L16.7237903,17.5201613 C18.0432609,17.5201613 19.1129032,16.450519 19.1129032,15.1310484 L19.1129032,3.98185484 C19.1129032,2.66238422 18.0432609,1.59274194 16.7237903,1.59274194 L3.98185484,1.59274194 Z" id="Combined-Shape"></path>
                                    </g>
                                    <g id="Right" transform="translate(21.502016, 0.000000)">
                                        <path d="M3.18548387,0 L17.5201613,0 C19.2794555,-3.23177095e-16 20.7056452,1.42618971 20.7056452,3.18548387 L20.7056452,15.9274194 C20.7056452,17.6867135 19.2794555,19.1129032 17.5201613,19.1129032 L3.18548387,19.1129032 C1.42618971,19.1129032 9.96734951e-16,17.6867135 0,15.9274194 L-8.8817842e-16,3.18548387 C-1.10362982e-15,1.42618971 1.42618971,-1.00909053e-15 3.18548387,-1.33226763e-15 Z M3.98185484,1.59274194 C2.66238422,1.59274194 1.59274194,2.66238422 1.59274194,3.98185484 L1.59274194,15.1310484 C1.59274194,16.450519 2.66238422,17.5201613 3.98185484,17.5201613 L16.7237903,17.5201613 C18.0432609,17.5201613 19.1129032,16.450519 19.1129032,15.1310484 L19.1129032,3.98185484 C19.1129032,2.66238422 18.0432609,1.59274194 16.7237903,1.59274194 L3.98185484,1.59274194 Z" id="Combined-Shape"></path>
                                    </g>
                                </g>
                            </g>
                            <g id="Screen" transform="translate(1.592742, 30.262097)">
                                <mask id="mask-2" fill="white">
                                    <use xlink:href="#path-1"></use>
                                </mask>
                                <use fill="#F3F3F3" xlink:href="#path-1"></use>
                                <g id="Placeholders-/-Image-/-180px" mask="url(#mask-2)">
                                    <g transform="translate(321.733871, 151.310484)" id="Group-9">
                                        <g>
                                            <mask id="mask-4" fill="white">
                                                <use xlink:href="#path-3"></use>
                                            </mask>
                                            <use id="â—¼ï¸-Background" fill="#F3F3F3" xlink:href="#path-3"></use>
                                            <path d="M48.5462657,96.6434846 L82.0333458,63.1564044 C83.2619965,61.9277537 85.2540329,61.9277537 86.4826836,63.1564044 L96.8426424,73.5163631 L96.8426424,49.6502887 C96.8426424,47.9127142 95.4340599,46.5041318 93.6964855,46.5041318 L49.6502887,46.5041318 C47.9127142,46.5041318 46.5041318,47.9127142 46.5041318,49.6502887 L46.5041318,93.6964855 C46.5041318,95.0455862 47.3532813,96.1963574 48.5462657,96.6434846 Z M57.2457834,96.8426424 L93.6964855,96.8426424 C95.4340599,96.8426424 96.8426424,95.4340599 96.8426424,93.6964855 L96.8426424,82.4150387 L84.2580147,69.830411 L57.2457834,96.8426424 Z M49.6502887,40.211818 L93.6964855,40.211818 C98.9092089,40.211818 103.134956,44.4375653 103.134956,49.6502887 L103.134956,93.6964855 C103.134956,98.9092089 98.9092089,103.134956 93.6964855,103.134956 L49.6502887,103.134956 C44.4375653,103.134956 40.211818,98.9092089 40.211818,93.6964855 L40.211818,49.6502887 C40.211818,44.4375653 44.4375653,40.211818 49.6502887,40.211818 Z M60.6618379,68.5272302 C56.3179017,68.5272302 52.7964456,65.0057741 52.7964456,60.6618379 C52.7964456,56.3179017 56.3179017,52.7964456 60.6618379,52.7964456 C65.0057741,52.7964456 68.5272302,56.3179017 68.5272302,60.6618379 C68.5272302,65.0057741 65.0057741,68.5272302 60.6618379,68.5272302 Z M60.6618379,62.2349164 C61.5306252,62.2349164 62.2349164,61.5306252 62.2349164,60.6618379 C62.2349164,59.7930507 61.5306252,59.0887595 60.6618379,59.0887595 C59.7930507,59.0887595 59.0887595,59.7930507 59.0887595,60.6618379 C59.0887595,61.5306252 59.7930507,62.2349164 60.6618379,62.2349164 Z" id="ðŸ”¹-Icon-Color" fill="#B9B9B9" mask="url(#mask-4)"></path>
                                        </g>
                                    </g>
                                </g>
                            </g>
                        </g>
                    </g>
                    <g id="Devices-/-iPhone-/-X" transform="translate(621.000000, 68.000000)">
                        <g id="iPhone-X">
                            <g id="Base" transform="translate(1.915709, 0.000000)">
                                <path d="M34.4827586,0 L211.494253,0 C230.538555,-2.04018179e-14 245.977011,15.4299097 245.977011,34.4636678 L245.977011,463.536332 C245.977011,482.57009 230.538555,498 211.494253,498 L34.4827586,498 C15.4384569,498 3.71814477e-13,482.57009 3.69482223e-13,463.536332 L3.69482223e-13,34.4636678 C3.67149968e-13,15.4299097 15.4384569,3.49644465e-15 34.4827586,0 Z" id="Rectangle" fill="#DEDEDE"></path>
                                <path d="M35.0574713,2.87197232 L210.91954,2.87197232 C228.694222,2.87197232 243.103448,17.2732213 243.103448,35.0380623 L243.103448,462.961938 C243.103448,480.726779 228.694222,495.128028 210.91954,495.128028 L35.0574713,495.128028 C17.2827897,495.128028 2.87356322,480.726779 2.87356322,462.961938 L2.87356322,35.0380623 C2.87356322,17.2732213 17.2827897,2.87197232 35.0574713,2.87197232 Z" id="Rectangle" fill="#FFFFFF"></path>
                                <rect id="Rectangle-10" fill="#FFFFFF" x="241.954023" y="47.8662053" width="4.21455939" height="3.82929642"></rect>
                                <rect id="Rectangle-10" fill="#FFFFFF" x="0" y="47.8662053" width="4.21455939" height="3.82929642"></rect>
                                <rect id="Rectangle-10" fill="#FFFFFF" x="241.954023" y="446.113033" width="4.21455939" height="3.82929642"></rect>
                                <rect id="Rectangle-10" fill="#FFFFFF" x="0" y="446.113033" width="4.21455939" height="3.82929642"></rect>
                            </g>
                            <g id="Elements" transform="translate(0.000000, 16.848904)" fill="#DEDEDE">
                                <ellipse id="Sensor" cx="99.6168582" cy="3.82929642" rx="2.29885057" ry="2.29757785"></ellipse>
                                <ellipse id="Camera" cx="152.873563" cy="3.82929642" rx="3.83141762" ry="3.82929642"></ellipse>
                                <path d="M112.260536,2.29757785 L137.931034,2.29757785 C138.777395,2.29757785 139.463602,2.98340484 139.463602,3.82929642 C139.463602,4.675188 138.777395,5.36101499 137.931034,5.36101499 L112.260536,5.36101499 C111.414176,5.36101499 110.727969,4.675188 110.727969,3.82929642 C110.727969,2.98340484 111.414176,2.29757785 112.260536,2.29757785" id="Loudspeaker"></path>
                                <path d="M0,86.9231737 C0,86.5012259 0.410988413,86.1591696 0.921784598,86.1591696 L2.29885057,86.1591696 L2.29885057,122.537486 L0.921784598,122.537486 C0.412697022,122.537486 0,122.194866 0,121.773481 L0,86.9231737 Z" id="+"></path>
                                <path d="M0,132.300336 C0,131.878388 0.410988413,131.536332 0.921784598,131.536332 L2.29885057,131.536332 L2.29885057,167.914648 L0.921784598,167.914648 C0.412697022,167.914648 0,167.572029 0,167.150644 L0,132.300336 Z" id="-"></path>
                                <path d="M0,51.3120625 C0,50.8893715 0.410988413,50.5467128 0.921784598,50.5467128 L2.29885057,50.5467128 L2.29885057,70.4590542 L0.921784598,70.4590542 C0.412697022,70.4590542 0,70.1176277 0,69.6937045 L0,51.3120625 Z" id="Sound"></path>
                                <path d="M247.701149,97.6470588 L248.850575,97.6470588 C249.485385,97.6470588 250,98.0740782 250,98.6034103 L250,156.044802 C250,156.57298 249.484093,157.001153 248.850575,157.001153 L247.701149,157.001153 L247.701149,97.6470588 Z" id="Lock"></path>
                            </g>
                            <g id="Screen" transform="translate(17.241379, 15.494539)">
                                <mask id="mask-6" fill="white">
                                    <use xlink:href="#path-5"></use>
                                </mask>
                                <use fill="#F3F3F3" xlink:href="#path-5"></use>
                                <g id="Placeholders-/-Image-/-180px" mask="url(#mask-6)">
                                    <g transform="translate(18.045977, 143.204152)" id="Group-9">
                                        <g>
                                            <mask id="mask-8" fill="white">
                                                <use xlink:href="#path-7"></use>
                                            </mask>
                                            <use id="â—¼ï¸-Background" fill="#F3F3F3" xlink:href="#path-7"></use>
                                            <path d="M60.9593615,121.354857 L103.008961,79.3052572 C104.551773,77.7624451 107.053165,77.7624451 108.595977,79.3052572 L121.604938,92.314218 L121.604938,62.345679 C121.604938,60.1638133 119.836187,58.3950617 117.654321,58.3950617 L62.345679,58.3950617 C60.1638133,58.3950617 58.3950617,60.1638133 58.3950617,62.345679 L58.3950617,117.654321 C58.3950617,119.348382 59.4613355,120.793401 60.9593615,121.354857 Z M71.8833128,121.604938 L117.654321,121.604938 C119.836187,121.604938 121.604938,119.836187 121.604938,117.654321 L121.604938,103.488251 L105.802469,87.685782 L71.8833128,121.604938 Z M62.345679,50.4938272 L117.654321,50.4938272 C124.199918,50.4938272 129.506173,55.800082 129.506173,62.345679 L129.506173,117.654321 C129.506173,124.199918 124.199918,129.506173 117.654321,129.506173 L62.345679,129.506173 C55.800082,129.506173 50.4938272,124.199918 50.4938272,117.654321 L50.4938272,62.345679 C50.4938272,55.800082 55.800082,50.4938272 62.345679,50.4938272 Z M76.1728395,86.0493827 C70.7181753,86.0493827 66.2962963,81.6275037 66.2962963,76.1728395 C66.2962963,70.7181753 70.7181753,66.2962963 76.1728395,66.2962963 C81.6275037,66.2962963 86.0493827,70.7181753 86.0493827,76.1728395 C86.0493827,81.6275037 81.6275037,86.0493827 76.1728395,86.0493827 Z M76.1728395,78.1481481 C77.2637723,78.1481481 78.1481481,77.2637723 78.1481481,76.1728395 C78.1481481,75.0819067 77.2637723,74.1975309 76.1728395,74.1975309 C75.0819067,74.1975309 74.1975309,75.0819067 74.1975309,76.1728395 C74.1975309,77.2637723 75.0819067,78.1481481 76.1728395,78.1481481 Z" id="ðŸ”¹-Icon-Color" fill="#B9B9B9" mask="url(#mask-8)"></path>
                                        </g>
                                    </g>
                                </g>
                            </g>
                        </g>
                    </g>
                </g>
            </g>
        </g>
    </g>
</svg>