<svg width="100" height="24" viewBox="0 0 100 24" fill="none" xmlns="http://www.w3.org/2000/svg">
    <path fill-rule="evenodd" clip-rule="evenodd" d="M12.1487 23.6634L20.4764 18.9198C21.2645 18.4709 21.75 17.6414 21.75 16.7436V7.25651C21.75 6.35871 21.2645 5.52909 20.4764 5.08027L12.1487 0.336727C11.3605 -0.112242 10.3896 -0.112242 9.60146 0.336727L1.27359 5.08027C0.485469 5.52909 0 6.35871 0 7.25651V16.7436C0 17.6414 0.485469 18.4709 1.27359 18.9198L9.60146 23.6634C10.3896 24.1122 11.3605 24.1122 12.1487 23.6634ZM14.4554 12.0336C14.941 10.6867 15.4261 9.34132 15.9085 7.99851H18.246C17.1148 11.1962 16.0072 14.326 14.8954 17.4664H12.9636C12.6101 16.4838 12.2532 15.4882 11.8944 14.4873C11.6192 13.7197 11.3429 12.949 11.0662 12.1787H10.8729L8.96468 17.4707H7.03715L6.91657 17.1301C5.84921 14.1158 4.78089 11.0988 3.68654 8.00699H6.02185C6.63798 9.71173 7.27545 11.4778 7.91291 13.244H8.09545C8.72432 11.4947 9.35318 9.74773 9.98858 7.98373H11.944C12.1394 8.52773 12.335 9.07196 12.5307 9.6164C12.9627 10.8182 13.3951 12.0211 13.8264 13.2248H14.026C14.1692 12.8277 14.3123 12.4306 14.4554 12.0336Z" fill="#FA5723"/>
    <path fill-rule="evenodd" clip-rule="evenodd" d="M64.4622 6.66286C65.8408 6.66286 66.9925 7.18397 67.7942 8.17029C68.5104 9.05551 68.921 10.3068 68.922 11.6047C68.922 13.0061 68.4542 14.3221 67.6393 15.2146C66.7598 16.1829 65.4531 16.6739 63.7548 16.6739C62.8138 16.6739 61.3682 16.5295 60.4267 16.2534L60.1622 16.1756V3H62.4945V7.12321C63.0728 6.81647 63.7323 6.66286 64.4622 6.66286ZM57.7141 13.6745L58.0094 13.519L59.1826 15.2704L58.8639 15.4717C57.5968 16.2694 56.207 16.6909 54.8431 16.6909C53.4464 16.6909 52.3186 16.2427 51.492 15.3579C50.6981 14.5004 50.3133 13.3935 50.3133 11.9756C50.3133 10.5012 50.7181 9.28395 51.5169 8.35645C52.3797 7.36138 53.5359 6.83735 54.8602 6.83735C55.8012 6.83735 56.7115 7.10374 57.4233 7.58839C58.2812 8.17027 58.7168 8.98305 58.7168 10.0034C58.7168 11.1589 58.159 12.0631 57.104 12.6172C56.3507 13.0129 55.3226 13.222 54.1328 13.222H52.873C53.0084 13.6206 53.2186 13.9341 53.4841 14.1266C53.8297 14.3808 54.3415 14.514 54.9663 14.514C55.4486 14.5138 55.9273 14.4313 56.3815 14.27C56.7936 14.1227 57.3758 13.8539 57.7141 13.6745ZM48.0078 6.96082H49.9207H50.4379L50.2643 7.45568L49.6552 9.19596L48.1754 13.4237L47.1058 16.4964H45.1118L43.2189 11.0971L41.3261 16.4964H39.332L38.2629 13.4237L36.7831 9.19596L36.1735 7.45568L36 6.96082H38.4301L40.0116 11.4744L40.3283 12.3717L42.2251 6.96082H44.2128L46.11 12.3717L46.4263 11.4744L48.0078 6.96082ZM53.9992 9.15852C54.2275 9.02825 54.4934 8.96213 54.7892 8.96213C54.9378 8.96213 55.193 8.97818 55.4222 9.02582C55.6613 9.07491 55.8216 9.15755 55.9292 9.22901C55.9898 9.26401 56.1389 9.36269 56.2235 9.51825C56.3164 9.67769 56.3511 9.80894 56.3511 10.0034C56.3511 10.3232 56.2601 10.4506 56.1927 10.5182C56.1257 10.5848 55.8695 10.8001 55.5806 10.9105C55.2301 11.0422 54.8669 11.0631 54.1336 11.0631H52.7321C52.8289 10.576 53.042 10.1098 53.3397 9.74235C53.5249 9.51217 53.7478 9.31479 53.9992 9.15852ZM65.1583 14.2827C64.822 14.4348 64.4714 14.4956 63.9479 14.4956C63.571 14.4956 63.044 14.465 62.4935 14.4086V10.3544C62.4935 10.0822 62.6187 9.81139 62.8763 9.5275C63.2796 9.08125 63.8071 8.85521 64.4441 8.85521C65.1343 8.85521 65.6242 9.125 66.028 9.72681C66.3765 10.2635 66.553 10.9251 66.553 11.6941C66.553 12.5448 66.3496 13.1991 65.9297 13.6969C65.7195 13.9506 65.4604 14.1465 65.1583 14.2827ZM72.3326 6.97736H70.0008V16.5091H72.3326V6.97736ZM83.0945 16.5096V9.89845C83.0945 9.36956 83.0006 8.89219 82.809 8.4683C82.2883 7.41636 81.1205 6.83739 79.52 6.83739C78.3457 6.83739 77.4413 7.14997 76.6504 7.8417C76.4133 7.50094 76.0769 7.17622 75.6433 6.87045L75.4008 6.69982L73.8781 8.08038L74.168 8.35164C74.4398 8.60636 74.6358 8.8674 74.7345 9.10365C74.8436 9.36858 74.9012 9.69817 74.9012 10.0569V16.5169H77.2326V10.2363C77.4716 9.94122 77.7835 9.59852 78.16 9.36275C78.5794 9.09685 78.971 8.97921 79.4315 8.97921C79.8705 8.97921 80.2508 9.09782 80.4722 9.30393C80.6155 9.4381 80.7626 9.6656 80.7626 10.3379V16.5096H83.0945ZM89.7583 15.7209C88.6674 15.6239 87.5873 15.5279 86.5429 16.2777C85.9362 16.0016 85.4757 15.5825 85.2005 15.0255C85.0089 14.602 84.915 14.1252 84.915 13.5963V6.98418H87.2473V13.1559C87.4272 14.4737 89.0072 14.3522 89.0072 14.3522C90.4088 14.3313 90.7774 12.8501 90.7774 12.8501V6.97786H93.1087V15.6521C92.722 15.6968 91.7458 15.7984 90.8512 15.7882V15.7833C90.8204 15.7829 90.7894 15.7831 90.7584 15.7833C90.7041 15.7836 90.6499 15.7838 90.597 15.7814C90.317 15.7706 90.0373 15.7457 89.7583 15.7209Z" fill="#FA5723"/>
    <path d="M96.3202 10.9169C95.4231 10.3753 94.3462 10.2107 93.3269 10.4595V10.458L93.3162 10.4609V13.0884C93.347 13.0412 93.3758 12.9936 93.4164 12.9528C93.4672 12.9027 93.5259 12.8594 93.5889 12.8215C94.0045 12.5755 94.638 12.6023 95.1005 12.8852C95.518 13.1394 95.7086 13.5385 95.6695 14.0684C95.6387 14.484 95.4754 14.8058 95.1655 15.0707C94.706 15.4645 93.9957 15.6886 93.2824 15.8189V15.8223L93.2502 15.8262C93.2252 15.8301 93.2003 15.8364 93.1764 15.8407V15.8315C92.8493 15.8626 91.8071 15.9501 90.8567 15.9346V15.9385L90.669 15.9292L90.6015 15.9273C90.5375 15.9244 90.4744 15.9205 90.4114 15.9171L90.342 15.9141L90.3356 15.9132C89.8732 15.8879 89.4434 15.8553 89.0793 15.8271C88.9531 15.8174 88.8309 15.8194 88.7077 15.8194C88.5987 15.8203 88.4902 15.8242 88.3812 15.8315C88.2863 15.8393 88.191 15.8456 88.0996 15.8592C88.0698 15.8631 88.0414 15.866 88.0116 15.8704C87.5427 15.9447 87.0939 16.1127 86.6922 16.3643C86.6796 16.3724 86.6674 16.381 86.6555 16.3901C86.2683 16.6433 85.9409 16.977 85.6959 17.3681C84.9846 18.5008 84.9865 20.069 85.6993 21.2701C86.392 22.4388 87.5956 23.0673 89.002 22.9944C90.0359 22.9419 90.9501 22.5083 91.6306 21.7441C92.2637 21.0402 92.6381 20.1127 92.8615 19.209C92.9344 18.9144 92.993 18.6213 93.0365 18.3394C92.6855 18.3326 91.3823 18.3024 90.6759 18.2869C90.6245 18.537 90.561 18.7846 90.4857 19.0287C90.3429 19.4881 90.1523 19.9202 89.8971 20.2041C89.6253 20.506 89.2978 20.6635 88.8798 20.6853C88.3469 20.7135 87.95 20.5142 87.7017 20.0957C87.4264 19.6315 87.4118 18.999 87.6684 18.5917C87.7065 18.5299 87.7535 18.4721 87.8038 18.4225C88.0414 18.1906 88.4071 18.1226 88.8994 18.1308C89.3486 18.1376 89.7832 18.1119 90.2119 18.1046H90.2222C90.386 18.1026 90.5488 18.1026 90.7115 18.1099L90.7101 18.1167C91.4869 18.1347 92.9187 18.1683 93.1035 18.1707C94.2797 18.021 95.6871 17.6685 96.6785 16.8227C97.4607 16.1621 97.9129 15.2608 97.9896 14.2346C98.0894 12.839 97.4822 11.63 96.3202 10.9169Z" fill="#FA5723"/>
</svg>
