<svg width="22" height="24" viewBox="0 0 22 24" fill="none" xmlns="http://www.w3.org/2000/svg">
    <path fill-rule="evenodd" clip-rule="evenodd" d="M12.1487 23.6634L20.4764 18.9198C21.2645 18.4709 21.75 17.6414 21.75 16.7436V7.25651C21.75 6.35871 21.2645 5.52909 20.4764 5.08027L12.1487 0.336727C11.3605 -0.112242 10.3896 -0.112242 9.60146 0.336727L1.27359 5.08027C0.485469 5.52909 0 6.35871 0 7.25651V16.7436C0 17.6414 0.485469 18.4709 1.27359 18.9198L9.60146 23.6634C10.3896 24.1122 11.3605 24.1122 12.1487 23.6634ZM14.4554 12.0336C14.941 10.6867 15.4261 9.34132 15.9085 7.99851H18.246C17.1148 11.1962 16.0072 14.326 14.8954 17.4664H12.9636C12.6101 16.4838 12.2532 15.4882 11.8944 14.4873C11.6192 13.7197 11.3429 12.949 11.0662 12.1787H10.8729L8.96468 17.4707H7.03715L6.91657 17.1301C5.84921 14.1158 4.78089 11.0988 3.68654 8.00699H6.02185C6.63798 9.71173 7.27545 11.4778 7.91291 13.244H8.09545C8.72432 11.4947 9.35318 9.74773 9.98858 7.98373H11.944C12.1394 8.52773 12.335 9.07196 12.5307 9.6164C12.9627 10.8182 13.3951 12.0211 13.8264 13.2248H14.026C14.1692 12.8277 14.3123 12.4306 14.4554 12.0336Z" fill="#FA5723"/>
</svg>
