<?xml version="1.0" encoding="utf-8"?>
<!-- Generator: Adobe Illustrator 19.1.0, SVG Export Plug-In . SVG Version: 6.00 Build 0)  -->
<svg version="1.1" xmlns="http://www.w3.org/2000/svg" xmlns:xlink="http://www.w3.org/1999/xlink" x="0px" y="0px" width="24px"
	 height="24px" viewBox="0 0 24 24" enable-background="new 0 0 24 24" xml:space="preserve">
<g id="Bounding_Boxes">
	<path fill="none" d="M0,0h24v24H0V0z"/>
</g>
<g id="Rounded">
	<path d="M19.35,10.04C18.67,6.59,15.64,4,12,4C9.11,4,6.6,5.64,5.35,8.04C2.34,8.36,0,10.91,0,14c0,3.31,2.69,6,6,6h13
		c2.76,0,5-2.24,5-5C24,12.36,21.95,10.22,19.35,10.04z M17,13l-4.65,4.65c-0.2,0.2-0.51,0.2-0.71,0L7,13h3V9h4v4H17z"/>
</g>
</svg>
