<svg width="1126" height="862" viewBox="0 0 1126 862" fill="none" xmlns="http://www.w3.org/2000/svg">
<path opacity="0.7" fill-rule="evenodd" clip-rule="evenodd" d="M685.563 404.885L580.667 464.965C570.739 470.65 558.509 470.65 548.582 464.965L443.684 404.885C433.757 399.199 427.642 388.692 427.642 377.321V257.161C427.642 245.79 433.757 235.282 443.684 229.597L548.582 169.517C558.509 163.83 570.739 163.83 580.667 169.517L685.563 229.597C695.491 235.282 701.606 245.79 701.606 257.161V377.321C701.606 388.692 695.491 399.199 685.563 404.885Z" fill="white" fill-opacity="0.0509804"/>
<path fill-rule="evenodd" clip-rule="evenodd" d="M669.986 570.807L464.384 568.573C444.927 568.36 426.834 557.339 416.918 539.662L312.154 352.858C302.241 335.179 302.011 313.531 311.554 296.065L412.396 111.497C421.938 94.0305 439.803 83.4005 459.26 83.6139L664.865 85.8497C684.323 86.06 702.417 97.0801 712.331 114.76L817.091 301.562C827.008 319.239 827.236 340.889 817.693 358.356L716.851 542.924C707.308 560.39 689.445 571.018 669.986 570.807Z" fill="white" fill-opacity="0.0313726"/>
<path fill-rule="evenodd" clip-rule="evenodd" d="M902.353 445.948L691.67 659.052C671.731 679.217 642.934 687.348 616.123 680.383L332.822 606.758C306.011 599.788 285.264 578.784 278.392 551.649L205.778 264.917C198.907 237.783 206.955 208.644 226.895 188.479L437.582 -24.6271C457.52 -44.7967 486.318 -52.9277 513.129 -45.9584L796.425 27.6689C823.236 34.6337 843.984 55.6423 850.856 82.7767L923.47 369.509C930.341 396.643 922.292 425.778 902.353 445.948Z" fill="white" fill-opacity="0.0313726"/>
<path fill-rule="evenodd" clip-rule="evenodd" d="M795.907 670.41L439.925 710.702C406.236 714.512 372.651 699.481 351.816 671.27L131.683 373.141C110.851 344.925 105.937 307.821 118.793 275.795L254.647 -62.6233C267.503 -94.649 296.175 -116.727 329.864 -120.537L685.851 -160.827C719.542 -164.641 753.127 -149.61 773.959 -121.394L994.088 176.732C1014.92 204.943 1019.83 242.052 1006.98 274.078L871.125 612.496C858.268 644.522 829.598 666.595 795.907 670.41Z" fill="white" fill-opacity="0.0196078"/>
<path fill-rule="evenodd" clip-rule="evenodd" d="M627.064 260.94C619.084 283.276 611.047 305.669 603.012 328.086H600.462C592.453 305.614 584.418 283.167 576.41 260.75H551.425C543.307 283.413 535.272 305.859 527.237 328.332H524.904C516.76 305.641 508.615 282.951 500.742 261.049H470.904C485.413 302.267 499.564 342.451 513.715 382.635H538.343L562.725 314.645H565.194C573.338 337.446 581.457 360.273 589.437 382.581H614.12C628.326 342.233 642.477 302.023 656.931 260.94H627.064Z" fill="white" fill-opacity="0.0509804"/>
</svg>
