<?xml version="1.0" encoding="UTF-8"?>
<svg width="1000px" height="562px" viewBox="0 0 1000 562" version="1.1" xmlns="http://www.w3.org/2000/svg" xmlns:xlink="http://www.w3.org/1999/xlink">
    <!-- Generator: Sketch 52.5 (67469) - http://www.bohemiancoding.com/sketch -->
    <title>bg1</title>
    <desc>Created with Sketch.</desc>
    <defs>
        <radialGradient cx="50%" cy="100%" fx="50%" fy="100%" r="100%" gradientTransform="translate(0.500000,1.000000),scale(0.562000,1.000000),rotate(-90.000000),translate(-0.500000,-1.000000)" id="radialGradient-1">
            <stop stop-color="#B1AFF0" offset="0%"></stop>
            <stop stop-color="#836DF0" offset="100%"></stop>
        </radialGradient>
        <linearGradient x1="50%" y1="100%" x2="50%" y2="0%" id="linearGradient-2">
            <stop stop-color="#FED6E3" offset="0%"></stop>
            <stop stop-color="#A8EDEA" offset="100%"></stop>
        </linearGradient>
    </defs>
    <g id="bg1" stroke="none" stroke-width="1" fill="none" fill-rule="evenodd">
        <rect id="Rectangle" fill="url(#radialGradient-1)" x="0" y="0" width="1000" height="562"></rect>
        <g id="Group" opacity="0.141206287" transform="translate(-302.000000, -129.000000)" fill="#D8D8D8" fill-rule="nonzero">
            <polygon id="Star" opacity="0.73" transform="translate(1086.512881, 579.313490) rotate(-284.000000) translate(-1086.512881, -579.313490) " points="1086.51288 659.31349 992.467241 708.756209 1010.42836 604.034849 934.343839 529.87077 1039.49006 514.59213 1086.51288 419.31349 1133.5357 514.59213 1238.68192 529.87077 1162.5974 604.034849 1180.55852 708.756209"></polygon>
            <polygon id="Star" opacity="0.93" transform="translate(981.102421, 332.476145) rotate(-67.000000) translate(-981.102421, -332.476145) " points="981.102421 414.726145 884.411747 465.559441 902.878022 357.892793 824.653624 281.64285 932.757084 265.934497 981.102421 167.976145 1029.44776 265.934497 1137.55122 281.64285 1059.32682 357.892793 1077.79309 465.559441"></polygon>
            <polygon id="Star" transform="translate(1198.455824, 305.204080) rotate(-23.000000) translate(-1198.455824, -305.204080) " points="1198.45582 399.95408 1087.07052 458.512801 1108.34322 334.48344 1018.23061 246.64536 1142.76317 228.54972 1198.45582 115.70408 1254.14848 228.54972 1378.68103 246.64536 1288.56843 334.48344 1309.84113 458.512801"></polygon>
            <polygon id="Star" opacity="0.93" transform="translate(698.554713, 655.644159) rotate(-78.000000) translate(-698.554713, -655.644159) " points="698.554713 749.644159 588.051085 807.739354 609.1554 684.691757 519.756088 597.548964 643.302899 579.596562 698.554713 467.644159 753.806527 579.596562 877.353338 597.548964 787.954025 684.691757 809.05834 807.739354"></polygon>
            <polygon id="Star" opacity="0.77" transform="translate(700.790237, 355.346280) rotate(-97.000000) translate(-700.790237, -355.346280) " points="700.790237 425.34628 618.500302 468.608659 634.216281 376.977469 567.642325 312.0839 659.645269 298.71509 700.790237 215.34628 741.935205 298.71509 833.938149 312.0839 767.364193 376.977469 783.080172 468.608659"></polygon>
            <polygon id="Star" opacity="0.85" transform="translate(792.144786, 199.226121) rotate(-76.000000) translate(-792.144786, -199.226121) " points="792.144786 278.476121 698.980824 327.455315 716.773558 223.715718 641.402329 150.246927 745.562805 135.111524 792.144786 40.726121 838.726768 135.111524 942.887244 150.246927 867.516015 223.715718 885.308749 327.455315"></polygon>
            <polygon id="Star" opacity="0.92" transform="translate(374.731701, 489.941675) rotate(-201.000000) translate(-374.731701, -489.941675) " points="374.731701 554.191675 299.201296 593.900359 313.62632 509.796017 252.520939 450.232991 336.966499 437.962333 374.731701 361.441675 412.496904 437.962333 496.942463 450.232991 435.837082 509.796017 450.262106 593.900359"></polygon>
            <polygon id="Star" opacity="0.73" transform="translate(252.984382, 353.047498) rotate(-322.000000) translate(-252.984382, -353.047498) " points="252.984382 443.047498 147.183036 498.670557 167.389295 380.859028 81.7942089 297.424439 200.083709 280.235969 252.984382 173.047498 305.885055 280.235969 424.174555 297.424439 338.579468 380.859028 358.785727 498.670557"></polygon>
            <polygon id="Star" opacity="0.86" transform="translate(463.596233, 189.986201) rotate(-333.000000) translate(-463.596233, -189.986201) " points="463.596233 260.486201 380.718512 304.057597 396.546749 211.771899 329.497264 146.414805 422.157373 132.950503 463.596233 48.9862011 505.035093 132.950503 597.695202 146.414805 530.645717 211.771899 546.473953 304.057597"></polygon>
        </g>
    </g>
</svg>