<?xml version="1.0" encoding="UTF-8"?>
<svg width="293px" height="42px" viewBox="0 0 293 42" version="1.1" xmlns="http://www.w3.org/2000/svg" xmlns:xlink="http://www.w3.org/1999/xlink">
    <!-- Generator: Sketch 52.5 (67469) - http://www.bohemiancoding.com/sketch -->
    <title>Logotypes</title>
    <desc>Created with Sketch.</desc>
    <g id="Content" stroke="none" stroke-width="1" fill="none" fill-rule="evenodd">
        <g id="Content-42" transform="translate(-800.000000, -487.000000)" fill="#DEDEDE">
            <g id="Logotypes">
                <g transform="translate(800.000000, 487.000000)">
                    <g id="Misc-/-Brands-/-Google" transform="translate(165.000000, 0.000000)">
                        <g id="Google">
                            <path d="M31.5680826,17.3824 C31.5705174,17.3093565 31.5717348,17.1069652 31.5717348,17.3824 L31.5680826,17.3824 Z M31.5650391,17.3824 C31.5662565,17.4180087 31.5671696,17.4085739 31.5680826,17.3824 L31.5650391,17.3824 Z M16.2533,32.6247478 C16.217387,32.6259652 16.2268217,32.6268783 16.2533,32.6277913 L16.2533,32.6247478 Z M24.2439522,7.80183478 C23.1863435,6.80813913 21.9351696,6.0080087 20.5488652,5.45926957 C19.2216043,4.93366087 17.7726043,4.64483478 16.2533,4.64483478 C13.0308652,4.64483478 10.1313435,5.94318261 8.03956087,8.04348696 C5.93956087,10.152313 4.64516957,13.0746609 4.64516957,16.3101826 C4.64516957,19.5469217 5.93986522,22.4726174 8.04108261,24.5838783 C10.1331696,26.6860087 13.0320826,27.986487 16.2533,27.986487 C16.8626043,27.986487 15.9236913,27.9998783 16.4316478,27.9944 C19.5965609,27.9606174 22.2398217,26.9897478 24.0604304,25.2080957 C25.4814304,23.8175304 26.4370826,21.8967913 26.7870826,19.502487 L16.3811261,19.502487 L16.3811261,14.8575304 L29.2480391,14.8575304 L31.5364304,14.8575304 L31.561387,17.1620522 C31.5626043,17.2837913 31.5638217,17.3507478 31.5650391,17.3824 L31.5626043,17.3824 C31.5626043,22.1034435 29.9991696,25.8770522 27.3084304,28.5105739 C24.619213,31.1419652 20.8626478,32.5745304 16.4681696,32.6214 C16.3497783,32.6226174 16.2846478,32.6238348 16.2533,32.6247478 L16.2533,32.6277913 C16.3284739,32.6302261 16.5409087,32.6314435 16.2533,32.6314435 C11.7559522,32.6314435 7.69686522,30.8041391 4.75686522,27.8498348 C1.81382174,24.892487 -9.13043478e-05,20.8108783 -9.13043478e-05,16.3101826 C-9.13043478e-05,11.809487 1.81351739,7.73153043 4.75564783,4.77753043 C7.69595217,1.82505217 11.7556478,-0.00012173913 16.2533,-0.00012173913 C18.3700391,-0.00012173913 20.3948652,0.40466087 22.2544304,1.14057391 C24.1776043,1.90205217 25.9266913,3.0247913 27.419213,4.42692174 L24.2439522,7.80183478 Z" id="Fill-1"></path>
                            <path d="M48.0718,17.6832174 C46.9816261,16.5580435 45.4732783,15.862 43.8054522,15.862 C42.1373217,15.862 40.6289739,16.5580435 39.5388,17.6832174 C38.4471043,18.8102174 37.7717565,20.3751739 37.7717565,22.1111739 C37.7717565,23.8471739 38.4471043,25.4124348 39.5388,26.5391304 C40.6289739,27.6643043 42.1373217,28.3603478 43.8054522,28.3603478 C45.4732783,28.3603478 46.9816261,27.6643043 48.0718,26.5391304 C49.1634957,25.4124348 49.8388435,23.8471739 49.8388435,22.1111739 C49.8388435,20.3751739 49.1634957,18.8102174 48.0718,17.6832174 M43.8054522,11.6848261 C46.7153217,11.6848261 49.3515826,12.8553478 51.2613652,14.7474783 C53.1699304,16.638087 54.3501913,19.242087 54.3501913,22.1111739 C54.3501913,24.9802609 53.1699304,27.5842609 51.2613652,29.4748696 C49.3515826,31.3673043 46.7153217,32.5375217 43.8054522,32.5375217 C40.8955826,32.5375217 38.2590174,31.3673043 36.3492348,29.4748696 C34.4409739,27.5842609 33.260713,24.9802609 33.260713,22.1111739 C33.260713,19.242087 34.4409739,16.638087 36.3492348,14.7474783 C38.2590174,12.8553478 40.8955826,11.6848261 43.8054522,11.6848261" id="Fill-4"></path>
                            <path d="M70.7509174,17.6832174 C69.6607435,16.5580435 68.1523957,15.862 66.4845696,15.862 C64.8164391,15.862 63.3080913,16.5580435 62.2179174,17.6832174 C61.1265261,18.8102174 60.4511783,20.3751739 60.4511783,22.1111739 C60.4511783,23.8471739 61.1265261,25.4124348 62.2179174,26.5391304 C63.3080913,27.6643043 64.8164391,28.3603478 66.4845696,28.3603478 C68.1523957,28.3603478 69.6607435,27.6643043 70.7509174,26.5391304 C71.842613,25.4124348 72.5179609,23.8471739 72.5179609,22.1111739 C72.5179609,20.3751739 71.842613,18.8102174 70.7509174,17.6832174 M66.4845696,11.6848261 C69.3944391,11.6848261 72.0307,12.8553478 73.940787,14.7474783 C75.8490478,16.638087 77.0293087,19.242087 77.0293087,22.1111739 C77.0293087,24.9802609 75.8490478,27.5842609 73.940787,29.4748696 C72.0307,31.3673043 69.3944391,32.5375217 66.4845696,32.5375217 C63.5747,32.5375217 60.9384391,31.3673043 59.0283522,29.4748696 C57.1200913,27.5842609 55.9395261,24.9802609 55.9395261,22.1111739 C55.9395261,19.242087 57.1200913,16.638087 59.0283522,14.7474783 C60.9384391,12.8553478 63.5747,11.6848261 66.4845696,11.6848261" id="Fill-6"></path>
                            <path d="M93.0471957,17.6832174 C92.0087609,16.5580435 90.5719348,15.862 88.9832391,15.862 C87.3942391,15.862 85.9577174,16.5580435 84.9192826,17.6832174 C83.8793261,18.8102174 83.2362391,20.3751739 83.2362391,22.1111739 C83.2362391,25.6193913 85.6013261,28.475087 88.9832391,28.475087 C90.5719348,28.475087 92.0087609,27.6643043 93.0471957,26.5391304 C94.0871522,25.4124348 94.7302391,23.8471739 94.7302391,22.1111739 C94.7302391,20.3751739 94.0871522,18.8102174 93.0471957,17.6832174 M88.1858478,11.6848261 C91.0248043,11.6848261 92.7465,12.5872174 94.2938043,14.0876522 L94.2938043,12.2728261 L98.6051957,12.2728261 L98.6051957,32.137913 C98.6051957,34.9083913 97.3035,37.9132174 95.5407174,39.4806087 C93.8427609,40.9904783 91.5616739,41.9433913 89.303413,41.9433913 C87.2411522,41.9433913 85.1706739,41.545913 83.3610217,40.432 C81.7510217,39.4410435 80.3775,37.9606957 79.4352391,35.8756087 L83.3890217,34.0936522 C84.508413,36.5704348 86.1789783,37.8465652 89.303413,37.8465652 C91.5169348,37.8465652 94.2938043,35.7940435 94.2938043,32.4121304 L94.2938043,30.1295217 C92.7227609,31.6333043 90.941413,32.5375217 88.6271522,32.5375217 C85.9945435,32.5375217 83.1680652,31.3673043 81.4399783,29.4748696 C79.713413,27.5842609 78.6454565,24.9802609 78.6454565,22.1111739 C78.6454565,16.316087 83.4316304,11.6848261 88.1858478,11.6848261" id="Fill-8"></path>
                            <polygon id="Fill-10" points="101.392565 31.940087 105.844261 31.940087 105.844261 1.34217391 101.392565 1.34217391"></polygon>
                            <path d="M113.080709,25.2766043 C114.833143,29.4516478 121.008057,29.4976043 123.348491,25.597387 L126.874057,27.9603435 C124.715013,31.1243435 121.569883,32.6059087 118.144143,32.6247783 C115.093665,32.6281261 112.638796,31.4849957 110.804187,29.6330391 C106.321448,25.1076913 107.280752,18.1639957 110.386926,14.8721696 C112.92123,12.1869087 116.830274,10.8216043 120.862578,12.2861261 C123.481491,13.237213 125.607361,15.5411261 127.161057,19.5454304 C122.464665,21.4491261 117.783796,23.3826478 113.080709,25.2766043 M112.372187,21.747387 L121.85323,17.9290391 C120.179622,15.7773 117.748491,14.7355174 114.544317,16.9216478 C113.312013,17.9625174 112.232796,19.7393 112.372187,21.747387" id="Fill-12"></path>
                        </g>
                    </g>
                    <g id="Misc-/-Brands-/-Logitech" transform="translate(0.000000, 2.000000)">
                        <path d="M67.0237612,2.77861823 L62.151253,2.77861823 L62.151253,8.79113118 L59.5259207,8.79113118 L59.5259207,13.1297156 L62.151253,13.1297156 L62.151253,28.3160974 L67.0237612,28.3160974 L67.0237612,13.1297156 L69.688799,13.1297156 L69.688799,8.79113118 L67.0237612,8.79113118 L67.0237612,2.77861823 Z M54.9592208,0 C53.169612,0 51.7612137,1.40839828 51.7612137,3.23542185 C51.7612137,5.02350353 53.169612,6.43266537 54.9592208,6.43266537 C56.8236591,6.43266537 58.2328209,5.02350353 58.2328209,3.23542185 C58.2328209,1.40839828 56.8236591,0 54.9592208,0 Z M132.410627,8.33585469 C131.574903,8.33585469 130.926636,7.68854125 130.926636,6.8505271 C130.926636,6.05126394 131.574903,5.4039505 132.410627,5.4039505 C133.211226,5.4039505 133.857013,6.05126394 133.857013,6.8505271 C133.857013,7.68854125 133.211226,8.33585469 132.410627,8.33585469 Z M132.410627,5.17678949 C131.460369,5.17678949 130.699475,5.93768343 130.699475,6.8505271 C130.699475,7.80212176 131.460369,8.56377927 132.410627,8.56377927 C133.324807,8.56377927 134.086464,7.80212176 134.086464,6.8505271 C134.086464,5.93768343 133.324807,5.17678949 132.410627,5.17678949 Z M75.3580888,16.5184234 C76.0054022,13.9305059 77.9849482,12.4839293 80.5348783,12.4839293 C83.0855719,12.4839293 84.9872341,13.891564 85.5971328,16.5184234 L75.3580888,16.5184234 Z M80.6482679,8.18256873 C74.7884682,8.18256873 70.3345853,12.67463 70.3345853,18.6497282 C70.3345853,24.5484698 74.4080213,28.887436 80.7248154,28.887436 C84.2263402,28.887436 87.3479906,27.5939545 89.6316269,25.1570322 L86.3582176,21.9231375 C84.7593095,23.4458798 83.04663,24.5484698 80.8389686,24.5484698 C78.1756489,24.5484698 76.1579246,23.0257274 75.4731964,20.4767518 L90.6580511,20.4767518 L90.6580511,19.2970417 C90.6580511,12.6356881 86.5489184,8.18256873 80.6482679,8.18256873 Z M123.7703,8.18256873 C121.372892,8.18256873 119.318135,9.09522151 117.871559,10.6569057 L117.871559,0.533732933 L112.99905,0.533732933 L112.99905,28.3160974 L117.871559,28.3160974 L117.871559,17.6979427 C117.871559,14.8821006 119.661167,12.9399694 122.628768,12.9399694 C125.407577,12.9399694 126.93032,14.652458 126.93032,17.6979427 L126.93032,28.3160974 L131.802064,28.3160974 L131.802064,16.8227046 C131.802064,11.4187541 128.413357,8.18256873 123.7703,8.18256873 Z M132.029798,6.81311234 L132.029798,6.20302277 L132.410627,6.20302277 C132.716244,6.20302277 132.830779,6.3183213 132.830779,6.50883112 C132.830779,6.69876827 132.716244,6.81311234 132.410627,6.81311234 L132.029798,6.81311234 Z M133.057749,6.50883112 C133.057749,6.12838415 132.791074,5.97509819 132.410627,5.97509819 L131.802064,5.97509819 L131.802064,7.72576512 L132.029798,7.72576512 L132.029798,7.04103692 L132.410627,7.04103692 L132.830779,7.72576512 L133.095164,7.72576512 L132.640079,7.00381306 C132.906945,6.96410761 133.057749,6.81311234 133.057749,6.50883112 Z M102.761343,12.9025546 C104.816482,12.9025546 106.491746,13.9677298 107.785801,15.4532483 L111.17279,12.1034823 C109.270365,9.70531108 106.262867,8.18256873 102.838654,8.18256873 C96.9397212,8.18256873 92.2951375,12.67463 92.2951375,18.5344297 C92.2951375,24.3959474 96.9397212,28.887436 102.838654,28.887436 C106.262867,28.887436 109.270365,27.3643119 111.17279,24.9686222 L107.785801,21.6188563 C106.529734,23.0648602 104.816482,24.1680228 102.724119,24.1680228 C99.6022773,24.1680228 97.204297,21.7326277 97.204297,18.5344297 C97.204297,15.3371862 99.6022773,12.9025546 102.761343,12.9025546 Z M52.5610495,28.3160974 L57.4337487,28.3160974 L57.4337487,8.79113118 L52.5610495,8.79113118 L52.5610495,28.3160974 Z M17.3174957,24.1680228 C14.1958452,24.1680228 11.7213173,21.6952129 11.7213173,18.4972058 C11.7213173,15.3371862 14.1958452,12.9025546 17.3174957,12.9025546 C20.4759882,12.9025546 22.9503252,15.3371862 22.9503252,18.5344297 C22.9503252,21.7326277 20.4759882,24.1680228 17.3174957,24.1680228 Z M17.3174957,8.18256873 C11.417227,8.18256873 6.77417046,12.67463 6.77417046,18.5344297 C6.77417046,24.3959474 11.417227,28.887436 17.3174957,28.887436 C23.2164281,28.887436 27.8592938,24.3959474 27.8592938,18.5344297 C27.8592938,12.67463 23.2164281,8.18256873 17.3174957,8.18256873 Z M0,28.3160974 L4.87250827,28.3160974 L4.87250827,0.533732933 L0,0.533732933 L0,28.3160974 Z M40.0771202,24.1680228 C36.9569969,24.1680228 34.4826599,21.6952129 34.4826599,18.4972058 C34.4826599,15.3371862 36.9569969,12.9025546 40.0771202,12.9025546 C43.2363763,12.9025546 45.7107133,15.3371862 45.7107133,18.5344297 C45.7107133,21.7326277 43.2363763,24.1680228 40.0771202,24.1680228 Z M50.4299356,12.67463 L50.4299356,8.79113118 L43.5778814,8.79113118 C42.4752915,8.41221134 41.2957722,8.18256873 40.0771202,8.18256873 C34.1783787,8.18256873 29.535513,12.67463 29.535513,18.5344297 C29.535513,24.3959474 34.1783787,28.887436 40.0771202,28.887436 C45.9760526,28.887436 50.6206363,24.3959474 50.6206363,18.5344297 C50.6206363,16.5556473 50.0867125,14.6152341 49.0215373,13.1686575 L50.4299356,12.67463 Z M40.0771202,35.2433629 C36.9569969,35.2433629 34.4826599,32.8081587 34.4826599,29.6490935 L29.535513,29.6490935 C29.535513,35.5104203 34.1783787,40 40.0771202,40 C45.9760526,40 50.6206363,35.5104203 50.6206363,29.6490935 L45.6717714,29.6490935 C45.6717714,32.8081587 43.1972435,35.2433629 40.0771202,35.2433629 Z" id="Logitech"></path>
                    </g>
                </g>
            </g>
        </g>
    </g>
</svg>