<?xml version="1.0" encoding="utf-8"?>
<!-- Generator: Adobe Illustrator 19.1.0, SVG Export Plug-In . SVG Version: 6.00 Build 0)  -->
<svg version="1.1" xmlns="http://www.w3.org/2000/svg" xmlns:xlink="http://www.w3.org/1999/xlink" x="0px" y="0px" width="24px"
	 height="24px" viewBox="0 0 24 24" enable-background="new 0 0 24 24" xml:space="preserve">
<g id="Rounded">
	<g id="ui_x5F_spec_x5F_header_copy_5">
	</g>
	<path fill="currentColor" d="M6,19c0,1.1,0.9,2,2,2h8c1.1,0,2-0.9,2-2V9c0-1.1-0.9-2-2-2H8C6.9,7,6,7.9,6,9V19z M18,4h-2.5l-0.71-0.71
		C14.61,3.11,14.35,3,14.09,3H9.91C9.65,3,9.39,3.11,9.21,3.29L8.5,4H6C5.45,4,5,4.45,5,5v0c0,0.55,0.45,1,1,1h12c0.55,0,1-0.45,1-1
		v0C19,4.45,18.55,4,18,4z"/>
</g>
</svg>
