<?xml version="1.0" encoding="UTF-8"?>
<svg width="540px" height="480px" viewBox="0 0 540 480" version="1.1" xmlns="http://www.w3.org/2000/svg" xmlns:xlink="http://www.w3.org/1999/xlink">
    <!-- Generator: Sketch 52.5 (67469) - http://www.bohemiancoding.com/sketch -->
    <title>Pic</title>
    <desc>Created with Sketch.</desc>
    <defs>
        <rect id="path-1" x="0" y="0" width="120" height="120" rx="6"></rect>
    </defs>
    <g id="Content" stroke="none" stroke-width="1" fill="none" fill-rule="evenodd">
        <g id="Content-25" transform="translate(-735.000000, -110.000000)">
            <g id="Pic">
                <g transform="translate(735.000000, 110.000000)">
                    <path d="M8,0 L532,0 C536.418278,-8.11624501e-16 540,3.581722 540,8 L540,472 C540,476.418278 536.418278,480 532,480 L8,480 C3.581722,480 5.41083001e-16,476.418278 0,472 L0,8 C-5.41083001e-16,3.581722 3.581722,8.11624501e-16 8,0 Z" id="Rectangle-Copy" fill="#F3F3F3"></path>
                    <g id="Placeholders-/-Image-/-120px" transform="translate(210.000000, 180.000000)">
                        <g id="Group-8">
                            <mask id="mask-2" fill="white">
                                <use xlink:href="#path-1"></use>
                            </mask>
                            <use id="â—¼ï¸-Background" fill="#F3F3F3" xlink:href="#path-1"></use>
                            <path d="M38.2195211,83.5161424 L69.7567206,51.9789429 C70.9138297,50.8218339 72.789874,50.8218339 73.9469831,51.9789429 L83.7037037,61.7356635 L83.7037037,39.2592593 C83.7037037,37.62286 82.37714,36.2962963 80.7407407,36.2962963 L39.2592593,36.2962963 C37.62286,36.2962963 36.2962963,37.62286 36.2962963,39.2592593 L36.2962963,80.7407407 C36.2962963,82.0112862 37.0960016,83.0950505 38.2195211,83.5161424 Z M46.4124846,83.7037037 L80.7407407,83.7037037 C82.37714,83.7037037 83.7037037,82.37714 83.7037037,80.7407407 L83.7037037,70.1161883 L71.8518519,58.2643365 L46.4124846,83.7037037 Z M39.2592593,30.3703704 L80.7407407,30.3703704 C85.6499385,30.3703704 89.6296296,34.3500615 89.6296296,39.2592593 L89.6296296,80.7407407 C89.6296296,85.6499385 85.6499385,89.6296296 80.7407407,89.6296296 L39.2592593,89.6296296 C34.3500615,89.6296296 30.3703704,85.6499385 30.3703704,80.7407407 L30.3703704,39.2592593 C30.3703704,34.3500615 34.3500615,30.3703704 39.2592593,30.3703704 Z M49.6296296,57.037037 C45.5386315,57.037037 42.2222222,53.7206278 42.2222222,49.6296296 C42.2222222,45.5386315 45.5386315,42.2222222 49.6296296,42.2222222 C53.7206278,42.2222222 57.037037,45.5386315 57.037037,49.6296296 C57.037037,53.7206278 53.7206278,57.037037 49.6296296,57.037037 Z M49.6296296,51.1111111 C50.4478293,51.1111111 51.1111111,50.4478293 51.1111111,49.6296296 C51.1111111,48.81143 50.4478293,48.1481481 49.6296296,48.1481481 C48.81143,48.1481481 48.1481481,48.81143 48.1481481,49.6296296 C48.1481481,50.4478293 48.81143,51.1111111 49.6296296,51.1111111 Z" id="ðŸ”¹-Icon-Color" fill="#B9B9B9" mask="url(#mask-2)"></path>
                        </g>
                    </g>
                </g>
            </g>
        </g>
    </g>
</svg>