<svg id="bea18b66-86ba-42fe-9190-76147bd64da7" data-name="Layer 1" xmlns="http://www.w3.org/2000/svg" xmlns:xlink="http://www.w3.org/1999/xlink" width="1057" height="784.44" viewBox="0 0 1057 784.44"><defs><linearGradient id="e9b7614d-2d40-4533-bad7-5d0811b316bd" x1="890.27" y1="819.43" x2="890.27" y2="453.22" gradientUnits="userSpaceOnUse"><stop offset="0" stop-color="gray" stop-opacity="0.25"/><stop offset="0.54" stop-color="gray" stop-opacity="0.12"/><stop offset="1" stop-color="gray" stop-opacity="0.1"/></linearGradient></defs><title>meditating</title><g opacity="0.2"><path d="M719.61,602a23.27,23.27,0,0,1-2.11,3.25Q707,597.9,696.12,590.78l.47-.93a20.53,20.53,0,0,1,7.27-7.92c4-2.46,8.51-3,12.22-1s5.78,6,6,10.67A20.6,20.6,0,0,1,719.61,602Z" transform="translate(-71.5 -57.78)" fill="#3f3d56"/><ellipse cx="717.85" cy="577.53" rx="17.05" ry="13.02" transform="translate(-200 883.82) rotate(-62.09)" fill="#3f3d56"/><ellipse cx="727.6" cy="559.12" rx="17.05" ry="13.02" transform="translate(-178.54 882.64) rotate(-62.09)" fill="#3f3d56"/><ellipse cx="737.35" cy="540.71" rx="17.05" ry="13.02" transform="translate(-157.08 881.47) rotate(-62.09)" fill="#3f3d56"/><ellipse cx="747.1" cy="522.3" rx="17.05" ry="13.02" transform="translate(-135.63 880.29) rotate(-62.09)" fill="#3f3d56"/><path d="M770.75,373.5a61.7,61.7,0,0,1-1-8.58L802.67,376l-32.83-17.08a62.45,62.45,0,0,1,22.08-44.23l31.81,46L799,309.49a62.37,62.37,0,1,1,58.36,109.89,62.4,62.4,0,0,1,1,13.39l-50-.4,49.28,8.12a62.37,62.37,0,0,1-36.29,47.05,62.37,62.37,0,1,1-86.65-45.89,62.39,62.39,0,0,1,36.1-68.15Z" transform="translate(-71.5 -57.78)" fill="#ff6347"/><path d="M851.14,459.71a62.14,62.14,0,0,1-29.84,27.83,62.37,62.37,0,1,1-86.65-45.89C732.23,428.36,854.42,453.52,851.14,459.71Z" transform="translate(-71.5 -57.78)" opacity="0.1"/></g><g opacity="0.2"><path d="M288.48,716.67a43.27,43.27,0,0,0,2.39,7.05q23.11-8.85,46.75-17c-.14-.64-.28-1.3-.44-2a39.53,39.53,0,0,0-9.83-18.22c-6.29-6.48-14.45-9.64-22.3-7.72s-13.63,8.47-16.24,17.09A39.55,39.55,0,0,0,288.48,716.67Z" transform="translate(-71.5 -57.78)" fill="#3f3d56"/><ellipse cx="303.33" cy="671.75" rx="25.07" ry="32.81" transform="translate(-222.12 33.29) rotate(-13.72)" fill="#3f3d56"/><ellipse cx="293.82" cy="632.78" rx="25.07" ry="32.81" transform="translate(-213.16 29.93) rotate(-13.72)" fill="#3f3d56"/><ellipse cx="284.31" cy="593.82" rx="25.07" ry="32.81" transform="translate(-204.19 26.56) rotate(-13.72)" fill="#3f3d56"/><ellipse cx="274.8" cy="554.86" rx="25.07" ry="32.81" transform="translate(-195.22 23.2) rotate(-13.72)" fill="#3f3d56"/><path d="M300.88,266a118.65,118.65,0,0,0,5.81-15.56l-66.55,5.11,69.33-16.38a120.32,120.32,0,0,0-20.33-93L208.05,217l70.26-83.83A120.07,120.07,0,1,0,117.52,310.72a119.33,119.33,0,0,0-8.11,24.52L203,358.12,107.18,350A120.14,120.14,0,0,0,152.72,455a120.07,120.07,0,1,0,183.37-44.75A120.08,120.08,0,0,0,300.88,266Z" transform="translate(-71.5 -57.78)" fill="#ff6347"/><path d="M110.16,388.94a119.51,119.51,0,0,0,42.56,66,120.07,120.07,0,1,0,183.37-44.75C346.88,386.55,107,375.85,110.16,388.94Z" transform="translate(-71.5 -57.78)" opacity="0.1"/></g><ellipse cx="532" cy="711.44" rx="525" ry="73" fill="#ff6347" opacity="0.1"/><rect x="138" width="568" height="684" rx="19.8" fill="#464353"/><rect x="187" y="69" width="470" height="546" fill="#ff6347" opacity="0.1"/><circle cx="422" cy="651" r="20" fill="#fff"/><circle cx="422" cy="40" r="9.5" fill="#fff"/><path d="M493.5,88.78a9,9,0,1,1-9,9,9,9,0,0,1,9-9m0-1a10,10,0,1,0,10,10,10,10,0,0,0-10-10Z" transform="translate(-71.5 -57.78)" fill="#fff"/><path d="M393.5,517.67V499.6h2.06v8.67l9.16-8.48a.79.79,0,0,1,.52-.19.86.86,0,0,1,.87.87V516.8a.86.86,0,0,1-.87.87.8.8,0,0,1-.54-.21l-9.14-8.41v8.62Z" transform="translate(-71.5 -57.78)" fill="#fff"/><path d="M405.24,500.09a.36.36,0,0,1,.37.37V516.8a.37.37,0,0,1-.58.29l-8.3-7.63-.87-.81.88-.8,8.29-7.68a.37.37,0,0,1,.21-.08m-10.18,0v17.07H394V500.09h1.07m10.18-1a1.33,1.33,0,0,0-.86.32l-8.32,7.7V499.6a.51.51,0,0,0-.51-.51H393.5a.51.51,0,0,0-.51.51v18a.51.51,0,0,0,.51.51h2.05a.51.51,0,0,0,.51-.51v-7.46l8.32,7.66a1.32,1.32,0,0,0,.86.31,1.35,1.35,0,0,0,1.37-1.36V500.46a1.36,1.36,0,0,0-1.37-1.37Z" transform="translate(-71.5 -57.78)" fill="#fff"/><path d="M591.46,517.67V509l-9.16,8.48a.82.82,0,0,1-.53.19.86.86,0,0,1-.6-.25.82.82,0,0,1-.27-.62V500.46a.87.87,0,0,1,1.42-.67l9.14,8.42V499.6h2l0,18.06,0,0Z" transform="translate(-71.5 -57.78)" fill="#fff"/><path d="M581.76,500.09a.32.32,0,0,1,.21.08l8.3,7.63.87.8-.87.81-8.3,7.68a.31.31,0,0,1-.21.07.36.36,0,0,1-.37-.36V500.46a.37.37,0,0,1,.37-.37m11.26,0v17.07H592V500.09H593m-11.26-1a1.36,1.36,0,0,0-1.37,1.37V516.8a1.36,1.36,0,0,0,1.37,1.36,1.33,1.33,0,0,0,.87-.31l8.32-7.71v7.51a.51.51,0,0,0,.51.51h2a.51.51,0,0,0,.52-.51v-18a.51.51,0,0,0-.52-.51h-2a.51.51,0,0,0-.51.51v7.47l-8.32-7.66a1.34,1.34,0,0,0-.87-.32Z" transform="translate(-71.5 -57.78)" fill="#fff"/><path d="M496.9,518a1.54,1.54,0,0,1-1.54-1.54V501.5A1.54,1.54,0,0,1,496.9,500H501a1.54,1.54,0,0,1,1.54,1.54v14.93A1.54,1.54,0,0,1,501,518ZM486,518a1.54,1.54,0,0,1-1.54-1.54V501.5A1.54,1.54,0,0,1,486,500h4.07a1.54,1.54,0,0,1,1.54,1.54v14.93a1.54,1.54,0,0,1-1.54,1.54Z" transform="translate(-71.5 -57.78)" fill="#fff"/><path d="M501,500.46a1,1,0,0,1,1,1v14.94a1,1,0,0,1-1,1H496.9a1,1,0,0,1-1-1V501.49a1,1,0,0,1,1-1H501m-10.86,0a1,1,0,0,1,1,1v14.94a1,1,0,0,1-1,1H486a1,1,0,0,1-1-1V501.49a1,1,0,0,1,1-1h4.07m10.86-1H496.9a2,2,0,0,0-2,2v14.94a2,2,0,0,0,2,2H501a2,2,0,0,0,2-2V501.49a2,2,0,0,0-2-2Zm-10.86,0H486a2,2,0,0,0-2,2v14.94a2,2,0,0,0,2,2h4.07a2,2,0,0,0,2-2V501.49a2,2,0,0,0-2-2Z" transform="translate(-71.5 -57.78)" fill="#fff"/><rect x="302" y="417.49" width="240" height="2.67" fill="#ff6347" opacity="0.5"/><path d="M447.61,482.44a5.84,5.84,0,1,1,5.83-5.84A5.84,5.84,0,0,1,447.61,482.44Z" transform="translate(-71.5 -57.78)" fill="#fff"/><path d="M447.61,471.27a5.34,5.34,0,1,1-5.33,5.33,5.33,5.33,0,0,1,5.33-5.33m0-1a6.34,6.34,0,1,0,6.33,6.33,6.33,6.33,0,0,0-6.33-6.33Z" transform="translate(-71.5 -57.78)" fill="#fff"/><rect x="302.5" y="417.99" width="73.11" height="1.67" fill="#fff"/><path d="M446.61,476.27v.67H374.5v-.67h72.11m1-1H373.5v2.67h74.11v-2.67Z" transform="translate(-71.5 -57.78)" fill="#fff"/><circle cx="311" cy="210.44" r="46" fill="#ff6347"/><circle cx="533" cy="210.44" r="46" fill="#ff6347"/><circle cx="328" cy="189.44" r="7" fill="#fff"/><circle cx="556" cy="189.44" r="7" fill="#fff"/><path d="M614.5,361.22c0,8.83-54.17,32-121,32s-121-23.17-121-32,54.17,0,121,0S614.5,352.38,614.5,361.22Z" transform="translate(-71.5 -57.78)" fill="#fff"/><path d="M852.81,215.15h-.17a19.23,19.23,0,0,0-16.07,8.8,19.25,19.25,0,0,0-16.07-8.8h-.17a19.12,19.12,0,0,0-19,19.12c0,6.26,2.74,15.14,8.09,22.45,10.18,13.92,27.1,26.1,27.1,26.1s16.92-12.18,27.1-26.1c5.35-7.31,8.09-16.19,8.09-22.45A19.13,19.13,0,0,0,852.81,215.15Z" transform="translate(-71.5 -57.78)" fill="#f86d70"/><path d="M911.07,148.42h-.13a14.78,14.78,0,0,0-12.33,6.75,14.78,14.78,0,0,0-12.33-6.75h-.13a14.68,14.68,0,0,0-14.54,14.67c0,4.8,2.11,11.62,6.21,17.22,7.81,10.68,20.79,20,20.79,20s13-9.35,20.79-20c4.1-5.6,6.2-12.42,6.2-17.22A14.68,14.68,0,0,0,911.07,148.42Z" transform="translate(-71.5 -57.78)" fill="#f86d70"/><path d="M979,223.34h-.13a14.76,14.76,0,0,0-12.32,6.75,14.79,14.79,0,0,0-12.33-6.75h-.13A14.68,14.68,0,0,0,939.51,238c0,4.8,2.1,11.61,6.2,17.22,7.82,10.68,20.8,20,20.8,20s13-9.35,20.79-20c4.1-5.61,6.2-12.42,6.2-17.22A14.68,14.68,0,0,0,979,223.34Z" transform="translate(-71.5 -57.78)" fill="#f86d70"/><path d="M1070.33,544.82l.79-.54a40.58,40.58,0,0,1-11.26,1.7,49.32,49.32,0,0,1-18.82-4.1c-9.79-4.23-18.19-11.28-25.06-19.45-9.5-11.3-16.68-25.22-29.35-32.77a22.81,22.81,0,0,0-8.57-3.24c-5.36-.69-10.63,1.35-15.83,2.84-22.47,6.46-49.08,1.73-64.58-15.8-3.28-3.7-6-7.88-9.64-11.26-12-11.2-31.16-10.91-46.34-4.69-.92.37-1.83.78-2.72,1.22a6.23,6.23,0,0,1,.15-.62,17.45,17.45,0,0,0-7.14,5.14c-2.82,3.77-2.82,8.66-2.07,13.11a13.92,13.92,0,0,0,1.14,4.15,12.25,12.25,0,0,0-2.89,7.91c0,.36,0,.71.05,1.06A44.12,44.12,0,0,0,794,527.59c0-.1,0-.2,0-.29a44.91,44.91,0,0,0-.25,4.67c0,.1,0,.2,0,.3s0,.19,0,.29a44,44,0,0,0,13.61,31.88,32.81,32.81,0,0,0,13,16.37c-.12.5-.24,1-.38,1.51-2.27,8.24-7.57,16.94-19.46,20.8-.5.17-1,.32-1.54.47l-2.46.69-1,.3c-24.58,7.13-31.61,12.89-33.84,22.39-1.84,7.82-4,21.8-4.89,27.4-1.78,4.12-13.88,32.75-12.92,49.3.16,2.85.24,5.7.19,8.56-.11,5.79,1.55,15.12,13.83,12.66,7-1.4,18-4.75,28.84-8.28q-.95,2.91-2.14,5.73c-1.61,3.81-3.56,7.78-4.57,11.78h0l0,.11-.12.49c0,.1,0,.19,0,.29s-.07.34-.11.51,0,.09,0,.14a1.29,1.29,0,0,1,0,.19c0,.22-.07.43-.1.65s-.08.57-.11.86h0c0,.18,0,.36,0,.54a2.46,2.46,0,0,1,0,.26s0,.06,0,.08v.09c0,.15,0,.31,0,.46s0,.18,0,.26,0,.27,0,.41a2.71,2.71,0,0,1,0,.29c0,.26,0,.52.05.78,0,0,0,.07,0,.1s0,.33.06.49,0,.26,0,.39,0,.12,0,.18l.09.46c0,.11,0,.23.07.34l.12.47v0h0c0,.15.08.29.13.44a16.27,16.27,0,0,1,1.06,3.72,6.52,6.52,0,0,1-.23,2.11h0l-.15.54a.56.56,0,0,1,0,.12c-.11.38-.24.76-.37,1.14-.07.21-.14.42-.2.63,0,.06,0,.12-.07.19v0l-.06.2-.06.21,0,.09-.15.61c0,.06,0,.11,0,.18h0a1.85,1.85,0,0,0,0,.23l0,.15a2.89,2.89,0,0,0,0,.29v0a1.11,1.11,0,0,1,0,.19v.09a4.7,4.7,0,0,0,0,.53,10.23,10.23,0,0,0,1.67,4.55c.19.33.4.65.59,1l-42-.69a36.2,36.2,0,0,0-24.25,8.62c-12.07,10.4-7.42,20.54,2.16,28.83,10.4,9,26.62,15.85,33.46,18.48,2,.79,3.22,1.2,3.22,1.2h103l1.53.35a71,71,0,0,0,14.27,1.23,149.08,149.08,0,0,0,17.42-1c1.74-.2,3.5-.43,5.26-.62H907.2l1,.19c5.11,1.09,10.45,3.9,15.24,1.81a5.5,5.5,0,0,0,2.44-2h12.29c22.77,0,35.84-7.53,42.21-17.87,4.57-7.41,5.69-16.26,4.47-24.8-2.48-17.37-63.41-17.89-81.75-17.65-.26-.24-.53-.46-.8-.67l0,0c-2.11-1.66-4.66-3.39-4.93-6.08-.15-1.61.59-3.22.34-4.82-.45-2.78-3.52-4.13-5.91-5.6-8.17-5-11.34-15.61-10.54-25.15.06-.61.12-1.23.2-1.84h0c.06-.48.14-.95.21-1.42a1.87,1.87,0,0,1,0-.25s0-.06,0-.09a279.81,279.81,0,0,0,28.46,7.47c36.18,7.6,26.84-10.53,26.84-10.53s-4.08-25.72-6.42-35.66-14-36.24-14-36.24l-.3-.69c-.09-3.23-1.35-25.67-18.66-30-5.16-1.3-10.72-2.38-16.07-3.76l-.38-.11c-1.79-.46-3.55-1-5.26-1.52-9.48-3.07-17.36-7.75-19.49-17.19-.11-.51-.21-1-.29-1.57a32.78,32.78,0,0,0,13-17,44,44,0,0,0,12.74-31,2.71,2.71,0,0,0,0-.29c0-.1,0-.2,0-.3a42.31,42.31,0,0,0-.25-4.67l0,.29a44,44,0,0,0-2.24-9.77,46,46,0,0,0,11.16,7.44A36,36,0,0,0,906,528.44a35.5,35.5,0,0,0,10.2-1.32c8.13-2.31,15.41-7.47,23.78-8.64a28.71,28.71,0,0,1,3.19-.24c8.33.17,16.47,3.93,23.93,8a276.12,276.12,0,0,1,28.06,17.36c8.87,6.25,17.81,13.22,28.47,15.22a36.27,36.27,0,0,0,7.2.59,55.9,55.9,0,0,0,19.63-3.76,93.25,93.25,0,0,0,21.79-11.32C1071.64,544.48,1071,544.66,1070.33,544.82Zm-216-53.16c-.63-.26-1.28-.51-1.93-.74q.08-.39.12-.78C853.13,490.63,853.73,491.14,854.32,491.66ZM772.41,696.83s7.37-20.61,7.41-25.74L784.38,658l1.69,2.7c-.15.9-.29,1.8-.43,2.7s-.26,1.68-.37,2.52h0c-.12.86-.22,1.71-.29,2.57v0c0,.24,0,.48-.05.72,0,.06,0,.13,0,.19l0,.62c0,.09,0,.19,0,.28s0,.31,0,.46v.32c0,.24,0,.47,0,.7a2.09,2.09,0,0,0,0,.25c0,.11,0,.23,0,.35,0,.33.05.66.08,1,0,0,0,0,0,.06s0,.1,0,.14a1,1,0,0,1,0,.17c0,.35.1.7.17,1s.16.73.25,1.1l0,.11c.88,3.25,2.81,6.11,3.86,9.31v0c.09.29.18.59.26.88l.09.36.15.62.09.45.12.66c0,.09,0,.18,0,.27,0,.32.09.64.13.95v0a39.28,39.28,0,0,1,.2,5.53c0,.57,0,1.13-.06,1.7C782.38,698,775,698.46,772.41,696.83Zm119.82-38.27c1.83,7.61,12.64,32.42,12.64,32.42-2,1.51-9.48,1.18-17.38.32.15-.38.29-.75.43-1.13l.22-.6.39-1c.24-.67.49-1.33.73-2l.45-1.32c0-.05,0-.11,0-.17.15-.46.29-.92.42-1.39.06-.18.11-.37.16-.56l0-.06.23-.89c0-.15.07-.29.11-.44l.18-.76c0-.11,0-.22.07-.34a2,2,0,0,0,0-.24c0-.13.06-.26.08-.38.07-.31.13-.63.18-.94a2.74,2.74,0,0,0,0-.28,1,1,0,0,0,0-.17c0-.22.08-.45.11-.68q.15-1,.27-1.95c0-.13,0-.26,0-.4a5.42,5.42,0,0,0,.06-.58c0-.18,0-.36,0-.54l0-.41c0-.24,0-.48.05-.72s0-.32,0-.48a.92.92,0,0,0,0-.16v0c0-.6,0-1.2,0-1.8v-.67c0-.21,0-.43,0-.64v0c0-.28,0-.55,0-.83a.25.25,0,0,0,0-.08c0-.19,0-.39,0-.58,0,0,0,0,0-.08s0-.16,0-.24c0-.48-.06-1-.1-1.45,0-.16,0-.32,0-.48a44.78,44.78,0,0,0-.64-4.44Z" transform="translate(-71.5 -57.78)" fill="url(#e9b7614d-2d40-4533-bad7-5d0811b316bd)"/><path d="M914.73,636.84l-23.17,21.43-1.72,4.49-1.17,3-97.9,4.64-5.26-8.34-1.69-2.67-4.63,13.32L756,658.27s2.89-19.69,5.21-29.54c2.21-9.41,9.19-15.12,33.6-22.18l1-.31,2.44-.68c.52-.14,1-.29,1.53-.46,11.8-3.83,17.06-12.45,19.31-20.61a47.74,47.74,0,0,0,1.17-18.32s35.63-11.29,34.47,11.3a25.47,25.47,0,0,0,.52,6.88c2.12,9.35,9.94,14,19.35,17q2.55.82,5.22,1.51l.38.1c5.31,1.37,10.83,2.45,16,3.73C914.73,611.35,914.73,636.84,914.73,636.84Z" transform="translate(-71.5 -57.78)" fill="#db8b8b"/><path d="M832.22,466.5c2.06-2.75,5.28-4.38,8.47-5.68,15.08-6.16,34.09-6.45,46,4.65,3.59,3.34,6.31,7.49,9.57,11.16,15.39,17.37,41.8,22.05,64.11,15.65,5.16-1.48,10.4-3.5,15.72-2.81a22.5,22.5,0,0,1,8.5,3.21c12.58,7.48,19.71,21.27,29.14,32.47,6.81,8.09,15.16,15.07,24.88,19.27s20.88,5.44,31,2.38A92.85,92.85,0,0,1,1048,558c-8.14,2.94-17,4.73-25.47,3.13-10.59-2-19.46-8.89-28.27-15.08a273.43,273.43,0,0,0-27.85-17.19c-8.69-4.68-18.3-9-28.08-7.64-8.31,1.15-15.53,6.27-23.61,8.55A36,36,0,0,1,890.29,528c-20.67-9.4-30.13-37.12-52.26-42.23-5.66-1.3-6.7.7-7.86-6.23C829.42,475.08,829.41,470.25,832.22,466.5Z" transform="translate(-71.5 -57.78)" fill="#35323e"/><path d="M1055.82,549c-8.14,2.94-17,4.73-25.47,3.13-10.59-2-19.46-8.88-28.27-15.08a273.43,273.43,0,0,0-27.85-17.19c-8.69-4.68-18.3-9-28.08-7.64-8.31,1.15-15.53,6.27-23.61,8.56A36,36,0,0,1,898.11,519c-20.67-9.4-30.13-37.12-52.26-42.22-5.66-1.31-6.7.69-7.87-6.24a21.15,21.15,0,0,1,.16-9.1,17.33,17.33,0,0,0-7.08,5.1c-2.81,3.74-2.8,8.57-2,13,1.17,6.93,2.2,4.93,7.86,6.23,22.13,5.11,31.59,32.83,52.26,42.23a36,36,0,0,0,24.43,1.84c8.08-2.28,15.3-7.4,23.61-8.55,9.78-1.36,19.39,3,28.08,7.64a274.67,274.67,0,0,1,27.86,17.19c8.81,6.19,17.68,13.1,28.26,15.08,8.51,1.6,17.33-.19,25.47-3.13a92.85,92.85,0,0,0,21.64-11.22,40.51,40.51,0,0,1-11.2,1.68Z" transform="translate(-71.5 -57.78)" opacity="0.1"/><circle cx="765.32" cy="477.4" r="43.73" fill="#35323e"/><path d="M836.82,569.07A43.74,43.74,0,0,1,793.34,530a44.29,44.29,0,0,0-.25,4.63,43.74,43.74,0,1,0,87.47,0,44.29,44.29,0,0,0-.25-4.63A43.74,43.74,0,0,1,836.82,569.07Z" transform="translate(-71.5 -57.78)" opacity="0.1"/><path d="M855.3,584.35a32.47,32.47,0,0,1-36.16.14,47.74,47.74,0,0,0,1.17-18.32s35.63-11.29,34.47,11.3A25.47,25.47,0,0,0,855.3,584.35Z" transform="translate(-71.5 -57.78)" opacity="0.1"/><circle cx="765.61" cy="497.96" r="32.44" fill="#db8b8b"/><path d="M832.59,644.26a25,25,0,0,1,4,5.66c1.69,3.32,2.62,7.35,1.11,10.77a15.32,15.32,0,0,1,2.18-12.57A23.47,23.47,0,0,1,850,640" transform="translate(-71.5 -57.78)" opacity="0.05"/><path d="M978.35,799c-6.32,10.24-19.29,17.71-41.89,17.71H754s-1.19-.41-3.19-1.19c-6.79-2.61-22.89-9.39-33.22-18.32-9.5-8.21-14.13-18.25-2.14-28.57a36,36,0,0,1,24.07-8.53l61.4,1L896.49,757s83.41-2.9,86.31,17.37C984,782.88,982.89,791.65,978.35,799Z" transform="translate(-71.5 -57.78)" fill="#35323e"/><path d="M904,763c-1,2.18-3.7,2.7-6,3.37-9.46,2.77-15.3,12-22.84,18.31a43.66,43.66,0,0,1-12.77,7.45c-10.56,4-22.33,3.63-33.3,1.07s-23.45-4.72-31.7-12.4a91,91,0,0,1-16.77-21,10,10,0,0,1-1.66-4.51,4.52,4.52,0,0,1,0-.52,1.53,1.53,0,0,1,0-.3,1.43,1.43,0,0,1,0-.29c0-.13,0-.26.07-.38a3,3,0,0,1,.1-.43c0-.15.07-.29.11-.44s.09-.28.13-.42c.2-.66.44-1.3.64-2,.07-.22.13-.44.18-.65h0a6.4,6.4,0,0,0,.23-2.09,16.82,16.82,0,0,0-1.05-3.69c0-.14-.09-.29-.13-.43s-.09-.33-.13-.49c-.07-.32-.14-.64-.2-1s-.09-.65-.12-1a14.41,14.41,0,0,1-.07-1.46c0-.27,0-.54,0-.8a.14.14,0,0,1,0-.09c0-.27,0-.53.05-.79.06-.56.14-1.13.25-1.69,0-.31.11-.61.18-.93q.06-.22.12-.48a.45.45,0,0,1,0-.11h0c1-4,2.94-7.89,4.54-11.68a74.36,74.36,0,0,0,5.83-27,38.43,38.43,0,0,0-.2-5.47v0c0-.2-.05-.39-.07-.59s-.09-.64-.16-1-.13-.7-.21-1-.11-.44-.18-.66-.16-.58-.25-.87c-1-3.18-3-6-3.85-9.26q-.15-.6-.27-1.2c-.07-.35-.13-.69-.17-1,0-.12,0-.24,0-.37-.06-.52-.09-1-.1-1.57,0-.23,0-.45,0-.69s0-.52,0-.78,0-.71.05-1.07,0-.48,0-.72c0-.44.08-.87.14-1.29s.1-.86.16-1.29c.11-.83.24-1.67.37-2.5s.28-1.79.43-2.68c.7-4.09,1.63-8.17,3.73-11.72,3.08-5.19,8.59-9.2,9.54-15.16a19.54,19.54,0,0,0-.55-7.12c-.12-.52-.23-1-.34-1.55a151.88,151.88,0,0,1-3.06-20l1-.31,2.44-.68c.52-.14,1-.29,1.53-.46a126.55,126.55,0,0,0,2.65,20c1.1,5.14,2.55,10.3,5.3,14.8s6.92,8.3,12,9.65c3.37.9,6.94.68,10.42.38,7-.61,13.95-1.57,20.84-2.86,5-1,10.07-2.09,14.55-4.54a10,10,0,0,0,3.11-2.39,11.87,11.87,0,0,0,1.95-4.57,125.87,125.87,0,0,0,4-34.24q2.55.82,5.22,1.51l.38.1c0,1.89-.09,3.77-.18,5.65-.05,1.14-.12,2.28-.19,3.43,0,.64-.09,1.29-.15,1.93,0,.46-.09.93-.13,1.39,0,.14,0,.28-.05.42-.06.56-.12,1.12-.19,1.67-.09.75-.2,1.5-.31,2.25l-.15,1c-.21,1.44-.43,2.89-.61,4.34h0a41.69,41.69,0,0,0-.37,6.5c.16,4.74,2.82,9.42,5.66,13.22,3.41,4.57,4.3,9.66,5.67,15.19.22.91.42,1.83.59,2.75.28,1.46.49,2.93.63,4.4,0,.28,0,.56.07.84s0,.42,0,.62,0,.46,0,.69,0,.48,0,.73,0,.55,0,.82c0,.77,0,1.55,0,2.32,0,.27,0,.56,0,.84v.15c0,.23,0,.46,0,.7s0,.59-.07.9,0,.36,0,.53l-.06.58c0,.29-.07.59-.11.88s-.09.71-.14,1.06-.11.71-.17,1.06c-.11.66-.24,1.33-.39,2-.18.83-.38,1.65-.61,2.47-.06.25-.13.49-.2.73-.26.9-.55,1.79-.87,2.68-1.13,3.13-2.35,6.26-3.5,9.4-.19.52-.38,1-.56,1.57s-.37,1-.54,1.55v0c-.18.53-.35,1.06-.53,1.58s-.33,1-.49,1.58c-.33,1.08-.63,2.16-.91,3.25-.08.32-.17.64-.24,1,0,.14-.07.3-.1.44s-.07.29-.1.44c-.15.68-.29,1.36-.42,2.05l-.15.86c-.09.57-.17,1.13-.25,1.69h0c-.08.6-.14,1.22-.2,1.83-.8,9.45,2.35,20,10.46,24.92,2.38,1.45,5.42,2.79,5.87,5.54.25,1.59-.49,3.18-.33,4.78.26,2.66,2.79,4.38,4.89,6h0C903,757.9,905,760.56,904,763Z" transform="translate(-71.5 -57.78)" fill="#ff6347"/><g opacity="0.1"><path d="M880,705.71a33.74,33.74,0,0,0,.19,7.44c1.12-8.77,4.8-17,7.8-25.4a47.39,47.39,0,0,0,2.53-20.59,46.8,46.8,0,0,1-2.53,11.32C884.73,687.41,880.75,696.25,880,705.71Z" transform="translate(-71.5 -57.78)"/><path d="M880.25,603c0,1.89-.09,3.77-.18,5.65-.05,1.14-.11,2.28-.19,3.43,0,.64-.09,1.29-.15,1.93,0,.46-.09.93-.13,1.39,0,.14,0,.28-.05.42-.06.56-.12,1.12-.19,1.67-.09.75-.2,1.5-.31,2.25l-.15,1c-.21,1.44-.43,2.89-.61,4.34a14.52,14.52,0,0,1-.37-2.77c-.16-4.73.85-9.41,1.44-14.12.22-1.76.39-3.54.51-5.32Z" transform="translate(-71.5 -57.78)"/><path d="M788.74,686.56a21,21,0,0,1,.87,4.15c.1-1.26.17-2.53.2-3.79a28.6,28.6,0,0,0-1.07-9.63c-1-3.18-3-6-3.85-9.25-.06-.26-.13-.51-.18-.76a25.2,25.2,0,0,0,.18,10C785.77,680.53,787.7,683.38,788.74,686.56Z" transform="translate(-71.5 -57.78)"/><path d="M900.85,756.26h0c-.93.34-1.93.59-2.85.86-9.46,2.77-15.3,12-22.84,18.31a43.69,43.69,0,0,1-12.77,7.46c-10.56,3.94-22.33,3.62-33.3,1.06s-23.45-4.72-31.7-12.39a91.55,91.55,0,0,1-16.77-21l-.35-.62c-.45,1.79-1.36,3.54-1.3,5.38a9.89,9.89,0,0,0,1.65,4.51,91.28,91.28,0,0,0,16.77,21c8.25,7.68,20.73,9.84,31.7,12.4s22.74,2.88,33.3-1.07a43.44,43.44,0,0,0,12.77-7.45c7.54-6.35,13.38-15.54,22.84-18.31,2.28-.67,5-1.19,6-3.37C905,760.56,903,757.91,900.85,756.26Z" transform="translate(-71.5 -57.78)"/><path d="M780.48,738.54a15.86,15.86,0,0,0-1-3.64,16.81,16.81,0,0,0-.14,8.79C779.79,742,780.6,740.3,780.48,738.54Z" transform="translate(-71.5 -57.78)"/><path d="M798.78,626a12.54,12.54,0,0,1-.55,2.15c-.12-.52-.23-1-.34-1.55a151.88,151.88,0,0,1-3.06-20l1-.31q.81,5.57,2,11C798.52,620.14,799.24,623.07,798.78,626Z" transform="translate(-71.5 -57.78)"/></g><path d="M763.26,650.45l-6.66,4.93S742.52,687,743.55,704.73c.16,2.82.24,5.65.19,8.48-.11,5.74,1.54,15,13.73,12.55,17.37-3.48,60.24-19.12,60.24-19.12l-2.9-13.9S778.32,702,772,698c0,0,8.4-23.46,7.24-26.35S763.26,650.45,763.26,650.45Z" transform="translate(-71.5 -57.78)" fill="#db8b8b"/><path d="M911,627.86l4,9.27s11.59,26.07,13.9,35.91,6.38,35.34,6.38,35.34,9.26,18-26.65,10.42-51-16.79-51-16.79l7-12.75s34.17,6.37,38.81,2.9c0,0-13.9-31.86-12.75-34.18S911,627.86,911,627.86Z" transform="translate(-71.5 -57.78)" fill="#db8b8b"/><path d="M809,696.79l5.79-5.21s11-51,20.86-43.44-4.06,51-4.06,51l-13.9,7.53Z" transform="translate(-71.5 -57.78)" fill="#db8b8b"/><path d="M868.1,693.32l-3.47-4.06s-12.17-50.39-22.59-41.7S853,698,853,698l4.64,4.06,9.26-2.32Z" transform="translate(-71.5 -57.78)" fill="#db8b8b"/><path d="M891.85,786.58s-43.51,4.54-47.24,7.19-1.41,18.87-1.41,18.87l57.34-3.47Z" transform="translate(-71.5 -57.78)" fill="#db8b8b"/><path d="M891.85,786.58s-43.51,4.54-47.24,7.19-1.41,18.87-1.41,18.87l57.34-3.47Z" transform="translate(-71.5 -57.78)" opacity="0.1"/><path d="M966.29,799.61c-6.32,10.24-8.39,15.93-31,15.93H885.48V785.42l6.37-3.48c27.23-12.16,57.35-8.11,57.35-8.11Z" transform="translate(-71.5 -57.78)" opacity="0.1"/><path d="M978.35,799c-6.32,10.24-19.29,17.71-41.89,17.71H886.64V786.58L893,783.1c27.23-12.16,57.35-8.11,57.35-8.11Z" transform="translate(-71.5 -57.78)" fill="#35323e"/><path d="M870.82,791.77c2-.52,4.15-1.13,6.23-.8a8.84,8.84,0,0,1,6,4.32,7.71,7.71,0,0,0,1.74,2.38,5.53,5.53,0,0,0,2.84.81c6.85.65,13.83.64,20.49,2.39s13.19,5.62,16.09,11.87a5.27,5.27,0,0,1,.6,2.29,4.54,4.54,0,0,1-3,3.65c-4.75,2.07-10.06-.71-15.13-1.8-5.72-1.23-11.64-.23-17.46.43a149,149,0,0,1-17.29,1A70.78,70.78,0,0,1,857.78,817c-2.61-.55-5.18-1.32-7.82-1.67a53.27,53.27,0,0,0-7.58-.28q-17.57.2-35.1-.53c-3.71-.15-7.49-.34-10.94-1.7a3.46,3.46,0,0,1-1.86-1.34,3.51,3.51,0,0,1-.37-1.63,33.11,33.11,0,0,1,3.32-16.4c.81-1.67,2.4-5.55,4.2-6.37s6.54,1.17,8.55,1.62c12.79,2.9,25.8,5.39,39,5.48A86.49,86.49,0,0,0,870.82,791.77Z" transform="translate(-71.5 -57.78)" fill="#db8b8b"/><path d="M806.12,784.84,798.38,815l-47.58-1.19c-6.79-2.61,10.33-9.87,0-18.79L738.35,766.3s15.64,2.32,26.07,6.38,16.8,3.47,16.8,3.47S803.81,781.94,806.12,784.84Z" transform="translate(-71.5 -57.78)" opacity="0.1"/><path d="M806.12,786.58l-7.74,30.12-47.58-1.19c-6.79-2.61-22.89-9.39-33.22-18.32L738.35,768s15.64,2.32,26.07,6.37,16.8,3.48,16.8,3.48S803.81,783.68,806.12,786.58Z" transform="translate(-71.5 -57.78)" fill="#35323e"/><ellipse cx="836.88" cy="526.93" rx="16.8" ry="34.7" transform="translate(143.49 1238.08) rotate(-83.23)" fill="#35323e"/><circle cx="767.93" cy="433.67" r="12.16" fill="#35323e"/><path d="M827.27,491.45s15.25-2.94,22.68,2S827.27,491.45,827.27,491.45Z" transform="translate(-71.5 -57.78)" opacity="0.1"/><path d="M880.5,529.87c0,1-.67,2.17-3,.13-5.88-5.13-19.41-18.65-38-18.65-19.38,0-35.09,13.87-42,18.65-2.34,1.62-4,.74-4-.13,0-3.41,20-30.87,46-30.87S880.5,526.46,880.5,529.87Z" transform="translate(-71.5 -57.78)" fill="#ff6347"/><path d="M879.36,526.59c-.3.65-1.12.93-2.86-.59-5.88-5.13-19.41-18.65-38-18.65-19.38,0-35.09,13.87-42,18.65a5.25,5.25,0,0,1-1.63.79,8.3,8.3,0,0,0-1.37,3.08c0,.87,1.66,1.75,4,.13,6.91-4.78,22.62-18.65,42-18.65,18.59,0,32.12,13.52,38,18.65,2.33,2,3,.84,3-.13A10.18,10.18,0,0,0,879.36,526.59Z" transform="translate(-71.5 -57.78)" opacity="0.1"/><rect x="806.11" y="471.96" width="3.27" height="18.51" fill="#6a5c99"/><path d="M801.75,483.93h0A11.25,11.25,0,0,1,813,495.18v.73a11.25,11.25,0,0,1-11.25,11.25h0a0,0,0,0,1,0,0V483.93A0,0,0,0,1,801.75,483.93Z" fill="#ff6347"/><rect x="799.57" y="482.84" width="5.08" height="25.4" rx="2.54" fill="#6a5c99"/><rect x="793.51" y="530.1" width="3.27" height="18.51" transform="translate(1518.79 1020.93) rotate(-180)" fill="#6a5c99"/><path d="M789.88,542.08h0a11.25,11.25,0,0,1,11.25,11.25v.73a11.25,11.25,0,0,1-11.25,11.25h0a0,0,0,0,1,0,0V542.08A0,0,0,0,1,789.88,542.08Z" transform="translate(1519.52 1049.6) rotate(-180)" fill="#ff6347"/><rect x="798.23" y="540.99" width="5.08" height="25.4" rx="2.54" transform="translate(1530.04 1049.6) rotate(-180)" fill="#6a5c99"/><ellipse cx="974.2" cy="709.38" rx="33.8" ry="6.5" fill="#ff6347"/><ellipse cx="973.63" cy="706.62" rx="3.94" ry="5.15" fill="#3f3d56"/><ellipse cx="973.63" cy="700.32" rx="3.94" ry="5.15" fill="#3f3d56"/><ellipse cx="973.63" cy="694.03" rx="3.94" ry="5.15" fill="#3f3d56"/><ellipse cx="973.63" cy="687.73" rx="3.94" ry="5.15" fill="#3f3d56"/><ellipse cx="973.63" cy="681.43" rx="3.94" ry="5.15" fill="#3f3d56"/><ellipse cx="973.63" cy="675.14" rx="3.94" ry="5.15" fill="#3f3d56"/><ellipse cx="973.63" cy="668.84" rx="3.94" ry="5.15" fill="#3f3d56"/><path d="M1059.87,683.53a19.81,19.81,0,0,0,1.46-2.15l-10.34-1.7,11.18.08a18.82,18.82,0,0,0,.36-14.93l-15,7.78,13.84-10.17a18.85,18.85,0,1,0-31.14,21.09,19.65,19.65,0,0,0-2.15,3.44l13.43,7-14.32-4.8a18.89,18.89,0,0,0,3,17.7,18.85,18.85,0,1,0,29.64,0,18.87,18.87,0,0,0,0-23.31Z" transform="translate(-71.5 -57.78)" fill="#ff6347"/><path d="M1026.2,695.19a18.78,18.78,0,0,0,4,11.65,18.85,18.85,0,1,0,29.64,0C1062.39,703.64,1026.2,693.07,1026.2,695.19Z" transform="translate(-71.5 -57.78)" opacity="0.1"/></svg>