<?xml version="1.0" encoding="UTF-8"?>
<svg width="353px" height="705px" viewBox="0 0 353 705" version="1.1" xmlns="http://www.w3.org/2000/svg" xmlns:xlink="http://www.w3.org/1999/xlink">
    <!-- Generator: Sketch 52.5 (67469) - http://www.bohemiancoding.com/sketch -->
    <title>Devices / iPhone / X</title>
    <desc>Created with Sketch.</desc>
    <defs>
        <path d="M62.4850575,0 L62.4850575,0.0110876673 C62.5742497,0.00374416001 62.6644645,0 62.7555556,0 C64.5486533,0 66.0015326,1.45358803 66.0015326,3.24667974 L66.0015326,3.3813503 L66.0015326,4.86689394 C66.0015326,15.6209031 74.7337555,24.3344697 85.5054986,24.3344697 L218.804846,24.3344697 C229.57553,24.3344697 238.308812,15.6185391 238.308812,4.86689394 L238.308812,3.24667974 C238.308812,1.45358803 239.761692,0 241.554789,0 C241.64588,0 241.736095,0.00374416001 241.825287,0.0110876673 L241.825287,0 L238.308812,0 L238.308812,3.51602085 L238.308812,3.24667974 L238.308812,0 L274.555983,0 C290.988863,0 304.310345,13.3150131 304.310345,29.7421691 L304.310345,628.910809 C304.310345,645.336958 290.989713,658.65298 274.555983,658.65298 L29.7543611,658.65298 C13.3214812,658.65298 0,645.337966 0,628.910809 L0,29.7421691 C0,13.3160227 13.3206332,0 29.7543611,0 L62.4850575,0 Z" id="path-1"></path>
        <linearGradient x1="100%" y1="75.7294004%" x2="0%" y2="24.2389356%" id="linearGradient-3">
            <stop stop-color="#FBAB7E" offset="0%"></stop>
            <stop stop-color="#F7CE68" offset="100%"></stop>
        </linearGradient>
    </defs>
    <g id="Mockups" stroke="none" stroke-width="1" fill="none" fill-rule="evenodd">
        <g id="Artboard" transform="translate(-229.000000, -159.000000)">
            <g id="Devices-/-iPhone-/-X" transform="translate(229.000000, 159.000000)">
                <g id="iPhone-X">
                    <g id="Base" transform="translate(2.704981, 0.000000)">
                        <path d="M48.6896552,0 L298.629885,0 C325.520439,-2.88465864e-14 347.31954,21.8166942 347.31954,48.7289504 L347.31954,655.404383 C347.31954,682.316639 325.520439,704.133333 298.629885,704.133333 L48.6896552,704.133333 C21.7991011,704.133333 3.72775366e-13,682.316639 3.69482223e-13,655.404383 L3.69482223e-13,48.7289504 C3.6618908e-13,21.8166942 21.7991011,4.94370126e-15 48.6896552,0 Z" id="Rectangle" fill="#DEDEDE"></path>
                        <path d="M49.5011494,4.06074587 L297.818391,4.06074587 C322.916241,4.06074587 343.262069,24.4229938 343.262069,49.5410996 L343.262069,654.592234 C343.262069,679.71034 322.916241,700.072587 297.818391,700.072587 L49.5011494,700.072587 C24.403299,700.072587 4.05747126,679.71034 4.05747126,654.592234 L4.05747126,49.5410996 C4.05747126,24.4229938 24.403299,4.06074587 49.5011494,4.06074587 Z" id="Rectangle" fill="#FFFFFF"></path>
                        <rect id="Rectangle-10" fill="#FFFFFF" x="341.63908" y="67.6790978" width="5.95095785" height="5.41432782"></rect>
                        <rect id="Rectangle-10" fill="#FFFFFF" x="0" y="67.6790978" width="5.95095785" height="5.41432782"></rect>
                        <rect id="Rectangle-10" fill="#FFFFFF" x="341.63908" y="630.769191" width="5.95095785" height="5.41432782"></rect>
                        <rect id="Rectangle-10" fill="#FFFFFF" x="0" y="630.769191" width="5.95095785" height="5.41432782"></rect>
                    </g>
                    <g id="Elements" transform="translate(0.000000, 23.823042)" fill="#DEDEDE">
                        <ellipse id="Sensor" cx="140.659004" cy="5.41432782" rx="3.24597701" ry="3.24859669"></ellipse>
                        <ellipse id="Camera" cx="215.857471" cy="5.41432782" rx="5.40996169" ry="5.41432782"></ellipse>
                        <path d="M158.511877,3.24859669 L194.758621,3.24859669 C195.953681,3.24859669 196.922605,4.21830281 196.922605,5.41432782 C196.922605,6.61035284 195.953681,7.58005895 194.758621,7.58005895 L158.511877,7.58005895 C157.316817,7.58005895 156.347893,6.61035284 156.347893,5.41432782 C156.347893,4.21830281 157.316817,3.24859669 158.511877,3.24859669" id="Loudspeaker"></path>
                        <path d="M0,122.902619 C0,122.306017 0.580315639,121.822376 1.30155985,121.822376 L3.24597701,121.822376 L3.24597701,173.25849 L1.30155985,173.25849 C0.582728195,173.25849 0,172.774053 0,172.178248 L0,122.902619 Z" id="+"></path>
                        <path d="M0,187.062403 C0,186.465802 0.580315639,185.982161 1.30155985,185.982161 L3.24597701,185.982161 L3.24597701,237.418275 L1.30155985,237.418275 C0.582728195,237.418275 0,236.933838 0,236.338032 L0,187.062403 Z" id="-"></path>
                        <path d="M0,72.5512723 C0,71.9536201 0.580315639,71.4691273 1.30155985,71.4691273 L3.24597701,71.4691273 L3.24597701,99.6236319 L1.30155985,99.6236319 C0.582728195,99.6236319 0,99.1408814 0,98.5414869 L0,72.5512723 Z" id="Sound"></path>
                        <path d="M349.754023,138.065359 L351.377011,138.065359 C352.273363,138.065359 353,138.669132 353,139.417566 L353,220.635234 C353,221.382037 352.271539,221.987441 351.377011,221.987441 L349.754023,221.987441 L349.754023,138.065359 Z" id="Lock"></path>
                    </g>
                    <g id="Screen" transform="translate(24.344828, 21.908075)">
                        <mask id="mask-2" fill="white">
                            <use xlink:href="#path-1"></use>
                        </mask>
                        <use fill="#F3F3F3" xlink:href="#path-1"></use>
                        <g id="Screen-image" mask="url(#mask-2)">
                            <g transform="translate(-549.000000, -670.000000)">
                                <rect id="Rectangle" fill="url(#linearGradient-3)" x="518.655172" y="667.091925" width="395" height="690"></rect>
                                <path d="M597.214382,1052.7879 C880.709368,911.024903 1094.32708,902.919492 1156.94934,798.119374 C1188.50509,745.30994 1150.04774,724.66864 968.3242,775.494235 C883.462814,799.228806 743.878029,870.466456 634.538365,906.117281 C513.366409,945.626093 309.307469,980.855626 248.023341,1027.32784 C143.387537,1106.67397 201.290336,1116.75369 191.325419,1145.13542 C178.909911,1180.49683 105.424612,1229.76315 -4.27066405,1308.18229 C-202.009403,1449.54208 313.719396,1194.55089 597.214382,1052.7879 Z" id="Oval" fill="#FFFFFF" opacity="0.246884301" transform="translate(559.290120, 1047.915674) rotate(-241.000000) translate(-559.290120, -1047.915674) "></path>
                                <path d="M848.876904,638.64733 C1114.08938,506.014813 1313.90883,498.456767 1372.50906,400.387622 C1402.03809,350.969967 1366.06978,331.647875 1196.07451,379.189691 C1116.69,401.390802 986.106674,468.040642 883.822557,501.390437 C770.469669,538.34921 579.585401,571.292588 522.249922,614.775747 C424.355996,689.018383 478.515914,698.458924 469.188388,725.018679 C457.567021,758.110058 388.817962,804.206512 286.191622,877.580981 C101.195478,1009.84716 583.664427,771.279847 848.876904,638.64733 Z" id="Oval-Copy" fill="#FFFFFF" opacity="0.246884301" transform="translate(813.401294, 634.080202) rotate(-241.000000) translate(-813.401294, -634.080202) "></path>
                            </g>
                        </g>
                    </g>
                </g>
            </g>
        </g>
    </g>
</svg>