<?xml version="1.0" encoding="utf-8"?>
<!-- Generator: Adobe Illustrator 16.0.0, SVG Export Plug-In . SVG Version: 6.00 Build 0)  -->
<!DOCTYPE svg PUBLIC "-//W3C//DTD SVG 1.1//EN" "http://www.w3.org/Graphics/SVG/1.1/DTD/svg11.dtd">
<svg version="1.1" id="Layer_1" xmlns="http://www.w3.org/2000/svg" xmlns:xlink="http://www.w3.org/1999/xlink" x="0px" y="0px"
	 width="214px" height="157px" viewBox="0 0 214 157" style="enable-background:new 0 0 214 157;" xml:space="preserve">
<style type="text/css">
<![CDATA[
	.st0{fill-rule:evenodd;clip-rule:evenodd;fill:#40BFAF;}
	.st1{fill-rule:evenodd;clip-rule:evenodd;fill:#E3E3E3;}
	.st2{fill-rule:evenodd;clip-rule:evenodd;fill:#F95D2B;}
	.st3{fill-rule:evenodd;clip-rule:evenodd;fill:#FFFFFF;}
]]>
</style>
<path class="st3" d="M6,156c-2.757,0-5-2.243-5-5V6c0-2.757,2.243-5,5-5h202c2.757,0,5,2.243,5,5v145c0,2.757-2.243,5-5,5H6z"/>
<g>
	<path class="st1" d="M208,0H6C2.69,0,0,2.69,0,6v10v2v13v2v13v2v13v2v13v2v13v2v58c0,3.311,2.69,6,6,6h202c3.311,0,6-2.689,6-6V6
		C214,2.69,211.31,0,208,0z M57,155H6c-2.206,0-4-1.794-4-4V93h55V155z M57,91H2V78h55V91z M57,76H2V63h55V76z M57,61H2V48h55V61z
		 M57,46H2V33h55V46z M57,31H2V18h55V31z M57,16H2V6c0-2.206,1.794-4,4-4h51V16z M212,151c0,2.206-1.794,4-4,4H59V93v-2V78v-2V63v-2
		V48v-2V33v-2V18v-2V2h149c2.206,0,4,1.794,4,4V151z"/>
	<rect x="87" y="73" class="st1" width="99" height="6"/>
	<rect x="87" y="133" class="st1" width="99" height="2"/>
	<rect x="87" y="137" class="st1" width="99" height="2"/>
	<rect x="87" y="129" class="st1" width="99" height="2"/>
	<rect x="87" y="141" class="st1" width="99" height="2"/>
	<rect x="87" y="109" class="st1" width="99" height="2"/>
	<rect x="87" y="101" class="st1" width="99" height="2"/>
	<rect x="87" y="97" class="st1" width="99" height="2"/>
	<rect x="87" y="125" class="st1" width="99" height="2"/>
	<rect x="87" y="85" class="st1" width="99" height="2"/>
	<rect x="87" y="89" class="st1" width="99" height="2"/>
	<rect x="87" y="93" class="st1" width="99" height="2"/>
	<rect x="87" y="121" class="st1" width="99" height="2"/>
	<rect x="87" y="117" class="st1" width="99" height="2"/>
	<rect x="87" y="113" class="st1" width="99" height="2"/>
	<rect x="87" y="105" class="st1" width="99" height="2"/>
	<rect x="87" y="22" class="st1" width="99" height="39"/>
</g>
<path class="st2" d="M26.5,50c2.49,0,4.5,2.01,4.5,4.5S28.99,59,26.5,59S22,56.99,22,54.5S24.01,50,26.5,50z"/>
<path class="st2" d="M198.5,9c1.931,0,3.5,1.57,3.5,3.5s-1.569,3.5-3.5,3.5c-1.93,0-3.5-1.57-3.5-3.5S196.57,9,198.5,9z"/>
<path class="st2" d="M185.5,9c1.931,0,3.5,1.57,3.5,3.5s-1.569,3.5-3.5,3.5c-1.93,0-3.5-1.57-3.5-3.5S183.57,9,185.5,9z"/>
<path class="st2" d="M172.5,9c1.931,0,3.5,1.57,3.5,3.5s-1.569,3.5-3.5,3.5c-1.93,0-3.5-1.57-3.5-3.5S170.57,9,172.5,9z"/>
<path class="st2" d="M160.5,9c1.931,0,3.5,1.57,3.5,3.5s-1.569,3.5-3.5,3.5c-1.93,0-3.5-1.57-3.5-3.5S158.57,9,160.5,9z"/>
<polygon class="st0" points="35,57.15 71.09,57.15 71.09,60 78,54.5 71.09,49 71.09,51.85 35,51.85 "/>
</svg>
