<?xml version="1.0" encoding="UTF-8"?>
<svg width="1000px" height="562px" viewBox="0 0 1000 562" version="1.1" xmlns="http://www.w3.org/2000/svg" xmlns:xlink="http://www.w3.org/1999/xlink">
    <!-- Generator: Sketch 52.5 (67469) - http://www.bohemiancoding.com/sketch -->
    <title>bg3</title>
    <desc>Created with Sketch.</desc>
    <defs>
        <linearGradient x1="50%" y1="100%" x2="50%" y2="0%" id="linearGradient-1">
            <stop stop-color="#F43B47" offset="0%"></stop>
            <stop stop-color="#453A94" offset="100%"></stop>
        </linearGradient>
        <linearGradient x1="100%" y1="50%" x2="0%" y2="50%" id="linearGradient-2">
            <stop stop-color="#B12A5B" offset="0%"></stop>
            <stop stop-color="#CF556C" offset="25.3807957%"></stop>
            <stop stop-color="#FF8C7F" offset="63.2672991%"></stop>
            <stop stop-color="#FF8177" offset="100%"></stop>
        </linearGradient>
    </defs>
    <g id="bg3" stroke="none" stroke-width="1" fill="none" fill-rule="evenodd">
        <g id="Group">
            <rect id="Rectangle" fill="url(#linearGradient-2)" x="0" y="0" width="1000" height="562"></rect>
            <g id="Group-2" opacity="0.279227121" transform="translate(24.000000, 26.000000)" fill="#FFFFFF">
                <path d="M946.702557,466.89001 C935.357463,457.195768 918.48474,458.939486 908.071269,469.713173 L903.992832,473.927158 L899.914395,469.713173 C889.521626,458.939486 872.628201,457.195768 861.283106,466.89001 C848.281794,478.016592 847.598604,497.986316 859.233537,510.047033 L899.293313,551.522613 C901.881154,554.200466 906.083807,554.200466 908.671648,551.522613 L948.731424,510.047033 C960.387059,497.986316 959.703869,478.016592 946.702557,466.89001 Z" id="Path" opacity="0.89" transform="translate(903.991311, 507.031003) rotate(-130.000000) translate(-903.991311, -507.031003) "></path>
                <path d="M845.072938,243.702179 C835.54734,235.571525 821.38062,237.033998 812.637233,246.069993 L809.212885,249.604303 L805.788537,246.069993 C797.062533,237.033998 782.878431,235.571525 773.352833,243.702179 C762.436637,253.034151 761.863015,269.782952 771.631968,279.898392 L805.267063,314.684362 C807.439873,316.930303 810.968516,316.930303 813.141325,314.684362 L846.77642,279.898392 C856.562756,269.782952 855.989134,253.034151 845.072938,243.702179 Z" id="Path" opacity="0.97" transform="translate(809.211609, 277.368818) rotate(-153.000000) translate(-809.211609, -277.368818) "></path>
                <path d="M876.510267,17.6659513 C864.630027,7.55475245 846.961421,9.37346916 836.056748,20.6105403 L831.785932,25.0057724 L827.515116,20.6105403 C816.632122,9.37346916 798.941837,7.55475245 787.061597,17.6659513 C773.447015,29.2710961 772.731599,50.0997328 784.915349,62.67919 L826.864738,105.938666 C829.574646,108.731695 833.975538,108.731695 836.685447,105.938666 L878.634835,62.67919 C890.840265,50.0997328 890.124849,29.2710961 876.510267,17.6659513 Z" id="Path" opacity="0.74" transform="translate(831.784340, 59.533438) rotate(-85.000000) translate(-831.784340, -59.533438) "></path>
                <path d="M516.43829,364.393916 C501.775291,351.885217 479.968093,354.135176 466.509172,368.036707 L461.237985,373.474107 L455.966797,368.036707 C442.534634,354.135176 420.700679,351.885217 406.03768,364.393916 C389.234097,378.750797 388.351106,404.518182 403.388707,420.080397 L455.164078,473.597275 C458.50874,477.052569 463.940472,477.052569 467.285134,473.597275 L519.060505,420.080397 C534.124864,404.518182 533.241873,378.750797 516.43829,364.393916 Z" id="Path" transform="translate(461.236020, 416.188746) rotate(-78.000000) translate(-461.236020, -416.188746) "></path>
                <path d="M687.682771,211.557826 C675.695501,201.342388 657.867719,203.179855 646.864806,214.532772 L642.555514,218.973316 L638.246222,214.532772 C627.265183,203.179855 609.415526,201.342388 597.428257,211.557826 C583.691021,223.282612 582.96916,244.325977 595.262674,257.035119 L637.589984,300.740569 C640.324307,303.562393 644.764846,303.562393 647.499169,300.740569 L689.826479,257.035119 C702.141867,244.325977 701.420006,223.282612 687.682771,211.557826 Z" id="Path" opacity="0.72" transform="translate(642.553907, 253.856937) rotate(-124.000000) translate(-642.553907, -253.856937) "></path>
                <path d="M521.026613,26.66211 C510.002607,17.2805852 493.607414,18.9680543 483.488664,29.3942028 L479.525654,33.4722532 L475.562644,29.3942028 C465.46401,18.9680543 449.048701,17.2805852 438.024694,26.66211 C425.391344,37.42977 424.727489,56.7553092 436.033131,68.4269706 L474.95914,108.564629 C477.47374,111.156099 481.557451,111.156099 484.072051,108.564629 L522.99806,68.4269706 C534.323818,56.7553092 533.659964,37.42977 521.026613,26.66211 Z" id="Path" opacity="0.72" transform="translate(479.524177, 65.508232) rotate(-280.000000) translate(-479.524177, -65.508232) "></path>
                <path d="M120.739926,379.56429 C108.645627,369.244613 90.6586687,371.100829 79.5575151,382.569592 L75.2097471,387.055448 L70.8619792,382.569592 C59.7828955,371.100829 41.773867,369.244613 29.6795684,379.56429 C15.8196788,391.408716 15.0913725,412.666809 27.4946495,425.505637 L70.1998826,469.657061 C72.9586186,472.507679 77.4388058,472.507679 80.1975418,469.657061 L122.902775,425.505637 C135.328122,412.666809 134.599815,391.408716 120.739926,379.56429 Z" id="Path" opacity="0.94" transform="translate(75.208126, 422.295024) rotate(-39.000000) translate(-75.208126, -422.295024) "></path>
                <path d="M317.742042,177.002583 C305.968831,166.891385 288.459402,168.710101 277.652969,179.947172 L273.420629,184.342404 L269.188288,179.947172 C258.40334,168.710101 240.872427,166.891385 229.099216,177.002583 C215.607288,188.607728 214.898317,209.436365 226.972304,222.015822 L268.543769,265.275298 C271.229265,268.068328 275.590509,268.068328 278.276004,265.275298 L319.84747,222.015822 C331.94294,209.436365 331.23397,188.607728 317.742042,177.002583 Z" id="Path" opacity="0.86" transform="translate(273.419051, 218.870070) rotate(-52.000000) translate(-273.419051, -218.870070) "></path>
                <path d="M120.497937,75.1475688 C110.330164,66.4957183 95.2083842,68.0519398 85.875556,77.6671656 L82.2203528,81.4280343 L78.5651497,77.6671656 C69.2508758,68.0519398 54.1105421,66.4957183 43.9427689,75.1475688 C32.2906494,85.0777443 31.6783565,102.900186 42.1058902,113.664051 L78.0085198,150.679892 C80.3278111,153.069803 84.0943402,153.069803 86.4136315,150.679892 L122.316261,113.664051 C132.762349,102.900186 132.150056,85.0777443 120.497937,75.1475688 Z" id="Path" opacity="0.9" transform="translate(82.218990, 110.972326) rotate(-295.000000) translate(-82.218990, -110.972326) "></path>
            </g>
        </g>
    </g>
</svg>