<?xml version="1.0" encoding="utf-8"?>
<!-- Generator: Adobe Illustrator 19.1.0, SVG Export Plug-In . SVG Version: 6.00 Build 0)  -->
<svg version="1.1" xmlns="http://www.w3.org/2000/svg" xmlns:xlink="http://www.w3.org/1999/xlink" x="0px" y="0px" width="24px"
	 height="24px" viewBox="0 0 24 24" enable-background="new 0 0 24 24" xml:space="preserve">
<g id="Bounding_Boxes">
	<g id="ui_x5F_spec_x5F_header_copy_3">
	</g>
	<path fill="none" d="M0,0h24v24H0V0z"/>
</g>
<g id="Rounded">
	<g id="ui_x5F_spec_x5F_header_copy_6">
	</g>
	<path fill="currentColor" d="M10,5.5L10,5.5C10,6.33,10.67,7,11.5,7h0.71l-3.42,8H7.5C6.67,15,6,15.67,6,16.5v0C6,17.33,6.67,18,7.5,18h5
		c0.83,0,1.5-0.67,1.5-1.5v0c0-0.83-0.67-1.5-1.5-1.5h-0.71l3.42-8h1.29C17.33,7,18,6.33,18,5.5v0C18,4.67,17.33,4,16.5,4h-5
		C10.67,4,10,4.67,10,5.5z"/>
</g>
</svg>
