<?xml version="1.0" encoding="utf-8"?>
<!-- Generator: Adobe Illustrator 19.1.0, SVG Export Plug-In . SVG Version: 6.00 Build 0)  -->
<svg version="1.1" xmlns="http://www.w3.org/2000/svg" xmlns:xlink="http://www.w3.org/1999/xlink" x="0px" y="0px" width="24px"
	 height="24px" viewBox="0 0 24 24" enable-background="new 0 0 24 24" xml:space="preserve">
<g id="Bounding_Boxes">
	<g id="ui_x5F_spec_x5F_header_copy_3">
	</g>
	<path fill="none" d="M0,0h24v24H0V0z"/>
</g>
<g id="Rounded">
	<g id="ui_x5F_spec_x5F_header_copy_6">
	</g>
	<path fill="currentColor" d="M7,16L7,16c0,0.55,0.45,1,1,1h8c0.55,0,1-0.45,1-1v0c0-0.55-0.45-1-1-1H8C7.45,15,7,15.45,7,16z M4,21h16
		c0.55,0,1-0.45,1-1v0c0-0.55-0.45-1-1-1H4c-0.55,0-1,0.45-1,1v0C3,20.55,3.45,21,4,21z M4,13h16c0.55,0,1-0.45,1-1v0
		c0-0.55-0.45-1-1-1H4c-0.55,0-1,0.45-1,1v0C3,12.55,3.45,13,4,13z M7,8L7,8c0,0.55,0.45,1,1,1h8c0.55,0,1-0.45,1-1v0
		c0-0.55-0.45-1-1-1H8C7.45,7,7,7.45,7,8z M3,4L3,4c0,0.55,0.45,1,1,1h16c0.55,0,1-0.45,1-1v0c0-0.55-0.45-1-1-1H4
		C3.45,3,3,3.45,3,4z"/>
</g>
</svg>
