<?xml version="1.0" encoding="utf-8"?>
<!-- Generator: Adobe Illustrator 19.1.0, SVG Export Plug-In . SVG Version: 6.00 Build 0)  -->
<svg version="1.1" xmlns="http://www.w3.org/2000/svg" xmlns:xlink="http://www.w3.org/1999/xlink" x="0px" y="0px" width="24px"
	 height="24px" viewBox="0 0 24 24" enable-background="new 0 0 24 24" xml:space="preserve">
<g id="Bounding_Boxes">
	<path fill="none" d="M0,0h24v24H0V0z"/>
</g>
<g id="Rounded">
	<path d="M12.6,18.06c-0.36,0.28-0.87,0.28-1.23,0l-6.15-4.78c-0.36-0.28-0.86-0.28-1.22,0l0,0c-0.51,0.4-0.51,1.17,0,1.57
		l6.76,5.26c0.72,0.56,1.73,0.56,2.46,0l6.76-5.26c0.51-0.4,0.51-1.17,0-1.57l-0.01-0.01c-0.36-0.28-0.86-0.28-1.22,0L12.6,18.06z
		 M13.23,15.04l6.76-5.26c0.51-0.4,0.51-1.18,0-1.58l-6.76-5.26c-0.72-0.56-1.73-0.56-2.46,0L4.01,8.21c-0.51,0.4-0.51,1.18,0,1.58
		l6.76,5.26C11.49,15.61,12.51,15.61,13.23,15.04z"/>
</g>
</svg>
