<?xml version="1.0" encoding="utf-8"?>
<!-- Generator: Adobe Illustrator 19.1.0, SVG Export Plug-In . SVG Version: 6.00 Build 0)  -->
<svg version="1.1" xmlns="http://www.w3.org/2000/svg" xmlns:xlink="http://www.w3.org/1999/xlink" x="0px" y="0px"
	 height="24px" viewBox="0 0 24 24" enable-background="new 0 0 24 24" xml:space="preserve">
<g id="Bounding_Boxes">
	<g id="ui_x5F_spec_x5F_header_copy_3" display="none">
	</g>
	<path fill="none" d="M0,0h24v24H0V0z"/>
</g>
<g id="Rounded_1_">
	<g id="ui_x5F_spec_x5F_header_copy_6" display="none">
	</g>
	<path fill="currentColor" d="M12.5,8c-2.65,0-5.05,0.99-6.9,2.6L3.71,8.71C3.08,8.08,2,8.52,2,9.41V15c0,0.55,0.45,1,1,1h5.59
		c0.89,0,1.34-1.08,0.71-1.71l-1.91-1.91c1.39-1.16,3.16-1.88,5.12-1.88c3.16,0,5.89,1.84,7.19,4.5c0.27,0.56,0.91,0.84,1.5,0.64
		l0,0c0.71-0.23,1.07-1.04,0.75-1.72C20.23,10.42,16.65,8,12.5,8z"/>
</g>
</svg>
