<?xml version="1.0" encoding="utf-8"?>
<!-- Generator: Adobe Illustrator 19.1.0, SVG Export Plug-In . SVG Version: 6.00 Build 0)  -->
<svg version="1.1" xmlns="http://www.w3.org/2000/svg" xmlns:xlink="http://www.w3.org/1999/xlink" x="0px" y="0px" width="24px"
	 height="24px" viewBox="0 0 24 24" enable-background="new 0 0 24 24" xml:space="preserve">
<g id="Bounding_Boxes">
	<g id="ui_x5F_spec_x5F_header_copy_3">
	</g>
	<path fill="none" d="M0,0h24v24H0V0z"/>
</g>
<g id="Rounded">
	<g id="ui_x5F_spec_x5F_header_copy_7">
	</g>
	<path fill="currentColor" d="M22,16V4c0-1.1-0.9-2-2-2H8C6.9,2,6,2.9,6,4v12c0,1.1,0.9,2,2,2h12C21.1,18,22,17.1,22,16z M11.4,12.53l1.63,2.18
		l2.58-3.22c0.2-0.25,0.58-0.25,0.78,0l2.96,3.7c0.26,0.33,0.03,0.81-0.39,0.81H9c-0.41,0-0.65-0.47-0.4-0.8l2-2.67
		C10.8,12.27,11.2,12.27,11.4,12.53z M2,7v13c0,1.1,0.9,2,2,2h13c0.55,0,1-0.45,1-1v0c0-0.55-0.45-1-1-1H5c-0.55,0-1-0.45-1-1V7
		c0-0.55-0.45-1-1-1h0C2.45,6,2,6.45,2,7z"/>
</g>
</svg>
