<?xml version="1.0" encoding="utf-8"?>
<!-- Generator: Adobe Illustrator 19.1.0, SVG Export Plug-In . SVG Version: 6.00 Build 0)  -->
<svg version="1.1" xmlns="http://www.w3.org/2000/svg" xmlns:xlink="http://www.w3.org/1999/xlink" x="0px" y="0px" width="24px"
	 height="24px" viewBox="0 0 24 24" enable-background="new 0 0 24 24" xml:space="preserve">
<g id="Bounding_Boxes">
	<path fill="none" d="M0,0h24v24H0V0z"/>
</g>
<g id="Rounded">
	<path d="M18.3,5.71L18.3,5.71c-0.39-0.39-1.02-0.39-1.41,0L12,10.59L7.11,5.7c-0.39-0.39-1.02-0.39-1.41,0l0,0
		c-0.39,0.39-0.39,1.02,0,1.41L10.59,12L5.7,16.89c-0.39,0.39-0.39,1.02,0,1.41h0c0.39,0.39,1.02,0.39,1.41,0L12,13.41l4.89,4.89
		c0.39,0.39,1.02,0.39,1.41,0l0,0c0.39-0.39,0.39-1.02,0-1.41L13.41,12l4.89-4.89C18.68,6.73,18.68,6.09,18.3,5.71z"/>
</g>
</svg>
