<?xml version="1.0" encoding="UTF-8"?>
<svg width="248px" height="40px" viewBox="0 0 248 40" version="1.1" xmlns="http://www.w3.org/2000/svg" xmlns:xlink="http://www.w3.org/1999/xlink">
    <g id="Webiny-Installer" stroke="none" stroke-width="1" fill="none" fill-rule="evenodd">
        <g id="Installer-Base" transform="translate(-32.000000, -319.000000)">
            <g id="sign-in-divider" transform="translate(33.000000, 318.000000)">
                <g id="lock-24px" transform="translate(109.000000, 0.000000)">
                    <g id="Group">
                        <polygon id="Path" points="0 0 24 0 24 24 0 24"></polygon>
                        <polygon id="Path" opacity="0.87" points="0 0 24 0 24 24 0 24"></polygon>
                    </g>
                    <path d="M18,8 L17,8 L17,6 C17,3.24 14.76,1 12,1 C9.24,1 7,3.24 7,6 L7,8 L6,8 C4.9,8 4,8.9 4,10 L4,20 C4,21.1 4.9,22 6,22 L18,22 C19.1,22 20,21.1 20,20 L20,10 C20,8.9 19.1,8 18,8 Z M12,17 C10.9,17 10,16.1 10,15 C10,13.9 10.9,13 12,13 C13.1,13 14,13.9 14,15 C14,16.1 13.1,17 12,17 Z M9,8 L9,6 C9,4.34 10.34,3 12,3 C13.66,3 15,4.34 15,6 L15,8 L9,8 Z" id="Shape" fill="#D8D8D8" fill-rule="nonzero"></path>
                </g>
                <path d="M0,36 L85,36" id="Line-2" stroke="#D8D8D8" stroke-linecap="square"></path>
                <path d="M161.105469,36 L246.105469,36" id="Line-2-Copy" stroke="#D8D8D8" stroke-linecap="square"></path>
                <path d="M105.264,40.144 C104.16,40.144 103.188,39.688 102.504,38.98 L103.104,38.284 C103.668,38.872 104.46,39.268 105.276,39.268 C106.308,39.268 106.92,38.752 106.92,37.984 C106.92,37.18 106.356,36.928 105.612,36.592 L104.484,36.1 C103.74,35.788 102.888,35.224 102.888,34.072 C102.888,32.872 103.932,31.984 105.36,31.984 C106.296,31.984 107.124,32.38 107.688,32.956 L107.148,33.604 C106.668,33.148 106.092,32.86 105.36,32.86 C104.484,32.86 103.896,33.304 103.896,34.012 C103.896,34.768 104.58,35.056 105.204,35.32 L106.32,35.8 C107.232,36.196 107.94,36.736 107.94,37.9 C107.94,39.148 106.92,40.144 105.264,40.144 Z M109.488,40 L109.488,32.128 L110.484,32.128 L110.484,40 L109.488,40 Z M115.74,40.144 C113.664,40.144 112.188,38.632 112.188,36.064 C112.188,33.532 113.712,31.984 115.8,31.984 C116.892,31.984 117.612,32.476 118.068,32.956 L117.516,33.604 C117.12,33.196 116.616,32.86 115.824,32.86 C114.24,32.86 113.22,34.084 113.22,36.04 C113.22,38.02 114.156,39.268 115.836,39.268 C116.4,39.268 116.94,39.088 117.252,38.8 L117.252,36.748 L115.584,36.748 L115.584,35.92 L118.164,35.92 L118.164,39.232 C117.66,39.76 116.796,40.144 115.74,40.144 Z M120.048,40 L120.048,32.128 L121.08,32.128 L123.924,37.072 L124.776,38.704 L124.824,38.704 C124.776,37.912 124.704,37.024 124.704,36.196 L124.704,32.128 L125.652,32.128 L125.652,40 L124.62,40 L121.764,35.044 L120.912,33.424 L120.864,33.424 C120.924,34.216 120.996,35.056 120.996,35.884 L120.996,40 L120.048,40 Z M130.212,40 L130.212,32.128 L131.208,32.128 L131.208,40 L130.212,40 Z M133.368,40 L133.368,32.128 L134.4,32.128 L137.244,37.072 L138.096,38.704 L138.144,38.704 C138.096,37.912 138.024,37.024 138.024,36.196 L138.024,32.128 L138.972,32.128 L138.972,40 L137.94,40 L135.084,35.044 L134.232,33.424 L134.184,33.424 C134.244,34.216 134.316,35.056 134.316,35.884 L134.316,40 L133.368,40 Z" id="SIGNIN" fill="#949494" fill-rule="nonzero"></path>
            </g>
        </g>
    </g>
</svg>