<svg id="Layer_1" enable-background="new 0 0 510.635 510.635" height="512" viewBox="0 0 510.635 510.635" width="512" xmlns="http://www.w3.org/2000/svg"><path d="m494.635 350.649h-26.42v-238.157c0-28.612-23.278-51.891-51.891-51.891h-322.012c-28.613 0-51.891 23.278-51.891 51.891v238.157h-26.421c-8.836 0-16 7.163-16 16v42.984c0 22.276 18.123 40.399 40.399 40.399h429.836c22.276 0 40.399-18.123 40.399-40.399v-42.984c.001-8.836-7.163-16-15.999-16zm-420.215-238.157c0-10.968 8.923-19.891 19.891-19.891h322.012c10.968 0 19.891 8.923 19.891 19.891v238.157h-361.794zm404.215 297.142c0 4.632-3.768 8.399-8.399 8.399h-429.837c-4.631 0-8.399-3.768-8.399-8.399v-26.984h171.69c1.333 7.491 7.863 13.184 15.737 13.184h71.779c7.874 0 14.405-5.692 15.737-13.184h171.69v26.984z"/><path d="m196.197 170.517c-6.249-6.249-16.379-6.249-22.627 0l-46.801 46.801c-6.244 6.242-6.248 16.38 0 22.627l46.801 46.802c3.125 3.125 7.219 4.687 11.314 4.687 14.125 0 21.423-17.205 11.314-27.313l-35.488-35.488 35.487-35.487c6.248-6.25 6.248-16.381 0-22.629z"/><path d="m337.065 170.517c-6.248-6.248-16.378-6.248-22.627 0-6.248 6.248-6.248 16.379 0 22.627l35.487 35.487-35.488 35.488c-10.109 10.109-2.81 27.313 11.314 27.313 4.095 0 8.189-1.563 11.314-4.687l46.801-46.802c6.244-6.243 6.248-16.381 0-22.627z"/><path d="m284.351 153.975c-8.237-3.205-17.509.877-20.711 9.113l-46.468 119.488c-4.098 10.537 3.739 21.803 14.908 21.803 6.407 0 12.454-3.875 14.916-10.205l46.468-119.488c3.202-8.236-.878-17.508-9.113-20.711z"/></svg>