<svg width="516" viewBox="0 0 516 516" xmlns="http://www.w3.org/2000/svg" data-state="resting" data-palette="positive" data-background="#f1eCe3">
    <g transform="translate(108 108)">
        <path class="tf-ring" stroke-width="1" vector-effect="non-scaling-stroke" fill="var(--mdc-theme-on-background)" transform="translate(9, 67)" stroke="#262627" d="M 81.92785916397588,163.85571832795176 C 104.70117633052176,163.56697193449762 124.88472662088985,157.51710145368503 140.33149636833028,140.27829936833027 C 155.7782661157707,123.0394972829755 159.74068125459723,101.28143711459724 159.16170790117798,77.66170790117796 C 158.5827345477587,54.04197868775868 153.59314629121096,38.33616999121093 137.43662960123388,22.17965330123388 C 121.28011291125684,6.023136611256829 100.61037127398116,-3.82283914601884 78.37912445129271,-3.120875548707284 C 56.14787762860426,-2.418911951395735 41.16314136556325,7.972217165563245 26.28039548779163,25.68947128779163 C 11.397649610020007,43.40672541002001 3.928492052872775,62.25888305287278 3.9653950624346264,85.46539506243462 C 4.002298071996479,108.67190707199647 10.872417715292638,126.04396668249747 26.464910535600893,141.7220313356009 C 42.057403355909145,157.40009598870432 59.15454199743,164.14446472140588 81.92785916397588,163.85571832795176z"></path>
        <g class="tf-wordmark" transform="translate(86, 128)" fill="var(--mdc-theme-on-surface)">
            <polygon points="0.635793896 5.9761 0.635793896 1.0911 26.5537939 1.0911 26.5537939 5.9761 16.1787939 5.9761 16.1787939 33.9741 11.0107939 33.9741 11.0107939 5.9761"></polygon>
            <polygon class="tf-letter" points="54.3164939 10.2983 48.6314939 10.2983 40.5664939 27.6483 32.9614939 10.2983 27.3324939 10.2983 37.6694939 33.8803 33.1704939 43.5563 38.8564939 43.5563" style="display: block;"></polygon>
            <path class="tf-letter" d="M75.558 22.136c0-2.396-.563-4.322-1.69-5.73-1.128-1.457-2.584-2.162-4.37-2.162-1.785 0-3.24.705-4.368 2.162-1.128 1.408-1.69 3.334-1.69 5.73 0 2.396.562 4.32 1.69 5.778 1.127 1.41 2.583 2.114 4.368 2.114 1.786 0 3.242-.705 4.37-2.114 1.127-1.457 1.69-3.382 1.69-5.778M70.062 34.35c-2.772 0-5.167-1.316-6.34-3.006v12.212h-4.887V10.3h4.886v2.723c.9-1.55 3.57-3.1 6.44-3.1 6.91 0 10.57 4.508 10.57 12.213 0 7.516-3.71 12.214-10.66 12.214z" style="display: block;"></path>
            <path class="tf-letter" d="M90.238 19.412h11.51c-.424-2.96-2.397-5.167-5.732-5.167-3.147 0-5.215 2.113-5.778 5.167zm16.676 4.086h-16.77c0 3.712 2.16 6.53 5.872 6.53 2.63 0 5.027-1.504 6.2-3.993l4.18 1.644c-2.394 4.65-5.166 6.67-10.38 6.67-7.798 0-11.04-6.58-11.04-12.22s3.242-12.22 11.04-12.22c7.563 0 10.898 6.15 10.898 11.46v2.11z" style="display: block;"></path>
            <path class="tf-letter" d="M110.897 14.62v-4.322h3.054v-1.22c0-5.592 3.01-8.363 7.94-8.363 1.55 0 2.82.28 3.9.845l-.99 4.134c-.84-.423-1.78-.658-2.77-.658-2.11 0-3.19 1.222-3.19 3.712v1.55h5.22v4.32h-5.21v19.355h-4.88V14.62h-3.06z" style="display: block;"></path>
            <path class="tf-letter" d="M132.45 22.136c0 2.16.564 4.04 1.69 5.59 1.176 1.55 2.773 2.302 4.793 2.302s3.618-.75 4.745-2.302c1.174-1.55 1.738-3.43 1.738-5.59 0-2.16-.564-3.993-1.738-5.543-1.127-1.55-2.725-2.35-4.745-2.35s-3.617.8-4.792 2.35c-1.12 1.55-1.69 3.382-1.69 5.543m-5.16 0c0-3.43 1.04-6.34 3.15-8.69 2.12-2.35 4.98-3.524 8.51-3.524 3.528 0 6.34 1.174 8.46 3.524 2.113 2.35 3.193 5.26 3.193 8.69 0 3.43-1.08 6.342-3.194 8.69-2.116 2.35-4.934 3.524-8.458 3.524-3.522 0-6.39-1.175-8.502-3.523-2.114-2.35-3.147-5.262-3.147-8.69z" style="display: block;"></path>
            <path class="tf-letter" d="M160.11 33.974h-4.886V10.3h4.885v3.945c1.55-2.772 4.36-4.323 7-4.323 1.08 0 2.06.19 3 .564l-.85 4.463c-.75-.47-1.69-.71-2.77-.71-1.74 0-3.24.94-4.51 2.86-1.27 1.88-1.88 4.55-1.88 8.08v8.78z" style="display: block;"></path>
            <path class="tf-letter" d="M175.14 10.298h4.885v4.04c1.927-2.96 4.275-4.416 7.14-4.416 3.195 0 5.826 1.926 6.53 4.885 1.644-3.147 4.322-4.885 7.376-4.885 4.28 0 6.77 2.818 6.77 7.093v16.958h-4.88V18.096c0-2.49-1.36-3.852-3.47-3.852-3.05 0-5.54 3.992-5.54 10.24v9.49h-4.884v-15.88c0-2.49-1.36-3.85-3.474-3.85-3.15 0-5.544 3.99-5.544 10.756v8.973h-4.885V10.298z" style="display: block;"></path>
        </g>
    </g>
</svg>