<svg width="230" height="130" viewBox="0 0 230 130" fill="none" xmlns="http://www.w3.org/2000/svg">
<circle cx="150.824" cy="47.8435" r="20.2224" fill="#F2F2F2"/>
<path fill-rule="evenodd" clip-rule="evenodd" d="M124.316 18.5219C119.363 18.5251 115.345 14.5147 115.339 9.56231C115.332 4.60995 119.34 0.589191 124.293 0.579606C126.675 0.574996 128.961 1.51813 130.647 3.20105C132.334 4.88397 133.281 7.16844 133.281 9.55075C133.281 14.5031 129.268 18.5187 124.316 18.5219Z" fill="#F2F2F2"/>
<path fill-rule="evenodd" clip-rule="evenodd" d="M3.46155 112.985C3.46155 109.425 4.71994 106.387 7.23674 103.87C9.75353 101.354 12.7916 100.095 16.3508 100.095H103.765C107.324 100.095 110.362 101.354 112.879 103.87C115.396 106.387 116.654 109.425 116.654 112.985L116.654 113.755L116.654 114.525C116.654 118.085 115.396 121.123 112.879 123.64C110.362 126.156 107.324 127.415 103.765 127.415H16.3508C12.7916 127.415 9.75353 126.156 7.23674 123.64C4.71994 121.123 3.46155 118.085 3.46155 114.525V113.755V112.985Z" fill="#F2F2F2"/>
<path fill-rule="evenodd" clip-rule="evenodd" d="M96.751 73.754C96.6399 72.4942 96.1923 72.0951 94.9151 72.0639C92.6697 72.0049 90.4209 71.9181 88.172 71.8765C87.4085 71.8765 86.9469 71.644 86.6866 70.8353C86.3786 69.8362 85.9386 68.8827 85.3783 68C84.1844 66.1919 82.89 64.4532 81.5851 62.7283C81.2553 62.4055 81.1587 61.9128 81.3421 61.4894C81.8072 60.3129 82.2236 59.119 82.6366 57.9252C83.1017 56.5821 83.5389 55.2287 83.9866 53.8786C84.1949 52.5738 82.9628 52.0705 81.5191 51.2689C79.2009 50.0716 76.9034 48.8395 74.5782 47.6908C73.5371 47.1841 72.9783 47.4062 72.3432 48.3606C71.006 50.3781 69.6779 52.4002 68.3591 54.427C68.1941 54.7835 67.7898 54.9619 67.4152 54.8434C63.5693 54.078 59.5997 54.1967 55.8065 55.1905C55.485 55.229 55.163 55.1221 54.9284 54.899C53.1689 52.9763 51.4372 51.019 49.7228 49.0616C48.8656 48.0899 48.2652 48.0205 47.1824 48.7944C44.7079 50.5296 42.2404 52.2649 39.7452 53.9793C38.6312 54.7428 38.409 55.4369 39.0511 56.6099C40.1686 58.6922 41.2965 60.7744 42.4348 62.8567C42.6621 63.1994 42.614 63.6552 42.3203 63.943C41.3624 65.2687 40.3386 66.5771 39.5925 68.0173C38.7705 69.7249 38.0406 71.4754 37.4061 73.2612C37.3101 73.6892 36.9563 74.0112 36.5211 74.0663C34.0606 74.5036 31.5965 74.9964 29.1672 75.4858C27.6471 75.7842 27.3973 76.0896 27.5014 77.6687C27.7027 80.6845 27.9491 83.6934 28.1469 86.7092C28.2336 88.0107 28.6605 88.4653 29.9758 88.5208C32.3392 88.6145 34.7026 88.7394 37.0625 88.8019C37.6455 88.8019 37.8607 89.0553 38.0446 89.5585C39.3932 93.1804 41.5155 96.4646 44.2637 99.1821C44.4547 99.4746 44.5079 99.836 44.4095 100.171C43.6564 102.639 42.8478 105.089 42.0634 107.542C41.7164 108.643 42.0218 109.323 43.0768 109.802C45.9573 111.103 48.8308 112.429 51.7322 113.675C52.1773 113.825 52.6672 113.757 53.0544 113.491C53.779 112.83 54.42 112.083 54.9632 111.266C55.9453 109.77 56.8025 108.202 57.7603 106.689C57.9511 106.425 58.2541 106.266 58.5794 106.258C62.1255 106.774 65.7397 106.558 69.199 105.623C69.5288 105.552 69.8732 105.636 70.1325 105.852C71.8192 107.702 73.4711 109.576 75.1092 111.468C76.2059 112.731 76.775 112.873 78.1111 111.95C80.6237 110.217 83.1202 108.461 85.6004 106.682C86.4784 106.057 86.6415 105.384 86.1418 104.405C85 102.212 83.8096 100.046 82.6713 97.8529C82.5497 97.5871 82.5561 97.2804 82.6887 97.02C84.9828 94.1924 86.6666 90.9205 87.6341 87.4103C87.7245 86.9521 88.109 86.6102 88.5746 86.5739C91.0039 86.1112 93.4332 85.6288 95.8625 85.1267C97.4 84.8039 97.6707 84.4742 97.5353 82.8744C97.2959 79.8308 97.0182 76.7941 96.751 73.754ZM47.0192 80.5841C47.0192 72.0223 53.96 65.0815 62.5218 65.0815C71.0836 65.0815 78.0244 72.0223 78.0244 80.5841C78.0244 84.6994 76.3905 88.6427 73.4823 91.5495C70.5742 94.4564 66.6301 96.0885 62.5183 96.0866H62.5218C53.96 96.0867 47.0192 89.1459 47.0192 80.5841Z" fill="url(#paint0_linear)"/>
<path fill-rule="evenodd" clip-rule="evenodd" d="M24.5967 70.4987C22.2923 69.5061 19.9671 68.4511 17.7217 67.4308L15.9344 66.6187C14.6191 66.0253 14.1749 65.0327 14.6087 63.6654L15.3028 61.5831C15.8581 59.8478 16.4342 58.0744 16.9721 56.3149C17.0054 56.1684 16.9958 56.0153 16.9443 55.8742C14.1439 53.098 11.9794 49.7471 10.6003 46.0528C10.4684 45.7057 10.4198 45.6779 10.1422 45.671C8.55968 45.6294 6.95632 45.5599 5.40503 45.4905C4.61723 45.4558 3.83291 45.4211 3.04511 45.3934C1.44175 45.324 0.775426 44.6646 0.667843 43.0439C0.560259 41.4231 0.442262 39.8302 0.320796 38.2234C0.216682 36.8352 0.112569 35.4123 0.0188652 34.0033C-0.1026 32.1501 0.334679 31.574 2.14626 31.2269L3.60385 30.9389C5.54037 30.5537 7.54282 30.1546 9.52099 29.7936C9.76739 29.7485 9.82986 29.7069 9.97215 29.3459L10.3886 28.2527C10.8966 26.816 11.4888 25.4103 12.162 24.0431C12.838 22.8118 13.6109 21.6362 14.4733 20.5275L14.9349 19.8924C15.1293 19.6286 15.1084 19.5974 15.0113 19.4204C13.7584 17.1438 12.5438 14.9088 11.6241 13.1736C10.8675 11.7576 11.1313 10.7443 12.5125 9.80029C14.9037 8.15876 17.3157 6.46518 19.6478 4.82712L19.9463 4.61889C21.2685 3.67839 22.1917 3.77904 23.2467 4.96594C24.798 6.72893 26.6096 8.78345 28.4524 10.7928C28.5519 10.8697 28.6737 10.9123 28.7994 10.9143C32.6632 9.91036 36.7038 9.79173 40.6198 10.5673C40.8107 10.6054 40.8385 10.6124 40.9669 10.4076C42.1503 8.58563 43.417 6.65606 44.9579 4.33084C45.7769 3.09883 46.6654 2.83854 47.9251 3.46323C49.5875 4.27879 51.2533 5.14987 52.8636 5.98972C53.5369 6.34371 54.2113 6.69076 54.8869 7.03086L55.338 7.2738C56.6013 7.96789 57.9097 8.66198 57.6598 10.2376L57.639 10.3278L57.2017 11.6535C56.8998 12.5628 56.6013 13.4755 56.2855 14.3813C55.9107 15.471 55.4665 16.7377 54.9841 17.9663C54.8938 18.1988 54.8869 18.3133 55.1472 18.6604C56.3375 20.229 57.7118 22.0649 58.9647 23.9633C59.5594 24.8888 60.0263 25.8904 60.3529 26.9409C60.516 27.4511 60.6999 27.5795 61.3038 27.5934C62.7128 27.6177 64.1426 27.6628 65.5239 27.7044L68.0365 27.7981C69.6225 27.8398 70.2923 28.4575 70.4311 30.0088L70.5977 31.9245C70.8094 34.2879 71.0245 36.7276 71.2119 39.1361C71.3612 41.024 70.9135 41.6106 69.0464 41.9958C66.6969 42.4782 64.2467 42.964 61.7584 43.443C61.4287 43.5089 61.3454 43.5818 61.2621 43.8733C60.7662 45.6584 60.0906 47.3886 59.2458 49.0374L58.2255 48.5133C59.0361 46.9336 59.6838 45.2754 60.1585 43.5644C60.3063 42.8944 60.8647 42.3932 61.5467 42.3185C64.0281 41.8396 66.4748 41.3538 68.8347 40.8714C70.1292 40.6041 70.1882 40.5243 70.0841 39.2229C69.8966 36.8248 69.6815 34.3851 69.4733 32.0251L69.3032 30.1094C69.2199 29.1551 69.0152 28.9711 68.0261 28.9434C67.1793 28.9226 66.336 28.8948 65.4926 28.8705C64.1045 28.8254 62.6885 28.7837 61.2864 28.756C60.5542 28.756 59.6623 28.5651 59.2631 27.3053C58.9717 26.3565 58.5551 25.4508 58.0242 24.6122C56.7887 22.7451 55.4283 20.9266 54.2483 19.3684C53.8005 18.8839 53.677 18.1824 53.9325 17.5741C54.408 16.3699 54.8452 15.1136 55.2201 14.0343C55.5324 13.1319 55.8309 12.2262 56.1293 11.3204C56.2681 10.897 56.4104 10.4701 56.5527 10.0432C56.636 9.36997 56.1293 9.02639 54.8175 8.308L54.3733 8.06507L52.3569 7.02393C50.7536 6.18755 49.0982 5.31994 47.4462 4.50785C46.7105 4.1608 46.4433 4.23021 45.9435 4.9833C44.4026 7.30504 43.1359 9.23115 41.9594 11.0427C41.6674 11.5988 41.0281 11.8773 40.422 11.7125C36.6604 10.9699 32.7794 11.0886 29.0701 12.0596C28.5423 12.1516 28.0029 11.9792 27.6264 11.598C25.7801 9.58167 23.9616 7.52368 22.4207 5.75374C21.7579 5.00065 21.4941 4.97636 20.6473 5.57675L20.3454 5.78845C18.0098 7.42651 15.5978 9.12356 13.2032 10.7686C12.3078 11.3794 12.2002 11.7681 12.6757 12.6496C13.5919 14.357 14.8031 16.6059 16.0524 18.8756C16.3854 19.414 16.3247 20.1072 15.9032 20.5796L15.4 21.2042C14.5762 22.2651 13.8359 23.3883 13.1858 24.5636C12.5305 25.8901 11.9512 27.2527 11.4506 28.6449C11.3118 29.0128 11.1729 29.3841 11.0306 29.7485C10.8659 30.3605 10.3581 30.8193 9.73269 30.9215C7.76841 31.2686 5.76942 31.6781 3.83291 32.0633L2.37184 32.3514C1.12595 32.5978 1.08083 32.6568 1.16412 33.9339C1.26129 35.3406 1.36309 36.745 1.46952 38.147C1.58751 39.7573 1.70551 41.3642 1.81657 42.9744C1.88597 44.0156 2.08726 44.2099 3.0937 44.2516L5.45708 44.3522C7.00491 44.4216 8.60479 44.491 10.1734 44.5327C10.8802 44.5052 11.5091 44.9777 11.6796 45.664C13.0038 49.2069 15.0806 52.4204 17.7668 55.0829C18.1082 55.5256 18.2155 56.1056 18.0549 56.6411C17.5135 58.4111 16.9374 60.1984 16.3786 61.9266C16.1565 62.6207 15.9309 63.3148 15.7054 64.0089C15.4451 64.8279 15.6151 65.2097 16.3994 65.5672L18.1902 66.3792C20.4287 67.3961 22.7469 68.4615 25.0444 69.4367C25.2837 69.4975 25.537 69.4678 25.7558 69.3534C26.4449 68.7267 27.0535 68.0168 27.5674 67.2399C28.1123 66.4105 28.6294 65.5429 29.1291 64.6995C29.5247 64.0332 29.9377 63.3426 30.3611 62.6728C30.6708 62.2148 31.1971 61.9517 31.7493 61.9787C33.2308 62.1758 34.725 62.2605 36.2193 62.232L36.247 63.3773C34.6937 63.4088 33.1402 63.3218 31.6001 63.117C31.5023 63.1547 31.4136 63.2126 31.3398 63.2871C30.9233 63.943 30.5173 64.6267 30.1251 65.286C29.6184 66.1398 29.084 67.0213 28.5357 67.8681C27.968 68.7259 27.2966 69.5104 26.5367 70.2037C26.1777 70.4872 25.7307 70.6358 25.2734 70.6236C25.0418 70.6276 24.8117 70.5851 24.5967 70.4987Z" fill="#D3C3F1"/>
<path fill-rule="evenodd" clip-rule="evenodd" d="M80.8806 36.9465C79.6243 36.4086 78.3611 35.8325 77.136 35.2773L76.192 34.8504C75.8144 34.7219 75.5072 34.4421 75.344 34.0782C75.1807 33.7142 75.1762 33.2987 75.3314 32.9312L75.7027 31.7825C76.0046 30.8385 76.31 29.8946 76.5981 28.9506V28.9228C75.0867 27.4046 73.9165 25.5813 73.1658 23.5748C73.1664 23.5633 73.1664 23.5517 73.1658 23.5401C72.3121 23.5193 71.4583 23.4811 70.6011 23.443L69.3309 23.3874C68.3349 23.3458 67.8594 22.8773 67.7935 21.8743C67.7345 21.0067 67.672 20.1391 67.6096 19.2819C67.5517 18.5161 67.4962 17.7491 67.443 16.981C67.3701 15.8531 67.6998 15.4193 68.8069 15.2006L69.5738 15.0479C70.615 14.8397 71.7186 14.6211 72.7979 14.4232L72.8291 14.3469C72.9055 14.156 72.9784 13.9582 73.0513 13.7673C73.3332 12.9794 73.6588 12.2077 74.0265 11.456C74.4076 10.7741 74.8416 10.1231 75.3244 9.50906L75.5674 9.16202C74.9461 8.03065 74.3492 6.92704 73.7523 5.81649C73.2769 4.92806 73.4573 4.2409 74.3145 3.65093C75.6715 2.72084 77.025 1.76994 78.3368 0.850262C78.6215 0.620053 78.9708 0.484203 79.3363 0.46157C79.7874 0.491606 80.2019 0.720464 80.4677 1.08625C81.5088 2.2558 82.366 3.23447 83.244 4.20967C85.3385 3.67014 87.5267 3.60257 89.6505 4.01185C90.3446 2.91866 91.0699 1.83934 91.7848 0.763501C92.0212 0.320267 92.4704 0.0312753 92.9717 0C93.2361 0.00784529 93.495 0.0767372 93.7283 0.201282C94.6237 0.642032 95.5225 1.11055 96.3901 1.56518L97.4972 2.14127L97.7471 2.27662C98.4412 2.65143 99.3019 3.11995 99.1353 4.15414L99.111 4.24438L98.8854 4.93847C98.7188 5.44516 98.5384 5.94838 98.3787 6.45159C98.1636 7.07628 97.9276 7.74608 97.6846 8.39852V8.42975C97.7074 8.45597 97.7283 8.48381 97.7471 8.51305C98.3961 9.36678 99.1353 10.3663 99.8294 11.397C100.161 11.9176 100.421 12.4802 100.603 13.0698C100.659 13.2363 100.659 13.2363 100.874 13.2433C101.641 13.2433 102.404 13.278 103.171 13.3023L104.525 13.3405C105.511 13.3682 105.989 13.8124 106.076 14.7807L106.163 15.7767C106.277 17.0886 106.395 18.4039 106.51 19.7192C106.597 20.8679 106.264 21.3086 105.122 21.5446C103.845 21.8084 102.516 22.0687 101.176 22.329H101.124C101.123 22.3393 101.123 22.3498 101.124 22.3602C100.59 24.2876 99.6725 26.0875 98.4273 27.6526C98.7223 28.2149 99.0208 28.7736 99.3227 29.3358C99.6246 29.898 99.9613 30.5297 100.274 31.1335C100.482 31.4529 100.55 31.8439 100.461 32.2147C100.373 32.5856 100.135 32.9037 99.8051 33.0943C98.2364 34.2153 96.9454 35.1211 95.7481 35.9505C95.4378 36.1971 95.0606 36.3446 94.6653 36.3739C94.0892 36.3739 93.6901 35.9713 93.3639 35.5931C92.354 34.4305 91.5176 33.483 90.7263 32.6154C88.8074 33.142 86.8015 33.2743 84.83 33.0041C84.6149 33.3511 84.4066 33.6982 84.2019 34.0452C83.9277 34.5103 83.6431 34.9892 83.3343 35.4542C83.0175 35.9381 82.6395 36.379 82.2098 36.7661C81.9635 36.9518 81.6609 37.0474 81.3526 37.0368C81.1906 37.0411 81.0296 37.0103 80.8806 36.9465ZM68.5675 16.9075C68.6184 17.671 68.6727 18.4345 68.7306 19.198C68.7954 20.061 68.8578 20.9275 68.918 21.7974C68.9457 22.2243 68.9527 22.2243 69.3587 22.2416L70.6324 22.2971C71.4827 22.3319 72.3329 22.37 73.1832 22.3909C73.6685 22.3876 74.0955 22.7107 74.2243 23.1786C74.9278 25.0592 76.0301 26.7653 77.4553 28.1796C77.7096 28.487 77.793 28.9014 77.6774 29.2832C77.3859 30.2376 77.0805 31.185 76.7716 32.1324L76.4038 33.2777C76.3031 33.5935 76.3344 33.6629 76.6432 33.8017L77.5907 34.2321C78.8053 34.7839 80.0616 35.3565 81.3041 35.891H81.3318C81.3687 35.896 81.4061 35.896 81.4429 35.891C81.7887 35.571 82.095 35.211 82.3556 34.8186C82.6471 34.3778 82.9248 33.9093 83.1955 33.4547C83.4141 33.0868 83.6328 32.7155 83.8653 32.3546C84.0679 32.0535 84.4016 31.8667 84.7641 31.8513H84.8682C86.7107 32.1161 88.588 31.998 90.3828 31.5043C90.4701 31.4816 90.5599 31.47 90.65 31.4696C90.9545 31.4652 91.2481 31.5827 91.4656 31.7958C92.2742 32.6843 93.1349 33.6525 94.1691 34.8429C94.4849 35.2108 94.5856 35.2281 94.6029 35.2281C94.6202 35.2281 94.7383 35.2281 95.0332 35.0095C96.2271 34.1835 97.5111 33.2742 99.0763 32.1637C99.3227 31.9867 99.3366 31.9381 99.1943 31.6639C98.882 31.067 98.5662 30.4724 98.2469 29.8801C97.9345 29.2936 97.6187 28.7071 97.3133 28.1206C97.1402 27.7754 97.1681 27.3634 97.3862 27.0447C98.5768 25.5758 99.4511 23.8768 99.9543 22.0542C100.063 21.5977 100.44 21.2546 100.905 21.1901C102.245 20.9333 103.567 20.6695 104.837 20.4092C105.001 20.3925 105.16 20.3441 105.306 20.2669C105.327 20.1103 105.327 19.9516 105.306 19.7949C105.202 18.4866 105.087 17.1747 104.959 15.8664L104.869 14.8704C104.844 14.5927 104.796 14.5233 104.796 14.5233C104.686 14.4763 104.567 14.456 104.449 14.4643L103.092 14.4261C102.332 14.4019 101.568 14.3776 100.808 14.3637C100.187 14.4013 99.6256 13.9964 99.465 13.3954C99.3168 12.9056 99.102 12.4385 98.8264 12.0072C98.1671 11.0043 97.4382 10.0256 96.7962 9.18575C96.4977 8.85109 96.4168 8.37518 96.588 7.96067C96.8379 7.32558 97.0669 6.66966 97.2821 6.05539C97.4521 5.55564 97.6291 5.05937 97.7818 4.55962L97.9901 3.928C97.9901 3.75447 97.8374 3.62954 97.1814 3.27555L96.9385 3.14368L95.8418 2.57105C94.9777 2.11989 94.0893 1.65485 93.2043 1.22104C93.1278 1.17536 93.0428 1.14583 92.9544 1.13428C92.9301 1.13428 92.8468 1.20369 92.7254 1.38762C92.0035 2.47272 91.2863 3.5636 90.5737 4.66027C90.3579 5.05253 89.9034 5.24832 89.4701 5.13572C87.4732 4.74326 85.4134 4.80852 83.4453 5.3266C83.0654 5.40209 82.6731 5.27918 82.4042 5.00037C81.4984 4.01129 80.6204 3.02221 79.5758 1.83531C79.3814 1.6132 79.3051 1.59932 79.3051 1.59932C79.3051 1.59932 79.2079 1.59932 78.958 1.77978C77.6427 2.70293 76.2858 3.6573 74.9288 4.58739C74.5263 4.86502 74.5436 4.93443 74.7241 5.28148C75.3557 6.41053 75.9734 7.53265 76.5773 8.64782C76.804 9.02963 76.7635 9.51319 76.4766 9.85207L76.2302 10.1991C75.7896 10.7655 75.3939 11.3654 75.0468 11.9933C74.6971 12.7037 74.3888 13.4337 74.1237 14.1797C74.0508 14.3776 73.9779 14.5754 73.9015 14.7697C73.775 15.1878 73.4203 15.4966 72.9888 15.5645C71.9199 15.7588 70.8337 15.974 69.7856 16.1822L69.0151 16.3384C68.8594 16.3538 68.7077 16.3973 68.5674 16.4668L68.5675 16.4564C68.5583 16.6066 68.5583 16.7573 68.5675 16.9075Z" fill="#D3C3F1"/>
<g style="mix-blend-mode:multiply">
<path fill-rule="evenodd" clip-rule="evenodd" d="M55.9524 84.797L52.645 81.4896C52.4761 81.3222 52.3811 81.0941 52.3811 80.8563C52.3811 80.6184 52.4761 80.3904 52.645 80.2229L55.9489 76.919C56.1726 76.6771 56.5108 76.5769 56.8302 76.6581C57.1496 76.7392 57.399 76.9886 57.4801 77.308C57.5612 77.6273 57.4611 77.9655 57.2191 78.1892L54.5469 80.858L57.2191 83.5268C57.4758 83.7839 57.5525 84.1701 57.4135 84.5057C57.2746 84.8414 56.9473 85.0603 56.584 85.0607C56.3468 85.0599 56.1197 84.9651 55.9524 84.797Z" fill="#CCCCCC"/>
<path fill-rule="evenodd" clip-rule="evenodd" d="M68.1989 84.5037C68.0608 84.1684 68.1378 83.7829 68.394 83.5263L71.0628 80.8575L68.3905 78.1888C68.0398 77.839 68.039 77.2711 68.3888 76.9203C68.7386 76.5696 69.3065 76.5688 69.6572 76.9186L72.9646 80.2259C73.1335 80.3934 73.2285 80.6214 73.2285 80.8593C73.2285 81.0971 73.1335 81.3251 72.9646 81.4926L69.6607 84.7965C69.4922 84.9648 69.2639 85.0596 69.0256 85.0603H69.0256C68.663 85.0585 68.337 84.839 68.1989 84.5037Z" fill="#CCCCCC"/>
<path fill-rule="evenodd" clip-rule="evenodd" d="M63.7054 84.5848L60.1656 77.9909C60.0142 77.7088 60.0248 77.3674 60.1935 77.0953C60.3621 76.8232 60.6631 76.6618 60.9831 76.6718C61.3031 76.6819 61.5934 76.8619 61.7446 77.144L65.288 83.738C65.521 84.1751 65.3564 84.7183 64.9201 84.9527C64.7902 85.0235 64.6446 85.0605 64.4967 85.0602H64.4967C64.1657 85.0589 63.862 84.8764 63.7054 84.5848Z" fill="#CCCCCC"/>
</g>
<path fill-rule="evenodd" clip-rule="evenodd" d="M55.3866 84.2386L52.0724 80.9313C51.9027 80.7636 51.8077 80.5347 51.8086 80.2962C51.8098 80.0591 51.9046 79.8321 52.0724 79.6646L55.3762 76.3607C55.6025 76.1343 55.9323 76.0459 56.2415 76.1287C56.5507 76.2114 56.7921 76.4529 56.875 76.7621C56.9578 77.0712 56.8694 77.4011 56.643 77.6273L53.9742 80.2962L56.6464 82.9685C56.9042 83.2246 56.9816 83.6111 56.8423 83.9468C56.703 84.2824 56.3747 84.5006 56.0113 84.499L56.0183 84.4989C55.7815 84.4994 55.5543 84.4058 55.3866 84.2386Z" fill="url(#paint1_linear)"/>
<path fill-rule="evenodd" clip-rule="evenodd" d="M67.6248 83.9447C67.4864 83.6094 67.564 83.2237 67.8213 82.968L70.4901 80.2993L67.8178 77.627C67.4682 77.2772 67.4683 76.7102 67.818 76.3605C68.1678 76.0107 68.7348 76.0107 69.0846 76.3604L72.3919 79.6642C72.5592 79.8334 72.6539 80.0613 72.6556 80.2993C72.655 80.5375 72.5602 80.7658 72.3919 80.9344L69.0776 84.2382C68.9108 84.4025 68.6869 84.4957 68.4529 84.4985C68.0902 84.4987 67.7632 84.28 67.6248 83.9447Z" fill="url(#paint2_linear)"/>
<path fill-rule="evenodd" clip-rule="evenodd" d="M63.1327 84.0272L59.5894 77.4333C59.4158 77.1488 59.4139 76.7917 59.5844 76.5054C59.7549 76.2191 60.0698 76.0506 60.4026 76.0676C60.7354 76.0846 61.0315 76.2843 61.1719 76.5865L64.7152 83.1804C64.9482 83.6175 64.7837 84.1607 64.3474 84.3951C64.2165 84.4628 64.0714 84.4985 63.924 84.4992C63.5935 84.4993 63.2897 84.318 63.1327 84.0272Z" fill="url(#paint3_linear)"/>
<path fill-rule="evenodd" clip-rule="evenodd" d="M148.742 63.8907C143.612 53.7578 133.44 47.1559 122.096 46.5962C110.752 46.0365 99.9803 51.6051 93.8775 61.1837C93.225 62.2249 93.579 64.3661 95.4739 64.3661H111.525C118.918 64.3681 124.91 70.362 124.91 77.7552V78.5985C124.91 85.9912 118.917 91.9841 111.525 91.9841H95.7723C93.7803 91.9841 93.2354 94.167 93.8948 95.2012C100.008 104.759 110.774 110.309 122.106 109.743C133.438 109.177 143.598 102.583 148.728 92.463H215.489C220.646 92.5434 225.446 89.8382 228.048 85.385C230.65 80.9318 230.65 75.4219 228.048 70.9687C225.446 66.5156 220.646 63.8103 215.489 63.8907L215.489 63.8907H148.742ZM211.557 78.1752C211.557 75.7908 213.49 73.8579 215.875 73.8579C218.259 73.8579 220.192 75.7908 220.192 78.1752C220.186 80.5541 218.257 82.4801 215.878 82.482L215.875 82.4924C213.49 82.4924 211.557 80.5595 211.557 78.1752Z" fill="url(#paint4_linear)"/>
<g style="mix-blend-mode:multiply">
<path fill-rule="evenodd" clip-rule="evenodd" d="M153 89.3469V87.1882H213.938C218.921 87.1882 222.961 83.1484 222.961 78.165C222.961 73.1816 218.921 69.1418 213.938 69.1418H153V66.9832H213.938C217.979 66.912 221.744 69.0272 223.786 72.5156C225.827 76.004 225.827 80.3226 223.786 83.811C221.744 87.2994 217.979 89.4146 213.938 89.3434V89.3469H153Z" fill="url(#paint5_linear)"/>
</g>
<path fill-rule="evenodd" clip-rule="evenodd" d="M172.768 74.1299L171.727 77.1492L171.519 77.7461L170.256 74.1299H168.923L167.663 77.7461L167.451 77.1492L166.41 74.1299H164.797L164.911 74.4769L165.317 75.6361L166.299 78.4645L166.993 80.519H168.333L169.593 76.9097L170.849 80.519H172.175L172.879 78.468L173.865 75.6395L174.267 74.4804L174.385 74.1334L174.042 74.1299H172.768ZM179.223 78.6196C178.935 78.769 178.639 78.9012 178.335 79.0152C178.033 79.1242 177.715 79.1806 177.394 79.1818C177.047 79.2008 176.702 79.1098 176.409 78.9215C176.215 78.7663 176.073 78.5556 176.003 78.3176H176.842C177.523 78.3399 178.2 78.2008 178.817 77.9116C179.483 77.5927 179.902 76.9147 179.89 76.1764C179.904 75.525 179.578 74.9131 179.029 74.5626C178.524 74.2278 177.93 74.0524 177.325 74.0594C176.468 74.0471 175.652 74.4204 175.1 75.0762C174.546 75.7611 174.262 76.6254 174.302 77.5055C174.258 78.3332 174.54 79.1453 175.086 79.7683C175.666 80.3724 176.478 80.6975 177.314 80.6602C178.264 80.6455 179.191 80.3628 179.987 79.8446L180.198 79.7093L179.418 78.5155L179.223 78.6196ZM177.276 75.4683C177.417 75.4674 177.558 75.4814 177.696 75.51C177.82 75.5308 177.938 75.5769 178.043 75.6453C178.123 75.6929 178.19 75.7597 178.238 75.8397C178.297 75.9365 178.326 76.0489 178.321 76.1624C178.338 76.2878 178.3 76.4145 178.217 76.5095C178.099 76.6213 177.961 76.7107 177.811 76.7732C177.499 76.8645 177.173 76.8986 176.849 76.8739L175.916 76.8739C175.979 76.5518 176.118 76.2495 176.322 75.9924C176.443 75.8381 176.588 75.7045 176.752 75.5967V75.5967C176.913 75.5105 177.094 75.4664 177.276 75.4683ZM182.402 74.2438V71.4883H180.851V80.2963L181.024 80.3484C181.748 80.5339 182.492 80.6284 183.239 80.6295C184.367 80.6295 185.234 80.3033 185.821 79.6578C186.393 78.9797 186.697 78.1154 186.674 77.2284C186.686 76.4023 186.421 75.596 185.921 74.9379V74.9379C185.042 73.9348 183.597 73.6498 182.402 74.2438ZM183.381 79.168C183.128 79.168 182.78 79.1438 182.413 79.109V76.3847C182.424 76.1753 182.515 75.978 182.666 75.8329C182.93 75.5373 183.311 75.3724 183.707 75.3818C184.135 75.3704 184.534 75.5942 184.748 75.9648C184.989 76.3603 185.11 76.8173 185.095 77.2801C185.124 77.7608 184.977 78.2354 184.682 78.6162C184.547 78.7914 184.372 78.9318 184.172 79.0258H184.186C183.932 79.1323 183.656 79.1809 183.381 79.168ZM188.954 74.1396V80.5114H187.403V74.1396H188.954ZM196.097 76.0939C196.102 75.7646 196.037 75.438 195.906 75.136C195.559 74.4419 194.785 74.0463 193.719 74.0463C193.02 74.0154 192.336 74.2568 191.811 74.7195C191.628 74.4647 191.401 74.2449 191.141 74.0706L190.981 73.9561L189.968 74.8792L190.162 75.0597C190.32 75.2008 190.449 75.3718 190.54 75.5629C190.615 75.7673 190.652 75.9838 190.648 76.2014V80.5187H192.199V76.3194C192.371 76.0929 192.578 75.8959 192.814 75.7364C193.063 75.5668 193.359 75.4772 193.66 75.4796C193.911 75.4644 194.158 75.5422 194.355 75.6982C194.452 75.785 194.549 75.9377 194.549 76.3923V80.5152H196.097V76.0939ZM201.084 80.0117H201.254C201.755 80.0098 202.255 79.9797 202.753 79.9214L202.753 74.1396H201.205V78.0647C201.205 78.0647 200.959 79.0573 200.029 79.0712C200.029 79.0712 198.988 79.151 198.856 78.2695V74.1466H197.308V78.5645C197.302 78.8879 197.362 79.2093 197.485 79.5085C197.675 79.8901 197.995 80.1915 198.387 80.3587V80.3587C199.262 79.7271 200.171 79.9908 201.084 80.0117ZM204.887 76.7741C204.291 76.4125 203.576 76.3026 202.899 76.4687V78.2282C202.917 78.1956 202.939 78.1653 202.965 78.138C203 78.1042 203.038 78.0739 203.079 78.0478C203.399 77.8876 203.78 77.9034 204.086 78.0894C204.359 78.2534 204.508 78.5649 204.464 78.8807C204.45 79.1434 204.323 79.3874 204.117 79.5505C203.749 79.8208 203.32 79.9939 202.867 80.0537H202.843H202.795C202.282 80.1027 201.768 80.1259 201.254 80.1231H200.907C200.598 80.1058 200.313 80.0849 200.07 80.0641H199.824H199.609L199.421 80.0815H199.362C199.049 80.1365 198.75 80.2546 198.484 80.4285L198.46 80.4459C198.201 80.6134 197.983 80.8363 197.821 81.0983C197.348 81.9038 197.348 82.9026 197.821 83.7081C198.269 84.4827 199.123 84.931 200.015 84.8603C200.683 84.8297 201.31 84.5276 201.75 84.0239C202.157 83.5343 202.438 82.953 202.569 82.3303C202.618 82.1325 202.656 81.9347 202.684 81.7473L201.115 81.7126C201.08 81.8792 201.039 82.0596 200.99 82.2088C200.914 82.4882 200.785 82.75 200.608 82.9793C200.437 83.1751 200.192 83.2908 199.931 83.2986C199.615 83.3377 199.306 83.1813 199.151 82.903C198.967 82.5962 198.957 82.2153 199.126 81.9C199.151 81.8581 199.182 81.8196 199.216 81.7855C199.424 81.6266 199.686 81.5567 199.945 81.5911C200.244 81.5911 200.532 81.5911 200.816 81.5911C200.927 81.5911 201.035 81.5911 201.143 81.5911L202.732 81.6258C203.597 81.5566 204.425 81.2437 205.12 80.7235C205.635 80.2884 205.95 79.6614 205.991 78.9883C206.08 78.0967 205.647 77.2337 204.88 76.7707" fill="white"/>
<path fill-rule="evenodd" clip-rule="evenodd" d="M94.4988 114.025L94.7347 113.723C102.246 119.547 111.488 122.693 120.992 122.66C144.418 122.189 163.162 103.065 163.162 79.6347C163.162 56.2046 144.418 37.0801 120.992 36.6096C109.144 36.5624 97.811 41.447 89.7095 50.0924L89.4319 49.8321C97.6041 41.1083 109.039 36.1794 120.992 36.2279C144.966 36.2279 164.401 55.6626 164.401 79.6364C164.401 103.61 144.966 123.045 120.992 123.045L120.992 123.048C111.402 123.079 102.077 119.903 94.4988 114.025Z" fill="#F94F24"/>
<path fill-rule="evenodd" clip-rule="evenodd" d="M14.1262 81.7402C14.1247 78.5367 14.4463 75.3346 15.0862 72.189L15.4624 72.2589C14.826 75.3791 14.5063 78.5557 14.508 81.7402C14.508 107.678 35.6084 128.782 61.5501 128.782C71.8002 128.814 81.7751 125.467 89.9316 119.259L90.1641 119.565C81.9406 125.823 71.884 129.197 61.5501 129.164L61.5501 129.164C35.4002 129.164 14.1262 107.89 14.1262 81.7402Z" fill="#F94F24"/>
<path fill-rule="evenodd" clip-rule="evenodd" d="M204.322 101.171C204.106 101.188 203.899 101.083 203.786 100.898C203.673 100.713 203.673 100.481 203.786 100.296C203.899 100.112 204.106 100.006 204.322 100.023H206.005C206.221 100.006 206.428 100.112 206.541 100.296C206.654 100.481 206.654 100.713 206.541 100.898C206.428 101.083 206.221 101.188 206.005 101.171H204.322ZM197.933 101.171C197.717 101.188 197.51 101.083 197.397 100.898C197.283 100.713 197.283 100.481 197.397 100.296C197.51 100.112 197.717 100.006 197.933 100.023H200.327C200.627 100.046 200.859 100.296 200.859 100.597C200.859 100.898 200.627 101.148 200.327 101.171H197.933ZM191.543 101.171C191.328 101.188 191.12 101.083 191.007 100.898C190.894 100.713 190.894 100.481 191.007 100.296C191.12 100.112 191.328 100.006 191.543 100.023H193.938C194.238 100.046 194.469 100.296 194.469 100.597C194.469 100.898 194.238 101.148 193.938 101.171H191.543ZM185.154 101.171C184.938 101.188 184.731 101.083 184.618 100.898C184.505 100.713 184.505 100.481 184.618 100.296C184.731 100.112 184.938 100.006 185.154 100.023H187.549C187.849 100.046 188.08 100.296 188.08 100.597C188.08 100.898 187.849 101.148 187.549 101.171H185.154ZM178.765 101.171C178.549 101.188 178.342 101.083 178.229 100.898C178.116 100.713 178.116 100.481 178.229 100.296C178.342 100.112 178.549 100.006 178.765 100.023H181.174C181.389 100.006 181.597 100.112 181.71 100.296C181.823 100.481 181.823 100.713 181.71 100.898C181.597 101.083 181.389 101.188 181.174 101.171H181.16H178.765ZM172.376 101.171C172.076 101.148 171.845 100.898 171.845 100.597C171.845 100.296 172.076 100.046 172.376 100.023H174.771C174.986 100.006 175.194 100.112 175.307 100.296C175.42 100.481 175.42 100.713 175.307 100.898C175.194 101.083 174.986 101.188 174.771 101.171H172.376ZM165.987 101.171C165.687 101.148 165.455 100.898 165.455 100.597C165.455 100.296 165.687 100.046 165.987 100.023H168.381C168.597 100.006 168.804 100.112 168.917 100.296C169.031 100.481 169.031 100.713 168.917 100.898C168.804 101.083 168.597 101.188 168.381 101.171H165.987ZM159.598 101.171C159.298 101.148 159.066 100.898 159.066 100.597C159.066 100.296 159.298 100.046 159.598 100.023H161.992C162.208 100.006 162.415 100.112 162.528 100.296C162.641 100.481 162.641 100.713 162.528 100.898C162.415 101.083 162.208 101.188 161.992 101.171H159.598ZM153.209 101.171C152.909 101.148 152.677 100.898 152.677 100.597C152.677 100.296 152.909 100.046 153.209 100.023H155.603C155.819 100.006 156.026 100.112 156.139 100.296C156.252 100.481 156.252 100.713 156.139 100.898C156.026 101.083 155.819 101.188 155.603 101.171H153.209Z" fill="#F94F24"/>
<defs>
<linearGradient id="paint0_linear" x1="27.4913" y1="146.917" x2="97.5735" y2="146.917" gradientUnits="userSpaceOnUse">
<stop stop-color="#8033EB"/>
<stop offset="1" stop-color="#6731CE"/>
</linearGradient>
<linearGradient id="paint1_linear" x1="51.8155" y1="88.6997" x2="56.9171" y2="88.6997" gradientUnits="userSpaceOnUse">
<stop stop-color="#8033EB"/>
<stop offset="1" stop-color="#6731CE"/>
</linearGradient>
<linearGradient id="paint2_linear" x1="67.5573" y1="88.6997" x2="72.6556" y2="88.6997" gradientUnits="userSpaceOnUse">
<stop stop-color="#8033EB"/>
<stop offset="1" stop-color="#6731CE"/>
</linearGradient>
<linearGradient id="paint3_linear" x1="59.4853" y1="88.6869" x2="64.8194" y2="88.6869" gradientUnits="userSpaceOnUse">
<stop stop-color="#8033EB"/>
<stop offset="1" stop-color="#6731CE"/>
</linearGradient>
<linearGradient id="paint4_linear" x1="239.099" y1="154.214" x2="251.85" y2="87.1382" gradientUnits="userSpaceOnUse">
<stop stop-color="#8033EB"/>
<stop offset="1" stop-color="#F94F24"/>
</linearGradient>
<linearGradient id="paint5_linear" x1="153" y1="100.469" x2="225.12" y2="100.469" gradientUnits="userSpaceOnUse">
<stop stop-color="white"/>
<stop offset="1" stop-color="#F94F24"/>
</linearGradient>
</defs>
</svg>
