<svg width="250" height="148" viewBox="0 0 250 148" fill="none" xmlns="http://www.w3.org/2000/svg">
<path fill-rule="evenodd" clip-rule="evenodd" d="M41.4426 37.1449H67.0927C66.8864 24.2725 58.8865 12.8746 47.0034 8.52288C35.1203 4.17117 21.8362 7.77462 13.6448 17.5717C5.45335 27.3688 4.06557 41.3132 10.1598 52.5884C16.2541 63.8636 28.5575 70.1146 41.0557 68.2856L41.0669 38.5698C40.5072 38.2251 40.6312 37.1449 41.4426 37.1449Z" fill="#F6F4F8"/>
<path fill-rule="evenodd" clip-rule="evenodd" d="M9.1853 96.5566C4.1124 96.5566 0 92.4442 0 87.3713C0 82.2984 4.1124 78.186 9.1853 78.186C11.6214 78.186 13.9577 79.1538 15.6803 80.8763C17.4029 82.5989 18.3706 84.9352 18.3706 87.3713C18.3706 92.4442 14.2582 96.5566 9.1853 96.5566Z" fill="#F6F4F8"/>
<path fill-rule="evenodd" clip-rule="evenodd" d="M242.969 123.248C238.713 125.008 233.816 124.03 230.562 120.77C227.309 117.51 226.341 112.611 228.11 108.359C229.879 104.107 234.036 101.339 238.641 101.349C241.658 101.349 244.55 102.549 246.681 104.684C248.812 106.819 250.006 109.714 250 112.73C250 117.336 247.224 121.487 242.969 123.248Z" fill="#F6F4F8"/>
<ellipse cx="161.176" cy="6.53282" rx="5.432" ry="5.4235" transform="rotate(-76.72 161.176 6.53282)" fill="#F6F4F8"/>
<path fill-rule="evenodd" clip-rule="evenodd" d="M216.453 39.8528C216.472 37.9634 215.74 36.144 214.418 34.7948C213.096 33.4456 211.293 32.6772 209.405 32.6587H41.7891C37.8591 32.6999 34.7059 35.9201 34.7449 39.8528L34.7449 126.908H216.453V39.8528Z" fill="#B3B3B3"/>
<path fill-rule="evenodd" clip-rule="evenodd" d="M24.3615 138.961C24.3147 143.5 27.8828 147.22 32.3358 147.276H218.463C222.916 147.22 226.484 143.5 226.437 138.961V130.502H24.3615V138.961Z" fill="#B3B3B3"/>
<rect x="34.7445" y="42.2432" width="181.709" height="89.4569" fill="url(#paint0_linear)"/>
<path opacity="0.2" fill-rule="evenodd" clip-rule="evenodd" d="M34.7445 42.2432V124.112C62.0279 96.8037 89.3176 69.514 116.614 42.2432H34.7445Z" fill="white"/>
<g style="mix-blend-mode:multiply">
<rect x="34.7445" y="129.704" width="181.709" height="1.99681" fill="#E5E5E5"/>
</g>
<g style="mix-blend-mode:multiply">
<rect x="34.7445" y="41.8438" width="181.709" height="1.99681" fill="#E5E5E5"/>
</g>
<path fill-rule="evenodd" clip-rule="evenodd" d="M131.574 140.885H123.209C122.213 140.885 121.406 140.081 121.406 139.088V139.088C121.406 138.096 122.213 137.291 123.209 137.291H131.583C132.579 137.291 133.387 138.096 133.387 139.088H133.377C133.377 140.081 132.57 140.885 131.574 140.885Z" fill="#808080"/>
<path fill-rule="evenodd" clip-rule="evenodd" d="M76.9528 140.359C76.6165 140.696 76.1598 140.885 75.6836 140.885H75.6836C75.2062 140.887 74.7479 140.698 74.4098 140.361C74.0718 140.023 73.8818 139.566 73.8818 139.088C73.8818 138.611 74.0718 138.153 74.4098 137.816C74.7479 137.479 75.2062 137.29 75.6836 137.291H75.6836C76.1598 137.291 76.6164 137.48 76.9527 137.818C77.289 138.155 77.4773 138.612 77.4761 139.088C77.4773 139.564 77.289 140.021 76.9528 140.359Z" fill="#808080"/>
<path fill-rule="evenodd" clip-rule="evenodd" d="M86.8611 140.885H86.8611C85.8686 140.885 85.064 140.081 85.064 139.088V139.088C85.064 138.096 85.8686 137.291 86.8611 137.291H86.8611C87.8536 137.291 88.6582 138.096 88.6582 139.088C88.6582 140.081 87.8536 140.885 86.8611 140.885Z" fill="#808080"/>
<path d="M47.4675 60.5588C46.7562 60.5588 46.2025 60.2434 45.8065 59.6128C45.4105 58.9821 45.2125 58.0764 45.2125 56.8958C45.2125 55.7151 45.4105 54.8168 45.8065 54.2008C46.2025 53.5848 46.7562 53.2768 47.4675 53.2768C48.1715 53.2768 48.7215 53.5848 49.1175 54.2008C49.5135 54.8168 49.7115 55.7151 49.7115 56.8958C49.7115 58.0764 49.5135 58.9821 49.1175 59.6128C48.7215 60.2434 48.1715 60.5588 47.4675 60.5588ZM47.4675 59.8328C47.6728 59.8328 47.8562 59.7778 48.0175 59.6678C48.1862 59.5504 48.3292 59.3744 48.4465 59.1398C48.5712 58.8978 48.6665 58.5934 48.7325 58.2268C48.7985 57.8528 48.8315 57.4091 48.8315 56.8958C48.8315 56.3824 48.7985 55.9424 48.7325 55.5758C48.6665 55.2091 48.5712 54.9121 48.4465 54.6848C48.3292 54.4501 48.1862 54.2778 48.0175 54.1678C47.8562 54.0578 47.6728 54.0028 47.4675 54.0028C47.2622 54.0028 47.0752 54.0578 46.9065 54.1678C46.7378 54.2778 46.5912 54.4501 46.4665 54.6848C46.3492 54.9121 46.2575 55.2091 46.1915 55.5758C46.1255 55.9424 46.0925 56.3824 46.0925 56.8958C46.0925 57.9224 46.2172 58.6704 46.4665 59.1398C46.7232 59.6018 47.0568 59.8328 47.4675 59.8328ZM52.532 60.4268V59.6788H54.138V54.5088H52.862V53.9258C53.1846 53.8671 53.4633 53.7974 53.698 53.7168C53.94 53.6288 54.1563 53.5261 54.347 53.4088H55.04V59.6788H56.492V60.4268H52.532ZM61.3364 60.5588C60.6251 60.5588 60.0714 60.2434 59.6754 59.6128C59.2794 58.9821 59.0814 58.0764 59.0814 56.8958C59.0814 55.7151 59.2794 54.8168 59.6754 54.2008C60.0714 53.5848 60.6251 53.2768 61.3364 53.2768C62.0404 53.2768 62.5904 53.5848 62.9864 54.2008C63.3824 54.8168 63.5804 55.7151 63.5804 56.8958C63.5804 58.0764 63.3824 58.9821 62.9864 59.6128C62.5904 60.2434 62.0404 60.5588 61.3364 60.5588ZM61.3364 59.8328C61.5417 59.8328 61.7251 59.7778 61.8864 59.6678C62.0551 59.5504 62.1981 59.3744 62.3154 59.1398C62.4401 58.8978 62.5354 58.5934 62.6014 58.2268C62.6674 57.8528 62.7004 57.4091 62.7004 56.8958C62.7004 56.3824 62.6674 55.9424 62.6014 55.5758C62.5354 55.2091 62.4401 54.9121 62.3154 54.6848C62.1981 54.4501 62.0551 54.2778 61.8864 54.1678C61.7251 54.0578 61.5417 54.0028 61.3364 54.0028C61.1311 54.0028 60.9441 54.0578 60.7754 54.1678C60.6067 54.2778 60.4601 54.4501 60.3354 54.6848C60.2181 54.9121 60.1264 55.2091 60.0604 55.5758C59.9944 55.9424 59.9614 56.3824 59.9614 56.8958C59.9614 57.9224 60.0861 58.6704 60.3354 59.1398C60.5921 59.6018 60.9257 59.8328 61.3364 59.8328ZM66.4008 60.4268V59.6788H68.0068V54.5088H66.7308V53.9258C67.0535 53.8671 67.3322 53.7974 67.5668 53.7168C67.8088 53.6288 68.0252 53.5261 68.2158 53.4088H68.9088V59.6788H70.3608V60.4268H66.4008ZM75.2053 60.5588C74.4939 60.5588 73.9403 60.2434 73.5443 59.6128C73.1483 58.9821 72.9503 58.0764 72.9503 56.8958C72.9503 55.7151 73.1483 54.8168 73.5443 54.2008C73.9403 53.5848 74.4939 53.2768 75.2053 53.2768C75.9093 53.2768 76.4593 53.5848 76.8553 54.2008C77.2513 54.8168 77.4493 55.7151 77.4493 56.8958C77.4493 58.0764 77.2513 58.9821 76.8553 59.6128C76.4593 60.2434 75.9093 60.5588 75.2053 60.5588ZM75.2053 59.8328C75.4106 59.8328 75.5939 59.7778 75.7553 59.6678C75.9239 59.5504 76.0669 59.3744 76.1843 59.1398C76.3089 58.8978 76.4043 58.5934 76.4703 58.2268C76.5363 57.8528 76.5693 57.4091 76.5693 56.8958C76.5693 56.3824 76.5363 55.9424 76.4703 55.5758C76.4043 55.2091 76.3089 54.9121 76.1843 54.6848C76.0669 54.4501 75.9239 54.2778 75.7553 54.1678C75.5939 54.0578 75.4106 54.0028 75.2053 54.0028C74.9999 54.0028 74.8129 54.0578 74.6443 54.1678C74.4756 54.2778 74.3289 54.4501 74.2043 54.6848C74.0869 54.9121 73.9953 55.2091 73.9293 55.5758C73.8633 55.9424 73.8303 56.3824 73.8303 56.8958C73.8303 57.9224 73.9549 58.6704 74.2043 59.1398C74.4609 59.6018 74.7946 59.8328 75.2053 59.8328ZM80.2697 60.4268V59.6788H81.8757V54.5088H80.5997V53.9258C80.9224 53.8671 81.201 53.7974 81.4357 53.7168C81.6777 53.6288 81.894 53.5261 82.0847 53.4088H82.7777V59.6788H84.2297V60.4268H80.2697ZM87.2042 60.4268V59.6788H88.8102V54.5088H87.5342V53.9258C87.8568 53.8671 88.1355 53.7974 88.3702 53.7168C88.6122 53.6288 88.8285 53.5261 89.0192 53.4088H89.7122V59.6788H91.1642V60.4268H87.2042ZM94.1386 60.4268V59.6788H95.7446V54.5088H94.4686V53.9258C94.7913 53.8671 95.0699 53.7974 95.3046 53.7168C95.5466 53.6288 95.7629 53.5261 95.9536 53.4088H96.6466V59.6788H98.0986V60.4268H94.1386ZM102.943 60.5588C102.232 60.5588 101.678 60.2434 101.282 59.6128C100.886 58.9821 100.688 58.0764 100.688 56.8958C100.688 55.7151 100.886 54.8168 101.282 54.2008C101.678 53.5848 102.232 53.2768 102.943 53.2768C103.647 53.2768 104.197 53.5848 104.593 54.2008C104.989 54.8168 105.187 55.7151 105.187 56.8958C105.187 58.0764 104.989 58.9821 104.593 59.6128C104.197 60.2434 103.647 60.5588 102.943 60.5588ZM102.943 59.8328C103.148 59.8328 103.332 59.7778 103.493 59.6678C103.662 59.5504 103.805 59.3744 103.922 59.1398C104.047 58.8978 104.142 58.5934 104.208 58.2268C104.274 57.8528 104.307 57.4091 104.307 56.8958C104.307 56.3824 104.274 55.9424 104.208 55.5758C104.142 55.2091 104.047 54.9121 103.922 54.6848C103.805 54.4501 103.662 54.2778 103.493 54.1678C103.332 54.0578 103.148 54.0028 102.943 54.0028C102.738 54.0028 102.551 54.0578 102.382 54.1678C102.213 54.2778 102.067 54.4501 101.942 54.6848C101.825 54.9121 101.733 55.2091 101.667 55.5758C101.601 55.9424 101.568 56.3824 101.568 56.8958C101.568 57.9224 101.693 58.6704 101.942 59.1398C102.199 59.6018 102.532 59.8328 102.943 59.8328ZM108.007 60.4268V59.6788H109.613V54.5088H108.337V53.9258C108.66 53.8671 108.939 53.7974 109.173 53.7168C109.415 53.6288 109.632 53.5261 109.822 53.4088H110.515V59.6788H111.967V60.4268H108.007ZM114.942 60.4268V59.6788H116.548V54.5088H115.272V53.9258C115.595 53.8671 115.873 53.7974 116.108 53.7168C116.35 53.6288 116.566 53.5261 116.757 53.4088H117.45V59.6788H118.902V60.4268H114.942ZM123.746 60.5588C123.035 60.5588 122.481 60.2434 122.085 59.6128C121.689 58.9821 121.491 58.0764 121.491 56.8958C121.491 55.7151 121.689 54.8168 122.085 54.2008C122.481 53.5848 123.035 53.2768 123.746 53.2768C124.45 53.2768 125 53.5848 125.396 54.2008C125.792 54.8168 125.99 55.7151 125.99 56.8958C125.99 58.0764 125.792 58.9821 125.396 59.6128C125 60.2434 124.45 60.5588 123.746 60.5588ZM123.746 59.8328C123.952 59.8328 124.135 59.7778 124.296 59.6678C124.465 59.5504 124.608 59.3744 124.725 59.1398C124.85 58.8978 124.945 58.5934 125.011 58.2268C125.077 57.8528 125.11 57.4091 125.11 56.8958C125.11 56.3824 125.077 55.9424 125.011 55.5758C124.945 55.2091 124.85 54.9121 124.725 54.6848C124.608 54.4501 124.465 54.2778 124.296 54.1678C124.135 54.0578 123.952 54.0028 123.746 54.0028C123.541 54.0028 123.354 54.0578 123.185 54.1678C123.017 54.2778 122.87 54.4501 122.745 54.6848C122.628 54.9121 122.536 55.2091 122.47 55.5758C122.404 55.9424 122.371 56.3824 122.371 56.8958C122.371 57.9224 122.496 58.6704 122.745 59.1398C123.002 59.6018 123.336 59.8328 123.746 59.8328ZM130.681 60.5588C129.969 60.5588 129.416 60.2434 129.02 59.6128C128.624 58.9821 128.426 58.0764 128.426 56.8958C128.426 55.7151 128.624 54.8168 129.02 54.2008C129.416 53.5848 129.969 53.2768 130.681 53.2768C131.385 53.2768 131.935 53.5848 132.331 54.2008C132.727 54.8168 132.925 55.7151 132.925 56.8958C132.925 58.0764 132.727 58.9821 132.331 59.6128C131.935 60.2434 131.385 60.5588 130.681 60.5588ZM130.681 59.8328C130.886 59.8328 131.069 59.7778 131.231 59.6678C131.399 59.5504 131.542 59.3744 131.66 59.1398C131.784 58.8978 131.88 58.5934 131.946 58.2268C132.012 57.8528 132.045 57.4091 132.045 56.8958C132.045 56.3824 132.012 55.9424 131.946 55.5758C131.88 55.2091 131.784 54.9121 131.66 54.6848C131.542 54.4501 131.399 54.2778 131.231 54.1678C131.069 54.0578 130.886 54.0028 130.681 54.0028C130.475 54.0028 130.288 54.0578 130.12 54.1678C129.951 54.2778 129.804 54.4501 129.68 54.6848C129.562 54.9121 129.471 55.2091 129.405 55.5758C129.339 55.9424 129.306 56.3824 129.306 56.8958C129.306 57.9224 129.43 58.6704 129.68 59.1398C129.936 59.6018 130.27 59.8328 130.681 59.8328ZM135.745 60.4268V59.6788H137.351V54.5088H136.075V53.9258C136.398 53.8671 136.677 53.7974 136.911 53.7168C137.153 53.6288 137.37 53.5261 137.56 53.4088H138.253V59.6788H139.705V60.4268H135.745ZM144.55 60.5588C143.838 60.5588 143.285 60.2434 142.889 59.6128C142.493 58.9821 142.295 58.0764 142.295 56.8958C142.295 55.7151 142.493 54.8168 142.889 54.2008C143.285 53.5848 143.838 53.2768 144.55 53.2768C145.254 53.2768 145.804 53.5848 146.2 54.2008C146.596 54.8168 146.794 55.7151 146.794 56.8958C146.794 58.0764 146.596 58.9821 146.2 59.6128C145.804 60.2434 145.254 60.5588 144.55 60.5588ZM144.55 59.8328C144.755 59.8328 144.938 59.7778 145.1 59.6678C145.268 59.5504 145.411 59.3744 145.529 59.1398C145.653 58.8978 145.749 58.5934 145.815 58.2268C145.881 57.8528 145.914 57.4091 145.914 56.8958C145.914 56.3824 145.881 55.9424 145.815 55.5758C145.749 55.2091 145.653 54.9121 145.529 54.6848C145.411 54.4501 145.268 54.2778 145.1 54.1678C144.938 54.0578 144.755 54.0028 144.55 54.0028C144.344 54.0028 144.157 54.0578 143.989 54.1678C143.82 54.2778 143.673 54.4501 143.549 54.6848C143.431 54.9121 143.34 55.2091 143.274 55.5758C143.208 55.9424 143.175 56.3824 143.175 56.8958C143.175 57.9224 143.299 58.6704 143.549 59.1398C143.805 59.6018 144.139 59.8328 144.55 59.8328ZM149.614 60.4268V59.6788H151.22V54.5088H149.944V53.9258C150.267 53.8671 150.545 53.7974 150.78 53.7168C151.022 53.6288 151.238 53.5261 151.429 53.4088H152.122V59.6788H153.574V60.4268H149.614ZM158.419 60.5588C157.707 60.5588 157.154 60.2434 156.758 59.6128C156.362 58.9821 156.164 58.0764 156.164 56.8958C156.164 55.7151 156.362 54.8168 156.758 54.2008C157.154 53.5848 157.707 53.2768 158.419 53.2768C159.123 53.2768 159.673 53.5848 160.069 54.2008C160.465 54.8168 160.663 55.7151 160.663 56.8958C160.663 58.0764 160.465 58.9821 160.069 59.6128C159.673 60.2434 159.123 60.5588 158.419 60.5588ZM158.419 59.8328C158.624 59.8328 158.807 59.7778 158.969 59.6678C159.137 59.5504 159.28 59.3744 159.398 59.1398C159.522 58.8978 159.618 58.5934 159.684 58.2268C159.75 57.8528 159.783 57.4091 159.783 56.8958C159.783 56.3824 159.75 55.9424 159.684 55.5758C159.618 55.2091 159.522 54.9121 159.398 54.6848C159.28 54.4501 159.137 54.2778 158.969 54.1678C158.807 54.0578 158.624 54.0028 158.419 54.0028C158.213 54.0028 158.026 54.0578 157.858 54.1678C157.689 54.2778 157.542 54.4501 157.418 54.6848C157.3 54.9121 157.209 55.2091 157.143 55.5758C157.077 55.9424 157.044 56.3824 157.044 56.8958C157.044 57.9224 157.168 58.6704 157.418 59.1398C157.674 59.6018 158.008 59.8328 158.419 59.8328ZM163.483 60.4268V59.6788H165.089V54.5088H163.813V53.9258C164.136 53.8671 164.414 53.7974 164.649 53.7168C164.891 53.6288 165.107 53.5261 165.298 53.4088H165.991V59.6788H167.443V60.4268H163.483ZM170.417 60.4268V59.6788H172.023V54.5088H170.747V53.9258C171.07 53.8671 171.349 53.7974 171.583 53.7168C171.825 53.6288 172.042 53.5261 172.232 53.4088H172.925V59.6788H174.377V60.4268H170.417ZM179.222 60.5588C178.511 60.5588 177.957 60.2434 177.561 59.6128C177.165 58.9821 176.967 58.0764 176.967 56.8958C176.967 55.7151 177.165 54.8168 177.561 54.2008C177.957 53.5848 178.511 53.2768 179.222 53.2768C179.926 53.2768 180.476 53.5848 180.872 54.2008C181.268 54.8168 181.466 55.7151 181.466 56.8958C181.466 58.0764 181.268 58.9821 180.872 59.6128C180.476 60.2434 179.926 60.5588 179.222 60.5588ZM179.222 59.8328C179.427 59.8328 179.611 59.7778 179.772 59.6678C179.941 59.5504 180.084 59.3744 180.201 59.1398C180.326 58.8978 180.421 58.5934 180.487 58.2268C180.553 57.8528 180.586 57.4091 180.586 56.8958C180.586 56.3824 180.553 55.9424 180.487 55.5758C180.421 55.2091 180.326 54.9121 180.201 54.6848C180.084 54.4501 179.941 54.2778 179.772 54.1678C179.611 54.0578 179.427 54.0028 179.222 54.0028C179.017 54.0028 178.83 54.0578 178.661 54.1678C178.492 54.2778 178.346 54.4501 178.221 54.6848C178.104 54.9121 178.012 55.2091 177.946 55.5758C177.88 55.9424 177.847 56.3824 177.847 56.8958C177.847 57.9224 177.972 58.6704 178.221 59.1398C178.478 59.6018 178.811 59.8328 179.222 59.8328ZM186.156 60.5588C185.445 60.5588 184.891 60.2434 184.495 59.6128C184.099 58.9821 183.901 58.0764 183.901 56.8958C183.901 55.7151 184.099 54.8168 184.495 54.2008C184.891 53.5848 185.445 53.2768 186.156 53.2768C186.86 53.2768 187.41 53.5848 187.806 54.2008C188.202 54.8168 188.4 55.7151 188.4 56.8958C188.4 58.0764 188.202 58.9821 187.806 59.6128C187.41 60.2434 186.86 60.5588 186.156 60.5588ZM186.156 59.8328C186.362 59.8328 186.545 59.7778 186.706 59.6678C186.875 59.5504 187.018 59.3744 187.135 59.1398C187.26 58.8978 187.355 58.5934 187.421 58.2268C187.487 57.8528 187.52 57.4091 187.52 56.8958C187.52 56.3824 187.487 55.9424 187.421 55.5758C187.355 55.2091 187.26 54.9121 187.135 54.6848C187.018 54.4501 186.875 54.2778 186.706 54.1678C186.545 54.0578 186.362 54.0028 186.156 54.0028C185.951 54.0028 185.764 54.0578 185.595 54.1678C185.427 54.2778 185.28 54.4501 185.155 54.6848C185.038 54.9121 184.946 55.2091 184.88 55.5758C184.814 55.9424 184.781 56.3824 184.781 56.8958C184.781 57.9224 184.906 58.6704 185.155 59.1398C185.412 59.6018 185.746 59.8328 186.156 59.8328ZM193.091 60.5588C192.379 60.5588 191.826 60.2434 191.43 59.6128C191.034 58.9821 190.836 58.0764 190.836 56.8958C190.836 55.7151 191.034 54.8168 191.43 54.2008C191.826 53.5848 192.379 53.2768 193.091 53.2768C193.795 53.2768 194.345 53.5848 194.741 54.2008C195.137 54.8168 195.335 55.7151 195.335 56.8958C195.335 58.0764 195.137 58.9821 194.741 59.6128C194.345 60.2434 193.795 60.5588 193.091 60.5588ZM193.091 59.8328C193.296 59.8328 193.479 59.7778 193.641 59.6678C193.809 59.5504 193.952 59.3744 194.07 59.1398C194.194 58.8978 194.29 58.5934 194.356 58.2268C194.422 57.8528 194.455 57.4091 194.455 56.8958C194.455 56.3824 194.422 55.9424 194.356 55.5758C194.29 55.2091 194.194 54.9121 194.07 54.6848C193.952 54.4501 193.809 54.2778 193.641 54.1678C193.479 54.0578 193.296 54.0028 193.091 54.0028C192.885 54.0028 192.698 54.0578 192.53 54.1678C192.361 54.2778 192.214 54.4501 192.09 54.6848C191.972 54.9121 191.881 55.2091 191.815 55.5758C191.749 55.9424 191.716 56.3824 191.716 56.8958C191.716 57.9224 191.84 58.6704 192.09 59.1398C192.346 59.6018 192.68 59.8328 193.091 59.8328ZM198.155 60.4268V59.6788H199.761V54.5088H198.485V53.9258C198.808 53.8671 199.087 53.7974 199.321 53.7168C199.563 53.6288 199.78 53.5261 199.97 53.4088H200.663V59.6788H202.115V60.4268H198.155ZM47.4675 74.5588C46.7562 74.5588 46.2025 74.2434 45.8065 73.6128C45.4105 72.9821 45.2125 72.0764 45.2125 70.8958C45.2125 69.7151 45.4105 68.8168 45.8065 68.2008C46.2025 67.5848 46.7562 67.2768 47.4675 67.2768C48.1715 67.2768 48.7215 67.5848 49.1175 68.2008C49.5135 68.8168 49.7115 69.7151 49.7115 70.8958C49.7115 72.0764 49.5135 72.9821 49.1175 73.6128C48.7215 74.2434 48.1715 74.5588 47.4675 74.5588ZM47.4675 73.8328C47.6728 73.8328 47.8562 73.7778 48.0175 73.6678C48.1862 73.5504 48.3292 73.3744 48.4465 73.1398C48.5712 72.8978 48.6665 72.5934 48.7325 72.2268C48.7985 71.8528 48.8315 71.4091 48.8315 70.8958C48.8315 70.3824 48.7985 69.9424 48.7325 69.5758C48.6665 69.2091 48.5712 68.9121 48.4465 68.6848C48.3292 68.4501 48.1862 68.2778 48.0175 68.1678C47.8562 68.0578 47.6728 68.0028 47.4675 68.0028C47.2622 68.0028 47.0752 68.0578 46.9065 68.1678C46.7378 68.2778 46.5912 68.4501 46.4665 68.6848C46.3492 68.9121 46.2575 69.2091 46.1915 69.5758C46.1255 69.9424 46.0925 70.3824 46.0925 70.8958C46.0925 71.9224 46.2172 72.6704 46.4665 73.1398C46.7232 73.6018 47.0568 73.8328 47.4675 73.8328ZM54.402 74.5588C53.6906 74.5588 53.137 74.2434 52.741 73.6128C52.345 72.9821 52.147 72.0764 52.147 70.8958C52.147 69.7151 52.345 68.8168 52.741 68.2008C53.137 67.5848 53.6906 67.2768 54.402 67.2768C55.106 67.2768 55.656 67.5848 56.052 68.2008C56.448 68.8168 56.646 69.7151 56.646 70.8958C56.646 72.0764 56.448 72.9821 56.052 73.6128C55.656 74.2434 55.106 74.5588 54.402 74.5588ZM54.402 73.8328C54.6073 73.8328 54.7906 73.7778 54.952 73.6678C55.1206 73.5504 55.2636 73.3744 55.381 73.1398C55.5056 72.8978 55.601 72.5934 55.667 72.2268C55.733 71.8528 55.766 71.4091 55.766 70.8958C55.766 70.3824 55.733 69.9424 55.667 69.5758C55.601 69.2091 55.5056 68.9121 55.381 68.6848C55.2636 68.4501 55.1206 68.2778 54.952 68.1678C54.7906 68.0578 54.6073 68.0028 54.402 68.0028C54.1966 68.0028 54.0096 68.0578 53.841 68.1678C53.6723 68.2778 53.5256 68.4501 53.401 68.6848C53.2836 68.9121 53.192 69.2091 53.126 69.5758C53.06 69.9424 53.027 70.3824 53.027 70.8958C53.027 71.9224 53.1516 72.6704 53.401 73.1398C53.6576 73.6018 53.9913 73.8328 54.402 73.8328ZM59.4664 74.4268V73.6788H61.0724V68.5088H59.7964V67.9258C60.1191 67.8671 60.3977 67.7974 60.6324 67.7168C60.8744 67.6288 61.0907 67.5261 61.2814 67.4088H61.9744V73.6788H63.4264V74.4268H59.4664ZM66.4008 74.4268V73.6788H68.0068V68.5088H66.7308V67.9258C67.0535 67.8671 67.3322 67.7974 67.5668 67.7168C67.8088 67.6288 68.0252 67.5261 68.2158 67.4088H68.9088V73.6788H70.3608V74.4268H66.4008ZM75.2053 74.5588C74.4939 74.5588 73.9403 74.2434 73.5443 73.6128C73.1483 72.9821 72.9503 72.0764 72.9503 70.8958C72.9503 69.7151 73.1483 68.8168 73.5443 68.2008C73.9403 67.5848 74.4939 67.2768 75.2053 67.2768C75.9093 67.2768 76.4593 67.5848 76.8553 68.2008C77.2513 68.8168 77.4493 69.7151 77.4493 70.8958C77.4493 72.0764 77.2513 72.9821 76.8553 73.6128C76.4593 74.2434 75.9093 74.5588 75.2053 74.5588ZM75.2053 73.8328C75.4106 73.8328 75.5939 73.7778 75.7553 73.6678C75.9239 73.5504 76.0669 73.3744 76.1843 73.1398C76.3089 72.8978 76.4043 72.5934 76.4703 72.2268C76.5363 71.8528 76.5693 71.4091 76.5693 70.8958C76.5693 70.3824 76.5363 69.9424 76.4703 69.5758C76.4043 69.2091 76.3089 68.9121 76.1843 68.6848C76.0669 68.4501 75.9239 68.2778 75.7553 68.1678C75.5939 68.0578 75.4106 68.0028 75.2053 68.0028C74.9999 68.0028 74.8129 68.0578 74.6443 68.1678C74.4756 68.2778 74.3289 68.4501 74.2043 68.6848C74.0869 68.9121 73.9953 69.2091 73.9293 69.5758C73.8633 69.9424 73.8303 70.3824 73.8303 70.8958C73.8303 71.9224 73.9549 72.6704 74.2043 73.1398C74.4609 73.6018 74.7946 73.8328 75.2053 73.8328ZM82.1397 74.5588C81.4284 74.5588 80.8747 74.2434 80.4787 73.6128C80.0827 72.9821 79.8847 72.0764 79.8847 70.8958C79.8847 69.7151 80.0827 68.8168 80.4787 68.2008C80.8747 67.5848 81.4284 67.2768 82.1397 67.2768C82.8437 67.2768 83.3937 67.5848 83.7897 68.2008C84.1857 68.8168 84.3837 69.7151 84.3837 70.8958C84.3837 72.0764 84.1857 72.9821 83.7897 73.6128C83.3937 74.2434 82.8437 74.5588 82.1397 74.5588ZM82.1397 73.8328C82.345 73.8328 82.5284 73.7778 82.6897 73.6678C82.8584 73.5504 83.0014 73.3744 83.1187 73.1398C83.2434 72.8978 83.3387 72.5934 83.4047 72.2268C83.4707 71.8528 83.5037 71.4091 83.5037 70.8958C83.5037 70.3824 83.4707 69.9424 83.4047 69.5758C83.3387 69.2091 83.2434 68.9121 83.1187 68.6848C83.0014 68.4501 82.8584 68.2778 82.6897 68.1678C82.5284 68.0578 82.345 68.0028 82.1397 68.0028C81.9344 68.0028 81.7474 68.0578 81.5787 68.1678C81.41 68.2778 81.2634 68.4501 81.1387 68.6848C81.0214 68.9121 80.9297 69.2091 80.8637 69.5758C80.7977 69.9424 80.7647 70.3824 80.7647 70.8958C80.7647 71.9224 80.8894 72.6704 81.1387 73.1398C81.3954 73.6018 81.729 73.8328 82.1397 73.8328ZM87.2042 74.4268V73.6788H88.8102V68.5088H87.5342V67.9258C87.8568 67.8671 88.1355 67.7974 88.3702 67.7168C88.6122 67.6288 88.8285 67.5261 89.0192 67.4088H89.7122V73.6788H91.1642V74.4268H87.2042ZM96.0086 74.5588C95.2973 74.5588 94.7436 74.2434 94.3476 73.6128C93.9516 72.9821 93.7536 72.0764 93.7536 70.8958C93.7536 69.7151 93.9516 68.8168 94.3476 68.2008C94.7436 67.5848 95.2973 67.2768 96.0086 67.2768C96.7126 67.2768 97.2626 67.5848 97.6586 68.2008C98.0546 68.8168 98.2526 69.7151 98.2526 70.8958C98.2526 72.0764 98.0546 72.9821 97.6586 73.6128C97.2626 74.2434 96.7126 74.5588 96.0086 74.5588ZM96.0086 73.8328C96.2139 73.8328 96.3973 73.7778 96.5586 73.6678C96.7273 73.5504 96.8703 73.3744 96.9876 73.1398C97.1123 72.8978 97.2076 72.5934 97.2736 72.2268C97.3396 71.8528 97.3726 71.4091 97.3726 70.8958C97.3726 70.3824 97.3396 69.9424 97.2736 69.5758C97.2076 69.2091 97.1123 68.9121 96.9876 68.6848C96.8703 68.4501 96.7273 68.2778 96.5586 68.1678C96.3973 68.0578 96.2139 68.0028 96.0086 68.0028C95.8033 68.0028 95.6163 68.0578 95.4476 68.1678C95.2789 68.2778 95.1323 68.4501 95.0076 68.6848C94.8903 68.9121 94.7986 69.2091 94.7326 69.5758C94.6666 69.9424 94.6336 70.3824 94.6336 70.8958C94.6336 71.9224 94.7583 72.6704 95.0076 73.1398C95.2643 73.6018 95.5979 73.8328 96.0086 73.8328ZM101.073 74.4268V73.6788H102.679V68.5088H101.403V67.9258C101.726 67.8671 102.004 67.7974 102.239 67.7168C102.481 67.6288 102.697 67.5261 102.888 67.4088H103.581V73.6788H105.033V74.4268H101.073ZM109.877 74.5588C109.166 74.5588 108.612 74.2434 108.216 73.6128C107.82 72.9821 107.622 72.0764 107.622 70.8958C107.622 69.7151 107.82 68.8168 108.216 68.2008C108.612 67.5848 109.166 67.2768 109.877 67.2768C110.581 67.2768 111.131 67.5848 111.527 68.2008C111.923 68.8168 112.121 69.7151 112.121 70.8958C112.121 72.0764 111.923 72.9821 111.527 73.6128C111.131 74.2434 110.581 74.5588 109.877 74.5588ZM109.877 73.8328C110.083 73.8328 110.266 73.7778 110.427 73.6678C110.596 73.5504 110.739 73.3744 110.856 73.1398C110.981 72.8978 111.076 72.5934 111.142 72.2268C111.208 71.8528 111.241 71.4091 111.241 70.8958C111.241 70.3824 111.208 69.9424 111.142 69.5758C111.076 69.2091 110.981 68.9121 110.856 68.6848C110.739 68.4501 110.596 68.2778 110.427 68.1678C110.266 68.0578 110.083 68.0028 109.877 68.0028C109.672 68.0028 109.485 68.0578 109.316 68.1678C109.148 68.2778 109.001 68.4501 108.876 68.6848C108.759 68.9121 108.667 69.2091 108.601 69.5758C108.535 69.9424 108.502 70.3824 108.502 70.8958C108.502 71.9224 108.627 72.6704 108.876 73.1398C109.133 73.6018 109.467 73.8328 109.877 73.8328ZM114.942 74.4268V73.6788H116.548V68.5088H115.272V67.9258C115.595 67.8671 115.873 67.7974 116.108 67.7168C116.35 67.6288 116.566 67.5261 116.757 67.4088H117.45V73.6788H118.902V74.4268H114.942ZM121.876 74.4268V73.6788H123.482V68.5088H122.206V67.9258C122.529 67.8671 122.808 67.7974 123.042 67.7168C123.284 67.6288 123.501 67.5261 123.691 67.4088H124.384V73.6788H125.836V74.4268H121.876ZM128.811 74.4268V73.6788H130.417V68.5088H129.141V67.9258C129.463 67.8671 129.742 67.7974 129.977 67.7168C130.219 67.6288 130.435 67.5261 130.626 67.4088H131.319V73.6788H132.771V74.4268H128.811ZM137.615 74.5588C136.904 74.5588 136.35 74.2434 135.954 73.6128C135.558 72.9821 135.36 72.0764 135.36 70.8958C135.36 69.7151 135.558 68.8168 135.954 68.2008C136.35 67.5848 136.904 67.2768 137.615 67.2768C138.319 67.2768 138.869 67.5848 139.265 68.2008C139.661 68.8168 139.859 69.7151 139.859 70.8958C139.859 72.0764 139.661 72.9821 139.265 73.6128C138.869 74.2434 138.319 74.5588 137.615 74.5588ZM137.615 73.8328C137.821 73.8328 138.004 73.7778 138.165 73.6678C138.334 73.5504 138.477 73.3744 138.594 73.1398C138.719 72.8978 138.814 72.5934 138.88 72.2268C138.946 71.8528 138.979 71.4091 138.979 70.8958C138.979 70.3824 138.946 69.9424 138.88 69.5758C138.814 69.2091 138.719 68.9121 138.594 68.6848C138.477 68.4501 138.334 68.2778 138.165 68.1678C138.004 68.0578 137.821 68.0028 137.615 68.0028C137.41 68.0028 137.223 68.0578 137.054 68.1678C136.886 68.2778 136.739 68.4501 136.614 68.6848C136.497 68.9121 136.405 69.2091 136.339 69.5758C136.273 69.9424 136.24 70.3824 136.24 70.8958C136.24 71.9224 136.365 72.6704 136.614 73.1398C136.871 73.6018 137.205 73.8328 137.615 73.8328ZM144.55 74.5588C143.838 74.5588 143.285 74.2434 142.889 73.6128C142.493 72.9821 142.295 72.0764 142.295 70.8958C142.295 69.7151 142.493 68.8168 142.889 68.2008C143.285 67.5848 143.838 67.2768 144.55 67.2768C145.254 67.2768 145.804 67.5848 146.2 68.2008C146.596 68.8168 146.794 69.7151 146.794 70.8958C146.794 72.0764 146.596 72.9821 146.2 73.6128C145.804 74.2434 145.254 74.5588 144.55 74.5588ZM144.55 73.8328C144.755 73.8328 144.938 73.7778 145.1 73.6678C145.268 73.5504 145.411 73.3744 145.529 73.1398C145.653 72.8978 145.749 72.5934 145.815 72.2268C145.881 71.8528 145.914 71.4091 145.914 70.8958C145.914 70.3824 145.881 69.9424 145.815 69.5758C145.749 69.2091 145.653 68.9121 145.529 68.6848C145.411 68.4501 145.268 68.2778 145.1 68.1678C144.938 68.0578 144.755 68.0028 144.55 68.0028C144.344 68.0028 144.157 68.0578 143.989 68.1678C143.82 68.2778 143.673 68.4501 143.549 68.6848C143.431 68.9121 143.34 69.2091 143.274 69.5758C143.208 69.9424 143.175 70.3824 143.175 70.8958C143.175 71.9224 143.299 72.6704 143.549 73.1398C143.805 73.6018 144.139 73.8328 144.55 73.8328ZM149.614 74.4268V73.6788H151.22V68.5088H149.944V67.9258C150.267 67.8671 150.545 67.7974 150.78 67.7168C151.022 67.6288 151.238 67.5261 151.429 67.4088H152.122V73.6788H153.574V74.4268H149.614ZM156.549 74.4268V73.6788H158.155V68.5088H156.879V67.9258C157.201 67.8671 157.48 67.7974 157.715 67.7168C157.957 67.6288 158.173 67.5261 158.364 67.4088H159.057V73.6788H160.509V74.4268H156.549ZM165.353 74.5588C164.642 74.5588 164.088 74.2434 163.692 73.6128C163.296 72.9821 163.098 72.0764 163.098 70.8958C163.098 69.7151 163.296 68.8168 163.692 68.2008C164.088 67.5848 164.642 67.2768 165.353 67.2768C166.057 67.2768 166.607 67.5848 167.003 68.2008C167.399 68.8168 167.597 69.7151 167.597 70.8958C167.597 72.0764 167.399 72.9821 167.003 73.6128C166.607 74.2434 166.057 74.5588 165.353 74.5588ZM165.353 73.8328C165.558 73.8328 165.742 73.7778 165.903 73.6678C166.072 73.5504 166.215 73.3744 166.332 73.1398C166.457 72.8978 166.552 72.5934 166.618 72.2268C166.684 71.8528 166.717 71.4091 166.717 70.8958C166.717 70.3824 166.684 69.9424 166.618 69.5758C166.552 69.2091 166.457 68.9121 166.332 68.6848C166.215 68.4501 166.072 68.2778 165.903 68.1678C165.742 68.0578 165.558 68.0028 165.353 68.0028C165.148 68.0028 164.961 68.0578 164.792 68.1678C164.623 68.2778 164.477 68.4501 164.352 68.6848C164.235 68.9121 164.143 69.2091 164.077 69.5758C164.011 69.9424 163.978 70.3824 163.978 70.8958C163.978 71.9224 164.103 72.6704 164.352 73.1398C164.609 73.6018 164.942 73.8328 165.353 73.8328ZM170.417 74.4268V73.6788H172.023V68.5088H170.747V67.9258C171.07 67.8671 171.349 67.7974 171.583 67.7168C171.825 67.6288 172.042 67.5261 172.232 67.4088H172.925V73.6788H174.377V74.4268H170.417ZM177.352 74.4268V73.6788H178.958V68.5088H177.682V67.9258C178.005 67.8671 178.283 67.7974 178.518 67.7168C178.76 67.6288 178.976 67.5261 179.167 67.4088H179.86V73.6788H181.312V74.4268H177.352ZM184.286 74.4268V73.6788H185.892V68.5088H184.616V67.9258C184.939 67.8671 185.218 67.7974 185.452 67.7168C185.694 67.6288 185.911 67.5261 186.101 67.4088H186.794V73.6788H188.246V74.4268H184.286ZM193.091 74.5588C192.379 74.5588 191.826 74.2434 191.43 73.6128C191.034 72.9821 190.836 72.0764 190.836 70.8958C190.836 69.7151 191.034 68.8168 191.43 68.2008C191.826 67.5848 192.379 67.2768 193.091 67.2768C193.795 67.2768 194.345 67.5848 194.741 68.2008C195.137 68.8168 195.335 69.7151 195.335 70.8958C195.335 72.0764 195.137 72.9821 194.741 73.6128C194.345 74.2434 193.795 74.5588 193.091 74.5588ZM193.091 73.8328C193.296 73.8328 193.479 73.7778 193.641 73.6678C193.809 73.5504 193.952 73.3744 194.07 73.1398C194.194 72.8978 194.29 72.5934 194.356 72.2268C194.422 71.8528 194.455 71.4091 194.455 70.8958C194.455 70.3824 194.422 69.9424 194.356 69.5758C194.29 69.2091 194.194 68.9121 194.07 68.6848C193.952 68.4501 193.809 68.2778 193.641 68.1678C193.479 68.0578 193.296 68.0028 193.091 68.0028C192.885 68.0028 192.698 68.0578 192.53 68.1678C192.361 68.2778 192.214 68.4501 192.09 68.6848C191.972 68.9121 191.881 69.2091 191.815 69.5758C191.749 69.9424 191.716 70.3824 191.716 70.8958C191.716 71.9224 191.84 72.6704 192.09 73.1398C192.346 73.6018 192.68 73.8328 193.091 73.8328ZM198.155 74.4268V73.6788H199.761V68.5088H198.485V67.9258C198.808 67.8671 199.087 67.7974 199.321 67.7168C199.563 67.6288 199.78 67.5261 199.97 67.4088H200.663V73.6788H202.115V74.4268H198.155ZM47.4675 88.5588C46.7562 88.5588 46.2025 88.2434 45.8065 87.6128C45.4105 86.9821 45.2125 86.0764 45.2125 84.8958C45.2125 83.7151 45.4105 82.8168 45.8065 82.2008C46.2025 81.5848 46.7562 81.2768 47.4675 81.2768C48.1715 81.2768 48.7215 81.5848 49.1175 82.2008C49.5135 82.8168 49.7115 83.7151 49.7115 84.8958C49.7115 86.0764 49.5135 86.9821 49.1175 87.6128C48.7215 88.2434 48.1715 88.5588 47.4675 88.5588ZM47.4675 87.8328C47.6728 87.8328 47.8562 87.7778 48.0175 87.6678C48.1862 87.5504 48.3292 87.3744 48.4465 87.1398C48.5712 86.8978 48.6665 86.5934 48.7325 86.2268C48.7985 85.8528 48.8315 85.4091 48.8315 84.8958C48.8315 84.3824 48.7985 83.9424 48.7325 83.5758C48.6665 83.2091 48.5712 82.9121 48.4465 82.6848C48.3292 82.4501 48.1862 82.2778 48.0175 82.1678C47.8562 82.0578 47.6728 82.0028 47.4675 82.0028C47.2622 82.0028 47.0752 82.0578 46.9065 82.1678C46.7378 82.2778 46.5912 82.4501 46.4665 82.6848C46.3492 82.9121 46.2575 83.2091 46.1915 83.5758C46.1255 83.9424 46.0925 84.3824 46.0925 84.8958C46.0925 85.9224 46.2172 86.6704 46.4665 87.1398C46.7232 87.6018 47.0568 87.8328 47.4675 87.8328ZM54.402 88.5588C53.6906 88.5588 53.137 88.2434 52.741 87.6128C52.345 86.9821 52.147 86.0764 52.147 84.8958C52.147 83.7151 52.345 82.8168 52.741 82.2008C53.137 81.5848 53.6906 81.2768 54.402 81.2768C55.106 81.2768 55.656 81.5848 56.052 82.2008C56.448 82.8168 56.646 83.7151 56.646 84.8958C56.646 86.0764 56.448 86.9821 56.052 87.6128C55.656 88.2434 55.106 88.5588 54.402 88.5588ZM54.402 87.8328C54.6073 87.8328 54.7906 87.7778 54.952 87.6678C55.1206 87.5504 55.2636 87.3744 55.381 87.1398C55.5056 86.8978 55.601 86.5934 55.667 86.2268C55.733 85.8528 55.766 85.4091 55.766 84.8958C55.766 84.3824 55.733 83.9424 55.667 83.5758C55.601 83.2091 55.5056 82.9121 55.381 82.6848C55.2636 82.4501 55.1206 82.2778 54.952 82.1678C54.7906 82.0578 54.6073 82.0028 54.402 82.0028C54.1966 82.0028 54.0096 82.0578 53.841 82.1678C53.6723 82.2778 53.5256 82.4501 53.401 82.6848C53.2836 82.9121 53.192 83.2091 53.126 83.5758C53.06 83.9424 53.027 84.3824 53.027 84.8958C53.027 85.9224 53.1516 86.6704 53.401 87.1398C53.6576 87.6018 53.9913 87.8328 54.402 87.8328ZM61.3364 88.5588C60.6251 88.5588 60.0714 88.2434 59.6754 87.6128C59.2794 86.9821 59.0814 86.0764 59.0814 84.8958C59.0814 83.7151 59.2794 82.8168 59.6754 82.2008C60.0714 81.5848 60.6251 81.2768 61.3364 81.2768C62.0404 81.2768 62.5904 81.5848 62.9864 82.2008C63.3824 82.8168 63.5804 83.7151 63.5804 84.8958C63.5804 86.0764 63.3824 86.9821 62.9864 87.6128C62.5904 88.2434 62.0404 88.5588 61.3364 88.5588ZM61.3364 87.8328C61.5417 87.8328 61.7251 87.7778 61.8864 87.6678C62.0551 87.5504 62.1981 87.3744 62.3154 87.1398C62.4401 86.8978 62.5354 86.5934 62.6014 86.2268C62.6674 85.8528 62.7004 85.4091 62.7004 84.8958C62.7004 84.3824 62.6674 83.9424 62.6014 83.5758C62.5354 83.2091 62.4401 82.9121 62.3154 82.6848C62.1981 82.4501 62.0551 82.2778 61.8864 82.1678C61.7251 82.0578 61.5417 82.0028 61.3364 82.0028C61.1311 82.0028 60.9441 82.0578 60.7754 82.1678C60.6067 82.2778 60.4601 82.4501 60.3354 82.6848C60.2181 82.9121 60.1264 83.2091 60.0604 83.5758C59.9944 83.9424 59.9614 84.3824 59.9614 84.8958C59.9614 85.9224 60.0861 86.6704 60.3354 87.1398C60.5921 87.6018 60.9257 87.8328 61.3364 87.8328ZM66.4008 88.4268V87.6788H68.0068V82.5088H66.7308V81.9258C67.0535 81.8671 67.3322 81.7974 67.5668 81.7168C67.8088 81.6288 68.0252 81.5261 68.2158 81.4088H68.9088V87.6788H70.3608V88.4268H66.4008ZM73.3353 88.4268V87.6788H74.9413V82.5088H73.6653V81.9258C73.9879 81.8671 74.2666 81.7974 74.5013 81.7168C74.7433 81.6288 74.9596 81.5261 75.1503 81.4088H75.8433V87.6788H77.2953V88.4268H73.3353ZM82.1397 88.5588C81.4284 88.5588 80.8747 88.2434 80.4787 87.6128C80.0827 86.9821 79.8847 86.0764 79.8847 84.8958C79.8847 83.7151 80.0827 82.8168 80.4787 82.2008C80.8747 81.5848 81.4284 81.2768 82.1397 81.2768C82.8437 81.2768 83.3937 81.5848 83.7897 82.2008C84.1857 82.8168 84.3837 83.7151 84.3837 84.8958C84.3837 86.0764 84.1857 86.9821 83.7897 87.6128C83.3937 88.2434 82.8437 88.5588 82.1397 88.5588ZM82.1397 87.8328C82.345 87.8328 82.5284 87.7778 82.6897 87.6678C82.8584 87.5504 83.0014 87.3744 83.1187 87.1398C83.2434 86.8978 83.3387 86.5934 83.4047 86.2268C83.4707 85.8528 83.5037 85.4091 83.5037 84.8958C83.5037 84.3824 83.4707 83.9424 83.4047 83.5758C83.3387 83.2091 83.2434 82.9121 83.1187 82.6848C83.0014 82.4501 82.8584 82.2778 82.6897 82.1678C82.5284 82.0578 82.345 82.0028 82.1397 82.0028C81.9344 82.0028 81.7474 82.0578 81.5787 82.1678C81.41 82.2778 81.2634 82.4501 81.1387 82.6848C81.0214 82.9121 80.9297 83.2091 80.8637 83.5758C80.7977 83.9424 80.7647 84.3824 80.7647 84.8958C80.7647 85.9224 80.8894 86.6704 81.1387 87.1398C81.3954 87.6018 81.729 87.8328 82.1397 87.8328ZM87.2042 88.4268V87.6788H88.8102V82.5088H87.5342V81.9258C87.8568 81.8671 88.1355 81.7974 88.3702 81.7168C88.6122 81.6288 88.8285 81.5261 89.0192 81.4088H89.7122V87.6788H91.1642V88.4268H87.2042ZM94.1386 88.4268V87.6788H95.7446V82.5088H94.4686V81.9258C94.7913 81.8671 95.0699 81.7974 95.3046 81.7168C95.5466 81.6288 95.7629 81.5261 95.9536 81.4088H96.6466V87.6788H98.0986V88.4268H94.1386ZM101.073 88.4268V87.6788H102.679V82.5088H101.403V81.9258C101.726 81.8671 102.004 81.7974 102.239 81.7168C102.481 81.6288 102.697 81.5261 102.888 81.4088H103.581V87.6788H105.033V88.4268H101.073ZM108.007 88.4268V87.6788H109.613V82.5088H108.337V81.9258C108.66 81.8671 108.939 81.7974 109.173 81.7168C109.415 81.6288 109.632 81.5261 109.822 81.4088H110.515V87.6788H111.967V88.4268H108.007ZM116.812 88.5588C116.101 88.5588 115.547 88.2434 115.151 87.6128C114.755 86.9821 114.557 86.0764 114.557 84.8958C114.557 83.7151 114.755 82.8168 115.151 82.2008C115.547 81.5848 116.101 81.2768 116.812 81.2768C117.516 81.2768 118.066 81.5848 118.462 82.2008C118.858 82.8168 119.056 83.7151 119.056 84.8958C119.056 86.0764 118.858 86.9821 118.462 87.6128C118.066 88.2434 117.516 88.5588 116.812 88.5588ZM116.812 87.8328C117.017 87.8328 117.201 87.7778 117.362 87.6678C117.531 87.5504 117.674 87.3744 117.791 87.1398C117.916 86.8978 118.011 86.5934 118.077 86.2268C118.143 85.8528 118.176 85.4091 118.176 84.8958C118.176 84.3824 118.143 83.9424 118.077 83.5758C118.011 83.2091 117.916 82.9121 117.791 82.6848C117.674 82.4501 117.531 82.2778 117.362 82.1678C117.201 82.0578 117.017 82.0028 116.812 82.0028C116.607 82.0028 116.42 82.0578 116.251 82.1678C116.082 82.2778 115.936 82.4501 115.811 82.6848C115.694 82.9121 115.602 83.2091 115.536 83.5758C115.47 83.9424 115.437 84.3824 115.437 84.8958C115.437 85.9224 115.562 86.6704 115.811 87.1398C116.068 87.6018 116.401 87.8328 116.812 87.8328ZM121.876 88.4268V87.6788H123.482V82.5088H122.206V81.9258C122.529 81.8671 122.808 81.7974 123.042 81.7168C123.284 81.6288 123.501 81.5261 123.691 81.4088H124.384V87.6788H125.836V88.4268H121.876ZM128.811 88.4268V87.6788H130.417V82.5088H129.141V81.9258C129.463 81.8671 129.742 81.7974 129.977 81.7168C130.219 81.6288 130.435 81.5261 130.626 81.4088H131.319V87.6788H132.771V88.4268H128.811ZM137.615 88.5588C136.904 88.5588 136.35 88.2434 135.954 87.6128C135.558 86.9821 135.36 86.0764 135.36 84.8958C135.36 83.7151 135.558 82.8168 135.954 82.2008C136.35 81.5848 136.904 81.2768 137.615 81.2768C138.319 81.2768 138.869 81.5848 139.265 82.2008C139.661 82.8168 139.859 83.7151 139.859 84.8958C139.859 86.0764 139.661 86.9821 139.265 87.6128C138.869 88.2434 138.319 88.5588 137.615 88.5588ZM137.615 87.8328C137.821 87.8328 138.004 87.7778 138.165 87.6678C138.334 87.5504 138.477 87.3744 138.594 87.1398C138.719 86.8978 138.814 86.5934 138.88 86.2268C138.946 85.8528 138.979 85.4091 138.979 84.8958C138.979 84.3824 138.946 83.9424 138.88 83.5758C138.814 83.2091 138.719 82.9121 138.594 82.6848C138.477 82.4501 138.334 82.2778 138.165 82.1678C138.004 82.0578 137.821 82.0028 137.615 82.0028C137.41 82.0028 137.223 82.0578 137.054 82.1678C136.886 82.2778 136.739 82.4501 136.614 82.6848C136.497 82.9121 136.405 83.2091 136.339 83.5758C136.273 83.9424 136.24 84.3824 136.24 84.8958C136.24 85.9224 136.365 86.6704 136.614 87.1398C136.871 87.6018 137.205 87.8328 137.615 87.8328ZM142.68 88.4268V87.6788H144.286V82.5088H143.01V81.9258C143.332 81.8671 143.611 81.7974 143.846 81.7168C144.088 81.6288 144.304 81.5261 144.495 81.4088H145.188V87.6788H146.64V88.4268H142.68ZM149.614 88.4268V87.6788H151.22V82.5088H149.944V81.9258C150.267 81.8671 150.545 81.7974 150.78 81.7168C151.022 81.6288 151.238 81.5261 151.429 81.4088H152.122V87.6788H153.574V88.4268H149.614ZM156.549 88.4268V87.6788H158.155V82.5088H156.879V81.9258C157.201 81.8671 157.48 81.7974 157.715 81.7168C157.957 81.6288 158.173 81.5261 158.364 81.4088H159.057V87.6788H160.509V88.4268H156.549ZM163.483 88.4268V87.6788H165.089V82.5088H163.813V81.9258C164.136 81.8671 164.414 81.7974 164.649 81.7168C164.891 81.6288 165.107 81.5261 165.298 81.4088H165.991V87.6788H167.443V88.4268H163.483ZM172.287 88.5588C171.576 88.5588 171.022 88.2434 170.626 87.6128C170.23 86.9821 170.032 86.0764 170.032 84.8958C170.032 83.7151 170.23 82.8168 170.626 82.2008C171.022 81.5848 171.576 81.2768 172.287 81.2768C172.991 81.2768 173.541 81.5848 173.937 82.2008C174.333 82.8168 174.531 83.7151 174.531 84.8958C174.531 86.0764 174.333 86.9821 173.937 87.6128C173.541 88.2434 172.991 88.5588 172.287 88.5588ZM172.287 87.8328C172.493 87.8328 172.676 87.7778 172.837 87.6678C173.006 87.5504 173.149 87.3744 173.266 87.1398C173.391 86.8978 173.486 86.5934 173.552 86.2268C173.618 85.8528 173.651 85.4091 173.651 84.8958C173.651 84.3824 173.618 83.9424 173.552 83.5758C173.486 83.2091 173.391 82.9121 173.266 82.6848C173.149 82.4501 173.006 82.2778 172.837 82.1678C172.676 82.0578 172.493 82.0028 172.287 82.0028C172.082 82.0028 171.895 82.0578 171.726 82.1678C171.558 82.2778 171.411 82.4501 171.286 82.6848C171.169 82.9121 171.077 83.2091 171.011 83.5758C170.945 83.9424 170.912 84.3824 170.912 84.8958C170.912 85.9224 171.037 86.6704 171.286 87.1398C171.543 87.6018 171.877 87.8328 172.287 87.8328ZM177.352 88.4268V87.6788H178.958V82.5088H177.682V81.9258C178.005 81.8671 178.283 81.7974 178.518 81.7168C178.76 81.6288 178.976 81.5261 179.167 81.4088H179.86V87.6788H181.312V88.4268H177.352ZM184.286 88.4268V87.6788H185.892V82.5088H184.616V81.9258C184.939 81.8671 185.218 81.7974 185.452 81.7168C185.694 81.6288 185.911 81.5261 186.101 81.4088H186.794V87.6788H188.246V88.4268H184.286ZM193.091 88.5588C192.379 88.5588 191.826 88.2434 191.43 87.6128C191.034 86.9821 190.836 86.0764 190.836 84.8958C190.836 83.7151 191.034 82.8168 191.43 82.2008C191.826 81.5848 192.379 81.2768 193.091 81.2768C193.795 81.2768 194.345 81.5848 194.741 82.2008C195.137 82.8168 195.335 83.7151 195.335 84.8958C195.335 86.0764 195.137 86.9821 194.741 87.6128C194.345 88.2434 193.795 88.5588 193.091 88.5588ZM193.091 87.8328C193.296 87.8328 193.479 87.7778 193.641 87.6678C193.809 87.5504 193.952 87.3744 194.07 87.1398C194.194 86.8978 194.29 86.5934 194.356 86.2268C194.422 85.8528 194.455 85.4091 194.455 84.8958C194.455 84.3824 194.422 83.9424 194.356 83.5758C194.29 83.2091 194.194 82.9121 194.07 82.6848C193.952 82.4501 193.809 82.2778 193.641 82.1678C193.479 82.0578 193.296 82.0028 193.091 82.0028C192.885 82.0028 192.698 82.0578 192.53 82.1678C192.361 82.2778 192.214 82.4501 192.09 82.6848C191.972 82.9121 191.881 83.2091 191.815 83.5758C191.749 83.9424 191.716 84.3824 191.716 84.8958C191.716 85.9224 191.84 86.6704 192.09 87.1398C192.346 87.6018 192.68 87.8328 193.091 87.8328ZM198.155 88.4268V87.6788H199.761V82.5088H198.485V81.9258C198.808 81.8671 199.087 81.7974 199.321 81.7168C199.563 81.6288 199.78 81.5261 199.97 81.4088H200.663V87.6788H202.115V88.4268H198.155ZM45.5975 102.427V101.679H47.2035V96.5088H45.9275V95.9258C46.2502 95.8671 46.5288 95.7974 46.7635 95.7168C47.0055 95.6288 47.2218 95.5261 47.4125 95.4088H48.1055V101.679H49.5575V102.427H45.5975ZM54.402 102.559C53.6906 102.559 53.137 102.243 52.741 101.613C52.345 100.982 52.147 100.076 52.147 98.8958C52.147 97.7151 52.345 96.8168 52.741 96.2008C53.137 95.5848 53.6906 95.2768 54.402 95.2768C55.106 95.2768 55.656 95.5848 56.052 96.2008C56.448 96.8168 56.646 97.7151 56.646 98.8958C56.646 100.076 56.448 100.982 56.052 101.613C55.656 102.243 55.106 102.559 54.402 102.559ZM54.402 101.833C54.6073 101.833 54.7906 101.778 54.952 101.668C55.1206 101.55 55.2636 101.374 55.381 101.14C55.5056 100.898 55.601 100.593 55.667 100.227C55.733 99.8528 55.766 99.4091 55.766 98.8958C55.766 98.3824 55.733 97.9424 55.667 97.5758C55.601 97.2091 55.5056 96.9121 55.381 96.6848C55.2636 96.4501 55.1206 96.2778 54.952 96.1678C54.7906 96.0578 54.6073 96.0028 54.402 96.0028C54.1966 96.0028 54.0096 96.0578 53.841 96.1678C53.6723 96.2778 53.5256 96.4501 53.401 96.6848C53.2836 96.9121 53.192 97.2091 53.126 97.5758C53.06 97.9424 53.027 98.3824 53.027 98.8958C53.027 99.9224 53.1516 100.67 53.401 101.14C53.6576 101.602 53.9913 101.833 54.402 101.833ZM61.3364 102.559C60.6251 102.559 60.0714 102.243 59.6754 101.613C59.2794 100.982 59.0814 100.076 59.0814 98.8958C59.0814 97.7151 59.2794 96.8168 59.6754 96.2008C60.0714 95.5848 60.6251 95.2768 61.3364 95.2768C62.0404 95.2768 62.5904 95.5848 62.9864 96.2008C63.3824 96.8168 63.5804 97.7151 63.5804 98.8958C63.5804 100.076 63.3824 100.982 62.9864 101.613C62.5904 102.243 62.0404 102.559 61.3364 102.559ZM61.3364 101.833C61.5417 101.833 61.7251 101.778 61.8864 101.668C62.0551 101.55 62.1981 101.374 62.3154 101.14C62.4401 100.898 62.5354 100.593 62.6014 100.227C62.6674 99.8528 62.7004 99.4091 62.7004 98.8958C62.7004 98.3824 62.6674 97.9424 62.6014 97.5758C62.5354 97.2091 62.4401 96.9121 62.3154 96.6848C62.1981 96.4501 62.0551 96.2778 61.8864 96.1678C61.7251 96.0578 61.5417 96.0028 61.3364 96.0028C61.1311 96.0028 60.9441 96.0578 60.7754 96.1678C60.6067 96.2778 60.4601 96.4501 60.3354 96.6848C60.2181 96.9121 60.1264 97.2091 60.0604 97.5758C59.9944 97.9424 59.9614 98.3824 59.9614 98.8958C59.9614 99.9224 60.0861 100.67 60.3354 101.14C60.5921 101.602 60.9257 101.833 61.3364 101.833ZM68.2708 102.559C67.5595 102.559 67.0058 102.243 66.6098 101.613C66.2138 100.982 66.0158 100.076 66.0158 98.8958C66.0158 97.7151 66.2138 96.8168 66.6098 96.2008C67.0058 95.5848 67.5595 95.2768 68.2708 95.2768C68.9748 95.2768 69.5248 95.5848 69.9208 96.2008C70.3168 96.8168 70.5148 97.7151 70.5148 98.8958C70.5148 100.076 70.3168 100.982 69.9208 101.613C69.5248 102.243 68.9748 102.559 68.2708 102.559ZM68.2708 101.833C68.4762 101.833 68.6595 101.778 68.8208 101.668C68.9895 101.55 69.1325 101.374 69.2498 101.14C69.3745 100.898 69.4698 100.593 69.5358 100.227C69.6018 99.8528 69.6348 99.4091 69.6348 98.8958C69.6348 98.3824 69.6018 97.9424 69.5358 97.5758C69.4698 97.2091 69.3745 96.9121 69.2498 96.6848C69.1325 96.4501 68.9895 96.2778 68.8208 96.1678C68.6595 96.0578 68.4762 96.0028 68.2708 96.0028C68.0655 96.0028 67.8785 96.0578 67.7098 96.1678C67.5412 96.2778 67.3945 96.4501 67.2698 96.6848C67.1525 96.9121 67.0608 97.2091 66.9948 97.5758C66.9288 97.9424 66.8958 98.3824 66.8958 98.8958C66.8958 99.9224 67.0205 100.67 67.2698 101.14C67.5265 101.602 67.8602 101.833 68.2708 101.833ZM73.3353 102.427V101.679H74.9413V96.5088H73.6653V95.9258C73.9879 95.8671 74.2666 95.7974 74.5013 95.7168C74.7433 95.6288 74.9596 95.5261 75.1503 95.4088H75.8433V101.679H77.2953V102.427H73.3353ZM80.2697 102.427V101.679H81.8757V96.5088H80.5997V95.9258C80.9224 95.8671 81.201 95.7974 81.4357 95.7168C81.6777 95.6288 81.894 95.5261 82.0847 95.4088H82.7777V101.679H84.2297V102.427H80.2697ZM87.2042 102.427V101.679H88.8102V96.5088H87.5342V95.9258C87.8568 95.8671 88.1355 95.7974 88.3702 95.7168C88.6122 95.6288 88.8285 95.5261 89.0192 95.4088H89.7122V101.679H91.1642V102.427H87.2042ZM96.0086 102.559C95.2973 102.559 94.7436 102.243 94.3476 101.613C93.9516 100.982 93.7536 100.076 93.7536 98.8958C93.7536 97.7151 93.9516 96.8168 94.3476 96.2008C94.7436 95.5848 95.2973 95.2768 96.0086 95.2768C96.7126 95.2768 97.2626 95.5848 97.6586 96.2008C98.0546 96.8168 98.2526 97.7151 98.2526 98.8958C98.2526 100.076 98.0546 100.982 97.6586 101.613C97.2626 102.243 96.7126 102.559 96.0086 102.559ZM96.0086 101.833C96.2139 101.833 96.3973 101.778 96.5586 101.668C96.7273 101.55 96.8703 101.374 96.9876 101.14C97.1123 100.898 97.2076 100.593 97.2736 100.227C97.3396 99.8528 97.3726 99.4091 97.3726 98.8958C97.3726 98.3824 97.3396 97.9424 97.2736 97.5758C97.2076 97.2091 97.1123 96.9121 96.9876 96.6848C96.8703 96.4501 96.7273 96.2778 96.5586 96.1678C96.3973 96.0578 96.2139 96.0028 96.0086 96.0028C95.8033 96.0028 95.6163 96.0578 95.4476 96.1678C95.2789 96.2778 95.1323 96.4501 95.0076 96.6848C94.8903 96.9121 94.7986 97.2091 94.7326 97.5758C94.6666 97.9424 94.6336 98.3824 94.6336 98.8958C94.6336 99.9224 94.7583 100.67 95.0076 101.14C95.2643 101.602 95.5979 101.833 96.0086 101.833ZM102.943 102.559C102.232 102.559 101.678 102.243 101.282 101.613C100.886 100.982 100.688 100.076 100.688 98.8958C100.688 97.7151 100.886 96.8168 101.282 96.2008C101.678 95.5848 102.232 95.2768 102.943 95.2768C103.647 95.2768 104.197 95.5848 104.593 96.2008C104.989 96.8168 105.187 97.7151 105.187 98.8958C105.187 100.076 104.989 100.982 104.593 101.613C104.197 102.243 103.647 102.559 102.943 102.559ZM102.943 101.833C103.148 101.833 103.332 101.778 103.493 101.668C103.662 101.55 103.805 101.374 103.922 101.14C104.047 100.898 104.142 100.593 104.208 100.227C104.274 99.8528 104.307 99.4091 104.307 98.8958C104.307 98.3824 104.274 97.9424 104.208 97.5758C104.142 97.2091 104.047 96.9121 103.922 96.6848C103.805 96.4501 103.662 96.2778 103.493 96.1678C103.332 96.0578 103.148 96.0028 102.943 96.0028C102.738 96.0028 102.551 96.0578 102.382 96.1678C102.213 96.2778 102.067 96.4501 101.942 96.6848C101.825 96.9121 101.733 97.2091 101.667 97.5758C101.601 97.9424 101.568 98.3824 101.568 98.8958C101.568 99.9224 101.693 100.67 101.942 101.14C102.199 101.602 102.532 101.833 102.943 101.833ZM108.007 102.427V101.679H109.613V96.5088H108.337V95.9258C108.66 95.8671 108.939 95.7974 109.173 95.7168C109.415 95.6288 109.632 95.5261 109.822 95.4088H110.515V101.679H111.967V102.427H108.007ZM116.812 102.559C116.101 102.559 115.547 102.243 115.151 101.613C114.755 100.982 114.557 100.076 114.557 98.8958C114.557 97.7151 114.755 96.8168 115.151 96.2008C115.547 95.5848 116.101 95.2768 116.812 95.2768C117.516 95.2768 118.066 95.5848 118.462 96.2008C118.858 96.8168 119.056 97.7151 119.056 98.8958C119.056 100.076 118.858 100.982 118.462 101.613C118.066 102.243 117.516 102.559 116.812 102.559ZM116.812 101.833C117.017 101.833 117.201 101.778 117.362 101.668C117.531 101.55 117.674 101.374 117.791 101.14C117.916 100.898 118.011 100.593 118.077 100.227C118.143 99.8528 118.176 99.4091 118.176 98.8958C118.176 98.3824 118.143 97.9424 118.077 97.5758C118.011 97.2091 117.916 96.9121 117.791 96.6848C117.674 96.4501 117.531 96.2778 117.362 96.1678C117.201 96.0578 117.017 96.0028 116.812 96.0028C116.607 96.0028 116.42 96.0578 116.251 96.1678C116.082 96.2778 115.936 96.4501 115.811 96.6848C115.694 96.9121 115.602 97.2091 115.536 97.5758C115.47 97.9424 115.437 98.3824 115.437 98.8958C115.437 99.9224 115.562 100.67 115.811 101.14C116.068 101.602 116.401 101.833 116.812 101.833ZM121.876 102.427V101.679H123.482V96.5088H122.206V95.9258C122.529 95.8671 122.808 95.7974 123.042 95.7168C123.284 95.6288 123.501 95.5261 123.691 95.4088H124.384V101.679H125.836V102.427H121.876ZM128.811 102.427V101.679H130.417V96.5088H129.141V95.9258C129.463 95.8671 129.742 95.7974 129.977 95.7168C130.219 95.6288 130.435 95.5261 130.626 95.4088H131.319V101.679H132.771V102.427H128.811ZM135.745 102.427V101.679H137.351V96.5088H136.075V95.9258C136.398 95.8671 136.677 95.7974 136.911 95.7168C137.153 95.6288 137.37 95.5261 137.56 95.4088H138.253V101.679H139.705V102.427H135.745ZM144.55 102.559C143.838 102.559 143.285 102.243 142.889 101.613C142.493 100.982 142.295 100.076 142.295 98.8958C142.295 97.7151 142.493 96.8168 142.889 96.2008C143.285 95.5848 143.838 95.2768 144.55 95.2768C145.254 95.2768 145.804 95.5848 146.2 96.2008C146.596 96.8168 146.794 97.7151 146.794 98.8958C146.794 100.076 146.596 100.982 146.2 101.613C145.804 102.243 145.254 102.559 144.55 102.559ZM144.55 101.833C144.755 101.833 144.938 101.778 145.1 101.668C145.268 101.55 145.411 101.374 145.529 101.14C145.653 100.898 145.749 100.593 145.815 100.227C145.881 99.8528 145.914 99.4091 145.914 98.8958C145.914 98.3824 145.881 97.9424 145.815 97.5758C145.749 97.2091 145.653 96.9121 145.529 96.6848C145.411 96.4501 145.268 96.2778 145.1 96.1678C144.938 96.0578 144.755 96.0028 144.55 96.0028C144.344 96.0028 144.157 96.0578 143.989 96.1678C143.82 96.2778 143.673 96.4501 143.549 96.6848C143.431 96.9121 143.34 97.2091 143.274 97.5758C143.208 97.9424 143.175 98.3824 143.175 98.8958C143.175 99.9224 143.299 100.67 143.549 101.14C143.805 101.602 144.139 101.833 144.55 101.833ZM149.614 102.427V101.679H151.22V96.5088H149.944V95.9258C150.267 95.8671 150.545 95.7974 150.78 95.7168C151.022 95.6288 151.238 95.5261 151.429 95.4088H152.122V101.679H153.574V102.427H149.614ZM156.549 102.427V101.679H158.155V96.5088H156.879V95.9258C157.201 95.8671 157.48 95.7974 157.715 95.7168C157.957 95.6288 158.173 95.5261 158.364 95.4088H159.057V101.679H160.509V102.427H156.549ZM165.353 102.559C164.642 102.559 164.088 102.243 163.692 101.613C163.296 100.982 163.098 100.076 163.098 98.8958C163.098 97.7151 163.296 96.8168 163.692 96.2008C164.088 95.5848 164.642 95.2768 165.353 95.2768C166.057 95.2768 166.607 95.5848 167.003 96.2008C167.399 96.8168 167.597 97.7151 167.597 98.8958C167.597 100.076 167.399 100.982 167.003 101.613C166.607 102.243 166.057 102.559 165.353 102.559ZM165.353 101.833C165.558 101.833 165.742 101.778 165.903 101.668C166.072 101.55 166.215 101.374 166.332 101.14C166.457 100.898 166.552 100.593 166.618 100.227C166.684 99.8528 166.717 99.4091 166.717 98.8958C166.717 98.3824 166.684 97.9424 166.618 97.5758C166.552 97.2091 166.457 96.9121 166.332 96.6848C166.215 96.4501 166.072 96.2778 165.903 96.1678C165.742 96.0578 165.558 96.0028 165.353 96.0028C165.148 96.0028 164.961 96.0578 164.792 96.1678C164.623 96.2778 164.477 96.4501 164.352 96.6848C164.235 96.9121 164.143 97.2091 164.077 97.5758C164.011 97.9424 163.978 98.3824 163.978 98.8958C163.978 99.9224 164.103 100.67 164.352 101.14C164.609 101.602 164.942 101.833 165.353 101.833ZM172.287 102.559C171.576 102.559 171.022 102.243 170.626 101.613C170.23 100.982 170.032 100.076 170.032 98.8958C170.032 97.7151 170.23 96.8168 170.626 96.2008C171.022 95.5848 171.576 95.2768 172.287 95.2768C172.991 95.2768 173.541 95.5848 173.937 96.2008C174.333 96.8168 174.531 97.7151 174.531 98.8958C174.531 100.076 174.333 100.982 173.937 101.613C173.541 102.243 172.991 102.559 172.287 102.559ZM172.287 101.833C172.493 101.833 172.676 101.778 172.837 101.668C173.006 101.55 173.149 101.374 173.266 101.14C173.391 100.898 173.486 100.593 173.552 100.227C173.618 99.8528 173.651 99.4091 173.651 98.8958C173.651 98.3824 173.618 97.9424 173.552 97.5758C173.486 97.2091 173.391 96.9121 173.266 96.6848C173.149 96.4501 173.006 96.2778 172.837 96.1678C172.676 96.0578 172.493 96.0028 172.287 96.0028C172.082 96.0028 171.895 96.0578 171.726 96.1678C171.558 96.2778 171.411 96.4501 171.286 96.6848C171.169 96.9121 171.077 97.2091 171.011 97.5758C170.945 97.9424 170.912 98.3824 170.912 98.8958C170.912 99.9224 171.037 100.67 171.286 101.14C171.543 101.602 171.877 101.833 172.287 101.833ZM177.352 102.427V101.679H178.958V96.5088H177.682V95.9258C178.005 95.8671 178.283 95.7974 178.518 95.7168C178.76 95.6288 178.976 95.5261 179.167 95.4088H179.86V101.679H181.312V102.427H177.352ZM186.156 102.559C185.445 102.559 184.891 102.243 184.495 101.613C184.099 100.982 183.901 100.076 183.901 98.8958C183.901 97.7151 184.099 96.8168 184.495 96.2008C184.891 95.5848 185.445 95.2768 186.156 95.2768C186.86 95.2768 187.41 95.5848 187.806 96.2008C188.202 96.8168 188.4 97.7151 188.4 98.8958C188.4 100.076 188.202 100.982 187.806 101.613C187.41 102.243 186.86 102.559 186.156 102.559ZM186.156 101.833C186.362 101.833 186.545 101.778 186.706 101.668C186.875 101.55 187.018 101.374 187.135 101.14C187.26 100.898 187.355 100.593 187.421 100.227C187.487 99.8528 187.52 99.4091 187.52 98.8958C187.52 98.3824 187.487 97.9424 187.421 97.5758C187.355 97.2091 187.26 96.9121 187.135 96.6848C187.018 96.4501 186.875 96.2778 186.706 96.1678C186.545 96.0578 186.362 96.0028 186.156 96.0028C185.951 96.0028 185.764 96.0578 185.595 96.1678C185.427 96.2778 185.28 96.4501 185.155 96.6848C185.038 96.9121 184.946 97.2091 184.88 97.5758C184.814 97.9424 184.781 98.3824 184.781 98.8958C184.781 99.9224 184.906 100.67 185.155 101.14C185.412 101.602 185.746 101.833 186.156 101.833ZM191.221 102.427V101.679H192.827V96.5088H191.551V95.9258C191.873 95.8671 192.152 95.7974 192.387 95.7168C192.629 95.6288 192.845 95.5261 193.036 95.4088H193.729V101.679H195.181V102.427H191.221ZM200.025 102.559C199.314 102.559 198.76 102.243 198.364 101.613C197.968 100.982 197.77 100.076 197.77 98.8958C197.77 97.7151 197.968 96.8168 198.364 96.2008C198.76 95.5848 199.314 95.2768 200.025 95.2768C200.729 95.2768 201.279 95.5848 201.675 96.2008C202.071 96.8168 202.269 97.7151 202.269 98.8958C202.269 100.076 202.071 100.982 201.675 101.613C201.279 102.243 200.729 102.559 200.025 102.559ZM200.025 101.833C200.231 101.833 200.414 101.778 200.575 101.668C200.744 101.55 200.887 101.374 201.004 101.14C201.129 100.898 201.224 100.593 201.29 100.227C201.356 99.8528 201.389 99.4091 201.389 98.8958C201.389 98.3824 201.356 97.9424 201.29 97.5758C201.224 97.2091 201.129 96.9121 201.004 96.6848C200.887 96.4501 200.744 96.2778 200.575 96.1678C200.414 96.0578 200.231 96.0028 200.025 96.0028C199.82 96.0028 199.633 96.0578 199.464 96.1678C199.296 96.2778 199.149 96.4501 199.024 96.6848C198.907 96.9121 198.815 97.2091 198.749 97.5758C198.683 97.9424 198.65 98.3824 198.65 98.8958C198.65 99.9224 198.775 100.67 199.024 101.14C199.281 101.602 199.615 101.833 200.025 101.833ZM45.5975 116.427V115.679H47.2035V110.509H45.9275V109.926C46.2502 109.867 46.5288 109.797 46.7635 109.717C47.0055 109.629 47.2218 109.526 47.4125 109.409H48.1055V115.679H49.5575V116.427H45.5975ZM52.532 116.427V115.679H54.138V110.509H52.862V109.926C53.1846 109.867 53.4633 109.797 53.698 109.717C53.94 109.629 54.1563 109.526 54.347 109.409H55.04V115.679H56.492V116.427H52.532ZM61.3364 116.559C60.6251 116.559 60.0714 116.243 59.6754 115.613C59.2794 114.982 59.0814 114.076 59.0814 112.896C59.0814 111.715 59.2794 110.817 59.6754 110.201C60.0714 109.585 60.6251 109.277 61.3364 109.277C62.0404 109.277 62.5904 109.585 62.9864 110.201C63.3824 110.817 63.5804 111.715 63.5804 112.896C63.5804 114.076 63.3824 114.982 62.9864 115.613C62.5904 116.243 62.0404 116.559 61.3364 116.559ZM61.3364 115.833C61.5417 115.833 61.7251 115.778 61.8864 115.668C62.0551 115.55 62.1981 115.374 62.3154 115.14C62.4401 114.898 62.5354 114.593 62.6014 114.227C62.6674 113.853 62.7004 113.409 62.7004 112.896C62.7004 112.382 62.6674 111.942 62.6014 111.576C62.5354 111.209 62.4401 110.912 62.3154 110.685C62.1981 110.45 62.0551 110.278 61.8864 110.168C61.7251 110.058 61.5417 110.003 61.3364 110.003C61.1311 110.003 60.9441 110.058 60.7754 110.168C60.6067 110.278 60.4601 110.45 60.3354 110.685C60.2181 110.912 60.1264 111.209 60.0604 111.576C59.9944 111.942 59.9614 112.382 59.9614 112.896C59.9614 113.922 60.0861 114.67 60.3354 115.14C60.5921 115.602 60.9257 115.833 61.3364 115.833ZM68.2708 116.559C67.5595 116.559 67.0058 116.243 66.6098 115.613C66.2138 114.982 66.0158 114.076 66.0158 112.896C66.0158 111.715 66.2138 110.817 66.6098 110.201C67.0058 109.585 67.5595 109.277 68.2708 109.277C68.9748 109.277 69.5248 109.585 69.9208 110.201C70.3168 110.817 70.5148 111.715 70.5148 112.896C70.5148 114.076 70.3168 114.982 69.9208 115.613C69.5248 116.243 68.9748 116.559 68.2708 116.559ZM68.2708 115.833C68.4762 115.833 68.6595 115.778 68.8208 115.668C68.9895 115.55 69.1325 115.374 69.2498 115.14C69.3745 114.898 69.4698 114.593 69.5358 114.227C69.6018 113.853 69.6348 113.409 69.6348 112.896C69.6348 112.382 69.6018 111.942 69.5358 111.576C69.4698 111.209 69.3745 110.912 69.2498 110.685C69.1325 110.45 68.9895 110.278 68.8208 110.168C68.6595 110.058 68.4762 110.003 68.2708 110.003C68.0655 110.003 67.8785 110.058 67.7098 110.168C67.5412 110.278 67.3945 110.45 67.2698 110.685C67.1525 110.912 67.0608 111.209 66.9948 111.576C66.9288 111.942 66.8958 112.382 66.8958 112.896C66.8958 113.922 67.0205 114.67 67.2698 115.14C67.5265 115.602 67.8602 115.833 68.2708 115.833ZM75.2053 116.559C74.4939 116.559 73.9403 116.243 73.5443 115.613C73.1483 114.982 72.9503 114.076 72.9503 112.896C72.9503 111.715 73.1483 110.817 73.5443 110.201C73.9403 109.585 74.4939 109.277 75.2053 109.277C75.9093 109.277 76.4593 109.585 76.8553 110.201C77.2513 110.817 77.4493 111.715 77.4493 112.896C77.4493 114.076 77.2513 114.982 76.8553 115.613C76.4593 116.243 75.9093 116.559 75.2053 116.559ZM75.2053 115.833C75.4106 115.833 75.5939 115.778 75.7553 115.668C75.9239 115.55 76.0669 115.374 76.1843 115.14C76.3089 114.898 76.4043 114.593 76.4703 114.227C76.5363 113.853 76.5693 113.409 76.5693 112.896C76.5693 112.382 76.5363 111.942 76.4703 111.576C76.4043 111.209 76.3089 110.912 76.1843 110.685C76.0669 110.45 75.9239 110.278 75.7553 110.168C75.5939 110.058 75.4106 110.003 75.2053 110.003C74.9999 110.003 74.8129 110.058 74.6443 110.168C74.4756 110.278 74.3289 110.45 74.2043 110.685C74.0869 110.912 73.9953 111.209 73.9293 111.576C73.8633 111.942 73.8303 112.382 73.8303 112.896C73.8303 113.922 73.9549 114.67 74.2043 115.14C74.4609 115.602 74.7946 115.833 75.2053 115.833ZM80.2697 116.427V115.679H81.8757V110.509H80.5997V109.926C80.9224 109.867 81.201 109.797 81.4357 109.717C81.6777 109.629 81.894 109.526 82.0847 109.409H82.7777V115.679H84.2297V116.427H80.2697ZM89.0742 116.559C88.3628 116.559 87.8092 116.243 87.4132 115.613C87.0172 114.982 86.8192 114.076 86.8192 112.896C86.8192 111.715 87.0172 110.817 87.4132 110.201C87.8092 109.585 88.3628 109.277 89.0742 109.277C89.7782 109.277 90.3282 109.585 90.7242 110.201C91.1202 110.817 91.3182 111.715 91.3182 112.896C91.3182 114.076 91.1202 114.982 90.7242 115.613C90.3282 116.243 89.7782 116.559 89.0742 116.559ZM89.0742 115.833C89.2795 115.833 89.4628 115.778 89.6242 115.668C89.7928 115.55 89.9358 115.374 90.0532 115.14C90.1778 114.898 90.2732 114.593 90.3392 114.227C90.4052 113.853 90.4382 113.409 90.4382 112.896C90.4382 112.382 90.4052 111.942 90.3392 111.576C90.2732 111.209 90.1778 110.912 90.0532 110.685C89.9358 110.45 89.7928 110.278 89.6242 110.168C89.4628 110.058 89.2795 110.003 89.0742 110.003C88.8688 110.003 88.6818 110.058 88.5132 110.168C88.3445 110.278 88.1978 110.45 88.0732 110.685C87.9558 110.912 87.8642 111.209 87.7982 111.576C87.7322 111.942 87.6992 112.382 87.6992 112.896C87.6992 113.922 87.8238 114.67 88.0732 115.14C88.3298 115.602 88.6635 115.833 89.0742 115.833ZM96.0086 116.559C95.2973 116.559 94.7436 116.243 94.3476 115.613C93.9516 114.982 93.7536 114.076 93.7536 112.896C93.7536 111.715 93.9516 110.817 94.3476 110.201C94.7436 109.585 95.2973 109.277 96.0086 109.277C96.7126 109.277 97.2626 109.585 97.6586 110.201C98.0546 110.817 98.2526 111.715 98.2526 112.896C98.2526 114.076 98.0546 114.982 97.6586 115.613C97.2626 116.243 96.7126 116.559 96.0086 116.559ZM96.0086 115.833C96.2139 115.833 96.3973 115.778 96.5586 115.668C96.7273 115.55 96.8703 115.374 96.9876 115.14C97.1123 114.898 97.2076 114.593 97.2736 114.227C97.3396 113.853 97.3726 113.409 97.3726 112.896C97.3726 112.382 97.3396 111.942 97.2736 111.576C97.2076 111.209 97.1123 110.912 96.9876 110.685C96.8703 110.45 96.7273 110.278 96.5586 110.168C96.3973 110.058 96.2139 110.003 96.0086 110.003C95.8033 110.003 95.6163 110.058 95.4476 110.168C95.2789 110.278 95.1323 110.45 95.0076 110.685C94.8903 110.912 94.7986 111.209 94.7326 111.576C94.6666 111.942 94.6336 112.382 94.6336 112.896C94.6336 113.922 94.7583 114.67 95.0076 115.14C95.2643 115.602 95.5979 115.833 96.0086 115.833ZM101.073 116.427V115.679H102.679V110.509H101.403V109.926C101.726 109.867 102.004 109.797 102.239 109.717C102.481 109.629 102.697 109.526 102.888 109.409H103.581V115.679H105.033V116.427H101.073ZM108.007 116.427V115.679H109.613V110.509H108.337V109.926C108.66 109.867 108.939 109.797 109.173 109.717C109.415 109.629 109.632 109.526 109.822 109.409H110.515V115.679H111.967V116.427H108.007ZM116.812 116.559C116.101 116.559 115.547 116.243 115.151 115.613C114.755 114.982 114.557 114.076 114.557 112.896C114.557 111.715 114.755 110.817 115.151 110.201C115.547 109.585 116.101 109.277 116.812 109.277C117.516 109.277 118.066 109.585 118.462 110.201C118.858 110.817 119.056 111.715 119.056 112.896C119.056 114.076 118.858 114.982 118.462 115.613C118.066 116.243 117.516 116.559 116.812 116.559ZM116.812 115.833C117.017 115.833 117.201 115.778 117.362 115.668C117.531 115.55 117.674 115.374 117.791 115.14C117.916 114.898 118.011 114.593 118.077 114.227C118.143 113.853 118.176 113.409 118.176 112.896C118.176 112.382 118.143 111.942 118.077 111.576C118.011 111.209 117.916 110.912 117.791 110.685C117.674 110.45 117.531 110.278 117.362 110.168C117.201 110.058 117.017 110.003 116.812 110.003C116.607 110.003 116.42 110.058 116.251 110.168C116.082 110.278 115.936 110.45 115.811 110.685C115.694 110.912 115.602 111.209 115.536 111.576C115.47 111.942 115.437 112.382 115.437 112.896C115.437 113.922 115.562 114.67 115.811 115.14C116.068 115.602 116.401 115.833 116.812 115.833ZM123.746 116.559C123.035 116.559 122.481 116.243 122.085 115.613C121.689 114.982 121.491 114.076 121.491 112.896C121.491 111.715 121.689 110.817 122.085 110.201C122.481 109.585 123.035 109.277 123.746 109.277C124.45 109.277 125 109.585 125.396 110.201C125.792 110.817 125.99 111.715 125.99 112.896C125.99 114.076 125.792 114.982 125.396 115.613C125 116.243 124.45 116.559 123.746 116.559ZM123.746 115.833C123.952 115.833 124.135 115.778 124.296 115.668C124.465 115.55 124.608 115.374 124.725 115.14C124.85 114.898 124.945 114.593 125.011 114.227C125.077 113.853 125.11 113.409 125.11 112.896C125.11 112.382 125.077 111.942 125.011 111.576C124.945 111.209 124.85 110.912 124.725 110.685C124.608 110.45 124.465 110.278 124.296 110.168C124.135 110.058 123.952 110.003 123.746 110.003C123.541 110.003 123.354 110.058 123.185 110.168C123.017 110.278 122.87 110.45 122.745 110.685C122.628 110.912 122.536 111.209 122.47 111.576C122.404 111.942 122.371 112.382 122.371 112.896C122.371 113.922 122.496 114.67 122.745 115.14C123.002 115.602 123.336 115.833 123.746 115.833ZM128.811 116.427V115.679H130.417V110.509H129.141V109.926C129.463 109.867 129.742 109.797 129.977 109.717C130.219 109.629 130.435 109.526 130.626 109.409H131.319V115.679H132.771V116.427H128.811ZM137.615 116.559C136.904 116.559 136.35 116.243 135.954 115.613C135.558 114.982 135.36 114.076 135.36 112.896C135.36 111.715 135.558 110.817 135.954 110.201C136.35 109.585 136.904 109.277 137.615 109.277C138.319 109.277 138.869 109.585 139.265 110.201C139.661 110.817 139.859 111.715 139.859 112.896C139.859 114.076 139.661 114.982 139.265 115.613C138.869 116.243 138.319 116.559 137.615 116.559ZM137.615 115.833C137.821 115.833 138.004 115.778 138.165 115.668C138.334 115.55 138.477 115.374 138.594 115.14C138.719 114.898 138.814 114.593 138.88 114.227C138.946 113.853 138.979 113.409 138.979 112.896C138.979 112.382 138.946 111.942 138.88 111.576C138.814 111.209 138.719 110.912 138.594 110.685C138.477 110.45 138.334 110.278 138.165 110.168C138.004 110.058 137.821 110.003 137.615 110.003C137.41 110.003 137.223 110.058 137.054 110.168C136.886 110.278 136.739 110.45 136.614 110.685C136.497 110.912 136.405 111.209 136.339 111.576C136.273 111.942 136.24 112.382 136.24 112.896C136.24 113.922 136.365 114.67 136.614 115.14C136.871 115.602 137.205 115.833 137.615 115.833ZM142.68 116.427V115.679H144.286V110.509H143.01V109.926C143.332 109.867 143.611 109.797 143.846 109.717C144.088 109.629 144.304 109.526 144.495 109.409H145.188V115.679H146.64V116.427H142.68ZM151.484 116.559C150.773 116.559 150.219 116.243 149.823 115.613C149.427 114.982 149.229 114.076 149.229 112.896C149.229 111.715 149.427 110.817 149.823 110.201C150.219 109.585 150.773 109.277 151.484 109.277C152.188 109.277 152.738 109.585 153.134 110.201C153.53 110.817 153.728 111.715 153.728 112.896C153.728 114.076 153.53 114.982 153.134 115.613C152.738 116.243 152.188 116.559 151.484 116.559ZM151.484 115.833C151.689 115.833 151.873 115.778 152.034 115.668C152.203 115.55 152.346 115.374 152.463 115.14C152.588 114.898 152.683 114.593 152.749 114.227C152.815 113.853 152.848 113.409 152.848 112.896C152.848 112.382 152.815 111.942 152.749 111.576C152.683 111.209 152.588 110.912 152.463 110.685C152.346 110.45 152.203 110.278 152.034 110.168C151.873 110.058 151.689 110.003 151.484 110.003C151.279 110.003 151.092 110.058 150.923 110.168C150.754 110.278 150.608 110.45 150.483 110.685C150.366 110.912 150.274 111.209 150.208 111.576C150.142 111.942 150.109 112.382 150.109 112.896C150.109 113.922 150.234 114.67 150.483 115.14C150.74 115.602 151.073 115.833 151.484 115.833ZM156.549 116.427V115.679H158.155V110.509H156.879V109.926C157.201 109.867 157.48 109.797 157.715 109.717C157.957 109.629 158.173 109.526 158.364 109.409H159.057V115.679H160.509V116.427H156.549ZM163.483 116.427V115.679H165.089V110.509H163.813V109.926C164.136 109.867 164.414 109.797 164.649 109.717C164.891 109.629 165.107 109.526 165.298 109.409H165.991V115.679H167.443V116.427H163.483ZM170.417 116.427V115.679H172.023V110.509H170.747V109.926C171.07 109.867 171.349 109.797 171.583 109.717C171.825 109.629 172.042 109.526 172.232 109.409H172.925V115.679H174.377V116.427H170.417ZM179.222 116.559C178.511 116.559 177.957 116.243 177.561 115.613C177.165 114.982 176.967 114.076 176.967 112.896C176.967 111.715 177.165 110.817 177.561 110.201C177.957 109.585 178.511 109.277 179.222 109.277C179.926 109.277 180.476 109.585 180.872 110.201C181.268 110.817 181.466 111.715 181.466 112.896C181.466 114.076 181.268 114.982 180.872 115.613C180.476 116.243 179.926 116.559 179.222 116.559ZM179.222 115.833C179.427 115.833 179.611 115.778 179.772 115.668C179.941 115.55 180.084 115.374 180.201 115.14C180.326 114.898 180.421 114.593 180.487 114.227C180.553 113.853 180.586 113.409 180.586 112.896C180.586 112.382 180.553 111.942 180.487 111.576C180.421 111.209 180.326 110.912 180.201 110.685C180.084 110.45 179.941 110.278 179.772 110.168C179.611 110.058 179.427 110.003 179.222 110.003C179.017 110.003 178.83 110.058 178.661 110.168C178.492 110.278 178.346 110.45 178.221 110.685C178.104 110.912 178.012 111.209 177.946 111.576C177.88 111.942 177.847 112.382 177.847 112.896C177.847 113.922 177.972 114.67 178.221 115.14C178.478 115.602 178.811 115.833 179.222 115.833ZM186.156 116.559C185.445 116.559 184.891 116.243 184.495 115.613C184.099 114.982 183.901 114.076 183.901 112.896C183.901 111.715 184.099 110.817 184.495 110.201C184.891 109.585 185.445 109.277 186.156 109.277C186.86 109.277 187.41 109.585 187.806 110.201C188.202 110.817 188.4 111.715 188.4 112.896C188.4 114.076 188.202 114.982 187.806 115.613C187.41 116.243 186.86 116.559 186.156 116.559ZM186.156 115.833C186.362 115.833 186.545 115.778 186.706 115.668C186.875 115.55 187.018 115.374 187.135 115.14C187.26 114.898 187.355 114.593 187.421 114.227C187.487 113.853 187.52 113.409 187.52 112.896C187.52 112.382 187.487 111.942 187.421 111.576C187.355 111.209 187.26 110.912 187.135 110.685C187.018 110.45 186.875 110.278 186.706 110.168C186.545 110.058 186.362 110.003 186.156 110.003C185.951 110.003 185.764 110.058 185.595 110.168C185.427 110.278 185.28 110.45 185.155 110.685C185.038 110.912 184.946 111.209 184.88 111.576C184.814 111.942 184.781 112.382 184.781 112.896C184.781 113.922 184.906 114.67 185.155 115.14C185.412 115.602 185.746 115.833 186.156 115.833ZM191.221 116.427V115.679H192.827V110.509H191.551V109.926C191.873 109.867 192.152 109.797 192.387 109.717C192.629 109.629 192.845 109.526 193.036 109.409H193.729V115.679H195.181V116.427H191.221ZM198.155 116.427V115.679H199.761V110.509H198.485V109.926C198.808 109.867 199.087 109.797 199.321 109.717C199.563 109.629 199.78 109.526 199.97 109.409H200.663V115.679H202.115V116.427H198.155Z" fill="#D7D7D7"/>
<path fill-rule="evenodd" clip-rule="evenodd" d="M148.873 59.2734C141.94 54.7908 133.016 53.0263 124.797 53.0263C116.578 53.0263 107.654 54.7908 100.721 59.2734C101.015 60.0275 101.183 60.8463 101.183 61.7061C101.183 65.3622 98.2586 68.3263 94.6466 68.3416C94.8096 79.0573 95.8462 91.8288 100.935 101.624C106.428 112.199 117.416 119.537 124.797 122.912C132.178 119.537 143.166 112.199 148.659 101.624C153.748 91.8288 154.785 79.0573 154.948 68.3416C151.335 68.3263 148.412 65.3622 148.412 61.7061C148.412 60.8463 148.579 60.0275 148.873 59.2734Z" fill="url(#paint1_linear)" stroke="white" stroke-width="6"/>
<path fill-rule="evenodd" clip-rule="evenodd" d="M106.18 98.9274C102.06 90.9174 100.949 80.3041 100.637 71.8815C104.329 70.0231 106.897 66.1689 106.978 61.7162C112.038 59.1886 118.452 57.8183 125.396 57.8183C132.34 57.8183 138.755 59.1886 143.814 61.7162C143.896 66.1689 146.464 70.0231 150.156 71.8815C149.843 80.3041 148.733 90.9174 144.613 98.9274C140.459 107.006 132.305 113.322 125.396 116.921C118.487 113.322 110.334 107.006 106.18 98.9274Z" fill="url(#paint2_linear)"/>
<path fill-rule="evenodd" clip-rule="evenodd" d="M125.316 71.3116C128.17 71.3116 131.051 72.5499 131.051 78.0885H119.582C119.582 72.5499 122.462 71.3116 125.316 71.3116ZM123.111 93.5006L123.958 87.1885C123.091 86.6902 122.505 85.6227 122.505 84.5322C122.505 82.9259 123.776 81.5644 125.344 81.5644C126.913 81.5644 128.184 82.837 128.184 84.4433C128.184 85.5551 127.574 86.7428 126.679 87.2325L127.522 93.5006H123.111ZM135.021 78.0887H133.698C133.698 72.0683 130.173 68.6008 125.316 68.6008C120.46 68.6008 116.935 72.0683 116.935 78.0887H115.612C113.663 78.0887 113.016 78.8315 113.016 80.8275V93.4775C113.016 95.4736 113.663 97.3537 115.612 97.3537H135.021C136.97 97.3537 138.175 95.4736 138.175 93.4775V80.8275C138.175 78.8315 136.97 78.0887 135.021 78.0887" fill="white"/>
<defs>
<linearGradient id="paint0_linear" x1="301.717" y1="155.953" x2="319.88" y2="64.6521" gradientUnits="userSpaceOnUse">
<stop stop-color="#8033EB"/>
<stop offset="1" stop-color="#F94F24"/>
</linearGradient>
<linearGradient id="paint1_linear" x1="185.098" y1="122.912" x2="124.797" y2="122.912" gradientUnits="userSpaceOnUse">
<stop stop-color="#B23760"/>
<stop offset="1" stop-color="#933671"/>
</linearGradient>
<linearGradient id="paint2_linear" x1="154.407" y1="99.0396" x2="126.455" y2="112.608" gradientUnits="userSpaceOnUse">
<stop stop-color="#C6426E"/>
<stop offset="1" stop-color="#933671"/>
</linearGradient>
</defs>
</svg>
