<svg width="256" height="211" viewBox="0 0 256 211" fill="none" xmlns="http://www.w3.org/2000/svg">
<g id="developer">
<g id="Group 2">
<path id="Shape" fill-rule="evenodd" clip-rule="evenodd" d="M198.94 73.1476C194.375 62.1296 196.895 49.4457 205.324 41.0111C213.754 32.5764 226.432 30.0523 237.447 34.6157C248.463 39.1791 255.645 49.9314 255.645 61.8582C255.625 78.1315 242.445 91.3203 226.178 91.3445H226.177C214.255 91.3476 203.505 84.1656 198.94 73.1476ZM197.168 61.8583C197.168 77.8853 210.156 90.8778 226.177 90.8778C242.198 90.8778 255.186 77.8853 255.186 61.8583C255.169 45.8385 242.191 32.8563 226.177 32.8389L226.177 32.8389C210.156 32.8389 197.168 45.8313 197.168 61.8583Z" fill="#F94F24"/>
<path id="Shape 4" fill-rule="evenodd" clip-rule="evenodd" d="M1.0409 41.1021C2.12073 20.8581 17.3568 4.20205 37.4184 1.3342C57.48 -1.53364 76.7696 10.1869 83.4741 29.3181L83.0312 29.4724C76.4014 10.551 57.3242 -1.04174 37.4828 1.79377C17.6415 4.62929 2.5722 21.1019 1.50363 41.1235C0.435061 61.1451 13.6654 79.1291 33.0921 84.0619L32.9814 84.5168C13.3388 79.5296 -0.038922 61.3461 1.0409 41.1021Z" fill="#F94F24"/>
<rect id="Rectangle 2" x="49.2706" y="72.0479" width="96.9955" height="47.1487" fill="#EEEEEE"/>
<path id="Shape 3" fill-rule="evenodd" clip-rule="evenodd" d="M223.7 188.415C212.82 188.415 204 179.592 204 168.708C204 157.823 212.82 149 223.7 149C234.581 149 243.401 157.823 243.401 168.708C243.401 179.592 234.581 188.415 223.7 188.415Z" fill="#F2F2F2"/>
<path id="Shape 2" fill-rule="evenodd" clip-rule="evenodd" d="M28.2794 45.3211C24.2588 46.9883 19.6303 46.0683 16.5523 42.9901C13.4743 39.912 12.5531 35.2821 14.2184 31.2595C15.8836 27.237 19.8073 24.6142 24.1596 24.6143C30.1003 24.6144 34.9168 29.431 34.919 35.3739C34.9205 39.728 32.2999 43.654 28.2794 45.3211Z" fill="#F2F2F2"/>
<rect id="Rectangle" x="3.47424" y="177.418" width="138.468" height="33.4341" rx="16.717" fill="#F2F2F2"/>
</g>
<path id="Shape_2" fill-rule="evenodd" clip-rule="evenodd" d="M201.436 158.944C203.108 157.272 204.164 154.984 204.164 152.432V151.86C204.164 146.756 200.028 142.62 194.924 142.62H191.272C187.444 141.388 184.672 137.78 184.672 133.556C184.672 128.32 188.94 124.052 194.176 124.052H206.98C212.04 124.052 216.22 119.872 216.22 114.812V114.24C216.22 109.136 212.04 105 206.98 105H203.24C198.004 105 193.736 100.732 193.736 95.4963C193.736 90.2603 198.004 85.9923 203.24 85.9923H204.868C209.928 85.9923 214.108 81.8563 214.108 76.7523V76.1803C214.108 71.0763 209.928 66.9403 204.868 66.9403H201.436C197.168 66.0163 194 62.4083 194 58.0963C194 53.0803 198.268 49.0323 203.548 49.0323H211.072C216.044 49.0323 220.136 44.9403 220.136 39.9683C220.136 34.9963 216.044 30.9043 211.072 30.9043H55.752C50.78 30.9043 46.688 34.9963 46.688 39.9683C46.688 44.9403 50.78 49.0323 55.752 49.0323H68.644C73.924 49.0323 78.192 53.0803 78.192 58.0963C78.192 62.4083 75.024 66.0163 70.756 66.9403H50.208C45.148 66.9403 40.968 71.0763 40.968 76.1803V76.7523C40.968 81.8563 45.148 85.9923 50.208 85.9923H68.6C73.836 85.9923 78.104 90.2603 78.104 95.4963C78.104 100.732 73.836 105 68.6 105H52.276C47.172 105 43.036 109.136 43.036 114.24V114.812C43.036 119.872 47.172 124.052 52.276 124.052H59.536C64.772 124.052 69.04 128.32 69.04 133.556C69.04 137.78 66.268 141.388 62.44 142.62H40.22C35.16 142.62 30.98 146.756 30.98 151.86V152.432C30.98 157.492 35.116 161.672 40.22 161.672H54.564C52.892 163.344 51.836 165.632 51.836 168.184V168.756C51.836 173.86 55.972 177.996 61.076 177.996H60.548C65.784 177.996 70.052 182.264 70.052 187.5C70.052 192.736 65.784 197.004 60.548 197.004H75.068H180.712H195.232C189.996 197.004 185.728 192.736 185.728 187.5C185.728 182.264 189.996 177.996 195.232 177.996H215.78C220.84 177.996 225.02 173.86 225.02 168.756V168.184C225.02 163.124 220.84 158.944 215.78 158.944H201.436Z" fill="url(#paint0_linear)"/>
<g id="Group">
<path id="Shape_3" fill-rule="evenodd" clip-rule="evenodd" d="M184.892 114.241C186.916 112.701 198.136 113.229 198.136 113.229C198.136 113.229 201.7 104.561 203.24 105.089C204.78 105.617 204.252 107.113 204.252 107.113L199.676 117.805L186.432 122.909L182.34 123.437C182.34 123.437 182.868 115.781 184.892 114.241Z" fill="#FCB8A5"/>
<path id="Shape_4" fill-rule="evenodd" clip-rule="evenodd" d="M71.548 114.241C69.524 112.701 58.304 113.229 58.304 113.229C58.304 113.229 54.74 104.561 53.2 105.089C51.66 105.617 52.188 107.113 52.188 107.113L56.764 117.805L70.008 122.909L74.1 123.437C74.1 123.437 73.572 115.781 71.548 114.241Z" fill="#FCB8A5"/>
<path id="Polygon" fill-rule="evenodd" clip-rule="evenodd" d="M105.208 143.412H132.4L131.696 197.4H108.024L105.208 143.412Z" fill="#7B39D9"/>
<path id="Shape_5" fill-rule="evenodd" clip-rule="evenodd" d="M73.1319 152.608C73.1319 152.608 74.5399 157.58 80.7879 157.58L109.388 160.44L109.036 143.368H82.1959L73.8359 119.916L66.1799 122.072L73.1319 152.608Z" fill="#6620C9"/>
<path id="Polygon_2" fill-rule="evenodd" clip-rule="evenodd" d="M151.232 143.412H131.036L131.696 197.4H148.46L151.232 143.412Z" fill="#7B39D9"/>
<path id="Shape_6" fill-rule="evenodd" clip-rule="evenodd" d="M183.308 152.608C183.308 152.608 181.9 157.58 175.652 157.58L147.052 160.44L147.404 143.368H174.244L182.604 119.916L190.26 122.072L183.308 152.608Z" fill="#6620C9"/>
<path id="Shape_7" opacity="0.35" fill-rule="evenodd" clip-rule="evenodd" d="M73.176 152.653C73.176 152.653 74.584 157.624 80.832 157.624L109.432 160.484L109.256 152.564H73.132V152.521L73.176 152.653Z" fill="#490D9E"/>
<path id="Shape_8" opacity="0.35" fill-rule="evenodd" clip-rule="evenodd" d="M147.052 160.441L175.652 157.581C181.944 157.581 183.308 152.609 183.308 152.609L183.352 152.477H147.228V152.521L147.052 160.441Z" fill="#490D9E"/>
<path id="Shape_9" fill-rule="evenodd" clip-rule="evenodd" d="M158.844 197.841L173.012 179.845C173.012 179.845 176.004 175.621 172.044 170.737L156.292 146.713L143.268 157.713L160.12 178.569L148.372 197.841H158.844Z" fill="#7B39D9"/>
<path id="Shape_10" fill-rule="evenodd" clip-rule="evenodd" d="M94.5159 197.841L80.3479 179.845C80.3479 179.845 77.3559 175.621 81.3159 170.737L97.0679 146.713L110.092 157.713L93.2399 178.613L104.988 197.841H94.5159Z" fill="#7B39D9"/>
<path id="Shape_11" opacity="0.24" fill-rule="evenodd" clip-rule="evenodd" d="M151.1 197.84C157.656 191.328 160.692 183.848 167.16 177.248L147.052 154.5L143.224 157.712L160.076 178.568L148.372 197.84H151.1Z" fill="#7B39D9"/>
<path id="Shape_12" opacity="0.24" fill-rule="evenodd" clip-rule="evenodd" d="M88.004 177.469C91.172 181.737 92.184 184.245 94.736 187.765C97.156 191.153 99.576 194.497 102.04 197.841H105.032L93.24 178.613L110.092 157.757L107.232 155.293C100.236 162.245 94.956 170.473 88.004 177.469Z" fill="#7B39D9"/>
<rect id="Rectangle_2" x="123.82" y="133.601" width="8.8" height="13.64" fill="#FCB8A5"/>
<path id="Polygon_3" fill-rule="evenodd" clip-rule="evenodd" d="M123.82 135.801L132.62 133.601V147.241L123.82 135.801Z" fill="#F5A692"/>
<path id="Shape_13" fill-rule="evenodd" clip-rule="evenodd" d="M117.22 136.241C112.864 136.241 109.3 132.677 109.3 128.321V101.481C109.3 97.1245 112.864 93.5605 117.22 93.5605H137.9C142.256 93.5605 145.82 97.1245 145.82 101.481V128.321C145.82 132.677 142.256 136.241 137.9 136.241H117.22Z" fill="#FCB8A5"/>
<path id="Shape_14" fill-rule="evenodd" clip-rule="evenodd" d="M117.22 136.241C112.864 136.241 109.3 132.677 109.3 128.321V101.481C109.3 97.1245 112.864 93.5605 117.22 93.5605H137.9C142.256 93.5605 145.82 97.1245 145.82 101.481V128.321C145.82 132.677 142.256 136.241 137.9 136.241H117.22Z" fill="#FCB8A5"/>
<path id="Shape_15" fill-rule="evenodd" clip-rule="evenodd" d="M144.5 117.321C144.5 121.677 140.936 125.241 136.58 125.241H118.54C114.184 125.241 110.62 121.677 110.62 117.321V97.125C109.784 98.357 109.3 99.897 109.3 101.481V128.321C109.3 132.677 112.864 136.241 117.22 136.241H137.9C142.256 136.241 145.82 132.677 145.82 128.321V101.481C145.82 99.853 145.336 98.357 144.5 97.125V117.321Z" fill="#000E1A"/>
<path id="Shape_16" fill-rule="evenodd" clip-rule="evenodd" d="M118.496 130.96C117.308 130.96 116.384 129.992 116.384 128.848V121.676C116.384 120.488 117.352 119.564 118.496 119.564H136.668C137.856 119.564 138.78 120.532 138.78 121.676V128.848C138.78 129.992 137.812 130.96 136.668 130.96H118.496Z" fill="#000E1A"/>
<path id="Shape_17" d="M132.62 124.053C132.62 127.089 130.156 128.233 127.12 128.233C124.084 128.233 121.62 127.089 121.62 124.053" stroke="#FCB8A5" stroke-width="3" stroke-linecap="round" stroke-linejoin="round"/>
<ellipse id="Ellipse" cx="128.22" cy="147.241" rx="6.16" ry="4.4" fill="#FCB8A5"/>
<g id="Group_2">
<rect id="Rectangle_3" x="118.76" y="185.521" width="18.92" height="8.36" fill="#D3D3D3"/>
<path id="Shape_18" fill-rule="evenodd" clip-rule="evenodd" d="M139.88 192.561H116.56C112.556 192.561 109.212 194.629 108.728 197.269H147.712C147.184 194.629 143.884 192.561 139.88 192.561Z" fill="white"/>
<path id="Shape_19" fill-rule="evenodd" clip-rule="evenodd" d="M106.66 187.281C102.304 187.281 98.74 183.717 98.74 179.361V148.121C98.74 143.765 102.304 140.201 106.66 140.201H149.78C154.136 140.201 157.7 143.765 157.7 148.121V179.361C157.7 183.717 154.136 187.281 149.78 187.281H106.66Z" fill="white"/>
<path id="Shape_20" opacity="0.11" fill-rule="evenodd" clip-rule="evenodd" d="M140.056 154.545C134.072 159.913 128.088 165.325 122.104 170.693C116.208 175.973 110.268 181.121 104.416 186.445C104.284 186.577 104.152 186.709 103.976 186.841C104.812 187.149 105.692 187.325 106.66 187.325H149.78C154.136 187.325 157.7 183.761 157.7 179.405V148.165C157.7 145.569 156.468 143.281 154.576 141.829C149.868 146.185 144.808 150.277 140.056 154.545Z" fill="#3863B1"/>
</g>
<path id="Shape_21" fill-rule="evenodd" clip-rule="evenodd" d="M104.9 98.8406C96.54 87.0486 105.34 82.1206 107.496 81.2406C109.608 80.3606 115.988 78.6006 119.728 86.5206C119.728 86.5206 117.352 80.8006 122.544 79.4806C127.736 78.1606 131.96 87.4006 131.96 87.4006C131.96 87.4006 138.56 83.0006 143.752 86.0806C148.944 89.1606 147.536 96.2006 147.536 97.5206C147.536 98.8406 145.512 109.973 145.512 109.973L144.28 97.0806C144.28 97.0806 112.38 109.401 104.9 98.8406Z" fill="#81276A"/>
<path id="Shape_22" fill-rule="evenodd" clip-rule="evenodd" d="M105.34 94.8801C107.54 98.8401 111.94 101.92 118.54 101.04C118.54 101.04 105.78 102.8 104.02 86.0801C104.02 86.0801 103.14 90.9201 105.34 94.8801Z" fill="#FCFCFC"/>
<path id="Shape_23" fill-rule="evenodd" clip-rule="evenodd" d="M121.84 94.7925C123.116 97.0805 125.668 98.8845 129.496 98.3565C129.54 98.3565 122.148 99.4125 121.092 89.6885C121.092 89.6885 120.564 92.5045 121.84 94.7925Z" fill="#FCFCFC"/>
<path id="Shape_24" fill-rule="evenodd" clip-rule="evenodd" d="M132.62 93.6919C133.5 95.2759 135.26 96.5079 137.9 96.1559C137.9 96.1559 132.796 96.8599 132.092 90.1719C132.092 90.1719 131.74 92.1079 132.62 93.6919Z" fill="#FCFCFC"/>
<g id="Group_3">
<g id="Group_4">
<ellipse id="Circle" cx="116.912" cy="108.3" rx="8.272" ry="8.272" stroke="#113159" stroke-width="3" stroke-linecap="round" stroke-linejoin="round"/>
<ellipse id="Circle_2" cx="138.252" cy="108.3" rx="8.272" ry="8.272" stroke="#113159" stroke-width="3" stroke-linecap="round" stroke-linejoin="round"/>
</g>
<path id="Shape_25" fill-rule="evenodd" clip-rule="evenodd" d="M127.78 117.1C126.944 117.1 126.24 116.396 126.24 115.56V105.44C126.24 104.604 126.944 103.9 127.78 103.9C128.616 103.9 129.32 104.604 129.32 105.44V115.56C129.32 116.396 128.616 117.1 127.78 117.1Z" fill="#FF7C89"/>
<path id="Shape_26" d="M125.14 109.18C125.14 107.948 126.24 106.98 127.56 106.98C128.88 106.98 129.98 107.948 129.98 109.18" stroke="#113159" stroke-width="3" stroke-linecap="round" stroke-linejoin="round"/>
<ellipse id="Circle_3" cx="117.22" cy="112.92" rx="1.76" ry="1.76" fill="#113159"/>
<ellipse id="Circle_4" cx="138.78" cy="112.92" rx="1.76" ry="1.76" fill="#113159"/>
<ellipse id="Circle_5" cx="107.98" cy="108.08" rx="0.88" ry="0.88" fill="#113159"/>
<ellipse id="Circle_6" cx="147.14" cy="108.08" rx="0.879999" ry="0.88" fill="#113159"/>
</g>
<path id="Shape_27" fill-rule="evenodd" clip-rule="evenodd" d="M117.22 134.041C117.22 134.041 111.06 132.281 111.06 126.121C111.06 126.121 110.18 133.601 117.22 134.041Z" fill="#FCFCFC"/>
<path id="Shape_28" fill-rule="evenodd" clip-rule="evenodd" d="M137.9 134.041C137.9 134.041 144.06 132.281 144.06 126.121C144.06 126.121 144.94 133.601 137.9 134.041Z" fill="#FCFCFC"/>
</g>
<g id="Group_5">
<g id="Group_6">
<g id="Group_7">
<g id="Group_8">
<rect id="Rectangle_4" x="38.0599" y="69.0508" width="51" height="30.668" fill="#EEEEEE"/>
<rect id="Rectangle_5" x="38.0599" y="69.0508" width="51" height="5.588" fill="#4F4F4F"/>
<g id="Group_9">
<path id="Shape 4_2" fill-rule="evenodd" clip-rule="evenodd" d="M44.871 92.7206V81.167H80.0498V92.7206H44.871ZM79.8825 92.5556V81.334H45.0186V92.5556H79.8825Z" fill="#F94F24"/>
<path id="Shape 5" fill-rule="evenodd" clip-rule="evenodd" d="M79.9763 83.1706C78.9143 83.1708 78.0532 82.31 78.0525 81.2477C78.0518 80.1854 78.9119 79.3235 79.9738 79.3223C80.4843 79.3217 80.9741 79.5242 81.3353 79.8851C81.6965 80.246 81.8995 80.7358 81.8995 81.2465H81.8995C81.8991 82.3094 81.0382 83.1705 79.9763 83.1706Z" fill="#F94F24"/>
<path id="Shape 6" fill-rule="evenodd" clip-rule="evenodd" d="M80.2315 80.988V80.5537C80.2174 80.4178 80.1028 80.3145 79.9662 80.3145C79.8296 80.3145 79.715 80.4178 79.7009 80.5537V80.988H79.2697C79.1338 81.002 79.0305 81.1166 79.0305 81.2533C79.0305 81.39 79.1338 81.5046 79.2697 81.5187H79.7009V81.95C79.715 82.086 79.8296 82.1893 79.9662 82.1893C80.1028 82.1893 80.2174 82.086 80.2315 81.95V81.5187H80.6627C80.764 81.5292 80.8624 81.481 80.9164 81.3946C80.9703 81.3081 80.9703 81.1985 80.9164 81.1121C80.8624 81.0256 80.764 80.9775 80.6627 80.988H80.2315Z" fill="#EEEEEE"/>
<rect id="Rectangle_6" x="49.0613" y="77.2988" width="4.84845" height="2.73303" fill="#E8E8E8"/>
<rect id="Rectangle 2_2" x="54.2416" y="77.2988" width="4.84844" height="2.73303" fill="#DEDEDE"/>
<rect id="Rectangle 3" x="59.4191" y="77.2988" width="4.84844" height="2.73303" fill="#DEDEDE"/>
<path id="Shape 7" fill-rule="evenodd" clip-rule="evenodd" d="M46.3065 77.2988C45.5763 77.3321 45.0013 77.9341 45.0013 78.6653C45.0013 79.3966 45.5763 79.9986 46.3065 80.0319H48.7322V77.2988H46.3065Z" fill="#DEDEDE"/>
<path id="Shape 9" fill-rule="evenodd" clip-rule="evenodd" d="M45.8837 97.2625C45.5649 97.2625 45.3064 97.0039 45.3064 96.685C45.3064 96.366 45.5649 96.1074 45.8837 96.1074H57.9921C58.3109 96.1074 58.5694 96.366 58.5694 96.685C58.5694 97.0039 58.3109 97.2625 57.9921 97.2625H45.8837Z" fill="#DEDEDE"/>
<path id="Shape 10" fill-rule="evenodd" clip-rule="evenodd" d="M60.622 97.2625C60.3032 97.2625 60.0447 97.0039 60.0447 96.685C60.0447 96.366 60.3032 96.1074 60.622 96.1074H63.5952C63.914 96.1074 64.1725 96.366 64.1725 96.685C64.1725 97.0039 63.914 97.2625 63.5952 97.2625H63.6065H60.622Z" fill="#DEDEDE"/>
<path id="Shape 11" fill-rule="evenodd" clip-rule="evenodd" d="M66.4747 97.2625C66.1558 97.2625 65.8973 97.0039 65.8973 96.685C65.8973 96.366 66.1558 96.1074 66.4747 96.1074H79.0057C79.3246 96.1074 79.583 96.366 79.583 96.685C79.583 97.0039 79.3246 97.2625 79.0057 97.2625H66.4747Z" fill="#DEDEDE"/>
</g>
</g>
<ellipse id="Circle_7" cx="85.98" cy="71.5587" rx="0.880001" ry="0.88" fill="#E83666"/>
<ellipse id="Circle_8" cx="83.34" cy="71.5587" rx="0.880001" ry="0.88" fill="#7CB642"/>
<ellipse id="Circle_9" cx="80.6999" cy="71.5587" rx="0.879999" ry="0.88" fill="#FEC448"/>
</g>
<g id="Group_10">
<path id="Shape_29" fill-rule="evenodd" clip-rule="evenodd" d="M173.54 93.9995C171.824 93.9995 170.46 92.6354 170.46 90.9195V75.5195C170.46 73.8035 171.824 72.4395 173.54 72.4395H197.74C199.456 72.4395 200.82 73.8035 200.82 75.5195V90.9195C200.82 92.6354 199.456 93.9995 197.74 93.9995H173.54Z" fill="#00CCB0"/>
<path id="Text" d="M182.208 86.4541L176.202 84.1021V83.1781L182.208 80.8261V81.8201L179.254 82.9121L177.378 83.6121V83.6681L179.254 84.3681L182.208 85.4601V86.4541ZM182.825 90.5281L186.563 78.3481H187.403L183.665 90.5281H182.825ZM188.056 86.4541V85.4601L191.01 84.3681L192.886 83.6681V83.6121L191.01 82.9121L188.056 81.8201V80.8261L194.062 83.1781V84.1021L188.056 86.4541Z" fill="#FCFCFC"/>
</g>
<g id="Group_11">
<g id="Group_12" clip-path="url(#clip0)">
<ellipse id="Ellipse_2" cx="123.38" cy="56.5995" rx="20.24" ry="14.08" fill="white"/>
<path id="Polygon_4" fill-rule="evenodd" clip-rule="evenodd" d="M135.26 79.9188L135.7 58.7988L128.66 64.0788L135.26 79.9188Z" fill="white"/>
<path id="serverless" d="M107.688 59.096C107.427 59.096 107.157 59.0453 106.88 58.944C106.608 58.8427 106.371 58.7093 106.168 58.544L106.696 57.808C106.877 57.9467 107.051 58.0507 107.216 58.12C107.381 58.1893 107.549 58.224 107.72 58.224C107.896 58.224 108.024 58.1947 108.104 58.136C108.184 58.0773 108.224 57.9947 108.224 57.888C108.224 57.824 108.2 57.768 108.152 57.72C108.109 57.6667 108.048 57.6187 107.968 57.576C107.893 57.5333 107.808 57.496 107.712 57.464C107.616 57.4267 107.517 57.3867 107.416 57.344C107.293 57.296 107.171 57.24 107.048 57.176C106.925 57.112 106.813 57.0347 106.712 56.944C106.611 56.848 106.528 56.7387 106.464 56.616C106.4 56.488 106.368 56.3413 106.368 56.176C106.368 55.9947 106.403 55.8267 106.472 55.672C106.547 55.5173 106.651 55.3867 106.784 55.28C106.917 55.1733 107.077 55.0907 107.264 55.032C107.451 54.968 107.659 54.936 107.888 54.936C108.192 54.936 108.459 54.9893 108.688 55.096C108.917 55.1973 109.117 55.312 109.288 55.44L108.76 56.144C108.616 56.0373 108.475 55.9547 108.336 55.896C108.197 55.8373 108.059 55.808 107.92 55.808C107.621 55.808 107.472 55.912 107.472 56.12C107.472 56.184 107.493 56.24 107.536 56.288C107.579 56.3307 107.635 56.3707 107.704 56.408C107.779 56.4453 107.861 56.4827 107.952 56.52C108.048 56.552 108.147 56.5867 108.248 56.624C108.376 56.672 108.501 56.728 108.624 56.792C108.752 56.8507 108.867 56.9253 108.968 57.016C109.075 57.1067 109.16 57.2187 109.224 57.352C109.288 57.48 109.32 57.6347 109.32 57.816C109.32 57.9973 109.285 58.1653 109.216 58.32C109.147 58.4747 109.043 58.6107 108.904 58.728C108.765 58.84 108.595 58.9307 108.392 59C108.189 59.064 107.955 59.096 107.688 59.096ZM111.843 59.096C111.56 59.096 111.296 59.0507 111.051 58.96C110.806 58.864 110.592 58.728 110.411 58.552C110.23 58.3707 110.088 58.152 109.987 57.896C109.886 57.64 109.835 57.3467 109.835 57.016C109.835 56.696 109.888 56.408 109.995 56.152C110.102 55.8907 110.24 55.672 110.411 55.496C110.587 55.3147 110.787 55.176 111.011 55.08C111.235 54.984 111.467 54.936 111.707 54.936C111.99 54.936 112.235 54.984 112.443 55.08C112.656 55.176 112.832 55.3093 112.971 55.48C113.115 55.6507 113.222 55.8533 113.291 56.088C113.36 56.3173 113.395 56.568 113.395 56.84C113.395 56.9467 113.39 57.048 113.379 57.144C113.368 57.24 113.358 57.312 113.347 57.36H110.971C111.024 57.648 111.142 57.8613 111.323 58C111.51 58.1333 111.736 58.2 112.003 58.2C112.286 58.2 112.571 58.112 112.859 57.936L113.251 58.648C113.048 58.7867 112.822 58.896 112.571 58.976C112.326 59.056 112.083 59.096 111.843 59.096ZM110.963 56.584H112.395C112.395 56.36 112.344 56.1787 112.243 56.04C112.142 55.9013 111.971 55.832 111.731 55.832C111.544 55.832 111.379 55.8933 111.235 56.016C111.096 56.1387 111.006 56.328 110.963 56.584ZM114.208 59V55.032H115.168L115.248 55.728H115.28C115.424 55.456 115.597 55.256 115.799 55.128C116.002 55 116.205 54.936 116.408 54.936C116.52 54.936 116.61 54.944 116.68 54.96C116.754 54.9707 116.821 54.9893 116.88 55.016L116.688 56.032C116.613 56.0107 116.544 55.9947 116.48 55.984C116.416 55.9733 116.341 55.968 116.256 55.968C116.106 55.968 115.949 56.0213 115.784 56.128C115.624 56.2347 115.49 56.424 115.384 56.696V59H114.208ZM118.362 59L117.026 55.032H118.21L118.722 56.904C118.775 57.1013 118.826 57.304 118.874 57.512C118.927 57.7147 118.98 57.92 119.034 58.128H119.066C119.114 57.92 119.162 57.7147 119.21 57.512C119.263 57.304 119.316 57.1013 119.37 56.904L119.89 55.032H121.018L119.722 59H118.362ZM123.351 59.096C123.068 59.096 122.804 59.0507 122.559 58.96C122.313 58.864 122.1 58.728 121.919 58.552C121.737 58.3707 121.596 58.152 121.495 57.896C121.393 57.64 121.343 57.3467 121.343 57.016C121.343 56.696 121.396 56.408 121.503 56.152C121.609 55.8907 121.748 55.672 121.919 55.496C122.095 55.3147 122.295 55.176 122.519 55.08C122.743 54.984 122.975 54.936 123.215 54.936C123.497 54.936 123.743 54.984 123.951 55.08C124.164 55.176 124.34 55.3093 124.479 55.48C124.623 55.6507 124.729 55.8533 124.799 56.088C124.868 56.3173 124.903 56.568 124.903 56.84C124.903 56.9467 124.897 57.048 124.887 57.144C124.876 57.24 124.865 57.312 124.855 57.36H122.479C122.532 57.648 122.649 57.8613 122.831 58C123.017 58.1333 123.244 58.2 123.511 58.2C123.793 58.2 124.079 58.112 124.367 57.936L124.759 58.648C124.556 58.7867 124.329 58.896 124.079 58.976C123.833 59.056 123.591 59.096 123.351 59.096ZM122.471 56.584H123.903C123.903 56.36 123.852 56.1787 123.751 56.04C123.649 55.9013 123.479 55.832 123.239 55.832C123.052 55.832 122.887 55.8933 122.743 56.016C122.604 56.1387 122.513 56.328 122.471 56.584ZM125.715 59V55.032H126.675L126.755 55.728H126.787C126.931 55.456 127.105 55.256 127.307 55.128C127.51 55 127.713 54.936 127.915 54.936C128.027 54.936 128.118 54.944 128.187 54.96C128.262 54.9707 128.329 54.9893 128.387 55.016L128.195 56.032C128.121 56.0107 128.051 55.9947 127.987 55.984C127.923 55.9733 127.849 55.968 127.763 55.968C127.614 55.968 127.457 56.0213 127.291 56.128C127.131 56.2347 126.998 56.424 126.891 56.696V59H125.715ZM129.983 59.096C129.78 59.096 129.609 59.064 129.471 59C129.332 58.936 129.22 58.848 129.135 58.736C129.055 58.6187 128.996 58.48 128.959 58.32C128.921 58.1547 128.903 57.9707 128.903 57.768V53.392H130.079V57.816C130.079 57.9387 130.1 58.024 130.143 58.072C130.191 58.12 130.239 58.144 130.287 58.144C130.313 58.144 130.335 58.144 130.351 58.144C130.372 58.144 130.399 58.1387 130.431 58.128L130.575 59C130.511 59.0267 130.428 59.048 130.327 59.064C130.231 59.0853 130.116 59.096 129.983 59.096ZM132.968 59.096C132.685 59.096 132.421 59.0507 132.176 58.96C131.931 58.864 131.717 58.728 131.536 58.552C131.355 58.3707 131.213 58.152 131.112 57.896C131.011 57.64 130.96 57.3467 130.96 57.016C130.96 56.696 131.013 56.408 131.12 56.152C131.227 55.8907 131.365 55.672 131.536 55.496C131.712 55.3147 131.912 55.176 132.136 55.08C132.36 54.984 132.592 54.936 132.832 54.936C133.115 54.936 133.36 54.984 133.568 55.08C133.781 55.176 133.957 55.3093 134.096 55.48C134.24 55.6507 134.347 55.8533 134.416 56.088C134.485 56.3173 134.52 56.568 134.52 56.84C134.52 56.9467 134.515 57.048 134.504 57.144C134.493 57.24 134.483 57.312 134.472 57.36H132.096C132.149 57.648 132.267 57.8613 132.448 58C132.635 58.1333 132.861 58.2 133.128 58.2C133.411 58.2 133.696 58.112 133.984 57.936L134.376 58.648C134.173 58.7867 133.947 58.896 133.696 58.976C133.451 59.056 133.208 59.096 132.968 59.096ZM132.088 56.584H133.52C133.52 56.36 133.469 56.1787 133.368 56.04C133.267 55.9013 133.096 55.832 132.856 55.832C132.669 55.832 132.504 55.8933 132.36 56.016C132.221 56.1387 132.131 56.328 132.088 56.584ZM136.501 59.096C136.239 59.096 135.97 59.0453 135.693 58.944C135.421 58.8427 135.183 58.7093 134.981 58.544L135.509 57.808C135.69 57.9467 135.863 58.0507 136.029 58.12C136.194 58.1893 136.362 58.224 136.533 58.224C136.709 58.224 136.837 58.1947 136.917 58.136C136.997 58.0773 137.037 57.9947 137.037 57.888C137.037 57.824 137.013 57.768 136.965 57.72C136.922 57.6667 136.861 57.6187 136.781 57.576C136.706 57.5333 136.621 57.496 136.525 57.464C136.429 57.4267 136.33 57.3867 136.229 57.344C136.106 57.296 135.983 57.24 135.861 57.176C135.738 57.112 135.626 57.0347 135.525 56.944C135.423 56.848 135.341 56.7387 135.277 56.616C135.213 56.488 135.181 56.3413 135.181 56.176C135.181 55.9947 135.215 55.8267 135.285 55.672C135.359 55.5173 135.463 55.3867 135.597 55.28C135.73 55.1733 135.89 55.0907 136.077 55.032C136.263 54.968 136.471 54.936 136.701 54.936C137.005 54.936 137.271 54.9893 137.501 55.096C137.73 55.1973 137.93 55.312 138.101 55.44L137.573 56.144C137.429 56.0373 137.287 55.9547 137.149 55.896C137.01 55.8373 136.871 55.808 136.733 55.808C136.434 55.808 136.285 55.912 136.285 56.12C136.285 56.184 136.306 56.24 136.349 56.288C136.391 56.3307 136.447 56.3707 136.517 56.408C136.591 56.4453 136.674 56.4827 136.765 56.52C136.861 56.552 136.959 56.5867 137.061 56.624C137.189 56.672 137.314 56.728 137.437 56.792C137.565 56.8507 137.679 56.9253 137.781 57.016C137.887 57.1067 137.973 57.2187 138.037 57.352C138.101 57.48 138.133 57.6347 138.133 57.816C138.133 57.9973 138.098 58.1653 138.029 58.32C137.959 58.4747 137.855 58.6107 137.717 58.728C137.578 58.84 137.407 58.9307 137.205 59C137.002 59.064 136.767 59.096 136.501 59.096ZM140.047 59.096C139.786 59.096 139.517 59.0453 139.239 58.944C138.967 58.8427 138.73 58.7093 138.527 58.544L139.055 57.808C139.237 57.9467 139.41 58.0507 139.575 58.12C139.741 58.1893 139.909 58.224 140.079 58.224C140.255 58.224 140.383 58.1947 140.463 58.136C140.543 58.0773 140.583 57.9947 140.583 57.888C140.583 57.824 140.559 57.768 140.511 57.72C140.469 57.6667 140.407 57.6187 140.327 57.576C140.253 57.5333 140.167 57.496 140.071 57.464C139.975 57.4267 139.877 57.3867 139.775 57.344C139.653 57.296 139.53 57.24 139.407 57.176C139.285 57.112 139.173 57.0347 139.071 56.944C138.97 56.848 138.887 56.7387 138.823 56.616C138.759 56.488 138.727 56.3413 138.727 56.176C138.727 55.9947 138.762 55.8267 138.831 55.672C138.906 55.5173 139.01 55.3867 139.143 55.28C139.277 55.1733 139.437 55.0907 139.623 55.032C139.81 54.968 140.018 54.936 140.247 54.936C140.551 54.936 140.818 54.9893 141.047 55.096C141.277 55.1973 141.477 55.312 141.647 55.44L141.119 56.144C140.975 56.0373 140.834 55.9547 140.695 55.896C140.557 55.8373 140.418 55.808 140.279 55.808C139.981 55.808 139.831 55.912 139.831 56.12C139.831 56.184 139.853 56.24 139.895 56.288C139.938 56.3307 139.994 56.3707 140.063 56.408C140.138 56.4453 140.221 56.4827 140.311 56.52C140.407 56.552 140.506 56.5867 140.607 56.624C140.735 56.672 140.861 56.728 140.983 56.792C141.111 56.8507 141.226 56.9253 141.327 57.016C141.434 57.1067 141.519 57.2187 141.583 57.352C141.647 57.48 141.679 57.6347 141.679 57.816C141.679 57.9973 141.645 58.1653 141.575 58.32C141.506 58.4747 141.402 58.6107 141.263 58.728C141.125 58.84 140.954 58.9307 140.751 59C140.549 59.064 140.314 59.096 140.047 59.096Z" fill="#FA5A28"/>
</g>
</g>
<g id="Group_13">
<g id="Group_14">
<ellipse id="Ellipse_3" cx="164.3" cy="113.447" rx="14.08" ry="9.812" fill="white"/>
<path id="Polygon_5" fill-rule="evenodd" clip-rule="evenodd" d="M156.028 129.682L155.72 114.986L160.648 118.638L156.028 129.682Z" fill="white"/>
</g>
</g>
</g>
</g>
<g id="Group_15">
<g id="Group_16">
<path id="Line" d="M158.653 64.5201H174.496" stroke="white" stroke-width="2"/>
<path id="Line_2" d="M163.363 67.1607H179.205" stroke="white" stroke-width="2"/>
</g>
<g id="Group_17">
<path id="Line_3" d="M80.7266 41.1998H96.5688" stroke="white" stroke-width="2"/>
<path id="Line_4" d="M85.4364 43.8404H101.279" stroke="white" stroke-width="2"/>
</g>
<g id="Group_18">
<path id="Line_5" d="M185.628 167.479H201.47" stroke="white" stroke-width="2"/>
<path id="Line_6" d="M190.338 170.12H206.18" stroke="white" stroke-width="2"/>
</g>
<g id="Group_19">
<path id="Line_7" d="M54.1801 152.52H70.0223" stroke="white" stroke-width="2"/>
<path id="Line_8" d="M58.8899 155.161H74.7322" stroke="white" stroke-width="2"/>
</g>
</g>
<rect id="Rectangle_7" x="61.2521" y="197.048" width="134.64" height="4.972" fill="#522395"/>
</g>
<defs>
<linearGradient id="paint0_linear" x1="237.962" y1="313.732" x2="295.036" y2="151.186" gradientUnits="userSpaceOnUse">
<stop stop-color="#8033EB"/>
<stop offset="1" stop-color="#F94F24"/>
</linearGradient>
<clipPath id="clip0">
<rect width="40.48" height="37.3993" fill="white" transform="translate(103.14 42.5195)"/>
</clipPath>
</defs>
</svg>
