<svg width="1440" height="818" viewBox="0 0 1440 818" fill="none" xmlns="http://www.w3.org/2000/svg">
<g id="bg">
<path id="New shape" fill-rule="evenodd" clip-rule="evenodd" d="M199.008 755.906C282.491 687.554 357.409 701.439 406.722 707.835C430.824 710.96 565.004 736.345 702.56 736.322C846.437 736.298 994.174 710.729 1031.26 707.781C1103.81 702.014 1170.08 671.122 1272.02 756.305C1356.1 826.57 1413.32 815.857 1413.32 815.857L1464.05 816.656L1465 0L0.337019 4.99236L-2.98217 816.257L29.2604 817.056C29.2604 817.056 115.524 824.258 199.008 755.906Z" fill="url(#paint0_linear)"/>
<g id="Group">
<path id="path-1 path Copy" opacity="0.7" fill-rule="evenodd" clip-rule="evenodd" d="M732.59 614.991C723.175 620.05 711.577 620.05 702.163 614.991L602.687 561.525C593.273 556.465 587.474 547.115 587.474 536.996V430.065C587.474 419.946 593.273 410.595 602.687 405.536L702.163 352.07C711.577 347.01 723.175 347.01 732.59 352.07L832.064 405.536C841.478 410.595 847.277 419.946 847.277 430.065V536.996C847.277 547.115 841.478 556.465 832.064 561.525V561.525L732.59 614.991Z" fill="white" fill-opacity="0.0509804"/>
<path id="path-1 path Copy 2" fill-rule="evenodd" clip-rule="evenodd" d="M622.699 707.454C604.294 707.253 587.172 697.421 577.782 681.661L478.569 515.119C469.18 499.357 468.95 480.064 477.967 464.503L573.247 300.068C582.263 284.507 599.156 275.044 617.561 275.245L812.054 277.352C830.461 277.551 847.583 287.382 856.971 303.145L956.181 469.685C965.572 485.445 965.8 504.74 956.784 520.301L861.504 684.736C852.487 700.297 835.596 709.759 817.189 709.56V709.56L622.699 707.454Z" fill="white" fill-opacity="0.0313726"/>
</g>
</g>
<defs>
<linearGradient id="paint0_linear" x1="14.9699" y1="1176.47" x2="1409.48" y2="1189.32" gradientUnits="userSpaceOnUse">
<stop stop-color="#5B3BC1"/>
<stop offset="1" stop-color="#8439E0"/>
</linearGradient>
</defs>
</svg>
