<svg width="135" height="120" viewBox="0 0 135 120" fill="none" xmlns="http://www.w3.org/2000/svg">
<path fill-rule="evenodd" clip-rule="evenodd" d="M13.0738 77.9729C-1.24177 70.6512 -2.55289 57.8564 3.16419 37.6027C8.88127 17.349 23.0787 5.84237 45.0895 20.9507C67.1002 36.0591 81.1833 55.7487 56.9467 70.1024C56.9467 70.1024 27.3894 85.2946 13.0738 77.9729Z" fill="#F2F2F2"/>
<path fill-rule="evenodd" clip-rule="evenodd" d="M103.682 35.8693C111.59 30.3923 118.722 33.3385 127.777 42.1009C136.833 50.8633 138.88 61.6038 124.675 68.9254C110.47 76.2471 96.0896 78.088 95.3921 61.2417C95.3921 61.2417 95.7732 41.3462 103.682 35.8693Z" fill="#F2F2F2"/>
<path fill-rule="evenodd" clip-rule="evenodd" d="M103.426 19.6798C99.6031 21.2643 95.2025 20.3899 92.2761 17.4645C89.3497 14.539 88.4739 10.1386 90.0572 6.31562C91.6404 2.4926 95.3709 -0.000116314 99.5088 0C102.222 -0.000939238 104.823 1.07602 106.742 2.99386C108.66 4.9117 109.738 7.51325 109.738 10.226C109.74 14.3641 107.248 18.0954 103.426 19.6798Z" fill="#F2F2F2"/>
<g style="mix-blend-mode:multiply">
<path fill-rule="evenodd" clip-rule="evenodd" d="M102.798 47.5661C102.657 47.3322 102.645 47.0428 102.766 46.7982C102.888 46.5537 103.125 46.3877 103.396 46.3579C98.4986 40.8497 91.027 38.3849 83.8133 39.8976C78.026 31.5439 67.8878 27.3471 57.8894 29.1659C47.891 30.9848 39.8804 38.4832 37.4058 48.3398C36.8438 48.2785 36.2789 48.248 35.7135 48.2483C26.7948 48.2483 19.5647 55.4784 19.5647 64.3972C19.5647 73.3159 26.7948 80.546 35.7135 80.546H88.0439C92.4727 80.546 95.9792 79.3759 99.2646 76.0905C101.182 72.1221 102.516 67.8973 103.225 63.5472V63.5472C104.052 58.6305 105.538 52.1131 102.798 47.5661Z" fill="#EBEBEB"/>
</g>
<path fill-rule="evenodd" clip-rule="evenodd" d="M81.9456 37.8392C76.1588 29.4856 66.0213 25.2882 56.023 27.1062C46.0248 28.9242 38.0137 36.4216 35.5381 46.2777C34.9759 46.2195 34.4111 46.1903 33.8458 46.19C24.93 46.1935 17.7039 53.4219 17.7034 62.3378C17.7028 71.2537 24.928 78.483 33.8438 78.4877H86.1609C97.5067 78.4877 106.704 69.2901 106.704 57.9443C106.704 46.5985 97.5067 37.4009 86.1609 37.4009V37.4009C84.7445 37.4022 83.332 37.5491 81.9456 37.8392Z" fill="url(#paint0_linear)"/>
<path fill-rule="evenodd" clip-rule="evenodd" d="M41.0533 27.7925C36.7907 31.1766 33.4657 35.5959 31.3952 40.6293C19.8673 41.9092 11.3499 51.9759 11.9965 63.5566C12.6431 75.1373 22.2282 84.1933 33.8269 84.182H86.1611C95.6109 84.2959 104.392 79.3197 109.15 71.1544C113.908 62.989 113.908 52.8959 109.15 44.7306C104.392 36.5653 95.6108 31.5891 86.161 31.703C85.5741 31.703 84.9872 31.7221 84.4002 31.764C78.3997 24.9227 69.7438 20.9968 60.6438 20.9892V20.9892C53.5299 20.963 46.6197 23.3628 41.0533 27.7925Z" stroke="#F94F24" stroke-linecap="round" stroke-dasharray="3.4 2.27"/>
<path fill-rule="evenodd" clip-rule="evenodd" d="M35.5192 48.7513C37.992 38.887 46.009 31.3829 56.015 29.5667C66.021 27.7505 76.1639 31.9584 81.9457 40.3243C83.3328 40.0401 84.7452 39.897 86.1611 39.8975C96.9846 39.8986 105.95 48.2987 106.655 59.0993C106.685 58.6533 106.704 58.2074 106.704 57.7538C106.704 51.56 103.912 45.6993 99.104 41.7993C94.296 37.8993 87.9853 36.376 81.9276 37.6532C76.1405 29.3013 66.0041 25.1052 56.0071 26.923C46.0101 28.7408 37.9997 36.2365 35.523 46.091C34.9608 46.0329 34.396 46.0036 33.8308 46.0033C24.912 46.0033 17.6819 53.2334 17.6819 62.1522C17.6819 62.6019 17.7048 63.0517 17.7429 63.4938C18.4273 55.1177 25.4229 48.6675 33.8269 48.6637L33.8269 48.6637C34.3921 48.664 34.957 48.6932 35.5192 48.7513Z" fill="#8E4DEC"/>
<g style="mix-blend-mode:multiply">
<path fill-rule="evenodd" clip-rule="evenodd" d="M98.7082 57.1507C97.7076 61.3114 99.6916 65.6152 103.505 67.5567L103.505 82.2982C103.503 82.5218 103.591 82.7366 103.75 82.8938L107.116 86.2599C107.445 86.5888 107.979 86.5888 108.307 86.2599L111.674 82.8938C111.83 82.7352 111.918 82.5213 111.919 82.2983V80.6166C111.919 80.3589 111.801 80.1154 111.598 79.9563L110.59 79.1586L111.725 77.7869C111.986 77.4751 111.986 77.0206 111.725 76.7089L110.59 75.3371L111.601 74.5367C111.791 74.3904 111.908 74.1676 111.919 73.9277C111.933 73.6878 111.843 73.4535 111.674 73.2836L110.566 72.1759L111.644 71.0979C111.802 70.9386 111.891 70.7238 111.892 70.4997L111.911 67.4678C115.002 65.9295 116.957 62.7761 116.961 59.3236C116.956 54.2157 112.82 50.0745 107.712 50.0636L107.712 50.0636C103.433 50.0589 99.7088 52.9901 98.7082 57.1507ZM108.678 58.2882C107.736 58.6788 106.65 58.463 105.929 57.7413C105.207 57.0197 104.991 55.9343 105.382 54.9915C105.772 54.0486 106.693 53.434 107.713 53.4342C109.105 53.4366 110.233 54.5646 110.236 55.9567C110.236 56.9773 109.621 57.8975 108.678 58.2882Z" fill="#CCCCCC"/>
</g>
<path fill-rule="evenodd" clip-rule="evenodd" d="M97.1191 56.8533C96.1185 61.014 98.1024 65.3178 101.916 67.2593L101.916 82.0008C101.917 82.2237 102.005 82.4373 102.161 82.5964L105.53 85.9652C105.859 86.2941 106.392 86.2941 106.721 85.9652L110.087 82.5991C110.246 82.4419 110.334 82.2271 110.332 82.0035L110.332 80.3219C110.333 80.0641 110.215 79.8204 110.012 79.6616L109.006 78.8612L110.138 77.4921C110.401 77.181 110.401 76.7253 110.138 76.4141L109.004 75.0424L110.014 74.242C110.205 74.0957 110.321 73.8729 110.332 73.6329C110.346 73.3931 110.257 73.1587 110.087 72.9888L108.979 71.8812L110.057 70.8032C110.215 70.6453 110.304 70.4309 110.303 70.2076L110.324 67.1785C113.414 65.6376 115.368 62.4839 115.372 59.0315C115.37 53.9216 111.233 49.7771 106.123 49.7662L106.123 49.7662C101.844 49.7615 98.1197 52.6927 97.1191 56.8533ZM107.088 57.9897C106.145 58.3804 105.06 58.1645 104.338 57.4429C103.617 56.7212 103.401 55.6359 103.792 54.693C104.182 53.7502 105.103 53.1355 106.123 53.1357C106.792 53.1349 107.434 53.4004 107.908 53.8736C108.381 54.3469 108.646 54.989 108.646 55.6582C108.646 56.6788 108.031 57.599 107.088 57.9897Z" fill="#FFC300"/>
<path fill-rule="evenodd" clip-rule="evenodd" d="M107.241 53.1522C107.057 53.152 106.874 53.1728 106.694 53.2142C107.849 53.4703 108.671 54.4944 108.671 55.6774C108.671 56.8603 107.849 57.8844 106.694 58.1406C106.875 58.1795 107.059 58.1994 107.244 58.1999C108.636 58.1975 109.764 57.0695 109.766 55.6774L109.766 55.6774C109.763 54.284 108.635 53.1552 107.241 53.1522Z" fill="#FFD344"/>
<path fill-rule="evenodd" clip-rule="evenodd" d="M103.285 82.6172C103.127 82.4603 103.038 82.247 103.037 82.0242L103.037 67.2773C99.3179 65.3805 97.3302 61.2274 98.1861 57.141C99.0419 53.0546 102.529 50.0481 106.697 49.8031C106.514 49.7923 106.334 49.7923 106.158 49.8031C101.879 49.7984 98.1548 52.7296 97.1542 56.8902C96.1536 61.0509 98.1376 65.3547 101.951 67.2962L101.935 82.0162C101.935 82.2392 102.023 82.4531 102.18 82.6118L105.546 85.9778C105.858 86.2884 106.357 86.3048 106.689 86.0155C106.681 86.0075 106.665 85.9967 106.651 85.9832L103.285 82.6172Z" fill="#FFD344"/>
<path fill-rule="evenodd" clip-rule="evenodd" d="M104.365 68.2932L104.365 81.9998C104.367 82.3294 104.634 82.596 104.963 82.5981C105.122 82.5991 105.275 82.5364 105.387 82.424C105.5 82.3115 105.562 82.1588 105.561 81.9998L105.564 68.2958C105.563 67.9642 105.295 67.6955 104.963 67.6949L104.963 67.6949C104.634 67.697 104.367 67.9636 104.365 68.2932Z" fill="#FFA200"/>
<path d="M45.1195 50.3235V42.4515H46.1155V50.3235H45.1195ZM50.1678 50.4675C49.4318 50.4675 48.8438 50.2035 48.4038 49.6755C47.9718 49.1475 47.7558 48.3955 47.7558 47.4195C47.7558 46.9475 47.8238 46.5235 47.9598 46.1475C48.1038 45.7635 48.2918 45.4395 48.5238 45.1755C48.7558 44.9115 49.0238 44.7075 49.3278 44.5635C49.6318 44.4195 49.9518 44.3475 50.2878 44.3475C50.6238 44.3475 50.9158 44.4075 51.1638 44.5275C51.4118 44.6475 51.6638 44.8115 51.9198 45.0195L51.8718 44.0235V41.7795H52.8678V50.3235H52.0518L51.9678 49.6395H51.9318C51.6998 49.8635 51.4318 50.0595 51.1278 50.2275C50.8318 50.3875 50.5118 50.4675 50.1678 50.4675ZM50.3838 49.6395C50.6558 49.6395 50.9118 49.5755 51.1518 49.4475C51.3918 49.3115 51.6318 49.1075 51.8718 48.8355V45.7875C51.6238 45.5635 51.3838 45.4075 51.1518 45.3195C50.9278 45.2235 50.6958 45.1755 50.4558 45.1755C50.2238 45.1755 50.0038 45.2315 49.7958 45.3435C49.5958 45.4475 49.4198 45.5995 49.2678 45.7995C49.1158 45.9915 48.9958 46.2235 48.9078 46.4955C48.8198 46.7675 48.7758 47.0715 48.7758 47.4075C48.7758 48.1115 48.9158 48.6595 49.1958 49.0515C49.4758 49.4435 49.8718 49.6395 50.3838 49.6395ZM57.1961 50.4675C56.8041 50.4675 56.4361 50.3995 56.0921 50.2635C55.7561 50.1195 55.4601 49.9195 55.2041 49.6635C54.9561 49.3995 54.7601 49.0795 54.6161 48.7035C54.4721 48.3275 54.4001 47.8995 54.4001 47.4195C54.4001 46.9395 54.4721 46.5115 54.6161 46.1355C54.7681 45.7515 54.9641 45.4275 55.2041 45.1635C55.4521 44.8995 55.7321 44.6995 56.0441 44.5635C56.3561 44.4195 56.6801 44.3475 57.0161 44.3475C57.3841 44.3475 57.7121 44.4115 58.0001 44.5395C58.2961 44.6675 58.5401 44.8515 58.7321 45.0915C58.9321 45.3315 59.0841 45.6195 59.1881 45.9555C59.2921 46.2915 59.3441 46.6675 59.3441 47.0835C59.3441 47.1875 59.3401 47.2915 59.3321 47.3955C59.3321 47.4915 59.3241 47.5755 59.3081 47.6475H55.3721C55.4121 48.2715 55.6041 48.7675 55.9481 49.1355C56.3001 49.4955 56.7561 49.6755 57.3161 49.6755C57.5961 49.6755 57.8521 49.6355 58.0841 49.5555C58.3241 49.4675 58.5521 49.3555 58.7681 49.2195L59.1161 49.8675C58.8601 50.0275 58.5761 50.1675 58.2641 50.2875C57.9521 50.4075 57.5961 50.4675 57.1961 50.4675ZM55.3601 46.9395H58.4801C58.4801 46.3475 58.3521 45.8995 58.0961 45.5955C57.8481 45.2835 57.4961 45.1275 57.0401 45.1275C56.8321 45.1275 56.6321 45.1675 56.4401 45.2475C56.2561 45.3275 56.0881 45.4475 55.9361 45.6075C55.7841 45.7595 55.6561 45.9475 55.5521 46.1715C55.4561 46.3955 55.3921 46.6515 55.3601 46.9395ZM60.7852 50.3235V44.4915H61.6012L61.6852 45.3315H61.7212C62.0012 45.0515 62.2932 44.8195 62.5972 44.6355C62.9092 44.4435 63.2692 44.3475 63.6772 44.3475C64.2932 44.3475 64.7412 44.5395 65.0212 44.9235C65.3092 45.3075 65.4532 45.8755 65.4532 46.6275V50.3235H64.4692V46.7595C64.4692 46.2075 64.3812 45.8115 64.2052 45.5715C64.0292 45.3235 63.7492 45.1995 63.3652 45.1995C63.0612 45.1995 62.7932 45.2755 62.5612 45.4275C62.3292 45.5795 62.0652 45.8035 61.7692 46.0995V50.3235H60.7852ZM69.1837 50.4675C68.8717 50.4675 68.6077 50.4195 68.3917 50.3235C68.1837 50.2275 68.0117 50.0955 67.8757 49.9275C67.7477 49.7595 67.6557 49.5555 67.5997 49.3155C67.5437 49.0755 67.5157 48.8115 67.5157 48.5235V45.2955H66.6517V44.5515L67.5637 44.4915L67.6837 42.8595H68.5117V44.4915H70.0837V45.2955H68.5117V48.5355C68.5117 48.8955 68.5757 49.1755 68.7037 49.3755C68.8397 49.5675 69.0757 49.6635 69.4117 49.6635C69.5157 49.6635 69.6277 49.6475 69.7477 49.6155C69.8677 49.5835 69.9757 49.5475 70.0717 49.5075L70.2637 50.2515C70.1037 50.3075 69.9277 50.3555 69.7357 50.3955C69.5517 50.4435 69.3677 50.4675 69.1837 50.4675ZM71.4024 50.3235V44.4915H72.3864V50.3235H71.4024ZM71.9064 43.2915C71.7144 43.2915 71.5504 43.2315 71.4144 43.1115C71.2864 42.9915 71.2224 42.8395 71.2224 42.6555C71.2224 42.4635 71.2864 42.3115 71.4144 42.1995C71.5504 42.0795 71.7144 42.0195 71.9064 42.0195C72.0984 42.0195 72.2584 42.0795 72.3864 42.1995C72.5224 42.3115 72.5904 42.4635 72.5904 42.6555C72.5904 42.8395 72.5224 42.9915 72.3864 43.1115C72.2584 43.2315 72.0984 43.2915 71.9064 43.2915ZM76.1915 50.4675C75.8795 50.4675 75.6155 50.4195 75.3995 50.3235C75.1915 50.2275 75.0195 50.0955 74.8835 49.9275C74.7555 49.7595 74.6635 49.5555 74.6075 49.3155C74.5515 49.0755 74.5235 48.8115 74.5235 48.5235V45.2955H73.6595V44.5515L74.5715 44.4915L74.6915 42.8595H75.5195V44.4915H77.0915V45.2955H75.5195V48.5355C75.5195 48.8955 75.5835 49.1755 75.7115 49.3755C75.8475 49.5675 76.0835 49.6635 76.4195 49.6635C76.5235 49.6635 76.6355 49.6475 76.7555 49.6155C76.8755 49.5835 76.9835 49.5475 77.0795 49.5075L77.2715 50.2515C77.1115 50.3075 76.9355 50.3555 76.7435 50.3955C76.5595 50.4435 76.3755 50.4675 76.1915 50.4675ZM78.5062 52.8315C78.3702 52.8315 78.2462 52.8195 78.1342 52.7955C78.0222 52.7795 77.9182 52.7515 77.8222 52.7115L78.0142 51.9315C78.0782 51.9475 78.1502 51.9635 78.2302 51.9795C78.3102 52.0035 78.3862 52.0155 78.4582 52.0155C78.7942 52.0155 79.0662 51.8955 79.2742 51.6555C79.4902 51.4235 79.6582 51.1275 79.7782 50.7675L79.9102 50.3355L77.5702 44.4915H78.5902L79.7782 47.7195C79.8662 47.9755 79.9582 48.2475 80.0542 48.5355C80.1582 48.8155 80.2542 49.0915 80.3422 49.3635H80.3902C80.4782 49.0995 80.5622 48.8235 80.6422 48.5355C80.7222 48.2475 80.8022 47.9755 80.8822 47.7195L81.9262 44.4915H82.8862L80.6902 50.8035C80.5862 51.0915 80.4702 51.3595 80.3422 51.6075C80.2142 51.8555 80.0622 52.0675 79.8862 52.2435C79.7102 52.4275 79.5102 52.5715 79.2862 52.6755C79.0622 52.7795 78.8022 52.8315 78.5062 52.8315ZM40.7872 67.7835V59.4915H41.6032L41.6872 60.1635H41.7232C41.9872 59.9395 42.2752 59.7475 42.5872 59.5875C42.9072 59.4275 43.2392 59.3475 43.5832 59.3475C43.9592 59.3475 44.2912 59.4195 44.5792 59.5635C44.8672 59.6995 45.1072 59.8995 45.2992 60.1635C45.4912 60.4195 45.6352 60.7315 45.7312 61.0995C45.8352 61.4595 45.8872 61.8675 45.8872 62.3235C45.8872 62.8195 45.8192 63.2635 45.6832 63.6555C45.5472 64.0395 45.3632 64.3675 45.1312 64.6395C44.8992 64.9115 44.6312 65.1195 44.3272 65.2635C44.0232 65.3995 43.7032 65.4675 43.3672 65.4675C43.0952 65.4675 42.8232 65.4075 42.5512 65.2875C42.2872 65.1675 42.0192 65.0035 41.7472 64.7955L41.7712 65.8155V67.7835H40.7872ZM43.1992 64.6395C43.4392 64.6395 43.6592 64.5875 43.8592 64.4835C44.0672 64.3715 44.2432 64.2195 44.3872 64.0275C44.5392 63.8275 44.6552 63.5835 44.7352 63.2955C44.8232 63.0075 44.8672 62.6835 44.8672 62.3235C44.8672 62.0035 44.8392 61.7115 44.7832 61.4475C44.7272 61.1835 44.6352 60.9595 44.5072 60.7755C44.3872 60.5835 44.2272 60.4355 44.0272 60.3315C43.8352 60.2275 43.6032 60.1755 43.3312 60.1755C43.0832 60.1755 42.8312 60.2435 42.5752 60.3795C42.3272 60.5155 42.0592 60.7115 41.7712 60.9675V64.0275C42.0352 64.2515 42.2912 64.4115 42.5392 64.5075C42.7872 64.5955 43.0072 64.6395 43.1992 64.6395ZM47.4434 65.3235V59.4915H48.2594L48.3434 60.5475H48.3794C48.5794 60.1795 48.8194 59.8875 49.0994 59.6715C49.3874 59.4555 49.6994 59.3475 50.0354 59.3475C50.2674 59.3475 50.4754 59.3875 50.6594 59.4675L50.4674 60.3315C50.3714 60.2995 50.2834 60.2755 50.2034 60.2595C50.1234 60.2435 50.0234 60.2355 49.9034 60.2355C49.6554 60.2355 49.3954 60.3355 49.1234 60.5355C48.8594 60.7355 48.6274 61.0835 48.4274 61.5795V65.3235H47.4434ZM53.7544 65.4675C53.3944 65.4675 53.0504 65.3995 52.7224 65.2635C52.4024 65.1275 52.1184 64.9315 51.8704 64.6755C51.6224 64.4115 51.4224 64.0915 51.2704 63.7155C51.1264 63.3315 51.0544 62.8995 51.0544 62.4195C51.0544 61.9315 51.1264 61.4995 51.2704 61.1235C51.4224 60.7395 51.6224 60.4155 51.8704 60.1515C52.1184 59.8875 52.4024 59.6875 52.7224 59.5515C53.0504 59.4155 53.3944 59.3475 53.7544 59.3475C54.1144 59.3475 54.4544 59.4155 54.7744 59.5515C55.1024 59.6875 55.3904 59.8875 55.6384 60.1515C55.8864 60.4155 56.0824 60.7395 56.2264 61.1235C56.3784 61.4995 56.4544 61.9315 56.4544 62.4195C56.4544 62.8995 56.3784 63.3315 56.2264 63.7155C56.0824 64.0915 55.8864 64.4115 55.6384 64.6755C55.3904 64.9315 55.1024 65.1275 54.7744 65.2635C54.4544 65.3995 54.1144 65.4675 53.7544 65.4675ZM53.7544 64.6515C54.0024 64.6515 54.2304 64.5995 54.4384 64.4955C54.6464 64.3835 54.8224 64.2315 54.9664 64.0395C55.1184 63.8395 55.2344 63.6035 55.3144 63.3315C55.3944 63.0595 55.4344 62.7555 55.4344 62.4195C55.4344 62.0835 55.3944 61.7795 55.3144 61.5075C55.2344 61.2275 55.1184 60.9875 54.9664 60.7875C54.8224 60.5875 54.6464 60.4355 54.4384 60.3315C54.2304 60.2195 54.0024 60.1635 53.7544 60.1635C53.5064 60.1635 53.2784 60.2195 53.0704 60.3315C52.8624 60.4355 52.6824 60.5875 52.5304 60.7875C52.3864 60.9875 52.2744 61.2275 52.1944 61.5075C52.1144 61.7795 52.0744 62.0835 52.0744 62.4195C52.0744 62.7555 52.1144 63.0595 52.1944 63.3315C52.2744 63.6035 52.3864 63.8395 52.5304 64.0395C52.6824 64.2315 52.8624 64.3835 53.0704 64.4955C53.2784 64.5995 53.5064 64.6515 53.7544 64.6515ZM59.2034 65.3235L57.1034 59.4915H58.1234L59.2274 62.8035C59.3154 63.0915 59.4034 63.3795 59.4914 63.6675C59.5874 63.9555 59.6794 64.2395 59.7674 64.5195H59.8154C59.9034 64.2395 59.9914 63.9555 60.0794 63.6675C60.1674 63.3795 60.2554 63.0915 60.3434 62.8035L61.4474 59.4915H62.4194L60.3554 65.3235H59.2034ZM63.545 65.3235V59.4915H64.529V65.3235H63.545ZM64.049 58.2915C63.857 58.2915 63.693 58.2315 63.557 58.1115C63.429 57.9915 63.365 57.8395 63.365 57.6555C63.365 57.4635 63.429 57.3115 63.557 57.1995C63.693 57.0795 63.857 57.0195 64.049 57.0195C64.241 57.0195 64.401 57.0795 64.529 57.1995C64.665 57.3115 64.733 57.4635 64.733 57.6555C64.733 57.8395 64.665 57.9915 64.529 58.1115C64.401 58.2315 64.241 58.2915 64.049 58.2915ZM68.4901 65.4675C67.7541 65.4675 67.1661 65.2035 66.7261 64.6755C66.2941 64.1475 66.0781 63.3955 66.0781 62.4195C66.0781 61.9475 66.1461 61.5235 66.2821 61.1475C66.4261 60.7635 66.6141 60.4395 66.8461 60.1755C67.0781 59.9115 67.3461 59.7075 67.6501 59.5635C67.9541 59.4195 68.2741 59.3475 68.6101 59.3475C68.9461 59.3475 69.2381 59.4075 69.4861 59.5275C69.7341 59.6475 69.9861 59.8115 70.2421 60.0195L70.1941 59.0235V56.7795H71.1901V65.3235H70.3741L70.2901 64.6395H70.2541C70.0221 64.8635 69.7541 65.0595 69.4501 65.2275C69.1541 65.3875 68.8341 65.4675 68.4901 65.4675ZM68.7061 64.6395C68.9781 64.6395 69.2341 64.5755 69.4741 64.4475C69.7141 64.3115 69.9541 64.1075 70.1941 63.8355V60.7875C69.9461 60.5635 69.7061 60.4075 69.4741 60.3195C69.2501 60.2235 69.0181 60.1755 68.7781 60.1755C68.5461 60.1755 68.3261 60.2315 68.1181 60.3435C67.9181 60.4475 67.7421 60.5995 67.5901 60.7995C67.4381 60.9915 67.3181 61.2235 67.2301 61.4955C67.1421 61.7675 67.0981 62.0715 67.0981 62.4075C67.0981 63.1115 67.2381 63.6595 67.5181 64.0515C67.7981 64.4435 68.1941 64.6395 68.7061 64.6395ZM75.5184 65.4675C75.1264 65.4675 74.7584 65.3995 74.4144 65.2635C74.0784 65.1195 73.7824 64.9195 73.5264 64.6635C73.2784 64.3995 73.0824 64.0795 72.9384 63.7035C72.7944 63.3275 72.7224 62.8995 72.7224 62.4195C72.7224 61.9395 72.7944 61.5115 72.9384 61.1355C73.0904 60.7515 73.2864 60.4275 73.5264 60.1635C73.7744 59.8995 74.0544 59.6995 74.3664 59.5635C74.6784 59.4195 75.0024 59.3475 75.3384 59.3475C75.7064 59.3475 76.0344 59.4115 76.3224 59.5395C76.6184 59.6675 76.8624 59.8515 77.0544 60.0915C77.2544 60.3315 77.4064 60.6195 77.5104 60.9555C77.6144 61.2915 77.6664 61.6675 77.6664 62.0835C77.6664 62.1875 77.6624 62.2915 77.6544 62.3955C77.6544 62.4915 77.6464 62.5755 77.6304 62.6475H73.6944C73.7344 63.2715 73.9264 63.7675 74.2704 64.1355C74.6224 64.4955 75.0784 64.6755 75.6384 64.6755C75.9184 64.6755 76.1744 64.6355 76.4064 64.5555C76.6464 64.4675 76.8744 64.3555 77.0904 64.2195L77.4384 64.8675C77.1824 65.0275 76.8984 65.1675 76.5864 65.2875C76.2744 65.4075 75.9184 65.4675 75.5184 65.4675ZM73.6824 61.9395H76.8024C76.8024 61.3475 76.6744 60.8995 76.4184 60.5955C76.1704 60.2835 75.8184 60.1275 75.3624 60.1275C75.1544 60.1275 74.9544 60.1675 74.7624 60.2475C74.5784 60.3275 74.4104 60.4475 74.2584 60.6075C74.1064 60.7595 73.9784 60.9475 73.8744 61.1715C73.7784 61.3955 73.7144 61.6515 73.6824 61.9395ZM79.1075 65.3235V59.4915H79.9235L80.0075 60.5475H80.0435C80.2435 60.1795 80.4835 59.8875 80.7635 59.6715C81.0515 59.4555 81.3635 59.3475 81.6995 59.3475C81.9315 59.3475 82.1395 59.3875 82.3235 59.4675L82.1315 60.3315C82.0355 60.2995 81.9475 60.2755 81.8675 60.2595C81.7875 60.2435 81.6875 60.2355 81.5675 60.2355C81.3195 60.2355 81.0595 60.3355 80.7875 60.5355C80.5235 60.7355 80.2915 61.0835 80.0915 61.5795V65.3235H79.1075ZM84.7448 65.4675C84.3288 65.4675 83.9328 65.3915 83.5568 65.2395C83.1808 65.0875 82.8528 64.8955 82.5728 64.6635L83.0648 64.0035C83.3208 64.2115 83.5808 64.3795 83.8448 64.5075C84.1168 64.6355 84.4288 64.6995 84.7808 64.6995C85.1648 64.6995 85.4528 64.6115 85.6448 64.4355C85.8368 64.2595 85.9328 64.0435 85.9328 63.7875C85.9328 63.6355 85.8928 63.5035 85.8128 63.3915C85.7328 63.2795 85.6288 63.1835 85.5008 63.1035C85.3808 63.0155 85.2408 62.9395 85.0808 62.8755C84.9208 62.8115 84.7608 62.7475 84.6008 62.6835C84.3928 62.6115 84.1848 62.5315 83.9768 62.4435C83.7688 62.3475 83.5808 62.2355 83.4128 62.1075C83.2528 61.9715 83.1208 61.8155 83.0168 61.6395C82.9128 61.4635 82.8608 61.2515 82.8608 61.0035C82.8608 60.7715 82.9048 60.5555 82.9928 60.3555C83.0888 60.1475 83.2208 59.9715 83.3888 59.8275C83.5648 59.6755 83.7768 59.5595 84.0248 59.4795C84.2728 59.3915 84.5528 59.3475 84.8648 59.3475C85.2328 59.3475 85.5688 59.4115 85.8728 59.5395C86.1848 59.6675 86.4528 59.8235 86.6768 60.0075L86.2088 60.6315C86.0088 60.4795 85.8008 60.3555 85.5848 60.2595C85.3688 60.1635 85.1328 60.1155 84.8768 60.1155C84.5088 60.1155 84.2368 60.1995 84.0608 60.3675C83.8928 60.5355 83.8088 60.7315 83.8088 60.9555C83.8088 61.0915 83.8448 61.2115 83.9168 61.3155C83.9888 61.4115 84.0848 61.4995 84.2048 61.5795C84.3248 61.6515 84.4608 61.7195 84.6128 61.7835C84.7728 61.8395 84.9368 61.8995 85.1048 61.9635C85.3128 62.0435 85.5208 62.1275 85.7288 62.2155C85.9448 62.3035 86.1368 62.4155 86.3048 62.5515C86.4728 62.6795 86.6088 62.8395 86.7128 63.0315C86.8248 63.2235 86.8808 63.4555 86.8808 63.7275C86.8808 63.9675 86.8328 64.1915 86.7368 64.3995C86.6488 64.6075 86.5128 64.7915 86.3288 64.9515C86.1528 65.1115 85.9288 65.2355 85.6568 65.3235C85.3928 65.4195 85.0888 65.4675 84.7448 65.4675Z" fill="white"/>
<path fill-rule="evenodd" clip-rule="evenodd" d="M71.1876 11.7627C70.2974 10.4776 68.7379 9.83186 67.1998 10.1115C65.6617 10.3912 64.4293 11.5446 64.0484 13.0608C63.962 13.0519 63.8751 13.0474 63.7881 13.0473C62.4165 13.0479 61.3049 14.1599 61.3048 15.5315C61.3047 16.903 62.4162 18.0152 63.7878 18.0159H71.8361C73.5815 18.0159 74.9964 16.601 74.9964 14.8556C74.9964 13.1102 73.5815 11.6952 71.8361 11.6952V11.6952C71.6182 11.6954 71.4009 11.718 71.1876 11.7627Z" fill="url(#paint1_linear)"/>
<path fill-rule="evenodd" clip-rule="evenodd" d="M109.743 24.0796C108.654 22.5072 106.745 21.7171 104.863 22.0593C102.981 22.4015 101.473 23.8128 101.007 25.668C100.902 25.6571 100.795 25.6516 100.689 25.6515C99.0107 25.6522 97.6505 27.0128 97.6504 28.6911C97.6503 30.3693 99.0103 31.7301 100.689 31.731H110.536C112.672 31.731 114.403 29.9997 114.403 27.8641C114.403 25.7284 112.672 23.9971 110.536 23.9971V23.9971C110.27 23.9973 110.004 24.025 109.743 24.0796Z" fill="url(#paint2_linear)"/>
<path fill-rule="evenodd" clip-rule="evenodd" d="M21.3497 27.6183C19.5439 25.0115 16.3803 23.7016 13.2603 24.269C10.1402 24.8363 7.64023 27.176 6.86768 30.2517C6.69223 30.2335 6.51597 30.2244 6.33958 30.2243C3.55727 30.2254 1.3023 32.4811 1.30212 35.2634C1.30195 38.0457 3.55665 40.3018 6.33896 40.3032H22.6652C26.2058 40.3032 29.076 37.433 29.076 33.8924C29.076 30.3518 26.2058 27.4816 22.6652 27.4816V27.4816C22.2231 27.482 21.7823 27.5278 21.3497 27.6183Z" fill="url(#paint3_linear)"/>
<path fill-rule="evenodd" clip-rule="evenodd" d="M67.065 113.512V104.176H65.0452V113.512H67.065ZM85.2271 104.165C85.2271 106.008 85.2312 107.759 85.225 109.51C85.2189 110.674 84.4085 111.493 83.2932 111.482C82.1677 111.474 81.6459 110.891 81.6377 109.596C81.6274 108.064 81.6377 106.53 81.6315 104.999C81.6295 104.721 81.5845 104.443 81.5599 104.178H79.5872C79.5524 104.261 79.5176 104.305 79.5176 104.349C79.5114 106.537 79.4767 108.729 79.5176 110.916C79.538 111.982 80.0292 112.816 81.0585 113.263C82.1125 112.546 83.2789 112.609 84.4474 112.755C85.4011 112.876 86.3342 112.809 87.3595 112.598C87.3513 109.777 87.382 106.978 87.339 104.165H85.2271ZM76.1266 104.41C75.2835 104.013 74.3851 103.842 73.4847 104.059C72.7398 104.239 72.0297 104.567 71.2828 104.838C70.9594 104.552 70.589 104.226 70.1838 103.865C69.6784 104.328 69.2404 104.727 68.8045 105.127C69.7377 106.322 69.7377 106.322 69.7377 107.878C69.7377 109.483 69.7377 111.09 69.7397 112.695C69.7397 112.954 69.7623 113.215 69.7766 113.507H71.8598V108.277C71.8598 107.141 72.441 106.378 73.5257 106.092C74.7944 105.758 75.4575 106.269 75.4616 107.603C75.4677 109.303 75.4615 111.006 75.4656 112.709C75.4656 112.968 75.4902 113.227 75.5045 113.491H77.555C77.555 111.079 77.596 108.722 77.5366 106.368C77.5121 105.461 76.9432 104.794 76.1266 104.41ZM51.5444 107.519C50.5212 108.57 49.2504 108.125 48.0532 108.196C48.1392 106.898 49.1358 105.908 50.2122 105.983C51.2231 106.054 51.614 106.472 51.5444 107.519ZM51.7228 111.349C50.9984 111.644 50.2473 111.729 49.4779 111.571C48.7125 111.414 48.3442 111.04 48.1989 110.215C48.6348 110.215 49.0563 110.213 49.4758 110.215C50.4663 110.225 51.4281 110.083 52.3122 109.602C54.1192 108.618 54.3422 106.071 52.7071 104.851C50.9738 103.556 48.3871 103.666 46.8891 105.486C45.7677 106.851 45.5488 108.447 45.8168 110.156C46.0378 111.552 46.7439 112.607 47.9738 113.236C49.7214 114.13 52.658 113.656 54.1847 112.248C53.8429 111.742 53.497 111.23 53.1553 110.72C52.6376 110.95 52.1853 111.163 51.7228 111.349ZM88.184 107.513C88.051 107.532 87.9282 107.617 87.7768 107.684V109.811C88.0571 109.765 88.2884 109.709 88.5216 109.694C89.1069 109.657 89.6799 109.981 89.8887 110.446C90.124 110.969 89.9889 111.715 89.5387 112.118C89.3116 112.321 89.0414 112.525 88.757 112.603C88.0735 112.789 87.3736 112.989 86.6717 113.019C85.3886 113.075 84.0993 112.989 82.8142 113.029C81.7746 113.062 80.7964 113.606 80.2561 114.513C79.3189 116.088 79.7589 118.274 81.175 119.335C82.5502 120.365 84.6007 120.181 85.8183 118.902C86.6962 117.981 87.0748 116.832 87.2733 115.511H85.1266C85.053 115.749 84.9875 116.032 84.881 116.297C84.7644 116.587 84.6437 116.884 84.4718 117.141C84.0461 117.776 83.2808 117.985 82.6443 117.678C82.1409 117.436 81.8094 116.732 81.9199 116.14C82.055 115.415 82.4192 115.158 83.3442 115.156C84.6539 115.152 85.9636 115.198 87.2713 115.154C88.581 115.108 89.8048 114.724 90.8505 113.879C92.0845 112.885 92.506 111.084 91.8737 109.592C91.2905 108.217 89.6697 107.3 88.184 107.513ZM58.8564 111.644C58.4533 111.642 58.0501 111.577 57.5283 111.531C57.5283 110.07 57.4751 108.662 57.5508 107.26C57.5876 106.564 58.1811 106.178 58.7971 105.998C59.5154 105.787 60.2214 105.848 60.7841 106.445C61.7419 107.467 61.8503 109.596 61.0092 110.727C60.4629 111.46 59.6934 111.648 58.8564 111.644ZM59.1389 103.846C58.6252 103.877 58.1198 104.046 57.5243 104.172V100.22H55.3612V113.173C56.3312 113.518 58.2978 113.768 59.2821 113.687C61.6355 113.493 63.1253 112.279 63.5858 110.028C63.7495 109.236 63.7577 108.374 63.6431 107.571C63.3013 105.156 61.5107 103.704 59.1389 103.846ZM41.64 109.331H41.4497C40.8521 107.605 40.2525 105.881 39.655 104.16H37.7907C37.1849 105.9 36.5853 107.624 35.9857 109.35H35.8118C35.204 107.607 34.5962 105.865 34.0089 104.183H31.7824C32.8649 107.348 33.9209 110.434 34.9768 113.521H36.8145L38.6338 108.299H38.818C39.4258 110.05 40.0315 111.803 40.627 113.516H42.4688C43.5288 110.418 44.5848 107.329 45.6633 104.174H43.4347C42.8392 105.89 42.2396 107.609 41.64 109.331Z" fill="#FA5A28"/>
<path d="M60.9551 84.0951V99.8035" stroke="#FA5A28" stroke-linecap="round" stroke-linejoin="round" stroke-dasharray="2 3"/>
<path d="M93.8679 83.3464L110.324 97.8794L96.112 108.779" stroke="#FA5A28" stroke-linecap="round" stroke-linejoin="round" stroke-dasharray="2 3"/>
<path d="M28.0423 83.3472L11.5859 97.8801L25.7983 108.78" stroke="#FA5A28" stroke-linecap="round" stroke-linejoin="round" stroke-dasharray="2 3"/>
<defs>
<linearGradient id="paint0_linear" x1="151.205" y1="26.6875" x2="62.2039" y2="26.6875" gradientUnits="userSpaceOnUse">
<stop stop-color="#9033EA"/>
<stop offset="1" stop-color="#483EB7"/>
</linearGradient>
<linearGradient id="paint1_linear" x1="81.8422" y1="10.0471" x2="68.1506" y2="10.0471" gradientUnits="userSpaceOnUse">
<stop stop-color="#9033EA"/>
<stop offset="1" stop-color="#483EB7"/>
</linearGradient>
<linearGradient id="paint2_linear" x1="122.78" y1="21.9805" x2="106.027" y2="21.9805" gradientUnits="userSpaceOnUse">
<stop stop-color="#9033EA"/>
<stop offset="1" stop-color="#483EB7"/>
</linearGradient>
<linearGradient id="paint3_linear" x1="42.9629" y1="24.1383" x2="15.1891" y2="24.1383" gradientUnits="userSpaceOnUse">
<stop stop-color="#9033EA"/>
<stop offset="1" stop-color="#483EB7"/>
</linearGradient>
</defs>
</svg>
