<svg width="240" height="187" viewBox="0 0 240 187" fill="none" xmlns="http://www.w3.org/2000/svg">
<g id="Octocat">
<g id="Group">
<path id="path-1 path Copy 4" opacity="0.7" d="M74.9192 14.7342L74.9192 14.7342L148.487 6.41162L148.431 5.91479L148.487 6.41161C155.264 5.64455 162.033 8.66641 166.237 14.3573L211.728 75.9408L212.13 75.6437L211.728 75.9408C215.933 81.6314 216.921 89.1144 214.33 95.5658L186.255 165.472C183.665 171.921 177.894 176.358 171.118 177.125L97.5519 185.448C90.7746 186.214 84.0058 183.192 79.8019 177.502L34.3095 115.919C30.1054 110.227 29.1166 102.745 31.7076 96.2933L59.7828 26.3869C62.3727 19.9381 68.1439 15.5 74.9192 14.7342Z" stroke="#7B39D9" stroke-opacity="0.6"/>
<path id="path-1 path Copy 3" opacity="0.7" d="M60.1032 74.3612L60.1033 74.3612L99.7782 34.2482L99.7782 34.2482C103.411 30.5747 108.652 29.0996 113.523 30.3653L113.649 29.8815L113.523 30.3653L166.872 44.2242L166.997 43.7402L166.872 44.2242C171.742 45.4888 175.513 49.3031 176.763 54.2361L190.437 108.208C191.687 113.142 190.223 118.447 186.589 122.121L146.915 162.234C143.282 165.907 138.041 167.382 133.17 166.117L79.821 152.258C74.9509 150.993 71.1799 147.179 69.9301 142.246L56.256 88.2748C55.0057 83.34 56.4697 78.0343 60.1032 74.3612Z" stroke="#7B39D9" stroke-opacity="0.45098"/>
<path id="path-1 path Copy 2" opacity="0.7" d="M95.1186 59.7594L94.6798 59.5196L95.1186 59.7594C96.8295 56.6291 100.026 54.733 103.5 54.771L103.5 54.771L142.217 55.1919L142.223 54.6919L142.217 55.1919C145.694 55.2295 148.941 57.1986 150.725 60.3784L170.453 95.5402L170.453 95.5403C172.238 98.7207 172.276 102.613 170.563 105.746L151.574 140.487C149.863 143.617 146.667 145.513 143.193 145.476L104.475 145.055C100.999 145.017 97.7516 143.048 95.9676 139.869L76.2393 104.706C74.4548 101.525 74.4163 97.6338 76.1289 94.5007L95.1186 59.7594Z" stroke="#7B39D9" stroke-opacity="0.298039"/>
<path id="path-1 path Copy 5" opacity="0.7" d="M111.123 97.0961L110.69 96.8463L111.123 97.0961L116.238 88.2414L116.238 88.2414C116.631 87.5597 117.363 87.1398 118.159 87.1426L118.159 87.1426L128.45 87.1779C128.45 87.1779 128.45 87.1779 128.45 87.1779C129.247 87.1807 129.984 87.6065 130.385 88.2946L130.385 88.2946L135.561 97.1847C135.961 97.8725 135.963 98.7153 135.569 99.397L130.455 108.252C130.061 108.933 129.33 109.353 128.533 109.35L118.243 109.315C117.446 109.312 116.708 108.887 116.308 108.199L111.132 99.3084C110.731 98.6206 110.729 97.7776 111.123 97.0961Z" stroke="#7B39D9" stroke-opacity="0.14902"/>
<path id="path-1 path Copy" opacity="0.7" d="M100.82 82.1843L100.82 82.1843L120.574 70.8754L120.574 70.8754C122.289 69.8931 124.403 69.8931 126.119 70.8754L126.119 70.8754L145.872 82.1843L145.872 82.1843C147.587 83.166 148.642 84.9789 148.642 86.9387V109.557C148.642 111.516 147.587 113.329 145.872 114.311L126.119 125.62C124.403 126.602 122.289 126.602 120.574 125.62C120.574 125.62 120.574 125.62 120.574 125.62L100.82 114.311C99.1051 113.329 98.0508 111.516 98.0508 109.557V86.9387C98.0508 84.9789 99.1051 83.166 100.82 82.1843Z" stroke="#7B39D9" stroke-opacity="0.14902"/>
</g>
<g id="Group 2">
<path id="Triangle Copy 12" fill-rule="evenodd" clip-rule="evenodd" d="M5.10754 74.3064L1.17687 66.5879L9.37515 67.2696L5.10754 74.3064Z" stroke="url(#paint0_linear)" stroke-linecap="round" stroke-linejoin="round" stroke-dasharray="2 2"/>
<path id="Triangle 12" fill-rule="evenodd" clip-rule="evenodd" d="M36.2524 36.625L37.8435 23.7313L47.4648 31.4507L36.2524 36.625Z" stroke="url(#paint1_linear)" stroke-linecap="round" stroke-linejoin="round" stroke-dasharray="2 2"/>
<path id="Triangle Copy 10" fill-rule="evenodd" clip-rule="evenodd" d="M139.02 16.134L127.769 9.62954L138.634 3.79479L139.02 16.134Z" stroke="url(#paint2_linear)" stroke-linecap="round" stroke-linejoin="round" stroke-dasharray="2 2"/>
<ellipse id="Ellipse Copy 5" cx="178.693" cy="32.4042" rx="4.49895" ry="4.49718" transform="rotate(-16 178.693 32.4042)" stroke="url(#paint3_linear)" stroke-linecap="round" stroke-linejoin="round" stroke-dasharray="2 2"/>
<path id="Triangle Copy 9" fill-rule="evenodd" clip-rule="evenodd" d="M176.444 178.256L176.597 169.597L183.517 174.047L176.444 178.256Z" stroke="url(#paint4_linear)" stroke-linecap="round" stroke-linejoin="round" stroke-dasharray="2 2"/>
<path id="Triangle Copy 8" fill-rule="evenodd" clip-rule="evenodd" d="M223.078 128.045L230.538 117.406L235.408 128.739L223.078 128.045Z" stroke="url(#paint5_linear)" stroke-linecap="round" stroke-linejoin="round" stroke-dasharray="2 2"/>
<ellipse id="Ellipse Copy 4" cx="225.519" cy="65.1108" rx="4.49711" ry="4.49905" transform="rotate(79 225.519 65.1108)" stroke="url(#paint6_linear)" stroke-linecap="round" stroke-linejoin="round" stroke-dasharray="2 2"/>
<ellipse id="Ellipse 2 Copy 4" cx="184.642" cy="125.348" rx="3.74758" ry="3.7492" transform="rotate(79 184.642 125.348)" stroke="url(#paint7_linear)" stroke-linecap="round" stroke-linejoin="round" stroke-dasharray="2 2"/>
<path id="Triangle Copy 7" fill-rule="evenodd" clip-rule="evenodd" d="M46.5212 173.43L46.6745 164.77L53.5944 169.221L46.5212 173.43Z" stroke="url(#paint8_linear)" stroke-linecap="round" stroke-linejoin="round" stroke-dasharray="2 2"/>
<path id="Triangle Copy 6" fill-rule="evenodd" clip-rule="evenodd" d="M45.5967 92.5002L53.0561 81.8614L57.9261 93.1943L45.5967 92.5002Z" stroke="url(#paint9_linear)" stroke-linecap="round" stroke-linejoin="round" stroke-dasharray="2 2"/>
<ellipse id="Ellipse Copy 3" cx="10.6301" cy="128.615" rx="4.49711" ry="4.49903" transform="rotate(79 10.6301 128.615)" stroke="url(#paint10_linear)" stroke-linecap="round" stroke-linejoin="round" stroke-dasharray="2 2"/>
<ellipse id="Ellipse 2 Copy 3" cx="60.9925" cy="123.853" rx="3.74758" ry="3.74918" transform="rotate(79 60.9925 123.853)" stroke="url(#paint11_linear)" stroke-linecap="round" stroke-linejoin="round" stroke-dasharray="2 2"/>
</g>
<g id="Group_2">
<path id="Shape" fill-rule="evenodd" clip-rule="evenodd" d="M103.91 110.564C98.8857 109.599 94.0622 108.112 89.6608 105.419C85.9628 103.148 82.9683 100.194 80.8379 96.4152C80.5565 95.8927 80.2551 95.7319 79.6722 95.752C68.94 96.2143 58.3284 97.4402 47.9378 100.274C47.7167 100.334 47.3148 100.656 47.1741 100.174C47.0535 99.7113 47.5358 99.7917 47.7569 99.7314C54.2284 97.9628 60.8004 96.8172 67.4528 96.0736C71.3517 95.6515 75.2507 95.3099 79.1698 95.2295C80.0742 95.2094 79.9335 94.928 79.7526 94.2447C79.3306 92.7574 78.4663 92.3756 76.9389 92.3555C67.2317 92.1746 57.6048 92.657 48.0383 94.4256C47.6765 94.4858 47.0334 94.9079 46.9128 94.3653C46.7922 93.7824 47.5157 93.9633 47.8775 93.8829C57.4039 92.0942 67.0106 91.5516 76.6776 91.8129C77.3208 91.833 77.9438 91.8129 78.6673 91.8129C78.1247 89.9639 77.5619 88.1551 77.2806 86.286C76.3159 80.0355 75.8335 73.7851 77.7629 67.595C78.8683 64.0377 80.6771 60.8623 83.1491 58.0687C83.6315 57.526 83.732 57.1241 83.5109 56.4207C81.6418 50.532 82.2648 44.7438 84.3751 39.0361C84.5962 38.4331 85.0383 38.4532 85.5006 38.4331C87.9123 38.3326 90.2236 38.9155 92.4544 39.7194C96.3132 41.1061 99.8504 43.1159 103.247 45.4071C103.749 45.7487 104.192 45.8492 104.815 45.6884C115.446 43.0154 126.118 42.8747 136.83 45.2865C137.534 45.4473 138.016 45.3267 138.579 44.9448C142.538 42.3723 146.658 40.1013 151.281 38.9155C152.748 38.5336 154.235 38.3326 155.762 38.413C156.345 38.4331 156.647 38.6542 156.848 39.217C158.757 44.5027 159.4 49.8688 157.953 55.3756C157.812 55.8981 157.933 56.2197 158.295 56.6015C163.601 62.1887 166.073 68.8813 166.012 76.5586C165.992 81.6836 165.711 86.7884 164.405 91.833C165.249 91.833 166.032 91.8531 166.836 91.833C176.644 91.5516 186.371 92.0942 196.038 93.8829C196.139 93.903 196.26 93.8829 196.34 93.9231C196.581 94.0839 197.164 93.8427 197.063 94.3452C196.963 94.8677 196.501 94.5261 196.219 94.4658C186.03 92.5967 175.76 92.054 165.409 92.4158C164.445 92.456 164.023 92.7374 163.781 93.6418C163.359 95.1692 163.299 95.1491 164.907 95.2094C175.438 95.6113 185.849 96.9177 196.038 99.6711C196.239 99.7314 196.42 99.7716 196.621 99.8319C196.742 99.8721 196.883 99.9324 196.822 100.093C196.762 100.234 196.722 100.415 196.481 100.354C196.059 100.234 195.636 100.153 195.214 100.033C188.441 98.224 181.548 97.1187 174.594 96.4353C171.017 96.0736 167.459 95.8927 163.882 95.7118C163.46 95.6917 163.058 95.5912 162.817 96.154C159.903 102.545 154.697 106.243 148.266 108.534C143.945 110.062 139.483 110.866 134.961 111.348C134.74 111.368 134.479 111.308 134.298 111.509C133.936 111.911 133.454 111.85 132.992 111.85C125.937 111.85 118.903 111.87 111.849 111.85C111.125 111.891 110.382 111.911 109.698 111.569C107.769 111.247 105.84 110.946 103.91 110.564Z" fill="#201F1F"/>
<path id="Shape_2" fill-rule="evenodd" clip-rule="evenodd" d="M106.824 114.402C106.925 114.262 107.025 114.141 107.146 114.02C108.955 113.016 110.985 112.955 112.974 112.714C115.507 112.413 118.059 112.634 120.571 112.473C123.385 112.292 126.179 112.433 128.952 112.734C132.148 113.076 135.062 114.161 137.333 116.573C138.237 117.517 138.78 118.703 139.523 119.768C139.986 121.356 139.986 122.984 140.006 124.612C140.046 128.893 140.006 133.154 140.026 137.434C140.026 137.796 140.066 138.158 140.086 138.52C140.408 138.841 140.368 139.243 140.368 139.645C140.388 140.55 140.327 141.454 140.388 142.338C140.508 144.69 141.553 146.539 143.603 147.765C144.086 148.066 144.628 148.247 145.05 148.649C145.834 149.352 145.915 150.056 145.372 150.92C144.287 151.764 143 151.483 141.815 151.402C140.388 151.302 138.981 151.041 137.654 150.418C134.258 149.031 132.69 146.418 132.61 142.821C132.57 141.072 132.59 139.344 132.61 137.595C132.57 134.56 132.61 131.526 132.59 128.471C132.57 126.923 132.369 125.416 131.826 123.949C131.665 123.527 131.525 123.064 131.022 122.602C130.962 127.667 131.042 132.551 130.982 137.434C131.002 140.911 130.982 144.388 130.982 147.865C130.982 150.136 131.545 152.166 133.514 153.573C134.499 155.12 134.198 156.045 132.509 156.748C132.248 156.829 131.967 156.849 131.685 156.849C129.314 156.567 127.224 155.603 125.334 154.176C123.526 152.528 122.702 150.518 122.702 148.026C122.742 139.444 122.782 130.842 122.762 122.261C122.762 121.758 122.802 121.256 122.722 120.773C122.239 119.889 121.998 119.869 121.375 120.633C121.275 121.095 121.315 121.577 121.315 122.039C121.295 130.702 121.355 139.344 121.355 148.006C121.355 150.438 120.491 152.508 118.742 154.196C116.592 155.824 114.261 156.969 111.467 156.849C111.346 156.849 111.246 156.809 111.125 156.789C109.678 155.884 109.578 155.06 110.703 153.533C112.673 152.327 113.155 150.458 113.115 148.287C113.055 144.69 113.095 141.092 113.115 137.495C113.075 132.531 113.135 127.546 113.075 122.502C112.512 122.743 112.412 123.185 112.271 123.567C111.728 125.014 111.507 126.541 111.507 128.089C111.487 131.264 111.527 134.44 111.487 137.595C111.467 139.404 111.527 141.213 111.467 143.022C111.366 146.539 109.718 149.051 106.442 150.458C104.171 151.362 101.82 151.623 99.4082 151.422C98.7651 151.242 98.2024 150.94 98.122 150.196C98.0416 149.413 98.4837 148.87 99.1269 148.488C99.6695 148.167 100.272 147.946 100.815 147.604C102.704 146.498 103.669 144.85 103.669 142.66C103.669 141.715 103.669 140.791 103.669 139.846C103.669 139.444 103.629 139.042 103.95 138.721C104.031 135.244 104.071 131.747 103.93 128.27C103.79 125.677 103.689 123.064 104.111 120.472C104.111 120.311 104.212 120.17 104.312 120.03C104.935 118.06 105.578 116.091 106.824 114.402Z" fill="#201F1F"/>
<path id="Shape_3" fill-rule="evenodd" clip-rule="evenodd" d="M144.387 148.55C141.212 147.083 139.925 144.53 140.026 141.134C140.046 140.269 140.066 139.405 140.086 138.541C146.437 139.606 152.667 141.053 158.375 144.168C160.284 145.213 162.073 146.439 163.4 148.228C165.409 150.941 165.249 153.916 162.917 156.428C160.666 158.84 157.832 160.327 154.858 161.553C150.236 163.462 145.392 164.588 140.488 165.432C140.368 165.452 140.227 165.432 140.086 165.432C139.805 165.13 139.825 164.769 139.825 164.387C139.825 162.156 139.785 159.925 139.825 157.694C139.885 154.981 141.794 152.388 144.347 151.424C144.729 151.263 145.03 151.022 145.291 150.72C145.673 149.776 145.412 149.012 144.387 148.55Z" fill="#9BD9EF"/>
<path id="Shape_4" fill-rule="evenodd" clip-rule="evenodd" d="M103.91 143.403C103.669 145.695 102.323 147.222 100.313 148.187C99.951 148.368 99.5691 148.488 99.2274 148.689C98.6647 148.991 98.2828 149.433 98.2828 150.096C98.2828 150.779 98.8255 150.94 99.3078 151.181C102.343 152.186 104.192 154.739 104.212 157.954C104.212 159.964 104.212 161.954 104.212 163.963C104.212 164.386 104.292 164.848 103.93 165.189C97.2579 164.024 90.7261 162.416 84.958 158.638C83.6918 157.814 82.5664 156.809 81.7022 155.563C79.7929 152.809 80.0341 149.996 82.3051 147.524C84.4154 145.232 87.1085 143.805 89.9021 142.6C94.3839 140.71 99.1069 139.545 103.93 138.721C104.031 140.288 104.071 141.856 103.91 143.403Z" fill="#9BD9EF"/>
<path id="Shape_5" fill-rule="evenodd" clip-rule="evenodd" d="M82.9281 120.472C82.3453 119.427 81.7423 118.382 81.1193 117.357C79.7526 115.106 77.9438 113.337 75.5321 112.192C74.688 111.79 73.864 111.328 73.241 110.604C72.5174 109.8 72.6782 109.137 73.6831 108.755C75.2909 108.132 76.9189 108.373 78.4865 108.916C81.5413 109.941 83.7923 111.951 85.5006 114.624C86.4452 116.091 87.3898 117.538 88.7163 118.704C92.6956 122.241 97.2176 122.502 102.041 120.914C102.664 120.713 103.287 120.452 103.91 120.211C104.252 120.633 104.031 121.015 103.85 121.397C102.523 122.1 102.523 122.1 103.649 123.125C103.689 123.165 103.709 123.246 103.729 123.306C103.91 124.713 103.79 126.14 103.81 127.547C103.79 127.828 103.689 128.069 103.508 128.27C95.4691 130.119 87.4903 128.672 82.9281 120.472Z" fill="#201F1F"/>
<path id="Shape_6" fill-rule="evenodd" clip-rule="evenodd" d="M144.146 151.744C141.513 152.95 140.247 155.101 140.106 157.894C139.986 160.386 140.086 162.898 140.066 165.411C137.815 165.813 135.544 166.134 133.273 166.275C132.449 166.375 132.57 165.712 132.549 165.29C132.489 163.763 132.529 162.215 132.529 160.688C132.509 159.321 132.59 157.954 132.409 156.588C133.936 155.884 134.157 155.322 133.414 153.834C134.318 152.005 135.946 151.061 137.674 150.217C139.503 150.88 141.372 151.242 143.302 151.242C144.025 151.222 144.689 151.141 145.291 150.719C145.111 151.282 144.628 151.523 144.146 151.744Z" fill="#7CB9E5"/>
<path id="Shape_7" fill-rule="evenodd" clip-rule="evenodd" d="M103.89 157.935C103.85 154.94 102.403 152.85 99.7096 151.584C99.5287 151.504 99.3679 151.403 99.2675 151.202C101.679 151.303 104.031 151.061 106.302 150.197C108.151 150.901 109.698 151.986 110.663 153.775C109.839 155.242 109.919 155.784 111.125 156.608C111.447 156.97 111.447 157.392 111.447 157.834C111.447 160.226 111.467 162.618 111.447 165.009C111.447 165.431 111.467 165.874 111.105 166.215C108.713 166.054 106.282 165.793 103.91 165.23C103.91 162.799 103.93 160.367 103.89 157.935Z" fill="#7CB9E5"/>
<path id="Shape_8" fill-rule="evenodd" clip-rule="evenodd" d="M122.983 121.597C122.963 130.179 122.983 138.761 122.903 147.342C122.883 150.035 123.606 152.327 125.656 154.135C125.777 154.618 125.495 154.959 125.274 155.321C124.068 157.19 123.566 159.28 123.506 161.471C123.465 162.838 123.506 164.204 123.485 165.571C123.485 165.993 123.546 166.455 123.204 166.797C121.456 166.717 119.687 167.038 117.938 166.656C118.481 166.154 119.144 166.375 119.747 166.355C120.35 166.335 120.752 166.154 120.672 165.491C120.431 163.2 120.672 160.888 120.169 158.617C119.888 157.391 119.426 156.266 118.762 155.221C118.562 154.899 118.24 154.598 118.34 154.135C120.33 152.246 121.054 149.895 121.034 147.182C120.973 138.58 120.993 129.998 121.013 121.396C121.013 121.014 120.873 120.592 121.174 120.23C121.636 120.693 121.516 121.296 121.516 121.838C121.536 126.36 121.516 130.862 121.536 135.384C121.536 135.826 121.295 136.61 121.958 136.63C122.722 136.65 122.481 135.826 122.481 135.364C122.501 130.923 122.481 126.481 122.501 122.019C122.501 121.497 122.36 120.894 122.842 120.431C123.104 120.793 122.983 121.215 122.983 121.597Z" fill="#9BD9EF"/>
<path id="Shape_9" fill-rule="evenodd" clip-rule="evenodd" d="M123.586 158.558C123.968 156.93 124.792 155.543 125.656 154.156C127.465 155.443 129.434 156.327 131.665 156.648C131.846 156.89 131.806 157.171 131.726 157.412C130.902 159.864 130.922 162.396 130.962 164.949C130.962 165.471 131.042 166.034 130.68 166.496C128.188 166.758 125.696 166.918 123.224 166.838C123.305 164.085 122.943 161.311 123.586 158.558Z" fill="#7CB9E5"/>
<path id="Shape_10" fill-rule="evenodd" clip-rule="evenodd" d="M120.812 161.492C120.812 162.919 120.913 164.346 120.993 165.793C121.033 166.436 120.832 166.717 120.149 166.677C119.426 166.637 118.682 166.677 117.938 166.697C116.411 166.697 114.884 166.677 113.356 166.436C112.974 166.034 113.075 165.511 113.055 165.009C112.994 163.361 113.175 161.693 112.934 160.025C112.753 158.739 112.592 157.412 111.346 156.628C113.999 156.689 116.27 155.684 118.36 154.156C120.049 156.307 120.812 158.759 120.812 161.492Z" fill="#7CB9E5"/>
<path id="Shape_11" fill-rule="evenodd" clip-rule="evenodd" d="M139.121 119.709C138.197 118.081 137.172 116.533 135.604 115.408C133.595 113.981 131.303 113.378 128.912 112.976C127.123 112.675 125.294 112.634 123.546 112.695C120.451 112.795 117.335 112.655 114.24 112.956C112.492 113.137 110.743 113.298 108.995 113.599C108.372 113.7 107.829 114.222 107.146 114.041C107.849 113.056 108.713 112.253 109.698 111.589C110.321 111.228 110.924 111.609 111.547 111.609C119.124 111.589 126.721 111.589 134.298 111.589C137.071 113.639 138.88 116.332 139.523 119.769C139.302 120.452 139.202 119.829 139.121 119.709Z" fill="black"/>
<path id="Shape_12" fill-rule="evenodd" clip-rule="evenodd" d="M131.042 158.738C131.223 158.035 131.444 157.332 131.645 156.648C131.906 156.628 132.148 156.608 132.409 156.588C132.992 156.708 132.851 157.171 132.851 157.532C132.851 160.125 132.851 162.718 132.871 165.31C132.871 165.672 132.69 166.155 133.273 166.275C132.429 166.617 131.525 166.376 130.66 166.476C130.701 163.883 130.399 161.291 131.042 158.738Z" fill="#9BD9EF"/>
<path id="Shape_13" fill-rule="evenodd" clip-rule="evenodd" d="M112.974 158.457C113.537 160.728 113.276 163.04 113.356 165.311C113.376 165.673 113.356 166.054 113.376 166.416C112.633 166.356 111.889 166.275 111.145 166.215C111.145 163.02 111.165 159.804 111.165 156.608C111.206 156.629 111.286 156.629 111.346 156.629C112.492 156.689 112.733 157.513 112.974 158.457Z" fill="#9BD9EF"/>
<path id="Shape_14" fill-rule="evenodd" clip-rule="evenodd" d="M75.5924 116.172C75.7732 116.815 75.6527 117.378 75.1502 117.8C74.7683 118.121 74.286 118.121 73.8438 117.88C73.2007 117.559 73.0198 116.956 73.1605 116.353C73.4821 114.946 73.9242 113.559 74.3061 112.152C74.3865 112.152 74.4468 112.152 74.5071 112.172C74.8688 113.499 75.2306 114.825 75.5924 116.172Z" fill="#9CD9EF"/>
<path id="Shape_15" fill-rule="evenodd" clip-rule="evenodd" d="M103.89 120.211C103.95 119.97 104.151 120.05 104.312 120.03C104.051 122.522 104.131 125.015 104.091 127.507C104.091 127.768 103.97 128.009 103.91 128.27C103.769 128.27 103.649 128.27 103.508 128.27C103.508 126.522 103.508 124.773 103.508 123.025C103.106 122.462 103.287 121.94 103.689 121.477C103.749 121.055 103.83 120.633 103.89 120.211Z" fill="#030303"/>
<path id="Shape_16" fill-rule="evenodd" clip-rule="evenodd" d="M153.29 97.9432C150.899 103.229 146.357 105.701 140.991 106.947C136.79 107.932 132.529 108.153 128.249 108.253C121.114 108.414 113.999 108.474 106.925 107.349C103.408 106.786 100.011 105.862 96.8558 104.153C91.7711 101.38 89.0579 97.0187 88.254 91.3511C88.053 89.9242 87.9324 88.4973 88.053 87.0502C88.4951 82.5483 90.8667 79.1317 94.2833 76.3582C96.5946 74.469 99.368 73.8661 102.262 73.7254C106 73.5445 109.739 73.9063 113.477 74.2278C118.24 74.6499 123.003 74.8308 127.786 74.3685C132.168 73.9465 136.569 73.4842 140.991 73.6852C144.528 73.846 147.723 74.8911 150.256 77.4435C152.848 80.0763 154.778 83.0709 155.139 86.8693C155.32 90.6879 154.878 94.4261 153.29 97.9432Z" fill="#F3C9B0"/>
<path id="Shape_17" fill-rule="evenodd" clip-rule="evenodd" d="M152.587 80.7384C150.336 77.5228 147.583 75.0105 143.543 74.3272C140.629 73.8248 137.695 73.9253 134.76 74.1463C132.992 74.2669 131.243 74.5081 129.495 74.5885C126.46 74.7292 123.445 75.1512 120.41 74.9904C117.114 74.8096 113.838 74.5684 110.542 74.287C106.764 73.9655 102.945 73.664 99.167 74.4277C95.7303 75.1311 93.2382 77.2012 91.2083 79.9144C89.6005 82.0448 88.5554 84.4364 88.053 87.0692C88.0128 83.7531 89.4196 81.0198 91.3289 78.4473C94.3838 74.3272 98.5641 72.639 103.568 72.5787C107.849 72.5184 112.11 72.9204 116.391 73.1415C120.069 73.3223 123.747 73.3223 127.425 73.0812C131.967 72.7797 136.489 72.3576 141.051 72.5988C147.623 72.9606 153.733 78.3669 154.979 84.8786C155.099 85.5418 155.22 86.205 155.139 86.8682C154.617 84.6977 153.893 82.5874 152.587 80.7384Z" fill="#C39A85"/>
<path id="Shape_18" fill-rule="evenodd" clip-rule="evenodd" d="M108.392 151.524C107.709 151.082 106.885 150.841 106.322 150.198C109.859 148.61 111.286 145.776 111.145 142.018C111.085 140.591 111.165 139.164 111.165 137.717C111.849 137.355 112.572 137.134 113.316 137.516C113.316 141.475 113.336 145.455 113.336 149.414C113.336 151.404 112.452 152.871 110.683 153.795C109.799 153.172 109.316 152.127 108.392 151.524Z" fill="#9BD9EF"/>
<path id="Shape_19" fill-rule="evenodd" clip-rule="evenodd" d="M135.986 151.343C134.981 152.026 134.278 153.011 133.414 153.815C131.303 152.709 130.741 150.719 130.68 148.589C130.58 144.891 130.66 141.193 130.68 137.495C131.444 137.073 132.168 137.073 132.831 137.676C132.851 139.445 132.851 141.213 132.891 142.982C132.931 146.419 134.579 148.79 137.674 150.197C137.353 150.92 136.549 150.961 135.986 151.343Z" fill="#9BD9EF"/>
<path id="Shape_20" fill-rule="evenodd" clip-rule="evenodd" d="M111.185 137.717C111.206 133.697 110.944 129.698 111.366 125.678C111.467 124.673 111.748 123.709 112.231 122.824C112.472 122.362 112.733 121.9 113.356 121.578C113.336 126.984 113.336 132.25 113.336 137.516C112.612 137.576 111.889 137.656 111.185 137.717Z" fill="#FEFEFE"/>
<path id="Shape_21" fill-rule="evenodd" clip-rule="evenodd" d="M130.66 137.515C130.66 132.33 130.66 127.145 130.66 121.899C131.243 122.06 131.404 122.543 131.645 122.945C132.449 124.371 132.771 125.979 132.791 127.567C132.871 130.923 132.831 134.32 132.811 137.696C132.107 137.475 131.384 137.536 130.66 137.515Z" fill="#FEFEFE"/>
<path id="Shape_22" fill-rule="evenodd" clip-rule="evenodd" d="M122.802 136.168C122.802 136.671 122.882 137.093 122.079 137.173C121.275 137.254 121.154 137.012 121.154 136.289C121.174 130.943 121.154 125.597 121.154 120.251C121.837 119.527 122.34 119.588 122.842 120.432C122.822 125.677 122.802 130.923 122.802 136.168Z" fill="#FCFCFC"/>
<path id="Shape_23" fill-rule="evenodd" clip-rule="evenodd" d="M87.9927 119.287C87.9927 119.749 87.7515 120.071 87.249 120.031C86.4853 119.95 86.0633 119.448 85.9427 118.724C85.8623 118.262 86.1035 117.961 86.6059 117.92C87.2089 117.9 87.9927 118.664 87.9927 119.287Z" fill="#99D5EB"/>
<path id="Shape_24" fill-rule="evenodd" clip-rule="evenodd" d="M89.0981 121.638C89.1584 121.076 89.5604 120.955 90.0427 120.995C90.7461 121.056 91.2888 121.417 91.3691 122.141C91.4294 122.664 90.9873 122.844 90.6657 122.844C89.8216 122.804 89.0378 122.161 89.0981 121.638Z" fill="#98D4E9"/>
<path id="Shape_25" fill-rule="evenodd" clip-rule="evenodd" d="M93.2582 123.085C93.2381 122.462 93.7808 122.382 94.2832 122.382C94.9264 122.382 95.5695 122.583 95.6097 123.306C95.6499 123.949 95.067 124.05 94.4641 124.07C93.9014 123.99 93.2783 123.849 93.2582 123.085Z" fill="#99D6EB"/>
<path id="Shape_26" fill-rule="evenodd" clip-rule="evenodd" d="M97.8607 123.306C97.8607 122.623 98.4436 122.462 99.0063 122.462C99.6093 122.442 100.252 122.643 100.232 123.347C100.212 123.99 99.5892 124.09 99.0063 124.13C98.4838 124.07 97.8808 124.01 97.8607 123.306Z" fill="#99D6EB"/>
<path id="Shape_27" fill-rule="evenodd" clip-rule="evenodd" d="M83.3501 115.408C83.2898 114.966 83.4305 114.624 83.9731 114.604C84.5359 114.584 85.2192 115.327 85.1991 115.951C85.1589 116.332 84.9981 116.634 84.4555 116.654C83.7923 116.553 83.4305 116.091 83.3501 115.408Z" fill="#98D4EA"/>
<path id="Shape_28" fill-rule="evenodd" clip-rule="evenodd" d="M82.5864 112.935C82.6266 113.297 82.3452 113.478 82.0036 113.478C81.3805 113.458 80.9987 113.096 80.8982 112.513C80.8178 112.111 81.0791 111.89 81.481 111.83C82.0839 111.971 82.5261 112.272 82.5864 112.935Z" fill="#97D3E8"/>
<path id="Shape_29" fill-rule="evenodd" clip-rule="evenodd" d="M103.508 123.044C102.905 123.085 102.242 123.004 102.282 122.261C102.343 121.457 102.986 121.316 103.689 121.477C103.629 121.999 103.569 122.522 103.508 123.044Z" fill="#97D3E8"/>
<path id="Shape_30" fill-rule="evenodd" clip-rule="evenodd" d="M78.4261 110.584C78.406 110.202 78.7477 110.121 79.0693 110.142C79.5516 110.182 79.9335 110.383 79.9737 110.905C79.9938 111.267 79.6722 111.367 79.3104 111.367C78.8884 111.267 78.4663 111.086 78.4261 110.584Z" fill="#95CFE4"/>
<path id="Shape_31" fill-rule="evenodd" clip-rule="evenodd" d="M144.889 96.8574C142.237 99.4902 138.579 99.1686 136.308 96.1741C133.152 92.0138 133.152 84.638 136.589 80.6586C139.222 77.6238 143.04 77.6439 145.693 81.1811C147.261 83.2914 147.924 85.7634 147.924 89.5619C147.804 91.7727 147.14 94.6064 144.889 96.8574Z" fill="#FEFEFE"/>
<path id="Shape_32" fill-rule="evenodd" clip-rule="evenodd" d="M108.191 95.9534C105.397 99.6112 101.458 99.6313 98.6645 95.9735C95.4288 91.7329 95.7303 83.7139 99.6292 80.1566C102.383 77.6444 105.679 78.1468 107.849 80.7997C109.738 83.0708 110.361 85.3016 110.361 88.3163C110.422 91.2908 109.839 93.7829 108.191 95.9534Z" fill="#FEFEFE"/>
<path id="Shape_33" fill-rule="evenodd" clip-rule="evenodd" d="M117.757 102.303C117.577 101.881 117.496 101.499 117.958 101.278C118.421 101.057 118.622 101.439 118.782 101.781C120.029 104.414 123.465 104.333 124.611 101.74C124.772 101.399 124.973 101.037 125.435 101.298C125.837 101.519 125.797 101.861 125.636 102.243C125.033 103.77 123.445 104.795 121.677 104.795C119.948 104.795 118.421 103.811 117.757 102.303Z" fill="#AC5C51"/>
<path id="Shape_34" fill-rule="evenodd" clip-rule="evenodd" d="M121.757 99.3101C120.833 99.3302 119.988 98.4861 119.988 97.5415C120.009 96.5969 120.752 95.793 121.657 95.7729C122.601 95.7327 123.405 96.5567 123.425 97.5415C123.425 98.4459 122.641 99.2699 121.757 99.3101Z" fill="#AC5C51"/>
<path id="Shape_35" fill-rule="evenodd" clip-rule="evenodd" d="M137.514 83.2716C139.162 81.5432 141.453 81.5834 143.061 83.352C145.472 86.0049 145.533 91.2303 143.181 93.9435C141.392 95.9935 138.86 95.9332 137.172 93.7827C136.006 92.2955 135.584 90.5671 135.584 88.698C135.604 86.6681 136.067 84.7789 137.514 83.2716Z" fill="#AB5C51"/>
<path id="Shape_36" fill-rule="evenodd" clip-rule="evenodd" d="M101.297 83.3319C102.966 81.5231 105.257 81.5432 106.905 83.352C109.316 85.9849 109.357 91.2706 107.005 93.9436C105.216 95.9734 102.765 95.9332 101.076 93.823C99.8504 92.3357 99.4283 90.5872 99.4283 88.698C99.4283 86.6883 99.9107 84.8393 101.297 83.3319Z" fill="#AB5C51"/>
<path id="Shape_37" fill-rule="evenodd" clip-rule="evenodd" d="M138.739 86.869C137.996 86.8288 137.614 86.3666 137.654 85.6229C137.694 84.8994 138.157 84.5176 138.82 84.5176C139.523 84.5176 139.925 84.9798 139.965 85.7234C139.885 86.447 139.483 86.8891 138.739 86.869Z" fill="#FDFCFC"/>
<path id="Shape_38" fill-rule="evenodd" clip-rule="evenodd" d="M100.755 85.7028C100.755 84.9592 101.338 84.3965 102.101 84.3965C102.865 84.3965 103.448 84.9592 103.448 85.7028C103.448 86.4063 102.805 87.0494 102.101 87.0494C101.398 87.0494 100.775 86.4263 100.755 85.7028Z" fill="#FDFBFB"/>
</g>
</g>
<defs>
<linearGradient id="paint0_linear" x1="13.3082" y1="74.9886" x2="9.37585" y2="67.2709" gradientUnits="userSpaceOnUse">
<stop stop-color="#EE7170"/>
<stop offset="1" stop-color="#8F3DDC"/>
</linearGradient>
<linearGradient id="paint1_linear" x1="45.8807" y1="44.3517" x2="47.464" y2="31.4571" gradientUnits="userSpaceOnUse">
<stop stop-color="#9033EA"/>
<stop offset="1" stop-color="#483EB7"/>
</linearGradient>
<linearGradient id="paint2_linear" x1="149.894" y1="10.2958" x2="138.639" y2="3.79782" gradientUnits="userSpaceOnUse">
<stop stop-color="#9033EA"/>
<stop offset="1" stop-color="#483EB7"/>
</linearGradient>
<linearGradient id="paint3_linear" x1="187.691" y1="27.907" x2="178.693" y2="27.907" gradientUnits="userSpaceOnUse">
<stop stop-color="#7D6DF2"/>
<stop offset="1" stop-color="#C499FB"/>
</linearGradient>
<linearGradient id="paint4_linear" x1="183.366" y1="182.708" x2="183.517" y2="174.049" gradientUnits="userSpaceOnUse">
<stop stop-color="#EE7170"/>
<stop offset="1" stop-color="#8F3DDC"/>
</linearGradient>
<linearGradient id="paint5_linear" x1="227.951" y1="139.388" x2="235.404" y2="128.745" gradientUnits="userSpaceOnUse">
<stop stop-color="#9033EA"/>
<stop offset="1" stop-color="#483EB7"/>
</linearGradient>
<linearGradient id="paint6_linear" x1="234.513" y1="60.6118" x2="225.519" y2="60.6118" gradientUnits="userSpaceOnUse">
<stop stop-color="#7D6DF2"/>
<stop offset="1" stop-color="#C499FB"/>
</linearGradient>
<linearGradient id="paint7_linear" x1="192.138" y1="121.599" x2="184.642" y2="121.599" gradientUnits="userSpaceOnUse">
<stop stop-color="#C6426E"/>
<stop offset="1" stop-color="#933671"/>
</linearGradient>
<linearGradient id="paint8_linear" x1="53.4432" y1="177.882" x2="53.5943" y2="169.222" gradientUnits="userSpaceOnUse">
<stop stop-color="#EE7170"/>
<stop offset="1" stop-color="#8F3DDC"/>
</linearGradient>
<linearGradient id="paint9_linear" x1="50.4696" y1="103.843" x2="57.9223" y2="93.1997" gradientUnits="userSpaceOnUse">
<stop stop-color="#9033EA"/>
<stop offset="1" stop-color="#483EB7"/>
</linearGradient>
<linearGradient id="paint10_linear" x1="19.6243" y1="124.116" x2="10.6301" y2="124.116" gradientUnits="userSpaceOnUse">
<stop stop-color="#7D6DF2"/>
<stop offset="1" stop-color="#C499FB"/>
</linearGradient>
<linearGradient id="paint11_linear" x1="68.4877" y1="120.104" x2="60.9925" y2="120.104" gradientUnits="userSpaceOnUse">
<stop stop-color="#C6426E"/>
<stop offset="1" stop-color="#933671"/>
</linearGradient>
</defs>
</svg>
