<svg width="202" height="160" viewBox="0 0 202 160" fill="none" xmlns="http://www.w3.org/2000/svg">
<path d="M56.0982 102.764C42.9731 96.0491 41.771 84.3143 47.0126 65.7387C52.2543 47.163 65.2711 36.6098 85.4515 50.4664C105.632 64.323 118.544 82.3813 96.3228 95.5457C96.3228 95.5457 69.2233 109.479 56.0982 102.764Z" fill="#F2F2F2"/>
<path d="M139.172 64.1481C146.423 59.1249 152.961 61.827 161.263 69.8634C169.566 77.8998 171.443 87.7504 158.419 94.4655C145.395 101.181 132.211 102.869 131.571 87.4183C131.571 87.4183 131.921 69.1713 139.172 64.1481Z" fill="#F2F2F2"/>
<path d="M99.5201 36.1206V50.5015" stroke="#F94F24" stroke-linecap="round" stroke-dasharray="3.4 2.27"/>
<path d="M99.5201 110.311V124.688" stroke="#F94F24" stroke-linecap="round" stroke-dasharray="3.4 2.27"/>
<path d="M37.8851 108.459L56.9473 96.3184" stroke="#F94F24" stroke-linecap="round" stroke-dasharray="3.4 2.27"/>
<path d="M37.8851 53.8745L60.3195 74.3588" stroke="#F94F24" stroke-linecap="round" stroke-dasharray="3.4 2.27"/>
<path d="M162.245 108.459L143.183 96.3184" stroke="#F94F24" stroke-linecap="round" stroke-dasharray="3.4 2.27"/>
<path d="M162.245 53.8745L143.274 70.8946" stroke="#F94F24" stroke-linecap="round" stroke-dasharray="3.4 2.27"/>
<path d="M143.145 45.8431C142.115 47.3865 140.651 48.5895 138.937 49.3002C137.223 50.0109 135.337 50.1971 133.518 49.8355C131.698 49.4739 130.026 48.5806 128.714 47.2686C127.402 45.9566 126.509 44.2849 126.147 42.4648C125.784 40.6448 125.97 38.7582 126.68 37.0436C127.389 35.329 128.592 33.8635 130.134 32.8324C131.677 31.8013 133.49 31.251 135.345 31.251C136.577 31.2505 137.796 31.4928 138.934 31.9639C140.072 32.435 141.106 33.1258 141.977 33.9967C142.848 34.8676 143.539 35.9017 144.01 37.0398C144.482 38.1779 144.724 39.3978 144.724 40.6297C144.725 42.4855 144.175 44.2998 143.145 45.8431Z" fill="#F2F2F2"/>
<path d="M139.157 124.923C138.653 125.677 137.937 126.265 137.1 126.612C136.262 126.959 135.34 127.05 134.451 126.873C133.561 126.696 132.745 126.259 132.103 125.618C131.462 124.976 131.025 124.159 130.849 123.27C130.672 122.38 130.762 121.458 131.109 120.62C131.456 119.782 132.044 119.065 132.798 118.561C133.552 118.058 134.438 117.789 135.345 117.789C135.947 117.788 136.544 117.906 137.1 118.137C137.657 118.367 138.162 118.705 138.588 119.131C139.014 119.557 139.352 120.063 139.582 120.619C139.812 121.176 139.93 121.772 139.93 122.375C139.93 123.282 139.661 124.169 139.157 124.923Z" fill="#F2F2F2"/>
<path d="M75.8555 135.575C75.1171 136.681 74.0676 137.542 72.8397 138.051C71.6118 138.56 70.2607 138.693 68.9572 138.434C67.6537 138.174 66.4563 137.534 65.5165 136.594C64.5768 135.654 63.9367 134.456 63.6775 133.152C63.4182 131.848 63.5513 130.497 64.0599 129.268C64.5685 128.04 65.4298 126.99 66.5348 126.252C67.6399 125.513 68.9391 125.119 70.2682 125.119C72.0501 125.12 73.7588 125.828 75.0188 127.089C76.2788 128.349 76.987 130.058 76.988 131.841C76.988 133.17 76.5939 134.47 75.8555 135.575Z" fill="#F2F2F2"/>
<g style="mix-blend-mode:multiply">
<path d="M138.361 74.8764C138.297 74.7708 138.261 74.651 138.256 74.5279C138.251 74.4049 138.277 74.2825 138.332 74.1721C138.387 74.0618 138.468 73.9669 138.569 73.8963C138.67 73.8258 138.787 73.7817 138.91 73.7683C136.704 71.2864 133.881 69.4315 130.729 68.3911C127.576 67.3506 124.204 67.1616 120.955 67.8432C118.357 64.092 114.734 61.1688 110.519 59.4233C106.304 57.6779 101.675 57.184 97.1869 58.0007C92.6986 58.8175 88.5405 60.9103 85.21 64.0289C81.8795 67.1475 79.5176 71.1598 78.4067 75.586C77.8914 75.5298 77.3735 75.5018 76.8552 75.5021C74.9108 75.5021 72.9855 75.8852 71.1892 76.6295C69.3928 77.3738 67.7606 78.4648 66.3858 79.8401C65.0109 81.2154 63.9203 82.8481 63.1762 84.6451C62.4322 86.442 62.0492 88.368 62.0492 90.3129C62.0492 92.2579 62.4322 94.1839 63.1762 95.9808C63.9203 97.7778 65.0109 99.4105 66.3858 100.786C67.7606 102.161 69.3928 103.252 71.1892 103.996C72.9855 104.741 74.9108 105.124 76.8552 105.124H124.834C128.894 105.124 132.109 104.051 135.122 101.037C136.88 97.3978 138.102 93.5231 138.752 89.5334C139.511 85.0241 140.873 79.0466 138.361 74.8764Z" fill="#EBEBEB"/>
</g>
<path d="M119.243 65.9555C116.645 62.2042 113.022 59.2809 108.807 57.5352C104.592 55.7895 99.9641 55.2953 95.4759 56.1117C90.9876 56.9281 86.8295 59.0205 83.4987 62.1387C80.168 65.2569 77.8057 69.2689 76.6944 73.6947C76.1789 73.6414 75.6611 73.6146 75.1429 73.6143C71.2161 73.6143 67.4501 75.1748 64.6735 77.9523C61.8968 80.7299 60.3369 84.4971 60.3369 88.4252C60.3369 92.3533 61.8968 96.1205 64.6735 98.8981C67.4501 101.676 71.2161 103.236 75.1429 103.236H123.108C128.103 103.236 132.894 101.251 136.426 97.7176C139.958 94.1841 141.943 89.3918 141.943 84.3948C141.943 79.3977 139.958 74.6054 136.426 71.072C132.894 67.5385 128.103 65.5535 123.108 65.5535C121.809 65.5547 120.514 65.6894 119.243 65.9555Z" fill="url(#paint0_linear)"/>
<path d="M81.7509 56.7413C77.8427 59.845 74.7942 63.8982 72.8959 68.5145C67.8057 69.0798 63.1254 71.5745 59.8173 75.4856C56.5092 79.3967 54.8248 84.427 55.1103 89.5423C55.3958 94.6575 57.6295 99.469 61.3523 102.987C65.075 106.506 70.0039 108.464 75.1254 108.459H123.108C126.291 108.497 129.451 107.903 132.403 106.711C135.356 105.519 138.042 103.752 140.307 101.514C142.572 99.2751 144.37 96.6092 145.598 93.6704C146.825 90.7315 147.457 87.5782 147.457 84.3933C147.457 81.2083 146.825 78.055 145.598 75.1162C144.37 72.1774 142.572 69.5114 140.307 67.2729C138.042 65.0345 135.356 63.2679 132.403 62.0757C129.451 60.8835 126.291 60.2894 123.108 60.3278C122.569 60.3278 122.031 60.3453 121.493 60.3837C118.774 57.2822 115.424 54.7964 111.668 53.0924C107.912 51.3883 103.836 50.5051 99.7123 50.5017V50.5017C93.19 50.4776 86.8544 52.6786 81.7509 56.7413Z" stroke="#F94F24" stroke-linecap="round" stroke-dasharray="3.4 2.27"/>
<path d="M76.677 75.9638C77.787 71.5343 80.1499 67.5188 83.4827 64.3982C86.8154 61.2776 90.9768 59.1841 95.4684 58.3686C99.96 57.553 104.591 58.05 108.808 59.7998C113.025 61.5497 116.647 64.4783 119.243 68.235C120.515 67.9742 121.809 67.8431 123.108 67.8435C127.889 67.844 132.492 69.6641 135.981 72.9347C139.471 76.2052 141.586 80.6811 141.897 85.4543C141.925 85.0453 141.943 84.6364 141.943 84.2204C141.943 81.4168 141.318 78.6484 140.113 76.1172C138.908 73.5861 137.153 71.3559 134.976 69.5894C132.8 67.823 130.257 66.5647 127.533 65.9065C124.808 65.2482 121.971 65.2066 119.229 65.7846C116.631 62.0333 113.008 59.1101 108.793 57.3644C104.579 55.6187 99.9502 55.1244 95.462 55.9408C90.9737 56.7572 86.8156 58.8496 83.4848 61.9678C80.1541 65.086 77.7918 69.098 76.6805 73.5238C76.165 73.4705 75.6472 73.4437 75.129 73.4434C73.1846 73.4434 71.2593 73.8265 69.463 74.5708C67.6666 75.3152 66.0344 76.4061 64.6596 77.7814C63.2847 79.1568 62.1941 80.7895 61.45 82.5864C60.706 84.3834 60.323 86.3093 60.323 88.2543C60.323 88.6668 60.344 89.0793 60.3789 89.4848C60.6815 85.7799 62.3661 82.3244 65.0981 79.8046C67.83 77.2848 71.4095 75.8851 75.1255 75.8834C75.6437 75.8836 76.1615 75.9105 76.677 75.9638Z" fill="#C4ECEC"/>
<g style="mix-blend-mode:multiply">
<g style="mix-blend-mode:multiply">
<path fill-rule="evenodd" clip-rule="evenodd" d="M107.652 72.56C105.759 72.3345 103.846 72.7534 102.22 73.749C100.595 74.7446 99.3518 76.2589 98.692 78.0477C98.0322 79.8365 97.9941 81.7955 98.5837 83.6086L89.0263 93.1691C88.9539 93.2402 88.8965 93.325 88.8575 93.4187C88.8185 93.5124 88.7987 93.6129 88.7992 93.7144V98.0804C88.7992 98.2853 88.8806 98.4818 89.0254 98.6267C89.1702 98.7716 89.3667 98.8529 89.5715 98.8529H93.936C94.1405 98.8517 94.3363 98.7701 94.4812 98.6257L95.5714 97.5351C95.654 97.4527 95.7167 97.3526 95.7548 97.2424C95.7929 97.1322 95.8055 97.0147 95.7916 96.8989L95.6553 95.7279L97.2802 95.5741C97.4603 95.5583 97.6291 95.4796 97.7569 95.3517C97.8847 95.2239 97.9634 95.0551 97.9791 94.8749L98.1329 93.2495L99.307 93.3858C99.4149 93.4 99.5245 93.3904 99.6284 93.3578C99.7322 93.3252 99.8276 93.2704 99.908 93.1971C99.9894 93.1246 100.054 93.0357 100.099 92.9363C100.144 92.8369 100.167 92.7292 100.167 92.6203V91.1836H101.564C101.77 91.1825 101.967 91.1009 102.113 90.9564L104.091 89.0023C105.562 89.496 107.142 89.5698 108.653 89.2153C110.164 88.8609 111.547 88.0924 112.645 86.9959C114.234 85.4032 115.127 83.2454 115.129 80.9953C115.13 78.7452 114.239 76.5864 112.652 74.9919C111.306 73.6422 109.544 72.7856 107.652 72.56ZM109.284 81.0822C108.835 81.1716 108.37 81.1258 107.947 80.9507C107.524 80.7756 107.163 80.479 106.909 80.0984C106.655 79.7178 106.519 79.2704 106.519 78.8126C106.519 78.3549 106.655 77.9075 106.909 77.5269C107.163 77.1463 107.524 76.8497 107.947 76.6746C108.37 76.4995 108.835 76.4537 109.284 76.5431C109.733 76.6325 110.145 76.853 110.468 77.1767C110.901 77.6111 111.144 78.1994 111.144 78.8126C111.144 79.4259 110.901 80.0142 110.468 80.4486C110.145 80.7723 109.733 80.9928 109.284 81.0822Z" fill="#CCCCCC"/>
</g>
</g>
<path fill-rule="evenodd" clip-rule="evenodd" d="M106.817 71.333C104.924 71.1075 103.011 71.5263 101.385 72.5219C99.7596 73.5175 98.5167 75.0319 97.8569 76.8206C97.1971 78.6094 97.159 80.5684 97.7486 82.3816L88.1913 91.942C88.0476 92.0874 87.9661 92.283 87.9641 92.4873V96.8569C87.9641 97.0617 88.0455 97.2582 88.1903 97.4031C88.3351 97.548 88.5316 97.6294 88.7364 97.6294H93.1009C93.2024 97.6299 93.3029 97.6101 93.3965 97.571C93.4902 97.532 93.575 97.4746 93.6461 97.4022L94.7363 96.3115C94.8191 96.2293 94.8819 96.1292 94.9201 96.0189C94.9582 95.9087 94.9707 95.7912 94.9565 95.6753L94.8237 94.5043L96.4451 94.3505C96.6254 94.3354 96.7946 94.2569 96.9225 94.1289C97.0505 94.001 97.129 93.8318 97.144 93.6514L97.2978 92.0259L98.4719 92.1623C98.5798 92.1764 98.6895 92.1669 98.7933 92.1343C98.8971 92.1017 98.9925 92.0468 99.073 91.9735C99.1543 91.901 99.2194 91.8122 99.2639 91.7128C99.3085 91.6134 99.3315 91.5057 99.3315 91.3967V89.96H100.729C100.831 89.96 100.931 89.9399 101.025 89.9009C101.118 89.8619 101.203 89.8048 101.274 89.7328L103.252 87.7823C104.724 88.2747 106.304 88.3475 107.815 87.9925C109.326 87.6375 110.708 86.8687 111.807 85.7723C113.397 84.18 114.292 82.0217 114.293 79.7708C114.295 77.5198 113.405 75.36 111.817 73.7649C110.471 72.4152 108.709 71.5585 106.817 71.333ZM108.449 79.8551C108 79.9445 107.535 79.8987 107.112 79.7236C106.689 79.5485 106.328 79.2519 106.074 78.8713C105.819 78.4908 105.684 78.0433 105.684 77.5856C105.684 77.1279 105.819 76.6804 106.074 76.2998C106.328 75.9193 106.689 75.6227 107.112 75.4475C107.535 75.2724 108 75.2267 108.449 75.316C108.897 75.4054 109.31 75.6259 109.633 75.9496C109.848 76.1643 110.019 76.4193 110.135 76.7C110.252 76.9807 110.312 77.2817 110.312 77.5856C110.312 77.8895 110.252 78.1905 110.135 78.4712C110.019 78.7519 109.848 79.0069 109.633 79.2215C109.31 79.5453 108.897 79.7658 108.449 79.8551Z" fill="#FFC300"/>
<path d="M111.022 78.3244C111.022 77.7105 110.779 77.1217 110.346 76.6867C110.227 76.5672 110.094 76.4616 109.951 76.3721C110.234 76.8163 110.357 77.3437 110.299 77.8673C110.242 78.3908 110.008 78.8791 109.636 79.2516C109.263 79.624 108.775 79.8582 108.252 79.9156C107.728 79.9729 107.201 79.85 106.757 79.5671C106.849 79.7095 106.956 79.8419 107.075 79.9621C107.509 80.395 108.097 80.638 108.71 80.638C109.324 80.638 109.912 80.395 110.346 79.9621C110.779 79.5271 111.022 78.9382 111.022 78.3244Z" fill="#FFD344"/>
<path d="M88.677 93.2284C88.6766 93.1272 88.6961 93.027 88.7345 92.9334C88.7729 92.8399 88.8293 92.7548 88.9006 92.6831L98.4614 83.1191C97.8867 81.3473 97.9108 79.4356 98.5301 77.6789C99.1494 75.9223 100.329 74.4183 101.888 73.3991C103.447 72.38 105.297 71.9023 107.154 72.0398C109.011 72.1773 110.771 72.9223 112.163 74.1599C112.051 74.034 111.935 73.9175 111.814 73.8103C110.467 72.4606 108.706 71.6039 106.813 71.3784C104.921 71.1529 103.007 71.5717 101.382 72.5673C99.7561 73.5629 98.5132 75.0773 97.8534 76.8661C97.1936 78.6548 97.1555 80.6138 97.7451 82.427L88.1913 91.963C88.047 92.1079 87.9654 92.3037 87.9641 92.5083V96.8743C87.9645 97.0689 88.0387 97.2561 88.1716 97.3981C88.3046 97.5402 88.4864 97.6266 88.6805 97.6398C88.6805 97.6293 88.677 97.6119 88.677 97.5944V93.2284Z" fill="#FFD344"/>
<path d="M99.0519 84.4805C98.9067 84.4805 98.7673 84.5377 98.664 84.6397L89.7776 93.5291C89.6756 93.6324 89.6184 93.7718 89.6184 93.9171C89.6184 94.0623 89.6756 94.2017 89.7776 94.3051C89.8283 94.3564 89.8887 94.3972 89.9553 94.4251C90.0219 94.4529 90.0933 94.4672 90.1655 94.4672C90.2377 94.4672 90.3091 94.4529 90.3757 94.4251C90.4423 94.3972 90.5027 94.3564 90.5534 94.3051L99.4398 85.4192C99.5428 85.3157 99.6007 85.1756 99.6007 85.0295C99.6007 84.8834 99.5428 84.7432 99.4398 84.6397C99.3364 84.5377 99.1971 84.4805 99.0519 84.4805Z" fill="#FFA200"/>
<path fill-rule="evenodd" clip-rule="evenodd" d="M116.67 21.9965C115.181 31.1683 106.542 37.3974 97.3732 35.9095C88.2043 34.4217 81.978 25.7804 83.4663 16.6086C84.9546 7.43683 93.5939 1.20775 102.763 2.69558C111.932 4.18341 118.158 12.8247 116.67 21.9965Z" fill="#F1ECFA"/>
<path d="M111.482 14.5664C108.868 8.25837 101.637 5.26307 95.3304 7.87619C89.0238 10.4893 86.0302 17.7213 88.644 24.0294C91.2577 30.3374 98.489 33.3327 104.796 30.7196C111.102 28.1064 114.096 20.8744 111.482 14.5664Z" fill="url(#paint1_linear)"/>
<path fill-rule="evenodd" clip-rule="evenodd" d="M89.0814 23.8478C91.5951 29.9143 98.5494 32.7948 104.614 30.2818C110.679 27.7688 113.558 20.8139 111.044 14.7474C108.531 8.68093 101.576 5.80047 95.5116 8.31344C89.4468 10.8264 86.5677 17.7813 89.0814 23.8478ZM95.149 7.43842C101.697 4.72514 109.206 7.8353 111.919 14.3849C114.633 20.9344 111.525 28.4435 104.977 31.1568C98.4285 33.8701 90.9202 30.7599 88.2064 24.2104C85.4926 17.6608 88.6008 10.1517 95.149 7.43842Z" fill="#F94F24"/>
<path fill-rule="evenodd" clip-rule="evenodd" d="M98.3815 13.232C97.946 13.6676 97.7013 14.2584 97.7013 14.8746V17.0069C97.7013 17.623 97.946 18.2139 98.3815 18.6495C98.8169 19.0851 99.4075 19.3298 100.023 19.3298C100.639 19.3298 101.23 19.0851 101.665 18.6495C102.101 18.2139 102.345 17.623 102.345 17.0069V14.8746C102.345 14.2584 102.101 13.6676 101.665 13.232C101.23 12.7963 100.639 12.5516 100.023 12.5516C99.4075 12.5516 98.8169 12.7963 98.3815 13.232ZM100.023 11.6045C100.89 11.6045 101.722 11.9491 102.335 12.5623C102.948 13.1756 103.292 14.0073 103.292 14.8746V17.0069C103.292 17.8741 102.948 18.7058 102.335 19.3191C101.722 19.9324 100.89 20.2769 100.023 20.2769C99.1562 20.2769 98.3247 19.9324 97.7116 19.3191C97.0985 18.7058 96.7542 17.8741 96.7542 17.0069V14.8746C96.7542 14.0073 97.0985 13.1756 97.7116 12.5623C98.3247 11.9491 99.1562 11.6045 100.023 11.6045Z" fill="white"/>
<path fill-rule="evenodd" clip-rule="evenodd" d="M98.9664 19.2963V21.2224C98.9664 21.4236 98.8393 21.6029 98.6494 21.6694L95.8117 22.6631C95.8039 22.6666 95.792 22.6721 95.7765 22.6797C95.7417 22.6966 95.6894 22.7234 95.6253 22.7604C95.4963 22.835 95.3252 22.9478 95.1557 23.0998C94.8151 23.4055 94.5145 23.837 94.5145 24.4209V25.896C94.5145 26.1576 94.3025 26.3696 94.041 26.3696C93.7794 26.3696 93.5674 26.1576 93.5674 25.896V24.4209C93.5674 23.4737 94.0653 22.8058 94.5231 22.3949C94.753 22.1886 94.981 22.0388 95.1514 21.9404C95.2371 21.8908 95.3095 21.8536 95.3621 21.828C95.3884 21.8152 95.4099 21.8053 95.4256 21.7982L95.445 21.7896L95.4513 21.7869L95.4536 21.7859L95.4545 21.7855L95.4549 21.7854C95.4551 21.7853 95.4552 21.7852 95.6379 22.2221L95.4552 21.7852C95.4639 21.7816 95.4726 21.7783 95.4814 21.7752L98.0193 20.8865V19.2963C98.0193 19.0348 98.2313 18.8228 98.4929 18.8228C98.7544 18.8228 98.9664 19.0348 98.9664 19.2963Z" fill="white"/>
<path fill-rule="evenodd" clip-rule="evenodd" d="M102.052 19.2963V20.8865L104.59 21.7752C104.598 21.7782 104.607 21.7815 104.616 21.7851L104.433 22.2221C104.616 21.7851 104.616 21.7852 104.616 21.7852L104.616 21.7854L104.617 21.7858L104.62 21.7868L104.626 21.7895L104.645 21.798C104.661 21.8051 104.683 21.815 104.709 21.8278C104.762 21.8534 104.834 21.8906 104.92 21.9401C105.091 22.0386 105.319 22.1883 105.549 22.3946C106.008 22.8053 106.507 23.4733 106.507 24.4209V25.896C106.507 26.1576 106.295 26.3696 106.034 26.3696C105.772 26.3696 105.56 26.1576 105.56 25.896V24.4209C105.56 23.8374 105.259 23.406 104.918 23.1002C104.748 22.9481 104.576 22.8353 104.447 22.7607C104.383 22.7236 104.33 22.6968 104.295 22.6799C104.28 22.6722 104.267 22.6667 104.26 22.6631L101.422 21.6694C101.232 21.6029 101.105 21.4236 101.105 21.2224V19.2963C101.105 19.0348 101.317 18.8228 101.578 18.8228C101.84 18.8228 102.052 19.0348 102.052 19.2963Z" fill="white"/>
<path fill-rule="evenodd" clip-rule="evenodd" d="M102.697 13.6981C101.686 14.7153 100.164 15.2985 98.9526 15.6292C98.3376 15.797 97.7831 15.9048 97.382 15.9708C97.1812 16.0038 97.0181 16.0265 96.9044 16.041C96.8475 16.0482 96.8028 16.0535 96.7719 16.0569L96.736 16.0608L96.726 16.0618L96.7231 16.0621L96.7219 16.0622C96.7217 16.0622 96.7216 16.0623 96.6765 15.5988L96.7219 16.0622C96.4615 16.0876 96.2297 15.8971 96.2044 15.6368C96.1791 15.3765 96.3695 15.145 96.6297 15.1196C96.6296 15.1196 96.6298 15.1196 96.6297 15.1196L96.6757 15.5908C96.6299 15.1196 96.6298 15.1196 96.6297 15.1196L96.6311 15.1194L96.6377 15.1187L96.6669 15.1156C96.6931 15.1127 96.7329 15.108 96.7847 15.1014C96.8883 15.0882 97.0399 15.0672 97.2283 15.0362C97.6055 14.9742 98.127 14.8727 98.7032 14.7154C99.8741 14.3959 101.195 13.8657 102.025 13.0303C102.21 12.8448 102.51 12.8439 102.695 13.0283C102.881 13.2127 102.881 13.5126 102.697 13.6981Z" fill="white"/>
<path fill-rule="evenodd" clip-rule="evenodd" d="M101.949 21.5178L100.038 23.9149L98.1229 21.5182C97.9596 21.3139 97.9929 21.0159 98.1973 20.8526C98.4016 20.6894 98.6996 20.7227 98.8629 20.927L100.037 22.3965L101.208 20.9274C101.371 20.7229 101.669 20.6893 101.874 20.8523C102.078 21.0154 102.112 21.3133 101.949 21.5178Z" fill="white"/>
<path fill-rule="evenodd" clip-rule="evenodd" d="M39.5775 49.2577C38.0892 58.4295 29.4498 64.6586 20.281 63.1708C11.1121 61.6829 4.8857 53.0416 6.374 43.8698C7.86229 34.6981 16.5017 28.469 25.6705 29.9568C34.8394 31.4446 41.0658 40.086 39.5775 49.2577Z" fill="#F1ECFA"/>
<path d="M34.3915 41.8296C31.7778 35.5216 24.5465 32.5262 18.2399 35.1394C11.9334 37.7525 8.93977 44.9845 11.5535 51.2925C14.1672 57.6006 21.3986 60.5959 27.7051 57.9828C34.0117 55.3696 37.0053 48.1376 34.3915 41.8296Z" fill="url(#paint2_linear)"/>
<path fill-rule="evenodd" clip-rule="evenodd" d="M11.9909 51.111C14.5046 57.1775 21.4589 60.058 27.5238 57.545C33.5886 55.032 36.4676 48.0771 33.954 42.0106C31.4403 35.9441 24.486 33.0637 18.4211 35.5766C12.3563 38.0896 9.47729 45.0445 11.9909 51.111ZM18.0586 34.7016C24.6069 31.9883 32.1152 35.0985 34.829 41.648C37.5428 48.1976 34.4346 55.7067 27.8863 58.42C21.3381 61.1333 13.8297 58.0231 11.1159 51.4736C8.40212 44.924 11.5103 37.4149 18.0586 34.7016Z" fill="#F94F24"/>
<path fill-rule="evenodd" clip-rule="evenodd" d="M21.3011 40.4976C20.8657 40.9332 20.621 41.5241 20.621 42.1402V44.2725C20.621 44.8886 20.8657 45.4795 21.3011 45.9151C21.7366 46.3507 22.3272 46.5954 22.943 46.5954C23.5587 46.5954 24.1493 46.3507 24.5848 45.9151C25.0203 45.4795 25.2649 44.8886 25.2649 44.2725V42.1402C25.2649 41.5241 25.0203 40.9332 24.5848 40.4976C24.1493 40.062 23.5587 39.8173 22.943 39.8173C22.3272 39.8173 21.7366 40.062 21.3011 40.4976ZM22.943 38.8701C23.81 38.8701 24.6416 39.2147 25.2546 39.828C25.8677 40.4412 26.2121 41.273 26.2121 42.1402V44.2725C26.2121 45.1397 25.8677 45.9715 25.2546 46.5847C24.6416 47.198 23.81 47.5426 22.943 47.5426C22.0759 47.5426 21.2443 47.198 20.6313 46.5847C20.0182 45.9715 19.6738 45.1397 19.6738 44.2725V42.1402C19.6738 41.273 20.0182 40.4412 20.6313 39.828C21.2444 39.2147 22.0759 38.8701 22.943 38.8701Z" fill="white"/>
<path fill-rule="evenodd" clip-rule="evenodd" d="M21.872 46.562V48.488C21.872 48.6893 21.7448 48.8685 21.5549 48.935L18.7173 49.9287C18.7095 49.9322 18.6975 49.9378 18.682 49.9453C18.6472 49.9622 18.5949 49.9891 18.5309 50.0261C18.4018 50.1006 18.2307 50.2134 18.0613 50.3654C17.7206 50.6711 17.4201 51.1026 17.4201 51.6865V53.1617C17.4201 53.4232 17.208 53.6352 16.9465 53.6352C16.6849 53.6352 16.4729 53.4232 16.4729 53.1617V51.6865C16.4729 50.7393 16.9708 50.0714 17.4287 49.6605C17.6585 49.4543 17.8866 49.3045 18.057 49.206C18.1426 49.1565 18.2151 49.1192 18.2676 49.0936C18.2939 49.0808 18.3154 49.0709 18.3312 49.0638L18.3505 49.0552L18.3568 49.0525L18.3591 49.0516L18.36 49.0512L18.3604 49.051C18.3606 49.0509 18.3608 49.0509 18.5434 49.4878L18.3608 49.0509C18.3694 49.0472 18.3781 49.0439 18.3869 49.0408L20.9248 48.1521V46.562C20.9248 46.3004 21.1369 46.0884 21.3984 46.0884C21.66 46.0884 21.872 46.3004 21.872 46.562Z" fill="white"/>
<path fill-rule="evenodd" clip-rule="evenodd" d="M24.9611 46.562V48.1521L27.499 49.0408C27.5077 49.0439 27.5163 49.0472 27.5248 49.0507L27.3425 49.4878C27.5248 49.0507 27.525 49.0508 27.5251 49.0509L27.5256 49.051L27.5265 49.0514L27.5288 49.0524L27.5351 49.0551L27.5544 49.0636C27.5702 49.0707 27.5917 49.0806 27.6181 49.0934C27.6707 49.119 27.7432 49.1563 27.8291 49.2058C27.9998 49.3042 28.2283 49.454 28.4586 49.6602C28.9173 50.0709 29.4165 50.7389 29.4165 51.6865V53.1617C29.4165 53.4232 29.2045 53.6352 28.9429 53.6352C28.6814 53.6352 28.4693 53.4232 28.4693 53.1617V51.6865C28.4693 51.103 28.1683 50.6716 27.8268 50.3658C27.6569 50.2137 27.4853 50.1009 27.356 50.0263C27.2918 49.9893 27.2393 49.9624 27.2044 49.9455C27.1887 49.9379 27.1767 49.9323 27.1688 49.9288L24.331 48.935C24.1411 48.8685 24.0139 48.6893 24.0139 48.488V46.562C24.0139 46.3004 24.2259 46.0884 24.4875 46.0884C24.749 46.0884 24.9611 46.3004 24.9611 46.562Z" fill="white"/>
<path fill-rule="evenodd" clip-rule="evenodd" d="M25.6037 40.2936C25.7894 40.4778 25.7906 40.7777 25.6064 40.9634C24.5969 41.9809 23.0756 42.5642 21.8647 42.8948C21.2499 43.0626 20.6955 43.1705 20.2944 43.2364C20.0937 43.2695 19.9306 43.2921 19.8168 43.3066C19.7599 43.3139 19.7153 43.3191 19.6844 43.3225L19.6484 43.3264L19.6385 43.3274L19.6356 43.3277L19.6343 43.3279C19.6342 43.3279 19.6341 43.3279 19.5882 42.8565L19.6343 43.3279C19.374 43.3532 19.1422 43.1627 19.1169 42.9024C19.0916 42.6421 19.282 42.4106 19.5422 42.3852C19.5421 42.3852 19.5422 42.3852 19.5422 42.3852M19.5422 42.3852L19.5436 42.3851L19.5502 42.3844L19.5793 42.3812C19.6056 42.3783 19.6454 42.3737 19.6971 42.3671C19.8008 42.3539 19.9524 42.3328 20.1407 42.3018C20.5178 42.2398 21.0392 42.1383 21.6152 41.9811C22.7857 41.6615 24.1055 41.1314 24.934 40.2963C25.1182 40.1106 25.4181 40.1094 25.6037 40.2936M25.6037 40.2936L19.5422 42.3852L25.6037 40.2936Z" fill="white"/>
<path fill-rule="evenodd" clip-rule="evenodd" d="M24.8577 48.7835L22.9468 51.1805L21.0318 48.7839C20.8686 48.5795 20.9019 48.2815 21.1062 48.1183C21.3105 47.955 21.6085 47.9883 21.7718 48.1926L22.9459 49.6621L24.1171 48.193C24.2801 47.9885 24.5781 47.9549 24.7826 48.1179C24.9871 48.281 25.0208 48.5789 24.8577 48.7835Z" fill="white"/>
<path fill-rule="evenodd" clip-rule="evenodd" d="M29.4147 133.716C20.833 137.272 10.9929 133.196 7.43625 124.612C3.87958 116.028 7.95316 106.187 16.5348 102.631C25.1165 99.0756 34.9566 103.151 38.5133 111.735C42.0699 120.319 37.9963 130.16 29.4147 133.716Z" fill="#F1ECFA"/>
<path d="M24.9574 105.971C18.2193 104.878 11.8704 109.456 10.7766 116.196C9.6829 122.936 14.2586 129.287 20.9966 130.38C27.7347 131.473 34.0837 126.896 35.1774 120.155C36.2711 113.415 31.6955 107.065 24.9574 105.971Z" fill="url(#paint3_linear)"/>
<path fill-rule="evenodd" clip-rule="evenodd" d="M21.0724 129.913C27.5522 130.965 33.658 126.562 34.7099 120.08C35.7617 113.598 31.3612 107.491 24.8815 106.44C18.4017 105.388 12.2959 109.79 11.244 116.272C10.1922 122.755 14.5927 128.862 21.0724 129.913ZM10.3091 116.121C11.4447 109.122 18.0368 104.369 25.0332 105.505C32.0296 106.64 36.7804 113.234 35.6448 120.232C34.5092 127.23 27.9171 131.983 20.9207 130.848C13.9243 129.713 9.17351 123.119 10.3091 116.121Z" fill="#F94F24"/>
<path fill-rule="evenodd" clip-rule="evenodd" d="M21.3011 112.108C20.8657 112.544 20.621 113.135 20.621 113.751V115.88C20.621 116.496 20.8657 117.087 21.3011 117.522C21.7366 117.958 22.3272 118.203 22.943 118.203C23.5587 118.203 24.1493 117.958 24.5848 117.522C25.0203 117.087 25.2649 116.496 25.2649 115.88V113.751C25.2649 113.135 25.0203 112.544 24.5848 112.108C24.1493 111.673 23.5587 111.428 22.943 111.428C22.3272 111.428 21.7366 111.673 21.3011 112.108ZM22.943 110.481C23.81 110.481 24.6416 110.826 25.2546 111.439C25.8677 112.052 26.2121 112.884 26.2121 113.751V115.88C26.2121 116.747 25.8677 117.579 25.2546 118.192C24.6416 118.805 23.81 119.15 22.943 119.15C22.0759 119.15 21.2443 118.805 20.6313 118.192C20.0182 117.579 19.6738 116.747 19.6738 115.88V113.751C19.6738 112.884 20.0182 112.052 20.6313 111.439C21.2443 110.826 22.0759 110.481 22.943 110.481Z" fill="white"/>
<path fill-rule="evenodd" clip-rule="evenodd" d="M21.872 118.18V120.106C21.872 120.307 21.7448 120.486 21.5549 120.553L18.7168 121.547C18.709 121.55 18.697 121.556 18.6813 121.563C18.6466 121.58 18.5943 121.607 18.5303 121.644C18.4014 121.718 18.2303 121.83 18.0611 121.982C17.7209 122.287 17.4201 122.718 17.4201 123.304V124.769C17.4201 125.03 17.208 125.242 16.9465 125.242C16.6849 125.242 16.4729 125.03 16.4729 124.769V123.304C16.4729 122.355 16.9706 121.688 17.4289 121.277C17.6588 121.071 17.887 120.921 18.0575 120.823C18.1433 120.773 18.2157 120.736 18.2683 120.711C18.2947 120.698 18.3161 120.688 18.3319 120.681L18.3513 120.673L18.3576 120.67L18.3599 120.669L18.3608 120.669L18.3612 120.668C18.3614 120.668 18.3616 120.668 18.5434 121.105L18.3616 120.668C18.3699 120.665 18.3784 120.661 18.3869 120.658L20.9248 119.77V118.18C20.9248 117.918 21.1369 117.706 21.3984 117.706C21.66 117.706 21.872 117.918 21.872 118.18Z" fill="white"/>
<path fill-rule="evenodd" clip-rule="evenodd" d="M24.9611 118.18V119.77L27.499 120.658C27.5074 120.661 27.5157 120.665 27.524 120.668L27.3425 121.105C27.524 120.668 27.5238 120.668 27.524 120.668L27.5257 120.669L27.528 120.67L27.5343 120.672L27.5537 120.681C27.5695 120.688 27.591 120.698 27.6174 120.711C27.67 120.736 27.7426 120.773 27.8285 120.823C27.9993 120.921 28.228 121.07 28.4584 121.276C28.9175 121.687 29.4165 122.355 29.4165 123.304V124.769C29.4165 125.03 29.2045 125.242 28.9429 125.242C28.6814 125.242 28.4693 125.03 28.4693 124.769V123.304C28.4693 122.719 28.1681 122.287 27.827 121.982C27.6573 121.831 27.4858 121.718 27.3565 121.644C27.2924 121.607 27.2399 121.58 27.2051 121.563C27.1892 121.556 27.1771 121.55 27.1693 121.547L24.331 120.553C24.1411 120.486 24.0139 120.307 24.0139 120.106V118.18C24.0139 117.918 24.2259 117.706 24.4875 117.706C24.749 117.706 24.9611 117.918 24.9611 118.18Z" fill="white"/>
<path fill-rule="evenodd" clip-rule="evenodd" d="M25.6037 111.905C25.7894 112.089 25.7906 112.389 25.6064 112.575C24.5967 113.592 23.0754 114.175 21.8644 114.504C21.2496 114.672 20.6951 114.779 20.2941 114.845C20.0933 114.878 19.9302 114.9 19.8164 114.915C19.7595 114.922 19.7149 114.927 19.684 114.93L19.648 114.934L19.6381 114.935L19.6352 114.936L19.6339 114.936C19.6338 114.936 19.6337 114.936 19.5882 114.464L19.6339 114.936C19.3736 114.961 19.1419 114.77 19.1168 114.51C19.0918 114.25 19.2823 114.018 19.5426 113.993C19.5425 113.993 19.5427 113.993 19.5426 113.993M19.5426 113.993L19.544 113.993L19.5506 113.992L19.5797 113.989C19.606 113.986 19.6458 113.982 19.6976 113.975C19.8012 113.962 19.9528 113.941 20.1411 113.91C20.5182 113.848 21.0396 113.747 21.6155 113.591C22.786 113.272 24.1056 112.743 24.934 111.908C25.1182 111.722 25.4181 111.721 25.6037 111.905M25.6037 111.905L19.5426 113.993L25.6037 111.905Z" fill="white"/>
<path fill-rule="evenodd" clip-rule="evenodd" d="M24.8577 120.394L22.9468 122.791L21.0318 120.395C20.8686 120.19 20.9019 119.892 21.1062 119.729C21.3105 119.566 21.6085 119.599 21.7718 119.803L22.9459 121.273L24.1171 119.804C24.2801 119.599 24.5781 119.566 24.7826 119.729C24.9871 119.892 25.0208 120.19 24.8577 120.394Z" fill="white"/>
<path fill-rule="evenodd" clip-rule="evenodd" d="M193.574 50.4219C191.441 59.4653 182.382 65.0672 173.341 62.9341C164.301 60.801 158.701 51.7407 160.835 42.6973C162.969 33.654 172.027 28.0521 181.068 30.1852C190.109 32.3183 195.708 41.3786 193.574 50.4219Z" fill="#F1ECFA"/>
<path d="M188.633 41.832C186.019 35.524 178.788 32.5287 172.482 35.1418C166.175 37.7549 163.181 44.987 165.795 51.295C168.409 57.603 175.64 60.5983 181.947 57.9852C188.253 55.3721 191.247 48.14 188.633 41.832Z" fill="url(#paint4_linear)"/>
<path fill-rule="evenodd" clip-rule="evenodd" d="M166.233 51.1139C168.746 57.1804 175.701 60.0609 181.765 57.5479C187.83 55.035 190.709 48.08 188.196 42.0135C185.682 35.947 178.728 33.0666 172.663 35.5795C166.598 38.0925 163.719 45.0474 166.233 51.1139ZM172.3 34.7045C178.849 31.9913 186.357 35.1014 189.071 41.651C191.784 48.2005 188.676 55.7097 182.128 58.4229C175.58 61.1362 168.071 58.026 165.358 51.4765C162.644 44.9269 165.752 37.4178 172.3 34.7045Z" fill="#F94F24"/>
<path fill-rule="evenodd" clip-rule="evenodd" d="M175.546 40.4976C175.11 40.9332 174.866 41.5241 174.866 42.1402V44.2725C174.866 44.8886 175.11 45.4795 175.546 45.9151C175.981 46.3507 176.572 46.5954 177.188 46.5954C177.803 46.5954 178.394 46.3507 178.829 45.9151C179.265 45.4795 179.51 44.8886 179.51 44.2725V42.1402C179.51 41.5241 179.265 40.9332 178.829 40.4976C178.394 40.062 177.803 39.8173 177.188 39.8173C176.572 39.8173 175.981 40.062 175.546 40.4976ZM177.188 38.8701C178.055 38.8701 178.886 39.2147 179.499 39.828C180.112 40.4412 180.457 41.273 180.457 42.1402V44.2725C180.457 45.1397 180.112 45.9715 179.499 46.5847C178.886 47.198 178.055 47.5426 177.188 47.5426C176.321 47.5426 175.489 47.198 174.876 46.5847C174.263 45.9715 173.918 45.1397 173.918 44.2725V42.1402C173.918 41.273 174.263 40.4412 174.876 39.828C175.489 39.2147 176.321 38.8701 177.188 38.8701Z" fill="white"/>
<path fill-rule="evenodd" clip-rule="evenodd" d="M176.12 46.562V48.488C176.12 48.6893 175.993 48.8685 175.803 48.935L172.965 49.9288C172.958 49.9323 172.946 49.9379 172.93 49.9455C172.895 49.9624 172.842 49.9893 172.778 50.0263C172.649 50.1009 172.477 50.2137 172.308 50.3658C171.966 50.6716 171.665 51.103 171.665 51.6865V53.1617C171.665 53.4232 171.453 53.6352 171.191 53.6352C170.93 53.6352 170.718 53.4232 170.718 53.1617V51.6865C170.718 50.7389 171.217 50.0709 171.676 49.6602C171.906 49.454 172.134 49.3042 172.305 49.2058C172.391 49.1563 172.464 49.119 172.516 49.0934C172.543 49.0806 172.564 49.0707 172.58 49.0636L172.599 49.0551L172.606 49.0524L172.608 49.0514L172.609 49.051L172.609 49.0509C172.609 49.0508 172.609 49.0507 172.792 49.4878L172.609 49.0507C172.618 49.0472 172.627 49.0439 172.635 49.0408L175.173 48.1521V46.562C175.173 46.3004 175.385 46.0884 175.647 46.0884C175.908 46.0884 176.12 46.3004 176.12 46.562Z" fill="white"/>
<path fill-rule="evenodd" clip-rule="evenodd" d="M179.206 46.562V48.1521L181.744 49.0408C181.753 49.0439 181.761 49.0472 181.77 49.0509L181.587 49.4878C181.77 49.0509 181.77 49.0509 181.77 49.051L181.771 49.0512L181.772 49.0516L181.774 49.0525L181.78 49.0552L181.8 49.0638C181.815 49.0709 181.837 49.0808 181.863 49.0936C181.916 49.1192 181.988 49.1565 182.074 49.206C182.244 49.3045 182.472 49.4543 182.702 49.6605C183.16 50.0714 183.658 50.7393 183.658 51.6865V53.1617C183.658 53.4232 183.446 53.6352 183.184 53.6352C182.923 53.6352 182.711 53.4232 182.711 53.1617V51.6865C182.711 51.1026 182.41 50.6711 182.07 50.3654C181.9 50.2134 181.729 50.1006 181.6 50.0261C181.536 49.9891 181.484 49.9622 181.449 49.9453C181.433 49.9378 181.421 49.9322 181.414 49.9287L178.576 48.935C178.386 48.8685 178.259 48.6893 178.259 48.488V46.562C178.259 46.3004 178.471 46.0884 178.732 46.0884C178.994 46.0884 179.206 46.3004 179.206 46.562Z" fill="white"/>
<path fill-rule="evenodd" clip-rule="evenodd" d="M179.845 40.2936C180.031 40.4778 180.032 40.7777 179.848 40.9634C178.838 41.9809 177.317 42.5642 176.106 42.8948C175.491 43.0626 174.937 43.1705 174.536 43.2364C174.335 43.2695 174.172 43.2921 174.058 43.3066C174.001 43.3139 173.957 43.3191 173.926 43.3225L173.89 43.3264L173.88 43.3274L173.877 43.3277L173.876 43.3279C173.876 43.3279 173.875 43.3279 173.83 42.8565L173.876 43.3279C173.615 43.3532 173.384 43.1627 173.358 42.9024C173.333 42.6421 173.523 42.4106 173.784 42.3852C173.783 42.3852 173.784 42.3852 173.784 42.3852M173.784 42.3852L173.785 42.3851L173.792 42.3844L173.821 42.3812C173.847 42.3783 173.887 42.3737 173.938 42.3671C174.042 42.3539 174.194 42.3328 174.382 42.3018C174.759 42.2398 175.281 42.1383 175.857 41.9811C177.027 41.6615 178.347 41.1314 179.175 40.2963C179.36 40.1106 179.659 40.1094 179.845 40.2936M179.845 40.2936L173.784 42.3852L179.845 40.2936Z" fill="white"/>
<path fill-rule="evenodd" clip-rule="evenodd" d="M176.017 48.193L177.188 49.6621L178.362 48.1926C178.526 47.9883 178.824 47.955 179.028 48.1183C179.232 48.2815 179.266 48.5795 179.102 48.7839L177.187 51.1805L175.276 48.7835C175.113 48.5789 175.147 48.281 175.351 48.1179C175.556 47.9549 175.854 47.9885 176.017 48.193Z" fill="white"/>
<path fill-rule="evenodd" clip-rule="evenodd" d="M189.111 130.066C182.543 136.636 171.892 136.638 165.322 130.07C158.752 123.502 158.75 112.851 165.318 106.281C171.886 99.7103 182.537 99.7086 189.107 106.277C195.678 112.845 195.679 123.496 189.111 130.066Z" fill="#F1ECFA"/>
<path d="M179.206 105.976C172.468 104.882 166.119 109.46 165.026 116.2C163.932 122.941 168.507 129.291 175.246 130.384C181.984 131.478 188.333 126.9 189.426 120.16C190.52 113.42 185.944 107.069 179.206 105.976Z" fill="url(#paint5_linear)"/>
<path fill-rule="evenodd" clip-rule="evenodd" d="M175.321 129.917C181.801 130.968 187.907 126.566 188.959 120.084C190.011 113.602 185.61 107.495 179.13 106.443C172.651 105.392 166.545 109.794 165.493 116.276C164.441 122.758 168.842 128.865 175.321 129.917ZM164.558 116.125C165.694 109.126 172.286 104.373 179.282 105.509C186.278 106.644 191.029 113.238 189.894 120.236C188.758 127.234 182.166 131.987 175.17 130.852C168.173 129.717 163.422 123.123 164.558 116.125Z" fill="#F94F24"/>
<path fill-rule="evenodd" clip-rule="evenodd" d="M175.546 112.108C175.11 112.544 174.866 113.135 174.866 113.751V115.88C174.866 116.496 175.11 117.087 175.546 117.522C175.981 117.958 176.572 118.203 177.188 118.203C177.803 118.203 178.394 117.958 178.829 117.522C179.265 117.087 179.51 116.496 179.51 115.88V113.751C179.51 113.135 179.265 112.544 178.829 112.108C178.394 111.673 177.803 111.428 177.188 111.428C176.572 111.428 175.981 111.673 175.546 112.108ZM177.188 110.481C178.055 110.481 178.886 110.826 179.499 111.439C180.112 112.052 180.457 112.884 180.457 113.751V115.88C180.457 116.747 180.112 117.579 179.499 118.192C178.886 118.805 178.055 119.15 177.188 119.15C176.321 119.15 175.489 118.805 174.876 118.192C174.263 117.579 173.918 116.747 173.918 115.88V113.751C173.918 112.884 174.263 112.052 174.876 111.439C175.489 110.826 176.321 110.481 177.188 110.481Z" fill="white"/>
<path fill-rule="evenodd" clip-rule="evenodd" d="M176.12 118.18V120.106C176.12 120.307 175.993 120.486 175.803 120.553L172.965 121.547C172.957 121.55 172.945 121.556 172.929 121.563C172.894 121.58 172.842 121.607 172.778 121.644C172.648 121.718 172.477 121.831 172.307 121.982C171.966 122.287 171.665 122.719 171.665 123.304V124.769C171.665 125.03 171.453 125.242 171.191 125.242C170.93 125.242 170.718 125.03 170.718 124.769V123.304C170.718 122.355 171.217 121.687 171.676 121.276C171.906 121.07 172.135 120.921 172.306 120.823C172.392 120.773 172.464 120.736 172.517 120.711C172.543 120.698 172.565 120.688 172.581 120.681L172.6 120.672L172.606 120.67L172.609 120.669L172.61 120.668L172.61 120.668C172.61 120.668 172.61 120.668 172.792 121.105L172.61 120.668C172.619 120.665 172.627 120.661 172.635 120.658L175.173 119.77V118.18C175.173 117.918 175.385 117.706 175.647 117.706C175.908 117.706 176.12 117.918 176.12 118.18Z" fill="white"/>
<path fill-rule="evenodd" clip-rule="evenodd" d="M179.206 118.18V119.77L181.744 120.658C181.752 120.661 181.761 120.665 181.769 120.668L181.587 121.105C181.769 120.668 181.769 120.668 181.77 120.668L181.77 120.669L181.771 120.669L181.773 120.67L181.779 120.673L181.799 120.681C181.815 120.688 181.836 120.698 181.862 120.711C181.915 120.736 181.988 120.773 182.073 120.823C182.244 120.921 182.472 121.071 182.702 121.277C183.16 121.688 183.658 122.355 183.658 123.304V124.769C183.658 125.03 183.446 125.242 183.184 125.242C182.923 125.242 182.711 125.03 182.711 124.769V123.304C182.711 122.718 182.41 122.287 182.07 121.982C181.9 121.83 181.729 121.718 181.6 121.644C181.536 121.607 181.484 121.58 181.449 121.563C181.434 121.556 181.422 121.55 181.414 121.547L178.576 120.553C178.386 120.486 178.259 120.307 178.259 120.106V118.18C178.259 117.918 178.471 117.706 178.732 117.706C178.994 117.706 179.206 117.918 179.206 118.18Z" fill="white"/>
<path fill-rule="evenodd" clip-rule="evenodd" d="M179.845 111.905C180.031 112.089 180.032 112.389 179.848 112.575C178.838 113.592 177.317 114.175 176.106 114.504C175.491 114.672 174.936 114.779 174.535 114.845C174.335 114.878 174.172 114.9 174.058 114.915C174.001 114.922 173.956 114.927 173.925 114.93L173.889 114.934L173.879 114.935L173.877 114.936L173.875 114.936C173.875 114.936 173.875 114.936 173.83 114.464L173.875 114.936C173.615 114.961 173.383 114.77 173.358 114.51C173.333 114.25 173.524 114.018 173.784 113.993C173.784 113.993 173.784 113.993 173.784 113.993M173.784 113.993L173.785 113.993L173.792 113.992L173.821 113.989C173.847 113.986 173.887 113.982 173.939 113.975C174.043 113.962 174.194 113.941 174.382 113.91C174.76 113.848 175.281 113.747 175.857 113.591C177.027 113.272 178.347 112.743 179.175 111.908C179.36 111.722 179.659 111.721 179.845 111.905M179.845 111.905L173.784 113.993L179.845 111.905Z" fill="white"/>
<path fill-rule="evenodd" clip-rule="evenodd" d="M176.017 119.804L177.188 121.273L178.362 119.803C178.526 119.599 178.824 119.566 179.028 119.729C179.232 119.892 179.266 120.19 179.102 120.395L177.187 122.791L175.276 120.394C175.113 120.19 175.147 119.892 175.351 119.729C175.556 119.566 175.854 119.599 176.017 119.804Z" fill="white"/>
<path fill-rule="evenodd" clip-rule="evenodd" d="M100.062 159.04C90.773 159.04 83.243 151.507 83.243 142.215C83.243 132.924 90.773 125.391 100.062 125.391C109.351 125.391 116.881 132.924 116.881 142.215C116.881 151.507 109.351 159.04 100.062 159.04Z" fill="#F1ECFA"/>
<path d="M112.422 142.216C112.422 135.387 106.888 129.852 100.062 129.852C93.2356 129.852 87.7019 135.387 87.7019 142.216C87.7019 149.044 93.2356 154.579 100.062 154.579C106.888 154.579 112.422 149.044 112.422 142.216Z" fill="url(#paint6_linear)"/>
<path fill-rule="evenodd" clip-rule="evenodd" d="M88.1755 142.215C88.1755 148.782 93.4974 154.106 100.062 154.106C106.626 154.106 111.948 148.782 111.948 142.215C111.948 135.648 106.626 130.325 100.062 130.325C93.4974 130.325 88.1755 135.648 88.1755 142.215ZM100.062 129.378C107.15 129.378 112.895 135.126 112.895 142.215C112.895 149.305 107.15 155.053 100.062 155.053C92.974 155.053 87.2284 149.305 87.2284 142.215C87.2284 135.126 92.974 129.378 100.062 129.378Z" fill="#F94F24"/>
<path fill-rule="evenodd" clip-rule="evenodd" d="M98.3815 136.151C97.946 136.587 97.7013 137.177 97.7013 137.793V139.922C97.7013 140.538 97.946 141.129 98.3815 141.565C98.8169 142.001 99.4075 142.245 100.023 142.245C100.639 142.245 101.23 142.001 101.665 141.565C102.101 141.129 102.345 140.538 102.345 139.922V137.793C102.345 137.177 102.101 136.587 101.665 136.151C101.23 135.715 100.639 135.471 100.023 135.471C99.4075 135.471 98.8169 135.715 98.3815 136.151ZM100.023 134.523C100.89 134.523 101.722 134.868 102.335 135.481C102.948 136.095 103.292 136.926 103.292 137.793V139.922C103.292 140.79 102.948 141.621 102.335 142.235C101.722 142.848 100.89 143.192 100.023 143.192C99.1562 143.192 98.3247 142.848 97.7116 142.235C97.0985 141.621 96.7542 140.79 96.7542 139.922V137.793C96.7542 136.926 97.0985 136.095 97.7116 135.481C98.3247 134.868 99.1562 134.523 100.023 134.523Z" fill="white"/>
<path fill-rule="evenodd" clip-rule="evenodd" d="M98.9664 142.212V144.138C98.9664 144.34 98.8393 144.519 98.6494 144.585L95.8117 145.579C95.8039 145.583 95.792 145.588 95.7766 145.596C95.7418 145.613 95.6895 145.639 95.6255 145.676C95.4965 145.751 95.3253 145.864 95.156 146.016C94.8155 146.322 94.5145 146.754 94.5145 147.34V148.805C94.5145 149.067 94.3025 149.279 94.041 149.279C93.7794 149.279 93.5674 149.067 93.5674 148.805V147.34C93.5674 146.392 94.0649 145.723 94.5229 145.312C94.7528 145.105 94.9809 144.955 95.1513 144.856C95.237 144.807 95.3095 144.77 95.362 144.744C95.3884 144.731 95.4098 144.721 95.4256 144.714L95.4449 144.706L95.4513 144.703L95.4535 144.702L95.4545 144.702L95.4549 144.701C95.4551 144.701 95.4552 144.701 95.6379 145.138L95.4552 144.701C95.4639 144.698 95.4726 144.694 95.4814 144.691L98.0193 143.802V142.212C98.0193 141.951 98.2313 141.739 98.4929 141.739C98.7544 141.739 98.9664 141.951 98.9664 142.212Z" fill="white"/>
<path fill-rule="evenodd" clip-rule="evenodd" d="M102.052 142.212V143.802L104.59 144.691C104.598 144.694 104.607 144.698 104.616 144.701L104.433 145.138C104.616 144.701 104.615 144.701 104.616 144.701L104.617 144.702L104.62 144.703L104.626 144.705L104.645 144.714C104.661 144.721 104.683 144.731 104.709 144.744C104.762 144.769 104.834 144.807 104.92 144.856C105.091 144.955 105.319 145.105 105.55 145.311C106.008 145.723 106.507 146.391 106.507 147.34V148.805C106.507 149.067 106.295 149.279 106.034 149.279C105.772 149.279 105.56 149.067 105.56 148.805V147.34C105.56 146.755 105.259 146.323 104.917 146.016C104.748 145.864 104.576 145.751 104.447 145.677C104.382 145.64 104.33 145.613 104.295 145.596C104.279 145.588 104.267 145.583 104.26 145.579L101.422 144.585C101.232 144.519 101.105 144.34 101.105 144.138V142.212C101.105 141.951 101.317 141.739 101.578 141.739C101.84 141.739 102.052 141.951 102.052 142.212Z" fill="white"/>
<path fill-rule="evenodd" clip-rule="evenodd" d="M102.697 136.617C101.686 137.633 100.164 138.215 98.9524 138.545C98.3375 138.713 97.783 138.82 97.3819 138.886C97.1811 138.919 97.0181 138.942 96.9043 138.956C96.8474 138.964 96.8028 138.969 96.7719 138.972L96.7359 138.976L96.726 138.977L96.7231 138.978L96.7219 138.978C96.7217 138.978 96.7216 138.978 96.6758 138.506L96.7219 138.978C96.4615 139.003 96.2297 138.813 96.2044 138.552C96.1791 138.292 96.3695 138.06 96.6297 138.035C96.6297 138.035 96.6298 138.035 96.6297 138.035L96.6311 138.035L96.6377 138.034L96.6669 138.031C96.6932 138.028 96.7329 138.023 96.7847 138.017C96.8884 138.004 97.04 137.983 97.2283 137.952C97.6056 137.89 98.1271 137.788 98.7034 137.631C99.8744 137.312 101.195 136.783 102.026 135.949C102.21 135.764 102.51 135.763 102.695 135.948C102.881 136.132 102.881 136.432 102.697 136.617ZM96.6297 138.035C96.6298 138.035 96.6297 138.035 96.6297 138.035V138.035Z" fill="white"/>
<path fill-rule="evenodd" clip-rule="evenodd" d="M101.949 144.433L100.038 146.83L98.1229 144.434C97.9596 144.229 97.9929 143.931 98.1973 143.768C98.4016 143.605 98.6996 143.638 98.8629 143.843L100.037 145.312L101.208 143.843C101.371 143.638 101.669 143.605 101.874 143.768C102.078 143.931 102.112 144.229 101.949 144.433Z" fill="white"/>
<path d="M100.549 37.6612C100.854 37.4576 101.091 37.1683 101.231 36.8297C101.371 36.4912 101.408 36.1187 101.337 35.7593C101.265 35.3999 101.089 35.0698 100.83 34.8107C100.571 34.5516 100.241 34.3752 99.8815 34.3037C99.5222 34.2322 99.1498 34.2689 98.8114 34.4091C98.473 34.5493 98.1837 34.7868 97.9802 35.0914C97.7767 35.3961 97.6681 35.7543 97.6681 36.1207C97.6676 36.3642 97.7152 36.6053 97.8081 36.8303C97.901 37.0552 98.0374 37.2597 98.2095 37.4318C98.3816 37.6039 98.5859 37.7404 98.8108 37.8333C99.0358 37.9263 99.2768 37.9739 99.5201 37.9734C99.8864 37.9734 100.245 37.8647 100.549 37.6612Z" fill="white"/>
<path fill-rule="evenodd" clip-rule="evenodd" d="M99.9739 33.8391C100.425 33.9289 100.839 34.1505 101.165 34.4758C101.49 34.8012 101.711 35.2157 101.801 35.6669C101.891 36.1181 101.845 36.5858 101.669 37.0108C101.493 37.4359 101.195 37.7992 100.812 38.0548C100.43 38.3103 99.9807 38.4468 99.5209 38.4469C99.2153 38.4475 98.9125 38.3877 98.63 38.2709C98.3475 38.1542 98.0908 37.9828 97.8747 37.7666C97.6585 37.5503 97.4872 37.2936 97.3705 37.011C97.2538 36.7285 97.1941 36.4258 97.1946 36.1202C97.1947 35.6603 97.331 35.2108 97.5865 34.8283C97.842 34.4458 98.2052 34.1476 98.6302 33.9715C99.0551 33.7954 99.5228 33.7494 99.9739 33.8391ZM97.1946 36.1198L97.6682 36.1207H97.1946C97.1946 36.1205 97.1946 36.1204 97.1946 36.1202C97.1946 36.1201 97.1946 36.1199 97.1946 36.1198ZM99.5202 38.4469V37.9734L99.5211 38.4469C99.521 38.4469 99.521 38.4469 99.5209 38.4469C99.5207 38.4469 99.5204 38.4469 99.5202 38.4469ZM98.9927 34.8465C98.7409 34.9509 98.5256 35.1276 98.3741 35.3544C98.2226 35.5812 98.1417 35.8479 98.1417 36.1207L98.1417 36.1216C98.1414 36.3027 98.1768 36.4821 98.2459 36.6494C98.315 36.8168 98.4165 36.9689 98.5445 37.0969C98.6725 37.225 98.8245 37.3265 98.9918 37.3956C99.1591 37.4647 99.3383 37.5001 99.5193 37.4998L99.5202 37.4998C99.7928 37.4998 100.059 37.4189 100.286 37.2674C100.513 37.1159 100.689 36.9005 100.794 36.6485C100.898 36.3965 100.925 36.1192 100.872 35.8516C100.819 35.584 100.688 35.3383 100.495 35.1455C100.302 34.9526 100.056 34.8213 99.7891 34.7681C99.5217 34.7149 99.2446 34.7422 98.9927 34.8465Z" fill="#F94F24"/>
<path d="M100.549 52.0384C100.854 51.8346 101.091 51.5451 101.232 51.2064C101.372 50.8676 101.408 50.4949 101.336 50.1355C101.265 49.776 101.088 49.4459 100.828 49.1869C100.569 48.9279 100.239 48.7518 99.8793 48.6807C99.5198 48.6096 99.1473 48.6468 98.809 48.7875C98.4706 48.9283 98.1816 49.1663 97.9785 49.4714C97.7754 49.7766 97.6674 50.1351 97.6681 50.5017C97.6681 50.7448 97.716 50.9855 97.8091 51.2101C97.9023 51.4347 98.0387 51.6387 98.2108 51.8105C98.3828 51.9822 98.587 52.1184 98.8117 52.2111C99.0363 52.3038 99.2771 52.3513 99.5201 52.3508C99.8866 52.3508 100.245 52.2421 100.549 52.0384Z" fill="white"/>
<path fill-rule="evenodd" clip-rule="evenodd" d="M100.389 48.3494C100.84 48.4392 101.255 48.6607 101.58 48.9861C101.905 49.3114 102.126 49.7259 102.216 50.1771C102.306 50.6284 102.26 51.096 102.084 51.5211C101.908 51.9462 101.61 52.3095 101.227 52.5651C100.845 52.8207 100.395 52.9572 99.9352 52.9572C99.6298 52.9572 99.3274 52.897 99.0452 52.7801C98.763 52.6632 98.5067 52.4918 98.2907 52.2758C98.0748 52.0598 97.9035 51.8033 97.7866 51.5211C97.6698 51.2389 97.6096 50.9364 97.6096 50.6309C97.6096 50.1709 97.746 49.7212 98.0015 49.3386C98.257 48.9561 98.6202 48.6579 99.0452 48.4818C99.4702 48.3057 99.9378 48.2596 100.389 48.3494ZM99.4078 49.3568C99.1559 49.4611 98.9406 49.6379 98.7891 49.8647C98.6376 50.0915 98.5568 50.3581 98.5568 50.6309C98.5568 50.8121 98.5924 50.9914 98.6617 51.1587C98.731 51.3261 98.8326 51.4781 98.9606 51.6062C99.0886 51.7342 99.2405 51.8358 99.4078 51.9051C99.575 51.9744 99.7542 52.01 99.9352 52.01C100.208 52.01 100.474 51.9292 100.701 51.7777C100.928 51.6261 101.104 51.4108 101.209 51.1587C101.313 50.9067 101.34 50.6294 101.287 50.3619C101.234 50.0943 101.103 49.8486 100.91 49.6557C100.717 49.4629 100.472 49.3315 100.204 49.2783C99.9368 49.2251 99.6596 49.2524 99.4078 49.3568Z" fill="#F94F24"/>
<path d="M38.9141 55.4151C39.2187 55.2115 39.456 54.9222 39.5962 54.5836C39.7364 54.2451 39.7731 53.8726 39.7016 53.5132C39.6301 53.1538 39.4538 52.8237 39.1947 52.5646C38.9357 52.3055 38.6057 52.1291 38.2465 52.0576C37.8872 51.9861 37.5148 52.0228 37.1764 52.163C36.838 52.3032 36.5487 52.5407 36.3452 52.8454C36.1417 53.15 36.0331 53.5082 36.0331 53.8746C36.0326 54.1181 36.0802 54.3592 36.1731 54.5842C36.266 54.8092 36.4024 55.0136 36.5745 55.1857C36.7466 55.3578 36.9509 55.4943 37.1758 55.5872C37.4008 55.6802 37.6418 55.7278 37.8851 55.7273C38.2514 55.7273 38.6095 55.6187 38.9141 55.4151Z" fill="white"/>
<path fill-rule="evenodd" clip-rule="evenodd" d="M38.3389 51.593C38.7901 51.6828 39.2045 51.9044 39.5297 52.2297C39.855 52.5551 40.0764 52.9696 40.1662 53.4208C40.2559 53.872 40.2098 54.3397 40.0338 54.7648C39.8578 55.1898 39.5598 55.5531 39.1773 55.8087C38.7951 56.0643 38.3457 56.2007 37.8859 56.2008C37.5803 56.2014 37.2775 56.1416 36.995 56.0248C36.7125 55.9081 36.4558 55.7367 36.2397 55.5205C36.0235 55.3042 35.8522 55.0475 35.7355 54.7649C35.6188 54.4824 35.5591 54.1797 35.5596 53.8741C35.5597 53.4142 35.696 52.9647 35.9515 52.5823C36.207 52.1997 36.5702 51.9015 36.9952 51.7254C37.4201 51.5493 37.8878 51.5033 38.3389 51.593ZM35.5596 53.8737L36.0331 53.8746H35.5596C35.5596 53.8744 35.5596 53.8743 35.5596 53.8741C35.5596 53.874 35.5596 53.8738 35.5596 53.8737ZM37.8852 56.2008V55.7273L37.8861 56.2008C37.886 56.2008 37.886 56.2008 37.8859 56.2008C37.8857 56.2008 37.8854 56.2008 37.8852 56.2008ZM37.3577 52.6004C37.1059 52.7048 36.8906 52.8815 36.7391 53.1083C36.5876 53.3351 36.5067 53.6018 36.5067 53.8746V53.8755H36.5067C36.5064 54.0566 36.5418 54.236 36.6109 54.4034C36.68 54.5707 36.7815 54.7228 36.9095 54.8508C37.0375 54.9789 37.1895 55.0804 37.3568 55.1495C37.5241 55.2186 37.7033 55.254 37.8843 55.2537L37.8852 55.2537C38.1578 55.2537 38.4243 55.1728 38.651 55.0213C38.8777 54.8698 39.0544 54.6544 39.1587 54.4024C39.2631 54.1504 39.2904 53.8731 39.2372 53.6055C39.184 53.338 39.0527 53.0922 38.8599 52.8994C38.6671 52.7065 38.4215 52.5752 38.1541 52.522C37.8867 52.4688 37.6096 52.4961 37.3577 52.6004Z" fill="#F94F24"/>
<path d="M61.3491 75.8948C61.6526 75.6912 61.889 75.4021 62.0283 75.0642C62.1677 74.7262 62.2038 74.3545 62.1321 73.996C62.0604 73.6376 61.8841 73.3084 61.6254 73.0501C61.3667 72.7919 61.0373 72.6161 60.6789 72.545C60.3204 72.474 59.9489 72.5108 59.6113 72.6509C59.2737 72.7909 58.9852 73.0279 58.7822 73.332C58.5793 73.636 58.4709 73.9934 58.4709 74.3589C58.4709 74.6021 58.5189 74.8428 58.612 75.0674C58.7051 75.292 58.8416 75.496 59.0136 75.6677C59.1856 75.8395 59.3898 75.9756 59.6145 76.0684C59.8392 76.1611 60.08 76.2086 60.323 76.2081C60.6885 76.2074 61.0455 76.0984 61.3491 75.8948Z" fill="white"/>
<path fill-rule="evenodd" clip-rule="evenodd" d="M60.7709 72.0805C61.2213 72.1697 61.635 72.3905 61.96 72.715C62.2849 73.0394 62.5064 73.4528 62.5964 73.9031C62.6865 74.3533 62.6412 74.8202 62.4661 75.2447C62.291 75.6692 61.9941 76.0322 61.6128 76.288C61.2315 76.5438 60.783 76.6808 60.3238 76.6816C60.0185 76.6822 59.7161 76.6226 59.4338 76.5061C59.1516 76.3896 58.895 76.2186 58.679 76.0028C58.4629 75.7871 58.2914 75.5308 58.1745 75.2487C58.0575 74.9666 57.9973 74.6643 57.9973 74.3589C57.9973 73.8997 58.1334 73.4508 58.3883 73.0689C58.6433 72.6871 59.0057 72.3893 59.4297 72.2134C59.8538 72.0374 60.3205 71.9912 60.7709 72.0805ZM59.7927 73.0882C59.5416 73.1924 59.327 73.3687 59.1761 73.5949C59.0251 73.821 58.9445 74.0869 58.9445 74.3589C58.9445 74.5398 58.9801 74.7189 59.0494 74.886C59.1187 75.053 59.2202 75.2048 59.3482 75.3326C59.4761 75.4603 59.628 75.5616 59.7951 75.6305C59.9622 75.6995 60.1413 75.7348 60.3221 75.7345C60.5939 75.734 60.8594 75.6529 61.0852 75.5014C61.3109 75.35 61.4868 75.135 61.5905 74.8836C61.6942 74.6321 61.7211 74.3556 61.6677 74.0889C61.6143 73.8222 61.4831 73.5773 61.2907 73.3852C61.0983 73.1931 60.8533 73.0624 60.5867 73.0095C60.3201 72.9567 60.0438 72.9841 59.7927 73.0882Z" fill="#F94F24"/>
<path d="M144.496 72.8491C144.802 72.6458 145.04 72.3565 145.18 72.0179C145.321 71.6792 145.358 71.3064 145.286 70.9467C145.215 70.587 145.039 70.2565 144.779 69.9972C144.52 69.7379 144.19 69.5614 143.83 69.49C143.471 69.4186 143.098 69.4556 142.759 69.5963C142.421 69.7369 142.132 69.9749 141.928 70.2802C141.725 70.5854 141.617 70.944 141.618 71.3108C141.618 71.8012 141.812 72.2715 142.159 72.6183C142.506 72.9651 142.976 73.1599 143.466 73.1599C143.833 73.1606 144.191 73.0525 144.496 72.8491Z" fill="white"/>
<path fill-rule="evenodd" clip-rule="evenodd" d="M143.958 69.1868C144.409 69.2766 144.823 69.4981 145.149 69.8235C145.474 70.1488 145.695 70.5633 145.785 71.0145C145.875 71.4658 145.829 71.9335 145.653 72.3585C145.477 72.7836 145.179 73.1469 144.796 73.4025C144.414 73.6581 143.964 73.7946 143.504 73.7946C143.199 73.7946 142.896 73.7344 142.614 73.6175C142.332 73.5006 142.076 73.3292 141.86 73.1132C141.644 72.8972 141.472 72.6407 141.356 72.3585C141.239 72.0763 141.179 71.7738 141.179 71.4683C141.179 71.0083 141.315 70.5586 141.57 70.176C141.826 69.7935 142.189 69.4953 142.614 69.3192C143.039 69.1431 143.507 69.097 143.958 69.1868ZM142.977 70.1942C142.725 70.2986 142.51 70.4753 142.358 70.7021C142.207 70.9289 142.126 71.1955 142.126 71.4683C142.126 71.6495 142.161 71.8288 142.231 71.9962C142.3 72.1635 142.402 72.3155 142.53 72.4436C142.658 72.5716 142.81 72.6732 142.977 72.7425C143.144 72.8118 143.323 72.8474 143.504 72.8474C143.777 72.8474 144.043 72.7666 144.27 72.6151C144.497 72.4635 144.673 72.2482 144.778 71.9962C144.882 71.7441 144.909 71.4668 144.856 71.1993C144.803 70.9317 144.672 70.686 144.479 70.4931C144.286 70.3003 144.04 70.1689 143.773 70.1157C143.506 70.0625 143.229 70.0898 142.977 70.1942Z" fill="#F94F24"/>
<path d="M57.9777 97.8565C58.2828 97.6532 58.5207 97.3639 58.6613 97.0252C58.8019 96.6865 58.8389 96.3137 58.7676 95.954C58.6962 95.5943 58.5198 95.2639 58.2605 95.0045C58.0013 94.7452 57.671 94.5687 57.3114 94.4973C56.9518 94.426 56.5791 94.4629 56.2406 94.6036C55.902 94.7443 55.6128 94.9823 55.4095 95.2875C55.2063 95.5927 55.0982 95.9513 55.0989 96.3181C55.0989 96.5609 55.1467 96.8014 55.2396 97.0257C55.3325 97.2501 55.4687 97.4539 55.6403 97.6256C55.812 97.7973 56.0157 97.9336 56.24 98.0265C56.4643 98.1194 56.7047 98.1672 56.9474 98.1672C57.314 98.1679 57.6726 98.0598 57.9777 97.8565Z" fill="white"/>
<path fill-rule="evenodd" clip-rule="evenodd" d="M57.767 93.8128C58.2182 93.9025 58.6326 94.1241 58.9578 94.4495C59.2831 94.7748 59.5045 95.1893 59.5942 95.6405C59.684 96.0917 59.6379 96.5594 59.4619 96.9845C59.2859 97.4095 58.9878 97.7729 58.6054 98.0285C58.2229 98.2841 57.7733 98.4206 57.3133 98.4206C57.0079 98.4206 56.7054 98.3604 56.4233 98.2435C56.1411 98.1265 55.8847 97.9552 55.6688 97.7392C55.4528 97.5231 55.2815 97.2667 55.1647 96.9845C55.0478 96.7023 54.9877 96.3998 54.9877 96.0943C54.9877 95.6343 55.124 95.1845 55.3796 94.802C55.6351 94.4194 55.9983 94.1212 56.4233 93.9452C56.8482 93.7691 57.3159 93.723 57.767 93.8128ZM56.7858 94.8202C56.534 94.9245 56.3187 95.1013 56.1672 95.3281C56.0157 95.5549 55.9348 95.8215 55.9348 96.0943C55.9348 96.2754 55.9705 96.4548 56.0398 96.6221C56.1091 96.7895 56.2106 96.9415 56.3386 97.0695C56.4666 97.1976 56.6186 97.2992 56.7858 97.3684C56.9531 97.4377 57.1323 97.4734 57.3133 97.4734C57.5859 97.4734 57.8524 97.3925 58.0791 97.241C58.3058 97.0895 58.4825 96.8741 58.5868 96.6221C58.6912 96.3701 58.7185 96.0928 58.6653 95.8252C58.6121 95.5577 58.4808 95.3119 58.288 95.1191C58.0952 94.9262 57.8496 94.7949 57.5822 94.7417C57.3148 94.6885 57.0377 94.7158 56.7858 94.8202Z" fill="#F94F24"/>
<path d="M144.824 97.8548C145.129 97.651 145.366 97.3615 145.506 97.0228C145.646 96.684 145.683 96.3113 145.611 95.9519C145.539 95.5924 145.362 95.2623 145.103 95.0033C144.844 94.7444 144.513 94.5682 144.154 94.4971C143.794 94.426 143.422 94.4632 143.084 94.6039C142.745 94.7447 142.456 94.9827 142.253 95.2878C142.05 95.593 141.942 95.9515 141.943 96.3181C141.943 96.5612 141.991 96.802 142.084 97.0265C142.177 97.2511 142.313 97.4551 142.485 97.6269C142.657 97.7986 142.862 97.9348 143.086 98.0275C143.311 98.1202 143.552 98.1677 143.795 98.1673C144.161 98.1673 144.519 98.0585 144.824 97.8548Z" fill="white"/>
<path fill-rule="evenodd" clip-rule="evenodd" d="M144.246 94.0325C144.697 94.1217 145.112 94.343 145.438 94.6681C145.763 94.9933 145.985 95.4078 146.075 95.8591C146.165 96.3104 146.12 96.7784 145.944 97.2037C145.768 97.629 145.47 97.9926 145.087 98.2484C144.705 98.5041 144.255 98.6407 143.795 98.6408C143.49 98.6413 143.188 98.5816 142.906 98.4652C142.623 98.3487 142.367 98.1777 142.151 97.962C141.935 97.7462 141.763 97.4899 141.646 97.2079C141.529 96.9259 141.469 96.6237 141.469 96.3185C141.468 95.8584 141.604 95.4084 141.859 95.0254C142.114 94.6423 142.477 94.3434 142.902 94.1666C143.327 93.9899 143.794 93.9432 144.246 94.0325ZM141.469 96.318L141.943 96.318L141.469 96.3189C141.469 96.3188 141.469 96.3186 141.469 96.3185C141.469 96.3183 141.469 96.3182 141.469 96.318ZM143.795 98.6408L143.795 98.1672L143.796 98.6408C143.795 98.6408 143.795 98.6408 143.795 98.6408C143.795 98.6408 143.795 98.6408 143.795 98.6408ZM143.265 95.0411C143.014 95.1459 142.799 95.3231 142.647 95.5502C142.496 95.7773 142.416 96.0442 142.416 96.3171L142.416 96.318C142.416 96.4989 142.452 96.678 142.521 96.8451C142.59 97.0122 142.692 97.1639 142.82 97.2917C142.948 97.4195 143.1 97.5207 143.267 97.5897C143.434 97.6586 143.613 97.694 143.794 97.6936L143.795 97.6936C144.067 97.6936 144.334 97.6127 144.561 97.4611C144.788 97.3094 144.964 97.0939 145.069 96.8417C145.173 96.5896 145.2 96.3121 145.147 96.0445C145.093 95.7769 144.962 95.5311 144.768 95.3384C144.575 95.1456 144.33 95.0145 144.062 94.9616C143.795 94.9087 143.517 94.9364 143.265 95.0411Z" fill="#F94F24"/>
<path d="M38.9141 109.999C39.2187 109.795 39.456 109.506 39.5962 109.168C39.7364 108.829 39.7731 108.457 39.7016 108.097C39.6301 107.738 39.4538 107.408 39.1947 107.149C38.9357 106.889 38.6057 106.713 38.2465 106.642C37.8872 106.57 37.5148 106.607 37.1764 106.747C36.838 106.887 36.5487 107.125 36.3452 107.429C36.1417 107.734 36.0331 108.092 36.0331 108.459C36.0331 108.702 36.081 108.943 36.1741 109.168C36.2671 109.392 36.4036 109.597 36.5755 109.769C36.7475 109.941 36.9517 110.077 37.1764 110.17C37.4011 110.263 37.6419 110.311 37.8851 110.311C38.2514 110.311 38.6095 110.203 38.9141 109.999Z" fill="white"/>
<path fill-rule="evenodd" clip-rule="evenodd" d="M38.3389 106.177C38.7901 106.267 39.2045 106.488 39.5297 106.814C39.855 107.139 40.0764 107.554 40.1662 108.005C40.2559 108.456 40.2098 108.924 40.0338 109.349C39.8578 109.774 39.5598 110.137 39.1773 110.393C38.7949 110.648 38.3452 110.785 37.8852 110.785C37.5798 110.785 37.2773 110.725 36.9952 110.608C36.713 110.491 36.4566 110.319 36.2407 110.103C36.0247 109.887 35.8534 109.631 35.7366 109.349C35.6197 109.067 35.5596 108.764 35.5596 108.459C35.5596 107.999 35.6959 107.549 35.9515 107.166C36.207 106.784 36.5702 106.486 36.9952 106.309C37.4201 106.133 37.8878 106.087 38.3389 106.177ZM37.3577 107.184C37.1059 107.289 36.8906 107.466 36.7391 107.692C36.5876 107.919 36.5067 108.186 36.5067 108.459C36.5067 108.64 36.5424 108.819 36.6117 108.986C36.681 109.154 36.7825 109.306 36.9105 109.434C37.0385 109.562 37.1905 109.663 37.3577 109.733C37.525 109.802 37.7042 109.838 37.8852 109.838C38.1578 109.838 38.4243 109.757 38.651 109.605C38.8777 109.454 39.0544 109.238 39.1587 108.986C39.2631 108.734 39.2904 108.457 39.2372 108.189C39.184 107.922 39.0527 107.676 38.8599 107.483C38.6671 107.29 38.4215 107.159 38.1541 107.106C37.8867 107.053 37.6096 107.08 37.3577 107.184Z" fill="#F94F24"/>
<path d="M163.278 55.4151C163.583 55.2115 163.82 54.9222 163.96 54.5836C164.1 54.2451 164.137 53.8726 164.065 53.5132C163.994 53.1538 163.818 52.8237 163.559 52.5646C163.3 52.3055 162.97 52.1291 162.61 52.0576C162.251 51.9861 161.879 52.0228 161.54 52.163C161.202 52.3032 160.913 52.5407 160.709 52.8454C160.506 53.15 160.397 53.5082 160.397 53.8746C160.397 54.1181 160.444 54.3592 160.537 54.5842C160.63 54.8092 160.766 55.0136 160.938 55.1857C161.11 55.3578 161.315 55.4943 161.54 55.5872C161.765 55.6802 162.006 55.7278 162.249 55.7273C162.615 55.7273 162.973 55.6187 163.278 55.4151Z" fill="white"/>
<path fill-rule="evenodd" clip-rule="evenodd" d="M162.703 51.593C163.154 51.6828 163.568 51.9044 163.893 52.2297C164.219 52.5551 164.44 52.9696 164.53 53.4208C164.62 53.872 164.574 54.3397 164.398 54.7648C164.222 55.1898 163.924 55.5531 163.541 55.8087C163.159 56.0642 162.709 56.2007 162.25 56.2008C161.944 56.2014 161.641 56.1416 161.359 56.0248C161.076 55.9081 160.82 55.7367 160.603 55.5205C160.387 55.3042 160.216 55.0475 160.099 54.7649C159.983 54.4824 159.923 54.1797 159.923 53.8741C159.923 53.4142 160.06 52.9647 160.315 52.5823C160.571 52.1997 160.934 51.9015 161.359 51.7254C161.784 51.5493 162.252 51.5033 162.703 51.593ZM159.923 53.8737L160.397 53.8746H159.923C159.923 53.8744 159.923 53.8743 159.923 53.8741C159.923 53.874 159.923 53.8738 159.923 53.8737ZM162.249 56.2008V55.7273L162.25 56.2008C162.25 56.2008 162.25 56.2008 162.25 56.2008C162.249 56.2008 162.249 56.2008 162.249 56.2008ZM161.721 52.6004C161.47 52.7048 161.254 52.8815 161.103 53.1083C160.951 53.3351 160.87 53.6018 160.87 53.8746V53.8755H160.87C160.87 54.0566 160.906 54.236 160.975 54.4034C161.044 54.5707 161.145 54.7228 161.273 54.8508C161.401 54.9789 161.553 55.0804 161.721 55.1495C161.888 55.2186 162.067 55.254 162.248 55.2537L162.249 55.2537C162.522 55.2537 162.788 55.1728 163.015 55.0213C163.241 54.8698 163.418 54.6544 163.522 54.4024C163.627 54.1504 163.654 53.873 163.601 53.6055C163.548 53.338 163.416 53.0922 163.224 52.8994C163.031 52.7065 162.785 52.5752 162.518 52.522C162.251 52.4688 161.973 52.4961 161.721 52.6004Z" fill="#F94F24"/>
<path d="M163.278 109.999C163.583 109.795 163.82 109.506 163.96 109.168C164.1 108.829 164.137 108.457 164.065 108.097C163.994 107.738 163.818 107.408 163.559 107.149C163.3 106.889 162.97 106.713 162.61 106.642C162.251 106.57 161.879 106.607 161.54 106.747C161.202 106.887 160.913 107.125 160.709 107.429C160.506 107.734 160.397 108.092 160.397 108.459C160.397 108.95 160.592 109.421 160.939 109.769C161.287 110.116 161.758 110.311 162.249 110.311C162.615 110.311 162.973 110.203 163.278 109.999Z" fill="white"/>
<path fill-rule="evenodd" clip-rule="evenodd" d="M162.703 106.177C163.154 106.267 163.568 106.488 163.893 106.814C164.219 107.139 164.44 107.554 164.53 108.005C164.62 108.456 164.574 108.924 164.398 109.349C164.222 109.774 163.924 110.137 163.541 110.393C163.159 110.648 162.709 110.785 162.249 110.785C161.632 110.785 161.041 110.54 160.604 110.103C160.168 109.667 159.923 109.075 159.923 108.459C159.923 107.999 160.06 107.549 160.315 107.166C160.571 106.784 160.934 106.486 161.359 106.309C161.784 106.133 162.252 106.087 162.703 106.177ZM161.721 107.184C161.47 107.289 161.254 107.466 161.103 107.692C160.951 107.919 160.87 108.186 160.87 108.459C160.87 108.824 161.016 109.175 161.274 109.434C161.533 109.692 161.883 109.838 162.249 109.838C162.522 109.838 162.788 109.757 163.015 109.605C163.241 109.454 163.418 109.238 163.522 108.986C163.627 108.734 163.654 108.457 163.601 108.189C163.548 107.922 163.416 107.676 163.224 107.483C163.031 107.29 162.785 107.159 162.518 107.106C162.25 107.053 161.973 107.08 161.721 107.184Z" fill="#F94F24"/>
<path d="M100.549 126.928C100.854 126.725 101.091 126.435 101.231 126.097C101.371 125.758 101.408 125.386 101.337 125.026C101.265 124.667 101.089 124.337 100.83 124.078C100.571 123.819 100.241 123.642 99.8815 123.571C99.5222 123.499 99.1498 123.536 98.8114 123.676C98.473 123.816 98.1837 124.054 97.9802 124.359C97.7767 124.663 97.6681 125.021 97.6681 125.388C97.6676 125.631 97.7152 125.872 97.8081 126.097C97.901 126.322 98.0374 126.527 98.2095 126.699C98.3816 126.871 98.5859 127.007 98.8108 127.1C99.0358 127.193 99.2768 127.241 99.5201 127.241C99.8864 127.241 100.245 127.132 100.549 126.928Z" fill="white"/>
<path fill-rule="evenodd" clip-rule="evenodd" d="M100.389 123.174C100.84 123.264 101.255 123.485 101.58 123.811C101.905 124.136 102.126 124.551 102.216 125.002C102.306 125.453 102.26 125.921 102.084 126.346C101.908 126.771 101.61 127.134 101.227 127.39C100.845 127.645 100.395 127.782 99.9352 127.782C99.6298 127.782 99.3274 127.722 99.0452 127.605C98.763 127.488 98.5067 127.317 98.2907 127.1C98.0748 126.884 97.9035 126.628 97.7866 126.346C97.6698 126.064 97.6096 125.761 97.6096 125.456C97.6096 124.996 97.746 124.546 98.0015 124.163C98.257 123.781 98.6202 123.483 99.0452 123.306C99.4702 123.13 99.9378 123.084 100.389 123.174ZM99.4078 124.181C99.1559 124.286 98.9406 124.463 98.7891 124.689C98.6376 124.916 98.5568 125.183 98.5568 125.456C98.5568 125.637 98.5924 125.816 98.6617 125.983C98.731 126.151 98.8326 126.303 98.9606 126.431C99.0886 126.559 99.2405 126.66 99.4078 126.73C99.575 126.799 99.7542 126.835 99.9352 126.835C100.208 126.835 100.474 126.754 100.701 126.602C100.928 126.451 101.104 126.235 101.209 125.983C101.313 125.731 101.34 125.454 101.287 125.187C101.234 124.919 101.103 124.673 100.91 124.48C100.717 124.288 100.472 124.156 100.204 124.103C99.9368 124.05 99.6596 124.077 99.4078 124.181Z" fill="#F94F24"/>
<path d="M100.549 109.999C100.854 109.795 101.091 109.506 101.231 109.168C101.371 108.829 101.408 108.457 101.337 108.097C101.265 107.738 101.089 107.408 100.83 107.149C100.571 106.889 100.241 106.713 99.8814 106.642C99.5222 106.57 99.1498 106.607 98.8114 106.747C98.473 106.887 98.1837 107.125 97.9802 107.429C97.7767 107.734 97.6681 108.092 97.6681 108.459C97.6681 108.702 97.716 108.943 97.8091 109.168C97.9021 109.392 98.0386 109.597 98.2105 109.769C98.3825 109.941 98.5867 110.077 98.8114 110.17C99.0361 110.263 99.2769 110.311 99.5201 110.311C99.8864 110.311 100.245 110.203 100.549 109.999Z" fill="white"/>
<path fill-rule="evenodd" clip-rule="evenodd" d="M99.9739 106.177C100.425 106.267 100.839 106.488 101.165 106.814C101.49 107.139 101.711 107.554 101.801 108.005C101.891 108.456 101.845 108.924 101.669 109.349C101.493 109.774 101.195 110.137 100.812 110.393C100.43 110.648 99.9802 110.785 99.5202 110.785C99.2148 110.785 98.9123 110.725 98.6302 110.608C98.348 110.491 98.0916 110.319 97.8757 110.103C97.6597 109.887 97.4885 109.631 97.3716 109.349C97.2547 109.067 97.1946 108.764 97.1946 108.459C97.1946 107.999 97.3309 107.549 97.5865 107.166C97.842 106.784 98.2052 106.486 98.6302 106.309C99.0551 106.133 99.5228 106.087 99.9739 106.177ZM98.9927 107.184C98.7409 107.289 98.5256 107.466 98.3741 107.692C98.2226 107.919 98.1417 108.186 98.1417 108.459C98.1417 108.64 98.1774 108.819 98.2467 108.986C98.316 109.154 98.4175 109.306 98.5455 109.434C98.6736 109.562 98.8255 109.663 98.9927 109.733C99.16 109.802 99.3392 109.838 99.5202 109.838C99.7928 109.838 100.059 109.757 100.286 109.605C100.513 109.454 100.689 109.238 100.794 108.986C100.898 108.734 100.925 108.457 100.872 108.189C100.819 107.922 100.688 107.676 100.495 107.483C100.302 107.29 100.056 107.159 99.7891 107.106C99.5217 107.053 99.2446 107.08 98.9927 107.184Z" fill="#F94F24"/>
<defs>
<linearGradient id="paint0_linear" x1="141.092" y1="141.529" x2="147.05" y2="77.9138" gradientUnits="userSpaceOnUse">
<stop stop-color="#8033EB"/>
<stop offset="1" stop-color="#A2E1E0"/>
</linearGradient>
<linearGradient id="paint1_linear" x1="87.7091" y1="31.6598" x2="112.427" y2="31.6548" gradientUnits="userSpaceOnUse">
<stop stop-color="#8033EB"/>
<stop offset="1" stop-color="#6731CE"/>
</linearGradient>
<linearGradient id="paint2_linear" x1="3698.5" y1="4447.27" x2="5447.07" y2="4446.92" gradientUnits="userSpaceOnUse">
<stop stop-color="#8033EB"/>
<stop offset="1" stop-color="#6731CE"/>
</linearGradient>
<linearGradient id="paint3_linear" x1="5945.25" y1="-6016.97" x2="7603.98" y2="-5464.08" gradientUnits="userSpaceOnUse">
<stop stop-color="#8033EB"/>
<stop offset="1" stop-color="#6731CE"/>
</linearGradient>
<linearGradient id="paint4_linear" x1="14764.7" y1="4447.02" x2="16513.5" y2="4446.67" gradientUnits="userSpaceOnUse">
<stop stop-color="#8033EB"/>
<stop offset="1" stop-color="#6731CE"/>
</linearGradient>
<linearGradient id="paint5_linear" x1="16450.4" y1="-2565.53" x2="18109.4" y2="-2012.56" gradientUnits="userSpaceOnUse">
<stop stop-color="#8033EB"/>
<stop offset="1" stop-color="#6731CE"/>
</linearGradient>
<linearGradient id="paint6_linear" x1="9227.82" y1="11310" x2="10976.2" y2="11310" gradientUnits="userSpaceOnUse">
<stop stop-color="#8033EB"/>
<stop offset="1" stop-color="#6731CE"/>
</linearGradient>
</defs>
</svg>
