<svg width="130" height="100" viewBox="0 0 130 100" fill="none"
    xmlns="http://www.w3.org/2000/svg">
    <path fill-rule="evenodd" clip-rule="evenodd" d="M108.571 41.4286C97.5257 41.4286 88.5714 32.4743 88.5714 21.4286C88.5714 10.3829 97.5257 1.42859 108.571 1.42859C113.876 1.42859 118.963 3.53573 122.714 7.28645C126.464 11.0372 128.571 16.1243 128.571 21.4286C128.571 32.4743 119.617 41.4286 108.571 41.4286Z" fill="#F2F2F2"/>
    <path fill-rule="evenodd" clip-rule="evenodd" d="M110.142 93.3331C105.472 95.2686 100.095 94.1997 96.5195 90.625C92.9441 87.0502 91.8742 81.6737 93.8088 77.0025C95.7434 72.3314 100.301 69.2856 105.357 69.2856C112.26 69.2856 117.856 74.8806 117.857 81.7832C117.858 86.8391 114.813 91.3977 110.142 93.3331Z" fill="#F2F2F2"/>
    <rect x="22.1428" y="84.2858" width="42.1429" height="10" rx="5" fill="#F2F2F2"/>
    <rect x="17.1428" width="42.1429" height="10" rx="5" fill="#F2F2F2"/>
    <path fill-rule="evenodd" clip-rule="evenodd" d="M46.1556 77.8572C46.1556 77.8572 48.2356 93.9306 35 97.1429H76.4286C63.193 93.9259 65.2729 77.8572 65.2729 77.8572H46.1556Z" fill="#999999"/>
    <rect x="35" y="97.1428" width="41.4286" height="2.85714" fill="#E5E5E5"/>
    <path fill-rule="evenodd" clip-rule="evenodd" d="M106.649 80.1684C105.864 80.9644 104.794 81.4177 103.673 81.4286H4.18372C1.8508 81.4046 -0.0215624 79.5051 0.000187588 77.1842V19.2421C-0.0202825 16.9221 1.8517 15.0239 4.18372 15H103.673C104.794 15.0109 105.864 15.4642 106.649 16.2602C107.433 17.0562 107.868 18.1296 107.857 19.2444V77.1842C107.868 78.299 107.433 79.3724 106.649 80.1684Z" fill="#B3B3B3"/>
    <rect y="20.7144" width="107.857" height="52.8571" fill="url(#paint0_linear)"/>
    <g style="mix-blend-mode:multiply">
        <rect y="20.7144" width="107.857" height="0.714286" fill="#E5E5E5"/>
    </g>
    <path fill-rule="evenodd" clip-rule="evenodd" d="M65.3464 81.4285C65.3464 81.4285 65.5808 83.9541 65.7143 84.6075L44.2858 89.2856C44.2858 89.2856 46.1301 86.3638 46.1301 81.4285H65.3464Z" fill="#828282"/>
    <rect x="7.14282" y="32.8572" width="90" height="40.7143" fill="white"/>
    <path fill-rule="evenodd" clip-rule="evenodd" d="M97.1428 30.4614C97.1428 29.5812 96.7877 28.7372 96.1555 28.1148C95.5233 27.4925 94.6659 27.1428 93.7719 27.1428H10.5138C8.65205 27.1428 7.14282 28.6286 7.14282 30.4614V32.8571H97.1428V30.4614Z" fill="#F94F24"/>
    <path fill-rule="evenodd" clip-rule="evenodd" d="M12.8571 30.7142C12.4626 30.7142 12.1428 30.3944 12.1428 29.9999C12.1428 29.6054 12.4626 29.2856 12.8571 29.2856C13.2511 29.2868 13.5703 29.6059 13.5714 29.9999C13.5714 30.3944 13.2516 30.7142 12.8571 30.7142Z" fill="white"/>
    <path fill-rule="evenodd" clip-rule="evenodd" d="M18.8448 30.6598C18.5779 30.7704 18.2707 30.7093 18.0664 30.505C17.8621 30.3007 17.801 29.9935 17.9116 29.7266C18.0221 29.4597 18.2826 29.2856 18.5715 29.2856C18.966 29.2856 19.2857 29.6054 19.2857 29.9999C19.2857 30.2888 19.1117 30.5493 18.8448 30.6598Z" fill="white"/>
    <path fill-rule="evenodd" clip-rule="evenodd" d="M24.5586 30.66C24.2914 30.7705 23.984 30.709 23.7799 30.5043C23.5758 30.2995 23.5152 29.992 23.6264 29.7251C23.7376 29.4583 23.9987 29.2848 24.2878 29.2856C24.6815 29.2868 25 29.6062 25 29.9999C25 30.289 24.8257 30.5496 24.5586 30.66Z" fill="white"/>
    <path fill-rule="evenodd" clip-rule="evenodd" d="M15.1299 40.7143C14.6636 40.7143 14.2856 40.3945 14.2856 40.0001C14.2856 39.6056 14.6636 39.2858 15.1299 39.2858H41.2985C41.7648 39.2858 42.1428 39.6056 42.1428 40.0001C42.1428 40.3945 41.7648 40.7143 41.2985 40.7143H15.1299Z" fill="#D7D7D7"/>
    <path d="M50.5634 45.2388C50.0461 45.2388 49.6434 45.0095 49.3554 44.5508C49.0674 44.0922 48.9234 43.4335 48.9234 42.5748C48.9234 41.7162 49.0674 41.0628 49.3554 40.6148C49.6434 40.1668 50.0461 39.9428 50.5634 39.9428C51.0754 39.9428 51.4754 40.1668 51.7634 40.6148C52.0514 41.0628 52.1954 41.7162 52.1954 42.5748C52.1954 43.4335 52.0514 44.0922 51.7634 44.5508C51.4754 45.0095 51.0754 45.2388 50.5634 45.2388ZM50.5634 44.7108C50.7127 44.7108 50.8461 44.6708 50.9634 44.5908C51.0861 44.5055 51.1901 44.3775 51.2754 44.2068C51.3661 44.0308 51.4354 43.8095 51.4834 43.5428C51.5314 43.2708 51.5554 42.9482 51.5554 42.5748C51.5554 42.2015 51.5314 41.8815 51.4834 41.6148C51.4354 41.3482 51.3661 41.1322 51.2754 40.9668C51.1901 40.7962 51.0861 40.6708 50.9634 40.5908C50.8461 40.5108 50.7127 40.4708 50.5634 40.4708C50.4141 40.4708 50.2781 40.5108 50.1554 40.5908C50.0327 40.6708 49.9261 40.7962 49.8354 40.9668C49.7501 41.1322 49.6834 41.3482 49.6354 41.6148C49.5874 41.8815 49.5634 42.2015 49.5634 42.5748C49.5634 43.3215 49.6541 43.8655 49.8354 44.2068C50.0221 44.5428 50.2647 44.7108 50.5634 44.7108ZM54.0689 45.1428V44.5988H55.2369V40.8388H54.3089V40.4148C54.5435 40.3722 54.7462 40.3215 54.9169 40.2628C55.0929 40.1988 55.2502 40.1242 55.3889 40.0388H55.8929V44.5988H56.9489V45.1428H54.0689ZM60.2943 45.2388C59.777 45.2388 59.3743 45.0095 59.0863 44.5508C58.7983 44.0922 58.6543 43.4335 58.6543 42.5748C58.6543 41.7162 58.7983 41.0628 59.0863 40.6148C59.3743 40.1668 59.777 39.9428 60.2943 39.9428C60.8063 39.9428 61.2063 40.1668 61.4943 40.6148C61.7823 41.0628 61.9263 41.7162 61.9263 42.5748C61.9263 43.4335 61.7823 44.0922 61.4943 44.5508C61.2063 45.0095 60.8063 45.2388 60.2943 45.2388ZM60.2943 44.7108C60.4436 44.7108 60.577 44.6708 60.6943 44.5908C60.817 44.5055 60.921 44.3775 61.0063 44.2068C61.097 44.0308 61.1663 43.8095 61.2143 43.5428C61.2623 43.2708 61.2863 42.9482 61.2863 42.5748C61.2863 42.2015 61.2623 41.8815 61.2143 41.6148C61.1663 41.3482 61.097 41.1322 61.0063 40.9668C60.921 40.7962 60.817 40.6708 60.6943 40.5908C60.577 40.5108 60.4436 40.4708 60.2943 40.4708C60.145 40.4708 60.009 40.5108 59.8863 40.5908C59.7636 40.6708 59.657 40.7962 59.5663 40.9668C59.481 41.1322 59.4143 41.3482 59.3663 41.6148C59.3183 41.8815 59.2943 42.2015 59.2943 42.5748C59.2943 43.3215 59.385 43.8655 59.5663 44.2068C59.753 44.5428 59.9956 44.7108 60.2943 44.7108ZM63.7998 45.1428V44.5988H64.9678V40.8388H64.0398V40.4148C64.2744 40.3722 64.4771 40.3215 64.6478 40.2628C64.8238 40.1988 64.9811 40.1242 65.1198 40.0388H65.6238V44.5988H66.6798V45.1428H63.7998ZM70.0252 45.2388C69.5079 45.2388 69.1052 45.0095 68.8172 44.5508C68.5292 44.0922 68.3852 43.4335 68.3852 42.5748C68.3852 41.7162 68.5292 41.0628 68.8172 40.6148C69.1052 40.1668 69.5079 39.9428 70.0252 39.9428C70.5372 39.9428 70.9372 40.1668 71.2252 40.6148C71.5132 41.0628 71.6572 41.7162 71.6572 42.5748C71.6572 43.4335 71.5132 44.0922 71.2252 44.5508C70.9372 45.0095 70.5372 45.2388 70.0252 45.2388ZM70.0252 44.7108C70.1745 44.7108 70.3079 44.6708 70.4252 44.5908C70.5479 44.5055 70.6519 44.3775 70.7372 44.2068C70.8279 44.0308 70.8972 43.8095 70.9452 43.5428C70.9932 43.2708 71.0172 42.9482 71.0172 42.5748C71.0172 42.2015 70.9932 41.8815 70.9452 41.6148C70.8972 41.3482 70.8279 41.1322 70.7372 40.9668C70.6519 40.7962 70.5479 40.6708 70.4252 40.5908C70.3079 40.5108 70.1745 40.4708 70.0252 40.4708C69.8759 40.4708 69.7399 40.5108 69.6172 40.5908C69.4945 40.6708 69.3879 40.7962 69.2972 40.9668C69.2119 41.1322 69.1452 41.3482 69.0972 41.6148C69.0492 41.8815 69.0252 42.2015 69.0252 42.5748C69.0252 43.3215 69.1159 43.8655 69.2972 44.2068C69.4839 44.5428 69.7265 44.7108 70.0252 44.7108ZM73.5307 45.1428V44.5988H74.6987V40.8388H73.7707V40.4148C74.0053 40.3722 74.208 40.3215 74.3787 40.2628C74.5547 40.1988 74.712 40.1242 74.8507 40.0388H75.3547V44.5988H76.4107V45.1428H73.5307ZM78.3961 45.1428V44.5988H79.5641V40.8388H78.6361V40.4148C78.8708 40.3722 79.0735 40.3215 79.2441 40.2628C79.4201 40.1988 79.5775 40.1242 79.7161 40.0388H80.2201V44.5988H81.2761V45.1428H78.3961ZM83.2616 45.1428V44.5988H84.4296V40.8388H83.5016V40.4148C83.7362 40.3722 83.9389 40.3215 84.1096 40.2628C84.2856 40.1988 84.4429 40.1242 84.5816 40.0388H85.0856V44.5988H86.1416V45.1428H83.2616ZM50.5634 55.2388C50.0461 55.2388 49.6434 55.0095 49.3554 54.5508C49.0674 54.0922 48.9234 53.4335 48.9234 52.5748C48.9234 51.7162 49.0674 51.0628 49.3554 50.6148C49.6434 50.1668 50.0461 49.9428 50.5634 49.9428C51.0754 49.9428 51.4754 50.1668 51.7634 50.6148C52.0514 51.0628 52.1954 51.7162 52.1954 52.5748C52.1954 53.4335 52.0514 54.0922 51.7634 54.5508C51.4754 55.0095 51.0754 55.2388 50.5634 55.2388ZM50.5634 54.7108C50.7127 54.7108 50.8461 54.6708 50.9634 54.5908C51.0861 54.5055 51.1901 54.3775 51.2754 54.2068C51.3661 54.0308 51.4354 53.8095 51.4834 53.5428C51.5314 53.2708 51.5554 52.9482 51.5554 52.5748C51.5554 52.2015 51.5314 51.8815 51.4834 51.6148C51.4354 51.3482 51.3661 51.1322 51.2754 50.9668C51.1901 50.7962 51.0861 50.6708 50.9634 50.5908C50.8461 50.5108 50.7127 50.4708 50.5634 50.4708C50.4141 50.4708 50.2781 50.5108 50.1554 50.5908C50.0327 50.6708 49.9261 50.7962 49.8354 50.9668C49.7501 51.1322 49.6834 51.3482 49.6354 51.6148C49.5874 51.8815 49.5634 52.2015 49.5634 52.5748C49.5634 53.3215 49.6541 53.8655 49.8354 54.2068C50.0221 54.5428 50.2647 54.7108 50.5634 54.7108ZM54.0689 55.1428V54.5988H55.2369V50.8388H54.3089V50.4148C54.5435 50.3722 54.7462 50.3215 54.9169 50.2628C55.0929 50.1988 55.2502 50.1242 55.3889 50.0388H55.8929V54.5988H56.9489V55.1428H54.0689ZM58.9343 55.1428V54.5988H60.1023V50.8388H59.1743V50.4148C59.409 50.3722 59.6116 50.3215 59.7823 50.2628C59.9583 50.1988 60.1156 50.1242 60.2543 50.0388H60.7583V54.5988H61.8143V55.1428H58.9343ZM65.1598 55.2388C64.6424 55.2388 64.2398 55.0095 63.9518 54.5508C63.6638 54.0922 63.5198 53.4335 63.5198 52.5748C63.5198 51.7162 63.6638 51.0628 63.9518 50.6148C64.2398 50.1668 64.6424 49.9428 65.1598 49.9428C65.6718 49.9428 66.0718 50.1668 66.3598 50.6148C66.6478 51.0628 66.7918 51.7162 66.7918 52.5748C66.7918 53.4335 66.6478 54.0922 66.3598 54.5508C66.0718 55.0095 65.6718 55.2388 65.1598 55.2388ZM65.1598 54.7108C65.3091 54.7108 65.4424 54.6708 65.5598 54.5908C65.6824 54.5055 65.7864 54.3775 65.8718 54.2068C65.9624 54.0308 66.0318 53.8095 66.0798 53.5428C66.1278 53.2708 66.1518 52.9482 66.1518 52.5748C66.1518 52.2015 66.1278 51.8815 66.0798 51.6148C66.0318 51.3482 65.9624 51.1322 65.8718 50.9668C65.7864 50.7962 65.6824 50.6708 65.5598 50.5908C65.4424 50.5108 65.3091 50.4708 65.1598 50.4708C65.0104 50.4708 64.8744 50.5108 64.7518 50.5908C64.6291 50.6708 64.5224 50.7962 64.4318 50.9668C64.3464 51.1322 64.2798 51.3482 64.2318 51.6148C64.1838 51.8815 64.1598 52.2015 64.1598 52.5748C64.1598 53.3215 64.2504 53.8655 64.4318 54.2068C64.6184 54.5428 64.8611 54.7108 65.1598 54.7108ZM70.0252 55.2388C69.5079 55.2388 69.1052 55.0095 68.8172 54.5508C68.5292 54.0922 68.3852 53.4335 68.3852 52.5748C68.3852 51.7162 68.5292 51.0628 68.8172 50.6148C69.1052 50.1668 69.5079 49.9428 70.0252 49.9428C70.5372 49.9428 70.9372 50.1668 71.2252 50.6148C71.5132 51.0628 71.6572 51.7162 71.6572 52.5748C71.6572 53.4335 71.5132 54.0922 71.2252 54.5508C70.9372 55.0095 70.5372 55.2388 70.0252 55.2388ZM70.0252 54.7108C70.1745 54.7108 70.3079 54.6708 70.4252 54.5908C70.5479 54.5055 70.6519 54.3775 70.7372 54.2068C70.8279 54.0308 70.8972 53.8095 70.9452 53.5428C70.9932 53.2708 71.0172 52.9482 71.0172 52.5748C71.0172 52.2015 70.9932 51.8815 70.9452 51.6148C70.8972 51.3482 70.8279 51.1322 70.7372 50.9668C70.6519 50.7962 70.5479 50.6708 70.4252 50.5908C70.3079 50.5108 70.1745 50.4708 70.0252 50.4708C69.8759 50.4708 69.7399 50.5108 69.6172 50.5908C69.4945 50.6708 69.3879 50.7962 69.2972 50.9668C69.2119 51.1322 69.1452 51.3482 69.0972 51.6148C69.0492 51.8815 69.0252 52.2015 69.0252 52.5748C69.0252 53.3215 69.1159 53.8655 69.2972 54.2068C69.4839 54.5428 69.7265 54.7108 70.0252 54.7108ZM73.5307 55.1428V54.5988H74.6987V50.8388H73.7707V50.4148C74.0053 50.3722 74.208 50.3215 74.3787 50.2628C74.5547 50.1988 74.712 50.1242 74.8507 50.0388H75.3547V54.5988H76.4107V55.1428H73.5307ZM79.7561 55.2388C79.2388 55.2388 78.8361 55.0095 78.5481 54.5508C78.2601 54.0922 78.1161 53.4335 78.1161 52.5748C78.1161 51.7162 78.2601 51.0628 78.5481 50.6148C78.8361 50.1668 79.2388 49.9428 79.7561 49.9428C80.2681 49.9428 80.6681 50.1668 80.9561 50.6148C81.2441 51.0628 81.3881 51.7162 81.3881 52.5748C81.3881 53.4335 81.2441 54.0922 80.9561 54.5508C80.6681 55.0095 80.2681 55.2388 79.7561 55.2388ZM79.7561 54.7108C79.9055 54.7108 80.0388 54.6708 80.1561 54.5908C80.2788 54.5055 80.3828 54.3775 80.4681 54.2068C80.5588 54.0308 80.6281 53.8095 80.6761 53.5428C80.7241 53.2708 80.7481 52.9482 80.7481 52.5748C80.7481 52.2015 80.7241 51.8815 80.6761 51.6148C80.6281 51.3482 80.5588 51.1322 80.4681 50.9668C80.3828 50.7962 80.2788 50.6708 80.1561 50.5908C80.0388 50.5108 79.9055 50.4708 79.7561 50.4708C79.6068 50.4708 79.4708 50.5108 79.3481 50.5908C79.2255 50.6708 79.1188 50.7962 79.0281 50.9668C78.9428 51.1322 78.8761 51.3482 78.8281 51.6148C78.7801 51.8815 78.7561 52.2015 78.7561 52.5748C78.7561 53.3215 78.8468 53.8655 79.0281 54.2068C79.2148 54.5428 79.4575 54.7108 79.7561 54.7108ZM83.2616 55.1428V54.5988H84.4296V50.8388H83.5016V50.4148C83.7362 50.3722 83.9389 50.3215 84.1096 50.2628C84.2856 50.1988 84.4429 50.1242 84.5816 50.0388H85.0856V54.5988H86.1416V55.1428H83.2616ZM50.5634 65.2388C50.0461 65.2388 49.6434 65.0095 49.3554 64.5508C49.0674 64.0922 48.9234 63.4335 48.9234 62.5748C48.9234 61.7162 49.0674 61.0628 49.3554 60.6148C49.6434 60.1668 50.0461 59.9428 50.5634 59.9428C51.0754 59.9428 51.4754 60.1668 51.7634 60.6148C52.0514 61.0628 52.1954 61.7162 52.1954 62.5748C52.1954 63.4335 52.0514 64.0922 51.7634 64.5508C51.4754 65.0095 51.0754 65.2388 50.5634 65.2388ZM50.5634 64.7108C50.7127 64.7108 50.8461 64.6708 50.9634 64.5908C51.0861 64.5055 51.1901 64.3775 51.2754 64.2068C51.3661 64.0308 51.4354 63.8095 51.4834 63.5428C51.5314 63.2708 51.5554 62.9482 51.5554 62.5748C51.5554 62.2015 51.5314 61.8815 51.4834 61.6148C51.4354 61.3482 51.3661 61.1322 51.2754 60.9668C51.1901 60.7962 51.0861 60.6708 50.9634 60.5908C50.8461 60.5108 50.7127 60.4708 50.5634 60.4708C50.4141 60.4708 50.2781 60.5108 50.1554 60.5908C50.0327 60.6708 49.9261 60.7962 49.8354 60.9668C49.7501 61.1322 49.6834 61.3482 49.6354 61.6148C49.5874 61.8815 49.5634 62.2015 49.5634 62.5748C49.5634 63.3215 49.6541 63.8655 49.8354 64.2068C50.0221 64.5428 50.2647 64.7108 50.5634 64.7108ZM54.0689 65.1428V64.5988H55.2369V60.8388H54.3089V60.4148C54.5435 60.3722 54.7462 60.3215 54.9169 60.2628C55.0929 60.1988 55.2502 60.1242 55.3889 60.0388H55.8929V64.5988H56.9489V65.1428H54.0689ZM58.9343 65.1428V64.5988H60.1023V60.8388H59.1743V60.4148C59.409 60.3722 59.6116 60.3215 59.7823 60.2628C59.9583 60.1988 60.1156 60.1242 60.2543 60.0388H60.7583V64.5988H61.8143V65.1428H58.9343ZM65.1598 65.2388C64.6424 65.2388 64.2398 65.0095 63.9518 64.5508C63.6638 64.0922 63.5198 63.4335 63.5198 62.5748C63.5198 61.7162 63.6638 61.0628 63.9518 60.6148C64.2398 60.1668 64.6424 59.9428 65.1598 59.9428C65.6718 59.9428 66.0718 60.1668 66.3598 60.6148C66.6478 61.0628 66.7918 61.7162 66.7918 62.5748C66.7918 63.4335 66.6478 64.0922 66.3598 64.5508C66.0718 65.0095 65.6718 65.2388 65.1598 65.2388ZM65.1598 64.7108C65.3091 64.7108 65.4424 64.6708 65.5598 64.5908C65.6824 64.5055 65.7864 64.3775 65.8718 64.2068C65.9624 64.0308 66.0318 63.8095 66.0798 63.5428C66.1278 63.2708 66.1518 62.9482 66.1518 62.5748C66.1518 62.2015 66.1278 61.8815 66.0798 61.6148C66.0318 61.3482 65.9624 61.1322 65.8718 60.9668C65.7864 60.7962 65.6824 60.6708 65.5598 60.5908C65.4424 60.5108 65.3091 60.4708 65.1598 60.4708C65.0104 60.4708 64.8744 60.5108 64.7518 60.5908C64.6291 60.6708 64.5224 60.7962 64.4318 60.9668C64.3464 61.1322 64.2798 61.3482 64.2318 61.6148C64.1838 61.8815 64.1598 62.2015 64.1598 62.5748C64.1598 63.3215 64.2504 63.8655 64.4318 64.2068C64.6184 64.5428 64.8611 64.7108 65.1598 64.7108ZM70.0252 65.2388C69.5079 65.2388 69.1052 65.0095 68.8172 64.5508C68.5292 64.0922 68.3852 63.4335 68.3852 62.5748C68.3852 61.7162 68.5292 61.0628 68.8172 60.6148C69.1052 60.1668 69.5079 59.9428 70.0252 59.9428C70.5372 59.9428 70.9372 60.1668 71.2252 60.6148C71.5132 61.0628 71.6572 61.7162 71.6572 62.5748C71.6572 63.4335 71.5132 64.0922 71.2252 64.5508C70.9372 65.0095 70.5372 65.2388 70.0252 65.2388ZM70.0252 64.7108C70.1745 64.7108 70.3079 64.6708 70.4252 64.5908C70.5479 64.5055 70.6519 64.3775 70.7372 64.2068C70.8279 64.0308 70.8972 63.8095 70.9452 63.5428C70.9932 63.2708 71.0172 62.9482 71.0172 62.5748C71.0172 62.2015 70.9932 61.8815 70.9452 61.6148C70.8972 61.3482 70.8279 61.1322 70.7372 60.9668C70.6519 60.7962 70.5479 60.6708 70.4252 60.5908C70.3079 60.5108 70.1745 60.4708 70.0252 60.4708C69.8759 60.4708 69.7399 60.5108 69.6172 60.5908C69.4945 60.6708 69.3879 60.7962 69.2972 60.9668C69.2119 61.1322 69.1452 61.3482 69.0972 61.6148C69.0492 61.8815 69.0252 62.2015 69.0252 62.5748C69.0252 63.3215 69.1159 63.8655 69.2972 64.2068C69.4839 64.5428 69.7265 64.7108 70.0252 64.7108ZM74.8907 65.2388C74.3733 65.2388 73.9707 65.0095 73.6827 64.5508C73.3947 64.0922 73.2507 63.4335 73.2507 62.5748C73.2507 61.7162 73.3947 61.0628 73.6827 60.6148C73.9707 60.1668 74.3733 59.9428 74.8907 59.9428C75.4027 59.9428 75.8027 60.1668 76.0907 60.6148C76.3787 61.0628 76.5227 61.7162 76.5227 62.5748C76.5227 63.4335 76.3787 64.0922 76.0907 64.5508C75.8027 65.0095 75.4027 65.2388 74.8907 65.2388ZM74.8907 64.7108C75.04 64.7108 75.1733 64.6708 75.2907 64.5908C75.4133 64.5055 75.5173 64.3775 75.6027 64.2068C75.6933 64.0308 75.7627 63.8095 75.8107 63.5428C75.8587 63.2708 75.8827 62.9482 75.8827 62.5748C75.8827 62.2015 75.8587 61.8815 75.8107 61.6148C75.7627 61.3482 75.6933 61.1322 75.6027 60.9668C75.5173 60.7962 75.4133 60.6708 75.2907 60.5908C75.1733 60.5108 75.04 60.4708 74.8907 60.4708C74.7413 60.4708 74.6053 60.5108 74.4827 60.5908C74.36 60.6708 74.2533 60.7962 74.1627 60.9668C74.0773 61.1322 74.0107 61.3482 73.9627 61.6148C73.9147 61.8815 73.8907 62.2015 73.8907 62.5748C73.8907 63.3215 73.9813 63.8655 74.1627 64.2068C74.3493 64.5428 74.592 64.7108 74.8907 64.7108ZM78.3961 65.1428V64.5988H79.5641V60.8388H78.6361V60.4148C78.8708 60.3722 79.0735 60.3215 79.2441 60.2628C79.4201 60.1988 79.5775 60.1242 79.7161 60.0388H80.2201V64.5988H81.2761V65.1428H78.3961ZM84.6216 65.2388C84.1042 65.2388 83.7016 65.0095 83.4136 64.5508C83.1256 64.0922 82.9816 63.4335 82.9816 62.5748C82.9816 61.7162 83.1256 61.0628 83.4136 60.6148C83.7016 60.1668 84.1042 59.9428 84.6216 59.9428C85.1336 59.9428 85.5336 60.1668 85.8216 60.6148C86.1096 61.0628 86.2536 61.7162 86.2536 62.5748C86.2536 63.4335 86.1096 64.0922 85.8216 64.5508C85.5336 65.0095 85.1336 65.2388 84.6216 65.2388ZM84.6216 64.7108C84.7709 64.7108 84.9042 64.6708 85.0216 64.5908C85.1442 64.5055 85.2482 64.3775 85.3336 64.2068C85.4242 64.0308 85.4936 63.8095 85.5416 63.5428C85.5896 63.2708 85.6136 62.9482 85.6136 62.5748C85.6136 62.2015 85.5896 61.8815 85.5416 61.6148C85.4936 61.3482 85.4242 61.1322 85.3336 60.9668C85.2482 60.7962 85.1442 60.6708 85.0216 60.5908C84.9042 60.5108 84.7709 60.4708 84.6216 60.4708C84.4722 60.4708 84.3362 60.5108 84.2136 60.5908C84.0909 60.6708 83.9842 60.7962 83.8936 60.9668C83.8082 61.1322 83.7416 61.3482 83.6936 61.6148C83.6456 61.8815 83.6216 62.2015 83.6216 62.5748C83.6216 63.3215 83.7122 63.8655 83.8936 64.2068C84.0802 64.5428 84.3229 64.7108 84.6216 64.7108Z" fill="#D7D7D7"/>
    <path fill-rule="evenodd" clip-rule="evenodd" d="M15.0823 45.7134C14.6358 45.6935 14.2856 45.38 14.2856 45.0001C14.2856 44.6201 14.6358 44.3066 15.0823 44.2867H29.8297C30.1401 44.2729 30.4341 44.4058 30.5942 44.6322C30.7542 44.8586 30.7542 45.1415 30.5942 45.3679C30.4341 45.5943 30.1401 45.7272 29.8297 45.7134H15.0823Z" fill="#D7D7D7"/>
    <path fill-rule="evenodd" clip-rule="evenodd" d="M14.7413 52.1419C14.5827 52.1518 14.4308 52.0861 14.3478 51.9719C14.2649 51.8576 14.2649 51.7139 14.3478 51.5996C14.4308 51.4853 14.5827 51.4197 14.7413 51.4296H40.9728C41.1315 51.4197 41.2834 51.4853 41.3663 51.5996C41.4492 51.7139 41.4492 51.8576 41.3663 51.9719C41.2834 52.0861 41.1315 52.1518 40.9728 52.1419H14.7413Z" fill="#D7D7D7"/>
    <path fill-rule="evenodd" clip-rule="evenodd" d="M14.7413 57.1419C14.5827 57.1518 14.4308 57.0861 14.3478 56.9719C14.2649 56.8576 14.2649 56.7139 14.3478 56.5996C14.4308 56.4853 14.5827 56.4197 14.7413 56.4296H40.9728C41.1315 56.4197 41.2834 56.4853 41.3663 56.5996C41.4492 56.7139 41.4492 56.8576 41.3663 56.9719C41.2834 57.0861 41.1315 57.1518 40.9728 57.1419H14.7413Z" fill="#D7D7D7"/>
    <path fill-rule="evenodd" clip-rule="evenodd" d="M14.7413 62.1419C14.5827 62.1518 14.4308 62.0861 14.3478 61.9719C14.2649 61.8576 14.2649 61.7139 14.3478 61.5996C14.4308 61.4853 14.5827 61.4197 14.7413 61.4296H40.9728C41.1315 61.4197 41.2834 61.4853 41.3663 61.5996C41.4492 61.7139 41.4492 61.8576 41.3663 61.9719C41.2834 62.0861 41.1315 62.1518 40.9728 62.1419H14.7413Z" fill="#D7D7D7"/>
    <path fill-rule="evenodd" clip-rule="evenodd" d="M14.7327 66.4277C14.577 66.4376 14.428 66.3719 14.3467 66.2576C14.2653 66.1434 14.2653 65.9996 14.3467 65.8854C14.428 65.7711 14.577 65.7054 14.7327 65.7153H26.7573C26.9746 65.7291 27.1428 65.8845 27.1428 66.0715C27.1428 66.2585 26.9746 66.4138 26.7573 66.4277H14.7327Z" fill="#D7D7D7"/>
    <g style="mix-blend-mode:screen" opacity="0.1">
        <path fill-rule="evenodd" clip-rule="evenodd" d="M107.857 51.788C107.857 51.788 92.5013 71.262 53.9286 54.0696C15.3558 36.8773 0 54.0696 0 54.0696V73.5714H107.857V51.788Z" fill="#E5E5E5"/>
    </g>
    <g style="mix-blend-mode:multiply">
        <rect y="72.8572" width="107.857" height="0.714286" fill="#E5E5E5"/>
    </g>
    <g style="mix-blend-mode:multiply">
        <path fill-rule="evenodd" clip-rule="evenodd" d="M83.9302 35.4654C78.6899 43.3971 78.6899 53.7458 83.9302 61.6775C89.1706 69.6092 98.617 73.5587 107.857 71.6811V25.4618C98.617 23.5842 89.1706 27.5336 83.9302 35.4654Z" fill="#E5E5E5"/>
    </g>
    <path fill-rule="evenodd" clip-rule="evenodd" d="M106.786 26.6429C119.094 26.6429 129.071 36.6205 129.071 48.9286C129.071 61.2367 119.094 71.2143 106.786 71.2143C94.4776 71.2143 84.5 61.2367 84.5 48.9286C84.5 36.6205 94.4776 26.6429 106.786 26.6429ZM83.5714 48.9286C83.5714 61.7495 93.9648 72.1429 106.786 72.1429C119.607 72.1429 130 61.7495 130 48.9286C129.987 36.1131 119.601 25.7272 106.786 25.7144C93.9648 25.7144 83.5714 36.1077 83.5714 48.9286Z" fill="white"/>
    <g clip-path="url(#clip0)">
        <mask id="mask0" style="{ mask-type:alpha; }" maskUnits="userSpaceOnUse" x="52" y="27" width="78" height="45">
            <rect x="52.95" y="27.1428" width="76.3357" height="44.2857" fill="white"/>
        </mask>
        <g mask="url(#mask0)">
            <path fill-rule="evenodd" clip-rule="evenodd" d="M64.2279 33.3206L70.0756 31.5102L73.0824 32.1457L70.5681 34.9799L67.4082 34.4479L70.4219 35.743L70.1933 36.9293L71.7561 37.2598L71.1099 40.6147L69.5465 40.2844L69.3179 41.4708L66.0605 41.4394L69.1696 42.2332L70.4373 45.8671L67.4303 45.2309L62.7118 41.1863C54.5414 39.2769 53.1616 35.0742 53.1616 35.0742C53.1616 35.0742 55.9907 31.7611 64.2279 33.3206Z" fill="#713EB5"/>
            <path d="M59.3318 34.3735C58.9778 34.2591 58.6632 34.0912 58.3879 33.8698C58.1145 33.6428 57.8967 33.3706 57.7344 33.0533C57.5778 32.7378 57.4882 32.381 57.4656 31.9827C57.4448 31.5788 57.5101 31.1427 57.6614 30.6745C57.8109 30.2121 58.0151 29.8241 58.2741 29.5106C58.5349 29.1913 58.8258 28.9448 59.1468 28.7711C59.4678 28.5974 59.8094 28.4966 60.1715 28.4686C60.5337 28.4406 60.8917 28.4838 61.2457 28.5983C61.6054 28.7145 61.904 28.893 62.1415 29.1337C62.3808 29.3687 62.5633 29.6137 62.6889 29.8687L61.7608 30.4578C61.6605 30.2803 61.5433 30.1258 61.4093 29.9942C61.2828 29.8588 61.1197 29.7587 60.9199 29.6942C60.7315 29.6333 60.5378 29.618 60.3388 29.6482C60.1474 29.6746 59.964 29.7446 59.7886 29.8582C59.6189 29.9736 59.4609 30.1306 59.3147 30.3293C59.1743 30.5298 59.0588 30.7699 58.9684 31.0497C58.782 31.6263 58.7599 32.1142 58.9021 32.5132C59.0461 32.9066 59.3236 33.1697 59.7347 33.3025C59.963 33.3764 60.1814 33.3933 60.3898 33.3535C60.6057 33.3098 60.8061 33.2358 60.9911 33.1317L61.4044 34.1354C60.7591 34.5322 60.0682 34.6116 59.3318 34.3735ZM62.02 35.1289L63.8247 29.5453L65.0836 29.9522L63.6221 34.4739L65.8316 35.188L65.4884 36.2499L62.02 35.1289ZM66.4524 36.5615L68.2572 30.978L69.516 31.3848L67.7113 36.9684L66.4524 36.5615Z" fill="white"/>
            <path fill-rule="evenodd" clip-rule="evenodd" d="M107.143 71.4285C94.9137 71.4285 85 61.5148 85 49.2857C85 37.0565 94.9137 27.1428 107.143 27.1428C119.372 27.1428 129.286 37.0565 129.286 49.2857C129.286 61.5148 119.372 71.4285 107.143 71.4285Z" fill="url(#paint1_linear)"/>
            <path fill-rule="evenodd" clip-rule="evenodd" d="M107.143 71.4285C94.9137 71.4285 85 61.5148 85 49.2857C85 37.0565 94.9137 27.1428 107.143 27.1428C119.372 27.1428 129.286 37.0565 129.286 49.2857C129.286 61.5148 119.372 71.4285 107.143 71.4285Z" fill="url(#paint2_linear)"/>
            <mask id="mask1" style="{ mask-type:alpha; }" maskUnits="userSpaceOnUse" x="85" y="27" width="45" height="45">
                <path fill-rule="evenodd" clip-rule="evenodd" d="M107.143 71.4285C94.9137 71.4285 85 61.5148 85 49.2857C85 37.0565 94.9137 27.1428 107.143 27.1428C119.372 27.1428 129.286 37.0565 129.286 49.2857C129.286 61.5148 119.372 71.4285 107.143 71.4285Z" fill="white"/>
            </mask>
            <g mask="url(#mask1)">
                <path fill-rule="evenodd" clip-rule="evenodd" d="M99.7837 36.4285C99.5087 36.4285 99.2858 36.2686 99.2858 36.0714C99.2858 35.8741 99.5087 35.7142 99.7837 35.7142H115.216C115.491 35.7142 115.714 35.8741 115.714 36.0714C115.714 36.2686 115.491 36.4285 115.216 36.4285H99.7837Z" fill="white"/>
                <path fill-rule="evenodd" clip-rule="evenodd" d="M99.7361 39.2852C99.4837 39.2753 99.2858 39.1185 99.2858 38.9286C99.2858 38.7386 99.4837 38.5818 99.7361 38.5719H108.072C108.247 38.565 108.413 38.6314 108.504 38.7446C108.594 38.8578 108.594 38.9993 108.504 39.1125C108.413 39.2257 108.247 39.2921 108.072 39.2852H99.7361Z" fill="white"/>
                <path fill-rule="evenodd" clip-rule="evenodd" d="M99.5496 43.2137C99.4577 43.2187 99.3698 43.1858 99.3218 43.1287C99.2738 43.0716 99.2738 42.9997 99.3218 42.9426C99.3698 42.8854 99.4577 42.8526 99.5496 42.8575H114.736C114.828 42.8526 114.916 42.8854 114.964 42.9426C115.012 42.9997 115.012 43.0716 114.964 43.1287C114.916 43.1858 114.828 43.2187 114.736 43.2137H99.5496Z" fill="white"/>
                <path fill-rule="evenodd" clip-rule="evenodd" d="M99.5496 46.0709C99.4577 46.0758 99.3698 46.043 99.3218 45.9859C99.2738 45.9287 99.2738 45.8569 99.3218 45.7997C99.3698 45.7426 99.4577 45.7098 99.5496 45.7147H114.736C114.828 45.7098 114.916 45.7426 114.964 45.7997C115.012 45.8569 115.012 45.9287 114.964 45.9859C114.916 46.043 114.828 46.0758 114.736 46.0709H99.5496Z" fill="white"/>
                <path fill-rule="evenodd" clip-rule="evenodd" d="M99.5496 49.2847C99.4577 49.2946 99.3698 49.229 99.3218 49.1147C99.2738 49.0004 99.2738 48.8567 99.3218 48.7424C99.3698 48.6281 99.4577 48.5625 99.5496 48.5724H114.736C114.828 48.5625 114.916 48.6281 114.964 48.7424C115.012 48.8567 115.012 49.0004 114.964 49.1147C114.916 49.229 114.828 49.2946 114.736 49.2847H99.5496Z" fill="white"/>
                <path fill-rule="evenodd" clip-rule="evenodd" d="M99.5341 51.4275C99.4476 51.4374 99.3649 51.3718 99.3197 51.2575C99.2745 51.1432 99.2745 50.9995 99.3197 50.8852C99.3649 50.771 99.4476 50.7053 99.5341 50.7152H106.214C106.335 50.729 106.429 50.8844 106.429 51.0714C106.429 51.2584 106.335 51.4137 106.214 51.4275H99.5341Z" fill="white"/>
                <path fill-rule="evenodd" clip-rule="evenodd" d="M103.155 56.7213C84.7117 48.379 71.4835 39.2856 71.4835 39.2856L71.4686 39.7067C71.4686 39.7067 107.926 65.2855 111.695 74.1611C116.019 70.9787 131.429 57.726 131.429 57.726C131.429 57.726 121.599 65.0637 103.155 56.7213Z" fill="#9D6FDF"/>
                <path fill-rule="evenodd" clip-rule="evenodd" d="M103.155 56.7213C84.7117 48.379 71.4835 39.2856 71.4835 39.2856L71.4686 39.7067C71.4686 39.7067 107.926 65.2855 111.695 74.1611C116.019 70.9787 131.429 57.726 131.429 57.726C131.429 57.726 121.599 65.0637 103.155 56.7213Z" fill="#9D6FDF"/>
                <mask id="mask2" style="{ mask-type:alpha; }" maskUnits="userSpaceOnUse" x="71" y="39" width="61" height="36">
                    <path fill-rule="evenodd" clip-rule="evenodd" d="M103.155 56.7213C84.7117 48.379 71.4835 39.2856 71.4835 39.2856L71.4686 39.7067C71.4686 39.7067 107.926 65.2855 111.695 74.1611C116.019 70.9787 131.429 57.726 131.429 57.726C131.429 57.726 121.599 65.0637 103.155 56.7213Z" fill="white"/>
                </mask>
                <g mask="url(#mask2)">
                    <path fill-rule="evenodd" clip-rule="evenodd" d="M119.634 70.1681L110.346 78.257L71.4687 39.7067L119.634 70.1681Z" fill="#F3F0FF"/>
                </g>
                <path fill-rule="evenodd" clip-rule="evenodd" d="M127.037 49.3452C125.545 49.6806 123.772 51.4791 123.772 51.4791C123.772 51.4791 120.975 49.3092 118.845 50.4497C116.715 51.5899 115.901 54.3382 115.901 54.3382C115.901 54.3382 114.843 54.8044 114.202 55.8822C113.562 56.9597 113.522 58.6335 113.522 58.6335C113.522 58.6335 112.227 57.5401 109.898 58.2841C107.57 59.0281 106.943 62.326 106.943 62.326C106.943 62.326 105.598 62.1647 104.632 62.7444C103.667 63.3239 102.82 64.4599 102.82 64.4599C102.82 64.4599 100.823 62.3887 98.007 63.3735C95.1914 64.3581 95 67.5027 95 67.5027V76.4285H130V50.2028C130 50.2028 128.527 49.0095 127.037 49.3452Z" fill="url(#paint3_linear)"/>
                <path fill-rule="evenodd" clip-rule="evenodd" d="M121.37 55.0493C120.072 55.3654 119.604 56.7253 119.604 56.7253C119.604 56.7253 118.076 54.9208 116.112 55.6226C114.148 56.3242 113.654 58.6623 113.654 58.6623C113.654 58.6623 112.718 59.2495 112.34 59.9241C111.961 60.5988 111.94 61.8743 111.94 61.8743C111.94 61.8743 110.129 61.0772 108.739 61.8168C107.35 62.5563 106.992 63.9965 106.992 63.9965C106.992 63.9965 106.071 64.1134 105.398 65.0329C104.726 65.9521 104.77 66.3126 104.77 66.3126C104.77 66.3126 103.06 64.5915 100.355 65.4318C97.6495 66.2717 97.8807 68.2979 97.8807 68.2979C97.8807 68.2979 96.9241 69.0317 96.4518 69.7892C95.9798 70.5463 95.9947 71.3376 95.9947 71.3376C95.9947 71.3376 94.3069 71.0203 93.8712 71.3824C93.4354 71.7448 93.603 77.8571 93.603 77.8571H124.286V56.0436C124.286 56.0436 122.667 54.7329 121.37 55.0493Z" fill="url(#paint4_linear)"/>
                <path fill-rule="evenodd" clip-rule="evenodd" d="M125.655 55.7635C124.357 56.0796 123.889 57.4395 123.889 57.4395C123.889 57.4395 122.362 55.635 120.398 56.3369C118.434 57.0384 117.94 59.3766 117.94 59.3766C117.94 59.3766 117.004 59.9637 116.626 60.6384C116.247 61.313 116.226 62.5886 116.226 62.5886C116.226 62.5886 114.415 61.7915 113.025 62.531C111.636 63.2706 111.278 64.7107 111.278 64.7107C111.278 64.7107 110.356 64.8277 109.684 65.7471C109.012 66.6663 109.056 67.0268 109.056 67.0268C109.056 67.0268 107.346 65.3058 104.641 66.146C101.935 66.9859 102.166 69.0122 102.166 69.0122C102.166 69.0122 101.21 69.746 100.738 70.5034C100.266 71.2605 100.28 72.0519 100.28 72.0519C100.28 72.0519 98.5926 71.7345 98.1569 72.0966C97.7212 72.459 97.8888 78.5714 97.8888 78.5714H128.571V56.7578C128.571 56.7578 126.953 55.4471 125.655 55.7635Z" fill="url(#paint5_linear)"/>
            </g>
            <path fill-rule="evenodd" clip-rule="evenodd" d="M71.0953 39.2856L71.0805 39.7067C71.0805 39.7067 91.6171 54.2005 98.5814 60.5001C102.906 57.3176 107.143 58.2421 102.767 56.7213C98.3915 55.2005 71.0953 39.2856 71.0953 39.2856Z" fill="#9D6FDF"/>
        </g>
        <path fill-rule="evenodd" clip-rule="evenodd" d="M71.0953 39.2856L71.0805 39.7067C71.0805 39.7067 91.6171 54.2005 98.5814 60.5001C102.906 57.3176 107.143 58.2421 102.767 56.7213C98.3915 55.2005 71.0953 39.2856 71.0953 39.2856Z" fill="#9D6FDF"/>
        <mask id="mask3" style="{ mask-type:alpha; }" maskUnits="userSpaceOnUse" x="71" y="39" width="34" height="22">
            <path fill-rule="evenodd" clip-rule="evenodd" d="M71.0953 39.2856L71.0805 39.7067C71.0805 39.7067 91.6171 54.2005 98.5814 60.5001C102.906 57.3176 107.143 58.2421 102.767 56.7213C98.3915 55.2005 71.0953 39.2856 71.0953 39.2856Z" fill="white"/>
        </mask>
        <g mask="url(#mask3)">
            <path fill-rule="evenodd" clip-rule="evenodd" d="M112.066 65.2551L107.857 69.2856L70 39.2856L112.066 65.2551Z" fill="#F3F0FF"/>
        </g>
    </g>
    <defs>
        <linearGradient id="paint0_linear" x1="-12.818" y1="39.1112" x2="-13.3787" y2="92.2305" gradientUnits="userSpaceOnUse">
            <stop stop-color="#8033EB"/>
            <stop offset="0.53" stop-color="#D4648E"/>
            <stop offset="1" stop-color="#EC7071"/>
        </linearGradient>
        <linearGradient id="paint1_linear" x1="132.312" y1="90.0654" x2="147.533" y2="54.0856" gradientUnits="userSpaceOnUse">
            <stop stop-color="#8033EB"/>
            <stop offset="0.53" stop-color="#D4648E"/>
            <stop offset="1" stop-color="#EC7071"/>
        </linearGradient>
        <linearGradient id="paint2_linear" x1="132.312" y1="90.0654" x2="147.533" y2="54.0856" gradientUnits="userSpaceOnUse">
            <stop stop-color="#8033EB"/>
            <stop offset="0.53" stop-color="#D4648E"/>
            <stop offset="1" stop-color="#EC7071"/>
        </linearGradient>
        <linearGradient id="paint3_linear" x1="118.22" y1="54.014" x2="121.053" y2="61.7455" gradientUnits="userSpaceOnUse">
            <stop stop-color="#F6E0FF"/>
            <stop offset="1" stop-color="#9E45CA"/>
        </linearGradient>
        <linearGradient id="paint4_linear" x1="125.894" y1="57.5738" x2="125.001" y2="71.9387" gradientUnits="userSpaceOnUse">
            <stop stop-color="#F6E0FF"/>
            <stop offset="1" stop-color="#9E45CA"/>
        </linearGradient>
        <linearGradient id="paint5_linear" x1="121.353" y1="57.2827" x2="125.039" y2="67.1508" gradientUnits="userSpaceOnUse">
            <stop stop-color="#F6E0FF"/>
            <stop offset="1" stop-color="#9E45CA"/>
        </linearGradient>
        <clipPath id="clip0">
            <rect width="77" height="45" fill="white" transform="translate(52.95 27.1428)"/>
        </clipPath>
    </defs>
</svg>
