<svg width="220" height="146" viewBox="0 0 220 146" fill="none" xmlns="http://www.w3.org/2000/svg">
<circle cx="204.859" cy="130.923" r="14.4239" fill="#F2F2F2"/>
<path fill-rule="evenodd" clip-rule="evenodd" d="M76.6816 48.0344C71.3083 48.0296 66.9556 43.6712 66.9579 38.298C66.9602 32.9247 71.3166 28.57 76.6899 28.5698C79.2731 28.5706 81.7501 29.5981 83.5755 31.4259C85.4009 33.2538 86.4251 35.7322 86.4224 38.3154C86.4152 43.6884 82.0548 48.0391 76.6816 48.0344Z" fill="#F2F2F2"/>
<path fill-rule="evenodd" clip-rule="evenodd" d="M0.717285 88.1974C0.717285 85.1032 1.81127 82.4621 3.99923 80.2741C6.18719 78.0862 8.82829 76.9922 11.9225 76.9922H57.485C60.5792 76.9922 63.2203 78.0862 65.4083 80.2741C67.5963 82.4621 68.6902 85.1032 68.6902 88.1974V89.5374C68.6902 92.6317 67.5963 95.2728 65.4083 97.4607C63.2203 99.6487 60.5792 100.743 57.485 100.743H11.9225C8.82829 100.743 6.18719 99.6487 3.99923 97.4607C1.81127 95.2728 0.717285 92.6317 0.717285 89.5374V88.8674V88.1974Z" fill="#F2F2F2"/>
<path fill-rule="evenodd" clip-rule="evenodd" d="M118.801 44.2077C118.801 41.1134 119.895 38.4723 122.083 36.2844C124.271 34.0964 126.912 33.0024 130.007 33.0024H205.993C209.087 33.0024 211.728 34.0964 213.916 36.2844C216.104 38.4723 217.198 41.1134 217.198 44.2077V45.5477C217.198 48.6419 216.104 51.283 213.916 53.471C211.728 55.6589 209.087 56.7529 205.993 56.7529H130.007C126.912 56.7529 124.271 55.6589 122.083 53.471C119.895 51.283 118.801 48.6419 118.801 45.5477V44.8777V44.2077Z" fill="#F2F2F2"/>
<path fill-rule="evenodd" clip-rule="evenodd" d="M21.8112 135.256V15.5991H22.1437V134.923H203.057V135.256H21.8112Z" fill="#B3B3B3"/>
<path fill-rule="evenodd" clip-rule="evenodd" d="M20.1585 14.5491C19.854 13.8131 20.023 12.9662 20.5867 12.4035C21.1503 11.8408 21.9975 11.6733 22.7329 11.979C23.4684 12.2847 23.9471 13.0035 23.9458 13.7999C23.9439 14.8857 23.0632 15.765 21.9774 15.765H21.9774C21.1809 15.765 20.463 15.285 20.1585 14.5491ZM20.466 13.1739C20.2128 13.7852 20.3528 14.4889 20.8206 14.9567C21.2885 15.4246 21.9921 15.5645 22.6034 15.3113C23.2147 15.0581 23.6133 14.4616 23.6133 13.8C23.6141 13.3658 23.4421 12.9492 23.1351 12.6422C22.8281 12.3352 22.4115 12.1632 21.9773 12.1641L21.9774 12.1641C21.3157 12.1641 20.7192 12.5626 20.466 13.1739Z" fill="#B3B3B3"/>
<path fill-rule="evenodd" clip-rule="evenodd" d="M203.04 135.839C202.736 135.103 202.905 134.256 203.468 133.694C204.032 133.131 204.879 132.963 205.615 133.269C206.35 133.575 206.829 134.294 206.827 135.09C206.826 136.176 205.945 137.055 204.859 137.055C204.063 137.055 203.345 136.575 203.04 135.839ZM203.348 134.464C203.094 135.075 203.234 135.779 203.702 136.247C204.17 136.715 204.874 136.855 205.485 136.601C206.096 136.348 206.495 135.752 206.495 135.09C206.493 134.187 205.762 133.456 204.859 133.454H204.859C204.197 133.454 203.601 133.853 203.348 134.464Z" fill="#B3B3B3"/>
<rect x="20.1786" y="24.1943" width="3.60097" height="0.332502" fill="#B3B3B3"/>
<rect x="20.1786" y="38.1494" width="3.60097" height="0.3325" fill="#B3B3B3"/>
<rect x="20.1786" y="52.1006" width="3.60097" height="0.3325" fill="#B3B3B3"/>
<rect x="20.1786" y="66.0557" width="3.60097" height="0.332497" fill="#B3B3B3"/>
<rect x="20.1786" y="80.0107" width="3.60097" height="0.332512" fill="#B3B3B3"/>
<rect x="20.1786" y="93.9658" width="3.60097" height="0.332512" fill="#B3B3B3"/>
<rect x="20.1786" y="107.921" width="3.60097" height="0.332512" fill="#B3B3B3"/>
<rect x="20.1786" y="121.876" width="3.60097" height="0.332512" fill="#B3B3B3"/>
<rect x="26.9382" y="24.1943" width="177.924" height="0.332502" fill="#D6D6D6"/>
<rect x="26.9382" y="38.1494" width="177.924" height="0.3325" fill="#D6D6D6"/>
<rect x="26.9382" y="52.1006" width="177.924" height="0.3325" fill="#D6D6D6"/>
<rect x="26.9382" y="66.0557" width="177.924" height="0.332497" fill="#D6D6D6"/>
<rect x="26.9382" y="80.0107" width="177.924" height="0.332512" fill="#D6D6D6"/>
<rect x="26.9382" y="93.9658" width="177.924" height="0.332512" fill="#D6D6D6"/>
<rect x="26.9382" y="107.921" width="177.924" height="0.332512" fill="#D6D6D6"/>
<rect x="26.9382" y="121.876" width="177.924" height="0.332512" fill="#D6D6D6"/>
<g style="mix-blend-mode:multiply">
<rect x="35.9822" y="92.1904" width="11.7472" height="38.7329" fill="#E5E5E5"/>
</g>
<rect x="34.9183" y="93.4736" width="11.7472" height="37.4495" fill="url(#paint0_linear)"/>
<g style="mix-blend-mode:multiply">
<rect x="61.0826" y="84.1572" width="11.7472" height="46.7661" fill="#E5E5E5"/>
</g>
<rect x="60.0187" y="85.4404" width="11.7472" height="45.4793" fill="url(#paint1_linear)"/>
<g style="mix-blend-mode:multiply">
<rect x="86.1831" y="76.5264" width="11.7472" height="54.397" fill="#E5E5E5"/>
</g>
<rect x="85.119" y="77.8096" width="11.7472" height="53.1102" fill="url(#paint2_linear)"/>
<g style="mix-blend-mode:multiply">
<rect x="111.287" y="68.4932" width="11.7472" height="62.4302" fill="#E5E5E5"/>
</g>
<rect x="110.223" y="69.7764" width="11.7472" height="61.1434" fill="url(#paint3_linear)"/>
<g style="mix-blend-mode:multiply">
<rect x="136.387" y="60.0576" width="11.7472" height="70.8624" fill="#E5E5E5"/>
</g>
<rect x="135.323" y="61.3447" width="11.7472" height="69.5789" fill="url(#paint4_linear)"/>
<g style="mix-blend-mode:multiply">
<rect x="161.491" y="52.0244" width="11.7472" height="78.8956" fill="#E5E5E5"/>
</g>
<rect x="160.427" y="53.311" width="11.7472" height="77.6122" fill="url(#paint5_linear)"/>
<g style="mix-blend-mode:multiply">
<rect x="186.591" y="43.5923" width="11.7472" height="87.3311" fill="#E5E5E5"/>
</g>
<rect x="185.527" y="44.8755" width="11.7472" height="86.0443" fill="url(#paint6_linear)"/>
<path fill-rule="evenodd" clip-rule="evenodd" d="M11.0411 7.01034C14.5675 1.34021 21.8408 -0.697389 27.7998 2.31541C33.7588 5.32821 36.4297 12.3935 33.954 18.5949L33.6448 18.4686C36.06 12.4217 33.4545 5.53174 27.6424 2.59622C21.8303 -0.339299 14.7386 1.65286 11.3053 7.18553C7.87208 12.7182 9.23551 19.9571 14.4462 23.8617L14.2401 24.1177C8.90297 20.1051 7.51459 12.6805 11.0411 7.01034Z" fill="#F94F24"/>
<defs>
<linearGradient id="paint0_linear" x1="47.1515" y1="113.753" x2="47.1515" y2="103.971" gradientUnits="userSpaceOnUse">
<stop stop-color="#8033EB"/>
<stop offset="0.53" stop-color="#D4648E"/>
<stop offset="1" stop-color="#EC7071"/>
</linearGradient>
<linearGradient id="paint1_linear" x1="72.2554" y1="110.069" x2="72.2554" y2="98.1852" gradientUnits="userSpaceOnUse">
<stop stop-color="#8033EB"/>
<stop offset="0.53" stop-color="#D4648E"/>
<stop offset="1" stop-color="#EC7071"/>
</linearGradient>
<linearGradient id="paint2_linear" x1="97.3551" y1="106.567" x2="97.3551" y2="92.6956" gradientUnits="userSpaceOnUse">
<stop stop-color="#8033EB"/>
<stop offset="0.53" stop-color="#D4648E"/>
<stop offset="1" stop-color="#EC7071"/>
</linearGradient>
<linearGradient id="paint3_linear" x1="122.459" y1="102.887" x2="122.459" y2="86.9134" gradientUnits="userSpaceOnUse">
<stop stop-color="#8033EB"/>
<stop offset="0.53" stop-color="#D4648E"/>
<stop offset="1" stop-color="#EC7071"/>
</linearGradient>
<linearGradient id="paint4_linear" x1="147.559" y1="99.0203" x2="147.559" y2="80.8459" gradientUnits="userSpaceOnUse">
<stop stop-color="#8033EB"/>
<stop offset="0.53" stop-color="#D4648E"/>
<stop offset="1" stop-color="#EC7071"/>
</linearGradient>
<linearGradient id="paint5_linear" x1="172.663" y1="95.3357" x2="172.663" y2="75.0632" gradientUnits="userSpaceOnUse">
<stop stop-color="#8033EB"/>
<stop offset="0.53" stop-color="#D4648E"/>
<stop offset="1" stop-color="#EC7071"/>
</linearGradient>
<linearGradient id="paint6_linear" x1="197.764" y1="91.4687" x2="197.764" y2="68.9917" gradientUnits="userSpaceOnUse">
<stop stop-color="#8033EB"/>
<stop offset="0.53" stop-color="#D4648E"/>
<stop offset="1" stop-color="#EC7071"/>
</linearGradient>
</defs>
</svg>
