<svg width="178" height="159" viewBox="0 0 178 159" fill="none" xmlns="http://www.w3.org/2000/svg">
<path fill-rule="evenodd" clip-rule="evenodd" d="M17.244 102.844C-1.63786 93.1873 -3.36719 76.3112 4.17348 49.5971C11.7142 22.883 30.4402 7.70617 59.4717 27.6337C88.5033 47.5611 107.079 73.5312 75.1111 92.4633C75.1111 92.4633 36.1258 112.501 17.244 102.844Z" fill="#F2F2F2"/>
<path fill-rule="evenodd" clip-rule="evenodd" d="M136.754 47.3107C147.185 40.0867 156.591 43.9727 168.535 55.53C180.479 67.0874 183.179 81.2538 164.443 90.9109C145.707 100.568 126.74 102.996 125.82 80.7762C125.82 80.7762 126.322 54.5346 136.754 47.3107Z" fill="#F2F2F2"/>
<path fill-rule="evenodd" clip-rule="evenodd" d="M136.416 25.9572C131.374 28.0471 125.57 26.8937 121.71 23.0351C117.85 19.1765 116.695 13.3726 118.783 8.33013C120.871 3.28766 125.792 -0.000153415 131.249 0C134.827 -0.00123883 138.259 1.41925 140.79 3.94882C143.32 6.4784 144.742 9.90977 144.742 13.4877C144.744 18.9459 141.457 23.8673 136.416 25.9572Z" fill="#F2F2F2"/>
<g style="mix-blend-mode:multiply">
<path fill-rule="evenodd" clip-rule="evenodd" d="M135.587 62.7381C135.402 62.4297 135.386 62.0479 135.546 61.7253C135.706 61.4028 136.019 61.1838 136.377 61.1445C129.917 53.8794 120.062 50.6284 110.547 52.6235C102.914 41.6053 89.5421 36.0698 76.3545 38.4688C63.1669 40.8678 52.6012 50.758 49.3372 63.7586C48.596 63.6778 47.8508 63.6375 47.1052 63.6379C35.3416 63.638 25.8053 73.1742 25.8053 84.9378C25.8053 96.7014 35.3416 106.238 47.1052 106.238H116.127C121.969 106.238 126.594 104.694 130.927 100.361C133.456 95.1267 135.216 89.5544 136.15 83.8168V83.8168C137.241 77.3318 139.202 68.7354 135.587 62.7381Z" fill="#EBEBEB"/>
</g>
<path fill-rule="evenodd" clip-rule="evenodd" d="M108.084 49.909C100.451 38.8908 87.0802 33.3546 73.8928 35.7525C60.7054 38.1504 50.139 48.0393 46.8737 61.0391C46.1322 60.9624 45.3872 60.9238 44.6417 60.9234C32.8819 60.9281 23.351 70.4622 23.3502 82.222C23.3495 93.9818 32.8792 103.517 44.639 103.523H113.644C128.609 103.523 140.74 91.3918 140.74 76.4271C140.74 61.4623 128.609 49.3309 113.644 49.3309V49.3309C111.776 49.3326 109.913 49.5264 108.084 49.909Z" fill="url(#paint0_linear)"/>
<path fill-rule="evenodd" clip-rule="evenodd" d="M54.1481 36.6578C48.5259 41.1213 44.1403 46.9502 41.4094 53.5891C26.2045 55.2773 14.9703 68.555 15.8231 83.8296C16.6759 99.1042 29.3183 111.049 44.6168 111.034H113.644C126.108 111.184 137.69 104.621 143.966 93.8508C150.242 83.081 150.242 69.7684 143.966 58.9986C137.69 48.2288 126.108 41.6654 113.644 41.8156C112.87 41.8156 112.096 41.8407 111.322 41.896C103.407 32.8725 91.9901 27.6943 79.9875 27.6844V27.6844C70.6045 27.6498 61.4901 30.815 54.1481 36.6578Z" stroke="#F94F24" stroke-linecap="round" stroke-dasharray="3.4 2.27"/>
<path fill-rule="evenodd" clip-rule="evenodd" d="M46.8488 64.3017C50.1104 51.291 60.6846 41.3932 73.8822 38.9977C87.0799 36.6022 100.458 42.1523 108.084 53.1868C109.914 52.8118 111.777 52.6232 113.644 52.6238C127.92 52.6253 139.745 63.7048 140.675 77.9504C140.715 77.3622 140.74 76.774 140.74 76.1758C140.74 68.0063 137.057 60.2763 130.715 55.1322C124.374 49.9882 116.05 47.979 108.06 49.6636C100.427 38.6478 87.0575 33.1132 73.8718 35.5108C60.6861 37.9084 50.1205 47.7951 46.8538 60.7928C46.1123 60.7162 45.3673 60.6776 44.6218 60.6772C32.8582 60.6772 23.3219 70.2135 23.3219 81.9771C23.3219 82.5703 23.3521 83.1635 23.4023 83.7466C24.3051 72.6988 33.5321 64.1912 44.6168 64.1861L44.6168 64.1861C45.3623 64.1865 46.1073 64.2251 46.8488 64.3017Z" fill="#8E4DEC"/>
<g style="mix-blend-mode:multiply">
<path fill-rule="evenodd" clip-rule="evenodd" d="M130.193 75.3797C128.874 80.8675 131.49 86.5441 136.52 89.1049L136.52 108.549C136.518 108.843 136.634 109.127 136.844 109.334L141.284 113.774C141.717 114.208 142.421 114.208 142.855 113.774L147.294 109.334C147.501 109.125 147.617 108.843 147.618 108.549L147.618 106.331C147.618 105.991 147.462 105.67 147.195 105.46L145.865 104.407L147.362 102.598C147.707 102.187 147.707 101.588 147.362 101.176L145.865 99.3671L147.198 98.3114C147.45 98.1184 147.603 97.8245 147.618 97.508C147.636 97.1917 147.518 96.8826 147.294 96.6585L145.833 95.1975L147.255 93.7757C147.463 93.5655 147.581 93.2823 147.582 92.9866L147.607 88.9877C151.684 86.9587 154.263 82.7994 154.269 78.2456C154.262 71.5085 148.806 66.0464 142.069 66.032L142.069 66.032C136.425 66.0258 131.513 69.8919 130.193 75.3797ZM143.344 76.88C142.1 77.3953 140.669 77.1106 139.717 76.1587C138.765 75.2069 138.48 73.7753 138.996 72.5317C139.511 71.2881 140.725 70.4774 142.071 70.4777C143.907 70.4809 145.395 71.9686 145.398 73.8048C145.398 75.151 144.588 76.3647 143.344 76.88Z" fill="#CCCCCC"/>
</g>
<path fill-rule="evenodd" clip-rule="evenodd" d="M128.098 74.9877C126.778 80.4754 129.395 86.1521 134.424 88.7129L134.424 108.157C134.426 108.45 134.542 108.732 134.748 108.942L139.191 113.385C139.625 113.819 140.328 113.819 140.762 113.385L145.202 108.946C145.412 108.738 145.528 108.455 145.526 108.16L145.525 105.942C145.527 105.602 145.37 105.281 145.102 105.071L143.777 104.015L145.27 102.21C145.617 101.799 145.617 101.198 145.27 100.788L143.773 98.9785L145.106 97.9228C145.357 97.7299 145.511 97.436 145.525 97.1195C145.544 96.8031 145.426 96.4941 145.202 96.27L143.741 94.809L145.163 93.3872C145.371 93.1788 145.487 92.8961 145.486 92.6016L145.515 88.6062C149.59 86.5739 152.167 82.4142 152.173 77.8607C152.17 71.1208 146.713 65.6544 139.973 65.6399L139.973 65.6399C134.329 65.6337 129.417 69.4999 128.098 74.9877ZM141.247 76.4864C140.003 77.0017 138.572 76.717 137.62 75.7652C136.668 74.8133 136.383 73.3818 136.898 72.1382C137.414 70.8946 138.628 70.0839 139.974 70.0842C140.856 70.083 141.703 70.4332 142.328 71.0574C142.952 71.6816 143.302 72.5285 143.301 73.4113C143.301 74.7574 142.49 75.9711 141.247 76.4864Z" fill="#FFC300"/>
<path fill-rule="evenodd" clip-rule="evenodd" d="M141.448 70.1056C141.206 70.1054 140.963 70.1329 140.727 70.1874C142.25 70.5252 143.334 71.876 143.334 73.4363C143.334 74.9966 142.25 76.3474 140.727 76.6852C140.965 76.7366 141.208 76.7628 141.452 76.7634C143.288 76.7602 144.776 75.2725 144.779 73.4363L144.779 73.4363C144.775 71.5984 143.286 70.1096 141.448 70.1056Z" fill="#FFD344"/>
<path fill-rule="evenodd" clip-rule="evenodd" d="M136.231 108.97C136.023 108.763 135.905 108.481 135.904 108.188L135.904 88.7368C130.998 86.235 128.377 80.7571 129.506 75.3673C130.635 69.9774 135.234 66.0119 140.731 65.6888C140.49 65.6746 140.253 65.6746 140.02 65.6888C134.376 65.6826 129.464 69.5487 128.145 75.0365C126.825 80.5243 129.442 86.2009 134.472 88.7617L134.45 108.177C134.451 108.471 134.567 108.753 134.774 108.963L139.213 113.402C139.625 113.812 140.283 113.834 140.721 113.452C140.71 113.441 140.689 113.427 140.671 113.409L136.231 108.97Z" fill="#FFD344"/>
<path fill-rule="evenodd" clip-rule="evenodd" d="M137.654 90.0766L137.655 108.155C137.657 108.59 138.009 108.942 138.444 108.944C138.653 108.946 138.855 108.863 139.003 108.715C139.151 108.566 139.234 108.365 139.233 108.155L139.236 90.0802C139.235 89.6427 138.881 89.2884 138.444 89.2875L138.444 89.2875C138.009 89.2903 137.657 89.642 137.654 90.0766Z" fill="#FFA200"/>
<path d="M62.8986 70.8789V61.6949H64.0606V70.8789H62.8986ZM68.7884 71.0469C67.9297 71.0469 67.2437 70.7389 66.7304 70.1229C66.2264 69.5069 65.9744 68.6296 65.9744 67.4909C65.9744 66.9402 66.0537 66.4456 66.2124 66.0069C66.3804 65.5589 66.5997 65.1809 66.8704 64.8729C67.141 64.5649 67.4537 64.3269 67.8084 64.1589C68.163 63.9909 68.5364 63.9069 68.9284 63.9069C69.3204 63.9069 69.661 63.9769 69.9504 64.1169C70.2397 64.2569 70.5337 64.4482 70.8324 64.6909L70.7764 63.5289V60.9109H71.9384V70.8789H70.9864L70.8884 70.0809H70.8464C70.5757 70.3422 70.263 70.5709 69.9084 70.7669C69.563 70.9536 69.1897 71.0469 68.7884 71.0469ZM69.0404 70.0809C69.3577 70.0809 69.6564 70.0062 69.9364 69.8569C70.2164 69.6982 70.4964 69.4602 70.7764 69.1429V65.5869C70.487 65.3256 70.207 65.1436 69.9364 65.0409C69.675 64.9289 69.4044 64.8729 69.1244 64.8729C68.8537 64.8729 68.597 64.9382 68.3544 65.0689C68.121 65.1902 67.9157 65.3676 67.7384 65.6009C67.561 65.8249 67.421 66.0956 67.3184 66.4129C67.2157 66.7302 67.1644 67.0849 67.1644 67.4769C67.1644 68.2982 67.3277 68.9376 67.6544 69.3949C67.981 69.8522 68.443 70.0809 69.0404 70.0809ZM76.988 71.0469C76.5307 71.0469 76.1013 70.9676 75.7 70.8089C75.308 70.6409 74.9627 70.4076 74.664 70.1089C74.3747 69.8009 74.146 69.4276 73.978 68.9889C73.81 68.5502 73.726 68.0509 73.726 67.4909C73.726 66.9309 73.81 66.4316 73.978 65.9929C74.1553 65.5449 74.384 65.1669 74.664 64.8589C74.9533 64.5509 75.28 64.3176 75.644 64.1589C76.008 63.9909 76.386 63.9069 76.778 63.9069C77.2073 63.9069 77.59 63.9816 77.926 64.1309C78.2713 64.2802 78.556 64.4949 78.78 64.7749C79.0133 65.0549 79.1907 65.3909 79.312 65.7829C79.4333 66.1749 79.494 66.6136 79.494 67.0989C79.494 67.2202 79.4893 67.3416 79.48 67.4629C79.48 67.5749 79.4707 67.6729 79.452 67.7569H74.86C74.9067 68.4849 75.1307 69.0636 75.532 69.4929C75.9427 69.9129 76.4747 70.1229 77.128 70.1229C77.4547 70.1229 77.7533 70.0762 78.024 69.9829C78.304 69.8802 78.57 69.7496 78.822 69.5909L79.228 70.3469C78.9293 70.5336 78.598 70.6969 78.234 70.8369C77.87 70.9769 77.4547 71.0469 76.988 71.0469ZM74.846 66.9309H78.486C78.486 66.2402 78.3367 65.7176 78.038 65.3629C77.7487 64.9989 77.338 64.8169 76.806 64.8169C76.5633 64.8169 76.33 64.8636 76.106 64.9569C75.8913 65.0502 75.6953 65.1902 75.518 65.3769C75.3407 65.5542 75.1913 65.7736 75.07 66.0349C74.958 66.2962 74.8833 66.5949 74.846 66.9309ZM81.1753 70.8789V64.0749H82.1273L82.2253 65.0549H82.2673C82.594 64.7282 82.9346 64.4576 83.2893 64.2429C83.6533 64.0189 84.0733 63.9069 84.5493 63.9069C85.268 63.9069 85.7906 64.1309 86.1173 64.5789C86.4533 65.0269 86.6213 65.6896 86.6213 66.5669V70.8789H85.4733V66.7209C85.4733 66.0769 85.3706 65.6149 85.1653 65.3349C84.96 65.0456 84.6333 64.9009 84.1853 64.9009C83.8306 64.9009 83.518 64.9896 83.2473 65.1669C82.9766 65.3442 82.6686 65.6056 82.3233 65.9509V70.8789H81.1753ZM90.9736 71.0469C90.6096 71.0469 90.3016 70.9909 90.0496 70.8789C89.8069 70.7669 89.6062 70.6129 89.4476 70.4169C89.2982 70.2209 89.1909 69.9829 89.1256 69.7029C89.0602 69.4229 89.0276 69.1149 89.0276 68.7789V65.0129H88.0196V64.1449L89.0836 64.0749L89.2236 62.1709H90.1896V64.0749H92.0236V65.0129H90.1896V68.7929C90.1896 69.2129 90.2642 69.5396 90.4136 69.7729C90.5722 69.9969 90.8476 70.1089 91.2396 70.1089C91.3609 70.1089 91.4916 70.0902 91.6316 70.0529C91.7716 70.0156 91.8976 69.9736 92.0096 69.9269L92.2336 70.7949C92.0469 70.8602 91.8416 70.9162 91.6176 70.9629C91.4029 71.0189 91.1882 71.0469 90.9736 71.0469ZM93.562 70.8789V64.0749H94.71V70.8789H93.562ZM94.15 62.6749C93.926 62.6749 93.7347 62.6049 93.576 62.4649C93.4267 62.3249 93.352 62.1476 93.352 61.9329C93.352 61.7089 93.4267 61.5316 93.576 61.4009C93.7347 61.2609 93.926 61.1909 94.15 61.1909C94.374 61.1909 94.5607 61.2609 94.71 61.4009C94.8687 61.5316 94.948 61.7089 94.948 61.9329C94.948 62.1476 94.8687 62.3249 94.71 62.4649C94.5607 62.6049 94.374 62.6749 94.15 62.6749ZM99.1493 71.0469C98.7853 71.0469 98.4773 70.9909 98.2253 70.8789C97.9827 70.7669 97.782 70.6129 97.6233 70.4169C97.474 70.2209 97.3667 69.9829 97.3013 69.7029C97.236 69.4229 97.2033 69.1149 97.2033 68.7789V65.0129H96.1953V64.1449L97.2593 64.0749L97.3993 62.1709H98.3653V64.0749H100.199V65.0129H98.3653V68.7929C98.3653 69.2129 98.44 69.5396 98.5893 69.7729C98.748 69.9969 99.0233 70.1089 99.4153 70.1089C99.5367 70.1089 99.6673 70.0902 99.8073 70.0529C99.9473 70.0156 100.073 69.9736 100.185 69.9269L100.409 70.7949C100.223 70.8602 100.017 70.9162 99.7933 70.9629C99.5787 71.0189 99.364 71.0469 99.1493 71.0469ZM101.85 73.8049C101.691 73.8049 101.546 73.7909 101.416 73.7629C101.285 73.7442 101.164 73.7116 101.052 73.6649L101.276 72.7549C101.35 72.7736 101.434 72.7922 101.528 72.8109C101.621 72.8389 101.71 72.8529 101.794 72.8529C102.186 72.8529 102.503 72.7129 102.746 72.4329C102.998 72.1622 103.194 71.8169 103.334 71.3969L103.488 70.8929L100.758 64.0749H101.948L103.334 67.8409C103.436 68.1396 103.544 68.4569 103.656 68.7929C103.777 69.1196 103.889 69.4416 103.992 69.7589H104.048C104.15 69.4509 104.248 69.1289 104.342 68.7929C104.435 68.4569 104.528 68.1396 104.622 67.8409L105.84 64.0749H106.96L104.398 71.4389C104.276 71.7749 104.141 72.0876 103.992 72.3769C103.842 72.6662 103.665 72.9136 103.46 73.1189C103.254 73.3336 103.021 73.5016 102.76 73.6229C102.498 73.7442 102.195 73.8049 101.85 73.8049ZM57.8443 91.7489V82.0749H58.7963L58.8943 82.8589H58.9363C59.2443 82.5976 59.5803 82.3736 59.9443 82.1869C60.3176 82.0002 60.7049 81.9069 61.1063 81.9069C61.5449 81.9069 61.9323 81.9909 62.2683 82.1589C62.6043 82.3176 62.8843 82.5509 63.1083 82.8589C63.3323 83.1576 63.5003 83.5216 63.6123 83.9509C63.7336 84.3709 63.7943 84.8469 63.7943 85.3789C63.7943 85.9576 63.7149 86.4756 63.5563 86.9329C63.3976 87.3809 63.1829 87.7636 62.9123 88.0809C62.6416 88.3982 62.3289 88.6409 61.9743 88.8089C61.6196 88.9676 61.2463 89.0469 60.8543 89.0469C60.5369 89.0469 60.2196 88.9769 59.9023 88.8369C59.5943 88.6969 59.2816 88.5056 58.9643 88.2629L58.9923 89.4529V91.7489H57.8443ZM60.6583 88.0809C60.9383 88.0809 61.1949 88.0202 61.4283 87.8989C61.6709 87.7682 61.8763 87.5909 62.0443 87.3669C62.2216 87.1336 62.3569 86.8489 62.4503 86.5129C62.5529 86.1769 62.6043 85.7989 62.6043 85.3789C62.6043 85.0056 62.5716 84.6649 62.5063 84.3569C62.4409 84.0489 62.3336 83.7876 62.1843 83.5729C62.0443 83.3489 61.8576 83.1762 61.6243 83.0549C61.4003 82.9336 61.1296 82.8729 60.8123 82.8729C60.5229 82.8729 60.2289 82.9522 59.9303 83.1109C59.6409 83.2696 59.3283 83.4982 58.9923 83.7969V87.3669C59.3003 87.6282 59.5989 87.8149 59.8883 87.9269C60.1776 88.0296 60.4343 88.0809 60.6583 88.0809ZM65.6099 88.8789V82.0749H66.5619L66.6599 83.3069H66.7019C66.9352 82.8776 67.2152 82.5369 67.5419 82.2849C67.8779 82.0329 68.2419 81.9069 68.6339 81.9069C68.9045 81.9069 69.1472 81.9536 69.3619 82.0469L69.1379 83.0549C69.0259 83.0176 68.9232 82.9896 68.8299 82.9709C68.7365 82.9522 68.6199 82.9429 68.4799 82.9429C68.1905 82.9429 67.8872 83.0596 67.5699 83.2929C67.2619 83.5262 66.9912 83.9322 66.7579 84.5109V88.8789H65.6099ZM72.9727 89.0469C72.5527 89.0469 72.1513 88.9676 71.7687 88.8089C71.3953 88.6502 71.064 88.4216 70.7747 88.1229C70.4853 87.8149 70.252 87.4416 70.0747 87.0029C69.9067 86.5549 69.8227 86.0509 69.8227 85.4909C69.8227 84.9216 69.9067 84.4176 70.0747 83.9789C70.252 83.5309 70.4853 83.1529 70.7747 82.8449C71.064 82.5369 71.3953 82.3036 71.7687 82.1449C72.1513 81.9862 72.5527 81.9069 72.9727 81.9069C73.3927 81.9069 73.7893 81.9862 74.1627 82.1449C74.5453 82.3036 74.8813 82.5369 75.1707 82.8449C75.46 83.1529 75.6887 83.5309 75.8567 83.9789C76.034 84.4176 76.1227 84.9216 76.1227 85.4909C76.1227 86.0509 76.034 86.5549 75.8567 87.0029C75.6887 87.4416 75.46 87.8149 75.1707 88.1229C74.8813 88.4216 74.5453 88.6502 74.1627 88.8089C73.7893 88.9676 73.3927 89.0469 72.9727 89.0469ZM72.9727 88.0949C73.262 88.0949 73.528 88.0342 73.7707 87.9129C74.0133 87.7822 74.2187 87.6049 74.3867 87.3809C74.564 87.1476 74.6993 86.8722 74.7927 86.5549C74.886 86.2376 74.9327 85.8829 74.9327 85.4909C74.9327 85.0989 74.886 84.7442 74.7927 84.4269C74.6993 84.1002 74.564 83.8202 74.3867 83.5869C74.2187 83.3536 74.0133 83.1762 73.7707 83.0549C73.528 82.9242 73.262 82.8589 72.9727 82.8589C72.6833 82.8589 72.4173 82.9242 72.1747 83.0549C71.932 83.1762 71.722 83.3536 71.5447 83.5869C71.3767 83.8202 71.246 84.1002 71.1527 84.4269C71.0593 84.7442 71.0127 85.0989 71.0127 85.4909C71.0127 85.8829 71.0593 86.2376 71.1527 86.5549C71.246 86.8722 71.3767 87.1476 71.5447 87.3809C71.722 87.6049 71.932 87.7822 72.1747 87.9129C72.4173 88.0342 72.6833 88.0949 72.9727 88.0949ZM79.3299 88.8789L76.8799 82.0749H78.0699L79.3579 85.9389C79.4605 86.2749 79.5632 86.6109 79.6659 86.9469C79.7779 87.2829 79.8852 87.6142 79.9879 87.9409H80.0439C80.1465 87.6142 80.2492 87.2829 80.3519 86.9469C80.4545 86.6109 80.5572 86.2749 80.6599 85.9389L81.9479 82.0749H83.0819L80.6739 88.8789H79.3299ZM84.395 88.8789V82.0749H85.543V88.8789H84.395ZM84.983 80.6749C84.759 80.6749 84.5677 80.6049 84.409 80.4649C84.2597 80.3249 84.185 80.1476 84.185 79.9329C84.185 79.7089 84.2597 79.5316 84.409 79.4009C84.5677 79.2609 84.759 79.1909 84.983 79.1909C85.207 79.1909 85.3937 79.2609 85.543 79.4009C85.7017 79.5316 85.781 79.7089 85.781 79.9329C85.781 80.1476 85.7017 80.3249 85.543 80.4649C85.3937 80.6049 85.207 80.6749 84.983 80.6749ZM90.1643 89.0469C89.3057 89.0469 88.6197 88.7389 88.1063 88.1229C87.6023 87.5069 87.3503 86.6296 87.3503 85.4909C87.3503 84.9402 87.4297 84.4456 87.5883 84.0069C87.7563 83.5589 87.9757 83.1809 88.2463 82.8729C88.517 82.5649 88.8297 82.3269 89.1843 82.1589C89.539 81.9909 89.9123 81.9069 90.3043 81.9069C90.6963 81.9069 91.037 81.9769 91.3263 82.1169C91.6157 82.2569 91.9097 82.4482 92.2083 82.6909L92.1523 81.5289V78.9109H93.3143V88.8789H92.3623L92.2643 88.0809H92.2223C91.9517 88.3422 91.639 88.5709 91.2843 88.7669C90.939 88.9536 90.5657 89.0469 90.1643 89.0469ZM90.4163 88.0809C90.7337 88.0809 91.0323 88.0062 91.3123 87.8569C91.5923 87.6982 91.8723 87.4602 92.1523 87.1429V83.5869C91.863 83.3256 91.583 83.1436 91.3123 83.0409C91.051 82.9289 90.7803 82.8729 90.5003 82.8729C90.2297 82.8729 89.973 82.9382 89.7303 83.0689C89.497 83.1902 89.2917 83.3676 89.1143 83.6009C88.937 83.8249 88.797 84.0956 88.6943 84.4129C88.5917 84.7302 88.5403 85.0849 88.5403 85.4769C88.5403 86.2982 88.7037 86.9376 89.0303 87.3949C89.357 87.8522 89.819 88.0809 90.4163 88.0809ZM98.364 89.0469C97.9066 89.0469 97.4773 88.9676 97.076 88.8089C96.684 88.6409 96.3386 88.4076 96.04 88.1089C95.7506 87.8009 95.522 87.4276 95.354 86.9889C95.186 86.5502 95.102 86.0509 95.102 85.4909C95.102 84.9309 95.186 84.4316 95.354 83.9929C95.5313 83.5449 95.76 83.1669 96.04 82.8589C96.3293 82.5509 96.656 82.3176 97.02 82.1589C97.384 81.9909 97.762 81.9069 98.154 81.9069C98.5833 81.9069 98.966 81.9816 99.302 82.1309C99.6473 82.2802 99.932 82.4949 100.156 82.7749C100.389 83.0549 100.567 83.3909 100.688 83.7829C100.809 84.1749 100.87 84.6136 100.87 85.0989C100.87 85.2202 100.865 85.3416 100.856 85.4629C100.856 85.5749 100.847 85.6729 100.828 85.7569H96.236C96.2826 86.4849 96.5066 87.0636 96.908 87.4929C97.3186 87.9129 97.8506 88.1229 98.504 88.1229C98.8306 88.1229 99.1293 88.0762 99.4 87.9829C99.68 87.8802 99.946 87.7496 100.198 87.5909L100.604 88.3469C100.305 88.5336 99.974 88.6969 99.61 88.8369C99.246 88.9769 98.8306 89.0469 98.364 89.0469ZM96.222 84.9309H99.862C99.862 84.2402 99.7126 83.7176 99.414 83.3629C99.1246 82.9989 98.714 82.8169 98.182 82.8169C97.9393 82.8169 97.706 82.8636 97.482 82.9569C97.2673 83.0502 97.0713 83.1902 96.894 83.3769C96.7166 83.5542 96.5673 83.7736 96.446 84.0349C96.334 84.2962 96.2593 84.5949 96.222 84.9309ZM102.551 88.8789V82.0749H103.503L103.601 83.3069H103.643C103.877 82.8776 104.157 82.5369 104.483 82.2849C104.819 82.0329 105.183 81.9069 105.575 81.9069C105.846 81.9069 106.089 81.9536 106.303 82.0469L106.079 83.0549C105.967 83.0176 105.865 82.9896 105.771 82.9709C105.678 82.9522 105.561 82.9429 105.421 82.9429C105.132 82.9429 104.829 83.0596 104.511 83.2929C104.203 83.5262 103.933 83.9322 103.699 84.5109V88.8789H102.551ZM109.128 89.0469C108.643 89.0469 108.181 88.9582 107.742 88.7809C107.303 88.6036 106.921 88.3796 106.594 88.1089L107.168 87.3389C107.467 87.5816 107.77 87.7776 108.078 87.9269C108.395 88.0762 108.759 88.1509 109.17 88.1509C109.618 88.1509 109.954 88.0482 110.178 87.8429C110.402 87.6376 110.514 87.3856 110.514 87.0869C110.514 86.9096 110.467 86.7556 110.374 86.6249C110.281 86.4942 110.159 86.3822 110.01 86.2889C109.87 86.1862 109.707 86.0976 109.52 86.0229C109.333 85.9482 109.147 85.8736 108.96 85.7989C108.717 85.7149 108.475 85.6216 108.232 85.5189C107.989 85.4069 107.77 85.2762 107.574 85.1269C107.387 84.9682 107.233 84.7862 107.112 84.5809C106.991 84.3756 106.93 84.1282 106.93 83.8389C106.93 83.5682 106.981 83.3162 107.084 83.0829C107.196 82.8402 107.35 82.6349 107.546 82.4669C107.751 82.2896 107.999 82.1542 108.288 82.0609C108.577 81.9582 108.904 81.9069 109.268 81.9069C109.697 81.9069 110.089 81.9816 110.444 82.1309C110.808 82.2802 111.121 82.4622 111.382 82.6769L110.836 83.4049C110.603 83.2276 110.36 83.0829 110.108 82.9709C109.856 82.8589 109.581 82.8029 109.282 82.8029C108.853 82.8029 108.535 82.9009 108.33 83.0969C108.134 83.2929 108.036 83.5216 108.036 83.7829C108.036 83.9416 108.078 84.0816 108.162 84.2029C108.246 84.3149 108.358 84.4176 108.498 84.5109C108.638 84.5949 108.797 84.6742 108.974 84.7489C109.161 84.8142 109.352 84.8842 109.548 84.9589C109.791 85.0522 110.033 85.1502 110.276 85.2529C110.528 85.3556 110.752 85.4862 110.948 85.6449C111.144 85.7942 111.303 85.9809 111.424 86.2049C111.555 86.4289 111.62 86.6996 111.62 87.0169C111.62 87.2969 111.564 87.5582 111.452 87.8009C111.349 88.0436 111.191 88.2582 110.976 88.4449C110.771 88.6316 110.509 88.7762 110.192 88.8789C109.884 88.9909 109.529 89.0469 109.128 89.0469Z" fill="white"/>
<path fill-rule="evenodd" clip-rule="evenodd" d="M93.8945 15.5147C92.7204 13.8197 90.6634 12.968 88.6347 13.3369C86.606 13.7058 84.9805 15.2271 84.4782 17.2269C84.3641 17.2151 84.2495 17.2092 84.1348 17.2091C82.3257 17.2098 80.8595 18.6765 80.8594 20.4856C80.8593 22.2947 82.3253 23.7616 84.1344 23.7625H94.7499C97.052 23.7625 98.9182 21.8963 98.9182 19.5942C98.9182 17.292 97.052 15.4258 94.7499 15.4258V15.4258C94.4625 15.426 94.1758 15.4558 93.8945 15.5147Z" fill="url(#paint1_linear)"/>
<path fill-rule="evenodd" clip-rule="evenodd" d="M144.748 31.7604C143.311 29.6864 140.794 28.6443 138.312 29.0957C135.83 29.547 133.841 31.4084 133.226 33.8554C133.087 33.841 132.946 33.8338 132.806 33.8337C130.592 33.8346 128.798 35.6292 128.798 37.8428C128.798 40.0564 130.592 41.8512 132.805 41.8524H145.795C148.611 41.8524 150.895 39.5689 150.895 36.752C150.895 33.9351 148.611 31.6516 145.795 31.6516V31.6516C145.443 31.6519 145.092 31.6884 144.748 31.7604Z" fill="url(#paint2_linear)"/>
<path fill-rule="evenodd" clip-rule="evenodd" d="M28.1596 36.4275C25.7778 32.9891 21.6051 31.2615 17.4899 32.0098C13.3746 32.7581 10.0772 35.844 9.05822 39.9007C8.82681 39.8768 8.59432 39.8648 8.36168 39.8647C4.69189 39.8661 1.71764 42.8413 1.71741 46.5111C1.71718 50.1809 4.69106 53.1565 8.36085 53.1584H29.8947C34.5646 53.1584 38.3504 49.3727 38.3504 44.7028C38.3504 40.0328 34.5646 36.2471 29.8947 36.2471V36.2471C29.3117 36.2476 28.7303 36.3081 28.1596 36.4275Z" fill="url(#paint3_linear)"/>
<path fill-rule="evenodd" clip-rule="evenodd" d="M88.4569 149.719V137.405H85.7928V149.719H88.4569ZM112.412 137.391C112.412 139.822 112.418 142.131 112.409 144.441C112.401 145.976 111.333 147.056 109.861 147.042C108.377 147.031 107.689 146.262 107.678 144.553C107.664 142.533 107.678 140.511 107.67 138.49C107.667 138.124 107.608 137.757 107.575 137.407H104.973C104.927 137.518 104.881 137.575 104.881 137.633C104.873 140.519 104.828 143.41 104.881 146.295C104.908 147.701 105.556 148.8 106.914 149.39C108.304 148.445 109.843 148.528 111.384 148.72C112.642 148.88 113.872 148.792 115.225 148.514C115.214 144.793 115.254 141.1 115.198 137.391H112.412ZM100.409 137.714C99.2969 137.19 98.1119 136.964 96.9243 137.251C95.9418 137.488 95.0052 137.92 94.02 138.279C93.5935 137.901 93.105 137.471 92.5705 136.994C91.9038 137.606 91.3262 138.132 90.7513 138.659C91.9821 140.235 91.9821 140.235 91.9821 142.288C91.9821 144.405 91.9821 146.524 91.9848 148.641C91.9848 148.983 92.0145 149.327 92.0334 149.713H94.7811V142.815C94.7811 141.316 95.5477 140.31 96.9783 139.932C98.6518 139.491 99.5263 140.166 99.5317 141.925C99.5398 144.168 99.5317 146.414 99.5371 148.66C99.5371 149.002 99.5695 149.344 99.5884 149.691H102.293C102.293 146.51 102.347 143.402 102.269 140.296C102.236 139.1 101.486 138.221 100.409 137.714ZM67.9857 141.814C66.6361 143.2 64.9599 142.613 63.3809 142.707C63.4942 140.995 64.8087 139.689 66.2285 139.788C67.5619 139.882 68.0774 140.433 67.9857 141.814ZM68.2209 146.866C67.2654 147.255 66.2748 147.368 65.2599 147.158C64.2504 146.952 63.7646 146.458 63.5729 145.37C64.1479 145.37 64.7039 145.367 65.2572 145.37C66.5636 145.384 67.8323 145.196 68.9983 144.562C71.3817 143.264 71.6759 139.905 69.5192 138.295C67.233 136.587 63.8213 136.733 61.8455 139.133C60.3663 140.933 60.0775 143.038 60.4311 145.293C60.7226 147.134 61.6538 148.525 63.276 149.355C65.5811 150.534 69.4545 149.909 71.468 148.051C71.0173 147.384 70.5611 146.709 70.1104 146.037C69.4275 146.34 68.8309 146.621 68.2209 146.866ZM116.312 141.806C116.137 141.831 115.975 141.944 115.775 142.032V144.838C116.145 144.777 116.45 144.703 116.758 144.683C117.53 144.634 118.285 145.061 118.561 145.676C118.871 146.365 118.693 147.348 118.099 147.88C117.799 148.148 117.443 148.418 117.068 148.52C116.166 148.765 115.243 149.03 114.318 149.068C112.625 149.143 110.925 149.03 109.23 149.082C107.858 149.126 106.568 149.843 105.856 151.039C104.619 153.117 105.2 155.999 107.068 157.399C108.881 158.758 111.586 158.515 113.192 156.829C114.35 155.613 114.849 154.098 115.111 152.356H112.28C112.182 152.67 112.096 153.042 111.956 153.392C111.802 153.775 111.643 154.167 111.416 154.506C110.855 155.343 109.845 155.619 109.006 155.214C108.342 154.894 107.904 153.965 108.05 153.185C108.228 152.229 108.709 151.89 109.929 151.887C111.656 151.882 113.384 151.943 115.108 151.885C116.836 151.824 118.45 151.317 119.829 150.204C121.457 148.892 122.013 146.516 121.179 144.548C120.41 142.735 118.272 141.525 116.312 141.806ZM77.63 147.255C77.0982 147.252 76.5665 147.167 75.8782 147.106C75.8782 145.18 75.808 143.322 75.9079 141.473C75.9565 140.555 76.7392 140.045 77.5517 139.808C78.4991 139.53 79.4303 139.61 80.1726 140.398C81.4358 141.746 81.5789 144.554 80.4695 146.045C79.7488 147.012 78.7339 147.26 77.63 147.255ZM78.0026 136.969C77.3251 137.011 76.6584 137.234 75.8729 137.399V132.188H73.0199V149.272C74.2993 149.727 76.8932 150.057 78.1915 149.95C81.2956 149.694 83.2606 148.092 83.8679 145.124C84.0838 144.08 84.0946 142.941 83.9435 141.883C83.4927 138.697 81.1309 136.782 78.0026 136.969ZM54.922 144.204H54.671C53.8828 141.928 53.0919 139.654 52.3038 137.383H49.8448C49.0459 139.679 48.255 141.953 47.4641 144.229H47.2347C46.4331 141.931 45.6314 139.632 44.8568 137.414H41.9201C43.3479 141.589 44.7407 145.659 46.1335 149.73H48.5573L50.9569 142.843H51.1998C52.0015 145.152 52.8004 147.465 53.5859 149.724H56.0151C57.4133 145.637 58.8061 141.564 60.2286 137.403H57.2892C56.5037 139.665 55.7128 141.933 54.922 144.204Z" fill="#FA5A28"/>
<path d="M80.3981 110.919V131.638" stroke="#FA5A28" stroke-linecap="round" stroke-linejoin="round" stroke-dasharray="2 3"/>
<path d="M123.809 109.932L145.515 129.1L126.769 143.477" stroke="#FA5A28" stroke-linecap="round" stroke-linejoin="round" stroke-dasharray="2 3"/>
<path d="M36.987 109.933L15.2815 129.101L34.0272 143.478" stroke="#FA5A28" stroke-linecap="round" stroke-linejoin="round" stroke-dasharray="2 3"/>
<defs>
<linearGradient id="paint0_linear" x1="199.435" y1="35.2002" x2="82.0451" y2="35.2002" gradientUnits="userSpaceOnUse">
<stop stop-color="#9033EA"/>
<stop offset="1" stop-color="#483EB7"/>
</linearGradient>
<linearGradient id="paint1_linear" x1="107.948" y1="13.252" x2="89.8888" y2="13.252" gradientUnits="userSpaceOnUse">
<stop stop-color="#9033EA"/>
<stop offset="1" stop-color="#483EB7"/>
</linearGradient>
<linearGradient id="paint2_linear" x1="161.943" y1="28.9917" x2="139.847" y2="28.9917" gradientUnits="userSpaceOnUse">
<stop stop-color="#9033EA"/>
<stop offset="1" stop-color="#483EB7"/>
</linearGradient>
<linearGradient id="paint3_linear" x1="56.6668" y1="31.8374" x2="20.0339" y2="31.8374" gradientUnits="userSpaceOnUse">
<stop stop-color="#9033EA"/>
<stop offset="1" stop-color="#483EB7"/>
</linearGradient>
</defs>
</svg>
