<svg width="170" height="100" viewBox="0 0 170 100" fill="none" xmlns="http://www.w3.org/2000/svg">
<path fill-rule="evenodd" clip-rule="evenodd" d="M26.6694 20.0248H43.5714C43.4355 11.5582 38.164 4.06142 30.3337 1.19916C22.5033 -1.6631 13.7498 0.707004 8.35208 7.15087C2.95436 13.5947 2.03988 22.7665 6.05568 30.1825C10.0715 37.5986 18.1788 41.71 26.4144 40.507L26.4218 20.962C26.053 20.7353 26.1347 20.0248 26.6694 20.0248Z" fill="#F2F2F2"/>
<rect x="38.5714" y="98.5715" width="103.571" height="1.42857" fill="#F4F4F4"/>
<path fill-rule="evenodd" clip-rule="evenodd" d="M46.4286 36.8735C46.4286 36.8735 46.6757 33.5732 50.0887 33.5732H144.743C144.743 33.5732 149.286 33.391 149.286 36.8735V100H142.648V45.5709L46.4286 38.7217V36.8735Z" fill="#F2F2F2"/>
<rect x="21.4286" y="25.7142" width="10.7143" height="74.2857" fill="#EFEFEF"/>
<rect x="14.2856" y="99.2858" width="149.286" height="0.714286" fill="#DEDEDE"/>
<path fill-rule="evenodd" clip-rule="evenodd" d="M142.143 42.4455C142.143 40.3059 140.37 38.5714 138.183 38.5714H41.8174C39.6302 38.5714 37.8572 40.3059 37.8572 42.4455V49.2857H142.143V42.4455Z" fill="#F94F24"/>
<rect x="141.429" y="49.2856" width="0.714286" height="50.7143" fill="#DEDEDE"/>
<rect x="38.5714" y="50" width="0.714286" height="50" fill="#DEDEDE"/>
<path fill-rule="evenodd" clip-rule="evenodd" d="M46.2627 45.6048C45.7289 45.8267 45.1141 45.7051 44.705 45.2968C44.2959 44.8884 44.1732 44.2737 44.3942 43.7396C44.6152 43.2055 45.1362 42.8572 45.7142 42.8572C46.5017 42.8586 47.14 43.4958 47.1428 44.2832C47.1438 44.8612 46.7964 45.3829 46.2627 45.6048Z" fill="white"/>
<path fill-rule="evenodd" clip-rule="evenodd" d="M56.2627 45.6048C55.7289 45.8267 55.1141 45.7051 54.705 45.2968C54.2959 44.8884 54.1732 44.2737 54.3942 43.7396C54.6152 43.2055 55.1362 42.8572 55.7142 42.8572C56.5017 42.8586 57.14 43.4958 57.1428 44.2832C57.1438 44.8612 56.7964 45.3829 56.2627 45.6048Z" fill="white"/>
<path fill-rule="evenodd" clip-rule="evenodd" d="M65.5484 45.6048C65.0147 45.8267 64.3998 45.7051 63.9908 45.2968C63.5817 44.8884 63.459 44.2737 63.68 43.7396C63.9009 43.2055 64.422 42.8572 65 42.8572C65.7874 42.8586 66.4258 43.4958 66.4286 44.2832C66.4296 44.8612 66.0822 45.3829 65.5484 45.6048Z" fill="white"/>
<path fill-rule="evenodd" clip-rule="evenodd" d="M46.4286 75.7143V58.5714H92.8572V75.7143H46.4286ZM92.6128 75.4691V58.8166H46.673V75.4691H92.6128Z" fill="#F94F24"/>
<path fill-rule="evenodd" clip-rule="evenodd" d="M92.858 61.4286C91.2803 61.4291 90.0009 60.1508 90 58.5731C89.9991 56.9955 91.2771 55.7157 92.8547 55.7144C93.6131 55.7131 94.3408 56.0136 94.8773 56.5496C95.4138 57.0856 95.7149 57.8131 95.7143 58.5715C95.7143 60.1491 94.4356 61.4282 92.858 61.4286Z" fill="#F94F24"/>
<rect x="52.1428" y="52.8571" width="7.14286" height="4.28571" fill="#E8E8E8"/>
<rect x="60" y="52.8571" width="7.14286" height="4.28571" fill="#DEDEDE"/>
<rect x="67.8572" y="52.8571" width="7.14286" height="4.28571" fill="#DEDEDE"/>
<path fill-rule="evenodd" clip-rule="evenodd" d="M47.8186 52.8584C47.0756 52.8311 46.3777 53.2332 45.9986 53.907C45.6194 54.5809 45.6194 55.419 45.9986 56.0928C46.3777 56.7666 47.0756 57.1687 47.8186 57.1415H51.4285V52.8584H47.8186Z" fill="#DEDEDE"/>
<rect x="75.7144" y="52.8571" width="7.14286" height="4.28571" fill="#DEDEDE"/>
<path fill-rule="evenodd" clip-rule="evenodd" d="M83.5714 52.8584V57.1415H87.1351C87.8944 57.1687 88.6076 56.7666 88.9951 56.0928C89.3826 55.419 89.3826 54.5809 88.9951 53.907C88.6076 53.2332 87.8944 52.8311 87.1351 52.8584H83.5714Z" fill="#DEDEDE"/>
<path fill-rule="evenodd" clip-rule="evenodd" d="M24.2856 41.0715C24.2856 42.0564 25.564 42.8572 27.1428 42.8572C28.7215 42.8572 29.9999 42.0588 29.9999 41.0715C29.9999 40.0842 28.7215 39.2858 27.1428 39.2858C25.564 39.2858 24.2856 40.0866 24.2856 41.0715ZM25.6505 41.0713C25.6505 40.2515 26.3186 39.5868 27.1428 39.5868C27.9669 39.5868 28.635 40.2515 28.635 41.0713C28.6357 41.4655 28.4787 41.8437 28.1988 42.1226C27.9189 42.4015 27.539 42.5582 27.1428 42.5582V42.5559C26.3186 42.5559 25.6505 41.8912 25.6505 41.0713Z" fill="#D3D3D3"/>
<path fill-rule="evenodd" clip-rule="evenodd" d="M26.7857 42.1429C26.1939 42.1429 25.7142 41.6632 25.7142 41.0714C25.7142 40.4797 26.1939 40 26.7857 40C27.3774 40 27.8571 40.4797 27.8571 41.0714C27.8571 41.6632 27.3774 42.1429 26.7857 42.1429Z" fill="#D3D3D3"/>
<path fill-rule="evenodd" clip-rule="evenodd" d="M24.2856 33.9285C24.2856 35.3092 25.4049 36.4285 26.7856 36.4285C28.1664 36.4285 29.2856 35.3092 29.2856 33.9285C29.2856 32.5478 28.1664 31.4285 26.7856 31.4285C25.4049 31.4285 24.2856 32.5478 24.2856 33.9285ZM27.1229 34.2659V34.7637C27.1229 34.95 26.9719 35.101 26.7856 35.101C26.5994 35.101 26.4484 34.95 26.4484 34.7637V34.2659H25.9505C25.8224 34.2773 25.6987 34.2153 25.6311 34.1059C25.5635 33.9964 25.5635 33.8581 25.6311 33.7487C25.6987 33.6392 25.8224 33.5773 25.9505 33.5887H26.4484V33.0908C26.4484 32.9045 26.5994 32.7535 26.7856 32.7535C26.9719 32.7535 27.1229 32.9045 27.1229 33.0908V33.602H27.6234C27.7988 33.6176 27.9332 33.7646 27.9332 33.9406C27.9332 34.1167 27.7988 34.2636 27.6234 34.2792V34.2659H27.1229Z" fill="#D3D3D3"/>
<rect x="21.4286" y="17.1428" width="138.571" height="8.57143" fill="#D3D3D3"/>
<path fill-rule="evenodd" clip-rule="evenodd" d="M47.3001 82.8572C46.8188 82.8572 46.4286 82.5374 46.4286 82.1429C46.4286 81.7484 46.8188 81.4286 47.3001 81.4286H65.5571C66.0384 81.4286 66.4286 81.7484 66.4286 82.1429C66.4286 82.5374 66.0384 82.8572 65.5571 82.8572H47.3001Z" fill="#DEDEDE"/>
<path fill-rule="evenodd" clip-rule="evenodd" d="M69.4714 82.8572C68.9744 82.8572 68.5714 82.5374 68.5714 82.1429C68.5714 81.7484 68.9744 81.4286 69.4714 81.4286H74.1C74.597 81.4286 75 81.7484 75 82.1429C75 82.5374 74.597 82.8572 74.1 82.8572H69.4714Z" fill="#DEDEDE"/>
<path fill-rule="evenodd" clip-rule="evenodd" d="M78.7332 82.8572C78.2494 82.8572 77.8572 82.5374 77.8572 82.1429C77.8572 81.7484 78.2494 81.4286 78.7332 81.4286H93.4098C93.8936 81.4286 94.2857 81.7484 94.2857 82.1429C94.2857 82.5374 93.8936 82.8572 93.4098 82.8572H78.7332Z" fill="#DEDEDE"/>
<path fill-rule="evenodd" clip-rule="evenodd" d="M47.2905 89.2857C46.8145 89.2857 46.4286 88.966 46.4286 88.5715C46.4286 88.177 46.8145 87.8572 47.2905 87.8572H71.9953C72.4713 87.8572 72.8572 88.177 72.8572 88.5715C72.8572 88.966 72.4713 89.2857 71.9953 89.2857H47.2905Z" fill="#DEDEDE"/>
<path fill-rule="evenodd" clip-rule="evenodd" d="M77.3166 89.2857C76.8262 89.2857 76.4286 88.966 76.4286 88.5715C76.4286 88.177 76.8262 87.8572 77.3166 87.8572H86.2549C86.7453 87.8572 87.1429 88.177 87.1429 88.5715C87.1429 88.966 86.7453 89.2857 86.2549 89.2857H77.3166Z" fill="#DEDEDE"/>
<path fill-rule="evenodd" clip-rule="evenodd" d="M60.0061 66.4286H51.4249C50.638 66.4286 50 65.789 50 65C50 64.6211 50.1501 64.2577 50.4173 63.9898C50.6846 63.7219 51.047 63.5714 51.4249 63.5714H60.0061C60.7921 63.5728 61.4286 64.212 61.4286 65C61.4286 65.788 60.7921 66.4272 60.0061 66.4286Z" fill="#E9E9E9"/>
<path fill-rule="evenodd" clip-rule="evenodd" d="M87.8647 66.4286H84.2806C83.4945 66.4286 82.8572 65.789 82.8572 65C82.8572 64.6211 83.0071 64.2577 83.2741 63.9898C83.541 63.7219 83.9031 63.5714 84.2806 63.5714H87.855C88.6402 63.5728 89.276 64.212 89.276 65H89.2857C89.2857 65.788 88.6499 66.4272 87.8647 66.4286Z" fill="#E9E9E9"/>
<path fill-rule="evenodd" clip-rule="evenodd" d="M79.2696 66.4286H64.2995C63.5029 66.4286 62.8572 65.789 62.8572 65C62.8572 64.6211 63.0091 64.2577 63.2796 63.9898C63.5501 63.7219 63.9169 63.5714 64.2995 63.5714H79.272C79.6546 63.5714 80.0214 63.7219 80.2919 63.9898C80.5624 64.2577 80.7143 64.6211 80.7143 65H80.7119C80.7119 65.789 80.0661 66.4286 79.2696 66.4286Z" fill="#E9E9E9"/>
<path fill-rule="evenodd" clip-rule="evenodd" d="M73.5481 72.1428H52.1663C51.3644 72.1428 50.7144 71.5032 50.7144 70.7142C50.7144 70.3353 50.8673 69.972 51.1396 69.7041C51.4119 69.4362 51.7812 69.2856 52.1663 69.2856H73.5481C73.9332 69.2856 74.3025 69.4362 74.5748 69.7041C74.8471 69.972 75.0001 70.3353 75.0001 70.7142C75.0001 71.5032 74.35 72.1428 73.5481 72.1428Z" fill="#E9E9E9"/>
<path fill-rule="evenodd" clip-rule="evenodd" d="M83.4478 23.4411V18.7018C83.4478 18.6298 83.5031 18.5714 83.5715 18.5714C83.6393 18.5728 83.6939 18.6304 83.6952 18.7018V23.4411C83.6952 23.5131 83.6398 23.5714 83.5715 23.5714C83.5031 23.5714 83.4478 23.5131 83.4478 23.4411Z" fill="white"/>
<path fill-rule="evenodd" clip-rule="evenodd" d="M99.8762 23.4411V18.7018C99.8775 18.6304 99.9322 18.5728 99.9999 18.5714C100.068 18.5714 100.124 18.6298 100.124 18.7018V23.4411C100.124 23.5131 100.068 23.5714 99.9999 23.5714C99.9316 23.5714 99.8762 23.5131 99.8762 23.4411Z" fill="white"/>
<path fill-rule="evenodd" clip-rule="evenodd" d="M116.305 23.4411V18.7018C116.305 18.6298 116.36 18.5714 116.429 18.5714C116.497 18.5714 116.552 18.6298 116.552 18.7018V23.4411C116.552 23.5131 116.497 23.5714 116.429 23.5714C116.36 23.5714 116.305 23.5131 116.305 23.4411Z" fill="white"/>
<path fill-rule="evenodd" clip-rule="evenodd" d="M135.591 23.4411V18.7018C135.592 18.6304 135.647 18.5728 135.714 18.5714C135.783 18.5714 135.838 18.6298 135.838 18.7018V23.4411C135.838 23.5131 135.783 23.5714 135.714 23.5714C135.646 23.5714 135.591 23.5131 135.591 23.4411Z" fill="white"/>
<path fill-rule="evenodd" clip-rule="evenodd" d="M74.2857 23.5715C73.4968 23.5715 72.8572 22.8919 72.8572 22.0537C72.8572 21.2162 74.2857 19.2858 74.2857 19.2858C74.2857 19.2858 75.7143 21.2162 75.7143 22.0537C75.7143 22.8919 75.0747 23.5715 74.2857 23.5715Z" fill="white"/>
<path fill-rule="evenodd" clip-rule="evenodd" d="M89.6647 22.1428L89.2856 22.5179L91.0725 24.2857L92.8571 22.5179L92.478 22.1428L91.0725 23.5356L89.6647 22.1428Z" fill="white"/>
<path fill-rule="evenodd" clip-rule="evenodd" d="M91.213 18.5635L93.1255 20.4806L91.213 22.3977L89.3005 20.4806L91.213 18.5635Z" fill="white"/>
<path fill-rule="evenodd" clip-rule="evenodd" d="M106.429 20.4493V19.5508C106.429 19.4044 106.548 19.2858 106.696 19.2858H107.59C107.738 19.2858 107.857 19.4044 107.857 19.5508C107.857 19.6972 107.738 19.8158 107.59 19.8158H106.963V20.4493C106.963 20.5957 106.843 20.7143 106.696 20.7143C106.548 20.7143 106.429 20.5957 106.429 20.4493Z" fill="white"/>
<path fill-rule="evenodd" clip-rule="evenodd" d="M110.169 20.4491V19.8158H109.553C109.405 19.8158 109.286 19.6971 109.286 19.5508C109.286 19.4044 109.405 19.2858 109.553 19.2858H110.447C110.595 19.2858 110.714 19.4044 110.714 19.5508V20.4491C110.714 20.5213 110.685 20.5903 110.632 20.6404C110.58 20.6904 110.509 20.717 110.437 20.7141C110.289 20.7141 110.169 20.5955 110.169 20.4491Z" fill="white"/>
<path fill-rule="evenodd" clip-rule="evenodd" d="M109.553 23.5712C109.405 23.5712 109.286 23.4525 109.286 23.3062C109.286 23.1598 109.405 23.0412 109.553 23.0412H110.18V22.4078C110.18 22.2615 110.3 22.1428 110.447 22.1428C110.595 22.1428 110.714 22.2615 110.714 22.4078V23.3062C110.714 23.3783 110.685 23.4474 110.632 23.4974C110.58 23.5474 110.509 23.5741 110.437 23.5712H109.553Z" fill="white"/>
<path fill-rule="evenodd" clip-rule="evenodd" d="M106.696 23.5714C106.548 23.5714 106.429 23.4527 106.429 23.3064V22.4079C106.429 22.2615 106.548 22.1428 106.696 22.1428C106.843 22.1428 106.963 22.2615 106.963 22.4079V23.0413H107.59C107.738 23.0413 107.857 23.16 107.857 23.3064C107.857 23.4527 107.738 23.5714 107.59 23.5714H107.579H106.696Z" fill="white"/>
<rect x="125" y="19.2858" width="2.85714" height="2.85714" fill="white"/>
<path fill-rule="evenodd" clip-rule="evenodd" d="M124.236 20.7144H123.571V23.5715H126.429V22.9066H124.236V20.7144Z" fill="white"/>
<path fill-rule="evenodd" clip-rule="evenodd" d="M140.714 20.7144V22.9345C140.714 23.4521 141.139 23.5715 141.658 23.5715H142.628C143.149 23.5715 143.571 23.4521 143.571 22.9345V20.7261L140.75 20.7144H140.714Z" fill="white"/>
<path fill-rule="evenodd" clip-rule="evenodd" d="M143.557 19.7755C143.56 19.7527 143.56 19.7296 143.557 19.7068C143.556 19.4738 143.403 19.2858 143.214 19.2858H141.899C141.71 19.2858 141.557 19.4738 141.556 19.7068C141.554 19.7297 141.554 19.7526 141.556 19.7755H141.139C140.994 19.7546 140.851 19.839 140.773 19.9924C140.695 20.1457 140.695 20.3409 140.773 20.4943C140.851 20.6477 140.994 20.732 141.139 20.7112H143.948C144.141 20.6837 144.286 20.4825 144.286 20.2433C144.286 20.0042 144.141 19.803 143.948 19.7755H143.974H143.557Z" fill="white"/>
<rect x="5" y="99.2858" width="5" height="0.714286" fill="#DEDEDE"/>
<path fill-rule="evenodd" clip-rule="evenodd" d="M145 44.2869V52.1416H157.228C158.716 52.1771 160.107 51.4364 160.862 50.2067C161.617 48.9769 161.617 47.4515 160.862 46.2218C160.107 44.992 158.716 44.2514 157.228 44.2869H145Z" fill="#F2F2F2"/>
<path fill-rule="evenodd" clip-rule="evenodd" d="M6.07143 61.4285C2.71827 61.4285 0 58.7102 0 55.3571C0 52.0039 2.71827 49.2856 6.07143 49.2856C7.68167 49.2856 9.22596 49.9253 10.3646 51.0639C11.5032 52.2025 12.1429 53.7468 12.1429 55.3571C12.1429 58.7102 9.42459 61.4285 6.07143 61.4285Z" fill="#F2F2F2"/>
<path fill-rule="evenodd" clip-rule="evenodd" d="M165.367 86.5731C162.562 87.7331 159.335 87.0887 157.192 84.9406C155.048 82.7926 154.41 79.5643 155.575 76.7623C156.741 73.9602 159.48 72.1368 162.515 72.1428C164.503 72.1428 166.409 72.9335 167.813 74.3404C169.217 75.7473 170.004 77.655 170 79.6427C170 82.6775 168.171 85.4132 165.367 86.5731Z" fill="#F2F2F2"/>
<ellipse cx="121.588" cy="68.2909" rx="3.58886" ry="3.5811" transform="rotate(-76.72 121.588 68.2909)" fill="white"/>
<g style="mix-blend-mode:multiply">
<path fill-rule="evenodd" clip-rule="evenodd" d="M154.102 83.1291L157.953 80.2218C158.066 80.1383 158.123 79.9979 158.1 79.8587C158.078 79.7186 157.981 79.6022 157.847 79.5566L142.646 74.3057C142.508 74.2592 142.355 74.2956 142.252 74.3996C142.149 74.5046 142.115 74.6599 142.166 74.7983L147.866 90.4316C147.919 90.5775 148.055 90.6768 148.209 90.6824C148.364 90.6879 148.506 90.5988 148.569 90.4569L150.573 85.9754L156.604 92.0312C156.675 92.1024 156.771 92.1425 156.872 92.1429C156.972 92.1431 157.069 92.1029 157.14 92.0312L159.889 89.2585C159.962 89.1875 160.002 89.089 160 88.9868C160 88.8849 159.96 88.7871 159.889 88.7151L154.102 83.1291Z" fill="#E5E5E5"/>
</g>
<path fill-rule="evenodd" clip-rule="evenodd" d="M157.234 91.4286L150.806 84.9657L148.571 89.967L142.857 74.2858L158.095 79.5519L153.878 82.7375L160 88.6504L157.234 91.4286Z" fill="url(#paint0_linear)"/>
<path fill-rule="evenodd" clip-rule="evenodd" d="M156.88 91.3567L150.903 85.3344L148.878 89.8629C148.838 89.954 148.746 90.0116 148.647 90.0088C148.546 90.0057 148.457 89.941 148.423 89.8456L142.872 74.6179C142.84 74.5285 142.861 74.4283 142.927 74.3603C142.993 74.2922 143.092 74.2683 143.182 74.2988L157.987 79.4135C158.073 79.4435 158.135 79.5186 158.15 79.6089C158.163 79.699 158.126 79.7893 158.054 79.8438L154.188 82.7622L159.926 88.3023C159.973 88.3488 160 88.4126 160 88.4791C160 88.5457 159.973 88.6094 159.926 88.656L157.234 91.3567C157.187 91.4043 157.122 91.4302 157.055 91.4285C156.989 91.4289 156.926 91.403 156.88 91.3567ZM150.984 84.731L157.055 90.8325L159.39 88.4853L153.625 82.9181C153.573 82.8677 153.546 82.7972 153.551 82.7252C153.555 82.653 153.59 82.5861 153.647 82.5422L157.372 79.7301L143.502 74.9345L148.669 89.1061L150.593 84.8027C150.627 84.729 150.694 84.6763 150.773 84.6617L150.81 84.6568C150.876 84.6571 150.938 84.6838 150.984 84.731Z" fill="white"/>
<path fill-rule="evenodd" clip-rule="evenodd" d="M132.831 57.2748C128.724 54.6175 123.439 53.5714 118.572 53.5714C113.703 53.5714 108.418 54.6175 104.312 57.2748C104.486 57.7218 104.585 58.2072 104.585 58.7169C104.585 60.8842 102.854 62.6414 100.714 62.6505C100.811 69.0028 101.425 76.5739 104.439 82.3807C107.692 88.6496 114.2 92.9995 118.572 95C122.943 92.9995 129.451 88.6496 132.704 82.3807C135.718 76.5739 136.332 69.0028 136.429 62.6505C134.289 62.6414 132.558 60.8842 132.558 58.7169C132.558 58.2072 132.656 57.7218 132.831 57.2748Z" fill="url(#paint1_linear)"/>
<path fill-rule="evenodd" clip-rule="evenodd" d="M107.564 80.7727C105.127 76.0293 104.47 69.7442 104.286 64.7565C106.469 63.6559 107.988 61.3735 108.036 58.7367C111.028 57.2399 114.822 56.4285 118.929 56.4285C123.035 56.4285 126.829 57.2399 129.821 58.7367C129.869 61.3735 131.388 63.6559 133.571 64.7565C133.386 69.7442 132.73 76.0293 130.293 80.7727C127.837 85.557 123.015 89.2972 118.929 91.4285C114.842 89.2972 110.021 85.557 107.564 80.7727Z" fill="url(#paint2_linear)"/>
<path fill-rule="evenodd" clip-rule="evenodd" d="M118.762 64.4734C120.463 64.4734 122.181 65.2118 122.181 68.514H115.343C115.343 65.2118 117.06 64.4734 118.762 64.4734ZM117.447 77.7029L117.952 73.9396C117.435 73.6424 117.086 73.006 117.086 72.3558C117.086 71.3981 117.843 70.5863 118.778 70.5863C119.714 70.5863 120.471 71.3451 120.471 72.3028C120.471 72.9657 120.108 73.6738 119.574 73.9658L120.077 77.7029H117.447ZM124.548 68.514H123.759C123.759 64.9246 121.657 62.8572 118.762 62.8572C115.866 62.8572 113.765 64.9246 113.765 68.514H112.976C111.814 68.514 111.428 68.9568 111.428 70.1469V77.689C111.428 78.8791 111.814 80 112.976 80H124.548C125.71 80 126.428 78.8791 126.428 77.689V70.1469C126.428 68.9568 125.71 68.514 124.548 68.514" fill="white"/>
<defs>
<linearGradient id="paint0_linear" x1="142.857" y1="100" x2="160" y2="100" gradientUnits="userSpaceOnUse">
<stop stop-color="#8033EB"/>
<stop offset="1" stop-color="#6731CE"/>
</linearGradient>
<linearGradient id="paint1_linear" x1="154.286" y1="95" x2="118.571" y2="95" gradientUnits="userSpaceOnUse">
<stop stop-color="#B23760"/>
<stop offset="1" stop-color="#933671"/>
</linearGradient>
<linearGradient id="paint2_linear" x1="136.086" y1="80.8391" x2="119.546" y2="88.8573" gradientUnits="userSpaceOnUse">
<stop stop-color="#C6426E"/>
<stop offset="1" stop-color="#933671"/>
</linearGradient>
</defs>
</svg>
