<svg width="80" height="90" viewBox="0 0 80 90" fill="none" xmlns="http://www.w3.org/2000/svg">
<g id="serverless-CMS-logo">
<g id="Group 111">
<path id="path-1 path" opacity="0.3" fill-rule="evenodd" clip-rule="evenodd" d="M44.6848 88.4972C41.7859 90.1757 38.2146 90.1757 35.3157 88.4972L4.68447 70.7571C1.78563 69.0781 0 65.9759 0 62.6183L0 27.1381C0 23.7805 1.78563 20.6779 4.68447 18.9994L35.3157 1.2593C38.2146 -0.419768 41.7859 -0.419768 44.6848 1.2593L75.3155 18.9994C78.2144 20.6779 80 23.7805 80 27.1381V62.6183C80 65.9759 78.2144 69.0781 75.3155 70.7571L44.6848 88.4972Z" fill="#FA5A28"/>
<path id="path-1 path_2" fill-rule="evenodd" clip-rule="evenodd" d="M44.8234 84.8154C42.1687 86.3501 38.8982 86.3501 36.2435 84.8154L8.19236 68.5956C5.53769 67.0605 3.90247 64.2242 3.90247 61.1543L3.90247 28.7148C3.90247 25.6449 5.53769 22.8082 8.19236 21.2735L36.2435 5.05373C38.8982 3.51855 42.1687 3.51855 44.8234 5.05373L72.874 21.2735C75.5287 22.8082 77.164 25.6449 77.164 28.7148V61.1543C77.164 64.2242 75.5287 67.0605 72.874 68.5956L44.8234 84.8154Z" fill="url(#paint0_linear)"/>
</g>
<path id="Rectangle 34" d="M60.0369 60.8466L40.5986 72.3833L20.6113 60.8436L40.2535 49.4208L60.0369 60.8466Z" fill="white" fill-opacity="0.7"/>
<path id="Rectangle 35" d="M64.8128 47.7064L40.6651 62.0382L15.8353 47.7027L40.2364 33.5124L64.8128 47.7064Z" fill="white" fill-opacity="0.9"/>
<path id="Rectangle 32" d="M69.5935 34.5642L40.3252 51.2924L11.0569 34.5642L40.3252 17.1221L69.5935 34.5642Z" fill="#8033EB" fill-opacity="0.7"/>
</g>
<defs>
<linearGradient id="paint0_linear" x1="82.0504" y1="143.637" x2="116.274" y2="69.1531" gradientUnits="userSpaceOnUse">
<stop stop-color="#8033EB"/>
<stop offset="1" stop-color="#F94F24"/>
</linearGradient>
</defs>
</svg>
