<svg width="137" height="44" viewBox="0 0 137 44" fill="none" xmlns="http://www.w3.org/2000/svg">
<g id="webiny logo">
<path id="Shape" fill-rule="evenodd" clip-rule="evenodd" d="M26.2843 8.66783L22.8319 18.5657L22.1357 20.517L17.987 8.66783H13.6252L9.47656 20.5029L8.78039 18.5516L5.32792 8.65368H0L0.383594 9.74245L1.71913 13.546L4.9585 22.8218L7.30277 29.5523H11.6646L15.799 17.7173L19.9477 29.5523H24.3095L26.6538 22.8218L29.8932 13.546L31.2287 9.74243L31.6123 8.65366L30.4757 8.66783H26.2843ZM47.5251 23.3732C46.5832 23.8724 45.6104 24.3116 44.6125 24.6882C43.6189 25.0435 42.5711 25.2253 41.5153 25.2255C40.373 25.2859 39.2403 24.9892 38.2759 24.3771C37.6324 23.8677 37.1653 23.1705 36.9404 22.3834H39.6967C41.9349 22.4605 44.1597 22.0099 46.1896 21.0684C48.23 20.0466 49.5734 18.025 49.7195 15.7564C49.8656 13.4879 48.7926 11.3121 46.9 10.0394C45.235 8.94911 43.2809 8.37802 41.2879 8.39913C38.4685 8.3582 35.7806 9.58402 33.9709 11.7361C32.1487 13.9663 31.2089 16.7825 31.3283 19.6544C31.1893 22.3649 32.1169 25.0226 33.9142 27.0637C35.8198 29.0453 38.4919 30.1121 41.2454 29.9906C44.3759 29.9432 47.4294 29.0168 50.0542 27.3182L50.7504 26.8799L48.1787 23.0339L47.5251 23.3732ZM41.1741 12.9945C41.651 12.9983 42.1266 13.0456 42.5949 13.1358C42.9939 13.2164 43.3745 13.3698 43.7174 13.5884C43.9823 13.7355 44.203 13.9502 44.3567 14.2105C44.5493 14.5306 44.6477 14.8981 44.6409 15.271C44.6947 15.6816 44.5648 16.0951 44.2857 16.4022C43.8989 16.7706 43.4458 17.0632 42.9502 17.2647C41.9249 17.575 40.85 17.6901 39.7819 17.604H36.5992C36.8078 16.5463 37.2655 15.5529 37.9348 14.7054C38.357 14.1957 38.8669 13.7648 39.4408 13.4328C39.9698 13.1377 40.5677 12.9865 41.1741 12.9945ZM62.3439 7.96073C60.8623 7.94588 59.3993 8.29045 58.0815 8.96467V0H52.981V28.8594L53.5493 29.0291C55.9315 29.6331 58.3796 29.9418 60.8379 29.9481C64.0122 30.1746 67.1271 29.007 69.3625 26.7525C71.2518 24.5539 72.2631 21.7408 72.2041 18.8484C72.2108 16.1191 71.2895 13.4679 69.5899 11.326L69.6325 11.2694C67.8565 9.09289 65.1596 7.8686 62.3439 7.96073ZM61.1787 25.2113C60.3547 25.2114 59.2038 25.1407 57.9962 25.0134V16.1336C58.035 15.4463 58.3346 14.7994 58.8345 14.3237C59.7113 13.374 60.9638 12.8568 62.2586 12.9097C63.6812 12.8538 65.0171 13.5894 65.7252 14.8186C66.5231 16.1138 66.9231 17.6128 66.8761 19.1312C66.9529 20.7155 66.4479 22.2736 65.4553 23.5145C65.0104 24.0416 64.452 24.4621 63.8214 24.7448C62.9858 25.0919 62.0834 25.2513 61.1787 25.2113ZM79.5205 8.73824V29.6086H74.4199V8.73824H79.5205ZM103.077 15.1015C103.098 14.0271 102.885 12.961 102.452 11.9765C101.316 9.67176 98.7583 8.39918 95.2632 8.39918C92.9628 8.30325 90.7137 9.09327 88.9834 10.605C88.376 9.77836 87.6312 9.06106 86.7812 8.48399L86.2412 8.10223L82.9166 11.1282L83.5418 11.722C84.0656 12.1791 84.4909 12.7371 84.7921 13.3623C85.0379 14.0324 85.1583 14.7417 85.1473 15.455V29.5948H90.2478V15.8367C90.8179 15.0922 91.5038 14.443 92.2795 13.9137C93.1188 13.3531 94.1105 13.062 95.1211 13.0795C95.9402 13.0303 96.749 13.2819 97.3943 13.7865C97.7211 14.0834 98.0337 14.5783 98.0337 16.063V29.5806L103.077 29.6231V15.1015ZM119.501 28.0252H120.056C121.708 28.0184 123.359 27.9193 125 27.7283L125 8.71019H119.899V21.5633C119.457 23.38 117.893 24.7088 116.021 24.8579C116.021 24.8579 112.568 25.1265 112.17 22.242V8.7243H107.07V23.2035C107.049 24.2824 107.262 25.3532 107.695 26.3425C108.319 27.5738 109.361 28.5456 110.636 29.0857V29.114C113.477 27.0496 116.489 27.8979 119.501 28.0252Z" fill="white"/>
<path id="Shape_2" fill-rule="evenodd" clip-rule="evenodd" d="M133.155 17.2672C131.123 16.0666 128.685 15.7004 126.377 16.2488V22.1012C126.438 21.9929 126.512 21.8918 126.597 21.8C126.716 21.684 126.85 21.5828 126.994 21.4987C128.083 20.9572 129.383 21.0116 130.42 21.6422C131.355 22.1821 131.866 23.2176 131.714 24.2672C131.673 25.1377 131.256 25.9506 130.567 26.5049C129.315 27.4025 127.846 27.9706 126.303 28.1544H126.23H126.053C125.318 28.1544 122.951 28.4126 120.804 28.3839H119.672L116.82 28.1975C116.54 28.1831 116.261 28.1831 115.982 28.1975C115.737 28.1827 115.491 28.1827 115.246 28.1975H114.599H114.408C113.363 28.3722 112.363 28.7476 111.468 29.302L111.379 29.3019C110.504 29.8643 109.762 30.6028 109.203 31.4679C107.599 34.149 107.599 37.4651 109.203 40.1461C110.729 42.7198 113.634 44.2096 116.673 43.9761C118.967 43.8926 121.123 42.885 122.627 41.1933C124.016 39.5704 124.976 37.6395 125.421 35.5703C125.588 34.9105 125.72 34.265 125.818 33.6339L120.466 33.5191C120.348 34.0786 120.201 34.6236 120.04 35.1687C119.778 36.1179 119.323 37.0059 118.702 37.7794C118.124 38.4342 117.293 38.8242 116.408 38.8552C115.325 38.9779 114.272 38.4586 113.732 37.5354C113.106 36.5118 113.078 35.2423 113.658 34.1933C113.748 34.0595 113.852 33.9346 113.967 33.8204C114.665 33.2849 115.558 33.0516 116.437 33.1748C117.466 33.1748 118.452 33.1748 119.378 33.1031C119.76 33.1031 120.128 33.1031 120.495 33.1031L125.921 33.2179C128.857 32.9826 131.665 31.9435 134.022 30.2199C135.759 28.7749 136.82 26.7044 136.963 24.4823C137.256 21.5212 135.788 18.6572 133.184 17.1093" fill="white"/>
</g>
</svg>
