<svg width="535" height="321" viewBox="0 0 535 321" fill="none"
    xmlns="http://www.w3.org/2000/svg">
    <g id="webiny-infrastructure-overview">
        <rect id="Rectangle" x="0.00012207" width="535" height="321" fill="white"/>
        <rect id="Rectangle_2" x="0.00012207" width="535" height="321" fill="white"/>
        <mask id="mask0" maskUnits="userSpaceOnUse" x="0" y="0" width="536" height="321" style="{ mask-type:alpha; }">
            <rect id="Rectangle_3" x="0.00012207" width="535" height="321" fill="white"/>
        </mask>
        <g mask="url(#mask0)">
            <g id="Group">
                <rect id="Rectangle_4" x="254" y="145" width="175" height="41" rx="20.5" fill="#F2F2F2"/>
                <rect id="Rectangle Copy" x="327" y="274" width="208" height="47" rx="23.5" fill="#F2F2F2"/>
                <rect id="Rectangle Copy_2" x="290" y="209" width="191" height="41" rx="20.5" fill="#EEEEEE"/>
                <g id="logos">
                    <g id="aws">
                        <path id="Shape" fill-rule="evenodd" clip-rule="evenodd" d="M397.991 308.996C397.245 308.984 396.502 308.919 395.766 308.801C394.79 308.668 393.825 308.471 392.875 308.208C392.349 308.063 391.825 307.912 391.307 307.723C390.79 307.533 390.248 307.329 389.731 307.107C389.024 306.805 388.333 306.469 387.66 306.097C387.245 305.869 386.837 305.627 386.432 305.381C386.027 305.135 385.583 304.789 385.163 304.51C384.553 304.09 383.997 303.607 383.426 303.14C383.24 302.985 383.062 302.821 382.894 302.648C382.701 302.453 382.71 302.222 382.894 302.103C382.985 302.051 383.098 302.051 383.189 302.103C383.601 302.293 383.976 302.55 384.373 302.758C384.769 302.965 385.092 303.14 385.456 303.317C385.751 303.462 386.047 303.599 386.343 303.735C386.917 303.995 387.494 304.247 388.092 304.457C388.441 304.579 388.796 304.7 389.142 304.83C389.499 304.97 389.864 305.09 390.234 305.191C390.652 305.343 391.08 305.465 391.515 305.559C391.867 305.603 392.207 305.701 392.553 305.769C392.849 305.831 393.145 305.899 393.461 305.97C394.381 306.158 395.31 306.294 396.245 306.379C397.493 306.523 398.749 306.583 400.005 306.559C400.671 306.559 401.343 306.559 402.005 306.488C402.751 306.402 403.484 306.337 404.236 306.219C404.866 306.115 405.493 306 406.118 305.878C406.496 305.804 406.866 305.689 407.245 305.603C407.931 305.449 408.6 305.233 409.271 305.011C409.943 304.789 410.671 304.51 411.369 304.256C411.611 304.167 411.848 304.063 412.079 303.96C412.302 303.862 412.561 303.894 412.753 304.043C412.842 304.137 412.89 304.263 412.885 304.393C412.881 304.522 412.825 304.645 412.73 304.733C411.528 305.583 412.209 305.152 411.922 305.325C411.922 305.325 411.133 305.831 410.739 306.068C410.443 306.237 410.147 306.382 409.851 306.533C409.36 306.787 408.857 307.012 408.351 307.225C407.984 307.379 407.606 307.504 407.236 307.643C406.665 307.856 406.079 308.019 405.493 308.179C404.908 308.339 404.375 308.454 403.81 308.567C403.079 308.715 402.331 308.806 401.603 308.904C400.846 308.974 400.085 309.005 399.325 308.996H399.325C398.798 308.996 398.396 308.996 397.991 308.996Z" fill="#FB9A02"/>
                        <path id="Shape 2" fill-rule="evenodd" clip-rule="evenodd" d="M399.638 291.942C399.638 291.942 399.069 294.263 398.801 295.424C398.554 296.46 398.307 297.497 398.058 298.535C398.041 298.611 398.019 298.687 397.993 298.76C397.947 299.041 397.682 299.23 397.402 299.184C397.088 299.184 396.774 299.184 396.458 299.184C395.999 299.184 395.804 299.036 395.73 298.592C395.153 296.59 395.57 297.95 395.461 297.638C395.461 297.638 394.838 295.543 394.514 294.497C394.416 294.107 394.293 293.724 394.144 293.351C394.116 293.274 394.095 293.195 394.082 293.114C394.026 292.821 393.937 292.535 393.816 292.262C393.73 291.998 393.658 291.73 393.6 291.459C393.44 290.965 393.304 290.461 393.156 289.961C393.133 289.886 393.118 289.808 393.112 289.73C393.1 289.659 393.121 289.586 393.169 289.532C393.216 289.477 393.285 289.447 393.357 289.449C393.778 289.449 394.198 289.449 394.618 289.449C394.817 289.458 394.987 289.594 395.041 289.786C395.501 291.493 395.234 290.431 395.304 290.76C395.304 290.76 395.693 292.225 395.878 292.957C396.2 294.23 396.517 295.503 396.837 296.777C396.837 296.833 396.863 296.886 396.878 296.939C396.893 296.993 396.902 297.019 396.949 297.022C396.996 297.025 397.02 296.978 397.032 296.934L397.271 295.918C397.445 295.18 397.619 294.442 397.792 293.703C397.922 293.147 398.047 292.59 398.183 292.034C398.363 291.299 398.511 290.553 398.718 289.828C398.759 289.602 398.959 289.439 399.189 289.446C399.57 289.446 399.955 289.446 400.336 289.446C400.572 289.436 400.779 289.604 400.819 289.837C400.978 290.361 401.082 290.903 401.212 291.435C401.41 292.264 401.6 293.096 401.804 293.925L402.372 296.353C402.428 296.593 402.487 296.833 402.546 297.073C402.546 297.111 402.546 297.176 402.606 297.179C402.812 296.551 402.665 297.117 402.674 297.076C402.674 297.076 402.949 296.025 403.085 295.498L403.724 293.019C403.848 292.537 403.964 292.051 404.1 291.572C404.262 290.994 404.378 290.405 404.57 289.837C404.615 289.585 404.848 289.411 405.103 289.44C405.434 289.44 405.765 289.44 406.097 289.44C406.428 289.44 406.508 289.57 406.44 289.866C406.387 290.103 406.313 290.331 406.242 290.562L405.469 293.016L404.458 296.247C404.2 297.07 403.943 297.896 403.68 298.716C403.561 299.092 403.428 299.181 403.041 299.184C402.727 299.184 402.41 299.184 402.097 299.184C401.946 299.207 401.792 299.167 401.672 299.072C401.553 298.976 401.478 298.836 401.467 298.683C401.345 298.195 401.227 297.703 401.106 297.203C400.913 296.404 400.718 295.601 400.514 294.799C400.295 293.911 400.079 293.002 399.863 292.102C399.833 291.995 399.795 291.871 399.765 291.743C399.348 293.102 399.646 291.859 399.638 291.942Z" fill="#24303F"/>
                        <path id="Shape 3" fill-rule="evenodd" clip-rule="evenodd" d="M392.066 296.084C392.03 296.778 392.193 297.467 392.536 298.071C392.696 298.367 392.648 298.515 392.379 298.699C392.163 298.847 391.941 298.995 391.719 299.128C391.54 299.272 391.279 299.248 391.128 299.075C390.855 298.807 390.634 298.491 390.477 298.142C390.391 297.968 390.347 297.959 390.217 298.101C389.608 298.8 388.768 299.257 387.85 299.386C386.915 299.513 385.992 299.475 385.187 298.873C384.56 298.407 384.175 297.683 384.14 296.902C384.081 296.386 384.146 295.863 384.329 295.377C384.565 294.8 384.98 294.314 385.513 293.991C385.754 293.837 386.016 293.717 386.291 293.636C386.914 293.453 387.566 293.384 388.214 293.432C388.811 293.476 389.404 293.562 389.989 293.689C390.217 293.74 390.243 293.722 390.24 293.485C390.259 293.048 390.239 292.61 390.178 292.176C390.124 291.857 389.999 291.553 389.811 291.288C389.662 291.108 389.465 290.973 389.243 290.897C388.62 290.672 387.949 290.613 387.297 290.726C386.756 290.808 386.227 290.952 385.72 291.155C385.521 291.244 385.312 291.309 385.098 291.35C384.891 291.371 384.803 291.315 384.803 291.111C384.789 290.853 384.789 290.595 384.803 290.338C384.824 290.159 384.936 290.004 385.098 289.926C385.462 289.715 385.855 289.558 386.264 289.461C387.005 289.232 387.779 289.132 388.554 289.165C389.258 289.163 389.953 289.325 390.583 289.639C391.148 289.942 391.579 290.444 391.793 291.048C391.985 291.589 392.077 292.16 392.066 292.733V294.554L392.066 294.551C392.066 295.063 392.083 295.575 392.066 296.084ZM389.072 297.686C389.534 297.483 389.901 297.112 390.099 296.647C390.268 296.189 390.329 295.699 390.279 295.214C390.258 294.945 390.244 294.953 389.965 294.903C389.563 294.829 389.161 294.767 388.752 294.731C388.154 294.662 387.548 294.727 386.977 294.921C386.662 295.029 386.399 295.252 386.241 295.546C386.017 295.964 385.958 296.451 386.075 296.91C386.128 297.281 386.345 297.608 386.667 297.799C386.951 297.951 387.271 298.022 387.593 298.003H387.593C388.105 298.023 388.613 297.914 389.072 297.686Z" fill="#24303F"/>
                        <path id="Shape 4" fill-rule="evenodd" clip-rule="evenodd" d="M407.727 298.917C407.361 298.796 407.135 298.429 407.192 298.047C407.192 297.896 407.192 297.751 407.192 297.594C407.218 297.375 407.325 297.298 407.541 297.348C407.677 297.381 407.81 297.427 407.937 297.484C408.944 297.929 410.054 298.087 411.144 297.943C411.652 297.917 412.122 297.664 412.422 297.253C412.775 296.736 412.643 296.032 412.127 295.678C411.736 295.446 411.314 295.268 410.875 295.151C410.127 294.899 409.349 294.734 408.653 294.334C407.5 293.69 407.001 292.291 407.488 291.062C407.772 290.379 408.316 289.836 408.999 289.552C409.811 289.193 410.707 289.071 411.585 289.2C412.23 289.281 412.861 289.454 413.458 289.712C413.716 289.801 413.886 290.049 413.875 290.322C413.875 290.518 413.875 290.713 413.875 290.914C413.87 291.011 413.818 291.099 413.736 291.15C413.655 291.202 413.553 291.21 413.464 291.172C412.793 290.854 412.064 290.675 411.322 290.648C410.82 290.607 410.316 290.675 409.843 290.846C409.534 290.957 409.288 291.197 409.171 291.504C409.054 291.811 409.077 292.153 409.233 292.442C409.357 292.664 409.547 292.841 409.778 292.948C410.24 293.177 410.724 293.362 411.221 293.499C411.896 293.67 412.548 293.917 413.168 294.233C413.875 294.623 414.339 295.343 414.402 296.149C414.538 297.629 413.635 298.728 412.381 299.181C411.778 299.384 411.145 299.489 410.508 299.492H410.508C409.554 299.476 408.61 299.281 407.727 298.917Z" fill="#24303F"/>
                        <path id="Shape 5" fill-rule="evenodd" clip-rule="evenodd" d="M415.156 301.754C415.32 301.788 415.48 301.842 415.632 301.914C415.788 302.011 415.882 302.183 415.881 302.367C415.906 302.888 415.858 303.41 415.739 303.918C415.59 304.577 415.36 305.215 415.052 305.816C414.765 306.41 414.363 306.94 413.869 307.376C413.808 307.425 413.75 307.478 413.694 307.533C413.607 307.646 413.447 307.673 413.327 307.595C413.203 307.515 413.242 307.364 413.289 307.258C413.633 306.474 413.923 305.666 414.156 304.842C414.287 304.448 414.351 304.034 414.345 303.619C414.377 303.306 414.159 303.022 413.848 302.974C413.301 302.848 412.739 302.807 412.18 302.852C411.665 302.882 411.15 302.929 410.638 302.971C410.41 302.988 410.183 303.021 409.952 303.042C409.848 303.042 409.739 303.042 409.697 302.926C409.656 302.811 409.724 302.731 409.81 302.654C410.196 302.34 410.64 302.107 411.117 301.967C411.503 301.836 411.899 301.737 412.301 301.671C412.775 301.6 413.254 301.577 413.733 301.6C414.212 301.578 414.692 301.63 415.156 301.754Z" fill="#FB9A02"/>
                    </g>
                    <g id="Microsoft_Azure_Logo">
                        <g id="layer1">
                            <g id="layer1-1">
                                <path id="path21" fill-rule="evenodd" clip-rule="evenodd" d="M501.976 306.263L502.038 306.249L498.663 302.235C496.806 300.027 495.288 298.212 495.288 298.202C495.288 298.182 498.774 288.585 498.792 288.551C498.798 288.539 501.171 292.635 504.542 298.478C507.698 303.948 510.3 308.457 510.323 308.499L510.367 308.576L499.641 308.574L488.915 308.573C488.915 308.573 495.415 307.424 495.415 307.424C498.99 306.793 501.943 306.269 501.976 306.263ZM486.076 300.065L489.61 293.94L493.729 290.484C495.994 288.583 497.854 287.026 497.859 287.024C497.867 287.022 497.838 287.095 497.794 287.19C497.75 287.286 495.739 291.601 493.322 296.783L488.929 306.202L485.735 306.206C483.979 306.208 482.542 306.206 482.542 306.2C482.542 306.194 484.134 303.434 486.076 300.065Z" fill="#0089D6"/>
                            </g>
                        </g>
                    </g>
                    <g id="Google_Cloud_Logo">
                        <g id="Group_2">
                            <g id="Group_3">
                                <path id="Shape_2" fill-rule="evenodd" clip-rule="evenodd" d="M454.213 293.418L456.345 291.286L456.45 290.38C452.481 286.879 446.424 287.258 442.923 291.225C441.949 292.327 441.244 293.638 440.858 295.058C441.096 294.961 441.359 294.945 441.606 295.014L445.87 294.31C445.87 294.31 446.087 293.951 446.2 293.972C448.096 291.889 451.288 291.647 453.479 293.418H453.465H454.213Z" fill="#EA4335"/>
                                <path id="Shape_3" fill-rule="evenodd" clip-rule="evenodd" d="M456.487 290.39L453.495 293.383C454.759 294.415 455.479 295.972 455.448 297.603V298.135C456.92 298.135 458.112 299.327 458.112 300.798C458.112 302.27 456.92 303.462 455.448 303.462H450.12L449.588 304.001V307.196L450.12 307.727H455.447C459.271 307.756 462.397 304.679 462.427 300.855C462.445 298.529 461.302 296.357 459.381 295.058C458.89 293.252 457.885 291.631 456.487 290.39Z" fill="#4285F4"/>
                                <path id="Shape_4" fill-rule="evenodd" clip-rule="evenodd" d="M450.114 307.692V303.428H444.787C444.407 303.428 444.033 303.345 443.687 303.187L442.939 303.42L440.793 305.552L440.605 306.299C441.809 307.21 443.277 307.7 444.787 307.692H450.114Z" fill="#34A853"/>
                                <path id="Shape_5" fill-rule="evenodd" clip-rule="evenodd" d="M437.9 300.829C437.912 302.966 438.909 304.976 440.605 306.278L443.693 303.19C442.353 302.584 441.757 301.006 442.362 299.667C442.968 298.328 444.546 297.729 445.887 298.335C446.478 298.601 446.949 299.076 447.217 299.666L450.306 296.578C448.992 294.857 446.949 293.851 444.787 293.861C440.96 293.884 437.879 297.002 437.9 300.829Z" fill="#FBBC05"/>
                            </g>
                        </g>
                    </g>
                    <g id="Lumigo_Logo">
                        <g id="Group_4">
                            <path id="Shape_6" fill-rule="evenodd" clip-rule="evenodd" d="M372.955 236.645H371.685C371.604 236.645 371.544 236.625 371.483 236.564C371.423 236.504 371.402 236.444 371.402 236.383V236.061C371.04 236.302 370.697 236.464 370.374 236.585C370.052 236.685 369.669 236.746 369.225 236.746C368.883 236.746 368.56 236.706 368.258 236.605C367.975 236.504 367.713 236.363 367.512 236.161C367.25 235.899 367.068 235.557 366.967 235.153C366.867 234.73 366.806 234.226 366.806 233.662V229.146C366.806 229.065 366.826 229.005 366.887 228.944C366.947 228.884 367.008 228.864 367.088 228.864H368.358C368.439 228.864 368.5 228.884 368.56 228.944C368.62 229.005 368.641 229.065 368.641 229.146V233.662C368.641 234.004 368.661 234.287 368.701 234.488C368.741 234.69 368.822 234.851 368.963 234.972C369.064 235.053 369.185 235.113 369.306 235.153C369.427 235.194 369.608 235.214 369.81 235.214C369.931 235.214 370.072 235.194 370.213 235.153C370.354 235.113 370.495 235.073 370.636 235.012C370.777 234.952 370.898 234.891 371.019 234.831C371.14 234.77 371.261 234.71 371.362 234.649V229.166C371.362 229.086 371.382 229.025 371.443 228.965C371.503 228.904 371.564 228.884 371.644 228.884H372.914C372.995 228.884 373.055 228.904 373.116 228.965C373.176 229.025 373.197 229.086 373.197 229.166V236.383C373.237 236.444 373.197 236.524 373.156 236.564C373.096 236.625 373.035 236.645 372.955 236.645Z" fill="#101415"/>
                            <path id="Shape_7" fill-rule="evenodd" clip-rule="evenodd" d="M384.667 236.645H383.397C383.316 236.645 383.256 236.605 383.195 236.564C383.135 236.504 383.115 236.444 383.115 236.363V231.686C383.115 231.424 383.094 231.202 383.074 231.041C383.034 230.88 382.994 230.739 382.913 230.638C382.832 230.537 382.732 230.456 382.611 230.416C382.49 230.376 382.328 230.355 382.127 230.355C382.006 230.355 381.804 230.376 381.583 230.436C381.341 230.476 381.099 230.577 380.857 230.698C380.877 230.859 380.897 231.021 380.897 231.182C380.917 231.343 380.917 231.525 380.917 231.686V236.363C380.917 236.444 380.897 236.504 380.837 236.564C380.776 236.625 380.716 236.645 380.635 236.645H379.365C379.284 236.645 379.224 236.605 379.163 236.564C379.103 236.504 379.083 236.444 379.083 236.363V231.686C379.083 231.424 379.063 231.202 379.043 231.041C379.022 230.88 378.962 230.739 378.901 230.638C378.841 230.537 378.74 230.456 378.619 230.416C378.498 230.376 378.337 230.355 378.135 230.355C377.853 230.355 377.43 230.517 376.865 230.819V236.383C376.865 236.464 376.845 236.524 376.785 236.585C376.724 236.645 376.664 236.665 376.583 236.665H375.313C375.232 236.665 375.172 236.625 375.112 236.585C375.051 236.524 375.031 236.464 375.031 236.383V229.146C375.031 229.065 375.051 229.005 375.112 228.944C375.172 228.884 375.232 228.864 375.313 228.864H376.523C376.603 228.864 376.664 228.884 376.724 228.944C376.785 229.005 376.805 229.065 376.805 229.146V229.428C377.107 229.247 377.389 229.085 377.692 228.965C377.994 228.823 378.357 228.763 378.78 228.763C379.184 228.763 379.506 228.823 379.768 228.924C380.03 229.045 380.232 229.186 380.393 229.388C380.736 229.186 381.099 229.045 381.441 228.924C381.784 228.823 382.207 228.763 382.671 228.763C383.135 228.763 383.518 228.844 383.82 228.985C384.123 229.146 384.344 229.348 384.526 229.61C384.687 229.872 384.808 230.174 384.868 230.517C384.929 230.859 384.969 231.242 384.969 231.646V236.343C384.949 236.444 384.929 236.504 384.868 236.564C384.808 236.625 384.748 236.645 384.667 236.645Z" fill="#101415"/>
                            <path id="Shape_8" fill-rule="evenodd" clip-rule="evenodd" d="M388.376 227.755C388.316 227.815 388.255 227.836 388.175 227.836H386.844C386.764 227.836 386.703 227.815 386.643 227.755C386.582 227.694 386.562 227.634 386.562 227.553V226.344C386.562 226.263 386.602 226.203 386.643 226.142C386.703 226.082 386.764 226.062 386.844 226.062H388.175C388.255 226.062 388.316 226.082 388.376 226.142C388.437 226.203 388.457 226.263 388.457 226.344V227.553C388.457 227.634 388.437 227.694 388.376 227.755ZM388.336 236.564C388.275 236.625 388.215 236.645 388.134 236.645H386.864C386.784 236.645 386.723 236.605 386.663 236.564C386.602 236.504 386.582 236.444 386.582 236.363V229.146C386.582 229.065 386.602 229.005 386.663 228.944C386.723 228.884 386.784 228.864 386.864 228.864H388.134C388.215 228.864 388.275 228.884 388.336 228.944C388.396 229.005 388.417 229.065 388.417 229.146V236.363C388.417 236.444 388.396 236.504 388.336 236.564Z" fill="#101415"/>
                            <path id="Shape_9" fill-rule="evenodd" clip-rule="evenodd" d="M348.804 217.696L347.494 219.006L353.259 224.771H353.037C352.251 224.792 351.485 224.933 350.76 225.195L350.699 225.215L350.679 225.215L348.119 222.635L346.808 223.945L349.026 226.162L348.945 226.223C348.461 226.586 348.038 227.029 347.655 227.513L347.595 227.594L347.554 227.573L340.761 220.78L339.45 222.09L346.687 229.327L346.647 229.368C346.385 230.113 346.244 230.9 346.244 231.686V231.908L346.083 231.746L342.595 228.279L341.285 229.589L348.139 236.443C349.469 237.855 351.243 238.621 353.158 238.621C356.968 238.621 360.073 235.516 360.073 231.706C360.093 229.489 359.005 227.372 357.19 226.082L348.804 217.696ZM349.631 235.335L349.57 235.274L349.429 235.133C348.562 234.185 348.099 232.976 348.099 231.706C348.099 228.904 350.377 226.646 353.159 226.646C355.961 226.646 358.219 228.924 358.219 231.706C358.239 234.488 355.961 236.766 353.159 236.766C351.828 236.766 350.578 236.262 349.631 235.335Z" fill="url(#paint0_linear)"/>
                            <path id="Shape_10" fill-rule="evenodd" clip-rule="evenodd" d="M364.871 236.826H363.581C363.5 236.826 363.44 236.806 363.379 236.746C363.319 236.685 363.298 236.625 363.298 236.544V225.175C363.298 225.094 363.319 225.033 363.379 224.973C363.44 224.912 363.5 224.892 363.581 224.892H364.871C364.951 224.892 365.012 224.912 365.052 224.973C365.113 225.033 365.133 225.094 365.133 225.175V236.544C365.133 236.625 365.113 236.685 365.052 236.746C365.012 236.806 364.931 236.826 364.871 236.826Z" fill="#101415"/>
                            <g id="Group_5">
                                <path id="Shape_11" fill-rule="evenodd" clip-rule="evenodd" d="M397.468 232.795C397.468 230.597 399.262 228.803 401.46 228.803C403.657 228.803 405.451 230.597 405.451 232.795C405.471 234.992 403.677 236.786 401.46 236.786C399.262 236.786 397.468 234.992 397.468 232.795ZM399.182 232.775C399.182 234.024 400.21 235.053 401.459 235.053C402.709 235.053 403.737 234.024 403.737 232.775C403.737 231.525 402.73 230.497 401.459 230.497C400.21 230.497 399.182 231.525 399.182 232.775Z" fill="#101415"/>
                            </g>
                            <g id="Group_6">
                                <path id="Shape_12" fill-rule="evenodd" clip-rule="evenodd" d="M396.44 227.835C396.379 227.795 396.319 227.775 396.238 227.775C396.158 227.775 396.097 227.815 396.057 227.876L395.23 228.863H393.073C392.469 228.863 391.965 228.924 391.561 229.065C391.158 229.206 390.816 229.388 390.553 229.609C390.291 229.851 390.11 230.113 389.989 230.416C389.868 230.718 389.808 231.041 389.808 231.383V231.484C389.808 231.827 389.848 232.129 389.929 232.391C390.009 232.653 390.17 232.875 390.372 233.097C390.191 233.218 390.049 233.399 389.949 233.601C389.848 233.802 389.808 234.004 389.808 234.226V234.246C389.808 234.488 389.868 234.73 389.969 234.952C390.09 235.173 390.231 235.355 390.432 235.516C390.211 235.718 390.029 235.939 389.908 236.222C389.787 236.484 389.727 236.766 389.727 237.048V237.169C389.727 237.895 390.009 238.459 390.594 238.862C391.178 239.266 392.025 239.467 393.154 239.467C394.343 239.467 395.19 239.286 395.734 238.923C396.279 238.56 396.541 238.016 396.541 237.31V237.209C396.541 236.846 396.46 236.544 396.319 236.302C396.178 236.06 395.976 235.879 395.694 235.718C395.432 235.556 395.109 235.435 394.726 235.314C394.343 235.214 393.92 235.093 393.456 234.992L391.823 234.609C391.662 234.568 391.541 234.528 391.461 234.448C391.38 234.387 391.34 234.286 391.34 234.145C391.34 234.004 391.42 233.883 391.582 233.782C391.723 233.843 391.924 233.883 392.166 233.944C392.408 234.004 392.731 234.024 393.093 234.024C394.142 234.024 394.948 233.823 395.513 233.419C396.077 233.016 396.359 232.371 396.359 231.504V231.404C396.359 231.162 396.319 230.96 396.279 230.799C396.218 230.637 396.137 230.456 396.017 230.315L396.48 230.134C396.561 230.093 396.621 230.073 396.641 230.033C396.662 230.033 396.662 230.013 396.662 229.992L397.468 229.045C397.508 228.984 397.528 228.924 397.528 228.843C397.508 228.763 397.488 228.702 397.428 228.662L396.44 227.835ZM391.602 236.484C391.662 236.363 391.743 236.221 391.844 236.08L393.074 236.363C393.436 236.443 393.719 236.524 393.94 236.584C394.162 236.645 394.323 236.725 394.444 236.786C394.565 236.846 394.626 236.907 394.666 236.987C394.707 237.048 394.707 237.129 394.707 237.189V237.29C394.707 237.411 394.686 237.532 394.646 237.633C394.606 237.733 394.525 237.814 394.424 237.874C394.303 237.935 394.142 237.995 393.94 238.036C393.739 238.076 393.477 238.096 393.134 238.096C392.812 238.096 392.55 238.076 392.328 238.036C392.106 237.995 391.945 237.935 391.824 237.854C391.703 237.774 391.622 237.673 391.562 237.572C391.501 237.451 391.481 237.33 391.481 237.189V237.048H391.501C391.501 236.806 391.542 236.604 391.602 236.484ZM394.243 232.351C394.041 232.532 393.638 232.633 393.073 232.633C392.751 232.633 392.489 232.593 392.307 232.532C392.106 232.472 391.965 232.391 391.864 232.27C391.763 232.169 391.682 232.048 391.642 231.907C391.602 231.786 391.582 231.645 391.582 231.524V231.423C391.582 231.262 391.602 231.101 391.642 230.96C391.682 230.819 391.763 230.698 391.884 230.597C391.985 230.496 392.146 230.416 392.348 230.355C392.549 230.295 392.791 230.274 393.073 230.274C393.376 230.274 393.618 230.295 393.799 230.355C394.001 230.416 394.142 230.496 394.263 230.597C394.384 230.698 394.444 230.819 394.485 230.96C394.525 231.101 394.545 231.262 394.545 231.423V231.544C394.545 231.887 394.444 232.169 394.243 232.351Z" fill="#101415"/>
                            </g>
                        </g>
                    </g>
                    <g id="database">
                        <g id="Group_7">
                            <path id="Polygon" fill-rule="evenodd" clip-rule="evenodd" d="M423.574 239.684L424.864 235.759H420.938V239.684H423.574Z" fill="#E27567"/>
                            <path id="Polygon_2" fill-rule="evenodd" clip-rule="evenodd" d="M444.491 239.684V235.759H429.35L428.06 239.684H444.491Z" fill="#E27567"/>
                            <path id="Polygon_3" fill-rule="evenodd" clip-rule="evenodd" d="M425.929 232.394L427.219 228.468H420.938V232.394H425.929Z" fill="#E27567"/>
                            <path id="Polygon_4" fill-rule="evenodd" clip-rule="evenodd" d="M444.491 232.394V228.468H431.705L430.415 232.394H444.491Z" fill="#E27567"/>
                            <path id="Polygon_5" fill-rule="evenodd" clip-rule="evenodd" d="M420.938 221.178V225.104H428.284L429.574 221.178H420.938Z" fill="#E27567"/>
                            <path id="Polygon_6" fill-rule="evenodd" clip-rule="evenodd" d="M432.771 225.104H444.491V221.178H434.06L432.771 225.104Z" fill="#E27567"/>
                        </g>
                    </g>
                    <g id="webiny-range-logo">
                        <g id="Page-1">
                            <g id="Webiny-Logo-Icon">
                                <g id="Logo">
                                    <path id="Fill-1" fill-rule="evenodd" clip-rule="evenodd" d="M356.479 172.152V159.406H353.664V172.152H356.479ZM381.795 166.689C381.786 168.278 380.656 169.396 379.102 169.382C377.533 169.37 376.805 168.574 376.794 166.806C376.78 164.715 376.794 162.621 376.785 160.53C376.782 160.15 376.72 159.771 376.685 159.409H373.935C373.887 159.523 373.838 159.583 373.838 159.643C373.83 162.629 373.781 165.622 373.838 168.609C373.867 170.064 374.552 171.202 375.986 171.812C377.456 170.834 379.082 170.919 380.711 171.119C382.04 171.285 383.341 171.193 384.77 170.905C384.759 167.054 384.802 163.231 384.742 159.391H381.797C381.797 161.908 381.803 164.298 381.795 166.689ZM365.429 159.246C364.39 159.491 363.4 159.939 362.359 160.31C361.908 159.919 361.392 159.474 360.827 158.981C360.122 159.614 359.512 160.159 358.904 160.704C360.205 162.335 360.205 162.335 360.205 164.461C360.205 166.652 360.205 168.845 360.208 171.036C360.208 171.39 360.239 171.747 360.259 172.146H363.164V165.006C363.164 163.454 363.974 162.413 365.486 162.022C367.254 161.565 368.179 162.264 368.184 164.084C368.193 166.406 368.184 168.731 368.19 171.056C368.19 171.41 368.224 171.764 368.244 172.123H371.103C371.103 168.831 371.16 165.613 371.077 162.398C371.043 161.16 370.25 160.25 369.111 159.725C367.936 159.183 366.684 158.949 365.429 159.246ZM329.978 164.889C330.098 163.117 331.487 161.765 332.988 161.868C334.397 161.965 334.942 162.535 334.845 163.964C333.418 165.399 331.647 164.792 329.978 164.889ZM331.963 169.496C330.896 169.282 330.383 168.771 330.18 167.645C330.788 167.645 331.375 167.642 331.96 167.645C333.341 167.659 334.682 167.465 335.914 166.809C338.433 165.465 338.744 161.988 336.465 160.322C334.048 158.553 330.442 158.704 328.354 161.189C326.791 163.052 326.486 165.231 326.859 167.565C327.167 169.47 328.152 170.911 329.866 171.77C332.302 172.991 336.396 172.343 338.524 170.42C338.048 169.73 337.566 169.031 337.089 168.335C336.368 168.649 335.737 168.94 335.092 169.194C334.082 169.596 333.036 169.713 331.963 169.496ZM385.352 164.196V167.1C385.743 167.037 386.066 166.96 386.391 166.94C387.207 166.889 388.005 167.331 388.296 167.967C388.625 168.68 388.436 169.698 387.809 170.249C387.492 170.526 387.115 170.805 386.719 170.911C385.766 171.165 384.79 171.439 383.812 171.479C382.023 171.556 380.226 171.439 378.434 171.493C376.985 171.538 375.622 172.28 374.869 173.518C373.562 175.669 374.175 178.653 376.149 180.102C378.066 181.509 380.925 181.258 382.622 179.512C383.846 178.254 384.374 176.685 384.651 174.882H381.658C381.555 175.207 381.464 175.592 381.316 175.955C381.153 176.351 380.985 176.756 380.745 177.107C380.152 177.974 379.085 178.26 378.198 177.84C377.496 177.509 377.034 176.548 377.188 175.741C377.376 174.751 377.884 174.4 379.173 174.397C380.999 174.391 382.825 174.454 384.648 174.394C386.474 174.331 388.179 173.806 389.637 172.654C391.357 171.296 391.945 168.837 391.063 166.8C390.251 164.923 387.991 163.671 385.92 163.962C385.735 163.987 385.564 164.104 385.352 164.196ZM343.186 169.442C343.186 167.448 343.112 165.525 343.217 163.611C343.269 162.661 344.096 162.133 344.954 161.888C345.956 161.6 346.94 161.683 347.724 162.499C349.06 163.894 349.211 166.8 348.038 168.344C347.277 169.345 346.204 169.602 345.037 169.596C344.475 169.593 343.913 169.505 343.186 169.442ZM343.18 159.395V154H340.165V171.685C341.517 172.155 344.258 172.497 345.631 172.386C348.911 172.121 350.988 170.464 351.63 167.391C351.858 166.31 351.869 165.132 351.71 164.036C351.233 160.739 348.737 158.756 345.431 158.95C344.715 158.993 344.01 159.224 343.18 159.395ZM321.037 166.437H320.772C319.939 164.081 319.103 161.728 318.27 159.377H315.671C314.827 161.753 313.991 164.107 313.155 166.463H312.912C312.065 164.084 311.218 161.705 310.399 159.408H307.295C308.805 163.73 310.277 167.944 311.749 172.157H314.31L316.846 165.028H317.103C317.95 167.419 318.795 169.812 319.625 172.152H322.192C323.67 167.921 325.142 163.705 326.646 159.397H323.539C322.709 161.739 321.873 164.087 321.037 166.437Z" fill="#FA5A28"/>
                                </g>
                            </g>
                        </g>
                    </g>
                </g>
                <g id="pyramid">
                    <g id="g10">
                        <g id="g62">
                            <path id="path64" fill-rule="evenodd" clip-rule="evenodd" d="M65.3279 209.63L41.6237 250.687L370.306 320.907L343.599 274.65L65.3279 209.63Z" fill="#4C1895"/>
                        </g>
                        <g id="g116">
                            <path id="path118" fill-rule="evenodd" clip-rule="evenodd" d="M102.867 144.61L79.1617 185.669L329.743 250.687L306.039 209.63L102.867 144.61Z" fill="#008F7B"/>
                        </g>
                        <g id="g120">
                            <path id="path122" fill-rule="evenodd" clip-rule="evenodd" d="M193.893 55.6283H154.241L254.687 120.648L230.983 79.5909L193.893 55.6283Z" fill="#780068"/>
                        </g>
                        <g id="g174">
                            <path id="path176" fill-rule="evenodd" clip-rule="evenodd" d="M132.432 93.4032L116.702 120.648L292.225 185.667L268.521 144.61L132.432 93.4032Z" fill="#B63912"/>
                        </g>
                        <g id="g228">
                            <path id="path230" fill-rule="evenodd" clip-rule="evenodd" d="M306.061 209.63L329.764 250.687H41.6243L65.3276 209.63H306.061Z" fill="#00CCB0"/>
                        </g>
                        <g id="g282">
                            <path id="path284" fill-rule="evenodd" clip-rule="evenodd" d="M27.7885 274.65H343.599L370.306 320.907H1.08167L27.7885 274.65Z" fill="#7B39D9"/>
                        </g>
                        <g id="g336">
                            <path id="path338" fill-rule="evenodd" clip-rule="evenodd" d="M268.521 144.61L292.226 185.668H79.1628L102.867 144.61H268.521Z" fill="#FA5A28"/>
                        </g>
                        <g id="g390">
                            <path id="path392" fill-rule="evenodd" clip-rule="evenodd" d="M140.406 79.591L185.694 1.14917L230.982 79.591L254.687 120.647H116.702L140.406 79.591Z" fill="#C3C1C1"/>
                        </g>
                    </g>
                </g>
                <g id="text">
                    <path id="Your code" d="M157.309 108.893V105.645L154.551 99.7654H156.763L157.575 101.865C157.706 102.211 157.827 102.547 157.939 102.873C158.06 103.191 158.186 103.527 158.317 103.881H158.373C158.504 103.527 158.63 103.191 158.751 102.873C158.882 102.547 159.012 102.211 159.143 101.865L159.969 99.7654H162.125L159.367 105.645V108.893H157.309ZM165.145 109.061C164.706 109.061 164.281 108.982 163.871 108.823C163.46 108.655 163.096 108.417 162.779 108.109C162.471 107.801 162.223 107.423 162.037 106.975C161.85 106.518 161.757 106 161.757 105.421C161.757 104.843 161.85 104.329 162.037 103.881C162.223 103.424 162.471 103.041 162.779 102.733C163.096 102.425 163.46 102.192 163.871 102.033C164.281 101.865 164.706 101.781 165.145 101.781C165.583 101.781 166.003 101.865 166.405 102.033C166.815 102.192 167.175 102.425 167.483 102.733C167.8 103.041 168.052 103.424 168.239 103.881C168.425 104.329 168.519 104.843 168.519 105.421C168.519 106 168.425 106.518 168.239 106.975C168.052 107.423 167.8 107.801 167.483 108.109C167.175 108.417 166.815 108.655 166.405 108.823C166.003 108.982 165.583 109.061 165.145 109.061ZM165.145 107.395C165.565 107.395 165.882 107.218 166.097 106.863C166.311 106.509 166.419 106.028 166.419 105.421C166.419 104.815 166.311 104.334 166.097 103.979C165.882 103.625 165.565 103.447 165.145 103.447C164.715 103.447 164.393 103.625 164.179 103.979C163.973 104.334 163.871 104.815 163.871 105.421C163.871 106.028 163.973 106.509 164.179 106.863C164.393 107.218 164.715 107.395 165.145 107.395ZM172.014 109.061C171.258 109.061 170.708 108.814 170.362 108.319C170.026 107.825 169.858 107.139 169.858 106.261V101.949H171.916V105.995C171.916 106.499 171.986 106.845 172.126 107.031C172.266 107.218 172.486 107.311 172.784 107.311C173.046 107.311 173.265 107.251 173.442 107.129C173.62 107.008 173.811 106.812 174.016 106.541V101.949H176.074V108.893H174.394L174.24 107.927H174.198C173.9 108.282 173.578 108.562 173.232 108.767C172.896 108.963 172.49 109.061 172.014 109.061ZM177.885 108.893V101.949H179.565L179.705 103.167H179.761C180.013 102.691 180.317 102.341 180.671 102.117C181.026 101.893 181.381 101.781 181.735 101.781C181.931 101.781 182.09 101.795 182.211 101.823C182.342 101.842 182.459 101.875 182.561 101.921L182.225 103.699C182.095 103.662 181.973 103.634 181.861 103.615C181.749 103.597 181.619 103.587 181.469 103.587C181.208 103.587 180.933 103.681 180.643 103.867C180.363 104.054 180.13 104.385 179.943 104.861V108.893H177.885ZM189.29 109.061C188.805 109.061 188.352 108.982 187.932 108.823C187.522 108.655 187.162 108.417 186.854 108.109C186.546 107.801 186.304 107.423 186.126 106.975C185.949 106.518 185.86 106 185.86 105.421C185.86 104.843 185.958 104.329 186.154 103.881C186.35 103.424 186.612 103.041 186.938 102.733C187.274 102.425 187.662 102.192 188.1 102.033C188.539 101.865 188.996 101.781 189.472 101.781C189.902 101.781 190.28 101.851 190.606 101.991C190.942 102.131 191.241 102.309 191.502 102.523L190.536 103.853C190.21 103.583 189.897 103.447 189.598 103.447C189.094 103.447 188.698 103.625 188.408 103.979C188.119 104.334 187.974 104.815 187.974 105.421C187.974 106.028 188.119 106.509 188.408 106.863C188.707 107.218 189.08 107.395 189.528 107.395C189.752 107.395 189.967 107.349 190.172 107.255C190.387 107.153 190.588 107.031 190.774 106.891L191.586 108.235C191.241 108.534 190.868 108.749 190.466 108.879C190.065 109.001 189.673 109.061 189.29 109.061ZM195.387 109.061C194.948 109.061 194.524 108.982 194.113 108.823C193.702 108.655 193.338 108.417 193.021 108.109C192.713 107.801 192.466 107.423 192.279 106.975C192.092 106.518 191.999 106 191.999 105.421C191.999 104.843 192.092 104.329 192.279 103.881C192.466 103.424 192.713 103.041 193.021 102.733C193.338 102.425 193.702 102.192 194.113 102.033C194.524 101.865 194.948 101.781 195.387 101.781C195.826 101.781 196.246 101.865 196.647 102.033C197.058 102.192 197.417 102.425 197.725 102.733C198.042 103.041 198.294 103.424 198.481 103.881C198.668 104.329 198.761 104.843 198.761 105.421C198.761 106 198.668 106.518 198.481 106.975C198.294 107.423 198.042 107.801 197.725 108.109C197.417 108.417 197.058 108.655 196.647 108.823C196.246 108.982 195.826 109.061 195.387 109.061ZM195.387 107.395C195.807 107.395 196.124 107.218 196.339 106.863C196.554 106.509 196.661 106.028 196.661 105.421C196.661 104.815 196.554 104.334 196.339 103.979C196.124 103.625 195.807 103.447 195.387 103.447C194.958 103.447 194.636 103.625 194.421 103.979C194.216 104.334 194.113 104.815 194.113 105.421C194.113 106.028 194.216 106.509 194.421 106.863C194.636 107.218 194.958 107.395 195.387 107.395ZM202.649 109.061C202.219 109.061 201.827 108.977 201.473 108.809C201.127 108.641 200.829 108.403 200.577 108.095C200.334 107.778 200.143 107.395 200.003 106.947C199.872 106.499 199.807 105.991 199.807 105.421C199.807 104.852 199.886 104.343 200.045 103.895C200.213 103.447 200.427 103.069 200.689 102.761C200.959 102.444 201.267 102.201 201.613 102.033C201.967 101.865 202.327 101.781 202.691 101.781C203.083 101.781 203.405 101.847 203.657 101.977C203.909 102.108 204.156 102.285 204.399 102.509L204.315 101.445V99.0794H206.373V108.893H204.693L204.553 108.207H204.497C204.254 108.45 203.969 108.655 203.643 108.823C203.316 108.982 202.985 109.061 202.649 109.061ZM203.181 107.381C203.405 107.381 203.605 107.335 203.783 107.241C203.969 107.148 204.147 106.985 204.315 106.751V103.909C204.128 103.741 203.937 103.625 203.741 103.559C203.545 103.494 203.353 103.461 203.167 103.461C202.84 103.461 202.551 103.62 202.299 103.937C202.047 104.245 201.921 104.731 201.921 105.393C201.921 106.084 202.028 106.588 202.243 106.905C202.467 107.223 202.779 107.381 203.181 107.381ZM211.304 109.061C210.809 109.061 210.347 108.982 209.918 108.823C209.489 108.655 209.115 108.417 208.798 108.109C208.481 107.792 208.233 107.409 208.056 106.961C207.879 106.513 207.79 106 207.79 105.421C207.79 104.861 207.883 104.357 208.07 103.909C208.257 103.452 208.499 103.069 208.798 102.761C209.106 102.444 209.456 102.201 209.848 102.033C210.24 101.865 210.646 101.781 211.066 101.781C211.561 101.781 211.99 101.865 212.354 102.033C212.727 102.201 213.035 102.435 213.278 102.733C213.53 103.032 213.717 103.387 213.838 103.797C213.959 104.199 214.02 104.637 214.02 105.113C214.02 105.3 214.011 105.477 213.992 105.645C213.973 105.813 213.955 105.939 213.936 106.023H209.778C209.871 106.527 210.077 106.901 210.394 107.143C210.721 107.377 211.117 107.493 211.584 107.493C212.079 107.493 212.578 107.339 213.082 107.031L213.768 108.277C213.413 108.52 213.017 108.711 212.578 108.851C212.149 108.991 211.724 109.061 211.304 109.061ZM209.764 104.665H212.27C212.27 104.273 212.181 103.956 212.004 103.713C211.827 103.471 211.528 103.349 211.108 103.349C210.781 103.349 210.492 103.457 210.24 103.671C209.997 103.886 209.839 104.217 209.764 104.665Z" fill="white"/>
                    <path id="Deployment &#38; Monitoring" d="M98.3047 234.974V225.846H100.881C101.581 225.846 102.211 225.935 102.771 226.112C103.331 226.29 103.811 226.565 104.213 226.938C104.614 227.302 104.922 227.769 105.137 228.338C105.351 228.908 105.459 229.584 105.459 230.368C105.459 231.152 105.351 231.834 105.137 232.412C104.922 232.991 104.619 233.472 104.227 233.854C103.835 234.228 103.363 234.508 102.813 234.694C102.271 234.881 101.665 234.974 100.993 234.974H98.3047ZM100.363 233.308H100.755C101.147 233.308 101.501 233.257 101.819 233.154C102.136 233.052 102.407 232.888 102.631 232.664C102.855 232.431 103.027 232.128 103.149 231.754C103.279 231.381 103.345 230.919 103.345 230.368C103.345 229.827 103.279 229.374 103.149 229.01C103.027 228.637 102.855 228.343 102.631 228.128C102.407 227.904 102.136 227.746 101.819 227.652C101.501 227.559 101.147 227.512 100.755 227.512H100.363V233.308ZM110.131 235.142C109.637 235.142 109.175 235.063 108.745 234.904C108.316 234.736 107.943 234.498 107.625 234.19C107.308 233.873 107.061 233.49 106.883 233.042C106.706 232.594 106.617 232.081 106.617 231.502C106.617 230.942 106.711 230.438 106.897 229.99C107.084 229.533 107.327 229.15 107.625 228.842C107.933 228.525 108.283 228.282 108.675 228.114C109.067 227.946 109.473 227.862 109.893 227.862C110.388 227.862 110.817 227.946 111.181 228.114C111.555 228.282 111.863 228.516 112.105 228.814C112.357 229.113 112.544 229.468 112.665 229.878C112.787 230.28 112.847 230.718 112.847 231.194C112.847 231.381 112.838 231.558 112.819 231.726C112.801 231.894 112.782 232.02 112.763 232.104H108.605C108.699 232.608 108.904 232.982 109.221 233.224C109.548 233.458 109.945 233.574 110.411 233.574C110.906 233.574 111.405 233.42 111.909 233.112L112.595 234.358C112.241 234.601 111.844 234.792 111.405 234.932C110.976 235.072 110.551 235.142 110.131 235.142ZM108.591 230.746H111.097C111.097 230.354 111.009 230.037 110.831 229.794C110.654 229.552 110.355 229.43 109.935 229.43C109.609 229.43 109.319 229.538 109.067 229.752C108.825 229.967 108.666 230.298 108.591 230.746ZM114.269 237.55V228.03H115.949L116.089 228.716H116.145C116.416 228.474 116.719 228.273 117.055 228.114C117.401 227.946 117.755 227.862 118.119 227.862C118.539 227.862 118.917 227.946 119.253 228.114C119.589 228.282 119.874 228.52 120.107 228.828C120.341 229.136 120.518 229.51 120.639 229.948C120.77 230.378 120.835 230.858 120.835 231.39C120.835 231.988 120.751 232.52 120.583 232.986C120.425 233.444 120.205 233.836 119.925 234.162C119.655 234.48 119.342 234.722 118.987 234.89C118.642 235.058 118.283 235.142 117.909 235.142C117.611 235.142 117.321 235.082 117.041 234.96C116.761 234.83 116.5 234.648 116.257 234.414L116.327 235.52V237.55H114.269ZM117.433 233.462C117.788 233.462 118.091 233.304 118.343 232.986C118.595 232.66 118.721 232.137 118.721 231.418C118.721 230.168 118.32 229.542 117.517 229.542C117.116 229.542 116.719 229.752 116.327 230.172V233.014C116.514 233.182 116.701 233.299 116.887 233.364C117.074 233.43 117.256 233.462 117.433 233.462ZM124.185 235.142C123.83 235.142 123.532 235.086 123.289 234.974C123.046 234.862 122.85 234.708 122.701 234.512C122.561 234.307 122.458 234.064 122.393 233.784C122.328 233.495 122.295 233.173 122.295 232.818V225.16H124.353V232.902C124.353 233.117 124.39 233.266 124.465 233.35C124.549 233.434 124.633 233.476 124.717 233.476C124.764 233.476 124.801 233.476 124.829 233.476C124.866 233.476 124.913 233.467 124.969 233.448L125.221 234.974C125.109 235.021 124.964 235.058 124.787 235.086C124.619 235.124 124.418 235.142 124.185 235.142ZM129.283 235.142C128.844 235.142 128.419 235.063 128.009 234.904C127.598 234.736 127.234 234.498 126.917 234.19C126.609 233.882 126.361 233.504 126.175 233.056C125.988 232.599 125.895 232.081 125.895 231.502C125.895 230.924 125.988 230.41 126.175 229.962C126.361 229.505 126.609 229.122 126.917 228.814C127.234 228.506 127.598 228.273 128.009 228.114C128.419 227.946 128.844 227.862 129.283 227.862C129.721 227.862 130.141 227.946 130.543 228.114C130.953 228.273 131.313 228.506 131.621 228.814C131.938 229.122 132.19 229.505 132.377 229.962C132.563 230.41 132.657 230.924 132.657 231.502C132.657 232.081 132.563 232.599 132.377 233.056C132.19 233.504 131.938 233.882 131.621 234.19C131.313 234.498 130.953 234.736 130.543 234.904C130.141 235.063 129.721 235.142 129.283 235.142ZM129.283 233.476C129.703 233.476 130.02 233.299 130.235 232.944C130.449 232.59 130.557 232.109 130.557 231.502C130.557 230.896 130.449 230.415 130.235 230.06C130.02 229.706 129.703 229.528 129.283 229.528C128.853 229.528 128.531 229.706 128.317 230.06C128.111 230.415 128.009 230.896 128.009 231.502C128.009 232.109 128.111 232.59 128.317 232.944C128.531 233.299 128.853 233.476 129.283 233.476ZM134.727 237.69C134.512 237.69 134.33 237.676 134.181 237.648C134.032 237.63 133.887 237.597 133.747 237.55L134.111 235.982C134.176 236.001 134.251 236.02 134.335 236.038C134.419 236.057 134.498 236.066 134.573 236.066C134.918 236.066 135.184 235.982 135.371 235.814C135.558 235.646 135.698 235.427 135.791 235.156L135.889 234.792L133.215 228.03H135.287L136.281 231.012C136.384 231.33 136.477 231.652 136.561 231.978C136.645 232.305 136.734 232.641 136.827 232.986H136.883C136.958 232.66 137.032 232.333 137.107 232.006C137.191 231.67 137.275 231.339 137.359 231.012L138.199 228.03H140.173L137.765 235.044C137.597 235.483 137.42 235.866 137.233 236.192C137.056 236.528 136.846 236.804 136.603 237.018C136.37 237.242 136.099 237.41 135.791 237.522C135.492 237.634 135.138 237.69 134.727 237.69ZM141.258 234.974V228.03H142.938L143.078 228.926H143.134C143.423 228.637 143.731 228.39 144.058 228.184C144.384 227.97 144.776 227.862 145.234 227.862C145.728 227.862 146.125 227.965 146.424 228.17C146.732 228.366 146.974 228.651 147.152 229.024C147.46 228.707 147.782 228.436 148.118 228.212C148.463 227.979 148.869 227.862 149.336 227.862C150.082 227.862 150.628 228.114 150.974 228.618C151.328 229.113 151.506 229.794 151.506 230.662V234.974H149.448V230.928C149.448 230.424 149.378 230.079 149.238 229.892C149.107 229.706 148.892 229.612 148.594 229.612C148.248 229.612 147.852 229.836 147.404 230.284V234.974H145.346V230.928C145.346 230.424 145.276 230.079 145.136 229.892C145.005 229.706 144.79 229.612 144.492 229.612C144.137 229.612 143.745 229.836 143.316 230.284V234.974H141.258ZM156.37 235.142C155.875 235.142 155.413 235.063 154.984 234.904C154.554 234.736 154.181 234.498 153.864 234.19C153.546 233.873 153.299 233.49 153.122 233.042C152.944 232.594 152.856 232.081 152.856 231.502C152.856 230.942 152.949 230.438 153.136 229.99C153.322 229.533 153.565 229.15 153.864 228.842C154.172 228.525 154.522 228.282 154.914 228.114C155.306 227.946 155.712 227.862 156.132 227.862C156.626 227.862 157.056 227.946 157.42 228.114C157.793 228.282 158.101 228.516 158.344 228.814C158.596 229.113 158.782 229.468 158.904 229.878C159.025 230.28 159.086 230.718 159.086 231.194C159.086 231.381 159.076 231.558 159.058 231.726C159.039 231.894 159.02 232.02 159.002 232.104H154.844C154.937 232.608 155.142 232.982 155.46 233.224C155.786 233.458 156.183 233.574 156.65 233.574C157.144 233.574 157.644 233.42 158.148 233.112L158.834 234.358C158.479 234.601 158.082 234.792 157.644 234.932C157.214 235.072 156.79 235.142 156.37 235.142ZM154.83 230.746H157.336C157.336 230.354 157.247 230.037 157.07 229.794C156.892 229.552 156.594 229.43 156.174 229.43C155.847 229.43 155.558 229.538 155.306 229.752C155.063 229.967 154.904 230.298 154.83 230.746ZM160.508 234.974V228.03H162.188L162.328 228.912H162.384C162.682 228.632 163.009 228.39 163.364 228.184C163.718 227.97 164.134 227.862 164.61 227.862C165.366 227.862 165.912 228.11 166.248 228.604C166.593 229.099 166.766 229.785 166.766 230.662V234.974H164.708V230.928C164.708 230.424 164.638 230.079 164.498 229.892C164.367 229.706 164.152 229.612 163.854 229.612C163.592 229.612 163.368 229.673 163.182 229.794C162.995 229.906 162.79 230.07 162.566 230.284V234.974H160.508ZM171.193 235.142C170.764 235.142 170.395 235.077 170.087 234.946C169.789 234.816 169.541 234.634 169.345 234.4C169.159 234.167 169.019 233.887 168.925 233.56C168.841 233.224 168.799 232.856 168.799 232.454V229.64H167.847V228.114L168.911 228.03L169.149 226.182H170.857V228.03H172.523V229.64H170.857V232.426C170.857 232.818 170.937 233.103 171.095 233.28C171.263 233.448 171.483 233.532 171.753 233.532C171.865 233.532 171.977 233.518 172.089 233.49C172.211 233.462 172.318 233.43 172.411 233.392L172.733 234.89C172.547 234.946 172.327 235.002 172.075 235.058C171.823 235.114 171.529 235.142 171.193 235.142ZM179.16 235.142C178.665 235.142 178.226 235.072 177.844 234.932C177.47 234.792 177.153 234.606 176.892 234.372C176.64 234.13 176.448 233.854 176.318 233.546C176.187 233.229 176.122 232.893 176.122 232.538C176.122 232.221 176.164 231.936 176.248 231.684C176.341 231.423 176.462 231.19 176.612 230.984C176.77 230.779 176.948 230.592 177.144 230.424C177.349 230.256 177.564 230.102 177.788 229.962C177.61 229.636 177.47 229.314 177.368 228.996C177.274 228.67 177.228 228.362 177.228 228.072C177.228 227.746 177.284 227.438 177.396 227.148C177.517 226.859 177.685 226.607 177.9 226.392C178.114 226.168 178.371 225.996 178.67 225.874C178.978 225.744 179.323 225.678 179.706 225.678C180.396 225.678 180.942 225.865 181.344 226.238C181.745 226.612 181.946 227.116 181.946 227.75C181.946 228.049 181.89 228.324 181.778 228.576C181.675 228.819 181.53 229.048 181.344 229.262C181.166 229.468 180.961 229.659 180.728 229.836C180.504 230.014 180.275 230.182 180.042 230.34C180.303 230.639 180.588 230.933 180.896 231.222C181.213 231.502 181.54 231.764 181.876 232.006C182.109 231.708 182.314 231.376 182.492 231.012C182.669 230.648 182.814 230.252 182.926 229.822H184.802C184.634 230.382 184.424 230.919 184.172 231.432C183.929 231.936 183.63 232.426 183.276 232.902C183.565 233.052 183.84 233.178 184.102 233.28C184.372 233.374 184.624 233.439 184.858 233.476L184.368 235.142C183.985 235.068 183.598 234.951 183.206 234.792C182.814 234.634 182.422 234.442 182.03 234.218C181.638 234.508 181.204 234.736 180.728 234.904C180.261 235.063 179.738 235.142 179.16 235.142ZM178.922 228.058C178.922 228.226 178.945 228.404 178.992 228.59C179.048 228.777 179.122 228.964 179.216 229.15C179.542 228.954 179.818 228.749 180.042 228.534C180.266 228.32 180.378 228.058 180.378 227.75C180.378 227.536 180.326 227.363 180.224 227.232C180.121 227.102 179.962 227.036 179.748 227.036C179.514 227.036 179.318 227.13 179.16 227.316C179.001 227.494 178.922 227.741 178.922 228.058ZM179.426 233.574C179.808 233.574 180.191 233.453 180.574 233.21C180.219 232.921 179.883 232.618 179.566 232.3C179.248 231.983 178.954 231.656 178.684 231.32C178.497 231.479 178.348 231.647 178.236 231.824C178.124 232.002 178.068 232.198 178.068 232.412C178.068 232.758 178.189 233.038 178.432 233.252C178.684 233.467 179.015 233.574 179.426 233.574ZM188.99 234.974V225.846H191.244L192.714 229.906C192.808 230.177 192.896 230.457 192.98 230.746C193.064 231.026 193.153 231.306 193.246 231.586H193.302C193.396 231.306 193.48 231.026 193.554 230.746C193.638 230.457 193.727 230.177 193.82 229.906L195.262 225.846H197.502V234.974H195.626V231.628C195.626 231.404 195.636 231.157 195.654 230.886C195.673 230.616 195.696 230.345 195.724 230.074C195.752 229.794 195.78 229.524 195.808 229.262C195.836 228.992 195.864 228.744 195.892 228.52H195.836L195.094 230.69L193.792 234.176H192.658L191.356 230.69L190.628 228.52H190.572C190.6 228.744 190.628 228.992 190.656 229.262C190.684 229.524 190.712 229.794 190.74 230.074C190.768 230.345 190.792 230.616 190.81 230.886C190.829 231.157 190.838 231.404 190.838 231.628V234.974H188.99ZM202.468 235.142C202.03 235.142 201.605 235.063 201.194 234.904C200.784 234.736 200.42 234.498 200.102 234.19C199.794 233.882 199.547 233.504 199.36 233.056C199.174 232.599 199.08 232.081 199.08 231.502C199.08 230.924 199.174 230.41 199.36 229.962C199.547 229.505 199.794 229.122 200.102 228.814C200.42 228.506 200.784 228.273 201.194 228.114C201.605 227.946 202.03 227.862 202.468 227.862C202.907 227.862 203.327 227.946 203.728 228.114C204.139 228.273 204.498 228.506 204.806 228.814C205.124 229.122 205.376 229.505 205.562 229.962C205.749 230.41 205.842 230.924 205.842 231.502C205.842 232.081 205.749 232.599 205.562 233.056C205.376 233.504 205.124 233.882 204.806 234.19C204.498 234.498 204.139 234.736 203.728 234.904C203.327 235.063 202.907 235.142 202.468 235.142ZM202.468 233.476C202.888 233.476 203.206 233.299 203.42 232.944C203.635 232.59 203.742 232.109 203.742 231.502C203.742 230.896 203.635 230.415 203.42 230.06C203.206 229.706 202.888 229.528 202.468 229.528C202.039 229.528 201.717 229.706 201.502 230.06C201.297 230.415 201.194 230.896 201.194 231.502C201.194 232.109 201.297 232.59 201.502 232.944C201.717 233.299 202.039 233.476 202.468 233.476ZM207.252 234.974V228.03H208.932L209.072 228.912H209.128C209.427 228.632 209.753 228.39 210.108 228.184C210.463 227.97 210.878 227.862 211.354 227.862C212.11 227.862 212.656 228.11 212.992 228.604C213.337 229.099 213.51 229.785 213.51 230.662V234.974H211.452V230.928C211.452 230.424 211.382 230.079 211.242 229.892C211.111 229.706 210.897 229.612 210.598 229.612C210.337 229.612 210.113 229.673 209.926 229.794C209.739 229.906 209.534 230.07 209.31 230.284V234.974H207.252ZM215.264 234.974V228.03H217.322V234.974H215.264ZM216.286 227.008C215.94 227.008 215.656 226.91 215.432 226.714C215.208 226.509 215.096 226.248 215.096 225.93C215.096 225.613 215.208 225.356 215.432 225.16C215.656 224.964 215.94 224.866 216.286 224.866C216.64 224.866 216.925 224.964 217.14 225.16C217.364 225.356 217.476 225.613 217.476 225.93C217.476 226.248 217.364 226.509 217.14 226.714C216.925 226.91 216.64 227.008 216.286 227.008ZM221.807 235.142C221.377 235.142 221.009 235.077 220.701 234.946C220.402 234.816 220.155 234.634 219.959 234.4C219.772 234.167 219.632 233.887 219.539 233.56C219.455 233.224 219.413 232.856 219.413 232.454V229.64H218.461V228.114L219.525 228.03L219.763 226.182H221.471V228.03H223.137V229.64H221.471V232.426C221.471 232.818 221.55 233.103 221.709 233.28C221.877 233.448 222.096 233.532 222.367 233.532C222.479 233.532 222.591 233.518 222.703 233.49C222.824 233.462 222.931 233.43 223.025 233.392L223.347 234.89C223.16 234.946 222.941 235.002 222.689 235.058C222.437 235.114 222.143 235.142 221.807 235.142ZM227.228 235.142C226.789 235.142 226.365 235.063 225.954 234.904C225.543 234.736 225.179 234.498 224.862 234.19C224.554 233.882 224.307 233.504 224.12 233.056C223.933 232.599 223.84 232.081 223.84 231.502C223.84 230.924 223.933 230.41 224.12 229.962C224.307 229.505 224.554 229.122 224.862 228.814C225.179 228.506 225.543 228.273 225.954 228.114C226.365 227.946 226.789 227.862 227.228 227.862C227.667 227.862 228.087 227.946 228.488 228.114C228.899 228.273 229.258 228.506 229.566 228.814C229.883 229.122 230.135 229.505 230.322 229.962C230.509 230.41 230.602 230.924 230.602 231.502C230.602 232.081 230.509 232.599 230.322 233.056C230.135 233.504 229.883 233.882 229.566 234.19C229.258 234.498 228.899 234.736 228.488 234.904C228.087 235.063 227.667 235.142 227.228 235.142ZM227.228 233.476C227.648 233.476 227.965 233.299 228.18 232.944C228.395 232.59 228.502 232.109 228.502 231.502C228.502 230.896 228.395 230.415 228.18 230.06C227.965 229.706 227.648 229.528 227.228 229.528C226.799 229.528 226.477 229.706 226.262 230.06C226.057 230.415 225.954 230.896 225.954 231.502C225.954 232.109 226.057 232.59 226.262 232.944C226.477 233.299 226.799 233.476 227.228 233.476ZM232.012 234.974V228.03H233.692L233.832 229.248H233.888C234.14 228.772 234.443 228.422 234.798 228.198C235.152 227.974 235.507 227.862 235.862 227.862C236.058 227.862 236.216 227.876 236.338 227.904C236.468 227.923 236.585 227.956 236.688 228.002L236.352 229.78C236.221 229.743 236.1 229.715 235.988 229.696C235.876 229.678 235.745 229.668 235.596 229.668C235.334 229.668 235.059 229.762 234.77 229.948C234.49 230.135 234.256 230.466 234.07 230.942V234.974H232.012ZM237.59 234.974V228.03H239.648V234.974H237.59ZM238.612 227.008C238.266 227.008 237.982 226.91 237.758 226.714C237.534 226.509 237.422 226.248 237.422 225.93C237.422 225.613 237.534 225.356 237.758 225.16C237.982 224.964 238.266 224.866 238.612 224.866C238.966 224.866 239.251 224.964 239.466 225.16C239.69 225.356 239.802 225.613 239.802 225.93C239.802 226.248 239.69 226.509 239.466 226.714C239.251 226.91 238.966 227.008 238.612 227.008ZM241.459 234.974V228.03H243.139L243.279 228.912H243.335C243.634 228.632 243.96 228.39 244.315 228.184C244.67 227.97 245.085 227.862 245.561 227.862C246.317 227.862 246.863 228.11 247.199 228.604C247.544 229.099 247.717 229.785 247.717 230.662V234.974H245.659V230.928C245.659 230.424 245.589 230.079 245.449 229.892C245.318 229.706 245.104 229.612 244.805 229.612C244.544 229.612 244.32 229.673 244.133 229.794C243.946 229.906 243.741 230.07 243.517 230.284V234.974H241.459ZM251.949 237.928C251.538 237.928 251.155 237.891 250.801 237.816C250.455 237.751 250.147 237.648 249.877 237.508C249.615 237.368 249.41 237.186 249.261 236.962C249.111 236.738 249.037 236.472 249.037 236.164C249.037 235.604 249.368 235.138 250.031 234.764V234.708C249.844 234.587 249.69 234.433 249.569 234.246C249.447 234.06 249.387 233.822 249.387 233.532C249.387 233.28 249.461 233.042 249.611 232.818C249.76 232.585 249.947 232.389 250.171 232.23V232.174C249.928 232.006 249.709 231.768 249.513 231.46C249.326 231.143 249.233 230.779 249.233 230.368C249.233 229.948 249.312 229.584 249.471 229.276C249.629 228.959 249.839 228.698 250.101 228.492C250.371 228.278 250.679 228.119 251.025 228.016C251.37 227.914 251.729 227.862 252.103 227.862C252.513 227.862 252.873 227.918 253.181 228.03H255.715V229.528H254.609C254.674 229.631 254.725 229.762 254.763 229.92C254.809 230.079 254.833 230.252 254.833 230.438C254.833 230.84 254.763 231.19 254.623 231.488C254.483 231.778 254.287 232.02 254.035 232.216C253.792 232.403 253.503 232.543 253.167 232.636C252.84 232.73 252.485 232.776 252.103 232.776C251.832 232.776 251.552 232.73 251.263 232.636C251.169 232.711 251.104 232.786 251.067 232.86C251.029 232.935 251.011 233.033 251.011 233.154C251.011 233.332 251.085 233.462 251.235 233.546C251.393 233.63 251.669 233.672 252.061 233.672H253.181C254.039 233.672 254.693 233.812 255.141 234.092C255.598 234.363 255.827 234.811 255.827 235.436C255.827 235.8 255.733 236.132 255.547 236.43C255.369 236.738 255.113 237 254.777 237.214C254.441 237.438 254.035 237.611 253.559 237.732C253.083 237.863 252.546 237.928 251.949 237.928ZM252.103 231.53C252.373 231.53 252.597 231.437 252.775 231.25C252.961 231.054 253.055 230.76 253.055 230.368C253.055 230.004 252.961 229.729 252.775 229.542C252.597 229.346 252.373 229.248 252.103 229.248C251.832 229.248 251.603 229.342 251.417 229.528C251.239 229.715 251.151 229.995 251.151 230.368C251.151 230.76 251.239 231.054 251.417 231.25C251.603 231.437 251.832 231.53 252.103 231.53ZM252.271 236.64C252.737 236.64 253.12 236.556 253.419 236.388C253.717 236.23 253.867 236.029 253.867 235.786C253.867 235.572 253.773 235.427 253.587 235.352C253.409 235.278 253.148 235.24 252.803 235.24H252.089C251.846 235.24 251.65 235.231 251.501 235.212C251.351 235.203 251.221 235.184 251.109 235.156C250.857 235.38 250.731 235.609 250.731 235.842C250.731 236.104 250.871 236.3 251.151 236.43C251.431 236.57 251.804 236.64 252.271 236.64Z" fill="white"/>
                    <path id="API, Security, Routing, &#226;&#128;&#166;" d="M113.106 166.669L112.882 167.509H114.828L114.618 166.669C114.487 166.212 114.361 165.726 114.24 165.213C114.118 164.7 113.997 164.205 113.876 163.729H113.82C113.708 164.214 113.591 164.714 113.47 165.227C113.358 165.731 113.236 166.212 113.106 166.669ZM109.802 171.289L112.658 162.161H115.136L117.992 171.289H115.808L115.248 169.119H112.462L111.902 171.289H109.802ZM118.989 171.289V162.161H122.125C122.629 162.161 123.1 162.212 123.539 162.315C123.978 162.408 124.36 162.572 124.687 162.805C125.014 163.029 125.27 163.332 125.457 163.715C125.653 164.088 125.751 164.55 125.751 165.101C125.751 165.633 125.653 166.095 125.457 166.487C125.27 166.879 125.014 167.201 124.687 167.453C124.36 167.705 123.982 167.892 123.553 168.013C123.124 168.134 122.666 168.195 122.181 168.195H121.047V171.289H118.989ZM121.047 166.557H122.055C123.175 166.557 123.735 166.072 123.735 165.101C123.735 164.625 123.586 164.289 123.287 164.093C122.988 163.897 122.559 163.799 121.999 163.799H121.047V166.557ZM127.329 171.289V162.161H129.387V171.289H127.329ZM131.526 174.005L131.106 172.913C131.628 172.726 132.025 172.484 132.296 172.185C132.566 171.886 132.697 171.56 132.688 171.205H132.576C132.249 171.205 131.96 171.107 131.708 170.911C131.456 170.706 131.33 170.416 131.33 170.043C131.33 169.688 131.456 169.404 131.708 169.189C131.96 168.974 132.263 168.867 132.618 168.867C133.084 168.867 133.439 169.04 133.682 169.385C133.924 169.721 134.046 170.197 134.046 170.813C134.046 171.588 133.831 172.25 133.402 172.801C132.972 173.361 132.347 173.762 131.526 174.005ZM141.326 171.457C140.728 171.457 140.131 171.35 139.534 171.135C138.946 170.911 138.418 170.58 137.952 170.141L139.128 168.727C139.454 169.007 139.814 169.236 140.206 169.413C140.607 169.59 140.999 169.679 141.382 169.679C141.811 169.679 142.128 169.6 142.334 169.441C142.548 169.282 142.656 169.068 142.656 168.797C142.656 168.657 142.623 168.536 142.558 168.433C142.502 168.33 142.413 168.242 142.292 168.167C142.18 168.083 142.04 168.008 141.872 167.943C141.713 167.868 141.536 167.789 141.34 167.705L140.15 167.201C139.916 167.108 139.688 166.986 139.464 166.837C139.249 166.688 139.053 166.515 138.876 166.319C138.708 166.114 138.572 165.88 138.47 165.619C138.367 165.348 138.316 165.045 138.316 164.709C138.316 164.336 138.395 163.986 138.554 163.659C138.712 163.323 138.936 163.034 139.226 162.791C139.515 162.539 139.856 162.343 140.248 162.203C140.649 162.063 141.088 161.993 141.564 161.993C142.096 161.993 142.618 162.096 143.132 162.301C143.654 162.506 144.112 162.805 144.504 163.197L143.454 164.499C143.155 164.266 142.856 164.088 142.558 163.967C142.259 163.836 141.928 163.771 141.564 163.771C141.209 163.771 140.924 163.846 140.71 163.995C140.504 164.135 140.402 164.336 140.402 164.597C140.402 164.737 140.434 164.858 140.5 164.961C140.574 165.054 140.672 165.143 140.794 165.227C140.924 165.302 141.074 165.376 141.242 165.451C141.41 165.516 141.592 165.591 141.788 165.675L142.964 166.151C143.524 166.375 143.962 166.683 144.28 167.075C144.606 167.467 144.77 167.985 144.77 168.629C144.77 169.012 144.69 169.376 144.532 169.721C144.382 170.057 144.158 170.356 143.86 170.617C143.57 170.869 143.211 171.074 142.782 171.233C142.352 171.382 141.867 171.457 141.326 171.457ZM149.259 171.457C148.764 171.457 148.302 171.378 147.873 171.219C147.444 171.051 147.07 170.813 146.753 170.505C146.436 170.188 146.188 169.805 146.011 169.357C145.834 168.909 145.745 168.396 145.745 167.817C145.745 167.257 145.838 166.753 146.025 166.305C146.212 165.848 146.454 165.465 146.753 165.157C147.061 164.84 147.411 164.597 147.803 164.429C148.195 164.261 148.601 164.177 149.021 164.177C149.516 164.177 149.945 164.261 150.309 164.429C150.682 164.597 150.99 164.83 151.233 165.129C151.485 165.428 151.672 165.782 151.793 166.193C151.914 166.594 151.975 167.033 151.975 167.509C151.975 167.696 151.966 167.873 151.947 168.041C151.928 168.209 151.91 168.335 151.891 168.419H147.733C147.826 168.923 148.032 169.296 148.349 169.539C148.676 169.772 149.072 169.889 149.539 169.889C150.034 169.889 150.533 169.735 151.037 169.427L151.723 170.673C151.368 170.916 150.972 171.107 150.533 171.247C150.104 171.387 149.679 171.457 149.259 171.457ZM147.719 167.061H150.225C150.225 166.669 150.136 166.352 149.959 166.109C149.782 165.866 149.483 165.745 149.063 165.745C148.736 165.745 148.447 165.852 148.195 166.067C147.952 166.282 147.794 166.613 147.719 167.061ZM156.421 171.457C155.936 171.457 155.483 171.378 155.063 171.219C154.652 171.051 154.293 170.813 153.985 170.505C153.677 170.197 153.434 169.819 153.257 169.371C153.08 168.914 152.991 168.396 152.991 167.817C152.991 167.238 153.089 166.725 153.285 166.277C153.481 165.82 153.742 165.437 154.069 165.129C154.405 164.821 154.792 164.588 155.231 164.429C155.67 164.261 156.127 164.177 156.603 164.177C157.032 164.177 157.41 164.247 157.737 164.387C158.073 164.527 158.372 164.704 158.633 164.919L157.667 166.249C157.34 165.978 157.028 165.843 156.729 165.843C156.225 165.843 155.828 166.02 155.539 166.375C155.25 166.73 155.105 167.21 155.105 167.817C155.105 168.424 155.25 168.904 155.539 169.259C155.838 169.614 156.211 169.791 156.659 169.791C156.883 169.791 157.098 169.744 157.303 169.651C157.518 169.548 157.718 169.427 157.905 169.287L158.717 170.631C158.372 170.93 157.998 171.144 157.597 171.275C157.196 171.396 156.804 171.457 156.421 171.457ZM162.018 171.457C161.262 171.457 160.712 171.21 160.366 170.715C160.03 170.22 159.862 169.534 159.862 168.657V164.345H161.92V168.391C161.92 168.895 161.99 169.24 162.13 169.427C162.27 169.614 162.49 169.707 162.788 169.707C163.05 169.707 163.269 169.646 163.446 169.525C163.624 169.404 163.815 169.208 164.02 168.937V164.345H166.078V171.289H164.398L164.244 170.323H164.202C163.904 170.678 163.582 170.958 163.236 171.163C162.9 171.359 162.494 171.457 162.018 171.457ZM167.889 171.289V164.345H169.569L169.709 165.563H169.765C170.017 165.087 170.321 164.737 170.675 164.513C171.03 164.289 171.385 164.177 171.739 164.177C171.935 164.177 172.094 164.191 172.215 164.219C172.346 164.238 172.463 164.27 172.565 164.317L172.229 166.095C172.099 166.058 171.977 166.03 171.865 166.011C171.753 165.992 171.623 165.983 171.473 165.983C171.212 165.983 170.937 166.076 170.647 166.263C170.367 166.45 170.134 166.781 169.947 167.257V171.289H167.889ZM173.467 171.289V164.345H175.525V171.289H173.467ZM174.489 163.323C174.144 163.323 173.859 163.225 173.635 163.029C173.411 162.824 173.299 162.562 173.299 162.245C173.299 161.928 173.411 161.671 173.635 161.475C173.859 161.279 174.144 161.181 174.489 161.181C174.844 161.181 175.129 161.279 175.343 161.475C175.567 161.671 175.679 161.928 175.679 162.245C175.679 162.562 175.567 162.824 175.343 163.029C175.129 163.225 174.844 163.323 174.489 163.323ZM180.011 171.457C179.581 171.457 179.213 171.392 178.905 171.261C178.606 171.13 178.359 170.948 178.163 170.715C177.976 170.482 177.836 170.202 177.743 169.875C177.659 169.539 177.617 169.17 177.617 168.769V165.955H176.665V164.429L177.729 164.345L177.967 162.497H179.675V164.345H181.341V165.955H179.675V168.741C179.675 169.133 179.754 169.418 179.913 169.595C180.081 169.763 180.3 169.847 180.571 169.847C180.683 169.847 180.795 169.833 180.907 169.805C181.028 169.777 181.135 169.744 181.229 169.707L181.551 171.205C181.364 171.261 181.145 171.317 180.893 171.373C180.641 171.429 180.347 171.457 180.011 171.457ZM183.466 174.005C183.251 174.005 183.069 173.991 182.92 173.963C182.771 173.944 182.626 173.912 182.486 173.865L182.85 172.297C182.915 172.316 182.99 172.334 183.074 172.353C183.158 172.372 183.237 172.381 183.312 172.381C183.657 172.381 183.923 172.297 184.11 172.129C184.297 171.961 184.437 171.742 184.53 171.471L184.628 171.107L181.954 164.345H184.026L185.02 167.327C185.123 167.644 185.216 167.966 185.3 168.293C185.384 168.62 185.473 168.956 185.566 169.301H185.622C185.697 168.974 185.771 168.648 185.846 168.321C185.93 167.985 186.014 167.654 186.098 167.327L186.938 164.345H188.912L186.504 171.359C186.336 171.798 186.159 172.18 185.972 172.507C185.795 172.843 185.585 173.118 185.342 173.333C185.109 173.557 184.838 173.725 184.53 173.837C184.231 173.949 183.877 174.005 183.466 174.005ZM189.317 174.005L188.897 172.913C189.419 172.726 189.816 172.484 190.087 172.185C190.357 171.886 190.488 171.56 190.479 171.205H190.367C190.04 171.205 189.751 171.107 189.499 170.911C189.247 170.706 189.121 170.416 189.121 170.043C189.121 169.688 189.247 169.404 189.499 169.189C189.751 168.974 190.054 168.867 190.409 168.867C190.875 168.867 191.23 169.04 191.473 169.385C191.715 169.721 191.837 170.197 191.837 170.813C191.837 171.588 191.622 172.25 191.193 172.801C190.763 173.361 190.138 173.762 189.317 174.005ZM196.331 171.289V162.161H199.621C200.106 162.161 200.559 162.208 200.979 162.301C201.408 162.394 201.781 162.553 202.099 162.777C202.416 162.992 202.668 163.281 202.855 163.645C203.041 164.009 203.135 164.462 203.135 165.003C203.135 165.675 202.985 166.23 202.687 166.669C202.397 167.098 202.005 167.42 201.511 167.635L203.583 171.289H201.273L199.523 167.999H198.389V171.289H196.331ZM198.389 166.361H199.453C199.994 166.361 200.405 166.249 200.685 166.025C200.974 165.792 201.119 165.451 201.119 165.003C201.119 164.555 200.974 164.242 200.685 164.065C200.405 163.888 199.994 163.799 199.453 163.799H198.389V166.361ZM207.594 171.457C207.155 171.457 206.731 171.378 206.32 171.219C205.909 171.051 205.545 170.813 205.228 170.505C204.92 170.197 204.673 169.819 204.486 169.371C204.299 168.914 204.206 168.396 204.206 167.817C204.206 167.238 204.299 166.725 204.486 166.277C204.673 165.82 204.92 165.437 205.228 165.129C205.545 164.821 205.909 164.588 206.32 164.429C206.731 164.261 207.155 164.177 207.594 164.177C208.033 164.177 208.453 164.261 208.854 164.429C209.265 164.588 209.624 164.821 209.932 165.129C210.249 165.437 210.501 165.82 210.688 166.277C210.875 166.725 210.968 167.238 210.968 167.817C210.968 168.396 210.875 168.914 210.688 169.371C210.501 169.819 210.249 170.197 209.932 170.505C209.624 170.813 209.265 171.051 208.854 171.219C208.453 171.378 208.033 171.457 207.594 171.457ZM207.594 169.791C208.014 169.791 208.331 169.614 208.546 169.259C208.761 168.904 208.868 168.424 208.868 167.817C208.868 167.21 208.761 166.73 208.546 166.375C208.331 166.02 208.014 165.843 207.594 165.843C207.165 165.843 206.843 166.02 206.628 166.375C206.423 166.73 206.32 167.21 206.32 167.817C206.32 168.424 206.423 168.904 206.628 169.259C206.843 169.614 207.165 169.791 207.594 169.791ZM214.464 171.457C213.708 171.457 213.157 171.21 212.812 170.715C212.476 170.22 212.308 169.534 212.308 168.657V164.345H214.366V168.391C214.366 168.895 214.436 169.24 214.576 169.427C214.716 169.614 214.935 169.707 215.234 169.707C215.495 169.707 215.714 169.646 215.892 169.525C216.069 169.404 216.26 169.208 216.466 168.937V164.345H218.524V171.289H216.844L216.69 170.323H216.648C216.349 170.678 216.027 170.958 215.682 171.163C215.346 171.359 214.94 171.457 214.464 171.457ZM223.009 171.457C222.579 171.457 222.211 171.392 221.903 171.261C221.604 171.13 221.357 170.948 221.161 170.715C220.974 170.482 220.834 170.202 220.741 169.875C220.657 169.539 220.615 169.17 220.615 168.769V165.955H219.663V164.429L220.727 164.345L220.965 162.497H222.673V164.345H224.339V165.955H222.673V168.741C222.673 169.133 222.752 169.418 222.911 169.595C223.079 169.763 223.298 169.847 223.569 169.847C223.681 169.847 223.793 169.833 223.905 169.805C224.026 169.777 224.133 169.744 224.227 169.707L224.549 171.205C224.362 171.261 224.143 171.317 223.891 171.373C223.639 171.429 223.345 171.457 223.009 171.457ZM225.694 171.289V164.345H227.752V171.289H225.694ZM226.716 163.323C226.371 163.323 226.086 163.225 225.862 163.029C225.638 162.824 225.526 162.562 225.526 162.245C225.526 161.928 225.638 161.671 225.862 161.475C226.086 161.279 226.371 161.181 226.716 161.181C227.071 161.181 227.355 161.279 227.57 161.475C227.794 161.671 227.906 161.928 227.906 162.245C227.906 162.562 227.794 162.824 227.57 163.029C227.355 163.225 227.071 163.323 226.716 163.323ZM229.563 171.289V164.345H231.243L231.383 165.227H231.439C231.738 164.947 232.064 164.704 232.419 164.499C232.774 164.284 233.189 164.177 233.665 164.177C234.421 164.177 234.967 164.424 235.303 164.919C235.648 165.414 235.821 166.1 235.821 166.977V171.289H233.763V167.243C233.763 166.739 233.693 166.394 233.553 166.207C233.422 166.02 233.208 165.927 232.909 165.927C232.648 165.927 232.424 165.988 232.237 166.109C232.05 166.221 231.845 166.384 231.621 166.599V171.289H229.563ZM240.053 174.243C239.642 174.243 239.26 174.206 238.905 174.131C238.56 174.066 238.252 173.963 237.981 173.823C237.72 173.683 237.514 173.501 237.365 173.277C237.216 173.053 237.141 172.787 237.141 172.479C237.141 171.919 237.472 171.452 238.135 171.079V171.023C237.948 170.902 237.794 170.748 237.673 170.561C237.552 170.374 237.491 170.136 237.491 169.847C237.491 169.595 237.566 169.357 237.715 169.133C237.864 168.9 238.051 168.704 238.275 168.545V168.489C238.032 168.321 237.813 168.083 237.617 167.775C237.43 167.458 237.337 167.094 237.337 166.683C237.337 166.263 237.416 165.899 237.575 165.591C237.734 165.274 237.944 165.012 238.205 164.807C238.476 164.592 238.784 164.434 239.129 164.331C239.474 164.228 239.834 164.177 240.207 164.177C240.618 164.177 240.977 164.233 241.285 164.345H243.819V165.843H242.713C242.778 165.946 242.83 166.076 242.867 166.235C242.914 166.394 242.937 166.566 242.937 166.753C242.937 167.154 242.867 167.504 242.727 167.803C242.587 168.092 242.391 168.335 242.139 168.531C241.896 168.718 241.607 168.858 241.271 168.951C240.944 169.044 240.59 169.091 240.207 169.091C239.936 169.091 239.656 169.044 239.367 168.951C239.274 169.026 239.208 169.1 239.171 169.175C239.134 169.25 239.115 169.348 239.115 169.469C239.115 169.646 239.19 169.777 239.339 169.861C239.498 169.945 239.773 169.987 240.165 169.987H241.285C242.144 169.987 242.797 170.127 243.245 170.407C243.702 170.678 243.931 171.126 243.931 171.751C243.931 172.115 243.838 172.446 243.651 172.745C243.474 173.053 243.217 173.314 242.881 173.529C242.545 173.753 242.139 173.926 241.663 174.047C241.187 174.178 240.65 174.243 240.053 174.243ZM240.207 167.845C240.478 167.845 240.702 167.752 240.879 167.565C241.066 167.369 241.159 167.075 241.159 166.683C241.159 166.319 241.066 166.044 240.879 165.857C240.702 165.661 240.478 165.563 240.207 165.563C239.936 165.563 239.708 165.656 239.521 165.843C239.344 166.03 239.255 166.31 239.255 166.683C239.255 167.075 239.344 167.369 239.521 167.565C239.708 167.752 239.936 167.845 240.207 167.845ZM240.375 172.955C240.842 172.955 241.224 172.871 241.523 172.703C241.822 172.544 241.971 172.344 241.971 172.101C241.971 171.886 241.878 171.742 241.691 171.667C241.514 171.592 241.252 171.555 240.907 171.555H240.193C239.95 171.555 239.754 171.546 239.605 171.527C239.456 171.518 239.325 171.499 239.213 171.471C238.961 171.695 238.835 171.924 238.835 172.157C238.835 172.418 238.975 172.614 239.255 172.745C239.535 172.885 239.908 172.955 240.375 172.955ZM245.207 174.005L244.787 172.913C245.31 172.726 245.707 172.484 245.977 172.185C246.248 171.886 246.379 171.56 246.369 171.205H246.257C245.931 171.205 245.641 171.107 245.389 170.911C245.137 170.706 245.011 170.416 245.011 170.043C245.011 169.688 245.137 169.404 245.389 169.189C245.641 168.974 245.945 168.867 246.299 168.867C246.766 168.867 247.121 169.04 247.363 169.385C247.606 169.721 247.727 170.197 247.727 170.813C247.727 171.588 247.513 172.25 247.083 172.801C246.654 173.361 246.029 173.762 245.207 174.005ZM253.453 171.457C253.099 171.457 252.8 171.336 252.557 171.093C252.324 170.841 252.207 170.533 252.207 170.169C252.207 169.796 252.324 169.488 252.557 169.245C252.8 168.993 253.099 168.867 253.453 168.867C253.808 168.867 254.102 168.993 254.335 169.245C254.578 169.488 254.699 169.796 254.699 170.169C254.699 170.533 254.578 170.841 254.335 171.093C254.102 171.336 253.808 171.457 253.453 171.457ZM258.087 171.457C257.733 171.457 257.434 171.336 257.191 171.093C256.958 170.841 256.841 170.533 256.841 170.169C256.841 169.796 256.958 169.488 257.191 169.245C257.434 168.993 257.733 168.867 258.087 168.867C258.442 168.867 258.736 168.993 258.969 169.245C259.212 169.488 259.333 169.796 259.333 170.169C259.333 170.533 259.212 170.841 258.969 171.093C258.736 171.336 258.442 171.457 258.087 171.457ZM262.721 171.457C262.367 171.457 262.068 171.336 261.825 171.093C261.592 170.841 261.475 170.533 261.475 170.169C261.475 169.796 261.592 169.488 261.825 169.245C262.068 168.993 262.367 168.867 262.721 168.867C263.076 168.867 263.37 168.993 263.603 169.245C263.846 169.488 263.967 169.796 263.967 170.169C263.967 170.533 263.846 170.841 263.603 171.093C263.37 171.336 263.076 171.457 262.721 171.457Z" fill="white"/>
                    <path id="Infrastructure provider" d="M110.625 304.217V295.089H112.683V304.217H110.625ZM114.668 304.217V297.273H116.348L116.488 298.155H116.544C116.842 297.875 117.169 297.632 117.524 297.427C117.878 297.212 118.294 297.105 118.77 297.105C119.526 297.105 120.072 297.352 120.408 297.847C120.753 298.342 120.926 299.028 120.926 299.905V304.217H118.868V300.171C118.868 299.667 118.798 299.322 118.658 299.135C118.527 298.948 118.312 298.855 118.014 298.855C117.752 298.855 117.528 298.916 117.342 299.037C117.155 299.149 116.95 299.312 116.726 299.527V304.217H114.668ZM123.029 304.217V298.883H122.105V297.357L123.029 297.287V296.909C123.029 296.545 123.071 296.2 123.155 295.873C123.249 295.546 123.398 295.262 123.603 295.019C123.809 294.776 124.075 294.585 124.401 294.445C124.728 294.305 125.125 294.235 125.591 294.235C125.881 294.235 126.142 294.263 126.375 294.319C126.618 294.375 126.819 294.431 126.977 294.487L126.599 295.999C126.338 295.906 126.1 295.859 125.885 295.859C125.633 295.859 125.437 295.938 125.297 296.097C125.157 296.246 125.087 296.498 125.087 296.853V297.273H126.333V298.883H125.087V304.217H123.029ZM127.451 304.217V297.273H129.131L129.271 298.491H129.327C129.579 298.015 129.882 297.665 130.237 297.441C130.591 297.217 130.946 297.105 131.301 297.105C131.497 297.105 131.655 297.119 131.777 297.147C131.907 297.166 132.024 297.198 132.127 297.245L131.791 299.023C131.66 298.986 131.539 298.958 131.427 298.939C131.315 298.92 131.184 298.911 131.035 298.911C130.773 298.911 130.498 299.004 130.209 299.191C129.929 299.378 129.695 299.709 129.509 300.185V304.217H127.451ZM134.382 304.385C134.065 304.385 133.776 304.329 133.514 304.217C133.262 304.114 133.048 303.97 132.87 303.783C132.693 303.587 132.553 303.363 132.45 303.111C132.357 302.859 132.31 302.584 132.31 302.285C132.31 301.557 132.618 300.988 133.234 300.577C133.85 300.166 134.844 299.891 136.216 299.751C136.198 299.443 136.104 299.2 135.936 299.023C135.778 298.836 135.507 298.743 135.124 298.743C134.826 298.743 134.527 298.799 134.228 298.911C133.939 299.023 133.626 299.177 133.29 299.373L132.548 298.015C132.996 297.744 133.463 297.525 133.948 297.357C134.443 297.189 134.966 297.105 135.516 297.105C136.412 297.105 137.094 297.362 137.56 297.875C138.036 298.379 138.274 299.168 138.274 300.241V304.217H136.594L136.454 303.503H136.398C136.1 303.764 135.787 303.979 135.46 304.147C135.134 304.306 134.774 304.385 134.382 304.385ZM135.082 302.789C135.316 302.789 135.516 302.738 135.684 302.635C135.852 302.532 136.03 302.388 136.216 302.201V300.983C135.488 301.086 134.984 301.235 134.704 301.431C134.424 301.627 134.284 301.86 134.284 302.131C134.284 302.355 134.354 302.523 134.494 302.635C134.644 302.738 134.84 302.789 135.082 302.789ZM142.059 304.385C141.602 304.385 141.131 304.296 140.645 304.119C140.169 303.942 139.754 303.708 139.399 303.419L140.323 302.131C140.641 302.374 140.944 302.556 141.233 302.677C141.523 302.798 141.817 302.859 142.115 302.859C142.423 302.859 142.647 302.808 142.787 302.705C142.927 302.602 142.997 302.458 142.997 302.271C142.997 302.159 142.955 302.061 142.871 301.977C142.797 301.884 142.689 301.8 142.549 301.725C142.419 301.65 142.269 301.585 142.101 301.529C141.933 301.464 141.761 301.394 141.583 301.319C141.369 301.235 141.154 301.137 140.939 301.025C140.725 300.913 140.529 300.778 140.351 300.619C140.174 300.451 140.029 300.26 139.917 300.045C139.805 299.821 139.749 299.564 139.749 299.275C139.749 298.958 139.81 298.664 139.931 298.393C140.062 298.122 140.244 297.894 140.477 297.707C140.711 297.52 140.991 297.376 141.317 297.273C141.644 297.161 142.008 297.105 142.409 297.105C142.941 297.105 143.408 297.198 143.809 297.385C144.211 297.562 144.561 297.763 144.859 297.987L143.935 299.219C143.683 299.032 143.436 298.888 143.193 298.785C142.951 298.682 142.708 298.631 142.465 298.631C141.943 298.631 141.681 298.813 141.681 299.177C141.681 299.289 141.719 299.387 141.793 299.471C141.868 299.546 141.966 299.616 142.087 299.681C142.218 299.746 142.363 299.812 142.521 299.877C142.689 299.933 142.862 299.994 143.039 300.059C143.263 300.143 143.483 300.241 143.697 300.353C143.921 300.456 144.122 300.586 144.299 300.745C144.486 300.904 144.635 301.1 144.747 301.333C144.859 301.557 144.915 301.828 144.915 302.145C144.915 302.462 144.855 302.756 144.733 303.027C144.612 303.298 144.43 303.536 144.187 303.741C143.945 303.937 143.646 304.096 143.291 304.217C142.937 304.329 142.526 304.385 142.059 304.385ZM148.623 304.385C148.194 304.385 147.825 304.32 147.517 304.189C147.218 304.058 146.971 303.876 146.775 303.643C146.588 303.41 146.448 303.13 146.355 302.803C146.271 302.467 146.229 302.098 146.229 301.697V298.883H145.277V297.357L146.341 297.273L146.579 295.425H148.287V297.273H149.953V298.883H148.287V301.669C148.287 302.061 148.366 302.346 148.525 302.523C148.693 302.691 148.912 302.775 149.183 302.775C149.295 302.775 149.407 302.761 149.519 302.733C149.64 302.705 149.748 302.672 149.841 302.635L150.163 304.133C149.976 304.189 149.757 304.245 149.505 304.301C149.253 304.357 148.959 304.385 148.623 304.385ZM151.308 304.217V297.273H152.988L153.128 298.491H153.184C153.436 298.015 153.74 297.665 154.094 297.441C154.449 297.217 154.804 297.105 155.158 297.105C155.354 297.105 155.513 297.119 155.634 297.147C155.765 297.166 155.882 297.198 155.984 297.245L155.648 299.023C155.518 298.986 155.396 298.958 155.284 298.939C155.172 298.92 155.042 298.911 154.892 298.911C154.631 298.911 154.356 299.004 154.066 299.191C153.786 299.378 153.553 299.709 153.366 300.185V304.217H151.308ZM158.972 304.385C158.216 304.385 157.666 304.138 157.32 303.643C156.984 303.148 156.816 302.462 156.816 301.585V297.273H158.874V301.319C158.874 301.823 158.944 302.168 159.084 302.355C159.224 302.542 159.444 302.635 159.742 302.635C160.004 302.635 160.223 302.574 160.4 302.453C160.578 302.332 160.769 302.136 160.974 301.865V297.273H163.032V304.217H161.352L161.198 303.251H161.156C160.858 303.606 160.536 303.886 160.19 304.091C159.854 304.287 159.448 304.385 158.972 304.385ZM167.867 304.385C167.382 304.385 166.929 304.306 166.509 304.147C166.099 303.979 165.739 303.741 165.431 303.433C165.123 303.125 164.881 302.747 164.703 302.299C164.526 301.842 164.437 301.324 164.437 300.745C164.437 300.166 164.535 299.653 164.731 299.205C164.927 298.748 165.189 298.365 165.515 298.057C165.851 297.749 166.239 297.516 166.677 297.357C167.116 297.189 167.573 297.105 168.049 297.105C168.479 297.105 168.857 297.175 169.183 297.315C169.519 297.455 169.818 297.632 170.079 297.847L169.113 299.177C168.787 298.906 168.474 298.771 168.175 298.771C167.671 298.771 167.275 298.948 166.985 299.303C166.696 299.658 166.551 300.138 166.551 300.745C166.551 301.352 166.696 301.832 166.985 302.187C167.284 302.542 167.657 302.719 168.105 302.719C168.329 302.719 168.544 302.672 168.749 302.579C168.964 302.476 169.165 302.355 169.351 302.215L170.163 303.559C169.818 303.858 169.445 304.072 169.043 304.203C168.642 304.324 168.25 304.385 167.867 304.385ZM173.916 304.385C173.486 304.385 173.118 304.32 172.81 304.189C172.511 304.058 172.264 303.876 172.068 303.643C171.881 303.41 171.741 303.13 171.648 302.803C171.564 302.467 171.522 302.098 171.522 301.697V298.883H170.57V297.357L171.634 297.273L171.872 295.425H173.58V297.273H175.246V298.883H173.58V301.669C173.58 302.061 173.659 302.346 173.818 302.523C173.986 302.691 174.205 302.775 174.476 302.775C174.588 302.775 174.7 302.761 174.812 302.733C174.933 302.705 175.04 302.672 175.134 302.635L175.456 304.133C175.269 304.189 175.05 304.245 174.798 304.301C174.546 304.357 174.252 304.385 173.916 304.385ZM178.687 304.385C177.931 304.385 177.381 304.138 177.035 303.643C176.699 303.148 176.531 302.462 176.531 301.585V297.273H178.589V301.319C178.589 301.823 178.659 302.168 178.799 302.355C178.939 302.542 179.159 302.635 179.457 302.635C179.719 302.635 179.938 302.574 180.115 302.453C180.293 302.332 180.484 302.136 180.689 301.865V297.273H182.747V304.217H181.067L180.913 303.251H180.871C180.573 303.606 180.251 303.886 179.905 304.091C179.569 304.287 179.163 304.385 178.687 304.385ZM184.558 304.217V297.273H186.238L186.378 298.491H186.434C186.686 298.015 186.99 297.665 187.344 297.441C187.699 297.217 188.054 297.105 188.408 297.105C188.604 297.105 188.763 297.119 188.884 297.147C189.015 297.166 189.132 297.198 189.234 297.245L188.898 299.023C188.768 298.986 188.646 298.958 188.534 298.939C188.422 298.92 188.292 298.911 188.142 298.911C187.881 298.911 187.606 299.004 187.316 299.191C187.036 299.378 186.803 299.709 186.616 300.185V304.217H184.558ZM193.108 304.385C192.613 304.385 192.151 304.306 191.722 304.147C191.292 303.979 190.919 303.741 190.602 303.433C190.284 303.116 190.037 302.733 189.86 302.285C189.682 301.837 189.594 301.324 189.594 300.745C189.594 300.185 189.687 299.681 189.874 299.233C190.06 298.776 190.303 298.393 190.602 298.085C190.91 297.768 191.26 297.525 191.652 297.357C192.044 297.189 192.45 297.105 192.87 297.105C193.364 297.105 193.794 297.189 194.158 297.357C194.531 297.525 194.839 297.758 195.082 298.057C195.334 298.356 195.52 298.71 195.642 299.121C195.763 299.522 195.824 299.961 195.824 300.437C195.824 300.624 195.814 300.801 195.796 300.969C195.777 301.137 195.758 301.263 195.74 301.347H191.582C191.675 301.851 191.88 302.224 192.198 302.467C192.524 302.7 192.921 302.817 193.388 302.817C193.882 302.817 194.382 302.663 194.886 302.355L195.572 303.601C195.217 303.844 194.82 304.035 194.382 304.175C193.952 304.315 193.528 304.385 193.108 304.385ZM191.568 299.989H194.074C194.074 299.597 193.985 299.28 193.808 299.037C193.63 298.794 193.332 298.673 192.912 298.673C192.585 298.673 192.296 298.78 192.044 298.995C191.801 299.21 191.642 299.541 191.568 299.989ZM200.048 306.793V297.273H201.728L201.868 297.959H201.924C202.195 297.716 202.498 297.516 202.834 297.357C203.18 297.189 203.534 297.105 203.898 297.105C204.318 297.105 204.696 297.189 205.032 297.357C205.368 297.525 205.653 297.763 205.886 298.071C206.12 298.379 206.297 298.752 206.418 299.191C206.549 299.62 206.614 300.101 206.614 300.633C206.614 301.23 206.53 301.762 206.362 302.229C206.204 302.686 205.984 303.078 205.704 303.405C205.434 303.722 205.121 303.965 204.766 304.133C204.421 304.301 204.062 304.385 203.688 304.385C203.39 304.385 203.1 304.324 202.82 304.203C202.54 304.072 202.279 303.89 202.036 303.657L202.106 304.763V306.793H200.048ZM203.212 302.705C203.567 302.705 203.87 302.546 204.122 302.229C204.374 301.902 204.5 301.38 204.5 300.661C204.5 299.41 204.099 298.785 203.296 298.785C202.895 298.785 202.498 298.995 202.106 299.415V302.257C202.293 302.425 202.48 302.542 202.666 302.607C202.853 302.672 203.035 302.705 203.212 302.705ZM208.074 304.217V297.273H209.754L209.894 298.491H209.95C210.202 298.015 210.505 297.665 210.86 297.441C211.215 297.217 211.569 297.105 211.924 297.105C212.12 297.105 212.279 297.119 212.4 297.147C212.531 297.166 212.647 297.198 212.75 297.245L212.414 299.023C212.283 298.986 212.162 298.958 212.05 298.939C211.938 298.92 211.807 298.911 211.658 298.911C211.397 298.911 211.121 299.004 210.832 299.191C210.552 299.378 210.319 299.709 210.132 300.185V304.217H208.074ZM216.497 304.385C216.059 304.385 215.634 304.306 215.223 304.147C214.813 303.979 214.449 303.741 214.131 303.433C213.823 303.125 213.576 302.747 213.389 302.299C213.203 301.842 213.109 301.324 213.109 300.745C213.109 300.166 213.203 299.653 213.389 299.205C213.576 298.748 213.823 298.365 214.131 298.057C214.449 297.749 214.813 297.516 215.223 297.357C215.634 297.189 216.059 297.105 216.497 297.105C216.936 297.105 217.356 297.189 217.757 297.357C218.168 297.516 218.527 297.749 218.835 298.057C219.153 298.365 219.405 298.748 219.591 299.205C219.778 299.653 219.871 300.166 219.871 300.745C219.871 301.324 219.778 301.842 219.591 302.299C219.405 302.747 219.153 303.125 218.835 303.433C218.527 303.741 218.168 303.979 217.757 304.147C217.356 304.306 216.936 304.385 216.497 304.385ZM216.497 302.719C216.917 302.719 217.235 302.542 217.449 302.187C217.664 301.832 217.771 301.352 217.771 300.745C217.771 300.138 217.664 299.658 217.449 299.303C217.235 298.948 216.917 298.771 216.497 298.771C216.068 298.771 215.746 298.948 215.531 299.303C215.326 299.658 215.223 300.138 215.223 300.745C215.223 301.352 215.326 301.832 215.531 302.187C215.746 302.542 216.068 302.719 216.497 302.719ZM222.768 304.217L220.43 297.273H222.502L223.398 300.549C223.491 300.894 223.58 301.249 223.664 301.613C223.757 301.968 223.85 302.327 223.944 302.691H224C224.084 302.327 224.168 301.968 224.252 301.613C224.345 301.249 224.438 300.894 224.532 300.549L225.442 297.273H227.416L225.148 304.217H222.768ZM228.5 304.217V297.273H230.558V304.217H228.5ZM229.522 296.251C229.176 296.251 228.892 296.153 228.668 295.957C228.444 295.752 228.332 295.49 228.332 295.173C228.332 294.856 228.444 294.599 228.668 294.403C228.892 294.207 229.176 294.109 229.522 294.109C229.876 294.109 230.161 294.207 230.376 294.403C230.6 294.599 230.712 294.856 230.712 295.173C230.712 295.49 230.6 295.752 230.376 295.957C230.161 296.153 229.876 296.251 229.522 296.251ZM234.847 304.385C234.417 304.385 234.025 304.301 233.671 304.133C233.325 303.965 233.027 303.727 232.775 303.419C232.532 303.102 232.341 302.719 232.201 302.271C232.07 301.823 232.005 301.314 232.005 300.745C232.005 300.176 232.084 299.667 232.243 299.219C232.411 298.771 232.625 298.393 232.887 298.085C233.157 297.768 233.465 297.525 233.811 297.357C234.165 297.189 234.525 297.105 234.889 297.105C235.281 297.105 235.603 297.17 235.855 297.301C236.107 297.432 236.354 297.609 236.597 297.833L236.513 296.769V294.403H238.571V304.217H236.891L236.751 303.531H236.695C236.452 303.774 236.167 303.979 235.841 304.147C235.514 304.306 235.183 304.385 234.847 304.385ZM235.379 302.705C235.603 302.705 235.803 302.658 235.981 302.565C236.167 302.472 236.345 302.308 236.513 302.075V299.233C236.326 299.065 236.135 298.948 235.939 298.883C235.743 298.818 235.551 298.785 235.365 298.785C235.038 298.785 234.749 298.944 234.497 299.261C234.245 299.569 234.119 300.054 234.119 300.717C234.119 301.408 234.226 301.912 234.441 302.229C234.665 302.546 234.977 302.705 235.379 302.705ZM243.502 304.385C243.007 304.385 242.545 304.306 242.116 304.147C241.687 303.979 241.313 303.741 240.996 303.433C240.679 303.116 240.431 302.733 240.254 302.285C240.077 301.837 239.988 301.324 239.988 300.745C239.988 300.185 240.081 299.681 240.268 299.233C240.455 298.776 240.697 298.393 240.996 298.085C241.304 297.768 241.654 297.525 242.046 297.357C242.438 297.189 242.844 297.105 243.264 297.105C243.759 297.105 244.188 297.189 244.552 297.357C244.925 297.525 245.233 297.758 245.476 298.057C245.728 298.356 245.915 298.71 246.036 299.121C246.157 299.522 246.218 299.961 246.218 300.437C246.218 300.624 246.209 300.801 246.19 300.969C246.171 301.137 246.153 301.263 246.134 301.347H241.976C242.069 301.851 242.275 302.224 242.592 302.467C242.919 302.7 243.315 302.817 243.782 302.817C244.277 302.817 244.776 302.663 245.28 302.355L245.966 303.601C245.611 303.844 245.215 304.035 244.776 304.175C244.347 304.315 243.922 304.385 243.502 304.385ZM241.962 299.989H244.468C244.468 299.597 244.379 299.28 244.202 299.037C244.025 298.794 243.726 298.673 243.306 298.673C242.979 298.673 242.69 298.78 242.438 298.995C242.195 299.21 242.037 299.541 241.962 299.989ZM247.64 304.217V297.273H249.32L249.46 298.491H249.516C249.768 298.015 250.072 297.665 250.426 297.441C250.781 297.217 251.136 297.105 251.49 297.105C251.686 297.105 251.845 297.119 251.966 297.147C252.097 297.166 252.214 297.198 252.316 297.245L251.98 299.023C251.85 298.986 251.728 298.958 251.616 298.939C251.504 298.92 251.374 298.911 251.224 298.911C250.963 298.911 250.688 299.004 250.398 299.191C250.118 299.378 249.885 299.709 249.698 300.185V304.217H247.64Z" fill="white"/>
                </g>
            </g>
        </g>
    </g>
    <defs>
        <linearGradient id="paint0_linear" x1="339.462" y1="249.096" x2="360.086" y2="249.096" gradientUnits="userSpaceOnUse">
            <stop stop-color="#FF0000"/>
            <stop offset="1" stop-color="#FF6F00"/>
        </linearGradient>
    </defs>
</svg>
