<?xml version="1.0" encoding="UTF-8"?>
<svg width="20px" height="22px" viewBox="0 0 20 22" version="1.1" xmlns="http://www.w3.org/2000/svg" xmlns:xlink="http://www.w3.org/1999/xlink">
    <!-- Generator: Sketch 51.1 (57501) - http://www.bohemiancoding.com/sketch -->
    <title>Shape</title>
    <desc>Created with Sketch.</desc>
    <defs></defs>
    <g id="Webiny---Navigation" stroke="none" stroke-width="1" fill="none" fill-rule="evenodd">
        <g id="Navigation---Opened" transform="translate(-18.000000, -602.000000)" fill="#757575" fill-rule="nonzero">
            <g id="Docs" transform="translate(18.000000, 602.000000)">
                <g id="book-solid">
                    <path d="M20,15.46875 L20,1.03125 C20,0.459765625 19.5223214,0 18.9285714,0 L4.28571429,0 C1.91964286,0 0,1.84765625 0,4.125 L0,17.875 C0,20.1523438 1.91964286,22 4.28571429,22 L18.9285714,22 C19.5223214,22 20,21.5402344 20,20.96875 L20,20.28125 C20,19.9589844 19.84375,19.6667969 19.6026786,19.4777344 C19.4151786,18.8160156 19.4151786,16.9296875 19.6026786,16.2679688 C19.84375,16.0832031 20,15.7910156 20,15.46875 Z M5.71428571,5.7578125 C5.71428571,5.61601563 5.83482143,5.5 5.98214286,5.5 L15.4464286,5.5 C15.59375,5.5 15.7142857,5.61601563 15.7142857,5.7578125 L15.7142857,6.6171875 C15.7142857,6.75898438 15.59375,6.875 15.4464286,6.875 L5.98214286,6.875 C5.83482143,6.875 5.71428571,6.75898438 5.71428571,6.6171875 L5.71428571,5.7578125 Z M5.71428571,8.5078125 C5.71428571,8.36601563 5.83482143,8.25 5.98214286,8.25 L15.4464286,8.25 C15.59375,8.25 15.7142857,8.36601563 15.7142857,8.5078125 L15.7142857,9.3671875 C15.7142857,9.50898438 15.59375,9.625 15.4464286,9.625 L5.98214286,9.625 C5.83482143,9.625 5.71428571,9.50898438 5.71428571,9.3671875 L5.71428571,8.5078125 Z M17.0267857,19.25 L4.28571429,19.25 C3.49553571,19.25 2.85714286,18.6355469 2.85714286,17.875 C2.85714286,17.11875 3.5,16.5 4.28571429,16.5 L17.0267857,16.5 C16.9419643,17.2347656 16.9419643,18.5152344 17.0267857,19.25 Z" id="Shape"></path>
                </g>
            </g>
        </g>
    </g>
</svg>