<svg width="288" height="259" viewBox="0 0 288 259" fill="none" xmlns="http://www.w3.org/2000/svg">
    <path d="M141.816 107.487C143.384 106.594 145.316 106.594 146.884 107.487L163.457 116.927C165.026 117.821 165.992 119.472 165.992 121.258V140.138C165.992 141.925 165.026 143.576 163.457 144.469L146.884 153.91C145.316 154.803 143.384 154.803 141.816 153.91L125.243 144.469C123.674 143.576 122.707 141.925 122.707 140.138V121.258C122.707 119.472 123.674 117.821 125.243 116.927L141.816 107.487ZM138.819 133.173H138.455C137.187 129.659 135.918 126.144 134.692 122.752H130.044C132.304 129.136 134.508 135.361 136.712 141.586H140.548L144.346 131.053H144.73C145.998 134.585 147.263 138.121 148.506 141.577H152.351C154.564 135.327 156.768 129.099 159.019 122.735H154.367C153.124 126.195 151.872 129.663 150.62 133.135H150.223C148.976 129.655 147.724 126.178 146.477 122.706H142.585C141.321 126.216 140.07 129.693 138.819 133.173Z" fill="#FA5723"/>
    <path d="M210.243 181.991L149.399 216.624C143.641 219.901 136.547 219.901 130.788 216.624L69.9435 181.991C64.1853 178.713 60.6384 172.657 60.6384 166.102L60.6384 96.8361C60.6384 90.2812 64.1853 84.2241 69.9435 80.9472L130.788 46.3141C136.547 43.0362 143.641 43.0362 149.399 46.3141L210.243 80.9472C216.001 84.2241 219.548 90.2812 219.548 96.8361V166.102C219.548 172.657 216.001 178.713 210.243 181.991" stroke="#E3E5EB" stroke-width="1.41884" stroke-dasharray="2.84 2.84"/>
    <g filter="url(#filter0_d_1_1467)">
        <rect x="3.17554" y="59.4629" width="80.1742" height="63.5044" rx="3.61803" fill="white"/>
    </g>
    <circle cx="10.1963" cy="66.0632" r="1.58761" fill="#FA5723"/>
    <circle cx="15.3559" cy="66.0632" r="1.58761" fill="#FA5723"/>
    <circle cx="20.9126" cy="66.0632" r="1.58761" fill="#FA5723"/>
    <rect x="8.60864" y="71.6501" width="16.3875" height="47.1613" rx="0.709418" fill="#F0F1F3"/>
    <rect x="29.0931" y="71.6501" width="22.3052" height="21.0125" rx="0.709418" fill="#F0F1F3"/>
    <rect x="29.0931" y="96.3981" width="22.3052" height="22.4133" rx="0.709418" fill="#F0F1F3"/>
    <rect x="55.4951" y="71.6501" width="22.3052" height="21.0125" rx="0.709418" fill="#F0F1F3"/>
    <rect x="55.4951" y="96.3981" width="22.3052" height="22.4133" rx="0.709418" fill="#F0F1F3"/>
    <g filter="url(#filter1_d_1_1467)">
        <rect x="103.913" y="2" width="80.1742" height="63.5044" rx="3.61803" fill="white"/>
    </g>
    <circle cx="110.934" cy="8.60036" r="1.58761" fill="#FA5723"/>
    <circle cx="116.093" cy="8.60036" r="1.58761" fill="#FA5723"/>
    <circle cx="121.65" cy="8.60036" r="1.58761" fill="#FA5723"/>
    <rect x="109.588" y="14.0601" width="16.3166" height="12.7695" rx="0.709418" fill="#F0F1F3"/>
    <rect x="109.588" y="30.3767" width="16.3166" height="12.7695" rx="0.709418" fill="#F0F1F3"/>
    <rect x="109.588" y="46.6933" width="16.3166" height="12.7695" rx="0.709418" fill="#F0F1F3"/>
    <rect x="130.161" y="14.0601" width="23.4108" height="2.83767" rx="0.709418" fill="#F0F1F3"/>
    <rect x="130.161" y="30.3767" width="23.4108" height="2.83767" rx="0.709418" fill="#F0F1F3"/>
    <rect x="130.161" y="46.6933" width="23.4108" height="2.83767" rx="0.709418" fill="#F0F1F3"/>
    <rect x="130.161" y="19.026" width="46.8216" height="2.83767" rx="0.709418" fill="#F0F1F3"/>
    <rect x="130.161" y="35.3426" width="46.8216" height="2.83767" rx="0.709418" fill="#F0F1F3"/>
    <rect x="130.161" y="51.6593" width="46.8216" height="2.83767" rx="0.709418" fill="#F0F1F3"/>
    <rect x="130.161" y="23.992" width="46.8216" height="2.83767" rx="0.709418" fill="#F0F1F3"/>
    <rect x="130.161" y="40.3086" width="46.8216" height="2.83767" rx="0.709418" fill="#F0F1F3"/>
    <rect x="130.161" y="56.6252" width="46.8216" height="2.83767" rx="0.709418" fill="#F0F1F3"/>
    <g filter="url(#filter2_d_1_1467)">
        <rect x="103.913" y="187.158" width="84.7606" height="67.1371" rx="3.825" fill="white"/>
    </g>
    <circle cx="110.934" cy="193.758" r="1.58761" fill="#FA5723"/>
    <circle cx="116.093" cy="193.758" r="1.58761" fill="#FA5723"/>
    <circle cx="121.65" cy="193.758" r="1.58761" fill="#FA5723"/>
    <rect x="109.588" y="199.218" width="34.7615" height="26.9579" rx="0.709418" fill="#F0F1F3"/>
    <rect x="109.588" y="227.595" width="10.6413" height="8.51302" rx="0.709418" fill="#F0F1F3"/>
    <rect x="121.648" y="227.595" width="10.6413" height="8.51302" rx="0.709418" fill="#F0F1F3"/>
    <rect x="133.708" y="227.595" width="10.6413" height="8.51302" rx="0.709418" fill="#F0F1F3"/>
    <rect x="148.606" y="199.928" width="13.4789" height="2.83767" rx="0.709418" fill="#F0F1F3"/>
    <rect x="148.606" y="204.894" width="26.9579" height="1.41884" rx="0.709418" fill="#F0F1F3"/>
    <rect x="148.606" y="227.595" width="26.9579" height="1.41884" rx="0.709418" fill="#F0F1F3"/>
    <rect x="148.606" y="236.108" width="26.9579" height="1.41884" rx="0.709418" fill="#F0F1F3"/>
    <rect x="148.606" y="230.433" width="26.9579" height="1.41884" rx="0.709418" fill="#F0F1F3"/>
    <rect x="148.606" y="207.731" width="26.9579" height="1.41884" rx="0.709418" fill="#F0F1F3"/>
    <rect x="148.606" y="233.27" width="26.9579" height="1.41884" rx="0.709418" fill="#F0F1F3"/>
    <rect x="148.606" y="238.946" width="26.9579" height="1.41884" rx="0.709418" fill="#F0F1F3"/>
    <rect x="148.606" y="210.569" width="26.9579" height="1.41884" rx="0.709418" fill="#F0F1F3"/>
    <rect x="148.606" y="241.783" width="26.9579" height="1.41884" rx="0.709418" fill="#F0F1F3"/>
    <rect x="148.606" y="214.116" width="17.7354" height="4.96593" rx="0.709418" fill="#BEBEBE"/>
    <g filter="url(#filter3_d_1_1467)">
        <rect x="3.17554" y="148.85" width="80.1742" height="63.5044" rx="3.61803" fill="white"/>
    </g>
    <circle cx="10.1963" cy="155.45" r="1.58761" fill="#FA5723"/>
    <circle cx="15.3559" cy="155.45" r="1.58761" fill="#FA5723"/>
    <circle cx="20.9126" cy="155.45" r="1.58761" fill="#FA5723"/>
    <rect x="8.85089" y="168.713" width="17.7354" height="9.22243" rx="0.709418" fill="#F0F1F3"/>
    <rect x="33.6805" y="168.713" width="17.7354" height="9.22243" rx="0.709418" fill="#F0F1F3"/>
    <rect x="33.6805" y="187.158" width="17.7354" height="9.22243" rx="0.709418" fill="#F0F1F3"/>
    <rect x="58.5101" y="187.158" width="17.7354" height="9.22243" rx="0.709418" fill="#F0F1F3"/>
    <path d="M31.907 174.034L28.3599 171.986V176.082L31.907 174.034Z" fill="#BEBEBE"/>
    <path d="M42.3708 184.498L44.4188 180.951L40.3229 180.951L42.3708 184.498Z" fill="#BEBEBE"/>
    <path d="M56.7366 191.415L53.1895 189.367V193.463L56.7366 191.415Z" fill="#BEBEBE"/>
    <rect x="58.5101" y="199.928" width="17.7354" height="4.96593" rx="0.709418" fill="#BEBEBE"/>
    <g filter="url(#filter4_d_1_1467)">
        <rect x="204.65" y="63.0099" width="80.1742" height="63.5044" rx="3.61803" fill="white"/>
    </g>
    <circle cx="211.671" cy="69.6103" r="1.58761" fill="#FA5723"/>
    <circle cx="216.831" cy="69.6103" r="1.58761" fill="#FA5723"/>
    <circle cx="222.387" cy="69.6103" r="1.58761" fill="#FA5723"/>
    <rect x="225.369" y="81.6163" width="37.3184" height="4.6065" rx="0.709418" fill="#F0F1F3"/>
    <rect x="225.369" y="95.6116" width="37.3184" height="4.6065" rx="0.709418" fill="#F0F1F3"/>
    <rect x="225.369" y="88.4605" width="37.3184" height="4.9136" rx="0.709418" fill="#F0F1F3"/>
    <rect x="225.369" y="102.456" width="37.3184" height="4.9136" rx="0.709418" fill="#F0F1F3"/>
    <rect x="250.937" y="109.607" width="11.7504" height="4.9136" rx="0.709418" fill="#BEBEBE"/>
    <g filter="url(#filter5_d_1_1467)">
        <rect x="204.65" y="148.85" width="80.1742" height="63.5044" rx="3.61803" fill="white"/>
    </g>
    <circle cx="211.671" cy="155.45" r="1.58761" fill="#FA5723"/>
    <circle cx="216.831" cy="155.45" r="1.58761" fill="#FA5723"/>
    <circle cx="222.387" cy="155.45" r="1.58761" fill="#FA5723"/>
    <rect x="233.737" y="163.038" width="46.8216" height="11.3507" rx="1.41884" fill="#F0F1F3"/>
    <rect x="233.737" y="177.226" width="46.8216" height="11.3507" rx="1.41884" fill="#F0F1F3"/>
    <rect x="210.326" y="163.038" width="15.6072" height="4.25651" rx="0.709418" fill="#F0F1F3"/>
    <rect x="210.326" y="169.423" width="15.6072" height="4.25651" rx="0.709418" fill="#F0F1F3"/>
    <rect x="210.326" y="175.807" width="15.6072" height="4.25651" rx="0.709418" fill="#F0F1F3"/>
    <rect x="210.326" y="182.192" width="15.6072" height="4.25651" rx="0.709418" fill="#F0F1F3"/>
    <rect x="210.326" y="188.577" width="15.6072" height="4.25651" rx="0.709418" fill="#F0F1F3"/>
    <rect x="233.737" y="191.415" width="21.992" height="11.3507" rx="0.709418" fill="#F0F1F3"/>
    <rect x="258.566" y="191.415" width="21.992" height="11.3507" rx="1.41884" fill="#F0F1F3"/>
    <rect x="262.113" y="194.962" width="14.8978" height="4.96593" rx="0.709418" fill="#BEBEBE"/>
    <rect x="237.284" y="194.962" width="14.8978" height="4.96593" rx="0.709418" fill="#BEBEBE"/>
    <rect x="237.284" y="180.064" width="39.7274" height="5.67534" rx="0.709418" fill="#BEBEBE"/>
    <rect x="237.284" y="165.876" width="39.7274" height="5.67534" rx="0.709418" fill="#BEBEBE"/>
    <defs>
        <filter id="filter0_d_1_1467" x="0.337865" y="58.044" width="85.8496" height="69.1797" filterUnits="userSpaceOnUse" color-interpolation-filters="sRGB">
            <feFlood flood-opacity="0" result="BackgroundImageFix"/>
            <feColorMatrix in="SourceAlpha" type="matrix" values="0 0 0 0 0 0 0 0 0 0 0 0 0 0 0 0 0 0 127 0" result="hardAlpha"/>
            <feOffset dy="1.41884"/>
            <feGaussianBlur stdDeviation="1.41884"/>
            <feColorMatrix type="matrix" values="0 0 0 0 0 0 0 0 0 0 0 0 0 0 0 0 0 0 0.234839 0"/>
            <feBlend mode="normal" in2="BackgroundImageFix" result="effect1_dropShadow_1_1467"/>
            <feBlend mode="normal" in="SourceGraphic" in2="effect1_dropShadow_1_1467" result="shape"/>
        </filter>
        <filter id="filter1_d_1_1467" x="101.075" y="0.581164" width="85.8496" height="69.1797" filterUnits="userSpaceOnUse" color-interpolation-filters="sRGB">
            <feFlood flood-opacity="0" result="BackgroundImageFix"/>
            <feColorMatrix in="SourceAlpha" type="matrix" values="0 0 0 0 0 0 0 0 0 0 0 0 0 0 0 0 0 0 127 0" result="hardAlpha"/>
            <feOffset dy="1.41884"/>
            <feGaussianBlur stdDeviation="1.41884"/>
            <feColorMatrix type="matrix" values="0 0 0 0 0 0 0 0 0 0 0 0 0 0 0 0 0 0 0.234839 0"/>
            <feBlend mode="normal" in2="BackgroundImageFix" result="effect1_dropShadow_1_1467"/>
            <feBlend mode="normal" in="SourceGraphic" in2="effect1_dropShadow_1_1467" result="shape"/>
        </filter>
        <filter id="filter2_d_1_1467" x="100.913" y="185.658" width="90.7606" height="73.1371" filterUnits="userSpaceOnUse" color-interpolation-filters="sRGB">
            <feFlood flood-opacity="0" result="BackgroundImageFix"/>
            <feColorMatrix in="SourceAlpha" type="matrix" values="0 0 0 0 0 0 0 0 0 0 0 0 0 0 0 0 0 0 127 0" result="hardAlpha"/>
            <feOffset dy="1.5"/>
            <feGaussianBlur stdDeviation="1.5"/>
            <feColorMatrix type="matrix" values="0 0 0 0 0 0 0 0 0 0 0 0 0 0 0 0 0 0 0.234839 0"/>
            <feBlend mode="normal" in2="BackgroundImageFix" result="effect1_dropShadow_1_1467"/>
            <feBlend mode="normal" in="SourceGraphic" in2="effect1_dropShadow_1_1467" result="shape"/>
        </filter>
        <filter id="filter3_d_1_1467" x="0.337865" y="147.431" width="85.8496" height="69.1797" filterUnits="userSpaceOnUse" color-interpolation-filters="sRGB">
            <feFlood flood-opacity="0" result="BackgroundImageFix"/>
            <feColorMatrix in="SourceAlpha" type="matrix" values="0 0 0 0 0 0 0 0 0 0 0 0 0 0 0 0 0 0 127 0" result="hardAlpha"/>
            <feOffset dy="1.41884"/>
            <feGaussianBlur stdDeviation="1.41884"/>
            <feColorMatrix type="matrix" values="0 0 0 0 0 0 0 0 0 0 0 0 0 0 0 0 0 0 0.234839 0"/>
            <feBlend mode="normal" in2="BackgroundImageFix" result="effect1_dropShadow_1_1467"/>
            <feBlend mode="normal" in="SourceGraphic" in2="effect1_dropShadow_1_1467" result="shape"/>
        </filter>
        <filter id="filter4_d_1_1467" x="201.813" y="61.5911" width="85.8496" height="69.1797" filterUnits="userSpaceOnUse" color-interpolation-filters="sRGB">
            <feFlood flood-opacity="0" result="BackgroundImageFix"/>
            <feColorMatrix in="SourceAlpha" type="matrix" values="0 0 0 0 0 0 0 0 0 0 0 0 0 0 0 0 0 0 127 0" result="hardAlpha"/>
            <feOffset dy="1.41884"/>
            <feGaussianBlur stdDeviation="1.41884"/>
            <feColorMatrix type="matrix" values="0 0 0 0 0 0 0 0 0 0 0 0 0 0 0 0 0 0 0.234839 0"/>
            <feBlend mode="normal" in2="BackgroundImageFix" result="effect1_dropShadow_1_1467"/>
            <feBlend mode="normal" in="SourceGraphic" in2="effect1_dropShadow_1_1467" result="shape"/>
        </filter>
        <filter id="filter5_d_1_1467" x="201.813" y="147.431" width="85.8496" height="69.1797" filterUnits="userSpaceOnUse" color-interpolation-filters="sRGB">
            <feFlood flood-opacity="0" result="BackgroundImageFix"/>
            <feColorMatrix in="SourceAlpha" type="matrix" values="0 0 0 0 0 0 0 0 0 0 0 0 0 0 0 0 0 0 127 0" result="hardAlpha"/>
            <feOffset dy="1.41884"/>
            <feGaussianBlur stdDeviation="1.41884"/>
            <feColorMatrix type="matrix" values="0 0 0 0 0 0 0 0 0 0 0 0 0 0 0 0 0 0 0.234839 0"/>
            <feBlend mode="normal" in2="BackgroundImageFix" result="effect1_dropShadow_1_1467"/>
            <feBlend mode="normal" in="SourceGraphic" in2="effect1_dropShadow_1_1467" result="shape"/>
        </filter>
    </defs>
</svg>
