<?xml version="1.0" encoding="utf-8"?>
<!-- Generator: Adobe Illustrator 19.1.0, SVG Export Plug-In . SVG Version: 6.00 Build 0)  -->
<svg version="1.1" xmlns="http://www.w3.org/2000/svg" xmlns:xlink="http://www.w3.org/1999/xlink" x="0px" y="0px" width="24px"
	 height="24px" viewBox="0 0 24 24" enable-background="new 0 0 24 24" xml:space="preserve">
<g id="Header_x2F_BG" display="none">
	<rect x="-358" y="-314" display="inline" fill="#F1F1F2" width="520" height="520"/>
</g>
<g id="Bounding_Boxes">
	<g id="ui_x5F_spec_x5F_header_copy_3" display="none">
	</g>
	<path fill="none" d="M0,0h24v24H0V0z"/>
</g>
<g id="Rounded">
	<g id="ui_x5F_spec_x5F_header_copy_5" display="none">
	</g>
	<path fill="currentColor" d="M15.5,14h-0.79l-0.28-0.27c1.2-1.4,1.82-3.31,1.48-5.34c-0.47-2.78-2.79-5-5.59-5.34c-4.23-0.52-7.79,3.04-7.27,7.27
		c0.34,2.8,2.56,5.12,5.34,5.59c2.03,0.34,3.94-0.28,5.34-1.48L14,14.71v0.79l4.25,4.25c0.41,0.41,1.08,0.41,1.49,0l0,0
		c0.41-0.41,0.41-1.08,0-1.49L15.5,14z M9.5,14C7.01,14,5,11.99,5,9.5S7.01,5,9.5,5S14,7.01,14,9.5S11.99,14,9.5,14z"/>
</g>
</svg>
