<svg fill="#FA5A28" width="128px" height="42px" viewBox="0 0 128 42" version="1.1" xmlns="http://www.w3.org/2000/svg" xmlns:xlink="http://www.w3.org/1999/xlink">
    <g id="WebinyLogo" transform="translate(-170.000000, -62.000000)">
        <g id="Top-navigation" transform="translate(72.000000, 35.000000)">
            <g id="Main-Navigation" transform="translate(98.000000, 27.000000)">
                <g id="LogoIcon">
                    <path d="M28.813,8.575 L24.9,8.575 L21.665,17.86 L21.018,19.706 L17.137,8.575 L13.071,8.575 L9.191,19.706 L8.543,17.86 L5.308,8.575 L0.337,8.575 L0.692,9.593 L1.939,13.173 L4.966,21.87 L7.153,28.191 L11.232,28.191 L15.104,17.084 L18.976,28.191 L23.055,28.191 L25.243,21.87 L28.27,13.173 L29.516,9.593 L29.871,8.575 L28.813,8.575 Z M45.359,22.066 L44.755,22.386 C44.063,22.755 42.872,23.308 42.029,23.611 C41.0998245,23.9427189 40.1206125,24.1125166 39.134,24.113 C37.856,24.113 36.809,23.839 36.102,23.316 C35.559,22.92 35.129,22.275 34.852,21.455 L37.429,21.455 C39.863,21.455 41.966,21.025 43.507,20.211 C45.665,19.071 46.806,17.211 46.806,14.834 C46.806,12.735 45.915,11.063 44.16,9.866 C42.704,8.869 40.842,8.321 38.917,8.321 C36.208,8.321 33.843,9.399 32.078,11.446 C30.444,13.354 29.616,15.858 29.616,18.891 C29.616,21.808 30.403,24.085 32.027,25.849 C33.718,27.669 36.025,28.591 38.882,28.591 C41.672,28.591 44.515,27.724 47.107,26.083 L47.759,25.669 L45.359,22.066 Z M37.156,13.096 C37.623,12.828 38.167,12.692 38.772,12.692 C39.076,12.692 39.598,12.725 40.067,12.823 C40.556,12.924 40.884,13.094 41.104,13.241 C41.228,13.313 41.533,13.516 41.706,13.836 C41.896,14.164 41.967,14.434 41.967,14.834 C41.967,15.492 41.781,15.754 41.643,15.893 C41.506,16.03 40.982,16.473 40.391,16.7 C39.674,16.971 38.931,17.014 37.431,17.014 L34.564,17.014 C34.762,16.012 35.198,15.053 35.807,14.297 C36.1857743,13.8235074 36.6418668,13.4174532 37.156,13.096 Z M65.375,11.063 C63.735,9.034 61.379,7.962 58.559,7.962 C57.066,7.962 55.717,8.278 54.534,8.909 L54.534,0.427 L49.763,0.427 L49.763,27.531 L50.304,27.691 C52.23,28.259 55.187,28.556 57.112,28.556 C60.586,28.556 63.259,27.546 65.058,25.554 C66.725,23.718 67.682,21.011 67.682,18.128 C67.68,15.458 66.84,12.884 65.375,11.063 Z M59.983,23.637 C59.295,23.95 58.578,24.075 57.507,24.075 C56.736,24.075 55.658,24.012 54.532,23.896 L54.532,15.556 C54.532,14.996 54.788,14.439 55.315,13.855 C56.14,12.937 57.219,12.472 58.522,12.472 C59.934,12.472 60.936,13.027 61.762,14.265 C62.475,15.369 62.836,16.73 62.836,18.312 C62.836,20.062 62.42,21.408 61.561,22.432 C61.131,22.954 60.601,23.357 59.983,23.637 Z M69.889,8.609 L74.659,8.609 L74.659,28.217 L69.889,28.217 L69.889,8.609 Z M96.673,28.218 L96.673,14.618 C96.673,13.53 96.481,12.548 96.089,11.676 C95.024,9.512 92.635,8.321 89.361,8.321 C86.959,8.321 85.109,8.964 83.491,10.387 C83.006,9.686 82.318,9.018 81.431,8.389 L80.935,8.038 L77.82,10.878 L78.413,11.436 C78.969,11.96 79.37,12.497 79.572,12.983 C79.795,13.528 79.913,14.206 79.913,14.944 L79.913,28.233 L84.682,28.233 L84.682,15.313 C85.171,14.706 85.809,14.001 86.579,13.516 C87.437,12.969 88.238,12.727 89.18,12.727 C90.078,12.727 90.856,12.971 91.309,13.395 C91.602,13.671 91.903,14.139 91.903,15.522 L91.903,28.218 L96.673,28.218 Z M103.727,27.741 C106.41,25.804 109.208,26.611 112.02,26.72 C112.19,26.728 112.367,26.722 112.54,26.724 L112.54,26.734 C114.37,26.755 116.367,26.546 117.158,26.454 L117.158,8.61 L112.389,8.61 L112.389,20.69 C112.389,20.69 111.635,23.737 108.768,23.78 C108.768,23.78 105.536,24.03 105.168,21.319 L105.168,8.623 L100.397,8.623 L100.397,22.225 C100.397,23.313 100.589,24.294 100.981,25.165 C101.544,26.311 102.486,27.173 103.727,27.741 Z" id="Shape"></path>
                    <path d="M123.727,16.713 C121.891884,15.5988342 119.688985,15.2602865 117.604,15.772 L117.604,15.769 L117.582,15.775 L117.582,21.18 C117.645,21.083 117.704,20.985 117.787,20.901 C117.891,20.798 118.011,20.709 118.14,20.631 C118.99,20.125 120.286,20.18 121.232,20.762 C122.086,21.285 122.476,22.106 122.396,23.196 C122.333,24.051 121.999,24.713 121.365,25.258 C120.425,26.068 118.972,26.529 117.513,26.797 L117.513,26.804 L117.447,26.812 C117.396,26.82 117.345,26.833 117.296,26.842 L117.296,26.823 C116.627,26.887 114.495,27.067 112.551,27.035 L112.551,27.043 L112.167,27.024 L112.029,27.02 C111.898,27.014 111.769,27.006 111.64,26.999 L111.498,26.993 L111.485,26.991 C110.539,26.939 109.66,26.872 108.915,26.814 C108.657,26.794 108.407,26.798 108.155,26.798 C107.932,26.8 107.71,26.808 107.487,26.823 C107.293,26.839 107.098,26.852 106.911,26.88 C106.85,26.888 106.792,26.894 106.731,26.903 C105.771907,27.0557508 104.853743,27.4013804 104.032,27.919 C104.00637,27.9357581 103.981354,27.9534363 103.957,27.972 C103.164975,28.4929505 102.495268,29.1793738 101.994,29.984 C100.539,32.314 100.543,35.54 102.001,38.011 C103.418,40.415 105.88,41.708 108.757,41.558 C110.872,41.45 112.742,40.558 114.134,38.986 C115.429,37.538 116.195,35.63 116.652,33.771 C116.801,33.165 116.921,32.562 117.01,31.982 C116.292,31.968 113.626,31.906 112.181,31.874 C112.075935,32.3886231 111.946117,32.8978811 111.792,33.4 C111.5,34.345 111.11,35.234 110.588,35.818 C110.032,36.439 109.362,36.763 108.507,36.808 C107.417,36.866 106.605,36.456 106.097,35.595 C105.534,34.64 105.504,33.339 106.029,32.501 C106.107,32.374 106.203,32.255 106.306,32.153 C106.792,31.676 107.54,31.536 108.547,31.553 C109.466,31.567 110.355,31.514 111.232,31.499 L111.253,31.499 C111.588,31.495 111.921,31.495 112.254,31.51 L112.251,31.524 C113.84,31.561 116.769,31.63 117.147,31.635 C119.553,31.327 122.432,30.602 124.46,28.862 C126.06,27.503 126.985,25.649 127.142,23.538 C127.346,20.667 126.104,18.18 123.727,16.713" id="Shape"></path>
                </g>
            </g>
        </g>
    </g>
</svg>