<?xml version="1.0" encoding="utf-8"?>
<!-- Generator: Adobe Illustrator 19.1.0, SVG Export Plug-In . SVG Version: 6.00 Build 0)  -->
<svg version="1.1" xmlns="http://www.w3.org/2000/svg" xmlns:xlink="http://www.w3.org/1999/xlink" x="0px" y="0px" width="24px"
	 height="24px" viewBox="0 0 24 24" enable-background="new 0 0 24 24" xml:space="preserve">
<g id="Bounding_Boxes">
	<g id="ui_x5F_spec_x5F_header_copy_3">
	</g>
	<path fill="none" d="M0,0h24v24H0V0z"/>
</g>
<g id="Rounded">
	<g id="ui_x5F_spec_x5F_header_copy_6">
	</g>
	<path fill="currentColor" d="M15.6,10.79c0.97-0.67,1.65-1.77,1.65-2.79c0-2.26-1.75-4-4-4H8C7.45,4,7,4.45,7,5v12c0,0.55,0.45,1,1,1l5.78,0
		c2.07,0,3.96-1.69,3.97-3.77C17.76,12.7,16.9,11.39,15.6,10.79z M10,6.5h3c0.83,0,1.5,0.67,1.5,1.5S13.83,9.5,13,9.5h-3V6.5z
		 M13.5,15.5H10v-3h3.5c0.83,0,1.5,0.67,1.5,1.5S14.33,15.5,13.5,15.5z"/>
</g>
</svg>
