<?xml version="1.0" encoding="utf-8"?>
<!-- Generator: Adobe Illustrator 19.1.0, SVG Export Plug-In . SVG Version: 6.00 Build 0)  -->
<svg version="1.1" xmlns="http://www.w3.org/2000/svg" xmlns:xlink="http://www.w3.org/1999/xlink" x="0px" y="0px"
	 height="24px" viewBox="0 0 24 24" enable-background="new 0 0 24 24" xml:space="preserve">
<g id="Bounding_Boxes">
	<g id="ui_x5F_spec_x5F_header_copy_3" display="none">
	</g>
	<path fill="none" d="M0,0h24v24H0V0z"/>
</g>
<g id="Rounded_1_">
	<g id="ui_x5F_spec_x5F_header_copy_6" display="none">
	</g>
	<path fill="currentColor" d="M18.4,10.6C16.55,8.99,14.15,8,11.5,8c-4.16,0-7.74,2.42-9.44,5.93C1.74,14.6,2.1,15.4,2.81,15.64l0,0
		c0.59,0.2,1.23-0.08,1.5-0.64c1.3-2.66,4.03-4.5,7.19-4.5c1.95,0,3.73,0.72,5.12,1.88l-1.91,1.91C14.08,14.92,14.52,16,15.41,16H21
		c0.55,0,1-0.45,1-1V9.41c0-0.89-1.08-1.34-1.71-0.71L18.4,10.6z"/>
</g>
</svg>
