<?xml version="1.0" encoding="UTF-8"?>
<svg width="74px" viewBox="-5 -5 85 85" version="1.1" xmlns="http://www.w3.org/2000/svg" xmlns:xlink="http://www.w3.org/1999/xlink">
    <!-- Generator: Sketch 50.2 (55047) - http://www.bohemiancoding.com/sketch -->
    <title>round-help_outline-24px (1)</title>
    <desc>Created with Sketch.</desc>
    <defs></defs>
    <g id="Icons" stroke="none" stroke-width="1" fill="none" fill-rule="evenodd">
        <g transform="translate(-957.000000, -86.000000)" id="Undo">
            <g transform="translate(917.000000, 50.000000)">
                <g id="round-help_outline-24px-(1)" transform="translate(20.000000, 20.000000)">
                    <g id="Bounding_Boxes">
                        <polygon id="Shape" points="0 0 110 0 110 110 0 110"></polygon>
                    </g>
                    <g id="Rounded" transform="translate(20.000000, 16.000000)" fill="#000000" fill-rule="nonzero">
                        <g id="Group">
                            <path fill="currentColor" d="M37,0 C16.576,0 0,16.8 0,37.5 C0,58.2 16.576,75 37,75 C57.424,75 74,58.2 74,37.5 C74,16.8 57.424,0 37,0 Z M37,67.5 C20.683,67.5 7.4,54.0375 7.4,37.5 C7.4,20.9625 20.683,7.5 37,7.5 C53.317,7.5 66.6,20.9625 66.6,37.5 C66.6,54.0375 53.317,67.5 37,67.5 Z" id="Shape"></path>
                            <path fill="currentColor" d="M37.4623891,18.0000333 C31.9845081,18.00987 27.0108609,20.1684852 23.338881,23.6776194 L20.3867157,20.7254565 C19.136877,19.4756188 17,20.3607552 17,22.1282175 L17,33.2096984 C17,34.3053729 17.8881956,35.1935677 18.983871,35.1935677 L30.0653609,35.1935677 C31.8328246,35.1935677 32.7179617,33.0566925 31.4682056,31.8068548 L28.0170968,28.3557487 C30.5683548,25.966922 33.8695988,24.6436812 37.3768347,24.6134271 C45.0145726,24.5474635 51.4526472,30.7284565 51.3866008,38.6197101 C51.3239435,46.1055931 45.2549516,52.3871021 37.5,52.3871021 C34.1003891,52.3871021 30.8873448,51.1738007 28.3551815,48.9520324 C27.963119,48.608079 27.3710161,48.6289923 27.0021815,48.997744 L23.7236694,52.2762534 C23.3209435,52.6789789 23.3408649,53.335557 23.7635121,53.7172866 C27.398625,57.000673 32.2157944,59 37.5,59 C48.8217863,59 57.9999173,49.8218764 58,38.500182 C58.0000827,27.1913827 48.7711976,17.9797813 37.4623891,18.0000333 Z" id="Shape"></path>
                        </g>
                    </g>
                </g>
            </g>
        </g>
    </g>
</svg>