<?xml version="1.0" encoding="UTF-8"?>
<svg width="20px" height="16px" viewBox="0 0 20 16" version="1.1" xmlns="http://www.w3.org/2000/svg" xmlns:xlink="http://www.w3.org/1999/xlink">
    <!-- Generator: Sketch 50.2 (55047) - http://www.bohemiancoding.com/sketch -->
    <title>baseline-mail_outline-24px</title>
    <desc>Created with Sketch.</desc>
    <defs></defs>
    <g id="Home-v1" stroke="none" stroke-width="1" fill="none" fill-rule="evenodd" opacity="0.5">
        <g id="Main-page" transform="translate(-1009.000000, -7535.000000)">
            <g id="Footer" transform="translate(71.000000, 7418.000000)">
                <g id="Newsletter" transform="translate(923.000000, 60.000000)">
                    <g id="baseline-mail_outline-24px" transform="translate(13.000000, 53.000000)">
                        <polygon id="Shape" points="0 0 24 0 24 24 0 24"></polygon>
                        <path d="M20,4 L4,4 C2.9,4 2.01,4.9 2.01,6 L2,18 C2,19.1 2.9,20 4,20 L20,20 C21.1,20 22,19.1 22,18 L22,6 C22,4.9 21.1,4 20,4 Z M20,18 L4,18 L4,8 L12,13 L20,8 L20,18 Z M12,11 L4,6 L20,6 L12,11 Z" id="Shape" fill="#000000" fill-rule="nonzero"></path>
                    </g>
                </g>
            </g>
        </g>
    </g>
</svg>