<?xml version="1.0" encoding="UTF-8"?>
<svg width="12px" height="12px" viewBox="0 0 12 12" version="1.1" xmlns="http://www.w3.org/2000/svg" xmlns:xlink="http://www.w3.org/1999/xlink">
    <!-- Generator: Sketch 50.2 (55047) - http://www.bohemiancoding.com/sketch -->
    <title>baseline-check_circle-24px copy</title>
    <desc>Created with Sketch.</desc>
    <defs></defs>
    <g id="Home-v1" stroke="none" stroke-width="1" fill="none" fill-rule="evenodd">
        <g id="Main-page" transform="translate(-1310.000000, -7588.000000)">
            <g id="Footer" transform="translate(71.000000, 7418.000000)">
                <g id="Newsletter" transform="translate(923.000000, 60.000000)">
                    <g id="Why-Join-bullets" transform="translate(48.000000, 107.000000)">
                        <g id="Bullet-1" transform="translate(73.000000, 0.000000)">
                            <g id="baseline-check_circle-24px-copy" transform="translate(194.000000, 2.000000)">
                                <polygon id="Shape" points="0 0 14 0 14 14 0 14"></polygon>
                                <path d="M7,1 C3.688,1 1,3.688 1,7 C1,10.312 3.688,13 7,13 C10.312,13 13,10.312 13,7 C13,3.688 10.312,1 7,1 Z M5.8,10 L2.8,7 L3.646,6.154 L5.8,8.302 L10.354,3.748 L11.2,4.6 L5.8,10 Z" id="Shape" fill="#FFFFFF" fill-rule="nonzero"></path>
                            </g>
                        </g>
                    </g>
                </g>
            </g>
        </g>
    </g>
</svg>