<svg width="28" height="28" viewBox="0 0 28 28" fill="none" xmlns="http://www.w3.org/2000/svg">
<path d="M14 27.3333C12.1111 27.3333 10.3555 26.9944 8.73332 26.3167C7.1111 25.6389 5.69999 24.7 4.49999 23.5C3.29999 22.3 2.3611 20.8889 1.68332 19.2667C1.00555 17.6444 0.666656 15.8889 0.666656 14C0.666656 12.1333 1.00555 10.3889 1.68332 8.76667C2.3611 7.14445 3.29999 5.73334 4.49999 4.53333C5.69999 3.33333 7.1111 2.38889 8.73332 1.7C10.3555 1.01111 12.1111 0.666668 14 0.666668C15.6667 0.666668 17.2222 0.933334 18.6667 1.46667C20.1111 2 21.4111 2.73333 22.5667 3.66667L21.1333 5.1C20.1555 4.32222 19.0667 3.72222 17.8667 3.3C16.6667 2.87778 15.3778 2.66667 14 2.66667C10.7778 2.66667 8.08332 3.75 5.91666 5.91667C3.74999 8.08333 2.66666 10.7778 2.66666 14C2.66666 17.2222 3.74999 19.9167 5.91666 22.0833C8.08332 24.25 10.7778 25.3333 14 25.3333C17.2222 25.3333 19.9167 24.25 22.0833 22.0833C24.25 19.9167 25.3333 17.2222 25.3333 14C25.3333 13.3333 25.2833 12.6833 25.1833 12.05C25.0833 11.4167 24.9333 10.8 24.7333 10.2L26.2667 8.66667C26.6222 9.48889 26.8889 10.3444 27.0667 11.2333C27.2444 12.1222 27.3333 13.0444 27.3333 14C27.3333 15.8889 26.9889 17.6444 26.3 19.2667C25.6111 20.8889 24.6667 22.3 23.4667 23.5C22.2667 24.7 20.8555 25.6389 19.2333 26.3167C17.6111 26.9944 15.8667 27.3333 14 27.3333ZM12.0333 20.0667L6.53332 14.5333L8.03332 13.0333L12.0333 17.0333L25.8333 3.23333L27.3667 4.73334L12.0333 20.0667Z" fill="#5DC9B1"/>
</svg>
