<svg width="23" height="24" viewBox="0 0 23 24" fill="none" xmlns="http://www.w3.org/2000/svg">
<path d="M14.6667 24C14.4 24 14.1667 23.9 13.9667 23.7C13.7667 23.5 13.6667 23.2667 13.6667 23C13.6667 22.7111 13.7667 22.4722 13.9667 22.2833C14.1667 22.0944 14.4 22 14.6667 22C15.9778 22 17.0833 21.7333 17.9833 21.2C18.8833 20.6667 19.3333 20.0444 19.3333 19.3333C19.3333 18.8222 19.0056 18.3222 18.35 17.8333C17.6944 17.3444 16.8111 16.9667 15.7 16.7L17.2667 15.1333C18.6667 15.5556 19.6944 16.1389 20.35 16.8833C21.0056 17.6278 21.3333 18.4444 21.3333 19.3333C21.3333 20.8222 20.6556 21.9722 19.3 22.7833C17.9444 23.5944 16.4 24 14.6667 24ZM4 14.2C2.57778 13.8889 1.55556 13.4 0.933333 12.7333C0.311111 12.0667 0 11.3778 0 10.6667C0 9.88889 0.288889 9.18889 0.866667 8.56667C1.44444 7.94445 2.77778 7.25556 4.86667 6.5C6.33333 5.96667 7.27778 5.53333 7.7 5.2C8.12222 4.86667 8.33333 4.47778 8.33333 4.03333C8.33333 3.47778 8.08889 3 7.6 2.6C7.11111 2.2 6.35556 2 5.33333 2C4.73333 2 4.22222 2.07778 3.8 2.23333C3.37778 2.38889 3 2.63333 2.66667 2.96667C2.48889 3.14444 2.26111 3.25 1.98333 3.28333C1.70556 3.31667 1.45556 3.24444 1.23333 3.06667C0.988889 2.88889 0.861111 2.66667 0.85 2.4C0.838889 2.13333 0.922222 1.9 1.1 1.7C1.47778 1.21111 2.04444 0.805556 2.8 0.483333C3.55556 0.161111 4.4 0 5.33333 0C6.84444 0 8.05556 0.361111 8.96667 1.08333C9.87778 1.80556 10.3333 2.78889 10.3333 4.03333C10.3333 4.94444 10.0167 5.71667 9.38333 6.35C8.75 6.98333 7.51111 7.64444 5.66667 8.33333C4.17778 8.88889 3.19444 9.32778 2.71667 9.65C2.23889 9.97222 2 10.3111 2 10.6667C2 11.0222 2.3 11.3611 2.9 11.6833C3.5 12.0056 4.4 12.3111 5.6 12.6L4 14.2ZM20.5333 9.06667L16.2667 4.8L17.7667 3.3C18.1667 2.9 18.6111 2.7 19.1 2.7C19.5889 2.7 20.0333 2.9 20.4333 3.3L22.0333 4.9C22.4333 5.3 22.6333 5.74444 22.6333 6.23333C22.6333 6.72222 22.4333 7.16667 22.0333 7.56667L20.5333 9.06667ZM3.33333 22H4.73333L16.2333 10.5L14.8333 9.1L3.33333 20.6V22ZM1.33333 24V19.7333L14.8333 6.23333L19.1 10.5L5.6 24H1.33333Z" fill="#CDA417"/>
</svg>
