<svg width="30" height="28" viewBox="0 0 30 28" fill="none" xmlns="http://www.w3.org/2000/svg">
<path d="M14 27.3333C12.1111 27.3333 10.3555 26.9944 8.73332 26.3167C7.1111 25.6389 5.69999 24.7 4.49999 23.5C3.29999 22.3 2.3611 20.8889 1.68332 19.2667C1.00555 17.6444 0.666656 15.8889 0.666656 14C0.666656 12.1333 1.00555 10.3889 1.68332 8.76666C2.3611 7.14443 3.29999 5.73332 4.49999 4.53332C5.69999 3.33332 7.1111 2.38888 8.73332 1.69999C10.3555 1.0111 12.1111 0.666656 14 0.666656C15.8667 0.666656 17.6111 1.0111 19.2333 1.69999C20.8555 2.38888 22.2667 3.33332 23.4667 4.53332C24.6667 5.73332 25.6111 7.14443 26.3 8.76666C26.9889 10.3889 27.3333 12.1333 27.3333 14C27.3333 14.1778 27.3278 14.3555 27.3167 14.5333C27.3055 14.7111 27.2889 14.8889 27.2667 15.0667C26.9778 14.8889 26.6611 14.7 26.3167 14.5C25.9722 14.3 25.6444 14.1333 25.3333 14C25.3333 10.7778 24.25 8.08332 22.0833 5.91666C19.9167 3.74999 17.2222 2.66666 14 2.66666C12.5333 2.66666 11.1667 2.90555 9.89999 3.38332C8.63332 3.8611 7.53332 4.5111 6.59999 5.33332L15.7 14.4333C15.4111 14.5667 15.1333 14.7111 14.8667 14.8667C14.6 15.0222 14.3333 15.1889 14.0667 15.3667L5.29999 6.59999C4.47777 7.55554 3.83332 8.66666 3.36666 9.93332C2.89999 11.2 2.66666 12.5555 2.66666 14C2.66666 16.7778 3.49443 19.1833 5.14999 21.2167C6.80555 23.25 8.93332 24.5333 11.5333 25.0667C11.8667 25.4444 12.2555 25.8444 12.7 26.2667C13.1444 26.6889 13.5778 27.0444 14 27.3333ZM20.6667 25.3333C22.0889 25.3333 23.4333 24.9722 24.7 24.25C25.9667 23.5278 27 22.5555 27.8 21.3333C27 20.1111 25.9667 19.1389 24.7 18.4167C23.4333 17.6944 22.0889 17.3333 20.6667 17.3333C19.2444 17.3333 17.9 17.6944 16.6333 18.4167C15.3667 19.1389 14.3333 20.1111 13.5333 21.3333C14.3333 22.5555 15.3667 23.5278 16.6333 24.25C17.9 24.9722 19.2444 25.3333 20.6667 25.3333ZM20.6667 27.3333C18.5333 27.3333 16.6278 26.7722 14.95 25.65C13.2722 24.5278 12.0667 23.0889 11.3333 21.3333C12.0667 19.5778 13.2722 18.1389 14.95 17.0167C16.6278 15.8944 18.5333 15.3333 20.6667 15.3333C22.8 15.3333 24.7055 15.8944 26.3833 17.0167C28.0611 18.1389 29.2667 19.5778 30 21.3333C29.2667 23.0889 28.0611 24.5278 26.3833 25.65C24.7055 26.7722 22.8 27.3333 20.6667 27.3333ZM20.6667 23.3333C20.1111 23.3333 19.6389 23.1389 19.25 22.75C18.8611 22.3611 18.6667 21.8889 18.6667 21.3333C18.6667 20.7778 18.8611 20.3055 19.25 19.9167C19.6389 19.5278 20.1111 19.3333 20.6667 19.3333C21.2222 19.3333 21.6944 19.5278 22.0833 19.9167C22.4722 20.3055 22.6667 20.7778 22.6667 21.3333C22.6667 21.8889 22.4722 22.3611 22.0833 22.75C21.6944 23.1389 21.2222 23.3333 20.6667 23.3333Z" fill="#FA5723"/>
</svg>
