<?xml version="1.0" encoding="UTF-8"?>
<svg height="82px" viewBox="0 0 161 82" version="1.1" xmlns="http://www.w3.org/2000/svg" xmlns:xlink="http://www.w3.org/1999/xlink">
    <g id="Icons" stroke="none" stroke-width="1" fill="none" fill-rule="evenodd">
        <g transform="translate(-1298.000000, -88.000000)" fill="#000000" fill-rule="nonzero" id="Page-List">
            <g transform="translate(1257.000000, 50.000000)">
                <g id="round-help_outline-24px-(1)-copy-2" transform="translate(20.000000, 20.000000)">
                    <g id="Page-list-icon" transform="translate(21.000000, 18.000000)">
                        <g id="round-art_track-24px">
                            <path fill="currentColor" d="M67.45,21 L46.15,21 C44.1975,21 42.6,19.425 42.6,17.5 C42.6,15.575 44.1975,14 46.15,14 L67.45,14 C69.4025,14 71,15.575 71,17.5 C71,19.425 69.4025,21 67.45,21 Z M67.45,0 L46.15,0 C44.1975,0 42.6,1.575 42.6,3.5 C42.6,5.425 44.1975,7 46.15,7 L67.45,7 C69.4025,7 71,5.425 71,3.5 C71,1.575 69.4025,0 67.45,0 Z M46.15,35 L67.45,35 C69.4025,35 71,33.425 71,31.5 C71,29.575 69.4025,28 67.45,28 L46.15,28 C44.1975,28 42.6,29.575 42.6,31.5 C42.6,33.425 44.1975,35 46.15,35 Z M35.5,7 L35.5,28 C35.5,31.85 32.305,35 28.4,35 L7.1,35 C3.195,35 0,31.85 0,28 L0,7 C0,3.15 3.195,0 7.1,0 L28.4,0 C32.305,0 35.5,3.15 35.5,7 Z M28.045,25.2 L23.572,19.32 C22.862,18.41 21.4775,18.375 20.732,19.285 L15.975,25.41 L12.9575,21.805 C12.2475,20.93 10.8985,20.965 10.1885,21.84 L7.5615,25.165 C6.6385,26.32 7.4905,28 8.946,28 L26.625,28 C28.0805,28 28.9325,26.355 28.045,25.2 Z" id="Shape"></path>
                        </g>
                        <g id="round-art_track-24px" transform="translate(0.000000, 47.000000)">
                            <path fill="currentColor" d="M67.45,21 L46.15,21 C44.1975,21 42.6,19.425 42.6,17.5 C42.6,15.575 44.1975,14 46.15,14 L67.45,14 C69.4025,14 71,15.575 71,17.5 C71,19.425 69.4025,21 67.45,21 Z M67.45,0 L46.15,0 C44.1975,0 42.6,1.575 42.6,3.5 C42.6,5.425 44.1975,7 46.15,7 L67.45,7 C69.4025,7 71,5.425 71,3.5 C71,1.575 69.4025,0 67.45,0 Z M46.15,35 L67.45,35 C69.4025,35 71,33.425 71,31.5 C71,29.575 69.4025,28 67.45,28 L46.15,28 C44.1975,28 42.6,29.575 42.6,31.5 C42.6,33.425 44.1975,35 46.15,35 Z M35.5,7 L35.5,28 C35.5,31.85 32.305,35 28.4,35 L7.1,35 C3.195,35 0,31.85 0,28 L0,7 C0,3.15 3.195,0 7.1,0 L28.4,0 C32.305,0 35.5,3.15 35.5,7 Z M28.045,25.2 L23.572,19.32 C22.862,18.41 21.4775,18.375 20.732,19.285 L15.975,25.41 L12.9575,21.805 C12.2475,20.93 10.8985,20.965 10.1885,21.84 L7.5615,25.165 C6.6385,26.32 7.4905,28 8.946,28 L26.625,28 C28.0805,28 28.9325,26.355 28.045,25.2 Z" id="Shape"></path>
                        </g>
                        <g id="round-art_track-24px-copy-2" transform="translate(90.000000, 0.000000)">
                            <path fill="currentColor" d="M67.45,21 L46.15,21 C44.1975,21 42.6,19.425 42.6,17.5 C42.6,15.575 44.1975,14 46.15,14 L67.45,14 C69.4025,14 71,15.575 71,17.5 C71,19.425 69.4025,21 67.45,21 Z M67.45,0 L46.15,0 C44.1975,0 42.6,1.575 42.6,3.5 C42.6,5.425 44.1975,7 46.15,7 L67.45,7 C69.4025,7 71,5.425 71,3.5 C71,1.575 69.4025,0 67.45,0 Z M46.15,35 L67.45,35 C69.4025,35 71,33.425 71,31.5 C71,29.575 69.4025,28 67.45,28 L46.15,28 C44.1975,28 42.6,29.575 42.6,31.5 C42.6,33.425 44.1975,35 46.15,35 Z M35.5,7 L35.5,28 C35.5,31.85 32.305,35 28.4,35 L7.1,35 C3.195,35 0,31.85 0,28 L0,7 C0,3.15 3.195,0 7.1,0 L28.4,0 C32.305,0 35.5,3.15 35.5,7 Z M28.045,25.2 L23.572,19.32 C22.862,18.41 21.4775,18.375 20.732,19.285 L15.975,25.41 L12.9575,21.805 C12.2475,20.93 10.8985,20.965 10.1885,21.84 L7.5615,25.165 C6.6385,26.32 7.4905,28 8.946,28 L26.625,28 C28.0805,28 28.9325,26.355 28.045,25.2 Z" id="Shape"></path>
                        </g>
                        <g id="round-art_track-24px-copy" transform="translate(90.000000, 47.000000)">
                            <path fill="currentColor" d="M67.45,21 L46.15,21 C44.1975,21 42.6,19.425 42.6,17.5 C42.6,15.575 44.1975,14 46.15,14 L67.45,14 C69.4025,14 71,15.575 71,17.5 C71,19.425 69.4025,21 67.45,21 Z M67.45,0 L46.15,0 C44.1975,0 42.6,1.575 42.6,3.5 C42.6,5.425 44.1975,7 46.15,7 L67.45,7 C69.4025,7 71,5.425 71,3.5 C71,1.575 69.4025,0 67.45,0 Z M46.15,35 L67.45,35 C69.4025,35 71,33.425 71,31.5 C71,29.575 69.4025,28 67.45,28 L46.15,28 C44.1975,28 42.6,29.575 42.6,31.5 C42.6,33.425 44.1975,35 46.15,35 Z M35.5,7 L35.5,28 C35.5,31.85 32.305,35 28.4,35 L7.1,35 C3.195,35 0,31.85 0,28 L0,7 C0,3.15 3.195,0 7.1,0 L28.4,0 C32.305,0 35.5,3.15 35.5,7 Z M28.045,25.2 L23.572,19.32 C22.862,18.41 21.4775,18.375 20.732,19.285 L15.975,25.41 L12.9575,21.805 C12.2475,20.93 10.8985,20.965 10.1885,21.84 L7.5615,25.165 C6.6385,26.32 7.4905,28 8.946,28 L26.625,28 C28.0805,28 28.9325,26.355 28.045,25.2 Z" id="Shape"></path>
                        </g>
                    </g>
                </g>
            </g>
        </g>
    </g>
</svg>