<svg height="512pt" viewBox="-40 0 512 512.00004" width="512pt" xmlns="http://www.w3.org/2000/svg"><path d="m423.71875 60.6875c4.203125 0 7.609375-3.410156 7.609375-7.613281v-30.238281c0-12.59375-10.242187-22.835938-22.835937-22.835938h-328.777344c-43.8125 0-79.570313 35.164062-79.714844 78.414062v354.691407.019531c-.0585938 21.085938 8.121094 40.914062 23.039062 55.839844 14.863282 14.855468 34.613282 23.035156 55.617188 23.035156h329.835938c12.59375 0 22.835937-10.242188 22.835937-22.835938v-405.640624c0-4.203126-3.40625-7.613282-7.609375-7.613282s-7.613281 3.410156-7.613281 7.613282v272.476562c-2.382813-.847656-4.941407-1.308594-7.613281-1.308594h-223.808594c-4.207032 0-7.613282 3.40625-7.613282 7.609375s3.40625 7.613281 7.613282 7.613281h223.808594c4.199218 0 7.613281 3.414063 7.613281 7.609376 0 4.199218-3.414063 7.613281-7.613281 7.613281h-329.835938c-13.074219 0-25.320312 5.160156-34.476562 14.535156-9.152344 9.371094-14.023438 21.734375-13.71875 34.820313.605468 25.949218 22.566406 47.0625 48.953124 47.0625h329.078126c4.199218 0 7.613281 3.414062 7.613281 7.609374 0 4.199219-3.414063 7.613282-7.613281 7.613282h-329.835938c-16.9375 0-32.867188-6.597656-44.855469-18.574219-12.035156-12.046875-18.632812-28.054687-18.578125-45.074219.117188-34.855468 29.046875-63.214844 64.492188-63.214844h74.515625c4.207031 0 7.613281-3.410156 7.613281-7.613281s-3.40625-7.609375-7.613281-7.609375h-74.515625c-26.46875 0-49.980469 12.84375-64.492188 32.53125v-308.78125c.117188-34.859375 29.046875-63.21875 64.492188-63.21875h328.777344c4.199218 0 7.613281 3.414063 7.613281 7.613282v30.238281c0 4.203125 3.410156 7.613281 7.613281 7.613281zm-378.039062 373.449219c-.207032-8.953125 3.125-17.414063 9.390624-23.824219 6.265626-6.417969 14.644532-9.953125 23.585938-9.953125h308.585938c-1.910157 4.117187-3.453126 8.359375-4.609376 12.6875h-292.8125c-4.203124 0-7.613281 3.40625-7.613281 7.609375s3.410157 7.613281 7.613281 7.613281h290.324219c-.21875 3.378907-.21875 6.769531 0 10.148438h-290.324219c-4.203124 0-7.613281 3.410156-7.613281 7.613281s3.410157 7.613281 7.613281 7.613281h292.8125c1.15625 4.324219 2.699219 8.570313 4.609376 12.683594h-307.828126c-18.183593 0-33.320312-14.441406-33.734374-32.191406zm362.8125 32.191406h-4c-12.398438-20.167969-12.398438-45.796875 0-65.96875h4c2.671874 0 5.230468-.464844 7.613281-1.308594v68.585938c-2.382813-.84375-4.941407-1.308594-7.613281-1.308594zm0 0"/><path d="m132.140625 83.523438c-16.457031 0-29.84375 13.386718-29.84375 29.84375v59.050781c0 16.453125 13.386719 29.84375 29.84375 29.84375h220.410156c16.457031 0 29.847657-13.390625 29.847657-29.84375v-59.050781c0-16.457032-13.390626-29.84375-29.847657-29.84375zm235.03125 29.84375v59.050781c0 8.058593-6.558594 14.621093-14.621094 14.621093h-220.410156c-8.0625 0-14.621094-6.5625-14.621094-14.621093v-59.050781c0-8.0625 6.558594-14.621094 14.621094-14.621094h220.410156c8.0625 0 14.621094 6.558594 14.621094 14.621094zm0 0"/><path d="m335.207031 151.53125h-185.71875c-4.203125 0-7.613281 3.410156-7.613281 7.613281s3.410156 7.613281 7.613281 7.613281h185.71875c4.203125 0 7.609375-3.410156 7.609375-7.613281s-3.40625-7.613281-7.609375-7.613281zm0 0"/><path d="m335.207031 119.027344h-185.71875c-4.203125 0-7.613281 3.410156-7.613281 7.613281s3.410156 7.609375 7.613281 7.609375h185.71875c4.203125 0 7.609375-3.40625 7.609375-7.609375s-3.40625-7.613281-7.609375-7.613281zm0 0"/></svg>