<?xml version="1.0" encoding="iso-8859-1"?>
<!-- Generator: Adobe Illustrator 16.0.0, SVG Export Plug-In . SVG Version: 6.00 Build 0)  -->
<!DOCTYPE svg PUBLIC "-//W3C//DTD SVG 1.1//EN" "http://www.w3.org/Graphics/SVG/1.1/DTD/svg11.dtd">
<svg version="1.1" id="Capa_1" xmlns="http://www.w3.org/2000/svg" xmlns:xlink="http://www.w3.org/1999/xlink" x="0px" y="0px"
	 width="438.533px" height="438.533px" viewBox="0 0 438.533 438.533" style="enable-background:new 0 0 438.533 438.533;"
	 xml:space="preserve">
<g>
	<path d="M396.283,130.188c-3.806-9.135-8.371-16.365-13.703-21.695l-89.078-89.081c-5.332-5.325-12.56-9.895-21.697-13.704
		C262.672,1.903,254.297,0,246.687,0H63.953C56.341,0,49.869,2.663,44.54,7.993c-5.33,5.327-7.994,11.799-7.994,19.414v383.719
		c0,7.617,2.664,14.089,7.994,19.417c5.33,5.325,11.801,7.991,19.414,7.991h310.633c7.611,0,14.079-2.666,19.407-7.991
		c5.328-5.332,7.994-11.8,7.994-19.417V155.313C401.991,147.699,400.088,139.323,396.283,130.188z M255.816,38.826
		c5.517,1.903,9.418,3.999,11.704,6.28l89.366,89.366c2.279,2.286,4.374,6.186,6.276,11.706H255.816V38.826z M365.449,401.991
		H73.089V36.545h146.178v118.771c0,7.614,2.662,14.084,7.992,19.414c5.332,5.327,11.8,7.994,19.417,7.994h118.773V401.991z"/>
</g>
<g>
</g>
<g>
</g>
<g>
</g>
<g>
</g>
<g>
</g>
<g>
</g>
<g>
</g>
<g>
</g>
<g>
</g>
<g>
</g>
<g>
</g>
<g>
</g>
<g>
</g>
<g>
</g>
<g>
</g>
</svg>
