<?xml version="1.0" encoding="iso-8859-1"?>
<!-- Generator: Adobe Illustrator 18.1.1, SVG Export Plug-In . SVG Version: 6.00 Build 0)  -->
<svg version="1.1" id="Capa_1" xmlns="http://www.w3.org/2000/svg" xmlns:xlink="http://www.w3.org/1999/xlink" x="0px" y="0px"
	 viewBox="0 0 49.356 49.356" style="enable-background:new 0 0 49.356 49.356;" xml:space="preserve">
<g>
	<g>
		<path style="fill:#010002;" d="M7.97,49.356h33.417c1.103,0,2-0.897,2-2V11.701c0-0.843-0.46-1.857-1.093-2.411l-9.559-8.383
			C32.135,0.382,31.121,0,30.324,0H7.97c-1.103,0-2,0.897-2,2v45.355C5.97,48.459,6.866,49.356,7.97,49.356z M32.304,4.519
			l5.881,5.159h-5.882L32.304,4.519z M8.97,3h20.333v7.678c0,1.103,0.897,2,2,2h9.084v33.678H8.97V3L8.97,3z"/>
	</g>
</g>
<g>
</g>
<g>
</g>
<g>
</g>
<g>
</g>
<g>
</g>
<g>
</g>
<g>
</g>
<g>
</g>
<g>
</g>
<g>
</g>
<g>
</g>
<g>
</g>
<g>
</g>
<g>
</g>
<g>
</g>
</svg>
