<?xml version="1.0" encoding="utf-8"?>
<!-- Generator: Adobe Illustrator 19.1.0, SVG Export Plug-In . SVG Version: 6.00 Build 0)  -->
<svg version="1.1" xmlns="http://www.w3.org/2000/svg" xmlns:xlink="http://www.w3.org/1999/xlink" x="0px" y="0px" width="24px"
	 height="24px" viewBox="0 0 24 24" enable-background="new 0 0 24 24" xml:space="preserve">
<g id="Header_x2F_BG" display="none">
	<rect x="-402" y="-314" display="inline" fill="#F1F1F2" width="520" height="520"/>
</g>
<g id="Bounding_Boxes">
	<g id="ui_x5F_spec_x5F_header_copy_3" display="none">
	</g>
	<path fill="none" d="M0,0h24v24H0V0z"/>
</g>
<g id="Rounded">
	<g id="ui_x5F_spec_x5F_header_copy_5" display="none">
	</g>
	<path fill="currentColor" d="M19.43,12.98c0.04-0.32,0.07-0.64,0.07-0.98s-0.03-0.66-0.07-0.98l2.11-1.65c0.19-0.15,0.24-0.42,0.12-0.64l-2-3.46
		c-0.12-0.22-0.39-0.3-0.61-0.22l-2.49,1c-0.52-0.4-1.08-0.73-1.69-0.98l-0.38-2.65C14.46,2.18,14.25,2,14,2h-4
		C9.75,2,9.54,2.18,9.51,2.42L9.13,5.07C8.52,5.32,7.96,5.66,7.44,6.05l-2.49-1c-0.23-0.09-0.49,0-0.61,0.22l-2,3.46
		C2.21,8.95,2.27,9.22,2.46,9.37l2.11,1.65C4.53,11.34,4.5,11.67,4.5,12s0.03,0.66,0.07,0.98l-2.11,1.65
		c-0.19,0.15-0.24,0.42-0.12,0.64l2,3.46c0.12,0.22,0.39,0.3,0.61,0.22l2.49-1c0.52,0.4,1.08,0.73,1.69,0.98l0.38,2.65
		C9.54,21.82,9.75,22,10,22h4c0.25,0,0.46-0.18,0.49-0.42l0.38-2.65c0.61-0.25,1.17-0.59,1.69-0.98l2.49,1
		c0.23,0.09,0.49,0,0.61-0.22l2-3.46c0.12-0.22,0.07-0.49-0.12-0.64L19.43,12.98z M12,15.5c-1.93,0-3.5-1.57-3.5-3.5
		s1.57-3.5,3.5-3.5s3.5,1.57,3.5,3.5S13.93,15.5,12,15.5z"/>
</g>
</svg>
