<?xml version="1.0" encoding="utf-8"?>
<!-- Generator: Adobe Illustrator 19.1.0, SVG Export Plug-In . SVG Version: 6.00 Build 0)  -->
<svg version="1.1" xmlns="http://www.w3.org/2000/svg" xmlns:xlink="http://www.w3.org/1999/xlink" x="0px" y="0px" width="24px"
	 height="24px" viewBox="0 0 24 24" enable-background="new 0 0 24 24" xml:space="preserve">
<g id="Bounding_Boxes">
	<g id="ui_x5F_spec_x5F_header_copy_3">
	</g>
	<path fill="none" d="M0,0h24v24H0V0z"/>
</g>
<g id="Rounded">
	<g id="ui_x5F_spec_x5F_header_copy_7">
	</g>
	<path d="M3,17.46v3.04C3,20.78,3.22,21,3.5,21h3.04c0.13,0,0.26-0.05,0.35-0.15L17.81,9.94l-3.75-3.75L3.15,17.1
		C3.05,17.2,3,17.32,3,17.46z M20.71,7.04c0.39-0.39,0.39-1.02,0-1.41l-2.34-2.34c-0.39-0.39-1.02-0.39-1.41,0l-1.83,1.83l3.75,3.75
		L20.71,7.04z"/>
</g>
</svg>
