<?xml version="1.0" encoding="UTF-8"?>
<svg width="161px" height="52px" viewBox="0 0 161 52" version="1.1" xmlns="http://www.w3.org/2000/svg" xmlns:xlink="http://www.w3.org/1999/xlink">
    <!-- Generator: Sketch 50.2 (55047) - http://www.bohemiancoding.com/sketch -->
    <title>Logo icon Copy</title>
    <desc>Created with Sketch.</desc>
    <defs></defs>
    <g id="CMS-Editor-Onboarding" stroke="none" stroke-width="1" fill="none" fill-rule="evenodd">
        <g id="1.-Intro" transform="translate(-640.000000, -155.000000)" fill="#FA5723" fill-rule="nonzero">
            <g id="Logo-icon-Copy" transform="translate(640.000000, 155.000000)">
                <path d="M36.0761165,10.4149979 L31.1187543,10.4149979 L27.0203474,22.2833404 L26.200666,24.6429484 L21.2838445,10.4149979 L16.1326474,10.4149979 L11.2170928,24.6429484 L10.3961445,22.2833404 L6.29773756,10.4149979 L0,10.4149979 L0.449747905,11.7162335 L2.0295666,16.292288 L5.8644593,27.4090328 L8.63515977,35.488709 L13.8028265,35.488709 L18.7082459,21.2914359 L23.6136654,35.488709 L28.7813321,35.488709 L31.5532995,27.4090328 L35.3881922,16.292288 L36.966744,11.7162335 L37.4164919,10.4149979 L36.0761165,10.4149979 Z M57.0381695,27.6595654 L56.2729646,28.0685982 C55.3962729,28.5402642 53.8874004,29.247124 52.8194075,29.6344269 C51.6422392,30.0584391 50.4016799,30.2754793 49.151745,30.2760971 C47.5326525,30.2760971 46.2062129,29.9258628 45.3105178,29.2573498 C44.6225935,28.7511717 44.0778285,27.926715 43.7268984,26.8785684 L46.9916881,26.8785684 C50.0753118,26.8785684 52.7395931,26.3289305 54.691879,25.2884533 C57.4258395,23.831274 58.8713673,21.4537708 58.8713673,18.4154239 C58.8713673,15.7324244 57.7425634,13.595228 55.5191618,12.0651896 C53.6745619,10.7907968 51.3156025,10.0903281 48.8768287,10.0903281 C45.4448087,10.0903281 42.4486009,11.4682573 40.2125303,14.0847891 C38.142423,16.5236472 37.0934335,19.7243289 37.0934335,23.601193 C37.0934335,27.3297827 38.0904803,30.2403068 40.1479186,32.4951001 C42.2902389,34.8214742 45.2129668,36 48.8324873,36 C52.3671258,36 55.9689097,34.8917767 59.2527029,32.7942054 L60.0787187,32.2650192 L57.0381695,27.6595654 Z M46.6458257,16.1938645 C47.2374659,15.8512995 47.926657,15.6774606 48.6931288,15.6774606 C49.078265,15.6774606 49.7395845,15.7196421 50.3337585,15.8449084 C50.9532704,15.9740094 51.3688121,16.1913081 51.6475291,16.3792075 C51.8046242,16.4712399 52.1910273,16.7307201 52.4102002,17.1397529 C52.6509104,17.5590115 52.7408599,17.9041329 52.7408599,18.4154239 C52.7408599,19.2564977 52.5052174,19.5913933 52.3303858,19.7690669 C52.1568211,19.9441841 51.4929679,20.5104389 50.7442326,20.8005965 C49.8358686,21.1469962 48.8945652,21.2019599 46.9942219,21.2019599 L43.3620325,21.2019599 C43.6128778,19.921176 44.1652443,18.6953558 44.9367836,17.7290158 C45.416651,17.1237845 45.9944726,16.6047549 46.6458257,16.1938645 Z M82.39635,13.595228 C80.3186413,11.0017043 77.3338355,9.6314444 73.7611902,9.6314444 C71.8697152,9.6314444 70.1606732,10.0353643 68.6619358,10.8419259 L68.6619358,0 L62.6175773,0 L62.6175773,34.6450788 L63.3029678,34.8495952 C65.7430085,35.5756285 69.4892185,35.955262 71.9279924,35.955262 C76.3291874,35.955262 79.7155991,34.6642522 81.9947441,32.118023 C84.1066589,29.7711973 85.3190779,26.3110354 85.3190779,22.6259054 C85.3165441,19.2130379 84.2523519,15.9228803 82.39635,13.595228 Z M75.5652494,29.6676608 C74.6936253,30.0677461 73.7852612,30.2275245 72.4284161,30.2275245 C71.4516397,30.2275245 70.0859263,30.1469962 68.659402,29.9987218 L68.659402,19.3383042 C68.659402,18.6224968 68.9837272,17.9105241 69.6513812,17.1640392 C70.69657,15.9906263 72.0635502,15.3962505 73.7143151,15.3962505 C75.5031715,15.3962505 76.7726008,16.1056668 77.8190565,17.6881125 C78.722353,19.0992757 79.1797023,20.8389433 79.1797023,22.8610993 C79.1797023,25.0979974 78.6526737,26.8184917 77.5644105,28.1273967 C77.0196454,28.7946314 76.3481908,29.3097571 75.5652494,29.6676608 Z M88.1151163,10.4584576 L94.1582079,10.4584576 L94.1582079,35.5219429 L88.1151163,35.5219429 L88.1151163,10.4584576 Z M122.047646,35.5232211 L122.047646,18.1393268 C122.047646,16.7486153 121.804402,15.4933958 121.307779,14.3787814 C119.958535,11.6126971 116.931921,10.0903281 112.784106,10.0903281 C109.741023,10.0903281 107.397266,10.9122284 105.347429,12.7311461 C104.732985,11.8351086 103.861361,10.9812527 102.737624,10.1772476 L102.109244,9.72858969 L98.1628646,13.3587559 L98.9141336,14.0720068 C99.6185275,14.741798 100.126553,15.4282062 100.382465,16.0494248 C100.664983,16.7460588 100.814477,17.6126971 100.814477,18.556029 L100.814477,35.5423945 L106.856302,35.5423945 L106.856302,19.0276949 C107.475813,18.2518108 108.284093,17.3506604 109.259602,16.7307201 C110.346599,16.0315296 111.361382,15.7221986 112.554798,15.7221986 C113.69247,15.7221986 114.678114,16.0340861 115.252018,16.5760545 C115.623218,16.9288453 116.004554,17.5270558 116.004554,19.2948445 L116.004554,35.5232211 L122.047646,35.5232211 Z M130.984326,34.9135066 C134.383407,32.4375799 137.928181,33.4691095 141.490691,33.6084363 C141.706063,33.6186621 141.930304,33.6109928 142.149477,33.6135492 L142.149477,33.6263315 C144.467895,33.6531743 146.997886,33.3860247 148,33.2684278 L148,10.4597358 L141.958175,10.4597358 L141.958175,25.9007243 C141.958175,25.9007243 141.002936,29.7954836 137.370747,29.8504474 C137.370747,29.8504474 133.27614,30.1700043 132.809923,26.7047294 L132.809923,10.4763528 L126.765564,10.4763528 L126.765564,27.8628036 C126.765564,29.2535151 127.008808,30.5074563 127.505431,31.6207925 C128.218694,33.0856412 129.412109,34.1874734 130.984326,34.9135066 Z" id="Shape"></path>
                <path d="M156.680994,20.4883766 C154.374744,19.0759158 151.60629,18.6467288 148.986021,19.2954431 L148.986021,19.2916399 L148.958373,19.2992463 L148.958373,26.1513241 C149.037547,26.0283543 149.111695,25.9041168 149.216003,25.7976275 C149.346704,25.6670514 149.497511,25.5542235 149.65963,25.4553406 C150.727852,24.8138695 152.356578,24.8835946 153.545446,25.6214131 C154.618696,26.2844357 155.108821,27.3252415 155.008283,28.7070667 C154.929109,29.7909753 154.50936,30.6302123 153.712592,31.3211248 C152.531263,32.3479857 150.705231,32.932409 148.871659,33.2721605 L148.871659,33.2810346 L148.788714,33.2911764 C148.724621,33.3013182 148.660528,33.3177987 148.598948,33.3292083 L148.598948,33.3051214 C147.758194,33.3862561 145.07884,33.6144474 142.635753,33.5738801 L142.635753,33.5840219 L142.153168,33.559935 L141.979739,33.5548641 C141.815107,33.5472577 141.652988,33.5371159 141.49087,33.5282418 L141.312414,33.5206354 L141.296076,33.5181 C140.107207,33.452178 139.00254,33.3672402 138.066274,33.2937119 C137.742037,33.2683573 137.427854,33.2734282 137.111157,33.2734282 C136.830906,33.2759636 136.551911,33.2861055 136.27166,33.3051214 C136.027854,33.3254051 135.782791,33.3418856 135.547782,33.377382 C135.471122,33.3875238 135.398231,33.3951302 135.32157,33.4065398 C134.116247,33.6001865 132.962361,34.0383513 131.92965,34.6945529 C131.89744,34.7157977 131.866001,34.7382088 131.835395,34.7617426 C130.840031,35.4221668 129.99839,36.2923659 129.368429,37.3124142 C127.539884,40.2662239 127.544911,44.3559191 129.377226,47.4884786 C131.158016,50.5361003 134.252091,52.1752745 137.86771,51.9851151 C140.525699,51.8482003 142.875789,50.7173856 144.62516,48.7245149 C146.252629,46.8888426 147.215286,44.4700148 147.789612,42.1133057 C147.976865,41.3450617 148.127673,40.5806208 148.239522,39.8453377 C147.337189,39.8275895 143.98674,39.7489903 142.170762,39.7084229 C142.038723,40.3608258 141.875577,41.0064271 141.681893,41.6429781 C141.314927,42.8409824 140.824801,43.9679939 140.168787,44.7083479 C139.470044,45.4956079 138.628033,45.9063523 137.553527,45.9634001 C136.183689,46.0369284 135.163222,45.5171593 134.524802,44.4256443 C133.817262,43.2149626 133.77956,41.5656466 134.439344,40.5032893 C134.53737,40.3422877 134.658016,40.1914279 134.787459,40.0621195 C135.398231,39.4574125 136.338267,39.2799304 137.603796,39.3014818 C138.758733,39.31923 139.875969,39.2520403 140.978123,39.2330244 L141.004514,39.2330244 C141.42552,39.2279535 141.844011,39.2279535 142.262503,39.2469694 L142.258733,39.2647176 C144.255681,39.3116236 147.93665,39.3990969 148.411695,39.4054356 C151.435393,39.0149749 155.053525,38.0958711 157.602178,35.8900218 C159.61295,34.1671775 160.775428,31.816807 160.972735,29.1406301 C161.229108,25.5009788 159.668246,22.3481357 156.680994,20.4883766" id="Shape"></path>
            </g>
        </g>
    </g>
</svg>