<?xml version="1.0" encoding="UTF-8"?>
<svg width="217px" height="292px" viewBox="0 0 217 292" version="1.1" xmlns="http://www.w3.org/2000/svg" xmlns:xlink="http://www.w3.org/1999/xlink">
    <!-- Generator: Sketch 50.2 (55047) - http://www.bohemiancoding.com/sketch -->
    <title>ElementList</title>
    <desc>Created with Sketch.</desc>
    <defs></defs>
    <g id="CMS-Editor-Onboarding" stroke="none" stroke-width="1" fill="none" fill-rule="evenodd">
        <g id="5.-Content" transform="translate(-361.000000, -173.000000)">
            <g id="ElementList" transform="translate(361.000000, 173.000000)">
                <rect id="GrayBg" fill="#D8D8D8" x="17" y="0" width="200" height="291"></rect>
                <rect id="WhiteBg" fill="var(--mdc-theme-surface)" x="18" y="1" width="100" height="291"></rect>
                <rect id="Rectangle" fill="#D8D8D8" x="26" y="9" width="85" height="20" rx="2"></rect>
                <rect id="Rectangle-Copy" fill="#BBBDBF" x="26" y="39" width="85" height="20" rx="2"></rect>
                <rect id="Rectangle-Copy-2" fill="#D8D8D8" x="26" y="69" width="85" height="20" rx="2"></rect>
                <rect id="Rectangle-Copy-3" fill="#D8D8D8" x="26" y="99" width="85" height="20" rx="2"></rect>
                <rect id="Rectangle-2" fill="var(--mdc-theme-surface)" x="124" y="9" width="87" height="55" rx="2"></rect>
                <rect id="Rectangle-2-Copy" fill="var(--mdc-theme-surface)" x="124" y="79" width="87" height="55" rx="2"></rect>
                <rect id="Rectangle-2-Copy-2" fill="var(--mdc-theme-surface)" x="124" y="149" width="87" height="55" rx="2"></rect>
                <circle id="Oval-2" fill="#FA5723" cx="6" cy="12" r="6"></circle>
                <g id="baseline-format_align_center-24px" transform="translate(152.000000, 21.000000)">
                    <path d="M9.33333333,20 L9.33333333,22.6666667 L22.6666667,22.6666667 L22.6666667,20 L9.33333333,20 Z M4,28 L28,28 L28,25.3333333 L4,25.3333333 L4,28 Z M4,17.3333333 L28,17.3333333 L28,14.6666667 L4,14.6666667 L4,17.3333333 Z M9.33333333,9.33333333 L9.33333333,12 L22.6666667,12 L22.6666667,9.33333333 L9.33333333,9.33333333 Z M4,4 L4,6.66666667 L28,6.66666667 L28,4 L4,4 Z" id="Shape" fill="#D8D8D8" fill-rule="nonzero"></path>
                    <polygon id="Shape" points="0 0 32 0 32 32 0 32"></polygon>
                </g>
                <g id="youtube-brands" transform="translate(152.000000, 165.000000)" fill="#D8D8D8" fill-rule="nonzero">
                    <path d="M31.2791241,3.50849635 C30.9123504,2.12747445 29.831708,1.03982482 28.4596204,0.670715328 C25.9726131,0 16,0 16,0 C16,0 6.02744526,0 3.54037956,0.670715328 C2.16829197,1.03988321 1.08764964,2.12747445 0.720875912,3.50849635 C0.0544817518,6.01167883 0.0544817518,11.2343358 0.0544817518,11.2343358 C0.0544817518,11.2343358 0.0544817518,16.4569927 0.720875912,18.9601752 C1.08764964,20.3411971 2.16829197,21.3835328 3.54037956,21.7526423 C6.02744526,22.4233577 16,22.4233577 16,22.4233577 C16,22.4233577 25.9725547,22.4233577 28.4596204,21.7526423 C29.831708,21.3835328 30.9123504,20.3411971 31.2791241,18.9601752 C31.9455182,16.4569927 31.9455182,11.2343358 31.9455182,11.2343358 C31.9455182,11.2343358 31.9455182,6.01167883 31.2791241,3.50849635 Z M12.7383942,15.9761168 L12.7383942,6.49255474 L21.0735182,11.2344526 L12.7383942,15.9761168 Z" id="Shape"></path>
                </g>
                <g id="baseline-image-24px" transform="translate(152.000000, 91.000000)">
                    <polygon id="Shape" points="0 0 32 0 32 32 0 32"></polygon>
                    <path d="M28,25.3333333 L28,6.66666667 C28,5.2 26.8,4 25.3333333,4 L6.66666667,4 C5.2,4 4,5.2 4,6.66666667 L4,25.3333333 C4,26.8 5.2,28 6.66666667,28 L25.3333333,28 C26.8,28 28,26.8 28,25.3333333 Z M11.3333333,18 L14.6666667,22.0133333 L19.3333333,16 L25.3333333,24 L6.66666667,24 L11.3333333,18 Z" id="Shape" fill="#D8D8D8" fill-rule="nonzero"></path>
                </g>
            </g>
        </g>
    </g>
</svg>