<?xml version="1.0" encoding="UTF-8"?>
<svg width="217px" height="292px" viewBox="0 0 217 292" version="1.1" xmlns="http://www.w3.org/2000/svg" xmlns:xlink="http://www.w3.org/1999/xlink">
    <!-- Generator: Sketch 50.2 (55047) - http://www.bohemiancoding.com/sketch -->
    <title>ElementList</title>
    <desc>Created with Sketch.</desc>
    <defs></defs>
    <g id="CMS-Editor-Onboarding" stroke="none" stroke-width="1" fill="none" fill-rule="evenodd">
        <g id="3.-Rows" transform="translate(-361.000000, -173.000000)">
            <g id="Onboarding" transform="translate(320.000000, 103.000000)">
                <g id="ElementList" transform="translate(41.000000, 70.000000)">
                    <rect id="GrayBg" fill="#D8D8D8" x="17" y="0" width="200" height="291"></rect>
                    <rect id="WhiteBg" fill="var(--mdc-theme-surface)" x="18" y="1" width="100" height="291"></rect>
                    <rect id="Rectangle" fill="#BBBDBF" x="26" y="9" width="85" height="20" rx="2"></rect>
                    <rect id="Rectangle-Copy" fill="#D8D8D8" x="26" y="39" width="85" height="20" rx="2"></rect>
                    <rect id="Rectangle-Copy-2" fill="#D8D8D8" x="26" y="69" width="85" height="20" rx="2"></rect>
                    <rect id="Rectangle-Copy-3" fill="#D8D8D8" x="26" y="99" width="85" height="20" rx="2"></rect>
                    <rect id="Rectangle-2" fill="var(--mdc-theme-surface)" x="124" y="9" width="87" height="55" rx="2"></rect>
                    <rect id="Rectangle-2-Copy" fill="var(--mdc-theme-surface)" x="124" y="79" width="87" height="55" rx="2"></rect>
                    <circle id="Oval-2" fill="#FA5723" cx="6" cy="12" r="6"></circle>
                    <g id="column-icon" transform="translate(151.000000, 90.000000)">
                        <g id="Bounding_Boxes">
                            <polygon id="Shape" points="0 0 32 0 32 32 0 32"></polygon>
                        </g>
                        <g id="Rounded" transform="translate(5.236364, 4.654545)" fill="#BBBDBF" fill-rule="nonzero">
                            <path d="M1.28342246,21.8181818 L2.56684492,21.8181818 C3.27272727,21.8181818 3.85026737,21.0629371 3.85026737,20.1398601 L3.85026737,1.67832168 C3.85026737,0.755244756 3.27272727,0 2.56684492,0 L1.28342246,0 C0.577540108,0 0,0.755244756 0,1.67832168 L0,20.1398601 C0,21.0629371 0.577540108,21.8181818 1.28342246,21.8181818 Z M17.9679144,1.67832168 L17.9679144,20.1398601 C17.9679144,21.0629371 18.5454545,21.8181818 19.2513369,21.8181818 L20.5347594,21.8181818 C21.2406417,21.8181818 21.8181818,21.0629371 21.8181818,20.1398601 L21.8181818,1.67832168 C21.8181818,0.755244756 21.2406417,0 20.5347594,0 L19.2513369,0 C18.5454545,0 17.9679144,0.755244756 17.9679144,1.67832168 Z M6.41711229,21.8181818 L15.4010695,21.8181818 C16.1069519,21.8181818 16.684492,21.0629371 16.684492,20.1398601 L16.684492,1.67832168 C16.684492,0.755244756 16.1069519,0 15.4010695,0 L6.41711229,0 C5.71122993,0 5.13368983,0.755244756 5.13368983,1.67832168 L5.13368983,20.1398601 C5.13368983,21.0629371 5.71122993,21.8181818 6.41711229,21.8181818 Z" id="Shape"></path>
                        </g>
                    </g>
                    <g id="row-icon" transform="translate(151.000000, 20.000000)">
                        <g id="Bounding_Boxes">
                            <polygon id="Shape" points="0 0 32 0 32 32 0 32"></polygon>
                        </g>
                        <g id="Rounded-Copy" transform="translate(16.436364, 15.563636) rotate(90.000000) translate(-16.436364, -15.563636) translate(5.527273, 4.654545)" fill="#BBBDBF" fill-rule="nonzero">
                            <path d="M1.28342246,21.8181818 L2.56684492,21.8181818 C3.27272727,21.8181818 3.85026737,21.0629371 3.85026737,20.1398601 L3.85026737,1.67832168 C3.85026737,0.755244756 3.27272727,0 2.56684492,0 L1.28342246,0 C0.577540108,0 0,0.755244756 0,1.67832168 L0,20.1398601 C0,21.0629371 0.577540108,21.8181818 1.28342246,21.8181818 Z M17.9679144,1.67832168 L17.9679144,20.1398601 C17.9679144,21.0629371 18.5454545,21.8181818 19.2513369,21.8181818 L20.5347594,21.8181818 C21.2406417,21.8181818 21.8181818,21.0629371 21.8181818,20.1398601 L21.8181818,1.67832168 C21.8181818,0.755244756 21.2406417,0 20.5347594,0 L19.2513369,0 C18.5454545,0 17.9679144,0.755244756 17.9679144,1.67832168 Z M6.41711229,21.8181818 L15.4010695,21.8181818 C16.1069519,21.8181818 16.684492,21.0629371 16.684492,20.1398601 L16.684492,1.67832168 C16.684492,0.755244756 16.1069519,0 15.4010695,0 L6.41711229,0 C5.71122993,0 5.13368983,0.755244756 5.13368983,1.67832168 L5.13368983,20.1398601 C5.13368983,21.0629371 5.71122993,21.8181818 6.41711229,21.8181818 Z" id="Shape"></path>
                        </g>
                    </g>
                </g>
            </g>
        </g>
    </g>
</svg>