<?xml version="1.0" encoding="UTF-8"?>
<svg width="170px" height="58px" viewBox="0 0 170 58" version="1.1" xmlns="http://www.w3.org/2000/svg" xmlns:xlink="http://www.w3.org/1999/xlink">
    <!-- Generator: Sketch 52.5 (67469) - http://www.bohemiancoding.com/sketch -->
    <title>Buttons / Light Text / Store / Appstore</title>
    <desc>Created with Sketch.</desc>
    <defs>
        <rect id="path-1" x="0" y="0" width="170" height="58" rx="8"></rect>
    </defs>
    <g id="Content" stroke="none" stroke-width="1" fill="none" fill-rule="evenodd">
        <g id="Content-39" transform="translate(-545.000000, -483.000000)">
            <g id="Buttons-/-Dark-Text-/-Store-/-Appstore">
                <g transform="translate(545.000000, 483.000000)">
                    <g id="Group">
                        <mask id="mask-2" fill="white">
                            <use xlink:href="#path-1"></use>
                        </mask>
                        <use id="◼️-Background" fill="#F3F3F3" xlink:href="#path-1"></use>
                        <path d="M36.5293272,28.8485677 C36.571551,33.645945 40.726877,35.231824 40.7765522,35.2479684 C40.7517146,35.3597375 40.1258077,37.5392346 38.56725,39.7472948 C37.2657612,41.6945605 35.9021784,43.5983605 33.7363421,43.6306494 C31.6325996,43.6803245 30.9247288,42.3937382 28.5117586,42.3937382 C26.0764345,42.3937382 25.3226142,43.5983605 23.3045614,43.6803245 C21.2418009,43.7560791 19.6658569,41.6039034 18.3171767,39.674024 C15.6210581,35.7360268 13.5222832,28.5765963 16.3363802,23.7047063 C17.699963,21.3153318 20.186204,19.7766441 22.8438244,19.7356621 C24.9090686,19.6934383 26.8252873,21.1302919 28.0944873,21.1302919 C29.3388497,21.1302919 31.7083542,19.4115318 34.1511295,19.6686007 C35.1731957,19.6984058 38.0816755,20.0722113 39.9581541,22.8080699 C39.8066449,22.8987271 36.4933127,24.8459928 36.5293272,28.8485677 Z M32.5553155,17.0780418 C31.4227221,18.4143033 29.6108212,19.4363694 27.8461116,19.3047303 C27.6151222,17.5015224 28.5092748,15.5840618 29.510229,14.4142121 C30.6415805,13.0866438 32.6062325,12.0695452 34.177209,12 C34.3833608,13.8739949 33.6407174,15.7206685 32.5553155,17.0780418 Z M51.9787751,13.0695661 L54.8940613,13.0695661 C57.4667262,13.0695661 58.9874838,14.6744762 58.9874838,17.4034245 C58.9874838,20.1383837 57.4727371,21.7432938 54.8940613,21.7432938 L51.9787751,21.7432938 L51.9787751,13.0695661 Z M53.060737,14.0433318 L53.060737,20.7695281 L54.8219305,20.7695281 C56.7874946,20.7695281 57.8814783,19.5673483 57.8814783,17.4154463 C57.8814783,15.2455116 56.7935055,14.0433318 54.8219305,14.0433318 L53.060737,14.0433318 Z M63.1666617,21.85149 C61.4355227,21.85149 60.2694083,20.6072338 60.2694083,18.6176262 C60.2694083,16.6220076 61.4355227,15.3837623 63.1666617,15.3837623 C64.8917899,15.3837623 66.0579043,16.6220076 66.0579043,18.6176262 C66.0579043,20.6072338 64.8917899,21.85149 63.1666617,21.85149 Z M63.1666617,20.9318224 C64.2726672,20.9318224 64.9939751,20.0902965 64.9939751,18.6176262 C64.9939751,17.1449558 64.2726672,16.3034299 63.1666617,16.3034299 C62.0606563,16.3034299 61.3333374,17.1449558 61.3333374,18.6176262 C61.3333374,20.0902965 62.0606563,20.9318224 63.1666617,20.9318224 Z M75.4725756,15.4919585 L73.7294148,21.7432938 L72.6654856,21.7432938 L71.2529243,16.9045198 L71.2288807,16.9045198 L69.8223302,21.7432938 L68.7584011,21.7432938 L67.0092293,15.4919585 L68.0491149,15.4919585 L69.299382,20.5771793 L69.3234256,20.5771793 L70.7359869,15.4919585 L71.745818,15.4919585 L73.1643903,20.5771793 L73.1884339,20.5771793 L74.4387009,15.4919585 L75.4725756,15.4919585 Z M76.7364674,21.7432938 L76.7364674,15.4919585 L77.7222549,15.4919585 L77.7222549,16.4897678 L77.7462985,16.4897678 C78.0949307,15.8165471 78.7621405,15.3837623 79.7298953,15.3837623 C81.1003803,15.3837623 81.8938191,16.2673645 81.8938191,17.6859368 L81.8938191,21.7432938 L80.8479226,21.7432938 L80.8479226,17.8722746 C80.8479226,16.8624435 80.3730615,16.3094408 79.4113176,16.3094408 C78.4255301,16.3094408 77.7823639,17.0067051 77.7823639,18.0646234 L77.7823639,21.7432938 L76.7364674,21.7432938 Z M83.68667,21.7432938 L83.68667,13.0695661 L84.7325665,13.0695661 L84.7325665,21.7432938 L83.68667,21.7432938 Z M89.1461695,21.85149 C87.4150305,21.85149 86.248916,20.6072338 86.248916,18.6176262 C86.248916,16.6220076 87.4150305,15.3837623 89.1461695,15.3837623 C90.8712976,15.3837623 92.0374121,16.6220076 92.0374121,18.6176262 C92.0374121,20.6072338 90.8712976,21.85149 89.1461695,21.85149 Z M89.1461695,20.9318224 C90.252175,20.9318224 90.9734829,20.0902965 90.9734829,18.6176262 C90.9734829,17.1449558 90.252175,16.3034299 89.1461695,16.3034299 C88.040164,16.3034299 87.3128452,17.1449558 87.3128452,18.6176262 C87.3128452,20.0902965 88.040164,20.9318224 89.1461695,20.9318224 Z M95.3269769,21.85149 C94.0827208,21.85149 93.2472058,21.1001276 93.2472058,19.9760894 C93.2472058,18.9061493 94.070699,18.2329286 95.5133148,18.148776 L97.3045628,18.0465907 L97.3045628,17.5236425 C97.3045628,16.7602583 96.7996473,16.3034299 95.9340778,16.3034299 C95.1286173,16.3034299 94.6237017,16.6821166 94.4914619,17.2952283 L93.4816308,17.2952283 C93.5537616,16.2132664 94.4794401,15.3837623 95.9581214,15.3837623 C97.4247808,15.3837623 98.3504593,16.177201 98.3504593,17.4214572 L98.3504593,21.7432938 L97.3586609,21.7432938 L97.3586609,20.6673428 L97.3346173,20.6673428 C96.9619416,21.3826399 96.1685029,21.85149 95.3269769,21.85149 Z M95.561402,20.9618769 C96.5471895,20.9618769 97.3045628,20.2706235 97.3045628,19.3689886 L97.3045628,18.8580621 L95.6335328,18.9602474 C94.7920069,19.0143455 94.311135,19.3870213 94.311135,19.9760894 C94.311135,20.5711684 94.8100396,20.9618769 95.561402,20.9618769 Z M102.457506,21.85149 C100.864618,21.85149 99.7826563,20.5771793 99.7826563,18.6176262 C99.7826563,16.658073 100.858607,15.3837623 102.433463,15.3837623 C103.329087,15.3837623 104.050395,15.822558 104.423071,16.5078005 L104.447114,16.5078005 L104.447114,13.0695661 L105.493011,13.0695661 L105.493011,21.7432938 L104.495201,21.7432938 L104.495201,20.6853755 L104.477169,20.6853755 C104.074438,21.4066835 103.359141,21.85149 102.457506,21.85149 Z M102.655866,16.3034299 C101.549861,16.3034299 100.852596,17.2050648 100.852596,18.6176262 C100.852596,20.0361984 101.549861,20.9318224 102.655866,20.9318224 C103.731817,20.9318224 104.453125,20.0181657 104.453125,18.6176262 C104.453125,17.2230975 103.731817,16.3034299 102.655866,16.3034299 Z M112.841536,21.85149 C111.110396,21.85149 109.944282,20.6072338 109.944282,18.6176262 C109.944282,16.6220076 111.110396,15.3837623 112.841536,15.3837623 C114.566664,15.3837623 115.732778,16.6220076 115.732778,18.6176262 C115.732778,20.6072338 114.566664,21.85149 112.841536,21.85149 Z M112.841536,20.9318224 C113.947541,20.9318224 114.668849,20.0902965 114.668849,18.6176262 C114.668849,17.1449558 113.947541,16.3034299 112.841536,16.3034299 C111.73553,16.3034299 111.008211,17.1449558 111.008211,18.6176262 C111.008211,20.0902965 111.73553,20.9318224 112.841536,20.9318224 Z M117.19503,21.7432938 L117.19503,15.4919585 L118.180817,15.4919585 L118.180817,16.4897678 L118.204861,16.4897678 C118.553493,15.8165471 119.220703,15.3837623 120.188457,15.3837623 C121.558942,15.3837623 122.352381,16.2673645 122.352381,17.6859368 L122.352381,21.7432938 L121.306485,21.7432938 L121.306485,17.8722746 C121.306485,16.8624435 120.831624,16.3094408 119.86988,16.3094408 C118.884092,16.3094408 118.240926,17.0067051 118.240926,18.0646234 L118.240926,21.7432938 L117.19503,21.7432938 Z M127.362666,13.9832228 L128.408563,13.9832228 L128.408563,15.4919585 L129.622764,15.4919585 L129.622764,16.3515171 L128.408563,16.3515171 L128.408563,20.0662529 C128.408563,20.6372883 128.648999,20.895757 129.183969,20.895757 C129.304187,20.895757 129.544623,20.8777243 129.616753,20.8657025 L129.616753,21.7432938 C129.490525,21.7733483 129.202001,21.791381 128.955555,21.791381 C127.807473,21.791381 127.362666,21.3225309 127.362666,20.120351 L127.362666,16.3515171 L126.430977,16.3515171 L126.430977,15.4919585 L127.362666,15.4919585 L127.362666,13.9832228 Z M131.199223,21.7432938 L131.199223,13.0695661 L132.245119,13.0695661 L132.245119,16.4897678 L132.269163,16.4897678 C132.617795,15.7925035 133.303038,15.3837623 134.25276,15.3837623 C135.623245,15.3837623 136.452749,16.3094408 136.452749,17.7039695 L136.452749,21.7432938 L135.406852,21.7432938 L135.406852,17.8963182 C135.406852,16.9045198 134.907948,16.3094408 133.928171,16.3094408 C132.888286,16.3094408 132.245119,17.0187269 132.245119,18.1006888 L132.245119,21.7432938 L131.199223,21.7432938 Z M142.339022,19.9520458 L143.366886,19.9520458 C143.186559,21.0460295 142.128641,21.85149 140.764167,21.85149 C138.972919,21.85149 137.884946,20.6072338 137.884946,18.6416698 C137.884946,16.7001493 138.990951,15.3837623 140.716079,15.3837623 C142.405142,15.3837623 143.445028,16.6099858 143.445028,18.5034191 L143.445028,18.9001384 L138.960897,18.9001384 L138.960897,18.9602474 C138.960897,20.1564164 139.664172,20.9438442 140.78821,20.9438442 C141.581649,20.9438442 142.164706,20.541114 142.339022,19.9520458 Z M140.698047,16.2914081 C139.71827,16.2914081 139.033028,17.0427705 138.966908,18.0826561 L142.363066,18.0826561 C142.339022,17.0367596 141.683834,16.2914081 140.698047,16.2914081 Z M62.1073591,43.006577 L60.5926125,38.5311893 L54.2811682,38.5311893 L52.7664215,43.006577 L50.0926642,43.006577 L56.0713233,26.4476422 L58.8483588,26.4476422 L64.8270179,43.006577 L62.1073591,43.006577 Z M57.4024643,29.201727 L54.9352633,36.4656257 L59.9385173,36.4656257 L57.4713164,29.201727 L57.4024643,29.201727 Z M73.2012935,30.7394244 C76.2652129,30.7394244 78.2848751,33.1492486 78.2848751,36.9705412 C78.2848751,40.7918339 76.2766882,43.2131334 73.247195,43.2131334 C71.5144166,43.2131334 70.1373742,42.3639573 69.448853,41.0213409 L69.3914762,41.0213409 L69.3914762,47 L66.9127999,47 L66.9127999,30.9345054 L69.3111488,30.9345054 L69.3111488,33.0115443 L69.3570502,33.0115443 C70.0685221,31.6230266 71.4570398,30.7394244 73.2012935,30.7394244 Z M72.5471984,41.1131438 C74.5094838,41.1131438 75.7373466,39.5065943 75.7373466,36.9705412 C75.7373466,34.4459635 74.5094838,32.8279387 72.5471984,32.8279387 C70.6537651,32.8279387 69.3800009,34.4803895 69.3800009,36.9705412 C69.3800009,39.4836436 70.6422898,41.1131438 72.5471984,41.1131438 Z M87.0378374,30.7394244 C90.1017567,30.7394244 92.1214189,33.1492486 92.1214189,36.9705412 C92.1214189,40.7918339 90.1132321,43.2131334 87.0837388,43.2131334 C85.3509605,43.2131334 83.9739181,42.3639573 83.2853969,41.0213409 L83.2280201,41.0213409 L83.2280201,47 L80.7493438,47 L80.7493438,30.9345054 L83.1476926,30.9345054 L83.1476926,33.0115443 L83.193594,33.0115443 C83.9050659,31.6230266 85.2935837,30.7394244 87.0378374,30.7394244 Z M86.3837423,41.1131438 C88.3460277,41.1131438 89.5738905,39.5065943 89.5738905,36.9705412 C89.5738905,34.4459635 88.3460277,32.8279387 86.3837423,32.8279387 C84.490309,32.8279387 83.2165448,34.4803895 83.2165448,36.9705412 C83.2165448,39.4836436 84.4788336,41.1131438 86.3837423,41.1131438 Z M99.4716559,38.393485 L102.007709,38.393485 C102.191315,40.0344605 103.786389,41.1131438 105.966706,41.1131438 C108.05522,41.1131438 109.558491,40.0344605 109.558491,38.55414 C109.558491,37.2689004 108.651939,36.5000517 106.506048,35.9721855 L104.360156,35.4557946 C101.319188,34.721372 99.9077194,33.2984282 99.9077194,30.9918821 C99.9077194,28.1345192 102.397871,26.1722338 105.93228,26.1722338 C109.432263,26.1722338 111.830611,28.1345192 111.910939,30.9918821 L109.409312,30.9918821 C109.260132,29.3394313 107.894565,28.3410755 105.897854,28.3410755 C103.901142,28.3410755 102.535575,29.3509066 102.535575,30.8197518 C102.535575,31.9902379 103.407702,32.6787591 105.542118,33.2066253 L107.366699,33.6541641 C110.763404,34.4574388 112.174872,35.8230059 112.174872,38.2443054 C112.174872,41.3426508 109.707671,43.2819855 105.7831,43.2819855 C102.110987,43.2819855 99.6323109,41.3885522 99.4716559,38.393485 Z M115.465566,28.0771424 L117.955718,28.0771424 L117.955718,30.9345054 L120.250789,30.9345054 L120.250789,32.8967908 L117.955718,32.8967908 L117.955718,39.5524957 C117.955718,40.5967529 118.414732,41.0672423 119.424563,41.0672423 C119.677021,41.0672423 120.078658,41.0442916 120.239313,41.0098656 L120.239313,42.972151 C119.963905,43.0410031 119.413088,43.0869045 118.862271,43.0869045 C116.418021,43.0869045 115.465566,42.1574009 115.465566,39.8279042 L115.465566,32.8967908 L113.709837,32.8967908 L113.709837,30.9345054 L115.465566,30.9345054 L115.465566,28.0771424 Z M127.741462,43.2360841 C124.287381,43.2360841 122.015261,40.860686 122.015261,36.9705412 C122.015261,33.0918718 124.298856,30.7164737 127.741462,30.7164737 C131.184068,30.7164737 133.467663,33.0918718 133.467663,36.9705412 C133.467663,40.860686 131.195543,43.2360841 127.741462,43.2360841 Z M127.741462,41.1934712 C129.692272,41.1934712 130.943086,39.6557739 130.943086,36.9705412 C130.943086,34.2967839 129.680797,32.7590865 127.741462,32.7590865 C125.802127,32.7590865 124.539838,34.2967839 124.539838,36.9705412 C124.539838,39.6557739 125.802127,41.1934712 127.741462,41.1934712 Z M135.943607,43.006577 L135.943607,30.9345054 L138.30753,30.9345054 L138.30753,32.9885936 L138.364907,32.9885936 C138.766544,31.5771252 139.845228,30.7394244 141.268171,30.7394244 C141.623907,30.7394244 141.933742,30.7968011 142.117347,30.8312272 L142.117347,33.1377732 C141.922266,33.0574457 141.486203,33.000069 141.004238,33.000069 C139.409164,33.000069 138.422284,34.0672768 138.422284,35.7771045 L138.422284,43.006577 L135.943607,43.006577 Z M152.212926,39.4606929 L154.565374,39.4606929 C154.221113,41.6639607 152.132599,43.2360841 149.367039,43.2360841 C145.821154,43.2360841 143.675263,40.8377353 143.675263,37.027918 C143.675263,33.2410514 145.85558,30.7164737 149.26376,30.7164737 C152.614564,30.7164737 154.703078,33.0803964 154.703078,36.7410341 L154.703078,37.5902103 L146.17689,37.5902103 L146.17689,37.7393899 C146.17689,39.8393795 147.439179,41.2278973 149.424415,41.2278973 C150.835884,41.2278973 151.880141,40.5164254 152.212926,39.4606929 Z M149.26376,32.7131851 C147.530982,32.7131851 146.314595,34.0328508 146.188366,35.8574319 L152.224402,35.8574319 C152.167025,34.0099001 150.996539,32.7131851 149.26376,32.7131851 Z" id="Combined-Shape" fill="#616161" mask="url(#mask-2)"></path>
                    </g>
                </g>
            </g>
        </g>
    </g>
</svg>