<?xml version="1.0" encoding="UTF-8"?>
<svg width="547px" height="809px" viewBox="0 0 547 809" version="1.1" xmlns="http://www.w3.org/2000/svg" xmlns:xlink="http://www.w3.org/1999/xlink">
    <!-- Generator: Sketch 52.5 (67469) - http://www.bohemiancoding.com/sketch -->
    <title>Group 3</title>
    <desc>Created with Sketch.</desc>
    <defs>
        <rect id="path-1" x="0" y="0" width="251" height="516" rx="36.4499981"></rect>
        <filter x="-28.7%" y="-7.8%" width="149.4%" height="124.0%" filterUnits="objectBoundingBox" id="filter-2">
            <feOffset dx="-10" dy="22" in="SourceAlpha" result="shadowOffsetOuter1"></feOffset>
            <feGaussianBlur stdDeviation="17" in="shadowOffsetOuter1" result="shadowBlurOuter1"></feGaussianBlur>
            <feColorMatrix values="0 0 0 0 0   0 0 0 0 0   0 0 0 0 0  0 0 0 0.1 0" type="matrix" in="shadowBlurOuter1"></feColorMatrix>
        </filter>
        <rect id="path-3" x="0" y="0" width="319" height="504"></rect>
    </defs>
    <g id="Templates-🖥📱" stroke="none" stroke-width="1" fill="none" fill-rule="evenodd">
        <g id="Web—Hero" transform="translate(-568.000000, -40.000000)">
            <g id="Group-3" transform="translate(610.000000, 40.000000)">
                <g id="Background" opacity="0.2" transform="translate(45.000000, 0.000000)">
                    <circle id="Oval" fill="#FF9B21" cx="230" cy="293" r="230"></circle>
                    <circle id="Oval" fill="#2B44FF" cx="370" cy="768" r="41"></circle>
                    <polygon id="Polygon" fill="#2B44FF" points="192 0 241 49 192 98 143 49"></polygon>
                    <polygon id="Polygon" fill="#FF9B21" points="56 690 80 714 56 738 32 714"></polygon>
                    <polygon id="Polygon" fill="#2026A2" points="403 63 415 75 403 87 391 75"></polygon>
                </g>
                <g id="Group-4" transform="translate(0.000000, 107.000000)">
                    <g id="Group" transform="translate(177.901120, 263.740848) rotate(-2.000000) translate(-177.901120, -263.740848) translate(8.901120, 5.740848)">
                        <g id="base">
                            <use fill="black" fill-opacity="1" filter="url(#filter-2)" xlink:href="#path-1"></use>
                            <use fill="#F2F2F2" fill-rule="evenodd" xlink:href="#path-1"></use>
                        </g>
                        <path d="M64,11 L64,15.0510368 C64,22.6559974 70.1650387,28.8210361 77.7699993,28.8210361 L173.193622,28.8210361 C180.798583,28.8210361 186.963622,22.6559974 186.963622,15.0510368 L186.963622,11 L214.974051,11 C228.39457,11 239.27405,21.87948 239.27405,35.2999987 L239.27405,480.018683 C239.27405,493.439201 228.39457,504.318681 214.974051,504.318681 L35.2999987,504.318681 C21.87948,504.318681 11,493.439201 11,480.018683 L11,35.2999987 C11,21.87948 21.87948,11 35.2999987,11 L64,11 Z" id="Screen" fill="#1F28CF"></path>
                        <g id="Illustration" transform="translate(19.000000, 0.000000)">
                            <mask id="mask-4" fill="white">
                                <use xlink:href="#path-3"></use>
                            </mask>
                            <g id="Mask"></g>
                            <g id="Group-2" mask="url(#mask-4)">
                                <g transform="translate(95.661351, 292.383540) rotate(14.000000) translate(-95.661351, -292.383540) translate(-178.838649, -79.116460)">
                                    <g id="Head/Front/Pony" transform="translate(377.354010, 137.253248) rotate(32.000000) translate(-377.354010, -137.253248) translate(261.040537, 48.427003)">
                                        <g id="Head" stroke-width="1" transform="translate(92.514706, 53.057692)" fill="#B28B67">
                                            <path d="M14.1552192,59.0311785 C6.26078598,49.7738933 0.917668434,38.4289628 1.81050651,25.7166422 C4.38302163,-10.9110929 55.4206444,-2.85345785 65.3485187,15.6330775 C75.276393,34.1196128 74.0967034,81.0122429 61.2658105,84.3163024 C56.1488681,85.6339568 45.2482594,82.4062312 34.1539829,75.7258314 L41.1176471,124.942308 L0,124.942308 L14.1552192,59.0311785 Z"></path>
                                        </g>
                                        <path d="M120.900825,109.513351 C115.802068,119.29077 108.750195,126.653846 101.70508,126.653846 C88.3234859,126.653846 78.8088235,108.780728 78.8088235,89.5640695 C78.8088235,88.8888966 78.8222148,88.2182152 78.8486367,87.5525431 C64.6932973,97.2566424 53.7839514,116.384615 35.0540713,116.384615 C9.57223819,116.384615 -0.547660075,65.0384615 35.0540713,65.0384615 C59.2659537,65.0384615 71.1756342,68.5650541 81.4394519,73.7800533 C83.4638107,68.0787287 86.5506243,63.2853134 90.3251842,59.9379079 C91.2332351,58.9167235 92.625379,57.9396891 94.4213995,57.0339285 C95.5194158,56.4337755 96.655668,55.9449748 97.8234652,55.577135 C104.013436,53.3046452 112.979223,51.7017937 122.994195,51.3524096 C124.86431,51.2871684 126.700982,51.2680771 128.492731,51.292127 C128.521891,41.8644069 136.181096,34.2307692 145.625,34.2307692 C155.086937,34.2307692 162.757353,41.8935879 162.757353,51.3461538 C162.757353,60.4876373 155.583494,67.9552358 146.553142,68.43685 C141.387326,70.0292272 134.750177,71.1983822 127.389646,71.6914089 C128.104278,74.3761949 128.492647,77.4262129 128.492647,80.8728661 C128.492647,83.9162258 128.156407,87.1438747 127.537275,90.4211092 C125.940863,88.5254787 123.806269,87.2884615 121.639706,87.2884615 C115.579023,87.2884615 111.360294,92.2692937 111.360294,97.5576923 C111.360294,104.269498 115.238868,109.124999 120.900825,109.513351 Z" id="hair" fill="#191847"></path>
                                    </g>
                                    <g id="Bottom/Standing/Skirt" transform="translate(0.546497, 333.278012)">
                                        <path d="M166.567381,167.857834 C207.589166,179.340381 242.981522,185.081655 272.74445,185.081655 C302.507378,185.081655 330.152561,176.240195 355.68,158.557276 C315.536452,146.771486 282.476452,140.878592 256.5,140.878592 C230.523548,140.878592 200.546008,149.871673 166.567381,167.857834 Z" id="Skirt-Shadow" fill="#1F28CF"></path>
                                        <path d="M308.256289,201.632426 C307.860741,201.037336 307.526699,200.389997 307.261745,199.688776 C301.778469,185.176869 213.949873,28.6223567 205.2,0 L304.082609,0 C310.735262,21.761982 340.6782,158.328794 344.892158,185.575885 C358.187968,228.555222 385.562713,367.749603 389.057324,377.392564 C392.733596,387.536795 372.048435,398.104462 366.536326,385.633387 C357.765631,365.789801 336.867689,310.882956 327.562701,277.35722 C318.839295,245.926914 311.736113,217.650464 308.256289,201.632426 Z" id="Leg" fill="#997659"></path>
                                        <path d="M227.356576,220.746362 C187.202786,230.902702 40.3286891,249.263568 30.2495453,252.143423 C19.881251,255.105896 10.7902408,233.718308 23.6060126,229.085394 C43.9980693,221.713645 100.187416,204.680905 134.25522,197.73018 C161.657298,192.139438 186.662031,187.577399 203.44955,184.90592 C202.02735,137.713963 195.526112,24.4605026 199.787315,1.42108547e-14 L287.28,1.42108547e-14 C283.193793,23.4559773 248.651292,194.604791 242.231076,211.736303 C240.193613,217.852368 234.114251,220.555217 227.356576,220.746362 Z" id="Leg" fill="#B28B67"></path>
                                        <g id="Accessories/Shoe/Flat-Sneaker" transform="translate(41.895000, 268.673640) rotate(80.000000) translate(-41.895000, -268.673640) translate(-10.260000, 234.447699)" fill="#E4E4E4">
                                            <path d="M5.12288128,41.7336645 C2.84423912,47.5426929 1.70491803,51.8246848 1.70491803,54.5796404 C1.70491803,57.645227 2.21709963,62.1186802 3.24146282,68 C6.80804659,68 38.8615355,68 99.4019295,68 C101.900799,59.7626623 100.458307,55.3155888 95.0744521,54.6587794 C89.6905975,54.0019699 85.218138,53.4089236 81.6570736,52.8796404 L36.2987449,32.7170011 C35.7940747,32.4926655 35.2030988,32.7199217 34.9787633,33.2245919 C34.9752088,33.2325881 34.9717595,33.2406307 34.9684161,33.2487174 L31.8192486,40.8657816 C26.8352073,43.1845087 22.7851564,44.3438722 19.6690957,44.3438722 C16.8913141,44.3438722 12.9523133,43.1165339 7.85209321,40.6618573 L7.85208449,40.6618754 C6.85680042,40.1828567 5.66164191,40.6013725 5.18262326,41.5966566 C5.1610091,41.6415656 5.1410812,41.6872668 5.12288128,41.7336645 Z" id="shoe"></path>
                                        </g>
                                        <g id="Accessories/Shoe/Flat-Sneaker" transform="translate(355.680000, 340.548117)" fill="#E4E4E4">
                                            <path d="M5.12288128,41.7336645 C2.84423912,47.5426929 1.70491803,51.8246848 1.70491803,54.5796404 C1.70491803,57.645227 2.21709963,62.1186802 3.24146282,68 C6.80804659,68 38.8615355,68 99.4019295,68 C101.900799,59.7626623 100.458307,55.3155888 95.0744521,54.6587794 C89.6905975,54.0019699 85.218138,53.4089236 81.6570736,52.8796404 L36.2987449,32.7170011 C35.7940747,32.4926655 35.2030988,32.7199217 34.9787633,33.2245919 C34.9752088,33.2325881 34.9717595,33.2406307 34.9684161,33.2487174 L31.8192486,40.8657816 C26.8352073,43.1845087 22.7851564,44.3438722 19.6690957,44.3438722 C16.8913141,44.3438722 12.9523133,43.1165339 7.85209321,40.6618573 L7.85208449,40.6618754 C6.85680042,40.1828567 5.66164191,40.6013725 5.18262326,41.5966566 C5.1610091,41.6415656 5.1410812,41.6872668 5.12288128,41.7336645 Z" id="shoe"></path>
                                        </g>
                                        <path d="M200.07,7.10542736e-15 C238.625095,-11.0391309 275.105095,-11.0391309 309.51,7.10542736e-15 C321.48,54.6544958 350.565287,76.3469076 355.68,160.141342 C297.54,189.051649 225.72,139.522832 165.87,167.716202 C148.77,128.280723 172.71,33.3095728 200.07,7.10542736e-15 Z" id="Skirt" fill="#2B44FF"></path>
                                    </g>
                                    <g id="Body/Jacket" transform="translate(286.697921, 336.258201) rotate(21.000000) translate(-286.697921, -336.258201) translate(67.754912, 176.541779)">
                                        <path d="M331.997857,152.03252 L380.465131,199.174618 C394.567321,205.172177 406.122057,211.794694 415.129339,219.042169 C417.154942,221.478291 419.36014,226.146029 409.829779,224.057283 C400.299419,221.968538 390.180693,220.19884 388.389479,223.289026 C386.598265,226.379212 391.876223,231.114475 388.565838,235.158733 C386.358914,237.854905 378.936857,229.278909 366.299666,209.430746 L315.900112,179.804208 L331.997857,152.03252 Z M116.870596,158.680991 L152.624727,158.82118 C130.548201,229.877437 118.630157,267.579442 116.870596,271.927195 C112.911583,281.709638 121.289386,296.608131 124.872067,304.614469 C113.203394,309.820426 114.446704,290.540643 99.7269863,297.368546 C86.2915108,303.600738 76.071178,314.893054 60.5484274,305.343339 C58.6399965,304.169258 56.548667,299.74863 61.6015833,296.294143 C74.1902405,287.687757 92.3312581,272.625029 94.7823953,267.667016 C98.1249587,260.905879 105.487692,224.577204 116.870596,158.680991 Z" id="Skin" fill="#B28B67"></path>
                                        <path d="M208.79602,15.7677718 L223.313895,11.9578473 C254.217972,72.9385885 303.543697,126.488598 371.291071,172.607877 L328.575861,234.663044 C258.920468,166.65 213.312431,94.1819697 208.79602,15.7677718 Z" id="Coat-Back" fill="#191847" transform="translate(290.043546, 123.310445) rotate(5.000000) translate(-290.043546, -123.310445) "></path>
                                        <path d="M153.984375,194.470588 L285.726562,194.470588 C255.204925,120.478192 239.944107,57.6225285 239.944107,5.90359874 L200.203997,0 C168.972004,50.0819881 160.152007,111.743056 153.984375,194.470588 Z" id="Shirt" fill="#DDE3E9"></path>
                                        <path d="M199.362603,0.0280103612 C199.367821,0.0186719508 199.373038,0.00933516358 199.378255,5.17840059e-16 L201.972326,-4.26356761e-14 C205.076356,0.10657182 209.804194,0.298582113 216.155837,0.57603088 L225.758474,27.9370307 C226.77422,61.2964861 232.706022,128.52479 243.553881,229.621942 L157.194233,229.621942 C157.420624,236.604306 157.793907,243.651893 158.314082,250.764706 L94.1015625,250.764706 C103.706623,142.720879 138.783101,59.1326433 199.330999,1.42108547e-14 L199.362603,0.0280103503 Z" id="Coat-Front" fill="#2F3676"></path>
                                        <path d="M162.898753,140.279996 C165.356537,183.805228 171.510078,213.809935 181.359375,230.294118 L157.216474,230.294118 C156.159507,198.978987 158.0536,168.974315 162.898751,140.280008 Z" id="Shade" fill-opacity="0.1" fill="#000000"></path>
                                        <polygon id="Light" fill-opacity="0.2" fill="#FFFFFF" points="176.416304 177.411765 219 157.673464 219 177.411765"></polygon>
                                    </g>
                                </g>
                            </g>
                        </g>
                    </g>
                    <g id="Group" transform="translate(327.500000, 372.500000) scale(-1, 1) translate(-327.500000, -372.500000) translate(174.000000, 151.000000)">
                        <g id="Head/Front/Curly" transform="translate(110.762628, 77.514119) rotate(-27.000000) translate(-110.762628, -77.514119) translate(42.762628, 25.514119)">
                            <g id="Head" stroke-width="1" transform="translate(54.000000, 31.000000)" fill="#B28B67">
                                <path d="M8.26227388,34.4901268 C3.65436435,29.0813759 0.535634794,22.4528771 1.05677633,15.0254539 C2.55833022,-6.37502057 32.3485306,-1.66718886 38.1433414,9.13393292 C43.9381521,19.9350547 43.249578,47.3329958 35.7603014,49.2634576 C32.7735882,50.033323 26.4110012,48.1474609 19.935372,44.244306 L24,73 L0,73 L8.26227388,34.4901268 Z"></path>
                            </g>
                            <path d="M102.7757,25.1604378 C102.27871,23.413499 100.941932,21.9177553 99.1403997,21.4740102 C98.7035309,21.3663739 98.2523568,21.3228991 97.8028308,21.3410245 C97.6415842,21.3474604 97.5963613,21.3939561 97.5210118,21.2811974 C97.4651095,21.197597 97.463857,20.9933574 97.44085,20.8951122 C97.3692581,20.5896064 97.2797352,20.2879096 97.169249,19.9940277 C96.7923038,18.9916772 96.1588538,18.1045809 95.3952068,17.3573001 C93.9668625,15.9592762 92.0369134,14.9944243 90.0318126,14.8198684 C88.9343996,14.7243814 87.8449632,14.9026807 86.8074738,15.2596732 C86.2703367,15.444474 85.7494825,15.6745884 85.2422083,15.9290015 C85.0894658,16.0055749 84.5939258,16.3806273 84.4406558,16.3563287 C84.2713667,16.3295345 83.9311403,15.9088402 83.793494,15.8032397 C82.0920984,14.4978789 79.9910802,13.9846529 77.8718674,14.0003485 C75.4798671,14.0180142 73.1765325,14.1375371 71.1815838,15.5957165 C70.7592838,15.9044402 70.3570902,16.2424535 69.974146,16.5983297 C69.7724889,16.7856917 69.5771603,16.9800806 69.3908631,17.1825471 C69.2784651,17.3046969 69.1690337,17.4296049 69.0636894,17.5578621 C68.8849074,17.7755645 68.9135837,17.8470813 68.6633416,17.6951821 C67.7032454,17.1118841 66.5906702,16.8390829 65.4700524,16.976797 C64.80463,17.0586242 64.1572045,17.2583982 63.5424765,17.5213485 C63.3331724,17.6108594 62.8487074,17.9679176 62.6256255,17.9713982 C62.4043234,17.9748132 61.9266485,17.6438267 61.6986882,17.5597009 C60.4674524,17.1051856 59.1403652,16.9931493 57.8462393,17.2031681 C56.5113072,17.4198854 55.1999755,17.9524847 54.068942,18.6884699 C53.524949,19.0425073 53.0503065,19.4347656 52.6690763,19.9611918 C52.5044676,20.1884823 52.3556804,20.4289072 52.1691195,20.6396484 C52.0598858,20.7630459 51.8435939,20.8896614 51.7849887,21.0458292 C51.8200595,20.9523124 50.3250675,20.3759756 50.1839932,20.3391337 C49.43241,20.1428403 48.6671149,20.1826375 47.9311554,20.4248355 C46.5472429,20.8802703 45.3570768,21.9016 44.3789178,22.9487388 C43.8765219,23.4865919 43.4368843,24.0811198 43.0636966,24.7145254 C42.8848487,25.0179297 42.7212948,25.3300027 42.5716506,25.6487085 C42.4991357,25.8031032 42.4510782,25.9962443 42.3555564,26.1353375 C42.232413,26.3145561 42.1496802,26.3179711 41.9266642,26.3961207 C40.7940485,26.7929104 39.7615692,27.4645372 38.9753108,28.3720574 C38.1800209,29.2902166 37.663979,30.42089 37.4476212,31.6115877 C37.4348981,31.6817253 37.427317,31.9723892 37.3862473,32.0103476 C37.3299494,32.0626224 37.1021869,32.0395059 37.0160261,32.0496194 C36.7176606,32.0846225 36.4214046,32.1367003 36.1291039,32.2059185 C35.5902528,32.3334534 35.0657729,32.5211438 34.5696396,32.7666254 C32.6356033,33.723531 31.2525478,35.5174909 30.5756549,37.5361144 C29.8654051,39.6545592 29.8779963,42.0815964 30.7268813,44.1605068 C30.8640002,44.4962873 31.0271586,44.8222171 31.2187955,45.1305467 C31.3364672,45.3198132 31.3744386,45.3202729 31.2980344,45.5188648 C31.2128624,45.7397851 31.0572852,45.9544667 30.9561599,46.1703303 C30.6262175,46.874793 30.3955544,47.6219424 30.2498656,48.3850501 C30.0108303,49.6368226 29.8923675,50.9522969 30.1281725,52.2135918 C30.2376699,52.799254 30.4284498,53.3717818 30.7194979,53.8934139 C30.8678896,54.1593852 31.0415297,54.411631 31.2375834,54.6449634 C31.3393678,54.7661281 31.4474808,54.881842 31.5605381,54.9926962 C31.6252081,55.0560039 31.7099845,55.111431 31.7649639,55.1821597 C31.8991823,55.3546142 31.9273971,55.2128285 31.8581785,55.4660594 C31.7614041,55.8200967 31.5420138,56.1694057 31.4076636,56.5139206 C31.2692262,56.868943 31.1441052,57.2288251 31.0296636,57.5922535 C30.7978799,58.3281731 30.6018921,59.077424 30.479342,59.8395467 C30.2439984,61.3027828 30.2853319,62.8618999 30.9774529,64.204825 C31.2733793,64.7792573 31.6979207,65.2831579 32.2128419,65.6751536 C32.4648638,65.8669157 32.7378492,66.0322119 33.0242168,66.1679557 C33.171356,66.2378307 33.3592353,66.2677771 33.4263445,66.4100881 C33.4985956,66.5631037 33.3913396,66.8669677 33.3668823,67.038043 C33.1540843,68.5263001 33.0473557,70.0888978 33.489762,71.5473398 C33.8972294,72.890659 34.7943696,74.0766939 35.9591555,74.8619331 C38.2187834,76.3851933 41.2646697,76.2992944 43.6389369,75.0798325 C44.257818,74.7619147 44.8368159,74.3672265 45.3533193,73.9016782 C46.6685404,75.6721932 49.3749915,75.6161751 51.2972276,75.1116834 C53.6920627,74.4832031 55.6137056,72.8179602 56.7208751,70.6300344 C58.2347869,72.4729856 61.411991,71.8750427 62.4618079,69.8757268 C62.718774,69.3864053 62.871187,68.8471075 62.9462069,68.3013738 C62.9856945,68.0143875 62.9605121,67.7249057 62.9901773,67.4402179 C63.0280168,67.0774462 63.2703482,66.7249193 63.4096426,66.3739686 C63.6809139,65.6909806 63.8493461,64.9854671 63.8565976,64.2487595 C63.8603552,63.8641191 63.8116384,63.4892637 63.7750514,63.1077099 C63.742156,62.7642457 63.8374141,62.4442264 63.8915365,62.105228 C63.277336,62.2063627 62.5290489,62.0407382 61.9503806,61.8626359 C61.3825236,61.6878829 60.8506603,61.2275884 60.4498511,60.8072225 C59.5192222,59.831075 58.950706,58.5514576 58.5618947,57.2778821 C57.7083952,54.4826224 58.0582462,51.1289544 60.8697779,49.5948583 C62.1795274,48.8802164 66.1033718,48.8825605 67.6633416,49.2357609 C69.3035816,49.6071356 71.1630595,53.2263842 71.25456,53.5665648 C71.3111875,53.7771089 71.282709,54.0376951 71.4761258,54.1779703 C71.9011945,54.4864314 72.6022151,53.9511395 72.9157428,53.6869414 C73.4567694,53.2309812 73.8426801,52.624304 74.1769075,52.0093522 C74.9051541,50.669645 75.4922605,49.2329403 75.9069794,47.7662893 C76.2267038,46.6355502 76.4311297,45.4695452 76.8490129,44.367636 C77.2648524,43.2711776 77.9203865,42.2911555 78.9396153,41.6700305 C80.048367,40.9943321 81.3192882,40.638456 82.5364825,40.2138213 C83.7429973,39.7929956 84.9286806,39.2786532 85.8639241,38.385712 C86.0695366,38.189353 86.269282,37.9807133 86.4348135,37.7495481 C86.5654721,37.5670459 86.6946144,37.2176712 86.8937005,37.1019573 C87.203207,36.9219506 87.6549084,37.39006 87.9225541,37.560019 C89.2429831,38.3986494 90.3446151,39.5682663 91.2331195,40.8459792 C92.1166797,42.1167309 92.841683,43.3394764 93.430833,44.7584496 C93.8678337,45.8108422 94.1405685,47.158627 94.9091597,48.0210964 C95.2522867,48.4061965 97.8028308,48.6391716 98.6289725,48.3029602 C99.4551141,47.9667489 100.380997,47.0937432 100.658267,46.5466304 C100.942129,45.9866459 101.009964,45.371497 100.888666,44.7584496 C100.817338,44.3977794 100.671649,44.0608825 100.591949,43.7066481 C100.52484,43.4090887 100.463927,43.1278158 100.319095,42.8552117 C100.044594,42.3386363 99.5756205,41.9673273 99.0100708,41.8120789 C99.5986275,41.2694318 100.086323,40.6202648 100.42378,39.8945901 C100.774422,39.1406764 101.071601,38.2238307 101.155916,37.3963645 C101.224476,36.7242781 101.11867,36.0279587 100.750756,35.4503742 C100.36478,34.844485 99.6810307,34.4492057 99.0894416,34.0712638 C99.9931082,33.3642399 100.766512,32.5043974 101.402335,31.5524173 C102.638845,29.7011258 103.403678,27.3675397 102.7757,25.1604378 Z" id="hair" fill="#191847"></path>
                        </g>
                        <g id="Bottom/Standing/Baggy-Pants" transform="translate(7.000000, 204.000000)">
                            <polygon id="Leg" fill="#997659" points="134 0 183.081639 124.226909 216.000898 229.25029 229 229.25029 178.673688 5.090379e-13"></polygon>
                            <path d="M124.116628,0 C123.593979,43.6541888 115.971833,102.427468 114.754071,105.148648 C113.942229,106.962768 85.9161573,130.032465 30.6758546,174.357739 L39.6290713,183.938736 C104.807511,145.935376 138.9048,124.399339 141.920937,119.330628 C146.445143,111.72756 161.1744,41.763137 173,0 L124.116628,0 Z" id="Leg" fill="#B28B67"></path>
                            <g id="Accessories/Shoe/Flat-Sneaker" transform="translate(51.500000, 189.000000) rotate(50.000000) translate(-51.500000, -189.000000) translate(21.000000, 169.000000)" fill="#E4E4E4">
                                <path d="M2.67813181,25.4019242 C1.55937727,28.3884109 1,30.6229931 1,32.1056708 C1,33.908957 1.3004142,36.5404001 1.90124261,40 C3.99318117,40 22.7937852,40 58.3030548,40 C59.768738,35.1545073 58.9226607,32.5385816 55.7648228,32.1522232 C52.606985,31.7658647 49.9837155,31.4170139 47.8950143,31.1056708 L21.6799926,19.4188835 C21.1755635,19.1940064 20.584344,19.4206282 20.359467,19.9250573 C20.35562,19.9336867 20.3518954,19.9423702 20.3482945,19.9511052 L18.6632131,24.038695 C15.7398812,25.4026522 13.3643706,26.0846307 11.5366811,26.0846307 C10.0517269,26.0846307 8.00099246,25.4849054 5.38447792,24.2854549 L5.38448339,24.285443 C4.38038273,23.8251478 3.19325534,24.2659892 2.73296014,25.2700899 C2.71312074,25.3133681 2.69483298,25.3573409 2.67813181,25.4019242 Z" id="shoe"></path>
                            </g>
                            <g id="Accessories/Shoe/Flat-Sneaker" transform="translate(208.000000, 199.000000)" fill="#E4E4E4">
                                <path d="M2.67813181,25.4019242 C1.55937727,28.3884109 1,30.6229931 1,32.1056708 C1,33.908957 1.3004142,36.5404001 1.90124261,40 C3.99318117,40 22.7937852,40 58.3030548,40 C59.768738,35.1545073 58.9226607,32.5385816 55.7648228,32.1522232 C52.606985,31.7658647 49.9837155,31.4170139 47.8950143,31.1056708 L21.6799926,19.4188835 C21.1755635,19.1940064 20.584344,19.4206282 20.359467,19.9250573 C20.35562,19.9336867 20.3518954,19.9423702 20.3482945,19.9511052 L18.6632131,24.038695 C15.7398812,25.4026522 13.3643706,26.0846307 11.5366811,26.0846307 C10.0517269,26.0846307 8.00099246,25.4849054 5.38447792,24.2854549 L5.38448339,24.285443 C4.38038273,23.8251478 3.19325534,24.2659892 2.73296014,25.2700899 C2.71312074,25.3133681 2.69483298,25.3573409 2.67813181,25.4019242 Z" id="shoe"></path>
                            </g>
                            <polygon id="Pant" fill="#69A1AC" points="167 218.432889 228.804464 211.725327 183 2.84217094e-14 127.644073 2.84217094e-14"></polygon>
                            <path d="M43.4599581,158.900479 L84,206.885961 C126.699953,160.249961 151.594137,129.819963 158.682552,115.595966 C165.770967,101.37197 172.143091,62.839981 177.798925,0 L115.478146,0 C112.388642,55.2838742 110.306102,84.2121259 109.230525,86.7847551 C108.154948,89.3573843 86.2314253,113.395959 43.4599581,158.900479 Z" id="Pant" fill="#89C5CC"></path>
                        </g>
                        <g id="Body/Jacket-2" transform="translate(147.288204, 196.692459) rotate(-14.000000) translate(-147.288204, -196.692459) translate(19.288204, 103.192459)">
                            <path d="M198,77.6170876 L234.234567,61.7041739 C240.582018,55.3790221 246.711387,50.5716141 252.622674,47.2819501 C254.390261,46.7192094 257.410101,46.5491987 254.188168,51.2551684 C250.966235,55.961138 247.78889,61.0560141 249.076289,62.7052963 C250.363689,64.3545786 254.093006,62.5342201 255.566345,65.2162765 C256.548571,67.0043141 250.262286,69.1431805 236.707491,71.6328758 L209.56994,92.4392868 L198,77.6170876 Z M51.5082829,82 L72,86.0658446 C51.3920824,124.471059 40.3404263,144.825845 38.8450319,147.130202 C35.4803944,152.315007 38.6196693,161.817238 39.7793043,166.821179 C32.5044044,168.51462 35.3734014,157.565005 26.1671562,159.851185 C17.7641225,161.937904 10.6393632,167.293169 2.8038784,160.07074 C1.84055159,159.182785 1.13535082,156.407288 4.41981989,154.983749 C12.6026301,151.437195 24.6920431,144.796343 26.6523424,142.218096 C29.3255608,138.702197 37.6108743,118.629498 51.5082829,82 Z" id="Skin" fill="#B28B67"></path>
                            <path d="M123.280247,9.87718027 L131.765198,7.64600959 C152.120135,24.2050747 163.602366,67.2616718 176.61267,71.9556463 C188.913385,76.3936093 205.208593,69.6320097 224.503164,60.7390322 L231.796052,73.8353428 C215.409826,95.0000245 178.298612,114.916545 161.84294,106.839809 C135.533742,93.9267871 125.046804,40.501408 123.280247,9.87718027 Z" id="Coat-Back" fill="#DB2721" transform="translate(177.538150, 58.161768) rotate(5.000000) translate(-177.538150, -58.161768) "></path>
                            <path d="M90,114 C124.671756,114 150.175573,114 166.511451,114 C170.007634,114 169.348845,108.951637 168.84345,106.404206 C163.010588,77.0037663 140.241304,45.3115155 140.241304,3.4607303 L118.1718,0 C99.917485,29.3584068 93.6048263,65.5045499 90,114 Z" id="Shirt" fill="#DDE3E9"></path>
                            <path d="M82.3687546,84.2331696 C66.7713811,112.367832 53.6609446,132.623442 43.0374452,145 L27,141.85882 C37.3305927,77.7906722 67.2466105,30.5043988 116.748053,3.81764932e-14 L117,2.9470116e-14 L125.486398,0 C145.298923,67.5369477 150.760885,112.536948 141.872285,135 L73,135 C74.0896281,118.56345 77.5833963,101.181199 82.3687561,84.2331662 Z" id="Coat-Front" fill="#FF4133"></path>
                        </g>
                    </g>
                </g>
            </g>
        </g>
    </g>
</svg>