<svg xmlns="http://www.w3.org/2000/svg" width="2500" height="1250" viewBox="-78 -89.333 600 300">
<path d="M-78-89.333h600v300H-78v-300z" fill="none"/>
<path d="M132.449 63.206v-.002.002zm274.43 24.881l.139.002c8.263 0 14.078-5.725 14.141-13.918.031-4.057-1.141-7.771-3.3-10.454-2.283-2.84-5.479-4.354-9.244-4.384h-.075c-5.081 0-9.799 3.855-14.424 11.787l-.368.633-.236-.69c-1.168-3.399-2.208-6.231-2.83-7.926-.436-1.182-.628-1.713-.674-1.885-.222-.858-.955-1.391-1.917-1.391-.591 0-1.219.201-1.813.579-.589.375-.918.833-1.036 1.445l-.03.092c-4.629 14.437-8.445 21.446-11.679 21.446-.47-.004-.838-.157-1.112-.463-.847-.936-.639-3.162-.351-6.244.211-2.264.452-4.827.352-7.547-.19-5.229-3.052-8.369-7.651-8.403-5.846-.002-9.634 6.224-11.379 9.935l-.521 1.106-.115-1.22c-.436-4.592-1.977-10.077-6.843-10.113-5.676 0-10 6.66-12.638 12.25l-.707 1.498.07-1.654c.313-7.455.57-11.857.765-13.078.192-1.225.091-2.047-.31-2.518-.38-.441-1.096-.604-2.146-.538-1.817.115-2.746 1.221-4.145 4.928-2.298 6.088-8.143 20.252-12.81 20.252-.926-.007-1.659-.322-2.196-.939-1.957-2.243-1.174-8.309-.091-16.702l.082-.635c.513-3.974-.361-4.822-2.52-5.219a3.717 3.717 0 0 0-.656-.064c-1.724 0-2.53 1.651-4.14 6.239-2.865 8.164-6.55 16.75-10.858 16.75-.158 0-.313-.012-.472-.037-2.283-.389-2.233-3.775-2.17-8.066.032-2.32.071-4.951-.286-7.326-.644-4.262-3.154-6.923-6.555-6.95-6.784 0-11.359 8.688-13.487 13.868l-.482 1.172-.161-1.258a116.746 116.746 0 0 1-.823-10.015l-.006-.125.077-.098c12.697-15.983 18.395-27.517 18.471-37.399.049-6.313-2.864-10.105-7.791-10.144-3.603 0-12.169 3.001-15.146 30.797a160.712 160.712 0 0 0-.9 15.708l-.002.104-.059.084c-5.809 8.408-18.207 22.871-30.345 22.871-10.967 0-19.717-8.873-19.717-24.535 0-20.996 14.861-33.887 26.045-33.887h.093c2.43.018 4.514.697 6.026 1.963 1.57 1.314 2.393 3.156 2.376 5.326-.022 2.899-.967 4.389-1.88 5.828-.233.371-.468.739-.682 1.129-.216.394-.413.965-.126 1.454.294.501 1.045.816 1.96.823 2.662 0 6.688-3.854 6.732-9.66.046-6.077-5.073-12.339-14.206-12.339-13.821 0-32.436 15.184-32.436 39.792 0 17.407 10.914 29.438 25.698 29.438 10.491 0 20.869-7.512 30.06-20.059l.563-.76.04.944c.195 4.593.528 8.211.771 10.854.157 1.699.271 2.926.267 3.603-.012 1.483.229 2.515.742 3.147.511.633 1.323.932 2.555.94 2.064 0 2.478-1.407 3.295-4.879l.235-.991c1.016-4.207 4.768-17.939 10.411-17.939.922.009 1.633.281 2.138.816 1.246 1.322 1.11 4.035.952 7.178-.1 1.961-.2 3.986-.004 5.959.531 5.326 2.831 7.931 7.03 7.961 4.312.002 8.812-4.643 11.187-8.959l.448-.813.175.914c.438 2.31 2.398 9.892 8.535 9.892 5.562 0 10.334-5.857 15.564-17.912l.685-1.574-.042 1.717c-.111 4.568-.358 10.146-.36 14.459-.002 3.336.335 4.609 1.877 4.609l.35.016c1.479 0 2.483-.883 2.984-2.629 3.936-13.717 7.337-20.105 10.707-20.105 3.3.025 3.609 6.059 3.874 16.721l.018.748c.08 3.729.215 5.379 2.531 5.396 1.758 0 2.195-1.381 3.104-4.781.174-.648.362-1.359.585-2.127 3.178-11.025 5.812-15.523 9.092-15.523 2.808.021 2.964 2.916 3.016 3.867.108 2.037-.102 4.17-.304 6.229-.189 1.914-.383 3.894-.31 5.733.172 4.312 2.532 6.705 6.648 6.736 5.342 0 10.164-6.248 14.387-18.566l.293-.858.335.845c.767 1.936 1.765 4.557 2.688 7.684l.035.119-.051.113c-4.09 9.08-6.975 19.194-7.016 24.598-.055 7.117 3.165 11.742 8.204 11.781h.087c2.741 0 9.13-1.101 9.254-11.285.051-4.174-.936-10.076-2.929-17.545l-.229-.855.735.49c2.553 1.689 5.422 2.592 8.308 2.616zM269.192 53.548c.114-2.552.329-5.037.634-7.387 1.978-15.142 6.104-25.716 10.039-25.716h.018c1.876.014 2.814 1.433 2.795 4.215-.054 6.837-4.386 16.625-12.874 29.092l-.664.976.052-1.18zm125.473 54.437c-.626.834-1.498 1.257-2.59 1.257-1.254-.011-2.196-.447-2.837-1.304-1.796-2.399-1.29-8.039 1.64-18.276.351-1.224.73-2.453 1.132-3.656l.34-1.021.299 1.033c3.413 11.817 4.091 19.207 2.016 21.967zm1.062-30.275l-.062-.113-.124-.393.058-.117c3.892-8.02 8.352-12.617 12.232-12.617h.04c4.382.033 7.412 3.977 7.37 9.586-.029 3.744-1.68 5.9-3.058 7.049-1.573 1.312-3.668 2.062-5.748 2.062-5.128-.039-8.648-2.99-10.708-5.457zm12.104-12.903v-.005.005zM147.492 86.761c6.008-.48 10.774-8.651 12.544-12.143l.456-.9.173.994c.85 4.91 3.521 13.16 11.876 13.226h.07c3.614 0 7.714-2.211 11.858-6.392l.304-.307.221.369c2.79 4.666 6.532 7.145 10.516 6.941 5.865-.305 9.425-4.461 9.738-7.348.08-.736-.114-1.429-.535-1.896-.527-.588-1.293-.656-1.855-.117l-.269.254c-1.365 1.311-3.909 3.754-6.681 3.898-3.394.166-5.904-1.863-7.526-6.051l-.067-.176.114-.148c9.333-12.207 15.882-30.833 15.235-43.326-.298-5.782-1.979-12.675-8.294-12.675l-.471.012c-2.419.125-4.619 1.278-6.538 3.425-5.859 6.555-8.925 22.689-7.812 41.104.23 3.826.895 7.402 1.974 10.625l.061.181-.123.146c-3.463 4.047-6.88 6.276-9.622 6.276-6.597 0-6.375-11.062-5.854-20.234.113-1.978.28-3.238-.305-3.954-.418-.513-1.118-.766-2.138-.774l-.119-.001c-2.348 0-2.839.483-4.04 3.967-2.499 7.238-7.432 19.385-12.394 19.385-1.375-.013-2.425-.482-3.144-1.398-2.407-3.072-.579-10.734.889-16.893.264-1.107.517-2.17.734-3.154.321-1.46.223-2.525-.293-3.17-.518-.643-1.551-.903-2.914-.795-2.125.17-3.484 1.06-4.141 5.101l-.132.84-.494-.598c-.928-1.37-2.737-3.002-6.096-3.002-.294 0-.599.012-.914.037-3.584.294-7.665 2.791-10.652 6.518-3.487 4.351-5.153 9.858-4.689 15.509.024.299.067.586.11.871l.024.157-.108.119c-2.086 2.272-4.212 3.426-6.318 3.426-3.251-.024-5.116-2.44-5.116-6.465 0-6.774 4.591-27.197 4.591-34.59 0-7.868-3.506-12.151-9.594-12.198h-.092c-8.89 0-15.818 10.087-22.448 30.841a339.13 339.13 0 0 0-1.834 5.994l-.931 3.121.275-3.244a403.759 403.759 0 0 0 1.257-20.907c.33-10.03-1.025-16.485-4.146-19.733-1.683-1.752-3.909-2.615-6.809-2.637h-.074c-10.878 0-16.089 18.346-19.884 31.291-1.145 3.908-3.402 12.723-4.909 18.749l.893-1.451c.669-7.588 2.608-26.595 2.481-36.907-.138-11.062-3.82-16.021-11.945-16.083h-.1c-4.34 0-7.351 2.157-9.112 3.966-2.828 2.904-4.59 7.148-4.492 10.813.06 2.228 1.427 4.211 2.463 4.211.675 0 1.049-.901 1.211-1.438 2.514-8.309 5.767-12.349 9.941-12.349 1.731.013 3.02.523 3.984 1.56 3.262 3.499 2.668 12.947 1.593 30.1-.348 5.528-.74 11.791-1.071 18.916a189.994 189.994 0 0 1-.206 3.525c-.317 4.947-.569 8.857 1.308 9.148 2.442.381 4.031-.611 4.845-3.027 1.206-3.586 3.911-13.387 9.145-31.296 5.022-17.186 8.816-23.439 13.67-23.439 5.608 0 6.026 9.629 4.998 29.949-.219 4.308-.512 9.187-.737 14.496-.031.746-.066 1.47-.102 2.166-.216 4.397-.386 7.864.87 9.194.392.414.924.619 1.629.623 2.431 0 3.162-2.131 4.373-5.664.214-.623.441-1.289.694-1.985 8.33-22.979 14.489-42.916 22.756-42.916 2.479 0 4.409 2.014 4.409 5.942 0 9.067-4.434 26.586-4.434 35.47 0 3.183.916 6.039 2.646 8.047 1.776 2.062 4.261 3.16 7.186 3.185h.064c2.766 0 5.647-1.344 8.567-3.994l.274-.248.22.297c1.923 2.584 5.025 3.973 8.375 3.715 5.138-.4 9.449-4.975 11.053-9.289l.314-.844.313.844c1.192 3.201 3.77 7.059 9.279 6.612zm47.344-60.042l.088-.002c.587 0 1.103.294 1.531.876 2.04 2.758 2.071 12.825-1.438 24.279-2.005 6.546-4.702 12.73-7.796 17.881l-.494.82-.126-.949c-.364-2.77-.544-5.654-.67-8.108-.895-17.313 4.342-34.56 8.905-34.797zm-57.008 40.463c-1.798 7.235-5.246 15.969-11.463 16.469l-.506.021c-2.579 0-4.025-1.688-4.298-5.02-.342-4.168 1.455-9.049 4.577-12.438 1.987-2.158 4.229-3.346 6.312-3.346h.042c2.629.02 4.472 2.131 5.319 4.1l.045.102-.028.112zm28.835-26.525c-2.295 0-4.148 1.808-4.166 4.031-.018 2.239 1.824 4.075 4.104 4.092l.033.333v-.333c2.262 0 4.114-1.807 4.132-4.029.018-2.24-1.823-4.076-4.103-4.094zm144.293 0c-2.295 0-4.147 1.808-4.166 4.031-.018 2.239 1.823 4.075 4.104 4.092l.032.333v-.333c2.264 0 4.116-1.807 4.134-4.029.016-2.24-1.824-4.076-4.104-4.094z" fill="var(--mdc-theme-on-surface)"/>
<path d="M423.323 83.503a2.823 2.823 0 0 0-2.818 2.82 2.821 2.821 0 0 0 2.818 2.815 2.822 2.822 0 0 0 2.819-2.815 2.822 2.822 0 0 0-2.819-2.82zm0 5.228c-1.334 0-2.409-1.073-2.409-2.407s1.075-2.41 2.409-2.41c1.333 0 2.41 1.076 2.41 2.41s-1.077 2.407-2.41 2.407zm1.249-3.144c0-.582-.286-.9-1.022-.9h-1.25v3.248h.409v-1.422h.584l.97 1.422h.462l-.97-1.422c.44-.077.817-.327.817-.926zm-1.339.56h-.522v-1.099h.727c.349 0 .729.121.729.537-.003.541-.487.562-.934.562z" fill="var(--mdc-theme-on-surface)"/>
</svg>