<?xml version="1.0" encoding="UTF-8"?>
<svg width="1000px" height="562px" viewBox="0 0 1000 562" version="1.1" xmlns="http://www.w3.org/2000/svg" xmlns:xlink="http://www.w3.org/1999/xlink">
    <!-- Generator: Sketch 52.5 (67469) - http://www.bohemiancoding.com/sketch -->
    <title>bg2</title>
    <desc>Created with Sketch.</desc>
    <defs>
        <linearGradient x1="100%" y1="75.7294004%" x2="0%" y2="24.2389356%" id="linearGradient-1">
            <stop stop-color="#FBAB7E" offset="0%"></stop>
            <stop stop-color="#F7CE68" offset="100%"></stop>
        </linearGradient>
    </defs>
    <g id="bg2" stroke="none" stroke-width="1" fill="none" fill-rule="evenodd">
        <rect id="Rectangle" fill="url(#linearGradient-1)" x="0" y="0" width="1000" height="562"></rect>
        <path d="M171.321233,418.666265 C413.470227,323.37414 667.786575,461.616944 667.786575,284.204335 C667.786575,194.805012 605.915632,122.891684 421.546297,98.7645847 C335.449378,87.4976951 217.268598,137.475787 110.027408,133.746977 C-8.81898647,129.61465 -231.748122,56.044477 -272.574214,110.320516 C-342.280207,202.990791 -264.409616,266.585218 -255.889585,319.722748 C-245.274293,385.927957 -298.929322,437.268237 -375.473197,524.283344 C-513.452605,681.138389 -70.8277604,513.95839 171.321233,418.666265 Z" id="Oval" fill="#FFFFFF" opacity="0.246884301" transform="translate(133.110967, 339.549630) rotate(-241.000000) translate(-133.110967, -339.549630) "></path>
        <path d="M810.123695,74.5161934 C1036.648,-14.6556264 1274.55456,114.708289 1274.55456,-51.3096823 C1274.55456,-134.967176 1216.67584,-202.261743 1044.20296,-224.839237 C963.661454,-235.38249 853.106302,-188.614329 752.78486,-192.10365 C641.607042,-195.970571 433.062432,-264.81557 394.870648,-214.025505 C329.662442,-127.307142 402.508425,-67.7971799 410.4787,-18.0725021 C420.40904,43.8805612 370.216107,91.9234211 298.611233,173.349829 C169.534961,320.130581 583.599391,163.688013 810.123695,74.5161934 Z" id="Oval-Copy" fill="#FFFFFF" opacity="0.246884301" transform="translate(774.378950, 0.480964) rotate(-241.000000) translate(-774.378950, -0.480964) "></path>
    </g>
</svg>