<?xml version="1.0" encoding="UTF-8"?>
<svg width="170px" height="58px" viewBox="0 0 170 58" version="1.1" xmlns="http://www.w3.org/2000/svg" xmlns:xlink="http://www.w3.org/1999/xlink">
    <!-- Generator: Sketch 52.5 (67469) - http://www.bohemiancoding.com/sketch -->
    <title>Buttons / Light Text / Store / Google Play</title>
    <desc>Created with Sketch.</desc>
    <defs>
        <rect id="path-1" x="0" y="0" width="170" height="58" rx="8"></rect>
    </defs>
    <g id="Content" stroke="none" stroke-width="1" fill="none" fill-rule="evenodd">
        <g id="Content-39" transform="translate(-725.000000, -483.000000)">
            <g id="Buttons-/-Dark-Text-/-Store-/-Google-Play">
                <g transform="translate(725.000000, 483.000000)">
                    <g id="Group">
                        <mask id="mask-2" fill="white">
                            <use xlink:href="#path-1"></use>
                        </mask>
                        <use id="◼️-Background" fill="#F3F3F3" xlink:href="#path-1"></use>
                        <path d="M148.750619,40.4194156 L144.369239,30.449055 L146.947058,30.449055 L150.039608,37.4862386 L153.132106,30.449055 L155.710094,30.449055 L148.876044,46 L146.298225,46 L148.750619,40.4194156 Z M116.573484,25.0642285 L122.282812,25.0642285 C125.050414,25.0642285 127.314678,27.3284927 127.314678,30.0960952 C127.314678,32.8635292 125.050414,35.1277934 122.282812,35.1277934 L118.933735,35.1277934 L118.933735,40.8595174 L116.573484,40.8595174 L116.573484,25.0643969 Z M60.5613202,32.0995126 L60.5611518,32.0988391 C60.5611518,32.0988391 60.6995741,32.6503388 60.6995741,33.6041386 C60.6995741,38.1255943 57.4323381,41.1833446 52.9689793,41.1833446 C47.8940031,41.1833446 44.4470877,37.057453 44.4470877,32.8261451 C44.4470877,28.5079444 48.1115718,24.5100345 52.8482388,24.5102029 C56.5681254,24.5102029 58.6077482,26.7806978 58.6077482,26.7806978 L57.0185871,28.4262719 C57.0185871,28.4262719 55.5025101,26.7859181 52.9294061,26.7859181 C49.594643,26.7859181 46.9348146,29.4314328 46.9348146,32.8665603 C46.9348146,36.3926222 49.7249822,38.9086397 52.9225018,38.9086397 C55.4216796,38.9086397 58.0693835,37.551361 58.3374713,34.3689971 L52.9134084,34.3689971 L52.9134084,32.0995126 L60.5613202,32.0995126 Z M67.0626179,30.4559593 C69.642121,30.4559593 72.4395297,32.2839072 72.4395297,35.8332079 C72.4395297,38.9298578 70.0346541,41.1735775 67.09916,41.1735775 C63.85651,41.1735775 61.6752655,38.6745681 61.6752655,35.770901 C61.6752655,32.9093331 63.9242056,30.4559593 67.0626179,30.4559593 Z M78.9061376,30.4559593 C81.4859775,30.4559593 84.2832178,32.2839072 84.2832178,35.8332079 C84.2832178,38.9298578 81.8783422,41.1735775 78.9430165,41.1735775 C75.7001981,41.1735775 73.5187852,38.6745681 73.5187852,35.770901 C73.5187852,32.9093331 75.7678937,30.4559593 78.9061376,30.4559593 Z M67.0936029,32.5607516 L67.0936029,32.56092 C65.3596204,32.56092 64.0269276,33.947163 64.0269276,35.8034016 C64.0269276,37.7003923 65.3762917,39.0701323 67.0865302,39.0701323 C68.6430224,39.0701323 70.0993185,37.7867799 70.0993185,35.8190625 C70.0993185,33.8085724 68.6369601,32.5607516 67.0936029,32.5607516 Z M78.937291,32.5607516 L78.937291,32.56092 C77.2031401,32.56092 75.8707841,33.947163 75.8707841,35.8034016 C75.8707841,37.7003923 77.2199798,39.0701323 78.9300499,39.0701323 C80.4867105,39.0701323 81.9430066,37.7867799 81.9430066,35.8190625 C81.9430066,33.8085724 80.4804798,32.5607516 78.937291,32.5607516 Z M90.506829,30.4616848 L90.506829,30.4618532 C91.7608804,30.4618532 92.7055868,30.9470045 93.3963507,31.691487 L93.3963507,30.783828 L95.6431017,30.783828 L95.6431017,40.4130973 C95.6431017,44.1964696 93.4603415,46 90.5962477,46 C87.9780133,46 86.5072351,44.390126 85.7763927,42.8444112 L87.8360548,41.9833981 C88.121319,42.6739936 88.9424221,43.8916713 90.5792396,43.8916713 C92.2736489,43.8916713 93.3961823,42.7839567 93.3961823,40.9351276 L93.3961823,39.8784373 C92.7966895,40.5742531 91.9846798,41.1806502 90.4571519,41.1806502 C87.9871067,41.1806502 85.3621365,39.0416733 85.3621365,35.8160314 C85.3621365,32.9844381 87.6265691,30.4616848 90.506829,30.4616848 Z M90.7153043,32.5622672 C89.2037741,32.5622672 87.7196925,33.7900487 87.7196925,35.8473532 C87.7196925,37.8273635 89.1487083,39.0741739 90.6841509,39.0741739 C92.1306799,39.0741739 93.5778826,37.9206554 93.5778826,35.8274824 C93.5778826,33.7681571 92.1276488,32.5622672 90.7153043,32.5622672 Z M106.105262,30.4487182 L106.10543,30.449055 C108.248449,30.449055 109.867585,31.8780708 110.561716,33.5891513 L110.934884,34.4629626 L103.749221,37.444429 C104.178465,38.2434721 104.87125,39.0684484 106.37756,39.0686168 C107.718672,39.0686168 108.52243,38.3394584 109.003204,37.5932919 L110.855569,38.8259569 C110.025036,39.9373762 108.633572,41.1776191 106.366277,41.1776191 C103.649699,41.1776191 101.106906,39.1758856 101.106906,35.8005389 C101.106906,32.6105971 103.388179,30.4487182 106.105262,30.4487182 Z M106.199059,32.5098958 L106.198891,32.5098958 C104.647619,32.5098958 103.176504,34.1073084 103.383295,35.6600959 L108.181932,33.6544893 C107.882691,33.0302421 107.178118,32.5098958 106.199059,32.5098958 Z M97.4449481,40.8595174 L97.4449481,25.0643969 L99.8051985,25.0643969 L99.8051985,40.8595174 L97.4449481,40.8595174 Z M129.08975,40.8595174 L129.08975,25.0643969 L131.45,25.0643969 L131.45,40.8595174 L129.08975,40.8595174 Z M118.933735,27.424479 L118.933735,32.767543 L122.282812,32.767543 C123.747696,32.767543 124.954596,31.5608111 124.954596,30.0960952 C124.954596,28.6312109 123.747696,27.424479 122.282812,27.424479 L118.933735,27.424479 Z M141.109749,40.8595174 L141.109749,39.5845848 C140.565827,40.2317339 139.902007,40.7327146 139.058844,40.9625763 C137.561122,41.3707703 135.738058,41.2097829 134.627649,40.0151755 C133.915162,39.2484646 133.687321,37.9903717 133.820859,36.9697183 C134.067898,35.0809791 135.622537,33.9277974 137.438361,33.7440764 C138.601646,33.626367 139.874895,33.8526924 141.053505,34.1649002 C140.795689,31.5899437 136.874063,31.0370968 135.499776,33.4397833 L133.600428,32.1653558 C136.41114,27.9416257 143.839294,29.3196172 143.47,35.1786493 L143.47,40.8595174 L141.109749,40.8595174 Z M141.109749,36.2936049 C140.449297,36.0797409 139.841721,35.9071341 139.1454,35.823104 C135.089561,35.213339 135.768538,39.6477336 138.497745,38.9037562 C139.789518,38.5519752 140.807814,37.6071004 141.109749,36.2936049 Z M52.257671,15.4538196 L52.257671,15.4536512 C52.257671,15.4536512 52.3208198,15.7045626 52.3208198,16.1386897 C52.3208198,18.1963309 50.8338755,19.5876258 48.8025042,19.5876258 C46.4931096,19.5876258 44.9244928,17.7101692 44.9244928,15.7843827 C44.9244928,13.8193597 46.5919586,12 48.7476068,12 C50.4405004,12 51.3687039,13.0332831 51.3687039,13.0332831 L50.6456078,13.782144 C50.6456078,13.782144 49.9556859,13.0358091 48.7844857,13.0358091 C47.2668932,13.0358091 46.0564565,14.2396783 46.0564565,15.8029063 C46.0564565,17.4077284 47.3263373,18.5526587 48.7814546,18.5526587 C49.918807,18.5526587 51.1236865,17.934979 51.2457742,16.4865976 L48.7772446,16.4865976 L48.7772446,15.4538196 L52.257671,15.4538196 Z M66.4833327,19.4404469 L66.4833327,12.2522585 L67.5573679,12.2522585 L67.5573679,19.4404469 L66.4833327,19.4404469 Z M60.4680284,19.4404469 L60.4680284,13.3262937 L58.7049132,13.3262937 L58.7049132,12.2522585 C60.2385034,12.2522585 61.7719253,12.2522585 63.3053471,12.2522585 L63.3053471,13.3262937 L61.542232,13.3262937 L61.542232,19.4404469 L60.4680284,19.4404469 Z M53.4531203,19.4404469 C53.4531203,17.044328 53.4531203,14.648209 53.4531203,12.2522585 L57.5724443,12.2522585 L57.5724443,13.3262937 L54.5273239,13.3262937 L54.5273239,15.3093351 L57.2058444,15.3093351 L57.2058444,16.3833703 L54.5273239,16.3833703 L54.5273239,18.3662434 L57.5724443,18.3662434 L57.5724443,19.4404469 L53.4531203,19.4404469 Z M71.2690031,19.4404469 L70.1949679,19.4404469 L70.1949679,13.3262937 L68.4318528,13.3262937 L68.4318528,12.2522585 C69.9652746,12.2522585 71.4986964,12.2522585 73.0321182,12.2522585 L73.0321182,13.3262937 L71.2690031,13.3262937 L71.2690031,19.4404469 Z M79.6191299,12 C81.7747781,12 83.4424122,13.8191913 83.4424122,15.7843827 C83.4424122,17.6946767 81.8985498,19.5574828 79.6191299,19.5869522 C77.33971,19.5574828 75.7958475,17.6946767 75.7958475,15.7843827 C75.7958475,13.8191913 77.4634817,12 79.6191299,12 Z M79.6191299,18.5521535 C81.0601018,18.5344718 82.3102801,17.3952671 82.3102801,15.8029063 C82.3102801,14.2524764 81.1195459,13.0555115 79.6191299,13.0361459 C78.1188822,13.0555115 76.9279796,14.2524764 76.9279796,15.8029063 C76.9279796,17.3952671 78.1781579,18.5344718 79.6191299,18.5521535 Z M84.5152686,19.4404469 L84.5152686,12.2522585 L85.5894722,12.2522585 L89.037398,17.4855278 L89.037398,12.2522585 L90.1116016,12.2522585 L90.1116016,19.4404469 L89.0392503,19.4404469 L85.5894722,14.2044833 L85.5894722,19.4404469 L84.5152686,19.4404469 Z M15.5958218,20.9659541 L27.7318468,33.0837923 L15.6540871,45.3078889 C15.3016325,45.0839211 15.1126912,44.5989381 15.1094916,43.9725018 C15.1034294,42.7709902 15.0072747,23.7071182 15.0000337,22.2765869 C14.9966657,21.5905381 15.2462299,21.1720719 15.5958218,20.9659541 Z M31.7337982,29.033511 L28.2338379,32.5755706 L16.4613816,20.8204592 C16.6397139,20.8438664 16.8187198,20.8962378 16.9763393,20.9822886 L31.7337982,29.033511 Z M32.3900408,36.7255428 L28.7393652,33.080256 L32.3863361,29.3895019 L37.4086041,32.1291505 C38.6458158,32.8037483 38.0129804,33.6477534 37.4086041,33.9784848 L32.3900408,36.7255428 Z M16.6545328,45.3112568 L28.2373742,33.5884777 L31.7368294,37.0827126 L16.9763393,45.1613836 C16.8648605,45.2236905 16.7574233,45.2725256 16.6545328,45.3112568 Z" id="Combined-Shape" fill="#616161" mask="url(#mask-2)"></path>
                    </g>
                </g>
            </g>
        </g>
    </g>
</svg>