<?xml version="1.0" encoding="UTF-8"?>
<svg width="24px" height="19px" viewBox="0 0 24 19" version="1.1" xmlns="http://www.w3.org/2000/svg" xmlns:xlink="http://www.w3.org/1999/xlink">
    <!-- Generator: Sketch 50.2 (55047) - http://www.bohemiancoding.com/sketch -->
    <title>round-view_quilt-24px (1)</title>
    <desc>Created with Sketch.</desc>
    <defs></defs>
    <g id="Home-v1" stroke="none" stroke-width="1" fill="none" fill-rule="evenodd">
        <g id="Main-page" transform="translate(-1007.000000, -2219.000000)" fill="currentColor" fill-rule="nonzero">
            <g id="CMS-v2" transform="translate(73.000000, 525.000000)">
                <g id="Features--2" transform="translate(200.000000, 1240.000000)">
                    <g id="Build-Layouts" transform="translate(734.000000, 448.000000)">
                        <g id="round-view_quilt-24px-(1)" transform="translate(0.000000, 6.000000)">
                            <path d="M9.88235294,18.3529412 L14.1176471,18.3529412 C14.8941176,18.3529412 15.5294118,17.7176471 15.5294118,16.9411765 L15.5294118,11.2941176 C15.5294118,10.5176471 14.8941176,9.88235294 14.1176471,9.88235294 L9.88235294,9.88235294 C9.10588235,9.88235294 8.47058824,10.5176471 8.47058824,11.2941176 L8.47058824,16.9411765 C8.47058824,17.7176471 9.10588235,18.3529412 9.88235294,18.3529412 Z M1.41176471,18.3529412 L5.64705882,18.3529412 C6.42352941,18.3529412 7.05882353,17.7176471 7.05882353,16.9411765 L7.05882353,1.41176471 C7.05882353,0.635294118 6.42352941,0 5.64705882,0 L1.41176471,0 C0.635294118,0 0,0.635294118 0,1.41176471 L0,16.9411765 C0,17.7176471 0.635294118,18.3529412 1.41176471,18.3529412 Z M18.3529412,18.3529412 L22.5882353,18.3529412 C23.3647059,18.3529412 24,17.7176471 24,16.9411765 L24,11.2941176 C24,10.5176471 23.3647059,9.88235294 22.5882353,9.88235294 L18.3529412,9.88235294 C17.5764706,9.88235294 16.9411765,10.5176471 16.9411765,11.2941176 L16.9411765,16.9411765 C16.9411765,17.7176471 17.5764706,18.3529412 18.3529412,18.3529412 Z M8.47058824,1.41176471 L8.47058824,7.05882353 C8.47058824,7.83529412 9.10588235,8.47058824 9.88235294,8.47058824 L22.5882353,8.47058824 C23.3647059,8.47058824 24,7.83529412 24,7.05882353 L24,1.41176471 C24,0.635294118 23.3647059,0 22.5882353,0 L9.88235294,0 C9.10588235,0 8.47058824,0.635294118 8.47058824,1.41176471 Z" id="Shape"></path>
                        </g>
                    </g>
                </g>
            </g>
        </g>
    </g>
</svg>