<?xml version="1.0" encoding="UTF-8"?>
<svg width="413px" height="126px" viewBox="0 0 413 126" version="1.1" xmlns="http://www.w3.org/2000/svg" xmlns:xlink="http://www.w3.org/1999/xlink">
    <!-- Generator: Sketch 55.2 (78181) - https://sketchapp.com -->
    <title>Group 27</title>
    <desc>Created with Sketch.</desc>
    <defs>
        <path d="M106.337016,98.7997963 L63.0899545,123.570655 C58.9970198,125.91444 53.9546983,125.91444 49.861857,123.570655 L6.61395537,98.7997963 C2.52111405,96.4552699 -5.07221701e-15,92.1236493 -4.78514071e-15,87.4353375 L-1.75158541e-15,37.8936199 C-1.46450911e-15,33.2053081 2.52111405,28.873039 6.61395537,26.5292537 L49.861857,1.75839485 C53.9546983,-0.586131618 58.9970198,-0.586131618 63.0899545,1.75839485 L106.337016,26.5292537 C110.42995,28.873039 112.951064,33.2053081 112.951064,37.8936199 L112.951064,87.4353375 C112.951064,92.1236493 110.42995,96.4552699 106.337016,98.7997963 Z M82.6150471,41.7683515 C79.3715736,50.8470221 76.1049397,59.9486691 72.8391463,69.0602294 L71.8026281,69.0602294 C68.5476678,59.9265265 65.281781,50.8027368 62.0268207,41.6911765 L51.872043,41.6911765 C48.5723496,50.9027956 45.3065562,60.0257515 42.0407628,69.1602882 L41.0927769,69.1602882 C37.7823438,59.9371809 34.4719107,50.7148147 31.2722364,41.8126368 L19.1446281,41.8126368 C25.0417339,58.5659118 30.7933405,74.8990324 36.5448537,91.2321529 L46.554786,91.2321529 L56.4646992,63.5972029 L57.4680645,63.5972029 C60.7784975,72.8645956 64.0781909,82.1427353 67.3216645,91.2099176 L77.3540099,91.2099176 C83.127843,74.8103691 88.8794496,58.4665941 94.7542355,41.7683515 L82.6150471,41.7683515 Z" id="path-1"></path>
    </defs>
    <g id="Page-4" stroke="none" stroke-width="1" fill="none" fill-rule="evenodd">
        <g id="Webiny-Logo-Icon" transform="translate(-95.000000, -227.000000)">
            <g id="Group-27" transform="translate(301.500000, 290.500000) rotate(-90.000000) translate(-301.500000, -290.500000) translate(238.000000, 84.000000)">
                <path d="M38.9886,294.4019 L38.9886,303.1704 L78.6828,303.1704 L78.6828,294.4019 L38.9886,294.4019 Z M78.7273,391.1846 L78.7273,382.0161 C70.8914,382.0161 63.4463,382.0343 56.0012,382.0071 C51.053,381.9807 47.5708,378.463 47.6153,373.6211 C47.6508,368.7347 50.1294,366.4688 55.6376,366.4333 C62.1493,366.3888 68.67,366.4333 75.1825,366.4069 C76.3641,366.3979 77.5457,366.2024 78.6737,366.0961 L78.6737,357.5321 C78.3183,357.3812 78.132,357.2294 77.9456,357.2294 C68.6436,357.203 59.3243,357.0522 50.0231,357.2294 C45.492,357.3185 41.9472,359.4508 40.0457,363.9192 C43.0934,368.4948 42.8262,373.5585 42.2045,378.6312 C41.6891,382.7714 41.9736,386.8226 42.8707,391.2736 C54.8641,391.2382 66.7693,391.3709 78.7273,391.1846 L78.7273,391.1846 Z M69.3634,348.63 C73.2192,348.5236 76.0532,346.054 77.6875,342.5091 C79.3754,338.8489 80.1043,334.9486 79.18,331.0393 C78.4164,327.8053 77.0213,324.7231 75.866,321.48 C77.0839,320.0766 78.4692,318.4687 80.0062,316.7099 C78.0338,314.5149 76.3369,312.6142 74.6407,310.7218 C69.5589,314.773 69.5589,314.773 62.94,314.773 C56.1175,314.773 49.2851,314.773 42.4626,314.782 C41.3609,314.782 40.2502,314.8793 39.0068,314.942 L39.0068,323.9859 L61.243,323.9859 C66.0759,323.9859 69.3189,326.5091 70.536,331.2174 C71.9576,336.7256 69.7807,339.6042 64.1126,339.6215 C56.8811,339.6479 49.6405,339.6215 42.3999,339.6396 C41.2983,339.6396 40.1966,339.746 39.0777,339.8078 L39.0777,348.7099 C49.3296,348.7099 59.3506,348.888 69.3634,348.63 L69.3634,348.63 Z M70.9978,230.0101 C70.696,234.3985 68.919,236.0954 64.468,235.7936 C59.9996,231.3517 61.892,225.8344 61.5894,220.6371 C67.1066,221.0107 71.3177,225.3372 70.9978,230.0101 L70.9978,230.0101 Z M50.8575,242.7852 C49.8804,240.5374 48.9742,238.5741 48.1834,236.5663 C46.9309,233.4213 46.5665,230.161 47.2418,226.8206 C47.908,223.4984 49.4986,221.8987 53.008,221.2679 C53.008,223.1603 53.0163,224.9909 53.008,226.8116 C52.9635,231.1117 53.5671,235.2874 55.6104,239.1249 C59.7951,246.9699 70.625,247.938 75.8133,240.84 C81.3214,233.315 80.8506,222.0851 73.112,215.5825 C67.3111,210.7142 60.524,209.7635 53.2562,210.927 C47.3218,211.8868 42.8353,214.9517 40.1612,220.2908 C36.3591,227.8777 38.376,240.6265 44.3632,247.2544 C46.5137,245.7702 48.6897,244.2686 50.8575,242.7852 L50.8575,242.7852 Z M55.6549,410.8713 C61.5011,408.3398 65.4014,401.3037 64.4952,394.8539 C64.4152,394.2759 64.0507,393.7432 63.7662,393.086 L54.7223,393.086 C54.9177,394.3031 55.1577,395.3066 55.2195,396.3192 C55.3795,398.8605 54.0025,401.3483 52.0218,402.2545 C49.8004,403.2761 46.6291,402.6898 44.914,400.7348 C44.0523,399.7486 43.1816,398.576 42.8534,397.3416 C42.0626,394.374 41.21,391.3355 41.0855,388.2887 C40.8456,382.7178 41.21,377.1215 41.041,371.5424 C40.8983,367.0287 38.5887,362.7821 34.733,360.437 C28.035,356.3678 18.742,358.2783 14.2292,364.4255 C9.849,370.3962 10.6307,379.2975 16.068,384.5838 C19.9855,388.395 24.8719,390.0384 30.4864,390.9001 L30.4864,381.5807 C29.4739,381.2608 28.2741,380.9772 27.1461,380.5146 C25.9117,380.0083 24.6501,379.4847 23.5567,378.7384 C20.8562,376.8897 19.9682,373.5675 21.2735,370.8044 C22.3042,368.6193 25.2982,367.1796 27.8124,367.6595 C30.8954,368.2457 31.988,369.8273 31.9971,373.8429 C32.0144,379.5284 31.819,385.2146 32.0061,390.8918 C32.2016,396.5773 33.8359,401.89 37.4252,406.4293 C41.6536,411.7865 49.3123,413.6171 55.6549,410.8713 L55.6549,410.8713 Z M50.8312,276.8821 C47.7126,274.5107 46.9136,271.1695 46.9309,267.5364 C46.94,265.7859 47.2154,264.0361 47.4108,261.7702 C53.6207,261.7702 59.6087,261.5393 65.5696,261.8683 C68.5282,262.0283 70.1715,264.6042 70.9359,267.2783 C71.833,270.3969 71.5758,273.4618 69.0344,275.905 C64.6906,280.0625 55.6376,280.5334 50.8312,276.8821 L50.8312,276.8821 Z M64.2461,288.3157 C74.5162,286.8323 80.6906,279.059 80.0862,268.7626 C79.9534,266.5321 79.2336,264.3379 78.7001,261.7529 L95.5,261.7529 L95.5,252.3626 L40.4275,252.3626 C38.9622,256.5737 37.8961,265.1105 38.2424,269.3843 C39.0686,279.6008 44.2304,286.0687 53.7988,288.0675 C57.1655,288.7783 60.8349,288.8137 64.2461,288.3157 L64.2461,288.3157 Z M78.6919,200.586 C71.3977,198.001 64.0862,195.3978 56.7656,192.7946 L56.7656,191.9684 C64.1035,189.3743 71.4331,186.7711 78.7537,184.177 L78.7537,176.0838 C71.3531,173.4542 64.0243,170.851 56.6856,168.2479 L56.6856,167.4925 C64.0952,164.8547 71.504,162.2161 78.6556,159.6657 L78.6556,150 C65.1969,154.7001 52.0746,159.2839 38.9532,163.8685 L38.9532,171.8463 L61.1548,179.7441 L61.1548,180.5439 C53.7097,183.1825 46.2556,185.8121 38.9713,188.3971 L38.9713,196.393 C52.1463,200.995 65.2769,205.5788 78.6919,210.2607 L78.6919,200.586 Z" id="Fill-23" fill="#FFFFFF"></path>
                <g id="Webiny-Icon-White" transform="translate(63.500000, 56.500000) rotate(90.000000) translate(-63.500000, -56.500000) translate(7.000000, -6.500000)">
                    <mask id="mask-2" fill="white">
                        <use xlink:href="#path-1"></use>
                    </mask>
                    <use id="Mask" fill="#FFFFFF" fill-rule="evenodd" xlink:href="#path-1"></use>
                    <g id="White" mask="url(#mask-2)"></g>
                </g>
            </g>
        </g>
    </g>
</svg>