<svg viewBox="0 0 413 126" xmlns="http://www.w3.org/2000/svg" xmlns:xlink="http://www.w3.org/1999/xlink" style="height: 24px; color: var(--mdc-theme-primary);"><defs><path d="M106.337 98.8 63.09 123.57a13.322 13.322 0 0 1-13.228 0L6.614 98.8C2.521 96.455 0 92.124 0 87.435V37.894c0-4.689 2.521-9.021 6.614-11.365L49.862 1.76a13.318 13.318 0 0 1 13.228 0l43.247 24.77a13.103 13.103 0 0 1 6.614 11.365v49.541c0 4.689-2.521 9.02-6.614 11.365ZM82.615 41.768c-3.243 9.079-6.51 18.18-9.776 27.292h-1.036c-3.255-9.133-6.521-18.257-9.776-27.369H51.872c-3.3 9.212-6.565 18.335-9.831 27.47h-.948c-3.31-9.224-6.621-18.446-9.82-27.348H19.144c5.897 16.753 11.648 33.086 17.4 49.42h10.01l9.91-27.636h1.003c3.31 9.268 6.61 18.546 9.854 27.613h10.032c5.774-16.4 11.525-32.743 17.4-49.442H82.615Z" id="a"></path></defs><g fill="none" fill-rule="evenodd"><path d="M294.402 88.011h8.768V48.317h-8.768v39.694Zm96.783-39.738h-9.169c0 7.836.018 15.28-.009 22.726-.026 4.948-3.544 8.43-8.386 8.386-4.886-.036-7.152-2.514-7.188-8.023-.044-6.511 0-13.032-.026-19.544-.01-1.182-.205-2.364-.31-3.492h-8.565c-.15.356-.303.542-.303.728-.026 9.302-.177 18.622 0 27.923.09 4.531 2.222 8.076 6.69 9.977 4.576-3.047 9.64-2.78 14.712-2.158 4.14.515 8.192.23 12.643-.667-.036-11.993.097-23.898-.09-35.856Zm-42.555 9.364c-.106-3.856-2.576-6.69-6.12-8.324-3.661-1.688-7.561-2.417-11.47-1.493-3.235.764-6.317 2.159-9.56 3.314-1.403-1.218-3.011-2.603-4.77-4.14-2.195 1.972-4.096 3.67-5.988 5.365 4.051 5.082 4.051 5.082 4.051 11.701 0 6.823 0 13.655.009 20.477 0 1.102.097 2.213.16 3.456h9.044V65.757c0-4.833 2.523-8.076 7.231-9.293 5.509-1.422 8.387.755 8.405 6.423.026 7.232 0 14.473.018 21.713 0 1.102.106 2.203.168 3.322h8.902c0-10.252.178-20.273-.08-30.285Zm-118.62-1.635c4.389.302 6.085 2.079 5.784 6.53-4.442 4.468-9.96 2.576-15.157 2.879.374-5.518 4.7-9.729 9.373-9.409Zm12.775 20.14c-2.248.978-4.21 1.884-6.219 2.675-3.145 1.252-6.405 1.617-9.745.941-3.323-.666-4.922-2.257-5.553-5.766 1.892 0 3.723-.008 5.544 0 4.3.045 8.475-.56 12.313-2.602 7.845-4.185 8.813-15.015 1.715-20.203-7.525-5.508-18.755-5.038-25.257 2.701-4.869 5.8-5.82 12.588-4.656 19.856.96 5.934 4.025 10.42 9.364 13.095 7.587 3.802 20.336 1.785 26.963-4.202-1.484-2.15-2.985-4.327-4.469-6.494Zm168.086-4.797c-2.531-5.846-9.567-9.746-16.017-8.84-.578.08-1.11.444-1.768.729v9.044c1.217-.196 2.22-.436 3.233-.497 2.541-.16 5.03 1.217 5.935 3.197 1.022 2.222.436 5.393-1.52 7.108-.985.862-2.158 1.732-3.392 2.06-2.968.791-6.006 1.644-9.053 1.769-5.571.24-11.167-.125-16.747.044-4.513.143-8.76 2.452-11.105 6.308-4.07 6.698-2.159 15.991 3.988 20.504 5.971 4.38 14.873 3.598 20.159-1.839 3.811-3.917 5.454-8.804 6.316-14.418h-9.32c-.32 1.012-.603 2.212-1.065 3.34-.507 1.234-1.03 2.496-1.777 3.59-1.848 2.7-5.17 3.588-7.934 2.283-2.185-1.031-3.624-4.025-3.144-6.54.586-3.082 2.167-4.175 6.183-4.184 5.685-.017 11.372.178 17.049-.01 5.685-.195 10.998-1.829 15.537-5.418 5.358-4.229 7.188-11.887 4.442-18.23ZM276.882 76.17c-2.371 3.118-5.712 3.917-9.346 3.9-1.75-.009-3.5-.284-5.766-.48 0-6.21-.23-12.198.098-18.159.16-2.958 2.736-4.601 5.41-5.366 3.119-.897 6.184-.64 8.627 1.902 4.158 4.343 4.628 13.396.977 18.203Zm11.434-13.415c-1.484-10.27-9.257-16.445-19.553-15.84-2.23.133-4.425.852-7.01 1.386V31.5h-9.39v55.073c4.21 1.465 12.748 2.53 17.021 2.185 10.217-.827 16.685-5.988 18.683-15.557.711-3.366.747-7.036.249-10.447Zm-87.73-14.446c-2.585 7.294-5.188 14.606-7.791 21.926h-.827c-2.594-7.337-5.197-14.667-7.791-21.988h-8.093c-2.63 7.4-5.233 14.73-7.836 22.068h-.755c-2.638-7.41-5.277-14.818-7.827-21.97H150c4.7 13.46 9.284 26.581 13.869 39.703h7.977l7.898-22.202h.8c2.638 7.445 5.268 14.9 7.853 22.184h7.996c4.602-13.175 9.186-26.306 13.868-39.72h-9.675Z" fill="currentColor"></path><g transform="translate(0 .5)"><mask id="b" fill="currentColor"><use xlink:href="#a"></use></mask><use fill="currentColor" xlink:href="#a"></use></g></g></svg>